ISO-10303-21;
HEADER;
/* Generated by software containing ST-Developer
 * from STEP Tools, Inc. (www.steptools.com) 
 */

FILE_DESCRIPTION(
/* description */ (''),
/* implementation_level */ '2;1');

FILE_NAME(
/* name */ 'Load Cell Mount - Alu.step',
/* time_stamp */ '2025-05-01T08:33:11+01:00',
/* author */ (''),
/* organization */ (''),
/* preprocessor_version */ 'ST-DEVELOPER v20.1',
/* originating_system */ 'Autodesk Translation Framework v14.4.0.0',
/* authorisation */ '');

FILE_SCHEMA (('AUTOMOTIVE_DESIGN { 1 0 10303 214 3 1 1 }'));
ENDSEC;

DATA;
#10=MECHANICAL_DESIGN_GEOMETRIC_PRESENTATION_REPRESENTATION('',(#13),#327);
#11=SHAPE_REPRESENTATION_RELATIONSHIP('SRR','None',#334,#12);
#12=ADVANCED_BREP_SHAPE_REPRESENTATION('',(#14),#326);
#13=STYLED_ITEM('',(#343),#14);
#14=MANIFOLD_SOLID_BREP('Load Cell Mount - Alu',#195);
#15=CYLINDRICAL_SURFACE('',#221,2.);
#16=CYLINDRICAL_SURFACE('',#222,2.);
#17=FACE_BOUND('',#38,.T.);
#18=FACE_BOUND('',#39,.T.);
#19=FACE_BOUND('',#43,.T.);
#20=FACE_BOUND('',#44,.T.);
#21=CIRCLE('',#212,2.);
#22=CIRCLE('',#213,2.);
#23=CIRCLE('',#217,2.);
#24=CIRCLE('',#218,2.);
#25=FACE_OUTER_BOUND('',#35,.T.);
#26=FACE_OUTER_BOUND('',#36,.T.);
#27=FACE_OUTER_BOUND('',#37,.T.);
#28=FACE_OUTER_BOUND('',#40,.T.);
#29=FACE_OUTER_BOUND('',#41,.T.);
#30=FACE_OUTER_BOUND('',#42,.T.);
#31=FACE_OUTER_BOUND('',#45,.T.);
#32=FACE_OUTER_BOUND('',#46,.T.);
#33=FACE_OUTER_BOUND('',#47,.T.);
#34=FACE_OUTER_BOUND('',#48,.T.);
#35=EDGE_LOOP('',(#129,#130,#131,#132,#133,#134));
#36=EDGE_LOOP('',(#135,#136,#137,#138));
#37=EDGE_LOOP('',(#139,#140,#141,#142));
#38=EDGE_LOOP('',(#143));
#39=EDGE_LOOP('',(#144));
#40=EDGE_LOOP('',(#145,#146,#147,#148));
#41=EDGE_LOOP('',(#149,#150,#151,#152));
#42=EDGE_LOOP('',(#153,#154,#155,#156));
#43=EDGE_LOOP('',(#157));
#44=EDGE_LOOP('',(#158));
#45=EDGE_LOOP('',(#159,#160,#161,#162,#163,#164));
#46=EDGE_LOOP('',(#165,#166,#167,#168));
#47=EDGE_LOOP('',(#169,#170,#171,#172));
#48=EDGE_LOOP('',(#173,#174,#175,#176));
#49=LINE('',#277,#69);
#50=LINE('',#279,#70);
#51=LINE('',#281,#71);
#52=LINE('',#283,#72);
#53=LINE('',#285,#73);
#54=LINE('',#286,#74);
#55=LINE('',#289,#75);
#56=LINE('',#291,#76);
#57=LINE('',#292,#77);
#58=LINE('',#295,#78);
#59=LINE('',#296,#79);
#60=LINE('',#303,#80);
#61=LINE('',#304,#81);
#62=LINE('',#307,#82);
#63=LINE('',#308,#83);
#64=LINE('',#311,#84);
#65=LINE('',#312,#85);
#66=LINE('',#318,#86);
#67=LINE('',#321,#87);
#68=LINE('',#323,#88);
#69=VECTOR('',#227,10.);
#70=VECTOR('',#228,10.);
#71=VECTOR('',#229,10.);
#72=VECTOR('',#230,10.);
#73=VECTOR('',#231,10.);
#74=VECTOR('',#232,10.);
#75=VECTOR('',#235,10.);
#76=VECTOR('',#236,10.);
#77=VECTOR('',#237,10.);
#78=VECTOR('',#240,10.);
#79=VECTOR('',#241,10.);
#80=VECTOR('',#248,10.);
#81=VECTOR('',#249,10.);
#82=VECTOR('',#252,10.);
#83=VECTOR('',#253,10.);
#84=VECTOR('',#256,10.);
#85=VECTOR('',#257,10.);
#86=VECTOR('',#264,10.);
#87=VECTOR('',#269,2.);
#88=VECTOR('',#272,2.);
#89=VERTEX_POINT('',#275);
#90=VERTEX_POINT('',#276);
#91=VERTEX_POINT('',#278);
#92=VERTEX_POINT('',#280);
#93=VERTEX_POINT('',#282);
#94=VERTEX_POINT('',#284);
#95=VERTEX_POINT('',#288);
#96=VERTEX_POINT('',#290);
#97=VERTEX_POINT('',#294);
#98=VERTEX_POINT('',#297);
#99=VERTEX_POINT('',#299);
#100=VERTEX_POINT('',#302);
#101=VERTEX_POINT('',#306);
#102=VERTEX_POINT('',#310);
#103=VERTEX_POINT('',#313);
#104=VERTEX_POINT('',#315);
#105=EDGE_CURVE('',#89,#90,#49,.T.);
#106=EDGE_CURVE('',#90,#91,#50,.T.);
#107=EDGE_CURVE('',#91,#92,#51,.T.);
#108=EDGE_CURVE('',#92,#93,#52,.T.);
#109=EDGE_CURVE('',#93,#94,#53,.T.);
#110=EDGE_CURVE('',#94,#89,#54,.T.);
#111=EDGE_CURVE('',#95,#90,#55,.T.);
#112=EDGE_CURVE('',#89,#96,#56,.T.);
#113=EDGE_CURVE('',#95,#96,#57,.T.);
#114=EDGE_CURVE('',#97,#91,#58,.T.);
#115=EDGE_CURVE('',#97,#95,#59,.T.);
#116=EDGE_CURVE('',#98,#98,#21,.T.);
#117=EDGE_CURVE('',#99,#99,#22,.T.);
#118=EDGE_CURVE('',#100,#92,#60,.T.);
#119=EDGE_CURVE('',#100,#97,#61,.T.);
#120=EDGE_CURVE('',#93,#101,#62,.T.);
#121=EDGE_CURVE('',#101,#100,#63,.T.);
#122=EDGE_CURVE('',#102,#94,#64,.T.);
#123=EDGE_CURVE('',#96,#102,#65,.T.);
#124=EDGE_CURVE('',#103,#103,#23,.T.);
#125=EDGE_CURVE('',#104,#104,#24,.T.);
#126=EDGE_CURVE('',#102,#101,#66,.T.);
#127=EDGE_CURVE('',#104,#99,#67,.T.);
#128=EDGE_CURVE('',#103,#98,#68,.T.);
#129=ORIENTED_EDGE('',*,*,#105,.T.);
#130=ORIENTED_EDGE('',*,*,#106,.T.);
#131=ORIENTED_EDGE('',*,*,#107,.T.);
#132=ORIENTED_EDGE('',*,*,#108,.T.);
#133=ORIENTED_EDGE('',*,*,#109,.T.);
#134=ORIENTED_EDGE('',*,*,#110,.T.);
#135=ORIENTED_EDGE('',*,*,#111,.T.);
#136=ORIENTED_EDGE('',*,*,#105,.F.);
#137=ORIENTED_EDGE('',*,*,#112,.T.);
#138=ORIENTED_EDGE('',*,*,#113,.F.);
#139=ORIENTED_EDGE('',*,*,#114,.T.);
#140=ORIENTED_EDGE('',*,*,#106,.F.);
#141=ORIENTED_EDGE('',*,*,#111,.F.);
#142=ORIENTED_EDGE('',*,*,#115,.F.);
#143=ORIENTED_EDGE('',*,*,#116,.T.);
#144=ORIENTED_EDGE('',*,*,#117,.T.);
#145=ORIENTED_EDGE('',*,*,#118,.T.);
#146=ORIENTED_EDGE('',*,*,#107,.F.);
#147=ORIENTED_EDGE('',*,*,#114,.F.);
#148=ORIENTED_EDGE('',*,*,#119,.F.);
#149=ORIENTED_EDGE('',*,*,#120,.F.);
#150=ORIENTED_EDGE('',*,*,#108,.F.);
#151=ORIENTED_EDGE('',*,*,#118,.F.);
#152=ORIENTED_EDGE('',*,*,#121,.F.);
#153=ORIENTED_EDGE('',*,*,#112,.F.);
#154=ORIENTED_EDGE('',*,*,#110,.F.);
#155=ORIENTED_EDGE('',*,*,#122,.F.);
#156=ORIENTED_EDGE('',*,*,#123,.F.);
#157=ORIENTED_EDGE('',*,*,#124,.T.);
#158=ORIENTED_EDGE('',*,*,#125,.T.);
#159=ORIENTED_EDGE('',*,*,#113,.T.);
#160=ORIENTED_EDGE('',*,*,#123,.T.);
#161=ORIENTED_EDGE('',*,*,#126,.T.);
#162=ORIENTED_EDGE('',*,*,#121,.T.);
#163=ORIENTED_EDGE('',*,*,#119,.T.);
#164=ORIENTED_EDGE('',*,*,#115,.T.);
#165=ORIENTED_EDGE('',*,*,#120,.T.);
#166=ORIENTED_EDGE('',*,*,#126,.F.);
#167=ORIENTED_EDGE('',*,*,#122,.T.);
#168=ORIENTED_EDGE('',*,*,#109,.F.);
#169=ORIENTED_EDGE('',*,*,#125,.F.);
#170=ORIENTED_EDGE('',*,*,#127,.T.);
#171=ORIENTED_EDGE('',*,*,#117,.F.);
#172=ORIENTED_EDGE('',*,*,#127,.F.);
#173=ORIENTED_EDGE('',*,*,#124,.F.);
#174=ORIENTED_EDGE('',*,*,#128,.T.);
#175=ORIENTED_EDGE('',*,*,#116,.F.);
#176=ORIENTED_EDGE('',*,*,#128,.F.);
#177=PLANE('',#209);
#178=PLANE('',#210);
#179=PLANE('',#211);
#180=PLANE('',#214);
#181=PLANE('',#215);
#182=PLANE('',#216);
#183=PLANE('',#219);
#184=PLANE('',#220);
#185=ADVANCED_FACE('',(#25),#177,.T.);
#186=ADVANCED_FACE('',(#26),#178,.T.);
#187=ADVANCED_FACE('',(#27,#17,#18),#179,.T.);
#188=ADVANCED_FACE('',(#28),#180,.T.);
#189=ADVANCED_FACE('',(#29),#181,.T.);
#190=ADVANCED_FACE('',(#30,#19,#20),#182,.T.);
#191=ADVANCED_FACE('',(#31),#183,.T.);
#192=ADVANCED_FACE('',(#32),#184,.T.);
#193=ADVANCED_FACE('',(#33),#15,.F.);
#194=ADVANCED_FACE('',(#34),#16,.F.);
#195=CLOSED_SHELL('',(#185,#186,#187,#188,#189,#190,#191,#192,#193,#194));
#196=DERIVED_UNIT_ELEMENT(#198,1.);
#197=DERIVED_UNIT_ELEMENT(#329,-3.);
#198=(
MASS_UNIT()
NAMED_UNIT(*)
SI_UNIT(.KILO.,.GRAM.)
);
#199=DERIVED_UNIT((#196,#197));
#200=MEASURE_REPRESENTATION_ITEM('density measure',
POSITIVE_RATIO_MEASURE(7850.),#199);
#201=PROPERTY_DEFINITION_REPRESENTATION(#206,#203);
#202=PROPERTY_DEFINITION_REPRESENTATION(#207,#204);
#203=REPRESENTATION('material name',(#205),#326);
#204=REPRESENTATION('density',(#200),#326);
#205=DESCRIPTIVE_REPRESENTATION_ITEM('Steel','Steel');
#206=PROPERTY_DEFINITION('material property','material name',#336);
#207=PROPERTY_DEFINITION('material property','density of part',#336);
#208=AXIS2_PLACEMENT_3D('',#273,#223,#224);
#209=AXIS2_PLACEMENT_3D('',#274,#225,#226);
#210=AXIS2_PLACEMENT_3D('',#287,#233,#234);
#211=AXIS2_PLACEMENT_3D('',#293,#238,#239);
#212=AXIS2_PLACEMENT_3D('',#298,#242,#243);
#213=AXIS2_PLACEMENT_3D('',#300,#244,#245);
#214=AXIS2_PLACEMENT_3D('',#301,#246,#247);
#215=AXIS2_PLACEMENT_3D('',#305,#250,#251);
#216=AXIS2_PLACEMENT_3D('',#309,#254,#255);
#217=AXIS2_PLACEMENT_3D('',#314,#258,#259);
#218=AXIS2_PLACEMENT_3D('',#316,#260,#261);
#219=AXIS2_PLACEMENT_3D('',#317,#262,#263);
#220=AXIS2_PLACEMENT_3D('',#319,#265,#266);
#221=AXIS2_PLACEMENT_3D('',#320,#267,#268);
#222=AXIS2_PLACEMENT_3D('',#322,#270,#271);
#223=DIRECTION('axis',(0.,0.,1.));
#224=DIRECTION('refdir',(1.,0.,0.));
#225=DIRECTION('center_axis',(0.,0.,1.));
#226=DIRECTION('ref_axis',(1.,0.,0.));
#227=DIRECTION('',(0.,-1.,0.));
#228=DIRECTION('',(1.,0.,0.));
#229=DIRECTION('',(0.,-1.,0.));
#230=DIRECTION('',(1.,0.,0.));
#231=DIRECTION('',(0.,1.,0.));
#232=DIRECTION('',(-1.,0.,0.));
#233=DIRECTION('center_axis',(-1.,0.,0.));
#234=DIRECTION('ref_axis',(0.,-1.,0.));
#235=DIRECTION('',(0.,0.,1.));
#236=DIRECTION('',(0.,0.,-1.));
#237=DIRECTION('',(0.,1.,0.));
#238=DIRECTION('center_axis',(0.,-1.,0.));
#239=DIRECTION('ref_axis',(1.,0.,0.));
#240=DIRECTION('',(0.,0.,1.));
#241=DIRECTION('',(-1.,0.,0.));
#242=DIRECTION('center_axis',(0.,1.,0.));
#243=DIRECTION('ref_axis',(-1.,0.,0.));
#244=DIRECTION('center_axis',(0.,1.,0.));
#245=DIRECTION('ref_axis',(-1.,0.,0.));
#246=DIRECTION('center_axis',(-1.,0.,0.));
#247=DIRECTION('ref_axis',(0.,-1.,0.));
#248=DIRECTION('',(0.,0.,1.));
#249=DIRECTION('',(0.,1.,0.));
#250=DIRECTION('center_axis',(0.,-1.,0.));
#251=DIRECTION('ref_axis',(1.,0.,0.));
#252=DIRECTION('',(0.,0.,-1.));
#253=DIRECTION('',(-1.,0.,0.));
#254=DIRECTION('center_axis',(0.,1.,0.));
#255=DIRECTION('ref_axis',(-1.,0.,0.));
#256=DIRECTION('',(0.,0.,1.));
#257=DIRECTION('',(1.,0.,0.));
#258=DIRECTION('center_axis',(0.,-1.,0.));
#259=DIRECTION('ref_axis',(-1.,0.,0.));
#260=DIRECTION('center_axis',(0.,-1.,0.));
#261=DIRECTION('ref_axis',(-1.,0.,0.));
#262=DIRECTION('center_axis',(0.,0.,-1.));
#263=DIRECTION('ref_axis',(-1.,0.,0.));
#264=DIRECTION('',(0.,-1.,0.));
#265=DIRECTION('center_axis',(1.,0.,0.));
#266=DIRECTION('ref_axis',(0.,1.,0.));
#267=DIRECTION('center_axis',(0.,-1.,0.));
#268=DIRECTION('ref_axis',(-1.,0.,0.));
#269=DIRECTION('',(0.,-1.,0.));
#270=DIRECTION('center_axis',(0.,-1.,0.));
#271=DIRECTION('ref_axis',(-1.,0.,0.));
#272=DIRECTION('',(0.,-1.,0.));
#273=CARTESIAN_POINT('',(0.,0.,0.));
#274=CARTESIAN_POINT('Origin',(-9.89999999999768,46.0499999999968,9.));
#275=CARTESIAN_POINT('',(-18.8499999999977,54.9999999999968,9.));
#276=CARTESIAN_POINT('',(-18.8499999999977,46.2999999999968,9.));
#277=CARTESIAN_POINT('',(-18.8499999999977,46.2999999999968,9.));
#278=CARTESIAN_POINT('',(-9.94999999999767,46.2999999999968,9.));
#279=CARTESIAN_POINT('',(-9.94999999999767,46.2999999999968,9.));
#280=CARTESIAN_POINT('',(-9.94999999999767,37.0999999999968,9.));
#281=CARTESIAN_POINT('',(-9.94999999999767,37.0999999999968,9.));
#282=CARTESIAN_POINT('',(-0.949999999997675,37.0999999999968,9.));
#283=CARTESIAN_POINT('',(-0.949999999997674,37.0999999999968,9.));
#284=CARTESIAN_POINT('',(-0.949999999997675,54.9999999999968,9.));
#285=CARTESIAN_POINT('',(-0.949999999997674,54.9999999999968,9.));
#286=CARTESIAN_POINT('',(-9.94999999999767,54.9999999999968,9.));
#287=CARTESIAN_POINT('Origin',(-18.8499999999977,54.9999999999968,0.));
#288=CARTESIAN_POINT('',(-18.8499999999977,46.2999999999968,-9.));
#289=CARTESIAN_POINT('',(-18.8499999999977,46.2999999999968,0.));
#290=CARTESIAN_POINT('',(-18.8499999999977,54.9999999999968,-9.));
#291=CARTESIAN_POINT('',(-18.8499999999977,54.9999999999968,0.));
#292=CARTESIAN_POINT('',(-18.8499999999977,46.2999999999968,-9.));
#293=CARTESIAN_POINT('Origin',(-18.8499999999977,46.2999999999968,0.));
#294=CARTESIAN_POINT('',(-9.94999999999767,46.2999999999968,-9.));
#295=CARTESIAN_POINT('',(-9.94999999999767,46.2999999999968,0.));
#296=CARTESIAN_POINT('',(-9.94999999999767,46.2999999999968,-9.));
#297=CARTESIAN_POINT('',(-11.9499999999977,46.2999999999968,-5.));
#298=CARTESIAN_POINT('Origin',(-13.9499999999977,46.2999999999968,-5.));
#299=CARTESIAN_POINT('',(-11.9499999999977,46.2999999999968,5.));
#300=CARTESIAN_POINT('Origin',(-13.9499999999977,46.2999999999968,5.));
#301=CARTESIAN_POINT('Origin',(-9.94999999999767,46.2999999999968,0.));
#302=CARTESIAN_POINT('',(-9.94999999999767,37.0999999999968,-9.));
#303=CARTESIAN_POINT('',(-9.94999999999767,37.0999999999968,0.));
#304=CARTESIAN_POINT('',(-9.94999999999767,37.0999999999968,-9.));
#305=CARTESIAN_POINT('Origin',(-9.94999999999767,37.0999999999968,0.));
#306=CARTESIAN_POINT('',(-0.949999999997675,37.0999999999968,-9.));
#307=CARTESIAN_POINT('',(-0.949999999997674,37.0999999999968,0.));
#308=CARTESIAN_POINT('',(-0.949999999997674,37.0999999999968,-9.));
#309=CARTESIAN_POINT('Origin',(-0.949999999997675,54.9999999999968,0.));
#310=CARTESIAN_POINT('',(-0.949999999997675,54.9999999999968,-9.));
#311=CARTESIAN_POINT('',(-0.949999999997674,54.9999999999968,0.));
#312=CARTESIAN_POINT('',(-9.94999999999767,54.9999999999968,-9.));
#313=CARTESIAN_POINT('',(-11.9499999999977,54.9999999999968,-5.));
#314=CARTESIAN_POINT('Origin',(-13.9499999999977,54.9999999999968,-5.));
#315=CARTESIAN_POINT('',(-11.9499999999977,54.9999999999968,5.));
#316=CARTESIAN_POINT('Origin',(-13.9499999999977,54.9999999999968,5.));
#317=CARTESIAN_POINT('Origin',(-9.89999999999768,46.0499999999968,-9.));
#318=CARTESIAN_POINT('',(-0.949999999997674,54.9999999999968,-9.));
#319=CARTESIAN_POINT('Origin',(-0.949999999997674,37.0999999999968,0.));
#320=CARTESIAN_POINT('Origin',(-13.9499999999977,54.9999999999968,5.));
#321=CARTESIAN_POINT('',(-11.9499999999977,54.9999999999968,5.));
#322=CARTESIAN_POINT('Origin',(-13.9499999999977,54.9999999999968,-5.));
#323=CARTESIAN_POINT('',(-11.9499999999977,54.9999999999968,-5.));
#324=UNCERTAINTY_MEASURE_WITH_UNIT(LENGTH_MEASURE(0.01),#328,
'DISTANCE_ACCURACY_VALUE',
'Maximum model space distance between geometric entities at asserted c
onnectivities');
#325=UNCERTAINTY_MEASURE_WITH_UNIT(LENGTH_MEASURE(0.01),#328,
'DISTANCE_ACCURACY_VALUE',
'Maximum model space distance between geometric entities at asserted c
onnectivities');
#326=(
GEOMETRIC_REPRESENTATION_CONTEXT(3)
GLOBAL_UNCERTAINTY_ASSIGNED_CONTEXT((#324))
GLOBAL_UNIT_ASSIGNED_CONTEXT((#328,#330,#331))
REPRESENTATION_CONTEXT('','3D')
);
#327=(
GEOMETRIC_REPRESENTATION_CONTEXT(3)
GLOBAL_UNCERTAINTY_ASSIGNED_CONTEXT((#325))
GLOBAL_UNIT_ASSIGNED_CONTEXT((#328,#330,#331))
REPRESENTATION_CONTEXT('','3D')
);
#328=(
LENGTH_UNIT()
NAMED_UNIT(*)
SI_UNIT(.MILLI.,.METRE.)
);
#329=(
LENGTH_UNIT()
NAMED_UNIT(*)
SI_UNIT($,.METRE.)
);
#330=(
NAMED_UNIT(*)
PLANE_ANGLE_UNIT()
SI_UNIT($,.RADIAN.)
);
#331=(
NAMED_UNIT(*)
SI_UNIT($,.STERADIAN.)
SOLID_ANGLE_UNIT()
);
#332=SHAPE_DEFINITION_REPRESENTATION(#333,#334);
#333=PRODUCT_DEFINITION_SHAPE('',$,#336);
#334=SHAPE_REPRESENTATION('',(#208),#326);
#335=PRODUCT_DEFINITION_CONTEXT('part definition',#340,'design');
#336=PRODUCT_DEFINITION('Load Cell Mount - Alu','Load Cell Mount - Alu',
#337,#335);
#337=PRODUCT_DEFINITION_FORMATION('',$,#342);
#338=PRODUCT_RELATED_PRODUCT_CATEGORY('Load Cell Mount - Alu',
'Load Cell Mount - Alu',(#342));
#339=APPLICATION_PROTOCOL_DEFINITION('international standard',
'automotive_design',2009,#340);
#340=APPLICATION_CONTEXT(
'Core Data for Automotive Mechanical Design Process');
#341=PRODUCT_CONTEXT('part definition',#340,'mechanical');
#342=PRODUCT('Load Cell Mount - Alu','Load Cell Mount - Alu',$,(#341));
#343=PRESENTATION_STYLE_ASSIGNMENT((#344));
#344=SURFACE_STYLE_USAGE(.BOTH.,#345);
#345=SURFACE_SIDE_STYLE('',(#346));
#346=SURFACE_STYLE_FILL_AREA(#347);
#347=FILL_AREA_STYLE('Steel - Satin',(#348));
#348=FILL_AREA_STYLE_COLOUR('Steel - Satin',#349);
#349=COLOUR_RGB('Steel - Satin',0.627450980392157,0.627450980392157,0.627450980392157);
ENDSEC;
END-ISO-10303-21;
