ISO-10303-21;
HEADER;
/* Generated by software containing ST-Developer
 * from STEP Tools, Inc. (www.steptools.com) 
 */

FILE_DESCRIPTION(
/* description */ (''),
/* implementation_level */ '2;1');

FILE_NAME(
/* name */ 'LED_Lense.step',
/* time_stamp */ '2025-05-01T11:13:51+01:00',
/* author */ (''),
/* organization */ (''),
/* preprocessor_version */ 'ST-DEVELOPER v20.1',
/* originating_system */ 'Autodesk Translation Framework v14.4.0.0',
/* authorisation */ '');

FILE_SCHEMA (('AUTOMOTIVE_DESIGN { 1 0 10303 214 3 1 1 }'));
ENDSEC;

DATA;
#10=MECHANICAL_DESIGN_GEOMETRIC_PRESENTATION_REPRESENTATION('',(#13),#2018);
#11=SHAPE_REPRESENTATION_RELATIONSHIP('SRR','None',#2025,#12);
#12=ADVANCED_BREP_SHAPE_REPRESENTATION('',(#14),#2017);
#13=STYLED_ITEM('',(#2035),#14);
#14=MANIFOLD_SOLID_BREP('Body1',#1258);
#15=CYLINDRICAL_SURFACE('',#1346,2.);
#16=CYLINDRICAL_SURFACE('',#1351,2.);
#17=CIRCLE('',#1275,2.);
#18=CIRCLE('',#1276,2.);
#19=CIRCLE('',#1347,2.);
#20=CIRCLE('',#1350,2.);
#21=FACE_BOUND('',#116,.T.);
#22=FACE_BOUND('',#117,.T.);
#23=FACE_BOUND('',#118,.T.);
#24=FACE_BOUND('',#119,.T.);
#25=FACE_BOUND('',#120,.T.);
#26=FACE_BOUND('',#121,.T.);
#27=FACE_BOUND('',#122,.T.);
#28=FACE_BOUND('',#123,.T.);
#29=FACE_BOUND('',#124,.T.);
#30=FACE_BOUND('',#125,.T.);
#31=FACE_BOUND('',#126,.T.);
#32=FACE_BOUND('',#127,.T.);
#33=FACE_BOUND('',#128,.T.);
#34=FACE_BOUND('',#129,.T.);
#35=FACE_BOUND('',#130,.T.);
#36=FACE_BOUND('',#131,.T.);
#37=FACE_OUTER_BOUND('',#114,.T.);
#38=FACE_OUTER_BOUND('',#115,.T.);
#39=FACE_OUTER_BOUND('',#132,.T.);
#40=FACE_OUTER_BOUND('',#133,.T.);
#41=FACE_OUTER_BOUND('',#134,.T.);
#42=FACE_OUTER_BOUND('',#135,.T.);
#43=FACE_OUTER_BOUND('',#136,.T.);
#44=FACE_OUTER_BOUND('',#137,.T.);
#45=FACE_OUTER_BOUND('',#138,.T.);
#46=FACE_OUTER_BOUND('',#139,.T.);
#47=FACE_OUTER_BOUND('',#140,.T.);
#48=FACE_OUTER_BOUND('',#141,.T.);
#49=FACE_OUTER_BOUND('',#142,.T.);
#50=FACE_OUTER_BOUND('',#143,.T.);
#51=FACE_OUTER_BOUND('',#144,.T.);
#52=FACE_OUTER_BOUND('',#145,.T.);
#53=FACE_OUTER_BOUND('',#146,.T.);
#54=FACE_OUTER_BOUND('',#147,.T.);
#55=FACE_OUTER_BOUND('',#148,.T.);
#56=FACE_OUTER_BOUND('',#149,.T.);
#57=FACE_OUTER_BOUND('',#150,.T.);
#58=FACE_OUTER_BOUND('',#151,.T.);
#59=FACE_OUTER_BOUND('',#152,.T.);
#60=FACE_OUTER_BOUND('',#153,.T.);
#61=FACE_OUTER_BOUND('',#154,.T.);
#62=FACE_OUTER_BOUND('',#155,.T.);
#63=FACE_OUTER_BOUND('',#156,.T.);
#64=FACE_OUTER_BOUND('',#157,.T.);
#65=FACE_OUTER_BOUND('',#158,.T.);
#66=FACE_OUTER_BOUND('',#159,.T.);
#67=FACE_OUTER_BOUND('',#160,.T.);
#68=FACE_OUTER_BOUND('',#161,.T.);
#69=FACE_OUTER_BOUND('',#162,.T.);
#70=FACE_OUTER_BOUND('',#163,.T.);
#71=FACE_OUTER_BOUND('',#164,.T.);
#72=FACE_OUTER_BOUND('',#165,.T.);
#73=FACE_OUTER_BOUND('',#166,.T.);
#74=FACE_OUTER_BOUND('',#167,.T.);
#75=FACE_OUTER_BOUND('',#168,.T.);
#76=FACE_OUTER_BOUND('',#169,.T.);
#77=FACE_OUTER_BOUND('',#170,.T.);
#78=FACE_OUTER_BOUND('',#171,.T.);
#79=FACE_OUTER_BOUND('',#172,.T.);
#80=FACE_OUTER_BOUND('',#173,.T.);
#81=FACE_OUTER_BOUND('',#174,.T.);
#82=FACE_OUTER_BOUND('',#175,.T.);
#83=FACE_OUTER_BOUND('',#176,.T.);
#84=FACE_OUTER_BOUND('',#177,.T.);
#85=FACE_OUTER_BOUND('',#178,.T.);
#86=FACE_OUTER_BOUND('',#179,.T.);
#87=FACE_OUTER_BOUND('',#180,.T.);
#88=FACE_OUTER_BOUND('',#181,.T.);
#89=FACE_OUTER_BOUND('',#182,.T.);
#90=FACE_OUTER_BOUND('',#183,.T.);
#91=FACE_OUTER_BOUND('',#184,.T.);
#92=FACE_OUTER_BOUND('',#185,.T.);
#93=FACE_OUTER_BOUND('',#186,.T.);
#94=FACE_OUTER_BOUND('',#187,.T.);
#95=FACE_OUTER_BOUND('',#188,.T.);
#96=FACE_OUTER_BOUND('',#189,.T.);
#97=FACE_OUTER_BOUND('',#190,.T.);
#98=FACE_OUTER_BOUND('',#191,.T.);
#99=FACE_OUTER_BOUND('',#192,.T.);
#100=FACE_OUTER_BOUND('',#193,.T.);
#101=FACE_OUTER_BOUND('',#194,.T.);
#102=FACE_OUTER_BOUND('',#195,.T.);
#103=FACE_OUTER_BOUND('',#196,.T.);
#104=FACE_OUTER_BOUND('',#197,.T.);
#105=FACE_OUTER_BOUND('',#198,.T.);
#106=FACE_OUTER_BOUND('',#199,.T.);
#107=FACE_OUTER_BOUND('',#200,.T.);
#108=FACE_OUTER_BOUND('',#201,.T.);
#109=FACE_OUTER_BOUND('',#202,.T.);
#110=FACE_OUTER_BOUND('',#203,.T.);
#111=FACE_OUTER_BOUND('',#204,.T.);
#112=FACE_OUTER_BOUND('',#205,.T.);
#113=FACE_OUTER_BOUND('',#206,.T.);
#114=EDGE_LOOP('',(#784,#785,#786,#787));
#115=EDGE_LOOP('',(#788,#789,#790,#791));
#116=EDGE_LOOP('',(#792,#793,#794,#795));
#117=EDGE_LOOP('',(#796,#797,#798,#799));
#118=EDGE_LOOP('',(#800,#801,#802,#803));
#119=EDGE_LOOP('',(#804,#805,#806,#807));
#120=EDGE_LOOP('',(#808,#809,#810,#811));
#121=EDGE_LOOP('',(#812,#813,#814,#815));
#122=EDGE_LOOP('',(#816,#817,#818,#819));
#123=EDGE_LOOP('',(#820,#821,#822,#823));
#124=EDGE_LOOP('',(#824,#825,#826,#827));
#125=EDGE_LOOP('',(#828,#829,#830,#831));
#126=EDGE_LOOP('',(#832,#833,#834,#835));
#127=EDGE_LOOP('',(#836,#837,#838,#839));
#128=EDGE_LOOP('',(#840,#841,#842,#843));
#129=EDGE_LOOP('',(#844,#845,#846,#847));
#130=EDGE_LOOP('',(#848,#849,#850,#851));
#131=EDGE_LOOP('',(#852,#853,#854,#855));
#132=EDGE_LOOP('',(#856,#857,#858,#859,#860,#861,#862,#863,#864,#865,#866));
#133=EDGE_LOOP('',(#867,#868,#869,#870));
#134=EDGE_LOOP('',(#871,#872,#873,#874));
#135=EDGE_LOOP('',(#875,#876,#877,#878));
#136=EDGE_LOOP('',(#879,#880,#881,#882));
#137=EDGE_LOOP('',(#883,#884,#885,#886));
#138=EDGE_LOOP('',(#887,#888,#889));
#139=EDGE_LOOP('',(#890,#891,#892));
#140=EDGE_LOOP('',(#893,#894,#895));
#141=EDGE_LOOP('',(#896,#897,#898));
#142=EDGE_LOOP('',(#899,#900,#901));
#143=EDGE_LOOP('',(#902,#903,#904));
#144=EDGE_LOOP('',(#905,#906,#907));
#145=EDGE_LOOP('',(#908,#909,#910));
#146=EDGE_LOOP('',(#911,#912,#913));
#147=EDGE_LOOP('',(#914,#915,#916));
#148=EDGE_LOOP('',(#917,#918,#919));
#149=EDGE_LOOP('',(#920,#921,#922));
#150=EDGE_LOOP('',(#923,#924,#925));
#151=EDGE_LOOP('',(#926,#927,#928));
#152=EDGE_LOOP('',(#929,#930,#931));
#153=EDGE_LOOP('',(#932,#933,#934));
#154=EDGE_LOOP('',(#935,#936,#937));
#155=EDGE_LOOP('',(#938,#939,#940));
#156=EDGE_LOOP('',(#941,#942,#943));
#157=EDGE_LOOP('',(#944,#945,#946));
#158=EDGE_LOOP('',(#947,#948,#949));
#159=EDGE_LOOP('',(#950,#951,#952));
#160=EDGE_LOOP('',(#953,#954,#955));
#161=EDGE_LOOP('',(#956,#957,#958));
#162=EDGE_LOOP('',(#959,#960,#961));
#163=EDGE_LOOP('',(#962,#963,#964));
#164=EDGE_LOOP('',(#965,#966,#967));
#165=EDGE_LOOP('',(#968,#969,#970));
#166=EDGE_LOOP('',(#971,#972,#973));
#167=EDGE_LOOP('',(#974,#975,#976));
#168=EDGE_LOOP('',(#977,#978,#979));
#169=EDGE_LOOP('',(#980,#981,#982));
#170=EDGE_LOOP('',(#983,#984,#985));
#171=EDGE_LOOP('',(#986,#987,#988));
#172=EDGE_LOOP('',(#989,#990,#991));
#173=EDGE_LOOP('',(#992,#993,#994));
#174=EDGE_LOOP('',(#995,#996,#997));
#175=EDGE_LOOP('',(#998,#999,#1000));
#176=EDGE_LOOP('',(#1001,#1002,#1003));
#177=EDGE_LOOP('',(#1004,#1005,#1006));
#178=EDGE_LOOP('',(#1007,#1008,#1009));
#179=EDGE_LOOP('',(#1010,#1011,#1012));
#180=EDGE_LOOP('',(#1013,#1014,#1015));
#181=EDGE_LOOP('',(#1016,#1017,#1018));
#182=EDGE_LOOP('',(#1019,#1020,#1021));
#183=EDGE_LOOP('',(#1022,#1023,#1024));
#184=EDGE_LOOP('',(#1025,#1026,#1027));
#185=EDGE_LOOP('',(#1028,#1029,#1030));
#186=EDGE_LOOP('',(#1031,#1032,#1033));
#187=EDGE_LOOP('',(#1034,#1035,#1036));
#188=EDGE_LOOP('',(#1037,#1038,#1039));
#189=EDGE_LOOP('',(#1040,#1041,#1042));
#190=EDGE_LOOP('',(#1043,#1044,#1045));
#191=EDGE_LOOP('',(#1046,#1047,#1048));
#192=EDGE_LOOP('',(#1049,#1050,#1051));
#193=EDGE_LOOP('',(#1052,#1053,#1054));
#194=EDGE_LOOP('',(#1055,#1056,#1057));
#195=EDGE_LOOP('',(#1058,#1059,#1060));
#196=EDGE_LOOP('',(#1061,#1062,#1063));
#197=EDGE_LOOP('',(#1064,#1065,#1066));
#198=EDGE_LOOP('',(#1067,#1068,#1069));
#199=EDGE_LOOP('',(#1070,#1071,#1072));
#200=EDGE_LOOP('',(#1073,#1074,#1075));
#201=EDGE_LOOP('',(#1076,#1077,#1078));
#202=EDGE_LOOP('',(#1079,#1080,#1081,#1082));
#203=EDGE_LOOP('',(#1083,#1084,#1085,#1086));
#204=EDGE_LOOP('',(#1087,#1088,#1089,#1090,#1091,#1092,#1093,#1094,#1095,
#1096,#1097));
#205=EDGE_LOOP('',(#1098,#1099,#1100,#1101));
#206=EDGE_LOOP('',(#1102,#1103,#1104,#1105));
#207=LINE('',#1678,#364);
#208=LINE('',#1680,#365);
#209=LINE('',#1682,#366);
#210=LINE('',#1683,#367);
#211=LINE('',#1686,#368);
#212=LINE('',#1688,#369);
#213=LINE('',#1689,#370);
#214=LINE('',#1692,#371);
#215=LINE('',#1694,#372);
#216=LINE('',#1696,#373);
#217=LINE('',#1697,#374);
#218=LINE('',#1700,#375);
#219=LINE('',#1702,#376);
#220=LINE('',#1704,#377);
#221=LINE('',#1705,#378);
#222=LINE('',#1708,#379);
#223=LINE('',#1710,#380);
#224=LINE('',#1712,#381);
#225=LINE('',#1713,#382);
#226=LINE('',#1716,#383);
#227=LINE('',#1718,#384);
#228=LINE('',#1720,#385);
#229=LINE('',#1721,#386);
#230=LINE('',#1724,#387);
#231=LINE('',#1726,#388);
#232=LINE('',#1728,#389);
#233=LINE('',#1729,#390);
#234=LINE('',#1732,#391);
#235=LINE('',#1734,#392);
#236=LINE('',#1736,#393);
#237=LINE('',#1737,#394);
#238=LINE('',#1740,#395);
#239=LINE('',#1742,#396);
#240=LINE('',#1744,#397);
#241=LINE('',#1745,#398);
#242=LINE('',#1748,#399);
#243=LINE('',#1750,#400);
#244=LINE('',#1752,#401);
#245=LINE('',#1753,#402);
#246=LINE('',#1756,#403);
#247=LINE('',#1758,#404);
#248=LINE('',#1760,#405);
#249=LINE('',#1761,#406);
#250=LINE('',#1764,#407);
#251=LINE('',#1766,#408);
#252=LINE('',#1768,#409);
#253=LINE('',#1769,#410);
#254=LINE('',#1772,#411);
#255=LINE('',#1774,#412);
#256=LINE('',#1776,#413);
#257=LINE('',#1777,#414);
#258=LINE('',#1780,#415);
#259=LINE('',#1782,#416);
#260=LINE('',#1784,#417);
#261=LINE('',#1785,#418);
#262=LINE('',#1788,#419);
#263=LINE('',#1790,#420);
#264=LINE('',#1792,#421);
#265=LINE('',#1793,#422);
#266=LINE('',#1796,#423);
#267=LINE('',#1798,#424);
#268=LINE('',#1800,#425);
#269=LINE('',#1801,#426);
#270=LINE('',#1804,#427);
#271=LINE('',#1806,#428);
#272=LINE('',#1808,#429);
#273=LINE('',#1809,#430);
#274=LINE('',#1812,#431);
#275=LINE('',#1814,#432);
#276=LINE('',#1816,#433);
#277=LINE('',#1817,#434);
#278=LINE('',#1820,#435);
#279=LINE('',#1822,#436);
#280=LINE('',#1824,#437);
#281=LINE('',#1828,#438);
#282=LINE('',#1832,#439);
#283=LINE('',#1834,#440);
#284=LINE('',#1835,#441);
#285=LINE('',#1838,#442);
#286=LINE('',#1839,#443);
#287=LINE('',#1842,#444);
#288=LINE('',#1844,#445);
#289=LINE('',#1845,#446);
#290=LINE('',#1847,#447);
#291=LINE('',#1850,#448);
#292=LINE('',#1851,#449);
#293=LINE('',#1854,#450);
#294=LINE('',#1855,#451);
#295=LINE('',#1858,#452);
#296=LINE('',#1859,#453);
#297=LINE('',#1861,#454);
#298=LINE('',#1863,#455);
#299=LINE('',#1867,#456);
#300=LINE('',#1868,#457);
#301=LINE('',#1870,#458);
#302=LINE('',#1872,#459);
#303=LINE('',#1876,#460);
#304=LINE('',#1877,#461);
#305=LINE('',#1879,#462);
#306=LINE('',#1881,#463);
#307=LINE('',#1885,#464);
#308=LINE('',#1886,#465);
#309=LINE('',#1888,#466);
#310=LINE('',#1890,#467);
#311=LINE('',#1894,#468);
#312=LINE('',#1895,#469);
#313=LINE('',#1897,#470);
#314=LINE('',#1899,#471);
#315=LINE('',#1903,#472);
#316=LINE('',#1904,#473);
#317=LINE('',#1906,#474);
#318=LINE('',#1908,#475);
#319=LINE('',#1912,#476);
#320=LINE('',#1913,#477);
#321=LINE('',#1915,#478);
#322=LINE('',#1917,#479);
#323=LINE('',#1921,#480);
#324=LINE('',#1922,#481);
#325=LINE('',#1924,#482);
#326=LINE('',#1926,#483);
#327=LINE('',#1930,#484);
#328=LINE('',#1931,#485);
#329=LINE('',#1933,#486);
#330=LINE('',#1935,#487);
#331=LINE('',#1939,#488);
#332=LINE('',#1940,#489);
#333=LINE('',#1942,#490);
#334=LINE('',#1944,#491);
#335=LINE('',#1948,#492);
#336=LINE('',#1949,#493);
#337=LINE('',#1951,#494);
#338=LINE('',#1953,#495);
#339=LINE('',#1957,#496);
#340=LINE('',#1958,#497);
#341=LINE('',#1960,#498);
#342=LINE('',#1962,#499);
#343=LINE('',#1966,#500);
#344=LINE('',#1967,#501);
#345=LINE('',#1969,#502);
#346=LINE('',#1971,#503);
#347=LINE('',#1975,#504);
#348=LINE('',#1976,#505);
#349=LINE('',#1978,#506);
#350=LINE('',#1980,#507);
#351=LINE('',#1984,#508);
#352=LINE('',#1985,#509);
#353=LINE('',#1987,#510);
#354=LINE('',#1989,#511);
#355=LINE('',#1993,#512);
#356=LINE('',#1994,#513);
#357=LINE('',#1996,#514);
#358=LINE('',#1998,#515);
#359=LINE('',#2004,#516);
#360=LINE('',#2005,#517);
#361=LINE('',#2008,#518);
#362=LINE('',#2009,#519);
#363=LINE('',#2012,#520);
#364=VECTOR('',#1357,10.);
#365=VECTOR('',#1358,10.);
#366=VECTOR('',#1359,10.);
#367=VECTOR('',#1360,10.);
#368=VECTOR('',#1363,10.);
#369=VECTOR('',#1364,10.);
#370=VECTOR('',#1365,10.);
#371=VECTOR('',#1366,10.);
#372=VECTOR('',#1367,10.);
#373=VECTOR('',#1368,10.);
#374=VECTOR('',#1369,10.);
#375=VECTOR('',#1370,10.);
#376=VECTOR('',#1371,10.);
#377=VECTOR('',#1372,10.);
#378=VECTOR('',#1373,10.);
#379=VECTOR('',#1374,10.);
#380=VECTOR('',#1375,10.);
#381=VECTOR('',#1376,10.);
#382=VECTOR('',#1377,10.);
#383=VECTOR('',#1378,10.);
#384=VECTOR('',#1379,10.);
#385=VECTOR('',#1380,10.);
#386=VECTOR('',#1381,10.);
#387=VECTOR('',#1382,10.);
#388=VECTOR('',#1383,10.);
#389=VECTOR('',#1384,10.);
#390=VECTOR('',#1385,10.);
#391=VECTOR('',#1386,10.);
#392=VECTOR('',#1387,10.);
#393=VECTOR('',#1388,10.);
#394=VECTOR('',#1389,10.);
#395=VECTOR('',#1390,10.);
#396=VECTOR('',#1391,10.);
#397=VECTOR('',#1392,10.);
#398=VECTOR('',#1393,10.);
#399=VECTOR('',#1394,10.);
#400=VECTOR('',#1395,10.);
#401=VECTOR('',#1396,10.);
#402=VECTOR('',#1397,10.);
#403=VECTOR('',#1398,10.);
#404=VECTOR('',#1399,10.);
#405=VECTOR('',#1400,10.);
#406=VECTOR('',#1401,10.);
#407=VECTOR('',#1402,10.);
#408=VECTOR('',#1403,10.);
#409=VECTOR('',#1404,10.);
#410=VECTOR('',#1405,10.);
#411=VECTOR('',#1406,10.);
#412=VECTOR('',#1407,10.);
#413=VECTOR('',#1408,10.);
#414=VECTOR('',#1409,10.);
#415=VECTOR('',#1410,10.);
#416=VECTOR('',#1411,10.);
#417=VECTOR('',#1412,10.);
#418=VECTOR('',#1413,10.);
#419=VECTOR('',#1414,10.);
#420=VECTOR('',#1415,10.);
#421=VECTOR('',#1416,10.);
#422=VECTOR('',#1417,10.);
#423=VECTOR('',#1418,10.);
#424=VECTOR('',#1419,10.);
#425=VECTOR('',#1420,10.);
#426=VECTOR('',#1421,10.);
#427=VECTOR('',#1422,10.);
#428=VECTOR('',#1423,10.);
#429=VECTOR('',#1424,10.);
#430=VECTOR('',#1425,10.);
#431=VECTOR('',#1426,10.);
#432=VECTOR('',#1427,10.);
#433=VECTOR('',#1428,10.);
#434=VECTOR('',#1429,10.);
#435=VECTOR('',#1432,10.);
#436=VECTOR('',#1433,10.);
#437=VECTOR('',#1434,10.);
#438=VECTOR('',#1437,10.);
#439=VECTOR('',#1440,10.);
#440=VECTOR('',#1441,10.);
#441=VECTOR('',#1442,10.);
#442=VECTOR('',#1445,10.);
#443=VECTOR('',#1446,10.);
#444=VECTOR('',#1449,10.);
#445=VECTOR('',#1450,10.);
#446=VECTOR('',#1451,10.);
#447=VECTOR('',#1454,10.);
#448=VECTOR('',#1457,10.);
#449=VECTOR('',#1458,10.);
#450=VECTOR('',#1461,10.);
#451=VECTOR('',#1462,10.);
#452=VECTOR('',#1465,10.);
#453=VECTOR('',#1466,10.);
#454=VECTOR('',#1469,10.);
#455=VECTOR('',#1472,10.);
#456=VECTOR('',#1477,10.);
#457=VECTOR('',#1478,10.);
#458=VECTOR('',#1481,10.);
#459=VECTOR('',#1484,10.);
#460=VECTOR('',#1489,10.);
#461=VECTOR('',#1490,10.);
#462=VECTOR('',#1493,10.);
#463=VECTOR('',#1496,10.);
#464=VECTOR('',#1501,10.);
#465=VECTOR('',#1502,10.);
#466=VECTOR('',#1505,10.);
#467=VECTOR('',#1508,10.);
#468=VECTOR('',#1513,10.);
#469=VECTOR('',#1514,10.);
#470=VECTOR('',#1517,10.);
#471=VECTOR('',#1520,10.);
#472=VECTOR('',#1525,10.);
#473=VECTOR('',#1526,10.);
#474=VECTOR('',#1529,10.);
#475=VECTOR('',#1532,10.);
#476=VECTOR('',#1537,10.);
#477=VECTOR('',#1538,10.);
#478=VECTOR('',#1541,10.);
#479=VECTOR('',#1544,10.);
#480=VECTOR('',#1549,10.);
#481=VECTOR('',#1550,10.);
#482=VECTOR('',#1553,10.);
#483=VECTOR('',#1556,10.);
#484=VECTOR('',#1561,10.);
#485=VECTOR('',#1562,10.);
#486=VECTOR('',#1565,10.);
#487=VECTOR('',#1568,10.);
#488=VECTOR('',#1573,10.);
#489=VECTOR('',#1574,10.);
#490=VECTOR('',#1577,10.);
#491=VECTOR('',#1580,10.);
#492=VECTOR('',#1585,10.);
#493=VECTOR('',#1586,10.);
#494=VECTOR('',#1589,10.);
#495=VECTOR('',#1592,10.);
#496=VECTOR('',#1597,10.);
#497=VECTOR('',#1598,10.);
#498=VECTOR('',#1601,10.);
#499=VECTOR('',#1604,10.);
#500=VECTOR('',#1609,10.);
#501=VECTOR('',#1610,10.);
#502=VECTOR('',#1613,10.);
#503=VECTOR('',#1616,10.);
#504=VECTOR('',#1621,10.);
#505=VECTOR('',#1622,10.);
#506=VECTOR('',#1625,10.);
#507=VECTOR('',#1628,10.);
#508=VECTOR('',#1633,10.);
#509=VECTOR('',#1634,10.);
#510=VECTOR('',#1637,10.);
#511=VECTOR('',#1640,10.);
#512=VECTOR('',#1645,10.);
#513=VECTOR('',#1646,10.);
#514=VECTOR('',#1649,10.);
#515=VECTOR('',#1652,10.);
#516=VECTOR('',#1659,10.);
#517=VECTOR('',#1660,10.);
#518=VECTOR('',#1663,10.);
#519=VECTOR('',#1664,10.);
#520=VECTOR('',#1669,10.);
#521=VERTEX_POINT('',#1676);
#522=VERTEX_POINT('',#1677);
#523=VERTEX_POINT('',#1679);
#524=VERTEX_POINT('',#1681);
#525=VERTEX_POINT('',#1685);
#526=VERTEX_POINT('',#1687);
#527=VERTEX_POINT('',#1690);
#528=VERTEX_POINT('',#1691);
#529=VERTEX_POINT('',#1693);
#530=VERTEX_POINT('',#1695);
#531=VERTEX_POINT('',#1698);
#532=VERTEX_POINT('',#1699);
#533=VERTEX_POINT('',#1701);
#534=VERTEX_POINT('',#1703);
#535=VERTEX_POINT('',#1706);
#536=VERTEX_POINT('',#1707);
#537=VERTEX_POINT('',#1709);
#538=VERTEX_POINT('',#1711);
#539=VERTEX_POINT('',#1714);
#540=VERTEX_POINT('',#1715);
#541=VERTEX_POINT('',#1717);
#542=VERTEX_POINT('',#1719);
#543=VERTEX_POINT('',#1722);
#544=VERTEX_POINT('',#1723);
#545=VERTEX_POINT('',#1725);
#546=VERTEX_POINT('',#1727);
#547=VERTEX_POINT('',#1730);
#548=VERTEX_POINT('',#1731);
#549=VERTEX_POINT('',#1733);
#550=VERTEX_POINT('',#1735);
#551=VERTEX_POINT('',#1738);
#552=VERTEX_POINT('',#1739);
#553=VERTEX_POINT('',#1741);
#554=VERTEX_POINT('',#1743);
#555=VERTEX_POINT('',#1746);
#556=VERTEX_POINT('',#1747);
#557=VERTEX_POINT('',#1749);
#558=VERTEX_POINT('',#1751);
#559=VERTEX_POINT('',#1754);
#560=VERTEX_POINT('',#1755);
#561=VERTEX_POINT('',#1757);
#562=VERTEX_POINT('',#1759);
#563=VERTEX_POINT('',#1762);
#564=VERTEX_POINT('',#1763);
#565=VERTEX_POINT('',#1765);
#566=VERTEX_POINT('',#1767);
#567=VERTEX_POINT('',#1770);
#568=VERTEX_POINT('',#1771);
#569=VERTEX_POINT('',#1773);
#570=VERTEX_POINT('',#1775);
#571=VERTEX_POINT('',#1778);
#572=VERTEX_POINT('',#1779);
#573=VERTEX_POINT('',#1781);
#574=VERTEX_POINT('',#1783);
#575=VERTEX_POINT('',#1786);
#576=VERTEX_POINT('',#1787);
#577=VERTEX_POINT('',#1789);
#578=VERTEX_POINT('',#1791);
#579=VERTEX_POINT('',#1794);
#580=VERTEX_POINT('',#1795);
#581=VERTEX_POINT('',#1797);
#582=VERTEX_POINT('',#1799);
#583=VERTEX_POINT('',#1802);
#584=VERTEX_POINT('',#1803);
#585=VERTEX_POINT('',#1805);
#586=VERTEX_POINT('',#1807);
#587=VERTEX_POINT('',#1810);
#588=VERTEX_POINT('',#1811);
#589=VERTEX_POINT('',#1813);
#590=VERTEX_POINT('',#1815);
#591=VERTEX_POINT('',#1819);
#592=VERTEX_POINT('',#1821);
#593=VERTEX_POINT('',#1823);
#594=VERTEX_POINT('',#1825);
#595=VERTEX_POINT('',#1827);
#596=VERTEX_POINT('',#1829);
#597=VERTEX_POINT('',#1831);
#598=VERTEX_POINT('',#1833);
#599=VERTEX_POINT('',#1837);
#600=VERTEX_POINT('',#1841);
#601=VERTEX_POINT('',#1843);
#602=VERTEX_POINT('',#1849);
#603=VERTEX_POINT('',#1853);
#604=VERTEX_POINT('',#1857);
#605=VERTEX_POINT('',#1866);
#606=VERTEX_POINT('',#1875);
#607=VERTEX_POINT('',#1884);
#608=VERTEX_POINT('',#1893);
#609=VERTEX_POINT('',#1902);
#610=VERTEX_POINT('',#1911);
#611=VERTEX_POINT('',#1920);
#612=VERTEX_POINT('',#1929);
#613=VERTEX_POINT('',#1938);
#614=VERTEX_POINT('',#1947);
#615=VERTEX_POINT('',#1956);
#616=VERTEX_POINT('',#1965);
#617=VERTEX_POINT('',#1974);
#618=VERTEX_POINT('',#1983);
#619=VERTEX_POINT('',#1992);
#620=VERTEX_POINT('',#2001);
#621=VERTEX_POINT('',#2002);
#622=VERTEX_POINT('',#2007);
#623=EDGE_CURVE('',#521,#522,#207,.T.);
#624=EDGE_CURVE('',#523,#521,#208,.T.);
#625=EDGE_CURVE('',#524,#523,#209,.T.);
#626=EDGE_CURVE('',#522,#524,#210,.T.);
#627=EDGE_CURVE('',#524,#525,#211,.T.);
#628=EDGE_CURVE('',#525,#526,#212,.T.);
#629=EDGE_CURVE('',#522,#526,#213,.T.);
#630=EDGE_CURVE('',#527,#528,#214,.T.);
#631=EDGE_CURVE('',#528,#529,#215,.T.);
#632=EDGE_CURVE('',#529,#530,#216,.T.);
#633=EDGE_CURVE('',#530,#527,#217,.T.);
#634=EDGE_CURVE('',#531,#532,#218,.T.);
#635=EDGE_CURVE('',#532,#533,#219,.T.);
#636=EDGE_CURVE('',#533,#534,#220,.T.);
#637=EDGE_CURVE('',#534,#531,#221,.T.);
#638=EDGE_CURVE('',#535,#536,#222,.T.);
#639=EDGE_CURVE('',#536,#537,#223,.T.);
#640=EDGE_CURVE('',#537,#538,#224,.T.);
#641=EDGE_CURVE('',#538,#535,#225,.T.);
#642=EDGE_CURVE('',#539,#540,#226,.T.);
#643=EDGE_CURVE('',#540,#541,#227,.T.);
#644=EDGE_CURVE('',#541,#542,#228,.T.);
#645=EDGE_CURVE('',#542,#539,#229,.T.);
#646=EDGE_CURVE('',#543,#544,#230,.T.);
#647=EDGE_CURVE('',#544,#545,#231,.T.);
#648=EDGE_CURVE('',#545,#546,#232,.T.);
#649=EDGE_CURVE('',#546,#543,#233,.T.);
#650=EDGE_CURVE('',#547,#548,#234,.T.);
#651=EDGE_CURVE('',#548,#549,#235,.T.);
#652=EDGE_CURVE('',#549,#550,#236,.T.);
#653=EDGE_CURVE('',#550,#547,#237,.T.);
#654=EDGE_CURVE('',#551,#552,#238,.T.);
#655=EDGE_CURVE('',#552,#553,#239,.T.);
#656=EDGE_CURVE('',#553,#554,#240,.T.);
#657=EDGE_CURVE('',#554,#551,#241,.T.);
#658=EDGE_CURVE('',#555,#556,#242,.T.);
#659=EDGE_CURVE('',#556,#557,#243,.T.);
#660=EDGE_CURVE('',#557,#558,#244,.T.);
#661=EDGE_CURVE('',#558,#555,#245,.T.);
#662=EDGE_CURVE('',#559,#560,#246,.T.);
#663=EDGE_CURVE('',#560,#561,#247,.T.);
#664=EDGE_CURVE('',#561,#562,#248,.T.);
#665=EDGE_CURVE('',#562,#559,#249,.T.);
#666=EDGE_CURVE('',#563,#564,#250,.T.);
#667=EDGE_CURVE('',#564,#565,#251,.T.);
#668=EDGE_CURVE('',#565,#566,#252,.T.);
#669=EDGE_CURVE('',#566,#563,#253,.T.);
#670=EDGE_CURVE('',#567,#568,#254,.T.);
#671=EDGE_CURVE('',#568,#569,#255,.T.);
#672=EDGE_CURVE('',#569,#570,#256,.T.);
#673=EDGE_CURVE('',#570,#567,#257,.T.);
#674=EDGE_CURVE('',#571,#572,#258,.T.);
#675=EDGE_CURVE('',#572,#573,#259,.T.);
#676=EDGE_CURVE('',#573,#574,#260,.T.);
#677=EDGE_CURVE('',#574,#571,#261,.T.);
#678=EDGE_CURVE('',#575,#576,#262,.T.);
#679=EDGE_CURVE('',#576,#577,#263,.T.);
#680=EDGE_CURVE('',#577,#578,#264,.T.);
#681=EDGE_CURVE('',#578,#575,#265,.T.);
#682=EDGE_CURVE('',#579,#580,#266,.T.);
#683=EDGE_CURVE('',#580,#581,#267,.T.);
#684=EDGE_CURVE('',#581,#582,#268,.T.);
#685=EDGE_CURVE('',#582,#579,#269,.T.);
#686=EDGE_CURVE('',#583,#584,#270,.T.);
#687=EDGE_CURVE('',#584,#585,#271,.T.);
#688=EDGE_CURVE('',#585,#586,#272,.T.);
#689=EDGE_CURVE('',#586,#583,#273,.T.);
#690=EDGE_CURVE('',#587,#588,#274,.T.);
#691=EDGE_CURVE('',#588,#589,#275,.T.);
#692=EDGE_CURVE('',#589,#590,#276,.T.);
#693=EDGE_CURVE('',#590,#587,#277,.T.);
#694=EDGE_CURVE('',#523,#591,#278,.T.);
#695=EDGE_CURVE('',#591,#592,#279,.T.);
#696=EDGE_CURVE('',#593,#592,#280,.T.);
#697=EDGE_CURVE('',#594,#593,#17,.T.);
#698=EDGE_CURVE('',#595,#594,#281,.T.);
#699=EDGE_CURVE('',#596,#595,#18,.T.);
#700=EDGE_CURVE('',#597,#596,#282,.T.);
#701=EDGE_CURVE('',#597,#598,#283,.T.);
#702=EDGE_CURVE('',#598,#525,#284,.T.);
#703=EDGE_CURVE('',#521,#599,#285,.T.);
#704=EDGE_CURVE('',#591,#599,#286,.T.);
#705=EDGE_CURVE('',#600,#597,#287,.T.);
#706=EDGE_CURVE('',#600,#601,#288,.T.);
#707=EDGE_CURVE('',#598,#601,#289,.T.);
#708=EDGE_CURVE('',#601,#526,#290,.T.);
#709=EDGE_CURVE('',#602,#596,#291,.T.);
#710=EDGE_CURVE('',#600,#602,#292,.T.);
#711=EDGE_CURVE('',#599,#603,#293,.T.);
#712=EDGE_CURVE('',#592,#603,#294,.T.);
#713=EDGE_CURVE('',#588,#604,#295,.T.);
#714=EDGE_CURVE('',#587,#604,#296,.T.);
#715=EDGE_CURVE('',#590,#604,#297,.T.);
#716=EDGE_CURVE('',#589,#604,#298,.T.);
#717=EDGE_CURVE('',#584,#605,#299,.T.);
#718=EDGE_CURVE('',#583,#605,#300,.T.);
#719=EDGE_CURVE('',#586,#605,#301,.T.);
#720=EDGE_CURVE('',#585,#605,#302,.T.);
#721=EDGE_CURVE('',#580,#606,#303,.T.);
#722=EDGE_CURVE('',#579,#606,#304,.T.);
#723=EDGE_CURVE('',#582,#606,#305,.T.);
#724=EDGE_CURVE('',#581,#606,#306,.T.);
#725=EDGE_CURVE('',#576,#607,#307,.T.);
#726=EDGE_CURVE('',#575,#607,#308,.T.);
#727=EDGE_CURVE('',#578,#607,#309,.T.);
#728=EDGE_CURVE('',#577,#607,#310,.T.);
#729=EDGE_CURVE('',#572,#608,#311,.T.);
#730=EDGE_CURVE('',#571,#608,#312,.T.);
#731=EDGE_CURVE('',#574,#608,#313,.T.);
#732=EDGE_CURVE('',#573,#608,#314,.T.);
#733=EDGE_CURVE('',#568,#609,#315,.T.);
#734=EDGE_CURVE('',#567,#609,#316,.T.);
#735=EDGE_CURVE('',#570,#609,#317,.T.);
#736=EDGE_CURVE('',#569,#609,#318,.T.);
#737=EDGE_CURVE('',#564,#610,#319,.T.);
#738=EDGE_CURVE('',#563,#610,#320,.T.);
#739=EDGE_CURVE('',#566,#610,#321,.T.);
#740=EDGE_CURVE('',#565,#610,#322,.T.);
#741=EDGE_CURVE('',#560,#611,#323,.T.);
#742=EDGE_CURVE('',#559,#611,#324,.T.);
#743=EDGE_CURVE('',#562,#611,#325,.T.);
#744=EDGE_CURVE('',#561,#611,#326,.T.);
#745=EDGE_CURVE('',#556,#612,#327,.T.);
#746=EDGE_CURVE('',#555,#612,#328,.T.);
#747=EDGE_CURVE('',#558,#612,#329,.T.);
#748=EDGE_CURVE('',#557,#612,#330,.T.);
#749=EDGE_CURVE('',#552,#613,#331,.T.);
#750=EDGE_CURVE('',#551,#613,#332,.T.);
#751=EDGE_CURVE('',#554,#613,#333,.T.);
#752=EDGE_CURVE('',#553,#613,#334,.T.);
#753=EDGE_CURVE('',#548,#614,#335,.T.);
#754=EDGE_CURVE('',#547,#614,#336,.T.);
#755=EDGE_CURVE('',#550,#614,#337,.T.);
#756=EDGE_CURVE('',#549,#614,#338,.T.);
#757=EDGE_CURVE('',#544,#615,#339,.T.);
#758=EDGE_CURVE('',#543,#615,#340,.T.);
#759=EDGE_CURVE('',#546,#615,#341,.T.);
#760=EDGE_CURVE('',#545,#615,#342,.T.);
#761=EDGE_CURVE('',#540,#616,#343,.T.);
#762=EDGE_CURVE('',#539,#616,#344,.T.);
#763=EDGE_CURVE('',#542,#616,#345,.T.);
#764=EDGE_CURVE('',#541,#616,#346,.T.);
#765=EDGE_CURVE('',#536,#617,#347,.T.);
#766=EDGE_CURVE('',#535,#617,#348,.T.);
#767=EDGE_CURVE('',#538,#617,#349,.T.);
#768=EDGE_CURVE('',#537,#617,#350,.T.);
#769=EDGE_CURVE('',#532,#618,#351,.T.);
#770=EDGE_CURVE('',#531,#618,#352,.T.);
#771=EDGE_CURVE('',#534,#618,#353,.T.);
#772=EDGE_CURVE('',#533,#618,#354,.T.);
#773=EDGE_CURVE('',#528,#619,#355,.T.);
#774=EDGE_CURVE('',#527,#619,#356,.T.);
#775=EDGE_CURVE('',#530,#619,#357,.T.);
#776=EDGE_CURVE('',#529,#619,#358,.T.);
#777=EDGE_CURVE('',#620,#621,#19,.T.);
#778=EDGE_CURVE('',#621,#594,#359,.T.);
#779=EDGE_CURVE('',#593,#620,#360,.T.);
#780=EDGE_CURVE('',#621,#622,#361,.T.);
#781=EDGE_CURVE('',#595,#622,#362,.T.);
#782=EDGE_CURVE('',#622,#602,#20,.T.);
#783=EDGE_CURVE('',#603,#620,#363,.T.);
#784=ORIENTED_EDGE('',*,*,#623,.F.);
#785=ORIENTED_EDGE('',*,*,#624,.F.);
#786=ORIENTED_EDGE('',*,*,#625,.F.);
#787=ORIENTED_EDGE('',*,*,#626,.F.);
#788=ORIENTED_EDGE('',*,*,#626,.T.);
#789=ORIENTED_EDGE('',*,*,#627,.T.);
#790=ORIENTED_EDGE('',*,*,#628,.T.);
#791=ORIENTED_EDGE('',*,*,#629,.F.);
#792=ORIENTED_EDGE('',*,*,#630,.T.);
#793=ORIENTED_EDGE('',*,*,#631,.T.);
#794=ORIENTED_EDGE('',*,*,#632,.T.);
#795=ORIENTED_EDGE('',*,*,#633,.T.);
#796=ORIENTED_EDGE('',*,*,#634,.T.);
#797=ORIENTED_EDGE('',*,*,#635,.T.);
#798=ORIENTED_EDGE('',*,*,#636,.T.);
#799=ORIENTED_EDGE('',*,*,#637,.T.);
#800=ORIENTED_EDGE('',*,*,#638,.T.);
#801=ORIENTED_EDGE('',*,*,#639,.T.);
#802=ORIENTED_EDGE('',*,*,#640,.T.);
#803=ORIENTED_EDGE('',*,*,#641,.T.);
#804=ORIENTED_EDGE('',*,*,#642,.T.);
#805=ORIENTED_EDGE('',*,*,#643,.T.);
#806=ORIENTED_EDGE('',*,*,#644,.T.);
#807=ORIENTED_EDGE('',*,*,#645,.T.);
#808=ORIENTED_EDGE('',*,*,#646,.T.);
#809=ORIENTED_EDGE('',*,*,#647,.T.);
#810=ORIENTED_EDGE('',*,*,#648,.T.);
#811=ORIENTED_EDGE('',*,*,#649,.T.);
#812=ORIENTED_EDGE('',*,*,#650,.T.);
#813=ORIENTED_EDGE('',*,*,#651,.T.);
#814=ORIENTED_EDGE('',*,*,#652,.T.);
#815=ORIENTED_EDGE('',*,*,#653,.T.);
#816=ORIENTED_EDGE('',*,*,#654,.T.);
#817=ORIENTED_EDGE('',*,*,#655,.T.);
#818=ORIENTED_EDGE('',*,*,#656,.T.);
#819=ORIENTED_EDGE('',*,*,#657,.T.);
#820=ORIENTED_EDGE('',*,*,#658,.T.);
#821=ORIENTED_EDGE('',*,*,#659,.T.);
#822=ORIENTED_EDGE('',*,*,#660,.T.);
#823=ORIENTED_EDGE('',*,*,#661,.T.);
#824=ORIENTED_EDGE('',*,*,#662,.T.);
#825=ORIENTED_EDGE('',*,*,#663,.T.);
#826=ORIENTED_EDGE('',*,*,#664,.T.);
#827=ORIENTED_EDGE('',*,*,#665,.T.);
#828=ORIENTED_EDGE('',*,*,#666,.T.);
#829=ORIENTED_EDGE('',*,*,#667,.T.);
#830=ORIENTED_EDGE('',*,*,#668,.T.);
#831=ORIENTED_EDGE('',*,*,#669,.T.);
#832=ORIENTED_EDGE('',*,*,#670,.T.);
#833=ORIENTED_EDGE('',*,*,#671,.T.);
#834=ORIENTED_EDGE('',*,*,#672,.T.);
#835=ORIENTED_EDGE('',*,*,#673,.T.);
#836=ORIENTED_EDGE('',*,*,#674,.T.);
#837=ORIENTED_EDGE('',*,*,#675,.T.);
#838=ORIENTED_EDGE('',*,*,#676,.T.);
#839=ORIENTED_EDGE('',*,*,#677,.T.);
#840=ORIENTED_EDGE('',*,*,#678,.T.);
#841=ORIENTED_EDGE('',*,*,#679,.T.);
#842=ORIENTED_EDGE('',*,*,#680,.T.);
#843=ORIENTED_EDGE('',*,*,#681,.T.);
#844=ORIENTED_EDGE('',*,*,#682,.T.);
#845=ORIENTED_EDGE('',*,*,#683,.T.);
#846=ORIENTED_EDGE('',*,*,#684,.T.);
#847=ORIENTED_EDGE('',*,*,#685,.T.);
#848=ORIENTED_EDGE('',*,*,#686,.T.);
#849=ORIENTED_EDGE('',*,*,#687,.T.);
#850=ORIENTED_EDGE('',*,*,#688,.T.);
#851=ORIENTED_EDGE('',*,*,#689,.T.);
#852=ORIENTED_EDGE('',*,*,#690,.T.);
#853=ORIENTED_EDGE('',*,*,#691,.T.);
#854=ORIENTED_EDGE('',*,*,#692,.T.);
#855=ORIENTED_EDGE('',*,*,#693,.T.);
#856=ORIENTED_EDGE('',*,*,#625,.T.);
#857=ORIENTED_EDGE('',*,*,#694,.T.);
#858=ORIENTED_EDGE('',*,*,#695,.T.);
#859=ORIENTED_EDGE('',*,*,#696,.F.);
#860=ORIENTED_EDGE('',*,*,#697,.F.);
#861=ORIENTED_EDGE('',*,*,#698,.F.);
#862=ORIENTED_EDGE('',*,*,#699,.F.);
#863=ORIENTED_EDGE('',*,*,#700,.F.);
#864=ORIENTED_EDGE('',*,*,#701,.T.);
#865=ORIENTED_EDGE('',*,*,#702,.T.);
#866=ORIENTED_EDGE('',*,*,#627,.F.);
#867=ORIENTED_EDGE('',*,*,#624,.T.);
#868=ORIENTED_EDGE('',*,*,#703,.T.);
#869=ORIENTED_EDGE('',*,*,#704,.F.);
#870=ORIENTED_EDGE('',*,*,#694,.F.);
#871=ORIENTED_EDGE('',*,*,#705,.F.);
#872=ORIENTED_EDGE('',*,*,#706,.T.);
#873=ORIENTED_EDGE('',*,*,#707,.F.);
#874=ORIENTED_EDGE('',*,*,#701,.F.);
#875=ORIENTED_EDGE('',*,*,#702,.F.);
#876=ORIENTED_EDGE('',*,*,#707,.T.);
#877=ORIENTED_EDGE('',*,*,#708,.T.);
#878=ORIENTED_EDGE('',*,*,#628,.F.);
#879=ORIENTED_EDGE('',*,*,#705,.T.);
#880=ORIENTED_EDGE('',*,*,#700,.T.);
#881=ORIENTED_EDGE('',*,*,#709,.F.);
#882=ORIENTED_EDGE('',*,*,#710,.F.);
#883=ORIENTED_EDGE('',*,*,#704,.T.);
#884=ORIENTED_EDGE('',*,*,#711,.T.);
#885=ORIENTED_EDGE('',*,*,#712,.F.);
#886=ORIENTED_EDGE('',*,*,#695,.F.);
#887=ORIENTED_EDGE('',*,*,#713,.F.);
#888=ORIENTED_EDGE('',*,*,#690,.F.);
#889=ORIENTED_EDGE('',*,*,#714,.T.);
#890=ORIENTED_EDGE('',*,*,#714,.F.);
#891=ORIENTED_EDGE('',*,*,#693,.F.);
#892=ORIENTED_EDGE('',*,*,#715,.T.);
#893=ORIENTED_EDGE('',*,*,#715,.F.);
#894=ORIENTED_EDGE('',*,*,#692,.F.);
#895=ORIENTED_EDGE('',*,*,#716,.T.);
#896=ORIENTED_EDGE('',*,*,#716,.F.);
#897=ORIENTED_EDGE('',*,*,#691,.F.);
#898=ORIENTED_EDGE('',*,*,#713,.T.);
#899=ORIENTED_EDGE('',*,*,#717,.F.);
#900=ORIENTED_EDGE('',*,*,#686,.F.);
#901=ORIENTED_EDGE('',*,*,#718,.T.);
#902=ORIENTED_EDGE('',*,*,#718,.F.);
#903=ORIENTED_EDGE('',*,*,#689,.F.);
#904=ORIENTED_EDGE('',*,*,#719,.T.);
#905=ORIENTED_EDGE('',*,*,#719,.F.);
#906=ORIENTED_EDGE('',*,*,#688,.F.);
#907=ORIENTED_EDGE('',*,*,#720,.T.);
#908=ORIENTED_EDGE('',*,*,#720,.F.);
#909=ORIENTED_EDGE('',*,*,#687,.F.);
#910=ORIENTED_EDGE('',*,*,#717,.T.);
#911=ORIENTED_EDGE('',*,*,#721,.F.);
#912=ORIENTED_EDGE('',*,*,#682,.F.);
#913=ORIENTED_EDGE('',*,*,#722,.T.);
#914=ORIENTED_EDGE('',*,*,#722,.F.);
#915=ORIENTED_EDGE('',*,*,#685,.F.);
#916=ORIENTED_EDGE('',*,*,#723,.T.);
#917=ORIENTED_EDGE('',*,*,#723,.F.);
#918=ORIENTED_EDGE('',*,*,#684,.F.);
#919=ORIENTED_EDGE('',*,*,#724,.T.);
#920=ORIENTED_EDGE('',*,*,#724,.F.);
#921=ORIENTED_EDGE('',*,*,#683,.F.);
#922=ORIENTED_EDGE('',*,*,#721,.T.);
#923=ORIENTED_EDGE('',*,*,#725,.F.);
#924=ORIENTED_EDGE('',*,*,#678,.F.);
#925=ORIENTED_EDGE('',*,*,#726,.T.);
#926=ORIENTED_EDGE('',*,*,#726,.F.);
#927=ORIENTED_EDGE('',*,*,#681,.F.);
#928=ORIENTED_EDGE('',*,*,#727,.T.);
#929=ORIENTED_EDGE('',*,*,#727,.F.);
#930=ORIENTED_EDGE('',*,*,#680,.F.);
#931=ORIENTED_EDGE('',*,*,#728,.T.);
#932=ORIENTED_EDGE('',*,*,#728,.F.);
#933=ORIENTED_EDGE('',*,*,#679,.F.);
#934=ORIENTED_EDGE('',*,*,#725,.T.);
#935=ORIENTED_EDGE('',*,*,#729,.F.);
#936=ORIENTED_EDGE('',*,*,#674,.F.);
#937=ORIENTED_EDGE('',*,*,#730,.T.);
#938=ORIENTED_EDGE('',*,*,#730,.F.);
#939=ORIENTED_EDGE('',*,*,#677,.F.);
#940=ORIENTED_EDGE('',*,*,#731,.T.);
#941=ORIENTED_EDGE('',*,*,#731,.F.);
#942=ORIENTED_EDGE('',*,*,#676,.F.);
#943=ORIENTED_EDGE('',*,*,#732,.T.);
#944=ORIENTED_EDGE('',*,*,#732,.F.);
#945=ORIENTED_EDGE('',*,*,#675,.F.);
#946=ORIENTED_EDGE('',*,*,#729,.T.);
#947=ORIENTED_EDGE('',*,*,#733,.F.);
#948=ORIENTED_EDGE('',*,*,#670,.F.);
#949=ORIENTED_EDGE('',*,*,#734,.T.);
#950=ORIENTED_EDGE('',*,*,#734,.F.);
#951=ORIENTED_EDGE('',*,*,#673,.F.);
#952=ORIENTED_EDGE('',*,*,#735,.T.);
#953=ORIENTED_EDGE('',*,*,#735,.F.);
#954=ORIENTED_EDGE('',*,*,#672,.F.);
#955=ORIENTED_EDGE('',*,*,#736,.T.);
#956=ORIENTED_EDGE('',*,*,#736,.F.);
#957=ORIENTED_EDGE('',*,*,#671,.F.);
#958=ORIENTED_EDGE('',*,*,#733,.T.);
#959=ORIENTED_EDGE('',*,*,#737,.F.);
#960=ORIENTED_EDGE('',*,*,#666,.F.);
#961=ORIENTED_EDGE('',*,*,#738,.T.);
#962=ORIENTED_EDGE('',*,*,#738,.F.);
#963=ORIENTED_EDGE('',*,*,#669,.F.);
#964=ORIENTED_EDGE('',*,*,#739,.T.);
#965=ORIENTED_EDGE('',*,*,#739,.F.);
#966=ORIENTED_EDGE('',*,*,#668,.F.);
#967=ORIENTED_EDGE('',*,*,#740,.T.);
#968=ORIENTED_EDGE('',*,*,#740,.F.);
#969=ORIENTED_EDGE('',*,*,#667,.F.);
#970=ORIENTED_EDGE('',*,*,#737,.T.);
#971=ORIENTED_EDGE('',*,*,#741,.F.);
#972=ORIENTED_EDGE('',*,*,#662,.F.);
#973=ORIENTED_EDGE('',*,*,#742,.T.);
#974=ORIENTED_EDGE('',*,*,#742,.F.);
#975=ORIENTED_EDGE('',*,*,#665,.F.);
#976=ORIENTED_EDGE('',*,*,#743,.T.);
#977=ORIENTED_EDGE('',*,*,#743,.F.);
#978=ORIENTED_EDGE('',*,*,#664,.F.);
#979=ORIENTED_EDGE('',*,*,#744,.T.);
#980=ORIENTED_EDGE('',*,*,#744,.F.);
#981=ORIENTED_EDGE('',*,*,#663,.F.);
#982=ORIENTED_EDGE('',*,*,#741,.T.);
#983=ORIENTED_EDGE('',*,*,#745,.F.);
#984=ORIENTED_EDGE('',*,*,#658,.F.);
#985=ORIENTED_EDGE('',*,*,#746,.T.);
#986=ORIENTED_EDGE('',*,*,#746,.F.);
#987=ORIENTED_EDGE('',*,*,#661,.F.);
#988=ORIENTED_EDGE('',*,*,#747,.T.);
#989=ORIENTED_EDGE('',*,*,#747,.F.);
#990=ORIENTED_EDGE('',*,*,#660,.F.);
#991=ORIENTED_EDGE('',*,*,#748,.T.);
#992=ORIENTED_EDGE('',*,*,#748,.F.);
#993=ORIENTED_EDGE('',*,*,#659,.F.);
#994=ORIENTED_EDGE('',*,*,#745,.T.);
#995=ORIENTED_EDGE('',*,*,#749,.F.);
#996=ORIENTED_EDGE('',*,*,#654,.F.);
#997=ORIENTED_EDGE('',*,*,#750,.T.);
#998=ORIENTED_EDGE('',*,*,#750,.F.);
#999=ORIENTED_EDGE('',*,*,#657,.F.);
#1000=ORIENTED_EDGE('',*,*,#751,.T.);
#1001=ORIENTED_EDGE('',*,*,#751,.F.);
#1002=ORIENTED_EDGE('',*,*,#656,.F.);
#1003=ORIENTED_EDGE('',*,*,#752,.T.);
#1004=ORIENTED_EDGE('',*,*,#752,.F.);
#1005=ORIENTED_EDGE('',*,*,#655,.F.);
#1006=ORIENTED_EDGE('',*,*,#749,.T.);
#1007=ORIENTED_EDGE('',*,*,#753,.F.);
#1008=ORIENTED_EDGE('',*,*,#650,.F.);
#1009=ORIENTED_EDGE('',*,*,#754,.T.);
#1010=ORIENTED_EDGE('',*,*,#754,.F.);
#1011=ORIENTED_EDGE('',*,*,#653,.F.);
#1012=ORIENTED_EDGE('',*,*,#755,.T.);
#1013=ORIENTED_EDGE('',*,*,#755,.F.);
#1014=ORIENTED_EDGE('',*,*,#652,.F.);
#1015=ORIENTED_EDGE('',*,*,#756,.T.);
#1016=ORIENTED_EDGE('',*,*,#756,.F.);
#1017=ORIENTED_EDGE('',*,*,#651,.F.);
#1018=ORIENTED_EDGE('',*,*,#753,.T.);
#1019=ORIENTED_EDGE('',*,*,#757,.F.);
#1020=ORIENTED_EDGE('',*,*,#646,.F.);
#1021=ORIENTED_EDGE('',*,*,#758,.T.);
#1022=ORIENTED_EDGE('',*,*,#758,.F.);
#1023=ORIENTED_EDGE('',*,*,#649,.F.);
#1024=ORIENTED_EDGE('',*,*,#759,.T.);
#1025=ORIENTED_EDGE('',*,*,#759,.F.);
#1026=ORIENTED_EDGE('',*,*,#648,.F.);
#1027=ORIENTED_EDGE('',*,*,#760,.T.);
#1028=ORIENTED_EDGE('',*,*,#760,.F.);
#1029=ORIENTED_EDGE('',*,*,#647,.F.);
#1030=ORIENTED_EDGE('',*,*,#757,.T.);
#1031=ORIENTED_EDGE('',*,*,#761,.F.);
#1032=ORIENTED_EDGE('',*,*,#642,.F.);
#1033=ORIENTED_EDGE('',*,*,#762,.T.);
#1034=ORIENTED_EDGE('',*,*,#762,.F.);
#1035=ORIENTED_EDGE('',*,*,#645,.F.);
#1036=ORIENTED_EDGE('',*,*,#763,.T.);
#1037=ORIENTED_EDGE('',*,*,#763,.F.);
#1038=ORIENTED_EDGE('',*,*,#644,.F.);
#1039=ORIENTED_EDGE('',*,*,#764,.T.);
#1040=ORIENTED_EDGE('',*,*,#764,.F.);
#1041=ORIENTED_EDGE('',*,*,#643,.F.);
#1042=ORIENTED_EDGE('',*,*,#761,.T.);
#1043=ORIENTED_EDGE('',*,*,#765,.F.);
#1044=ORIENTED_EDGE('',*,*,#638,.F.);
#1045=ORIENTED_EDGE('',*,*,#766,.T.);
#1046=ORIENTED_EDGE('',*,*,#766,.F.);
#1047=ORIENTED_EDGE('',*,*,#641,.F.);
#1048=ORIENTED_EDGE('',*,*,#767,.T.);
#1049=ORIENTED_EDGE('',*,*,#767,.F.);
#1050=ORIENTED_EDGE('',*,*,#640,.F.);
#1051=ORIENTED_EDGE('',*,*,#768,.T.);
#1052=ORIENTED_EDGE('',*,*,#768,.F.);
#1053=ORIENTED_EDGE('',*,*,#639,.F.);
#1054=ORIENTED_EDGE('',*,*,#765,.T.);
#1055=ORIENTED_EDGE('',*,*,#769,.F.);
#1056=ORIENTED_EDGE('',*,*,#634,.F.);
#1057=ORIENTED_EDGE('',*,*,#770,.T.);
#1058=ORIENTED_EDGE('',*,*,#770,.F.);
#1059=ORIENTED_EDGE('',*,*,#637,.F.);
#1060=ORIENTED_EDGE('',*,*,#771,.T.);
#1061=ORIENTED_EDGE('',*,*,#771,.F.);
#1062=ORIENTED_EDGE('',*,*,#636,.F.);
#1063=ORIENTED_EDGE('',*,*,#772,.T.);
#1064=ORIENTED_EDGE('',*,*,#772,.F.);
#1065=ORIENTED_EDGE('',*,*,#635,.F.);
#1066=ORIENTED_EDGE('',*,*,#769,.T.);
#1067=ORIENTED_EDGE('',*,*,#773,.F.);
#1068=ORIENTED_EDGE('',*,*,#630,.F.);
#1069=ORIENTED_EDGE('',*,*,#774,.T.);
#1070=ORIENTED_EDGE('',*,*,#774,.F.);
#1071=ORIENTED_EDGE('',*,*,#633,.F.);
#1072=ORIENTED_EDGE('',*,*,#775,.T.);
#1073=ORIENTED_EDGE('',*,*,#775,.F.);
#1074=ORIENTED_EDGE('',*,*,#632,.F.);
#1075=ORIENTED_EDGE('',*,*,#776,.T.);
#1076=ORIENTED_EDGE('',*,*,#776,.F.);
#1077=ORIENTED_EDGE('',*,*,#631,.F.);
#1078=ORIENTED_EDGE('',*,*,#773,.T.);
#1079=ORIENTED_EDGE('',*,*,#777,.T.);
#1080=ORIENTED_EDGE('',*,*,#778,.T.);
#1081=ORIENTED_EDGE('',*,*,#697,.T.);
#1082=ORIENTED_EDGE('',*,*,#779,.T.);
#1083=ORIENTED_EDGE('',*,*,#778,.F.);
#1084=ORIENTED_EDGE('',*,*,#780,.T.);
#1085=ORIENTED_EDGE('',*,*,#781,.F.);
#1086=ORIENTED_EDGE('',*,*,#698,.T.);
#1087=ORIENTED_EDGE('',*,*,#623,.T.);
#1088=ORIENTED_EDGE('',*,*,#629,.T.);
#1089=ORIENTED_EDGE('',*,*,#708,.F.);
#1090=ORIENTED_EDGE('',*,*,#706,.F.);
#1091=ORIENTED_EDGE('',*,*,#710,.T.);
#1092=ORIENTED_EDGE('',*,*,#782,.F.);
#1093=ORIENTED_EDGE('',*,*,#780,.F.);
#1094=ORIENTED_EDGE('',*,*,#777,.F.);
#1095=ORIENTED_EDGE('',*,*,#783,.F.);
#1096=ORIENTED_EDGE('',*,*,#711,.F.);
#1097=ORIENTED_EDGE('',*,*,#703,.F.);
#1098=ORIENTED_EDGE('',*,*,#699,.T.);
#1099=ORIENTED_EDGE('',*,*,#781,.T.);
#1100=ORIENTED_EDGE('',*,*,#782,.T.);
#1101=ORIENTED_EDGE('',*,*,#709,.T.);
#1102=ORIENTED_EDGE('',*,*,#779,.F.);
#1103=ORIENTED_EDGE('',*,*,#696,.T.);
#1104=ORIENTED_EDGE('',*,*,#712,.T.);
#1105=ORIENTED_EDGE('',*,*,#783,.T.);
#1106=PLANE('',#1272);
#1107=PLANE('',#1273);
#1108=PLANE('',#1274);
#1109=PLANE('',#1277);
#1110=PLANE('',#1278);
#1111=PLANE('',#1279);
#1112=PLANE('',#1280);
#1113=PLANE('',#1281);
#1114=PLANE('',#1282);
#1115=PLANE('',#1283);
#1116=PLANE('',#1284);
#1117=PLANE('',#1285);
#1118=PLANE('',#1286);
#1119=PLANE('',#1287);
#1120=PLANE('',#1288);
#1121=PLANE('',#1289);
#1122=PLANE('',#1290);
#1123=PLANE('',#1291);
#1124=PLANE('',#1292);
#1125=PLANE('',#1293);
#1126=PLANE('',#1294);
#1127=PLANE('',#1295);
#1128=PLANE('',#1296);
#1129=PLANE('',#1297);
#1130=PLANE('',#1298);
#1131=PLANE('',#1299);
#1132=PLANE('',#1300);
#1133=PLANE('',#1301);
#1134=PLANE('',#1302);
#1135=PLANE('',#1303);
#1136=PLANE('',#1304);
#1137=PLANE('',#1305);
#1138=PLANE('',#1306);
#1139=PLANE('',#1307);
#1140=PLANE('',#1308);
#1141=PLANE('',#1309);
#1142=PLANE('',#1310);
#1143=PLANE('',#1311);
#1144=PLANE('',#1312);
#1145=PLANE('',#1313);
#1146=PLANE('',#1314);
#1147=PLANE('',#1315);
#1148=PLANE('',#1316);
#1149=PLANE('',#1317);
#1150=PLANE('',#1318);
#1151=PLANE('',#1319);
#1152=PLANE('',#1320);
#1153=PLANE('',#1321);
#1154=PLANE('',#1322);
#1155=PLANE('',#1323);
#1156=PLANE('',#1324);
#1157=PLANE('',#1325);
#1158=PLANE('',#1326);
#1159=PLANE('',#1327);
#1160=PLANE('',#1328);
#1161=PLANE('',#1329);
#1162=PLANE('',#1330);
#1163=PLANE('',#1331);
#1164=PLANE('',#1332);
#1165=PLANE('',#1333);
#1166=PLANE('',#1334);
#1167=PLANE('',#1335);
#1168=PLANE('',#1336);
#1169=PLANE('',#1337);
#1170=PLANE('',#1338);
#1171=PLANE('',#1339);
#1172=PLANE('',#1340);
#1173=PLANE('',#1341);
#1174=PLANE('',#1342);
#1175=PLANE('',#1343);
#1176=PLANE('',#1344);
#1177=PLANE('',#1345);
#1178=PLANE('',#1348);
#1179=PLANE('',#1349);
#1180=PLANE('',#1352);
#1181=ADVANCED_FACE('',(#37),#1106,.F.);
#1182=ADVANCED_FACE('',(#38,#21,#22,#23,#24,#25,#26,#27,#28,#29,#30,#31,
#32,#33,#34,#35,#36),#1107,.F.);
#1183=ADVANCED_FACE('',(#39),#1108,.T.);
#1184=ADVANCED_FACE('',(#40),#1109,.T.);
#1185=ADVANCED_FACE('',(#41),#1110,.T.);
#1186=ADVANCED_FACE('',(#42),#1111,.T.);
#1187=ADVANCED_FACE('',(#43),#1112,.T.);
#1188=ADVANCED_FACE('',(#44),#1113,.T.);
#1189=ADVANCED_FACE('',(#45),#1114,.F.);
#1190=ADVANCED_FACE('',(#46),#1115,.F.);
#1191=ADVANCED_FACE('',(#47),#1116,.F.);
#1192=ADVANCED_FACE('',(#48),#1117,.F.);
#1193=ADVANCED_FACE('',(#49),#1118,.F.);
#1194=ADVANCED_FACE('',(#50),#1119,.F.);
#1195=ADVANCED_FACE('',(#51),#1120,.F.);
#1196=ADVANCED_FACE('',(#52),#1121,.F.);
#1197=ADVANCED_FACE('',(#53),#1122,.F.);
#1198=ADVANCED_FACE('',(#54),#1123,.F.);
#1199=ADVANCED_FACE('',(#55),#1124,.F.);
#1200=ADVANCED_FACE('',(#56),#1125,.F.);
#1201=ADVANCED_FACE('',(#57),#1126,.F.);
#1202=ADVANCED_FACE('',(#58),#1127,.F.);
#1203=ADVANCED_FACE('',(#59),#1128,.F.);
#1204=ADVANCED_FACE('',(#60),#1129,.F.);
#1205=ADVANCED_FACE('',(#61),#1130,.F.);
#1206=ADVANCED_FACE('',(#62),#1131,.F.);
#1207=ADVANCED_FACE('',(#63),#1132,.F.);
#1208=ADVANCED_FACE('',(#64),#1133,.F.);
#1209=ADVANCED_FACE('',(#65),#1134,.F.);
#1210=ADVANCED_FACE('',(#66),#1135,.F.);
#1211=ADVANCED_FACE('',(#67),#1136,.F.);
#1212=ADVANCED_FACE('',(#68),#1137,.F.);
#1213=ADVANCED_FACE('',(#69),#1138,.F.);
#1214=ADVANCED_FACE('',(#70),#1139,.F.);
#1215=ADVANCED_FACE('',(#71),#1140,.F.);
#1216=ADVANCED_FACE('',(#72),#1141,.F.);
#1217=ADVANCED_FACE('',(#73),#1142,.F.);
#1218=ADVANCED_FACE('',(#74),#1143,.F.);
#1219=ADVANCED_FACE('',(#75),#1144,.F.);
#1220=ADVANCED_FACE('',(#76),#1145,.F.);
#1221=ADVANCED_FACE('',(#77),#1146,.F.);
#1222=ADVANCED_FACE('',(#78),#1147,.F.);
#1223=ADVANCED_FACE('',(#79),#1148,.F.);
#1224=ADVANCED_FACE('',(#80),#1149,.F.);
#1225=ADVANCED_FACE('',(#81),#1150,.F.);
#1226=ADVANCED_FACE('',(#82),#1151,.F.);
#1227=ADVANCED_FACE('',(#83),#1152,.F.);
#1228=ADVANCED_FACE('',(#84),#1153,.F.);
#1229=ADVANCED_FACE('',(#85),#1154,.F.);
#1230=ADVANCED_FACE('',(#86),#1155,.F.);
#1231=ADVANCED_FACE('',(#87),#1156,.F.);
#1232=ADVANCED_FACE('',(#88),#1157,.F.);
#1233=ADVANCED_FACE('',(#89),#1158,.F.);
#1234=ADVANCED_FACE('',(#90),#1159,.F.);
#1235=ADVANCED_FACE('',(#91),#1160,.F.);
#1236=ADVANCED_FACE('',(#92),#1161,.F.);
#1237=ADVANCED_FACE('',(#93),#1162,.F.);
#1238=ADVANCED_FACE('',(#94),#1163,.F.);
#1239=ADVANCED_FACE('',(#95),#1164,.F.);
#1240=ADVANCED_FACE('',(#96),#1165,.F.);
#1241=ADVANCED_FACE('',(#97),#1166,.F.);
#1242=ADVANCED_FACE('',(#98),#1167,.F.);
#1243=ADVANCED_FACE('',(#99),#1168,.F.);
#1244=ADVANCED_FACE('',(#100),#1169,.F.);
#1245=ADVANCED_FACE('',(#101),#1170,.F.);
#1246=ADVANCED_FACE('',(#102),#1171,.F.);
#1247=ADVANCED_FACE('',(#103),#1172,.F.);
#1248=ADVANCED_FACE('',(#104),#1173,.F.);
#1249=ADVANCED_FACE('',(#105),#1174,.F.);
#1250=ADVANCED_FACE('',(#106),#1175,.F.);
#1251=ADVANCED_FACE('',(#107),#1176,.F.);
#1252=ADVANCED_FACE('',(#108),#1177,.F.);
#1253=ADVANCED_FACE('',(#109),#15,.T.);
#1254=ADVANCED_FACE('',(#110),#1178,.T.);
#1255=ADVANCED_FACE('',(#111),#1179,.T.);
#1256=ADVANCED_FACE('',(#112),#16,.T.);
#1257=ADVANCED_FACE('',(#113),#1180,.T.);
#1258=CLOSED_SHELL('',(#1181,#1182,#1183,#1184,#1185,#1186,#1187,#1188,
#1189,#1190,#1191,#1192,#1193,#1194,#1195,#1196,#1197,#1198,#1199,#1200,
#1201,#1202,#1203,#1204,#1205,#1206,#1207,#1208,#1209,#1210,#1211,#1212,
#1213,#1214,#1215,#1216,#1217,#1218,#1219,#1220,#1221,#1222,#1223,#1224,
#1225,#1226,#1227,#1228,#1229,#1230,#1231,#1232,#1233,#1234,#1235,#1236,
#1237,#1238,#1239,#1240,#1241,#1242,#1243,#1244,#1245,#1246,#1247,#1248,
#1249,#1250,#1251,#1252,#1253,#1254,#1255,#1256,#1257));
#1259=DERIVED_UNIT_ELEMENT(#1261,1.);
#1260=DERIVED_UNIT_ELEMENT(#2020,-3.);
#1261=(
MASS_UNIT()
NAMED_UNIT(*)
SI_UNIT(.KILO.,.GRAM.)
);
#1262=DERIVED_UNIT((#1259,#1260));
#1263=MEASURE_REPRESENTATION_ITEM('density measure',
POSITIVE_RATIO_MEASURE(7850.),#1262);
#1264=PROPERTY_DEFINITION_REPRESENTATION(#1269,#1266);
#1265=PROPERTY_DEFINITION_REPRESENTATION(#1270,#1267);
#1266=REPRESENTATION('material name',(#1268),#2017);
#1267=REPRESENTATION('density',(#1263),#2017);
#1268=DESCRIPTIVE_REPRESENTATION_ITEM('Steel','Steel');
#1269=PROPERTY_DEFINITION('material property','material name',#2027);
#1270=PROPERTY_DEFINITION('material property','density of part',#2027);
#1271=AXIS2_PLACEMENT_3D('',#1674,#1353,#1354);
#1272=AXIS2_PLACEMENT_3D('',#1675,#1355,#1356);
#1273=AXIS2_PLACEMENT_3D('',#1684,#1361,#1362);
#1274=AXIS2_PLACEMENT_3D('',#1818,#1430,#1431);
#1275=AXIS2_PLACEMENT_3D('',#1826,#1435,#1436);
#1276=AXIS2_PLACEMENT_3D('',#1830,#1438,#1439);
#1277=AXIS2_PLACEMENT_3D('',#1836,#1443,#1444);
#1278=AXIS2_PLACEMENT_3D('',#1840,#1447,#1448);
#1279=AXIS2_PLACEMENT_3D('',#1846,#1452,#1453);
#1280=AXIS2_PLACEMENT_3D('',#1848,#1455,#1456);
#1281=AXIS2_PLACEMENT_3D('',#1852,#1459,#1460);
#1282=AXIS2_PLACEMENT_3D('',#1856,#1463,#1464);
#1283=AXIS2_PLACEMENT_3D('',#1860,#1467,#1468);
#1284=AXIS2_PLACEMENT_3D('',#1862,#1470,#1471);
#1285=AXIS2_PLACEMENT_3D('',#1864,#1473,#1474);
#1286=AXIS2_PLACEMENT_3D('',#1865,#1475,#1476);
#1287=AXIS2_PLACEMENT_3D('',#1869,#1479,#1480);
#1288=AXIS2_PLACEMENT_3D('',#1871,#1482,#1483);
#1289=AXIS2_PLACEMENT_3D('',#1873,#1485,#1486);
#1290=AXIS2_PLACEMENT_3D('',#1874,#1487,#1488);
#1291=AXIS2_PLACEMENT_3D('',#1878,#1491,#1492);
#1292=AXIS2_PLACEMENT_3D('',#1880,#1494,#1495);
#1293=AXIS2_PLACEMENT_3D('',#1882,#1497,#1498);
#1294=AXIS2_PLACEMENT_3D('',#1883,#1499,#1500);
#1295=AXIS2_PLACEMENT_3D('',#1887,#1503,#1504);
#1296=AXIS2_PLACEMENT_3D('',#1889,#1506,#1507);
#1297=AXIS2_PLACEMENT_3D('',#1891,#1509,#1510);
#1298=AXIS2_PLACEMENT_3D('',#1892,#1511,#1512);
#1299=AXIS2_PLACEMENT_3D('',#1896,#1515,#1516);
#1300=AXIS2_PLACEMENT_3D('',#1898,#1518,#1519);
#1301=AXIS2_PLACEMENT_3D('',#1900,#1521,#1522);
#1302=AXIS2_PLACEMENT_3D('',#1901,#1523,#1524);
#1303=AXIS2_PLACEMENT_3D('',#1905,#1527,#1528);
#1304=AXIS2_PLACEMENT_3D('',#1907,#1530,#1531);
#1305=AXIS2_PLACEMENT_3D('',#1909,#1533,#1534);
#1306=AXIS2_PLACEMENT_3D('',#1910,#1535,#1536);
#1307=AXIS2_PLACEMENT_3D('',#1914,#1539,#1540);
#1308=AXIS2_PLACEMENT_3D('',#1916,#1542,#1543);
#1309=AXIS2_PLACEMENT_3D('',#1918,#1545,#1546);
#1310=AXIS2_PLACEMENT_3D('',#1919,#1547,#1548);
#1311=AXIS2_PLACEMENT_3D('',#1923,#1551,#1552);
#1312=AXIS2_PLACEMENT_3D('',#1925,#1554,#1555);
#1313=AXIS2_PLACEMENT_3D('',#1927,#1557,#1558);
#1314=AXIS2_PLACEMENT_3D('',#1928,#1559,#1560);
#1315=AXIS2_PLACEMENT_3D('',#1932,#1563,#1564);
#1316=AXIS2_PLACEMENT_3D('',#1934,#1566,#1567);
#1317=AXIS2_PLACEMENT_3D('',#1936,#1569,#1570);
#1318=AXIS2_PLACEMENT_3D('',#1937,#1571,#1572);
#1319=AXIS2_PLACEMENT_3D('',#1941,#1575,#1576);
#1320=AXIS2_PLACEMENT_3D('',#1943,#1578,#1579);
#1321=AXIS2_PLACEMENT_3D('',#1945,#1581,#1582);
#1322=AXIS2_PLACEMENT_3D('',#1946,#1583,#1584);
#1323=AXIS2_PLACEMENT_3D('',#1950,#1587,#1588);
#1324=AXIS2_PLACEMENT_3D('',#1952,#1590,#1591);
#1325=AXIS2_PLACEMENT_3D('',#1954,#1593,#1594);
#1326=AXIS2_PLACEMENT_3D('',#1955,#1595,#1596);
#1327=AXIS2_PLACEMENT_3D('',#1959,#1599,#1600);
#1328=AXIS2_PLACEMENT_3D('',#1961,#1602,#1603);
#1329=AXIS2_PLACEMENT_3D('',#1963,#1605,#1606);
#1330=AXIS2_PLACEMENT_3D('',#1964,#1607,#1608);
#1331=AXIS2_PLACEMENT_3D('',#1968,#1611,#1612);
#1332=AXIS2_PLACEMENT_3D('',#1970,#1614,#1615);
#1333=AXIS2_PLACEMENT_3D('',#1972,#1617,#1618);
#1334=AXIS2_PLACEMENT_3D('',#1973,#1619,#1620);
#1335=AXIS2_PLACEMENT_3D('',#1977,#1623,#1624);
#1336=AXIS2_PLACEMENT_3D('',#1979,#1626,#1627);
#1337=AXIS2_PLACEMENT_3D('',#1981,#1629,#1630);
#1338=AXIS2_PLACEMENT_3D('',#1982,#1631,#1632);
#1339=AXIS2_PLACEMENT_3D('',#1986,#1635,#1636);
#1340=AXIS2_PLACEMENT_3D('',#1988,#1638,#1639);
#1341=AXIS2_PLACEMENT_3D('',#1990,#1641,#1642);
#1342=AXIS2_PLACEMENT_3D('',#1991,#1643,#1644);
#1343=AXIS2_PLACEMENT_3D('',#1995,#1647,#1648);
#1344=AXIS2_PLACEMENT_3D('',#1997,#1650,#1651);
#1345=AXIS2_PLACEMENT_3D('',#1999,#1653,#1654);
#1346=AXIS2_PLACEMENT_3D('',#2000,#1655,#1656);
#1347=AXIS2_PLACEMENT_3D('',#2003,#1657,#1658);
#1348=AXIS2_PLACEMENT_3D('',#2006,#1661,#1662);
#1349=AXIS2_PLACEMENT_3D('',#2010,#1665,#1666);
#1350=AXIS2_PLACEMENT_3D('',#2011,#1667,#1668);
#1351=AXIS2_PLACEMENT_3D('',#2013,#1670,#1671);
#1352=AXIS2_PLACEMENT_3D('',#2014,#1672,#1673);
#1353=DIRECTION('axis',(0.,0.,1.));
#1354=DIRECTION('refdir',(1.,0.,0.));
#1355=DIRECTION('center_axis',(0.,0.,1.));
#1356=DIRECTION('ref_axis',(1.,0.,0.));
#1357=DIRECTION('',(0.,-1.,0.));
#1358=DIRECTION('',(-1.,0.,0.));
#1359=DIRECTION('',(0.,1.,0.));
#1360=DIRECTION('',(1.,0.,0.));
#1361=DIRECTION('center_axis',(0.,1.,0.));
#1362=DIRECTION('ref_axis',(1.,0.,0.));
#1363=DIRECTION('',(0.,0.,1.));
#1364=DIRECTION('',(-1.,0.,0.));
#1365=DIRECTION('',(0.,0.,1.));
#1366=DIRECTION('',(1.,0.,0.));
#1367=DIRECTION('',(0.,0.,-1.));
#1368=DIRECTION('',(-1.,0.,0.));
#1369=DIRECTION('',(0.,0.,1.));
#1370=DIRECTION('',(1.,0.,0.));
#1371=DIRECTION('',(0.,0.,-1.));
#1372=DIRECTION('',(-1.,0.,0.));
#1373=DIRECTION('',(0.,0.,1.));
#1374=DIRECTION('',(1.,0.,0.));
#1375=DIRECTION('',(0.,0.,-1.));
#1376=DIRECTION('',(-1.,0.,0.));
#1377=DIRECTION('',(0.,0.,1.));
#1378=DIRECTION('',(1.,0.,0.));
#1379=DIRECTION('',(0.,0.,-1.));
#1380=DIRECTION('',(-1.,0.,0.));
#1381=DIRECTION('',(0.,0.,1.));
#1382=DIRECTION('',(0.,0.,-1.));
#1383=DIRECTION('',(-1.,0.,0.));
#1384=DIRECTION('',(0.,0.,1.));
#1385=DIRECTION('',(1.,0.,0.));
#1386=DIRECTION('',(1.,0.,0.));
#1387=DIRECTION('',(0.,0.,-1.));
#1388=DIRECTION('',(-1.,0.,0.));
#1389=DIRECTION('',(0.,0.,1.));
#1390=DIRECTION('',(1.,0.,0.));
#1391=DIRECTION('',(0.,0.,-1.));
#1392=DIRECTION('',(-1.,0.,0.));
#1393=DIRECTION('',(0.,0.,1.));
#1394=DIRECTION('',(1.,0.,0.));
#1395=DIRECTION('',(0.,0.,-1.));
#1396=DIRECTION('',(-1.,0.,0.));
#1397=DIRECTION('',(0.,0.,1.));
#1398=DIRECTION('',(1.,0.,0.));
#1399=DIRECTION('',(0.,0.,-1.));
#1400=DIRECTION('',(-1.,0.,0.));
#1401=DIRECTION('',(0.,0.,1.));
#1402=DIRECTION('',(1.,0.,0.));
#1403=DIRECTION('',(0.,0.,-1.));
#1404=DIRECTION('',(-1.,0.,0.));
#1405=DIRECTION('',(0.,0.,1.));
#1406=DIRECTION('',(1.,0.,0.));
#1407=DIRECTION('',(0.,0.,-1.));
#1408=DIRECTION('',(-1.,0.,0.));
#1409=DIRECTION('',(0.,0.,1.));
#1410=DIRECTION('',(1.,0.,0.));
#1411=DIRECTION('',(0.,0.,-1.));
#1412=DIRECTION('',(-1.,0.,0.));
#1413=DIRECTION('',(0.,0.,1.));
#1414=DIRECTION('',(1.,0.,0.));
#1415=DIRECTION('',(0.,0.,-1.));
#1416=DIRECTION('',(-1.,0.,0.));
#1417=DIRECTION('',(0.,0.,1.));
#1418=DIRECTION('',(1.,0.,0.));
#1419=DIRECTION('',(0.,0.,-1.));
#1420=DIRECTION('',(-1.,0.,0.));
#1421=DIRECTION('',(0.,0.,1.));
#1422=DIRECTION('',(1.,0.,0.));
#1423=DIRECTION('',(0.,0.,-1.));
#1424=DIRECTION('',(-1.,0.,0.));
#1425=DIRECTION('',(0.,0.,1.));
#1426=DIRECTION('',(1.,0.,0.));
#1427=DIRECTION('',(0.,0.,-1.));
#1428=DIRECTION('',(-1.,0.,0.));
#1429=DIRECTION('',(0.,0.,1.));
#1430=DIRECTION('center_axis',(1.,0.,0.));
#1431=DIRECTION('ref_axis',(0.,0.,-1.));
#1432=DIRECTION('',(0.,0.,1.));
#1433=DIRECTION('',(0.,1.,0.));
#1434=DIRECTION('',(0.,0.,-1.));
#1435=DIRECTION('center_axis',(-1.,0.,0.));
#1436=DIRECTION('ref_axis',(0.,0.948683298050514,0.316227766016838));
#1437=DIRECTION('',(0.,0.6,-0.8));
#1438=DIRECTION('center_axis',(-1.,0.,0.));
#1439=DIRECTION('ref_axis',(0.,0.447213595499958,0.894427190999916));
#1440=DIRECTION('',(0.,1.,0.));
#1441=DIRECTION('',(0.,0.,1.));
#1442=DIRECTION('',(0.,-1.,0.));
#1443=DIRECTION('center_axis',(0.,1.,0.));
#1444=DIRECTION('ref_axis',(1.,0.,0.));
#1445=DIRECTION('',(0.,0.,1.));
#1446=DIRECTION('',(-1.,0.,0.));
#1447=DIRECTION('center_axis',(0.,1.,0.));
#1448=DIRECTION('ref_axis',(1.,0.,0.));
#1449=DIRECTION('',(1.,0.,3.08148791101958E-33));
#1450=DIRECTION('',(0.,0.,1.));
#1451=DIRECTION('',(-1.,0.,0.));
#1452=DIRECTION('center_axis',(0.,0.,1.));
#1453=DIRECTION('ref_axis',(1.,0.,0.));
#1454=DIRECTION('',(0.,-1.,0.));
#1455=DIRECTION('center_axis',(-3.08148791101958E-33,0.,1.));
#1456=DIRECTION('ref_axis',(1.,0.,3.08148791101958E-33));
#1457=DIRECTION('',(1.,0.,3.08148791101958E-33));
#1458=DIRECTION('',(0.,1.,0.));
#1459=DIRECTION('center_axis',(0.,0.,-1.));
#1460=DIRECTION('ref_axis',(-1.,0.,0.));
#1461=DIRECTION('',(0.,1.,0.));
#1462=DIRECTION('',(-1.,0.,0.));
#1463=DIRECTION('center_axis',(0.,0.342020143325669,0.939692620785908));
#1464=DIRECTION('ref_axis',(1.,0.,0.));
#1465=DIRECTION('',(-0.323615577118185,0.889126490715988,-0.323615577118185));
#1466=DIRECTION('',(0.323615577118185,0.889126490715988,-0.323615577118185));
#1467=DIRECTION('center_axis',(-0.939692620785908,0.342020143325669,0.));
#1468=DIRECTION('ref_axis',(0.,0.,1.));
#1469=DIRECTION('',(0.323615577118185,0.889126490715988,0.323615577118185));
#1470=DIRECTION('center_axis',(0.,0.342020143325669,-0.939692620785908));
#1471=DIRECTION('ref_axis',(-1.,0.,0.));
#1472=DIRECTION('',(-0.323615577118185,0.889126490715988,0.323615577118185));
#1473=DIRECTION('center_axis',(0.939692620785908,0.342020143325669,0.));
#1474=DIRECTION('ref_axis',(0.,0.,-1.));
#1475=DIRECTION('center_axis',(0.,0.342020143325669,0.939692620785908));
#1476=DIRECTION('ref_axis',(1.,0.,0.));
#1477=DIRECTION('',(-0.323615577118185,0.889126490715988,-0.323615577118185));
#1478=DIRECTION('',(0.323615577118185,0.889126490715988,-0.323615577118185));
#1479=DIRECTION('center_axis',(-0.939692620785908,0.342020143325669,0.));
#1480=DIRECTION('ref_axis',(0.,0.,1.));
#1481=DIRECTION('',(0.323615577118185,0.889126490715988,0.323615577118185));
#1482=DIRECTION('center_axis',(0.,0.342020143325669,-0.939692620785908));
#1483=DIRECTION('ref_axis',(-1.,0.,0.));
#1484=DIRECTION('',(-0.323615577118185,0.889126490715988,0.323615577118185));
#1485=DIRECTION('center_axis',(0.939692620785908,0.342020143325669,0.));
#1486=DIRECTION('ref_axis',(0.,0.,-1.));
#1487=DIRECTION('center_axis',(0.,0.342020143325669,0.939692620785908));
#1488=DIRECTION('ref_axis',(1.,0.,0.));
#1489=DIRECTION('',(-0.323615577118185,0.889126490715988,-0.323615577118185));
#1490=DIRECTION('',(0.323615577118185,0.889126490715988,-0.323615577118185));
#1491=DIRECTION('center_axis',(-0.939692620785908,0.342020143325669,0.));
#1492=DIRECTION('ref_axis',(0.,0.,1.));
#1493=DIRECTION('',(0.323615577118185,0.889126490715988,0.323615577118185));
#1494=DIRECTION('center_axis',(0.,0.342020143325669,-0.939692620785908));
#1495=DIRECTION('ref_axis',(-1.,0.,0.));
#1496=DIRECTION('',(-0.323615577118185,0.889126490715988,0.323615577118185));
#1497=DIRECTION('center_axis',(0.939692620785908,0.342020143325669,0.));
#1498=DIRECTION('ref_axis',(0.,0.,-1.));
#1499=DIRECTION('center_axis',(0.,0.342020143325669,0.939692620785908));
#1500=DIRECTION('ref_axis',(1.,0.,0.));
#1501=DIRECTION('',(-0.323615577118185,0.889126490715988,-0.323615577118185));
#1502=DIRECTION('',(0.323615577118185,0.889126490715988,-0.323615577118185));
#1503=DIRECTION('center_axis',(-0.939692620785908,0.342020143325669,0.));
#1504=DIRECTION('ref_axis',(0.,0.,1.));
#1505=DIRECTION('',(0.323615577118185,0.889126490715988,0.323615577118185));
#1506=DIRECTION('center_axis',(0.,0.342020143325669,-0.939692620785908));
#1507=DIRECTION('ref_axis',(-1.,0.,0.));
#1508=DIRECTION('',(-0.323615577118185,0.889126490715988,0.323615577118185));
#1509=DIRECTION('center_axis',(0.939692620785908,0.342020143325669,0.));
#1510=DIRECTION('ref_axis',(0.,0.,-1.));
#1511=DIRECTION('center_axis',(0.,0.342020143325669,0.939692620785908));
#1512=DIRECTION('ref_axis',(1.,0.,0.));
#1513=DIRECTION('',(-0.323615577118185,0.889126490715988,-0.323615577118185));
#1514=DIRECTION('',(0.323615577118185,0.889126490715988,-0.323615577118185));
#1515=DIRECTION('center_axis',(-0.939692620785908,0.342020143325669,0.));
#1516=DIRECTION('ref_axis',(0.,0.,1.));
#1517=DIRECTION('',(0.323615577118185,0.889126490715988,0.323615577118185));
#1518=DIRECTION('center_axis',(0.,0.342020143325669,-0.939692620785908));
#1519=DIRECTION('ref_axis',(-1.,0.,0.));
#1520=DIRECTION('',(-0.323615577118185,0.889126490715988,0.323615577118185));
#1521=DIRECTION('center_axis',(0.939692620785908,0.342020143325669,0.));
#1522=DIRECTION('ref_axis',(0.,0.,-1.));
#1523=DIRECTION('center_axis',(0.,0.342020143325669,0.939692620785908));
#1524=DIRECTION('ref_axis',(1.,0.,0.));
#1525=DIRECTION('',(-0.323615577118185,0.889126490715988,-0.323615577118185));
#1526=DIRECTION('',(0.323615577118185,0.889126490715988,-0.323615577118185));
#1527=DIRECTION('center_axis',(-0.939692620785908,0.342020143325669,0.));
#1528=DIRECTION('ref_axis',(0.,0.,1.));
#1529=DIRECTION('',(0.323615577118185,0.889126490715988,0.323615577118185));
#1530=DIRECTION('center_axis',(0.,0.342020143325669,-0.939692620785908));
#1531=DIRECTION('ref_axis',(-1.,0.,0.));
#1532=DIRECTION('',(-0.323615577118185,0.889126490715988,0.323615577118185));
#1533=DIRECTION('center_axis',(0.939692620785908,0.342020143325669,0.));
#1534=DIRECTION('ref_axis',(0.,0.,-1.));
#1535=DIRECTION('center_axis',(0.,0.342020143325669,0.939692620785908));
#1536=DIRECTION('ref_axis',(1.,0.,0.));
#1537=DIRECTION('',(-0.323615577118185,0.889126490715988,-0.323615577118185));
#1538=DIRECTION('',(0.323615577118185,0.889126490715988,-0.323615577118185));
#1539=DIRECTION('center_axis',(-0.939692620785908,0.342020143325669,0.));
#1540=DIRECTION('ref_axis',(0.,0.,1.));
#1541=DIRECTION('',(0.323615577118185,0.889126490715988,0.323615577118185));
#1542=DIRECTION('center_axis',(0.,0.342020143325669,-0.939692620785908));
#1543=DIRECTION('ref_axis',(-1.,0.,0.));
#1544=DIRECTION('',(-0.323615577118185,0.889126490715988,0.323615577118185));
#1545=DIRECTION('center_axis',(0.939692620785908,0.342020143325669,0.));
#1546=DIRECTION('ref_axis',(0.,0.,-1.));
#1547=DIRECTION('center_axis',(0.,0.342020143325669,0.939692620785908));
#1548=DIRECTION('ref_axis',(1.,0.,0.));
#1549=DIRECTION('',(-0.323615577118185,0.889126490715988,-0.323615577118185));
#1550=DIRECTION('',(0.323615577118185,0.889126490715988,-0.323615577118185));
#1551=DIRECTION('center_axis',(-0.939692620785908,0.342020143325669,0.));
#1552=DIRECTION('ref_axis',(0.,0.,1.));
#1553=DIRECTION('',(0.323615577118185,0.889126490715988,0.323615577118185));
#1554=DIRECTION('center_axis',(0.,0.342020143325669,-0.939692620785908));
#1555=DIRECTION('ref_axis',(-1.,0.,0.));
#1556=DIRECTION('',(-0.323615577118185,0.889126490715988,0.323615577118185));
#1557=DIRECTION('center_axis',(0.939692620785908,0.342020143325669,0.));
#1558=DIRECTION('ref_axis',(0.,0.,-1.));
#1559=DIRECTION('center_axis',(0.,0.342020143325669,0.939692620785908));
#1560=DIRECTION('ref_axis',(1.,0.,0.));
#1561=DIRECTION('',(-0.323615577118185,0.889126490715988,-0.323615577118185));
#1562=DIRECTION('',(0.323615577118185,0.889126490715988,-0.323615577118185));
#1563=DIRECTION('center_axis',(-0.939692620785908,0.342020143325669,0.));
#1564=DIRECTION('ref_axis',(0.,0.,1.));
#1565=DIRECTION('',(0.323615577118185,0.889126490715988,0.323615577118185));
#1566=DIRECTION('center_axis',(0.,0.342020143325669,-0.939692620785908));
#1567=DIRECTION('ref_axis',(-1.,0.,0.));
#1568=DIRECTION('',(-0.323615577118185,0.889126490715988,0.323615577118185));
#1569=DIRECTION('center_axis',(0.939692620785908,0.342020143325669,0.));
#1570=DIRECTION('ref_axis',(0.,0.,-1.));
#1571=DIRECTION('center_axis',(0.,0.342020143325669,0.939692620785908));
#1572=DIRECTION('ref_axis',(1.,0.,0.));
#1573=DIRECTION('',(-0.323615577118185,0.889126490715988,-0.323615577118185));
#1574=DIRECTION('',(0.323615577118185,0.889126490715988,-0.323615577118185));
#1575=DIRECTION('center_axis',(-0.939692620785908,0.342020143325669,0.));
#1576=DIRECTION('ref_axis',(0.,0.,1.));
#1577=DIRECTION('',(0.323615577118185,0.889126490715988,0.323615577118185));
#1578=DIRECTION('center_axis',(0.,0.342020143325669,-0.939692620785908));
#1579=DIRECTION('ref_axis',(-1.,0.,0.));
#1580=DIRECTION('',(-0.323615577118185,0.889126490715988,0.323615577118185));
#1581=DIRECTION('center_axis',(0.939692620785908,0.342020143325669,0.));
#1582=DIRECTION('ref_axis',(0.,0.,-1.));
#1583=DIRECTION('center_axis',(0.,0.342020143325669,0.939692620785908));
#1584=DIRECTION('ref_axis',(1.,0.,0.));
#1585=DIRECTION('',(-0.323615577118185,0.889126490715988,-0.323615577118185));
#1586=DIRECTION('',(0.323615577118185,0.889126490715988,-0.323615577118185));
#1587=DIRECTION('center_axis',(-0.939692620785908,0.342020143325669,0.));
#1588=DIRECTION('ref_axis',(0.,0.,1.));
#1589=DIRECTION('',(0.323615577118185,0.889126490715988,0.323615577118185));
#1590=DIRECTION('center_axis',(0.,0.342020143325669,-0.939692620785908));
#1591=DIRECTION('ref_axis',(-1.,0.,0.));
#1592=DIRECTION('',(-0.323615577118185,0.889126490715988,0.323615577118185));
#1593=DIRECTION('center_axis',(0.939692620785908,0.342020143325669,0.));
#1594=DIRECTION('ref_axis',(0.,0.,-1.));
#1595=DIRECTION('center_axis',(0.939692620785908,0.342020143325669,0.));
#1596=DIRECTION('ref_axis',(0.,0.,-1.));
#1597=DIRECTION('',(-0.323615577118185,0.889126490715988,0.323615577118185));
#1598=DIRECTION('',(-0.323615577118185,0.889126490715988,-0.323615577118185));
#1599=DIRECTION('center_axis',(0.,0.342020143325669,0.939692620785908));
#1600=DIRECTION('ref_axis',(1.,0.,0.));
#1601=DIRECTION('',(0.323615577118185,0.889126490715988,-0.323615577118185));
#1602=DIRECTION('center_axis',(-0.939692620785908,0.342020143325669,0.));
#1603=DIRECTION('ref_axis',(0.,0.,1.));
#1604=DIRECTION('',(0.323615577118185,0.889126490715988,0.323615577118185));
#1605=DIRECTION('center_axis',(0.,0.342020143325669,-0.939692620785908));
#1606=DIRECTION('ref_axis',(-1.,0.,0.));
#1607=DIRECTION('center_axis',(0.,0.342020143325669,0.939692620785908));
#1608=DIRECTION('ref_axis',(1.,0.,0.));
#1609=DIRECTION('',(-0.323615577118185,0.889126490715988,-0.323615577118185));
#1610=DIRECTION('',(0.323615577118185,0.889126490715988,-0.323615577118185));
#1611=DIRECTION('center_axis',(-0.939692620785908,0.342020143325669,0.));
#1612=DIRECTION('ref_axis',(0.,0.,1.));
#1613=DIRECTION('',(0.323615577118185,0.889126490715988,0.323615577118185));
#1614=DIRECTION('center_axis',(0.,0.342020143325669,-0.939692620785908));
#1615=DIRECTION('ref_axis',(-1.,0.,0.));
#1616=DIRECTION('',(-0.323615577118185,0.889126490715988,0.323615577118185));
#1617=DIRECTION('center_axis',(0.939692620785908,0.342020143325669,0.));
#1618=DIRECTION('ref_axis',(0.,0.,-1.));
#1619=DIRECTION('center_axis',(0.,0.342020143325669,0.939692620785908));
#1620=DIRECTION('ref_axis',(1.,0.,0.));
#1621=DIRECTION('',(-0.323615577118185,0.889126490715988,-0.323615577118185));
#1622=DIRECTION('',(0.323615577118185,0.889126490715988,-0.323615577118185));
#1623=DIRECTION('center_axis',(-0.939692620785908,0.342020143325669,0.));
#1624=DIRECTION('ref_axis',(0.,0.,1.));
#1625=DIRECTION('',(0.323615577118185,0.889126490715988,0.323615577118185));
#1626=DIRECTION('center_axis',(0.,0.342020143325669,-0.939692620785908));
#1627=DIRECTION('ref_axis',(-1.,0.,0.));
#1628=DIRECTION('',(-0.323615577118185,0.889126490715988,0.323615577118185));
#1629=DIRECTION('center_axis',(0.939692620785908,0.342020143325669,0.));
#1630=DIRECTION('ref_axis',(0.,0.,-1.));
#1631=DIRECTION('center_axis',(0.,0.342020143325669,0.939692620785908));
#1632=DIRECTION('ref_axis',(1.,0.,0.));
#1633=DIRECTION('',(-0.323615577118185,0.889126490715988,-0.323615577118185));
#1634=DIRECTION('',(0.323615577118185,0.889126490715988,-0.323615577118185));
#1635=DIRECTION('center_axis',(-0.939692620785908,0.342020143325669,0.));
#1636=DIRECTION('ref_axis',(0.,0.,1.));
#1637=DIRECTION('',(0.323615577118185,0.889126490715988,0.323615577118185));
#1638=DIRECTION('center_axis',(0.,0.342020143325669,-0.939692620785908));
#1639=DIRECTION('ref_axis',(-1.,0.,0.));
#1640=DIRECTION('',(-0.323615577118185,0.889126490715988,0.323615577118185));
#1641=DIRECTION('center_axis',(0.939692620785908,0.342020143325669,0.));
#1642=DIRECTION('ref_axis',(0.,0.,-1.));
#1643=DIRECTION('center_axis',(0.,0.342020143325669,0.939692620785908));
#1644=DIRECTION('ref_axis',(1.,0.,0.));
#1645=DIRECTION('',(-0.323615577118185,0.889126490715988,-0.323615577118185));
#1646=DIRECTION('',(0.323615577118185,0.889126490715988,-0.323615577118185));
#1647=DIRECTION('center_axis',(-0.939692620785908,0.342020143325669,0.));
#1648=DIRECTION('ref_axis',(0.,0.,1.));
#1649=DIRECTION('',(0.323615577118185,0.889126490715988,0.323615577118185));
#1650=DIRECTION('center_axis',(0.,0.342020143325669,-0.939692620785908));
#1651=DIRECTION('ref_axis',(-1.,0.,0.));
#1652=DIRECTION('',(-0.323615577118185,0.889126490715988,0.323615577118185));
#1653=DIRECTION('center_axis',(0.939692620785908,0.342020143325669,0.));
#1654=DIRECTION('ref_axis',(0.,0.,-1.));
#1655=DIRECTION('center_axis',(-1.,0.,-3.08148791101958E-33));
#1656=DIRECTION('ref_axis',(0.,0.948683298050514,0.316227766016838));
#1657=DIRECTION('center_axis',(1.,0.,0.));
#1658=DIRECTION('ref_axis',(0.,0.948683298050514,0.316227766016838));
#1659=DIRECTION('',(1.,0.,3.08148791101958E-33));
#1660=DIRECTION('',(-1.,0.,-3.08148791101958E-33));
#1661=DIRECTION('center_axis',(-1.84889274661175E-33,0.8,0.6));
#1662=DIRECTION('ref_axis',(1.,0.,3.08148791101958E-33));
#1663=DIRECTION('',(0.,-0.6,0.8));
#1664=DIRECTION('',(-1.,0.,-3.08148791101958E-33));
#1665=DIRECTION('center_axis',(-1.,0.,0.));
#1666=DIRECTION('ref_axis',(0.,0.,1.));
#1667=DIRECTION('center_axis',(1.,0.,0.));
#1668=DIRECTION('ref_axis',(0.,0.447213595499958,0.894427190999916));
#1669=DIRECTION('',(0.,0.,1.));
#1670=DIRECTION('center_axis',(1.,0.,3.08148791101958E-33));
#1671=DIRECTION('ref_axis',(0.,0.447213595499958,0.894427190999916));
#1672=DIRECTION('center_axis',(0.,1.,0.));
#1673=DIRECTION('ref_axis',(0.,0.,1.));
#1674=CARTESIAN_POINT('',(0.,0.,0.));
#1675=CARTESIAN_POINT('Origin',(2.5,5.,-6.4));
#1676=CARTESIAN_POINT('',(0.,6.,-6.4));
#1677=CARTESIAN_POINT('',(0.,1.11022302462516E-15,-6.4));
#1678=CARTESIAN_POINT('',(0.,2.5,-6.4));
#1679=CARTESIAN_POINT('',(5.,6.,-6.4));
#1680=CARTESIAN_POINT('',(1.25,6.,-6.4));
#1681=CARTESIAN_POINT('',(5.,1.11022302462516E-15,-6.4));
#1682=CARTESIAN_POINT('',(5.,2.5,-6.4));
#1683=CARTESIAN_POINT('',(2.5,0.,-6.4));
#1684=CARTESIAN_POINT('Origin',(2.5,0.,-2.5));
#1685=CARTESIAN_POINT('',(5.,1.11022302462516E-15,1.));
#1686=CARTESIAN_POINT('',(5.,1.11022302462516E-15,0.));
#1687=CARTESIAN_POINT('',(0.,1.11022302462516E-15,1.));
#1688=CARTESIAN_POINT('',(5.,1.11022302462516E-15,1.));
#1689=CARTESIAN_POINT('',(0.,0.,-5.));
#1690=CARTESIAN_POINT('',(0.6,0.,-3.6));
#1691=CARTESIAN_POINT('',(1.4,0.,-3.6));
#1692=CARTESIAN_POINT('',(1.95,3.46944695195361E-17,-3.6));
#1693=CARTESIAN_POINT('',(1.4,0.,-4.4));
#1694=CARTESIAN_POINT('',(1.4,0.,-3.45));
#1695=CARTESIAN_POINT('',(0.6,0.,-4.4));
#1696=CARTESIAN_POINT('',(1.55,0.,-4.4));
#1697=CARTESIAN_POINT('',(0.6,-3.46944695195361E-17,-3.05));
#1698=CARTESIAN_POINT('',(3.6,0.,-2.6));
#1699=CARTESIAN_POINT('',(4.4,0.,-2.6));
#1700=CARTESIAN_POINT('',(3.45,2.16840434497101E-18,-2.6));
#1701=CARTESIAN_POINT('',(4.4,0.,-3.4));
#1702=CARTESIAN_POINT('',(4.4,0.,-2.95));
#1703=CARTESIAN_POINT('',(3.6,0.,-3.4));
#1704=CARTESIAN_POINT('',(3.05,0.,-3.4));
#1705=CARTESIAN_POINT('',(3.6,3.46944695195361E-17,-2.55));
#1706=CARTESIAN_POINT('',(0.6,0.,-1.6));
#1707=CARTESIAN_POINT('',(1.4,0.,-1.6));
#1708=CARTESIAN_POINT('',(1.95,-1.73472347597681E-17,-1.6));
#1709=CARTESIAN_POINT('',(1.4,0.,-2.4));
#1710=CARTESIAN_POINT('',(1.4,0.,-2.45));
#1711=CARTESIAN_POINT('',(0.6,0.,-2.4));
#1712=CARTESIAN_POINT('',(1.55,2.16840434497101E-18,-2.4));
#1713=CARTESIAN_POINT('',(0.6,-3.46944695195361E-17,-2.05));
#1714=CARTESIAN_POINT('',(3.6,0.,-0.6));
#1715=CARTESIAN_POINT('',(4.4,0.,-0.6));
#1716=CARTESIAN_POINT('',(3.45,-3.46944695195361E-17,-0.6));
#1717=CARTESIAN_POINT('',(4.4,0.,-1.4));
#1718=CARTESIAN_POINT('',(4.4,0.,-1.95));
#1719=CARTESIAN_POINT('',(3.6,0.,-1.4));
#1720=CARTESIAN_POINT('',(3.05,0.,-1.4));
#1721=CARTESIAN_POINT('',(3.6,3.46944695195361E-17,-1.55));
#1722=CARTESIAN_POINT('',(1.4,0.,-0.6));
#1723=CARTESIAN_POINT('',(1.4,0.,-1.4));
#1724=CARTESIAN_POINT('',(1.4,0.,-1.95));
#1725=CARTESIAN_POINT('',(0.6,0.,-1.4));
#1726=CARTESIAN_POINT('',(1.55,0.,-1.4));
#1727=CARTESIAN_POINT('',(0.6,0.,-0.6));
#1728=CARTESIAN_POINT('',(0.6,-3.46944695195361E-17,-1.55));
#1729=CARTESIAN_POINT('',(1.95,-3.46944695195361E-17,-0.6));
#1730=CARTESIAN_POINT('',(3.6,0.,-1.6));
#1731=CARTESIAN_POINT('',(4.4,0.,-1.6));
#1732=CARTESIAN_POINT('',(3.45,-1.73472347597681E-17,-1.6));
#1733=CARTESIAN_POINT('',(4.4,0.,-2.4));
#1734=CARTESIAN_POINT('',(4.4,-3.46944695195361E-17,-2.45));
#1735=CARTESIAN_POINT('',(3.6,0.,-2.4));
#1736=CARTESIAN_POINT('',(3.05,2.16840434497101E-18,-2.4));
#1737=CARTESIAN_POINT('',(3.6,3.46944695195361E-17,-2.05));
#1738=CARTESIAN_POINT('',(0.6,0.,-2.6));
#1739=CARTESIAN_POINT('',(1.4,0.,-2.6));
#1740=CARTESIAN_POINT('',(1.95,2.16840434497101E-18,-2.6));
#1741=CARTESIAN_POINT('',(1.4,0.,-3.4));
#1742=CARTESIAN_POINT('',(1.4,0.,-2.95));
#1743=CARTESIAN_POINT('',(0.6,0.,-3.4));
#1744=CARTESIAN_POINT('',(1.55,0.,-3.4));
#1745=CARTESIAN_POINT('',(0.6,-3.46944695195361E-17,-2.55));
#1746=CARTESIAN_POINT('',(3.6,0.,-3.6));
#1747=CARTESIAN_POINT('',(4.4,0.,-3.6));
#1748=CARTESIAN_POINT('',(3.45,3.46944695195361E-17,-3.6));
#1749=CARTESIAN_POINT('',(4.4,0.,-4.4));
#1750=CARTESIAN_POINT('',(4.4,0.,-3.45));
#1751=CARTESIAN_POINT('',(3.6,0.,-4.4));
#1752=CARTESIAN_POINT('',(3.05,0.,-4.4));
#1753=CARTESIAN_POINT('',(3.6,3.46944695195361E-17,-3.05));
#1754=CARTESIAN_POINT('',(1.6,0.,-3.6));
#1755=CARTESIAN_POINT('',(2.4,0.,-3.6));
#1756=CARTESIAN_POINT('',(2.45,3.46944695195361E-17,-3.6));
#1757=CARTESIAN_POINT('',(2.4,0.,-4.4));
#1758=CARTESIAN_POINT('',(2.4,2.16840434497101E-18,-3.45));
#1759=CARTESIAN_POINT('',(1.6,0.,-4.4));
#1760=CARTESIAN_POINT('',(2.05,0.,-4.4));
#1761=CARTESIAN_POINT('',(1.6,-1.73472347597681E-17,-3.05));
#1762=CARTESIAN_POINT('',(2.6,0.,-2.6));
#1763=CARTESIAN_POINT('',(3.4,0.,-2.6));
#1764=CARTESIAN_POINT('',(2.95,2.16840434497101E-18,-2.6));
#1765=CARTESIAN_POINT('',(3.4,0.,-3.4));
#1766=CARTESIAN_POINT('',(3.4,-1.73472347597681E-17,-2.95));
#1767=CARTESIAN_POINT('',(2.6,0.,-3.4));
#1768=CARTESIAN_POINT('',(2.55,0.,-3.4));
#1769=CARTESIAN_POINT('',(2.6,2.16840434497101E-18,-2.55));
#1770=CARTESIAN_POINT('',(1.6,0.,-1.6));
#1771=CARTESIAN_POINT('',(2.4,0.,-1.6));
#1772=CARTESIAN_POINT('',(2.45,-1.73472347597681E-17,-1.6));
#1773=CARTESIAN_POINT('',(2.4,0.,-2.4));
#1774=CARTESIAN_POINT('',(2.4,2.16840434497101E-18,-2.45));
#1775=CARTESIAN_POINT('',(1.6,0.,-2.4));
#1776=CARTESIAN_POINT('',(2.05,2.16840434497101E-18,-2.4));
#1777=CARTESIAN_POINT('',(1.6,-1.73472347597681E-17,-2.05));
#1778=CARTESIAN_POINT('',(2.6,0.,-0.6));
#1779=CARTESIAN_POINT('',(3.4,0.,-0.6));
#1780=CARTESIAN_POINT('',(2.95,-3.46944695195361E-17,-0.6));
#1781=CARTESIAN_POINT('',(3.4,0.,-1.4));
#1782=CARTESIAN_POINT('',(3.4,0.,-1.95));
#1783=CARTESIAN_POINT('',(2.6,0.,-1.4));
#1784=CARTESIAN_POINT('',(2.55,0.,-1.4));
#1785=CARTESIAN_POINT('',(2.6,2.16840434497101E-18,-1.55));
#1786=CARTESIAN_POINT('',(1.6,0.,-0.6));
#1787=CARTESIAN_POINT('',(2.4,0.,-0.6));
#1788=CARTESIAN_POINT('',(2.45,-3.46944695195361E-17,-0.6));
#1789=CARTESIAN_POINT('',(2.4,0.,-1.4));
#1790=CARTESIAN_POINT('',(2.4,0.,-1.95));
#1791=CARTESIAN_POINT('',(1.6,0.,-1.4));
#1792=CARTESIAN_POINT('',(2.05,0.,-1.4));
#1793=CARTESIAN_POINT('',(1.6,-1.73472347597681E-17,-1.55));
#1794=CARTESIAN_POINT('',(2.6,0.,-1.6));
#1795=CARTESIAN_POINT('',(3.4,0.,-1.6));
#1796=CARTESIAN_POINT('',(2.95,-1.73472347597681E-17,-1.6));
#1797=CARTESIAN_POINT('',(3.4,0.,-2.4));
#1798=CARTESIAN_POINT('',(3.4,-1.73472347597681E-17,-2.45));
#1799=CARTESIAN_POINT('',(2.6,0.,-2.4));
#1800=CARTESIAN_POINT('',(2.55,2.16840434497101E-18,-2.4));
#1801=CARTESIAN_POINT('',(2.6,2.16840434497101E-18,-2.05));
#1802=CARTESIAN_POINT('',(1.6,0.,-2.6));
#1803=CARTESIAN_POINT('',(2.4,0.,-2.6));
#1804=CARTESIAN_POINT('',(2.45,2.16840434497101E-18,-2.6));
#1805=CARTESIAN_POINT('',(2.4,0.,-3.4));
#1806=CARTESIAN_POINT('',(2.4,0.,-2.95));
#1807=CARTESIAN_POINT('',(1.6,0.,-3.4));
#1808=CARTESIAN_POINT('',(2.05,0.,-3.4));
#1809=CARTESIAN_POINT('',(1.6,-1.73472347597681E-17,-2.55));
#1810=CARTESIAN_POINT('',(2.6,0.,-3.6));
#1811=CARTESIAN_POINT('',(3.4,0.,-3.6));
#1812=CARTESIAN_POINT('',(2.95,3.46944695195361E-17,-3.6));
#1813=CARTESIAN_POINT('',(3.4,0.,-4.4));
#1814=CARTESIAN_POINT('',(3.4,0.,-3.45));
#1815=CARTESIAN_POINT('',(2.6,0.,-4.4));
#1816=CARTESIAN_POINT('',(2.55,0.,-4.4));
#1817=CARTESIAN_POINT('',(2.6,2.16840434497101E-18,-3.05));
#1818=CARTESIAN_POINT('Origin',(5.,0.,1.54074395550979E-32));
#1819=CARTESIAN_POINT('',(5.,6.,-5.));
#1820=CARTESIAN_POINT('',(5.,6.,0.));
#1821=CARTESIAN_POINT('',(5.,12.,-5.));
#1822=CARTESIAN_POINT('',(5.,0.,-5.));
#1823=CARTESIAN_POINT('',(5.,12.,-4.66666666666667));
#1824=CARTESIAN_POINT('',(5.,12.,1.54074395550979E-32));
#1825=CARTESIAN_POINT('',(5.,11.6,-3.46666666666667));
#1826=CARTESIAN_POINT('Origin',(5.,10.,-4.66666666666667));
#1827=CARTESIAN_POINT('',(5.,9.6,-0.799999999999999));
#1828=CARTESIAN_POINT('',(5.,8.13,1.16));
#1829=CARTESIAN_POINT('',(5.,8.,1.54074395550979E-32));
#1830=CARTESIAN_POINT('Origin',(5.,8.,-2.));
#1831=CARTESIAN_POINT('',(5.,6.,1.54074395550979E-32));
#1832=CARTESIAN_POINT('',(5.,0.,1.54074395550979E-32));
#1833=CARTESIAN_POINT('',(5.,6.,1.));
#1834=CARTESIAN_POINT('',(5.,6.,0.));
#1835=CARTESIAN_POINT('',(5.,4.,1.));
#1836=CARTESIAN_POINT('Origin',(0.,6.,0.));
#1837=CARTESIAN_POINT('',(0.,6.,-5.));
#1838=CARTESIAN_POINT('',(0.,6.,0.));
#1839=CARTESIAN_POINT('',(2.5,6.,-5.));
#1840=CARTESIAN_POINT('Origin',(0.,6.,0.));
#1841=CARTESIAN_POINT('',(0.,6.,0.));
#1842=CARTESIAN_POINT('',(0.,6.,0.));
#1843=CARTESIAN_POINT('',(0.,6.,1.));
#1844=CARTESIAN_POINT('',(0.,6.,0.));
#1845=CARTESIAN_POINT('',(0.,6.,1.));
#1846=CARTESIAN_POINT('Origin',(2.5,5.,1.));
#1847=CARTESIAN_POINT('',(0.,4.,1.));
#1848=CARTESIAN_POINT('Origin',(0.,0.,0.));
#1849=CARTESIAN_POINT('',(0.,8.,0.));
#1850=CARTESIAN_POINT('',(0.625,8.,0.));
#1851=CARTESIAN_POINT('',(0.,0.,0.));
#1852=CARTESIAN_POINT('Origin',(5.,0.,-5.));
#1853=CARTESIAN_POINT('',(0.,12.,-5.));
#1854=CARTESIAN_POINT('',(0.,0.,-5.));
#1855=CARTESIAN_POINT('',(5.,12.,-5.));
#1856=CARTESIAN_POINT('Origin',(3.4,0.,-3.6));
#1857=CARTESIAN_POINT('',(3.,1.09899096778185,-4.));
#1858=CARTESIAN_POINT('',(3.35810918329859,0.115094072969648,-3.64189081670142));
#1859=CARTESIAN_POINT('',(2.64189081670142,0.115094072969648,-3.64189081670142));
#1860=CARTESIAN_POINT('Origin',(2.6,0.,-3.6));
#1861=CARTESIAN_POINT('',(2.64189081670142,0.115094072969648,-4.35810918329859));
#1862=CARTESIAN_POINT('Origin',(2.6,0.,-4.4));
#1863=CARTESIAN_POINT('',(3.35810918329859,0.115094072969648,-4.35810918329859));
#1864=CARTESIAN_POINT('Origin',(3.4,0.,-4.4));
#1865=CARTESIAN_POINT('Origin',(2.4,0.,-2.6));
#1866=CARTESIAN_POINT('',(2.,1.09899096778185,-3.));
#1867=CARTESIAN_POINT('',(2.35810918329859,0.115094072969648,-2.64189081670142));
#1868=CARTESIAN_POINT('',(1.64189081670141,0.115094072969648,-2.64189081670142));
#1869=CARTESIAN_POINT('Origin',(1.6,0.,-2.6));
#1870=CARTESIAN_POINT('',(1.64189081670141,0.115094072969648,-3.35810918329859));
#1871=CARTESIAN_POINT('Origin',(1.6,0.,-3.4));
#1872=CARTESIAN_POINT('',(2.35810918329859,0.115094072969648,-3.35810918329859));
#1873=CARTESIAN_POINT('Origin',(2.4,0.,-3.4));
#1874=CARTESIAN_POINT('Origin',(3.4,0.,-1.6));
#1875=CARTESIAN_POINT('',(3.,1.09899096778185,-2.));
#1876=CARTESIAN_POINT('',(3.35810918329859,0.115094072969648,-1.64189081670141));
#1877=CARTESIAN_POINT('',(2.64189081670142,0.115094072969648,-1.64189081670141));
#1878=CARTESIAN_POINT('Origin',(2.6,0.,-1.6));
#1879=CARTESIAN_POINT('',(2.64189081670142,0.115094072969648,-2.35810918329859));
#1880=CARTESIAN_POINT('Origin',(2.6,0.,-2.4));
#1881=CARTESIAN_POINT('',(3.35810918329859,0.115094072969648,-2.35810918329859));
#1882=CARTESIAN_POINT('Origin',(3.4,0.,-2.4));
#1883=CARTESIAN_POINT('Origin',(2.4,0.,-0.6));
#1884=CARTESIAN_POINT('',(2.,1.09899096778185,-1.));
#1885=CARTESIAN_POINT('',(2.35810918329859,0.115094072969648,-0.641890816701414));
#1886=CARTESIAN_POINT('',(1.64189081670141,0.115094072969648,-0.641890816701414));
#1887=CARTESIAN_POINT('Origin',(1.6,0.,-0.6));
#1888=CARTESIAN_POINT('',(1.64189081670141,0.115094072969648,-1.35810918329859));
#1889=CARTESIAN_POINT('Origin',(1.6,0.,-1.4));
#1890=CARTESIAN_POINT('',(2.35810918329859,0.115094072969648,-1.35810918329859));
#1891=CARTESIAN_POINT('Origin',(2.4,0.,-1.4));
#1892=CARTESIAN_POINT('Origin',(3.4,0.,-0.6));
#1893=CARTESIAN_POINT('',(3.,1.09899096778185,-1.));
#1894=CARTESIAN_POINT('',(3.35810918329859,0.115094072969648,-0.641890816701414));
#1895=CARTESIAN_POINT('',(2.64189081670142,0.115094072969648,-0.641890816701414));
#1896=CARTESIAN_POINT('Origin',(2.6,0.,-0.6));
#1897=CARTESIAN_POINT('',(2.64189081670142,0.115094072969648,-1.35810918329859));
#1898=CARTESIAN_POINT('Origin',(2.6,0.,-1.4));
#1899=CARTESIAN_POINT('',(3.35810918329859,0.115094072969648,-1.35810918329859));
#1900=CARTESIAN_POINT('Origin',(3.4,0.,-1.4));
#1901=CARTESIAN_POINT('Origin',(2.4,0.,-1.6));
#1902=CARTESIAN_POINT('',(2.,1.09899096778185,-2.));
#1903=CARTESIAN_POINT('',(2.35810918329859,0.115094072969648,-1.64189081670141));
#1904=CARTESIAN_POINT('',(1.64189081670141,0.115094072969648,-1.64189081670141));
#1905=CARTESIAN_POINT('Origin',(1.6,0.,-1.6));
#1906=CARTESIAN_POINT('',(1.64189081670141,0.115094072969648,-2.35810918329859));
#1907=CARTESIAN_POINT('Origin',(1.6,0.,-2.4));
#1908=CARTESIAN_POINT('',(2.35810918329859,0.115094072969648,-2.35810918329859));
#1909=CARTESIAN_POINT('Origin',(2.4,0.,-2.4));
#1910=CARTESIAN_POINT('Origin',(3.4,0.,-2.6));
#1911=CARTESIAN_POINT('',(3.,1.09899096778185,-3.));
#1912=CARTESIAN_POINT('',(3.35810918329859,0.115094072969648,-2.64189081670142));
#1913=CARTESIAN_POINT('',(2.64189081670142,0.115094072969648,-2.64189081670142));
#1914=CARTESIAN_POINT('Origin',(2.6,0.,-2.6));
#1915=CARTESIAN_POINT('',(2.64189081670142,0.115094072969648,-3.35810918329859));
#1916=CARTESIAN_POINT('Origin',(2.6,0.,-3.4));
#1917=CARTESIAN_POINT('',(3.35810918329859,0.115094072969648,-3.35810918329859));
#1918=CARTESIAN_POINT('Origin',(3.4,0.,-3.4));
#1919=CARTESIAN_POINT('Origin',(2.4,0.,-3.6));
#1920=CARTESIAN_POINT('',(2.,1.09899096778185,-4.));
#1921=CARTESIAN_POINT('',(2.35810918329859,0.115094072969648,-3.64189081670142));
#1922=CARTESIAN_POINT('',(1.64189081670141,0.115094072969648,-3.64189081670142));
#1923=CARTESIAN_POINT('Origin',(1.6,0.,-3.6));
#1924=CARTESIAN_POINT('',(1.64189081670141,0.115094072969648,-4.35810918329859));
#1925=CARTESIAN_POINT('Origin',(1.6,0.,-4.4));
#1926=CARTESIAN_POINT('',(2.35810918329859,0.115094072969648,-4.35810918329859));
#1927=CARTESIAN_POINT('Origin',(2.4,0.,-4.4));
#1928=CARTESIAN_POINT('Origin',(4.4,0.,-3.6));
#1929=CARTESIAN_POINT('',(4.,1.09899096778185,-4.));
#1930=CARTESIAN_POINT('',(4.35810918329859,0.115094072969648,-3.64189081670142));
#1931=CARTESIAN_POINT('',(3.64189081670142,0.115094072969648,-3.64189081670142));
#1932=CARTESIAN_POINT('Origin',(3.6,0.,-3.6));
#1933=CARTESIAN_POINT('',(3.64189081670142,0.115094072969648,-4.35810918329859));
#1934=CARTESIAN_POINT('Origin',(3.6,0.,-4.4));
#1935=CARTESIAN_POINT('',(4.35810918329859,0.115094072969648,-4.35810918329859));
#1936=CARTESIAN_POINT('Origin',(4.4,0.,-4.4));
#1937=CARTESIAN_POINT('Origin',(1.4,0.,-2.6));
#1938=CARTESIAN_POINT('',(1.,1.09899096778185,-3.));
#1939=CARTESIAN_POINT('',(1.35810918329859,0.115094072969648,-2.64189081670142));
#1940=CARTESIAN_POINT('',(0.641890816701414,0.115094072969648,-2.64189081670142));
#1941=CARTESIAN_POINT('Origin',(0.6,0.,-2.6));
#1942=CARTESIAN_POINT('',(0.641890816701414,0.115094072969648,-3.35810918329859));
#1943=CARTESIAN_POINT('Origin',(0.6,0.,-3.4));
#1944=CARTESIAN_POINT('',(1.35810918329859,0.115094072969648,-3.35810918329859));
#1945=CARTESIAN_POINT('Origin',(1.4,0.,-3.4));
#1946=CARTESIAN_POINT('Origin',(4.4,0.,-1.6));
#1947=CARTESIAN_POINT('',(4.,1.09899096778185,-2.));
#1948=CARTESIAN_POINT('',(4.35810918329859,0.115094072969648,-1.64189081670141));
#1949=CARTESIAN_POINT('',(3.64189081670142,0.115094072969648,-1.64189081670141));
#1950=CARTESIAN_POINT('Origin',(3.6,0.,-1.6));
#1951=CARTESIAN_POINT('',(3.64189081670142,0.115094072969648,-2.35810918329859));
#1952=CARTESIAN_POINT('Origin',(3.6,0.,-2.4));
#1953=CARTESIAN_POINT('',(4.35810918329859,0.115094072969648,-2.35810918329859));
#1954=CARTESIAN_POINT('Origin',(4.4,0.,-2.4));
#1955=CARTESIAN_POINT('Origin',(1.4,0.,-1.4));
#1956=CARTESIAN_POINT('',(1.,1.09899096778185,-1.));
#1957=CARTESIAN_POINT('',(1.35810918329859,0.115094072969648,-1.35810918329859));
#1958=CARTESIAN_POINT('',(1.35810918329859,0.115094072969648,-0.641890816701414));
#1959=CARTESIAN_POINT('Origin',(1.4,0.,-0.6));
#1960=CARTESIAN_POINT('',(0.641890816701414,0.115094072969648,-0.641890816701414));
#1961=CARTESIAN_POINT('Origin',(0.6,0.,-0.6));
#1962=CARTESIAN_POINT('',(0.641890816701414,0.115094072969648,-1.35810918329859));
#1963=CARTESIAN_POINT('Origin',(0.6,0.,-1.4));
#1964=CARTESIAN_POINT('Origin',(4.4,0.,-0.6));
#1965=CARTESIAN_POINT('',(4.,1.09899096778185,-1.));
#1966=CARTESIAN_POINT('',(4.35810918329859,0.115094072969648,-0.641890816701414));
#1967=CARTESIAN_POINT('',(3.64189081670142,0.115094072969648,-0.641890816701414));
#1968=CARTESIAN_POINT('Origin',(3.6,0.,-0.6));
#1969=CARTESIAN_POINT('',(3.64189081670142,0.115094072969648,-1.35810918329859));
#1970=CARTESIAN_POINT('Origin',(3.6,0.,-1.4));
#1971=CARTESIAN_POINT('',(4.35810918329859,0.115094072969648,-1.35810918329859));
#1972=CARTESIAN_POINT('Origin',(4.4,0.,-1.4));
#1973=CARTESIAN_POINT('Origin',(1.4,0.,-1.6));
#1974=CARTESIAN_POINT('',(1.,1.09899096778185,-2.));
#1975=CARTESIAN_POINT('',(1.35810918329859,0.115094072969648,-1.64189081670141));
#1976=CARTESIAN_POINT('',(0.641890816701414,0.115094072969648,-1.64189081670141));
#1977=CARTESIAN_POINT('Origin',(0.6,0.,-1.6));
#1978=CARTESIAN_POINT('',(0.641890816701414,0.115094072969648,-2.35810918329859));
#1979=CARTESIAN_POINT('Origin',(0.6,0.,-2.4));
#1980=CARTESIAN_POINT('',(1.35810918329859,0.115094072969648,-2.35810918329859));
#1981=CARTESIAN_POINT('Origin',(1.4,0.,-2.4));
#1982=CARTESIAN_POINT('Origin',(4.4,0.,-2.6));
#1983=CARTESIAN_POINT('',(4.,1.09899096778185,-3.));
#1984=CARTESIAN_POINT('',(4.35810918329859,0.115094072969648,-2.64189081670142));
#1985=CARTESIAN_POINT('',(3.64189081670142,0.115094072969648,-2.64189081670142));
#1986=CARTESIAN_POINT('Origin',(3.6,0.,-2.6));
#1987=CARTESIAN_POINT('',(3.64189081670142,0.115094072969648,-3.35810918329859));
#1988=CARTESIAN_POINT('Origin',(3.6,0.,-3.4));
#1989=CARTESIAN_POINT('',(4.35810918329859,0.115094072969648,-3.35810918329859));
#1990=CARTESIAN_POINT('Origin',(4.4,0.,-3.4));
#1991=CARTESIAN_POINT('Origin',(1.4,0.,-3.6));
#1992=CARTESIAN_POINT('',(1.,1.09899096778185,-4.));
#1993=CARTESIAN_POINT('',(1.35810918329859,0.115094072969648,-3.64189081670142));
#1994=CARTESIAN_POINT('',(0.641890816701414,0.115094072969648,-3.64189081670142));
#1995=CARTESIAN_POINT('Origin',(0.6,0.,-3.6));
#1996=CARTESIAN_POINT('',(0.641890816701414,0.115094072969648,-4.35810918329859));
#1997=CARTESIAN_POINT('Origin',(0.6,0.,-4.4));
#1998=CARTESIAN_POINT('',(1.35810918329859,0.115094072969648,-4.35810918329859));
#1999=CARTESIAN_POINT('Origin',(1.4,0.,-4.4));
#2000=CARTESIAN_POINT('Origin',(1.875,10.,-4.66666666666667));
#2001=CARTESIAN_POINT('',(0.,12.,-4.66666666666667));
#2002=CARTESIAN_POINT('',(0.,11.6,-3.46666666666667));
#2003=CARTESIAN_POINT('Origin',(0.,10.,-4.66666666666667));
#2004=CARTESIAN_POINT('',(1.875,11.6,-3.46666666666667));
#2005=CARTESIAN_POINT('',(1.875,12.,-4.66666666666667));
#2006=CARTESIAN_POINT('Origin',(1.25,10.5,-2.));
#2007=CARTESIAN_POINT('',(0.,9.6,-0.8));
#2008=CARTESIAN_POINT('',(0.,9.33,-0.439999999999999));
#2009=CARTESIAN_POINT('',(0.625,9.6,-0.8));
#2010=CARTESIAN_POINT('Origin',(0.,0.,-5.));
#2011=CARTESIAN_POINT('Origin',(0.,8.,-2.));
#2012=CARTESIAN_POINT('',(0.,12.,-5.));
#2013=CARTESIAN_POINT('Origin',(0.625,8.,-2.));
#2014=CARTESIAN_POINT('Origin',(2.5,12.,-2.5));
#2015=UNCERTAINTY_MEASURE_WITH_UNIT(LENGTH_MEASURE(0.01),#2019,
'DISTANCE_ACCURACY_VALUE',
'Maximum model space distance between geometric entities at asserted c
onnectivities');
#2016=UNCERTAINTY_MEASURE_WITH_UNIT(LENGTH_MEASURE(0.01),#2019,
'DISTANCE_ACCURACY_VALUE',
'Maximum model space distance between geometric entities at asserted c
onnectivities');
#2017=(
GEOMETRIC_REPRESENTATION_CONTEXT(3)
GLOBAL_UNCERTAINTY_ASSIGNED_CONTEXT((#2015))
GLOBAL_UNIT_ASSIGNED_CONTEXT((#2019,#2021,#2022))
REPRESENTATION_CONTEXT('','3D')
);
#2018=(
GEOMETRIC_REPRESENTATION_CONTEXT(3)
GLOBAL_UNCERTAINTY_ASSIGNED_CONTEXT((#2016))
GLOBAL_UNIT_ASSIGNED_CONTEXT((#2019,#2021,#2022))
REPRESENTATION_CONTEXT('','3D')
);
#2019=(
LENGTH_UNIT()
NAMED_UNIT(*)
SI_UNIT(.MILLI.,.METRE.)
);
#2020=(
LENGTH_UNIT()
NAMED_UNIT(*)
SI_UNIT($,.METRE.)
);
#2021=(
NAMED_UNIT(*)
PLANE_ANGLE_UNIT()
SI_UNIT($,.RADIAN.)
);
#2022=(
NAMED_UNIT(*)
SI_UNIT($,.STERADIAN.)
SOLID_ANGLE_UNIT()
);
#2023=SHAPE_DEFINITION_REPRESENTATION(#2024,#2025);
#2024=PRODUCT_DEFINITION_SHAPE('',$,#2027);
#2025=SHAPE_REPRESENTATION('',(#1271),#2017);
#2026=PRODUCT_DEFINITION_CONTEXT('part definition',#2031,'design');
#2027=PRODUCT_DEFINITION('LED_Lense','LED_Lense',#2028,#2026);
#2028=PRODUCT_DEFINITION_FORMATION('',$,#2033);
#2029=PRODUCT_RELATED_PRODUCT_CATEGORY('LED_Lense','LED_Lense',(#2033));
#2030=APPLICATION_PROTOCOL_DEFINITION('international standard',
'automotive_design',2009,#2031);
#2031=APPLICATION_CONTEXT(
'Core Data for Automotive Mechanical Design Process');
#2032=PRODUCT_CONTEXT('part definition',#2031,'mechanical');
#2033=PRODUCT('LED_Lense','LED_Lense',$,(#2032));
#2034=PRESENTATION_STYLE_ASSIGNMENT((#2036));
#2035=PRESENTATION_STYLE_ASSIGNMENT((#2037));
#2036=SURFACE_STYLE_USAGE(.BOTH.,#2038);
#2037=SURFACE_STYLE_USAGE(.BOTH.,#2039);
#2038=SURFACE_SIDE_STYLE('',(#2040));
#2039=SURFACE_SIDE_STYLE('',(#2041));
#2040=SURFACE_STYLE_FILL_AREA(#2042);
#2041=SURFACE_STYLE_FILL_AREA(#2043);
#2042=FILL_AREA_STYLE('Glass - Light Color (Blue)',(#2044));
#2043=FILL_AREA_STYLE('Polymide (Kapton)',(#2045));
#2044=FILL_AREA_STYLE_COLOUR('Glass - Light Color (Blue)',#2046);
#2045=FILL_AREA_STYLE_COLOUR('Polymide (Kapton)',#2047);
#2046=COLOUR_RGB('Glass - Light Color (Blue)',0.27843137254902,1.,0.0196078431372549);
#2047=COLOUR_RGB('Polymide (Kapton)',0.270588235294118,0.756862745098039,
0.0235294117647059);
ENDSEC;
END-ISO-10303-21;
