ISO-10303-21;
HEADER;
/* Generated by software containing ST-Developer
 * from STEP Tools, Inc. (www.steptools.com) 
 */

FILE_DESCRIPTION(
/* description */ (''),
/* implementation_level */ '2;1');

FILE_NAME(
/* name */ 'LED Lid.step',
/* time_stamp */ '2025-05-01T11:12:48+01:00',
/* author */ (''),
/* organization */ (''),
/* preprocessor_version */ 'ST-DEVELOPER v20.1',
/* originating_system */ 'Autodesk Translation Framework v14.4.0.0',
/* authorisation */ '');

FILE_SCHEMA (('AUTOMOTIVE_DESIGN { 1 0 10303 214 3 1 1 }'));
ENDSEC;

DATA;
#10=MECHANICAL_DESIGN_GEOMETRIC_PRESENTATION_REPRESENTATION('',(#13),#1495);
#11=SHAPE_REPRESENTATION_RELATIONSHIP('SRR','None',#1502,#12);
#12=ADVANCED_BREP_SHAPE_REPRESENTATION('',(#14),#1494);
#13=STYLED_ITEM('',(#1511),#14);
#14=MANIFOLD_SOLID_BREP('LED Lid',#895);
#15=FACE_BOUND('',#106,.T.);
#16=FACE_BOUND('',#107,.T.);
#17=FACE_BOUND('',#108,.T.);
#18=FACE_BOUND('',#109,.T.);
#19=FACE_BOUND('',#110,.T.);
#20=FACE_BOUND('',#111,.T.);
#21=FACE_BOUND('',#149,.T.);
#22=FACE_BOUND('',#150,.T.);
#23=FACE_BOUND('',#151,.T.);
#24=FACE_BOUND('',#152,.T.);
#25=FACE_BOUND('',#153,.T.);
#26=FACE_BOUND('',#154,.T.);
#27=PLANE('',#912);
#28=PLANE('',#913);
#29=PLANE('',#919);
#30=PLANE('',#920);
#31=PLANE('',#921);
#32=PLANE('',#938);
#33=PLANE('',#941);
#34=PLANE('',#954);
#35=PLANE('',#955);
#36=PLANE('',#956);
#37=PLANE('',#959);
#38=PLANE('',#960);
#39=PLANE('',#961);
#40=PLANE('',#964);
#41=PLANE('',#965);
#42=PLANE('',#966);
#43=PLANE('',#969);
#44=PLANE('',#970);
#45=PLANE('',#971);
#46=PLANE('',#974);
#47=PLANE('',#975);
#48=PLANE('',#976);
#49=PLANE('',#979);
#50=PLANE('',#980);
#51=PLANE('',#981);
#52=PLANE('',#984);
#53=PLANE('',#985);
#54=PLANE('',#986);
#55=FACE_OUTER_BOUND('',#99,.T.);
#56=FACE_OUTER_BOUND('',#100,.T.);
#57=FACE_OUTER_BOUND('',#101,.T.);
#58=FACE_OUTER_BOUND('',#102,.T.);
#59=FACE_OUTER_BOUND('',#103,.T.);
#60=FACE_OUTER_BOUND('',#104,.T.);
#61=FACE_OUTER_BOUND('',#105,.T.);
#62=FACE_OUTER_BOUND('',#112,.T.);
#63=FACE_OUTER_BOUND('',#113,.T.);
#64=FACE_OUTER_BOUND('',#114,.T.);
#65=FACE_OUTER_BOUND('',#115,.T.);
#66=FACE_OUTER_BOUND('',#116,.T.);
#67=FACE_OUTER_BOUND('',#117,.T.);
#68=FACE_OUTER_BOUND('',#118,.T.);
#69=FACE_OUTER_BOUND('',#119,.T.);
#70=FACE_OUTER_BOUND('',#120,.T.);
#71=FACE_OUTER_BOUND('',#121,.T.);
#72=FACE_OUTER_BOUND('',#122,.T.);
#73=FACE_OUTER_BOUND('',#123,.T.);
#74=FACE_OUTER_BOUND('',#124,.T.);
#75=FACE_OUTER_BOUND('',#125,.T.);
#76=FACE_OUTER_BOUND('',#126,.T.);
#77=FACE_OUTER_BOUND('',#127,.T.);
#78=FACE_OUTER_BOUND('',#128,.T.);
#79=FACE_OUTER_BOUND('',#129,.T.);
#80=FACE_OUTER_BOUND('',#130,.T.);
#81=FACE_OUTER_BOUND('',#131,.T.);
#82=FACE_OUTER_BOUND('',#132,.T.);
#83=FACE_OUTER_BOUND('',#133,.T.);
#84=FACE_OUTER_BOUND('',#134,.T.);
#85=FACE_OUTER_BOUND('',#135,.T.);
#86=FACE_OUTER_BOUND('',#136,.T.);
#87=FACE_OUTER_BOUND('',#137,.T.);
#88=FACE_OUTER_BOUND('',#138,.T.);
#89=FACE_OUTER_BOUND('',#139,.T.);
#90=FACE_OUTER_BOUND('',#140,.T.);
#91=FACE_OUTER_BOUND('',#141,.T.);
#92=FACE_OUTER_BOUND('',#142,.T.);
#93=FACE_OUTER_BOUND('',#143,.T.);
#94=FACE_OUTER_BOUND('',#144,.T.);
#95=FACE_OUTER_BOUND('',#145,.T.);
#96=FACE_OUTER_BOUND('',#146,.T.);
#97=FACE_OUTER_BOUND('',#147,.T.);
#98=FACE_OUTER_BOUND('',#148,.T.);
#99=EDGE_LOOP('',(#583,#584,#585,#586));
#100=EDGE_LOOP('',(#587,#588,#589,#590));
#101=EDGE_LOOP('',(#591,#592,#593,#594,#595,#596,#597,#598));
#102=EDGE_LOOP('',(#599,#600,#601,#602));
#103=EDGE_LOOP('',(#603,#604,#605,#606));
#104=EDGE_LOOP('',(#607,#608,#609,#610));
#105=EDGE_LOOP('',(#611,#612,#613,#614,#615,#616,#617,#618,#619,#620,#621,
#622,#623,#624,#625,#626,#627,#628,#629,#630,#631,#632,#633,#634,#635,#636,
#637,#638,#639,#640,#641,#642,#643,#644));
#106=EDGE_LOOP('',(#645));
#107=EDGE_LOOP('',(#646));
#108=EDGE_LOOP('',(#647));
#109=EDGE_LOOP('',(#648));
#110=EDGE_LOOP('',(#649));
#111=EDGE_LOOP('',(#650));
#112=EDGE_LOOP('',(#651,#652,#653,#654,#655,#656));
#113=EDGE_LOOP('',(#657,#658,#659,#660));
#114=EDGE_LOOP('',(#661,#662,#663,#664,#665,#666));
#115=EDGE_LOOP('',(#667,#668,#669,#670));
#116=EDGE_LOOP('',(#671,#672,#673,#674));
#117=EDGE_LOOP('',(#675,#676,#677,#678));
#118=EDGE_LOOP('',(#679,#680,#681,#682));
#119=EDGE_LOOP('',(#683,#684,#685,#686));
#120=EDGE_LOOP('',(#687,#688,#689,#690));
#121=EDGE_LOOP('',(#691,#692,#693,#694));
#122=EDGE_LOOP('',(#695,#696,#697,#698));
#123=EDGE_LOOP('',(#699,#700,#701,#702));
#124=EDGE_LOOP('',(#703,#704,#705,#706));
#125=EDGE_LOOP('',(#707,#708,#709,#710));
#126=EDGE_LOOP('',(#711,#712,#713,#714));
#127=EDGE_LOOP('',(#715,#716,#717,#718));
#128=EDGE_LOOP('',(#719,#720,#721,#722));
#129=EDGE_LOOP('',(#723,#724,#725,#726));
#130=EDGE_LOOP('',(#727,#728,#729,#730));
#131=EDGE_LOOP('',(#731,#732,#733,#734));
#132=EDGE_LOOP('',(#735,#736,#737,#738));
#133=EDGE_LOOP('',(#739,#740,#741,#742));
#134=EDGE_LOOP('',(#743,#744,#745,#746));
#135=EDGE_LOOP('',(#747,#748,#749,#750));
#136=EDGE_LOOP('',(#751,#752,#753,#754));
#137=EDGE_LOOP('',(#755,#756,#757,#758));
#138=EDGE_LOOP('',(#759,#760,#761,#762));
#139=EDGE_LOOP('',(#763,#764,#765,#766));
#140=EDGE_LOOP('',(#767,#768,#769,#770));
#141=EDGE_LOOP('',(#771,#772,#773,#774));
#142=EDGE_LOOP('',(#775,#776,#777,#778));
#143=EDGE_LOOP('',(#779,#780,#781,#782));
#144=EDGE_LOOP('',(#783,#784,#785,#786));
#145=EDGE_LOOP('',(#787,#788,#789,#790));
#146=EDGE_LOOP('',(#791,#792,#793,#794));
#147=EDGE_LOOP('',(#795,#796,#797,#798));
#148=EDGE_LOOP('',(#799,#800,#801,#802,#803,#804,#805,#806,#807,#808,#809,
#810,#811,#812,#813,#814,#815,#816,#817,#818,#819,#820,#821,#822,#823,#824,
#825,#826,#827,#828));
#149=EDGE_LOOP('',(#829));
#150=EDGE_LOOP('',(#830));
#151=EDGE_LOOP('',(#831));
#152=EDGE_LOOP('',(#832));
#153=EDGE_LOOP('',(#833));
#154=EDGE_LOOP('',(#834));
#155=LINE('',#1243,#247);
#156=LINE('',#1246,#248);
#157=LINE('',#1249,#249);
#158=LINE('',#1251,#250);
#159=LINE('',#1252,#251);
#160=LINE('',#1257,#252);
#161=LINE('',#1263,#253);
#162=LINE('',#1264,#254);
#163=LINE('',#1267,#255);
#164=LINE('',#1270,#256);
#165=LINE('',#1273,#257);
#166=LINE('',#1274,#258);
#167=LINE('',#1276,#259);
#168=LINE('',#1281,#260);
#169=LINE('',#1283,#261);
#170=LINE('',#1285,#262);
#171=LINE('',#1289,#263);
#172=LINE('',#1291,#264);
#173=LINE('',#1293,#265);
#174=LINE('',#1297,#266);
#175=LINE('',#1299,#267);
#176=LINE('',#1301,#268);
#177=LINE('',#1305,#269);
#178=LINE('',#1307,#270);
#179=LINE('',#1309,#271);
#180=LINE('',#1313,#272);
#181=LINE('',#1315,#273);
#182=LINE('',#1317,#274);
#183=LINE('',#1321,#275);
#184=LINE('',#1323,#276);
#185=LINE('',#1325,#277);
#186=LINE('',#1329,#278);
#187=LINE('',#1331,#279);
#188=LINE('',#1333,#280);
#189=LINE('',#1349,#281);
#190=LINE('',#1352,#282);
#191=LINE('',#1355,#283);
#192=LINE('',#1356,#284);
#193=LINE('',#1359,#285);
#194=LINE('',#1363,#286);
#195=LINE('',#1364,#287);
#196=LINE('',#1368,#288);
#197=LINE('',#1372,#289);
#198=LINE('',#1376,#290);
#199=LINE('',#1380,#291);
#200=LINE('',#1384,#292);
#201=LINE('',#1388,#293);
#202=LINE('',#1391,#294);
#203=LINE('',#1392,#295);
#204=LINE('',#1395,#296);
#205=LINE('',#1396,#297);
#206=LINE('',#1399,#298);
#207=LINE('',#1400,#299);
#208=LINE('',#1404,#300);
#209=LINE('',#1407,#301);
#210=LINE('',#1408,#302);
#211=LINE('',#1411,#303);
#212=LINE('',#1412,#304);
#213=LINE('',#1415,#305);
#214=LINE('',#1416,#306);
#215=LINE('',#1420,#307);
#216=LINE('',#1423,#308);
#217=LINE('',#1424,#309);
#218=LINE('',#1427,#310);
#219=LINE('',#1428,#311);
#220=LINE('',#1431,#312);
#221=LINE('',#1432,#313);
#222=LINE('',#1436,#314);
#223=LINE('',#1439,#315);
#224=LINE('',#1440,#316);
#225=LINE('',#1443,#317);
#226=LINE('',#1444,#318);
#227=LINE('',#1447,#319);
#228=LINE('',#1448,#320);
#229=LINE('',#1452,#321);
#230=LINE('',#1455,#322);
#231=LINE('',#1456,#323);
#232=LINE('',#1459,#324);
#233=LINE('',#1460,#325);
#234=LINE('',#1463,#326);
#235=LINE('',#1464,#327);
#236=LINE('',#1468,#328);
#237=LINE('',#1471,#329);
#238=LINE('',#1472,#330);
#239=LINE('',#1475,#331);
#240=LINE('',#1476,#332);
#241=LINE('',#1479,#333);
#242=LINE('',#1480,#334);
#243=LINE('',#1484,#335);
#244=LINE('',#1487,#336);
#245=LINE('',#1488,#337);
#246=LINE('',#1490,#338);
#247=VECTOR('',#993,10.);
#248=VECTOR('',#996,10.);
#249=VECTOR('',#999,10.);
#250=VECTOR('',#1000,10.);
#251=VECTOR('',#1001,10.);
#252=VECTOR('',#1006,10.);
#253=VECTOR('',#1011,10.);
#254=VECTOR('',#1012,10.);
#255=VECTOR('',#1015,10.);
#256=VECTOR('',#1018,10.);
#257=VECTOR('',#1021,10.);
#258=VECTOR('',#1022,10.);
#259=VECTOR('',#1025,10.);
#260=VECTOR('',#1030,10.);
#261=VECTOR('',#1031,10.);
#262=VECTOR('',#1032,10.);
#263=VECTOR('',#1035,10.);
#264=VECTOR('',#1036,10.);
#265=VECTOR('',#1037,10.);
#266=VECTOR('',#1040,10.);
#267=VECTOR('',#1041,10.);
#268=VECTOR('',#1042,10.);
#269=VECTOR('',#1045,10.);
#270=VECTOR('',#1046,10.);
#271=VECTOR('',#1047,10.);
#272=VECTOR('',#1050,10.);
#273=VECTOR('',#1051,10.);
#274=VECTOR('',#1052,10.);
#275=VECTOR('',#1055,10.);
#276=VECTOR('',#1056,10.);
#277=VECTOR('',#1057,10.);
#278=VECTOR('',#1060,10.);
#279=VECTOR('',#1061,10.);
#280=VECTOR('',#1062,10.);
#281=VECTOR('',#1079,10.);
#282=VECTOR('',#1082,10.);
#283=VECTOR('',#1085,10.);
#284=VECTOR('',#1086,10.);
#285=VECTOR('',#1089,10.);
#286=VECTOR('',#1094,10.);
#287=VECTOR('',#1095,10.);
#288=VECTOR('',#1100,0.999999999999996);
#289=VECTOR('',#1105,0.999999999999996);
#290=VECTOR('',#1110,0.999999999999996);
#291=VECTOR('',#1115,0.999999999999996);
#292=VECTOR('',#1120,0.999999999999996);
#293=VECTOR('',#1125,0.999999999999996);
#294=VECTOR('',#1128,10.);
#295=VECTOR('',#1129,10.);
#296=VECTOR('',#1132,10.);
#297=VECTOR('',#1133,10.);
#298=VECTOR('',#1136,10.);
#299=VECTOR('',#1137,10.);
#300=VECTOR('',#1142,10.);
#301=VECTOR('',#1145,10.);
#302=VECTOR('',#1146,10.);
#303=VECTOR('',#1149,10.);
#304=VECTOR('',#1150,10.);
#305=VECTOR('',#1153,10.);
#306=VECTOR('',#1154,10.);
#307=VECTOR('',#1159,10.);
#308=VECTOR('',#1162,10.);
#309=VECTOR('',#1163,10.);
#310=VECTOR('',#1166,10.);
#311=VECTOR('',#1167,10.);
#312=VECTOR('',#1170,10.);
#313=VECTOR('',#1171,10.);
#314=VECTOR('',#1176,10.);
#315=VECTOR('',#1179,10.);
#316=VECTOR('',#1180,10.);
#317=VECTOR('',#1183,10.);
#318=VECTOR('',#1184,10.);
#319=VECTOR('',#1187,10.);
#320=VECTOR('',#1188,10.);
#321=VECTOR('',#1193,10.);
#322=VECTOR('',#1196,10.);
#323=VECTOR('',#1197,10.);
#324=VECTOR('',#1200,10.);
#325=VECTOR('',#1201,10.);
#326=VECTOR('',#1204,10.);
#327=VECTOR('',#1205,10.);
#328=VECTOR('',#1210,10.);
#329=VECTOR('',#1213,10.);
#330=VECTOR('',#1214,10.);
#331=VECTOR('',#1217,10.);
#332=VECTOR('',#1218,10.);
#333=VECTOR('',#1221,10.);
#334=VECTOR('',#1222,10.);
#335=VECTOR('',#1227,10.);
#336=VECTOR('',#1230,10.);
#337=VECTOR('',#1231,10.);
#338=VECTOR('',#1234,10.);
#339=CIRCLE('',#910,0.4);
#340=CIRCLE('',#911,0.4);
#341=CIRCLE('',#914,2.00000000000007);
#342=CIRCLE('',#915,2.00000000000001);
#343=CIRCLE('',#916,0.4);
#344=CIRCLE('',#918,0.4);
#345=CIRCLE('',#922,2.);
#346=CIRCLE('',#923,3.50000000000004);
#347=CIRCLE('',#924,3.50000000000003);
#348=CIRCLE('',#925,3.5);
#349=CIRCLE('',#926,3.5);
#350=CIRCLE('',#927,3.50000000000013);
#351=CIRCLE('',#928,3.50000000000002);
#352=CIRCLE('',#929,2.);
#353=CIRCLE('',#930,0.999999999999996);
#354=CIRCLE('',#931,0.999999999999996);
#355=CIRCLE('',#932,0.999999999999996);
#356=CIRCLE('',#933,0.999999999999996);
#357=CIRCLE('',#934,0.999999999999996);
#358=CIRCLE('',#935,0.999999999999996);
#359=CIRCLE('',#937,2.);
#360=CIRCLE('',#940,2.);
#361=CIRCLE('',#943,0.999999999999996);
#362=CIRCLE('',#945,0.999999999999996);
#363=CIRCLE('',#947,0.999999999999996);
#364=CIRCLE('',#949,0.999999999999996);
#365=CIRCLE('',#951,0.999999999999996);
#366=CIRCLE('',#953,0.999999999999996);
#367=CIRCLE('',#958,3.50000000000004);
#368=CIRCLE('',#963,3.50000000000003);
#369=CIRCLE('',#968,3.5);
#370=CIRCLE('',#973,3.5);
#371=CIRCLE('',#978,3.50000000000013);
#372=CIRCLE('',#983,3.50000000000002);
#373=VERTEX_POINT('',#1239);
#374=VERTEX_POINT('',#1240);
#375=VERTEX_POINT('',#1242);
#376=VERTEX_POINT('',#1244);
#377=VERTEX_POINT('',#1248);
#378=VERTEX_POINT('',#1250);
#379=VERTEX_POINT('',#1254);
#380=VERTEX_POINT('',#1256);
#381=VERTEX_POINT('',#1258);
#382=VERTEX_POINT('',#1260);
#383=VERTEX_POINT('',#1262);
#384=VERTEX_POINT('',#1266);
#385=VERTEX_POINT('',#1268);
#386=VERTEX_POINT('',#1272);
#387=VERTEX_POINT('',#1278);
#388=VERTEX_POINT('',#1280);
#389=VERTEX_POINT('',#1282);
#390=VERTEX_POINT('',#1284);
#391=VERTEX_POINT('',#1286);
#392=VERTEX_POINT('',#1288);
#393=VERTEX_POINT('',#1290);
#394=VERTEX_POINT('',#1292);
#395=VERTEX_POINT('',#1294);
#396=VERTEX_POINT('',#1296);
#397=VERTEX_POINT('',#1298);
#398=VERTEX_POINT('',#1300);
#399=VERTEX_POINT('',#1302);
#400=VERTEX_POINT('',#1304);
#401=VERTEX_POINT('',#1306);
#402=VERTEX_POINT('',#1308);
#403=VERTEX_POINT('',#1310);
#404=VERTEX_POINT('',#1312);
#405=VERTEX_POINT('',#1314);
#406=VERTEX_POINT('',#1316);
#407=VERTEX_POINT('',#1318);
#408=VERTEX_POINT('',#1320);
#409=VERTEX_POINT('',#1322);
#410=VERTEX_POINT('',#1324);
#411=VERTEX_POINT('',#1326);
#412=VERTEX_POINT('',#1328);
#413=VERTEX_POINT('',#1330);
#414=VERTEX_POINT('',#1332);
#415=VERTEX_POINT('',#1335);
#416=VERTEX_POINT('',#1337);
#417=VERTEX_POINT('',#1339);
#418=VERTEX_POINT('',#1341);
#419=VERTEX_POINT('',#1343);
#420=VERTEX_POINT('',#1345);
#421=VERTEX_POINT('',#1348);
#422=VERTEX_POINT('',#1350);
#423=VERTEX_POINT('',#1354);
#424=VERTEX_POINT('',#1358);
#425=VERTEX_POINT('',#1362);
#426=VERTEX_POINT('',#1366);
#427=VERTEX_POINT('',#1370);
#428=VERTEX_POINT('',#1374);
#429=VERTEX_POINT('',#1378);
#430=VERTEX_POINT('',#1382);
#431=VERTEX_POINT('',#1386);
#432=VERTEX_POINT('',#1390);
#433=VERTEX_POINT('',#1394);
#434=VERTEX_POINT('',#1398);
#435=VERTEX_POINT('',#1402);
#436=VERTEX_POINT('',#1406);
#437=VERTEX_POINT('',#1410);
#438=VERTEX_POINT('',#1414);
#439=VERTEX_POINT('',#1418);
#440=VERTEX_POINT('',#1422);
#441=VERTEX_POINT('',#1426);
#442=VERTEX_POINT('',#1430);
#443=VERTEX_POINT('',#1434);
#444=VERTEX_POINT('',#1438);
#445=VERTEX_POINT('',#1442);
#446=VERTEX_POINT('',#1446);
#447=VERTEX_POINT('',#1450);
#448=VERTEX_POINT('',#1454);
#449=VERTEX_POINT('',#1458);
#450=VERTEX_POINT('',#1462);
#451=VERTEX_POINT('',#1466);
#452=VERTEX_POINT('',#1470);
#453=VERTEX_POINT('',#1474);
#454=VERTEX_POINT('',#1478);
#455=VERTEX_POINT('',#1482);
#456=VERTEX_POINT('',#1486);
#457=EDGE_CURVE('',#373,#374,#339,.T.);
#458=EDGE_CURVE('',#374,#375,#155,.T.);
#459=EDGE_CURVE('',#375,#376,#340,.F.);
#460=EDGE_CURVE('',#376,#373,#156,.T.);
#461=EDGE_CURVE('',#377,#374,#157,.T.);
#462=EDGE_CURVE('',#378,#377,#158,.T.);
#463=EDGE_CURVE('',#375,#378,#159,.T.);
#464=EDGE_CURVE('',#373,#379,#341,.T.);
#465=EDGE_CURVE('',#379,#380,#160,.T.);
#466=EDGE_CURVE('',#380,#381,#342,.T.);
#467=EDGE_CURVE('',#382,#381,#343,.T.);
#468=EDGE_CURVE('',#382,#383,#161,.T.);
#469=EDGE_CURVE('',#383,#377,#162,.T.);
#470=EDGE_CURVE('',#381,#384,#163,.T.);
#471=EDGE_CURVE('',#384,#385,#344,.F.);
#472=EDGE_CURVE('',#385,#382,#164,.T.);
#473=EDGE_CURVE('',#386,#385,#165,.T.);
#474=EDGE_CURVE('',#386,#383,#166,.T.);
#475=EDGE_CURVE('',#378,#386,#167,.T.);
#476=EDGE_CURVE('',#387,#384,#345,.T.);
#477=EDGE_CURVE('',#388,#387,#168,.T.);
#478=EDGE_CURVE('',#389,#388,#169,.T.);
#479=EDGE_CURVE('',#390,#389,#170,.T.);
#480=EDGE_CURVE('',#391,#390,#346,.T.);
#481=EDGE_CURVE('',#392,#391,#171,.T.);
#482=EDGE_CURVE('',#393,#392,#172,.T.);
#483=EDGE_CURVE('',#394,#393,#173,.T.);
#484=EDGE_CURVE('',#395,#394,#347,.T.);
#485=EDGE_CURVE('',#396,#395,#174,.T.);
#486=EDGE_CURVE('',#397,#396,#175,.T.);
#487=EDGE_CURVE('',#398,#397,#176,.T.);
#488=EDGE_CURVE('',#399,#398,#348,.T.);
#489=EDGE_CURVE('',#400,#399,#177,.T.);
#490=EDGE_CURVE('',#401,#400,#178,.T.);
#491=EDGE_CURVE('',#402,#401,#179,.T.);
#492=EDGE_CURVE('',#403,#402,#349,.T.);
#493=EDGE_CURVE('',#404,#403,#180,.T.);
#494=EDGE_CURVE('',#405,#404,#181,.T.);
#495=EDGE_CURVE('',#406,#405,#182,.T.);
#496=EDGE_CURVE('',#407,#406,#350,.T.);
#497=EDGE_CURVE('',#408,#407,#183,.T.);
#498=EDGE_CURVE('',#409,#408,#184,.T.);
#499=EDGE_CURVE('',#410,#409,#185,.T.);
#500=EDGE_CURVE('',#411,#410,#351,.T.);
#501=EDGE_CURVE('',#412,#411,#186,.T.);
#502=EDGE_CURVE('',#413,#412,#187,.T.);
#503=EDGE_CURVE('',#414,#413,#188,.T.);
#504=EDGE_CURVE('',#376,#414,#352,.T.);
#505=EDGE_CURVE('',#415,#415,#353,.T.);
#506=EDGE_CURVE('',#416,#416,#354,.T.);
#507=EDGE_CURVE('',#417,#417,#355,.T.);
#508=EDGE_CURVE('',#418,#418,#356,.T.);
#509=EDGE_CURVE('',#419,#419,#357,.T.);
#510=EDGE_CURVE('',#420,#420,#358,.T.);
#511=EDGE_CURVE('',#380,#421,#189,.T.);
#512=EDGE_CURVE('',#421,#422,#359,.T.);
#513=EDGE_CURVE('',#422,#387,#190,.T.);
#514=EDGE_CURVE('',#423,#379,#191,.T.);
#515=EDGE_CURVE('',#421,#423,#192,.T.);
#516=EDGE_CURVE('',#414,#424,#193,.T.);
#517=EDGE_CURVE('',#424,#423,#360,.T.);
#518=EDGE_CURVE('',#413,#425,#194,.T.);
#519=EDGE_CURVE('',#424,#425,#195,.T.);
#520=EDGE_CURVE('',#426,#426,#361,.T.);
#521=EDGE_CURVE('',#426,#415,#196,.T.);
#522=EDGE_CURVE('',#427,#427,#362,.T.);
#523=EDGE_CURVE('',#427,#416,#197,.T.);
#524=EDGE_CURVE('',#428,#428,#363,.T.);
#525=EDGE_CURVE('',#428,#417,#198,.T.);
#526=EDGE_CURVE('',#429,#429,#364,.T.);
#527=EDGE_CURVE('',#429,#418,#199,.T.);
#528=EDGE_CURVE('',#430,#430,#365,.T.);
#529=EDGE_CURVE('',#430,#419,#200,.T.);
#530=EDGE_CURVE('',#431,#431,#366,.T.);
#531=EDGE_CURVE('',#431,#420,#201,.T.);
#532=EDGE_CURVE('',#432,#422,#202,.T.);
#533=EDGE_CURVE('',#388,#432,#203,.T.);
#534=EDGE_CURVE('',#433,#432,#204,.T.);
#535=EDGE_CURVE('',#389,#433,#205,.T.);
#536=EDGE_CURVE('',#434,#433,#206,.T.);
#537=EDGE_CURVE('',#390,#434,#207,.T.);
#538=EDGE_CURVE('',#435,#434,#367,.T.);
#539=EDGE_CURVE('',#391,#435,#208,.T.);
#540=EDGE_CURVE('',#436,#435,#209,.T.);
#541=EDGE_CURVE('',#392,#436,#210,.T.);
#542=EDGE_CURVE('',#437,#436,#211,.T.);
#543=EDGE_CURVE('',#393,#437,#212,.T.);
#544=EDGE_CURVE('',#438,#437,#213,.T.);
#545=EDGE_CURVE('',#394,#438,#214,.T.);
#546=EDGE_CURVE('',#439,#438,#368,.T.);
#547=EDGE_CURVE('',#395,#439,#215,.T.);
#548=EDGE_CURVE('',#440,#439,#216,.T.);
#549=EDGE_CURVE('',#396,#440,#217,.T.);
#550=EDGE_CURVE('',#441,#440,#218,.T.);
#551=EDGE_CURVE('',#397,#441,#219,.T.);
#552=EDGE_CURVE('',#442,#441,#220,.T.);
#553=EDGE_CURVE('',#398,#442,#221,.T.);
#554=EDGE_CURVE('',#443,#442,#369,.T.);
#555=EDGE_CURVE('',#399,#443,#222,.T.);
#556=EDGE_CURVE('',#444,#443,#223,.T.);
#557=EDGE_CURVE('',#400,#444,#224,.T.);
#558=EDGE_CURVE('',#445,#444,#225,.T.);
#559=EDGE_CURVE('',#401,#445,#226,.T.);
#560=EDGE_CURVE('',#446,#445,#227,.T.);
#561=EDGE_CURVE('',#402,#446,#228,.T.);
#562=EDGE_CURVE('',#447,#446,#370,.T.);
#563=EDGE_CURVE('',#403,#447,#229,.T.);
#564=EDGE_CURVE('',#448,#447,#230,.T.);
#565=EDGE_CURVE('',#404,#448,#231,.T.);
#566=EDGE_CURVE('',#449,#448,#232,.T.);
#567=EDGE_CURVE('',#405,#449,#233,.T.);
#568=EDGE_CURVE('',#450,#449,#234,.T.);
#569=EDGE_CURVE('',#406,#450,#235,.T.);
#570=EDGE_CURVE('',#451,#450,#371,.T.);
#571=EDGE_CURVE('',#407,#451,#236,.T.);
#572=EDGE_CURVE('',#452,#451,#237,.T.);
#573=EDGE_CURVE('',#408,#452,#238,.T.);
#574=EDGE_CURVE('',#453,#452,#239,.T.);
#575=EDGE_CURVE('',#409,#453,#240,.T.);
#576=EDGE_CURVE('',#454,#453,#241,.T.);
#577=EDGE_CURVE('',#410,#454,#242,.T.);
#578=EDGE_CURVE('',#455,#454,#372,.T.);
#579=EDGE_CURVE('',#411,#455,#243,.T.);
#580=EDGE_CURVE('',#456,#455,#244,.T.);
#581=EDGE_CURVE('',#412,#456,#245,.T.);
#582=EDGE_CURVE('',#425,#456,#246,.T.);
#583=ORIENTED_EDGE('',*,*,#457,.T.);
#584=ORIENTED_EDGE('',*,*,#458,.T.);
#585=ORIENTED_EDGE('',*,*,#459,.T.);
#586=ORIENTED_EDGE('',*,*,#460,.T.);
#587=ORIENTED_EDGE('',*,*,#458,.F.);
#588=ORIENTED_EDGE('',*,*,#461,.F.);
#589=ORIENTED_EDGE('',*,*,#462,.F.);
#590=ORIENTED_EDGE('',*,*,#463,.F.);
#591=ORIENTED_EDGE('',*,*,#457,.F.);
#592=ORIENTED_EDGE('',*,*,#464,.T.);
#593=ORIENTED_EDGE('',*,*,#465,.T.);
#594=ORIENTED_EDGE('',*,*,#466,.T.);
#595=ORIENTED_EDGE('',*,*,#467,.F.);
#596=ORIENTED_EDGE('',*,*,#468,.T.);
#597=ORIENTED_EDGE('',*,*,#469,.T.);
#598=ORIENTED_EDGE('',*,*,#461,.T.);
#599=ORIENTED_EDGE('',*,*,#467,.T.);
#600=ORIENTED_EDGE('',*,*,#470,.T.);
#601=ORIENTED_EDGE('',*,*,#471,.T.);
#602=ORIENTED_EDGE('',*,*,#472,.T.);
#603=ORIENTED_EDGE('',*,*,#472,.F.);
#604=ORIENTED_EDGE('',*,*,#473,.F.);
#605=ORIENTED_EDGE('',*,*,#474,.T.);
#606=ORIENTED_EDGE('',*,*,#468,.F.);
#607=ORIENTED_EDGE('',*,*,#475,.F.);
#608=ORIENTED_EDGE('',*,*,#462,.T.);
#609=ORIENTED_EDGE('',*,*,#469,.F.);
#610=ORIENTED_EDGE('',*,*,#474,.F.);
#611=ORIENTED_EDGE('',*,*,#463,.T.);
#612=ORIENTED_EDGE('',*,*,#475,.T.);
#613=ORIENTED_EDGE('',*,*,#473,.T.);
#614=ORIENTED_EDGE('',*,*,#471,.F.);
#615=ORIENTED_EDGE('',*,*,#476,.F.);
#616=ORIENTED_EDGE('',*,*,#477,.F.);
#617=ORIENTED_EDGE('',*,*,#478,.F.);
#618=ORIENTED_EDGE('',*,*,#479,.F.);
#619=ORIENTED_EDGE('',*,*,#480,.F.);
#620=ORIENTED_EDGE('',*,*,#481,.F.);
#621=ORIENTED_EDGE('',*,*,#482,.F.);
#622=ORIENTED_EDGE('',*,*,#483,.F.);
#623=ORIENTED_EDGE('',*,*,#484,.F.);
#624=ORIENTED_EDGE('',*,*,#485,.F.);
#625=ORIENTED_EDGE('',*,*,#486,.F.);
#626=ORIENTED_EDGE('',*,*,#487,.F.);
#627=ORIENTED_EDGE('',*,*,#488,.F.);
#628=ORIENTED_EDGE('',*,*,#489,.F.);
#629=ORIENTED_EDGE('',*,*,#490,.F.);
#630=ORIENTED_EDGE('',*,*,#491,.F.);
#631=ORIENTED_EDGE('',*,*,#492,.F.);
#632=ORIENTED_EDGE('',*,*,#493,.F.);
#633=ORIENTED_EDGE('',*,*,#494,.F.);
#634=ORIENTED_EDGE('',*,*,#495,.F.);
#635=ORIENTED_EDGE('',*,*,#496,.F.);
#636=ORIENTED_EDGE('',*,*,#497,.F.);
#637=ORIENTED_EDGE('',*,*,#498,.F.);
#638=ORIENTED_EDGE('',*,*,#499,.F.);
#639=ORIENTED_EDGE('',*,*,#500,.F.);
#640=ORIENTED_EDGE('',*,*,#501,.F.);
#641=ORIENTED_EDGE('',*,*,#502,.F.);
#642=ORIENTED_EDGE('',*,*,#503,.F.);
#643=ORIENTED_EDGE('',*,*,#504,.F.);
#644=ORIENTED_EDGE('',*,*,#459,.F.);
#645=ORIENTED_EDGE('',*,*,#505,.F.);
#646=ORIENTED_EDGE('',*,*,#506,.F.);
#647=ORIENTED_EDGE('',*,*,#507,.F.);
#648=ORIENTED_EDGE('',*,*,#508,.F.);
#649=ORIENTED_EDGE('',*,*,#509,.F.);
#650=ORIENTED_EDGE('',*,*,#510,.F.);
#651=ORIENTED_EDGE('',*,*,#470,.F.);
#652=ORIENTED_EDGE('',*,*,#466,.F.);
#653=ORIENTED_EDGE('',*,*,#511,.T.);
#654=ORIENTED_EDGE('',*,*,#512,.T.);
#655=ORIENTED_EDGE('',*,*,#513,.T.);
#656=ORIENTED_EDGE('',*,*,#476,.T.);
#657=ORIENTED_EDGE('',*,*,#511,.F.);
#658=ORIENTED_EDGE('',*,*,#465,.F.);
#659=ORIENTED_EDGE('',*,*,#514,.F.);
#660=ORIENTED_EDGE('',*,*,#515,.F.);
#661=ORIENTED_EDGE('',*,*,#504,.T.);
#662=ORIENTED_EDGE('',*,*,#516,.T.);
#663=ORIENTED_EDGE('',*,*,#517,.T.);
#664=ORIENTED_EDGE('',*,*,#514,.T.);
#665=ORIENTED_EDGE('',*,*,#464,.F.);
#666=ORIENTED_EDGE('',*,*,#460,.F.);
#667=ORIENTED_EDGE('',*,*,#516,.F.);
#668=ORIENTED_EDGE('',*,*,#503,.T.);
#669=ORIENTED_EDGE('',*,*,#518,.T.);
#670=ORIENTED_EDGE('',*,*,#519,.F.);
#671=ORIENTED_EDGE('',*,*,#520,.F.);
#672=ORIENTED_EDGE('',*,*,#521,.T.);
#673=ORIENTED_EDGE('',*,*,#505,.T.);
#674=ORIENTED_EDGE('',*,*,#521,.F.);
#675=ORIENTED_EDGE('',*,*,#522,.F.);
#676=ORIENTED_EDGE('',*,*,#523,.T.);
#677=ORIENTED_EDGE('',*,*,#506,.T.);
#678=ORIENTED_EDGE('',*,*,#523,.F.);
#679=ORIENTED_EDGE('',*,*,#524,.F.);
#680=ORIENTED_EDGE('',*,*,#525,.T.);
#681=ORIENTED_EDGE('',*,*,#507,.T.);
#682=ORIENTED_EDGE('',*,*,#525,.F.);
#683=ORIENTED_EDGE('',*,*,#526,.F.);
#684=ORIENTED_EDGE('',*,*,#527,.T.);
#685=ORIENTED_EDGE('',*,*,#508,.T.);
#686=ORIENTED_EDGE('',*,*,#527,.F.);
#687=ORIENTED_EDGE('',*,*,#528,.F.);
#688=ORIENTED_EDGE('',*,*,#529,.T.);
#689=ORIENTED_EDGE('',*,*,#509,.T.);
#690=ORIENTED_EDGE('',*,*,#529,.F.);
#691=ORIENTED_EDGE('',*,*,#530,.F.);
#692=ORIENTED_EDGE('',*,*,#531,.T.);
#693=ORIENTED_EDGE('',*,*,#510,.T.);
#694=ORIENTED_EDGE('',*,*,#531,.F.);
#695=ORIENTED_EDGE('',*,*,#513,.F.);
#696=ORIENTED_EDGE('',*,*,#532,.F.);
#697=ORIENTED_EDGE('',*,*,#533,.F.);
#698=ORIENTED_EDGE('',*,*,#477,.T.);
#699=ORIENTED_EDGE('',*,*,#478,.T.);
#700=ORIENTED_EDGE('',*,*,#533,.T.);
#701=ORIENTED_EDGE('',*,*,#534,.F.);
#702=ORIENTED_EDGE('',*,*,#535,.F.);
#703=ORIENTED_EDGE('',*,*,#479,.T.);
#704=ORIENTED_EDGE('',*,*,#535,.T.);
#705=ORIENTED_EDGE('',*,*,#536,.F.);
#706=ORIENTED_EDGE('',*,*,#537,.F.);
#707=ORIENTED_EDGE('',*,*,#480,.T.);
#708=ORIENTED_EDGE('',*,*,#537,.T.);
#709=ORIENTED_EDGE('',*,*,#538,.F.);
#710=ORIENTED_EDGE('',*,*,#539,.F.);
#711=ORIENTED_EDGE('',*,*,#481,.T.);
#712=ORIENTED_EDGE('',*,*,#539,.T.);
#713=ORIENTED_EDGE('',*,*,#540,.F.);
#714=ORIENTED_EDGE('',*,*,#541,.F.);
#715=ORIENTED_EDGE('',*,*,#482,.T.);
#716=ORIENTED_EDGE('',*,*,#541,.T.);
#717=ORIENTED_EDGE('',*,*,#542,.F.);
#718=ORIENTED_EDGE('',*,*,#543,.F.);
#719=ORIENTED_EDGE('',*,*,#483,.T.);
#720=ORIENTED_EDGE('',*,*,#543,.T.);
#721=ORIENTED_EDGE('',*,*,#544,.F.);
#722=ORIENTED_EDGE('',*,*,#545,.F.);
#723=ORIENTED_EDGE('',*,*,#484,.T.);
#724=ORIENTED_EDGE('',*,*,#545,.T.);
#725=ORIENTED_EDGE('',*,*,#546,.F.);
#726=ORIENTED_EDGE('',*,*,#547,.F.);
#727=ORIENTED_EDGE('',*,*,#485,.T.);
#728=ORIENTED_EDGE('',*,*,#547,.T.);
#729=ORIENTED_EDGE('',*,*,#548,.F.);
#730=ORIENTED_EDGE('',*,*,#549,.F.);
#731=ORIENTED_EDGE('',*,*,#486,.T.);
#732=ORIENTED_EDGE('',*,*,#549,.T.);
#733=ORIENTED_EDGE('',*,*,#550,.F.);
#734=ORIENTED_EDGE('',*,*,#551,.F.);
#735=ORIENTED_EDGE('',*,*,#487,.T.);
#736=ORIENTED_EDGE('',*,*,#551,.T.);
#737=ORIENTED_EDGE('',*,*,#552,.F.);
#738=ORIENTED_EDGE('',*,*,#553,.F.);
#739=ORIENTED_EDGE('',*,*,#488,.T.);
#740=ORIENTED_EDGE('',*,*,#553,.T.);
#741=ORIENTED_EDGE('',*,*,#554,.F.);
#742=ORIENTED_EDGE('',*,*,#555,.F.);
#743=ORIENTED_EDGE('',*,*,#489,.T.);
#744=ORIENTED_EDGE('',*,*,#555,.T.);
#745=ORIENTED_EDGE('',*,*,#556,.F.);
#746=ORIENTED_EDGE('',*,*,#557,.F.);
#747=ORIENTED_EDGE('',*,*,#490,.T.);
#748=ORIENTED_EDGE('',*,*,#557,.T.);
#749=ORIENTED_EDGE('',*,*,#558,.F.);
#750=ORIENTED_EDGE('',*,*,#559,.F.);
#751=ORIENTED_EDGE('',*,*,#491,.T.);
#752=ORIENTED_EDGE('',*,*,#559,.T.);
#753=ORIENTED_EDGE('',*,*,#560,.F.);
#754=ORIENTED_EDGE('',*,*,#561,.F.);
#755=ORIENTED_EDGE('',*,*,#492,.T.);
#756=ORIENTED_EDGE('',*,*,#561,.T.);
#757=ORIENTED_EDGE('',*,*,#562,.F.);
#758=ORIENTED_EDGE('',*,*,#563,.F.);
#759=ORIENTED_EDGE('',*,*,#493,.T.);
#760=ORIENTED_EDGE('',*,*,#563,.T.);
#761=ORIENTED_EDGE('',*,*,#564,.F.);
#762=ORIENTED_EDGE('',*,*,#565,.F.);
#763=ORIENTED_EDGE('',*,*,#494,.T.);
#764=ORIENTED_EDGE('',*,*,#565,.T.);
#765=ORIENTED_EDGE('',*,*,#566,.F.);
#766=ORIENTED_EDGE('',*,*,#567,.F.);
#767=ORIENTED_EDGE('',*,*,#495,.T.);
#768=ORIENTED_EDGE('',*,*,#567,.T.);
#769=ORIENTED_EDGE('',*,*,#568,.F.);
#770=ORIENTED_EDGE('',*,*,#569,.F.);
#771=ORIENTED_EDGE('',*,*,#496,.T.);
#772=ORIENTED_EDGE('',*,*,#569,.T.);
#773=ORIENTED_EDGE('',*,*,#570,.F.);
#774=ORIENTED_EDGE('',*,*,#571,.F.);
#775=ORIENTED_EDGE('',*,*,#497,.T.);
#776=ORIENTED_EDGE('',*,*,#571,.T.);
#777=ORIENTED_EDGE('',*,*,#572,.F.);
#778=ORIENTED_EDGE('',*,*,#573,.F.);
#779=ORIENTED_EDGE('',*,*,#498,.T.);
#780=ORIENTED_EDGE('',*,*,#573,.T.);
#781=ORIENTED_EDGE('',*,*,#574,.F.);
#782=ORIENTED_EDGE('',*,*,#575,.F.);
#783=ORIENTED_EDGE('',*,*,#499,.T.);
#784=ORIENTED_EDGE('',*,*,#575,.T.);
#785=ORIENTED_EDGE('',*,*,#576,.F.);
#786=ORIENTED_EDGE('',*,*,#577,.F.);
#787=ORIENTED_EDGE('',*,*,#500,.T.);
#788=ORIENTED_EDGE('',*,*,#577,.T.);
#789=ORIENTED_EDGE('',*,*,#578,.F.);
#790=ORIENTED_EDGE('',*,*,#579,.F.);
#791=ORIENTED_EDGE('',*,*,#501,.T.);
#792=ORIENTED_EDGE('',*,*,#579,.T.);
#793=ORIENTED_EDGE('',*,*,#580,.F.);
#794=ORIENTED_EDGE('',*,*,#581,.F.);
#795=ORIENTED_EDGE('',*,*,#502,.T.);
#796=ORIENTED_EDGE('',*,*,#581,.T.);
#797=ORIENTED_EDGE('',*,*,#582,.F.);
#798=ORIENTED_EDGE('',*,*,#518,.F.);
#799=ORIENTED_EDGE('',*,*,#582,.T.);
#800=ORIENTED_EDGE('',*,*,#580,.T.);
#801=ORIENTED_EDGE('',*,*,#578,.T.);
#802=ORIENTED_EDGE('',*,*,#576,.T.);
#803=ORIENTED_EDGE('',*,*,#574,.T.);
#804=ORIENTED_EDGE('',*,*,#572,.T.);
#805=ORIENTED_EDGE('',*,*,#570,.T.);
#806=ORIENTED_EDGE('',*,*,#568,.T.);
#807=ORIENTED_EDGE('',*,*,#566,.T.);
#808=ORIENTED_EDGE('',*,*,#564,.T.);
#809=ORIENTED_EDGE('',*,*,#562,.T.);
#810=ORIENTED_EDGE('',*,*,#560,.T.);
#811=ORIENTED_EDGE('',*,*,#558,.T.);
#812=ORIENTED_EDGE('',*,*,#556,.T.);
#813=ORIENTED_EDGE('',*,*,#554,.T.);
#814=ORIENTED_EDGE('',*,*,#552,.T.);
#815=ORIENTED_EDGE('',*,*,#550,.T.);
#816=ORIENTED_EDGE('',*,*,#548,.T.);
#817=ORIENTED_EDGE('',*,*,#546,.T.);
#818=ORIENTED_EDGE('',*,*,#544,.T.);
#819=ORIENTED_EDGE('',*,*,#542,.T.);
#820=ORIENTED_EDGE('',*,*,#540,.T.);
#821=ORIENTED_EDGE('',*,*,#538,.T.);
#822=ORIENTED_EDGE('',*,*,#536,.T.);
#823=ORIENTED_EDGE('',*,*,#534,.T.);
#824=ORIENTED_EDGE('',*,*,#532,.T.);
#825=ORIENTED_EDGE('',*,*,#512,.F.);
#826=ORIENTED_EDGE('',*,*,#515,.T.);
#827=ORIENTED_EDGE('',*,*,#517,.F.);
#828=ORIENTED_EDGE('',*,*,#519,.T.);
#829=ORIENTED_EDGE('',*,*,#530,.T.);
#830=ORIENTED_EDGE('',*,*,#528,.T.);
#831=ORIENTED_EDGE('',*,*,#526,.T.);
#832=ORIENTED_EDGE('',*,*,#524,.T.);
#833=ORIENTED_EDGE('',*,*,#522,.T.);
#834=ORIENTED_EDGE('',*,*,#520,.T.);
#835=CYLINDRICAL_SURFACE('',#909,0.4);
#836=CYLINDRICAL_SURFACE('',#917,0.4);
#837=CYLINDRICAL_SURFACE('',#936,2.);
#838=CYLINDRICAL_SURFACE('',#939,2.);
#839=CYLINDRICAL_SURFACE('',#942,0.999999999999996);
#840=CYLINDRICAL_SURFACE('',#944,0.999999999999996);
#841=CYLINDRICAL_SURFACE('',#946,0.999999999999996);
#842=CYLINDRICAL_SURFACE('',#948,0.999999999999996);
#843=CYLINDRICAL_SURFACE('',#950,0.999999999999996);
#844=CYLINDRICAL_SURFACE('',#952,0.999999999999996);
#845=CYLINDRICAL_SURFACE('',#957,3.50000000000004);
#846=CYLINDRICAL_SURFACE('',#962,3.50000000000003);
#847=CYLINDRICAL_SURFACE('',#967,3.5);
#848=CYLINDRICAL_SURFACE('',#972,3.5);
#849=CYLINDRICAL_SURFACE('',#977,3.50000000000013);
#850=CYLINDRICAL_SURFACE('',#982,3.50000000000002);
#851=ADVANCED_FACE('',(#55),#835,.T.);
#852=ADVANCED_FACE('',(#56),#27,.T.);
#853=ADVANCED_FACE('',(#57),#28,.T.);
#854=ADVANCED_FACE('',(#58),#836,.T.);
#855=ADVANCED_FACE('',(#59),#29,.T.);
#856=ADVANCED_FACE('',(#60),#30,.T.);
#857=ADVANCED_FACE('',(#61,#15,#16,#17,#18,#19,#20),#31,.F.);
#858=ADVANCED_FACE('',(#62),#837,.F.);
#859=ADVANCED_FACE('',(#63),#32,.T.);
#860=ADVANCED_FACE('',(#64),#838,.F.);
#861=ADVANCED_FACE('',(#65),#33,.T.);
#862=ADVANCED_FACE('',(#66),#839,.F.);
#863=ADVANCED_FACE('',(#67),#840,.F.);
#864=ADVANCED_FACE('',(#68),#841,.F.);
#865=ADVANCED_FACE('',(#69),#842,.F.);
#866=ADVANCED_FACE('',(#70),#843,.F.);
#867=ADVANCED_FACE('',(#71),#844,.F.);
#868=ADVANCED_FACE('',(#72),#34,.T.);
#869=ADVANCED_FACE('',(#73),#35,.T.);
#870=ADVANCED_FACE('',(#74),#36,.T.);
#871=ADVANCED_FACE('',(#75),#845,.T.);
#872=ADVANCED_FACE('',(#76),#37,.T.);
#873=ADVANCED_FACE('',(#77),#38,.T.);
#874=ADVANCED_FACE('',(#78),#39,.T.);
#875=ADVANCED_FACE('',(#79),#846,.T.);
#876=ADVANCED_FACE('',(#80),#40,.T.);
#877=ADVANCED_FACE('',(#81),#41,.T.);
#878=ADVANCED_FACE('',(#82),#42,.T.);
#879=ADVANCED_FACE('',(#83),#847,.T.);
#880=ADVANCED_FACE('',(#84),#43,.T.);
#881=ADVANCED_FACE('',(#85),#44,.T.);
#882=ADVANCED_FACE('',(#86),#45,.T.);
#883=ADVANCED_FACE('',(#87),#848,.T.);
#884=ADVANCED_FACE('',(#88),#46,.T.);
#885=ADVANCED_FACE('',(#89),#47,.T.);
#886=ADVANCED_FACE('',(#90),#48,.T.);
#887=ADVANCED_FACE('',(#91),#849,.T.);
#888=ADVANCED_FACE('',(#92),#49,.T.);
#889=ADVANCED_FACE('',(#93),#50,.T.);
#890=ADVANCED_FACE('',(#94),#51,.T.);
#891=ADVANCED_FACE('',(#95),#850,.T.);
#892=ADVANCED_FACE('',(#96),#52,.T.);
#893=ADVANCED_FACE('',(#97),#53,.T.);
#894=ADVANCED_FACE('',(#98,#21,#22,#23,#24,#25,#26),#54,.T.);
#895=CLOSED_SHELL('',(#851,#852,#853,#854,#855,#856,#857,#858,#859,#860,
#861,#862,#863,#864,#865,#866,#867,#868,#869,#870,#871,#872,#873,#874,#875,
#876,#877,#878,#879,#880,#881,#882,#883,#884,#885,#886,#887,#888,#889,#890,
#891,#892,#893,#894));
#896=DERIVED_UNIT_ELEMENT(#898,1.);
#897=DERIVED_UNIT_ELEMENT(#1497,-3.);
#898=(
MASS_UNIT()
NAMED_UNIT(*)
SI_UNIT(.KILO.,.GRAM.)
);
#899=DERIVED_UNIT((#896,#897));
#900=MEASURE_REPRESENTATION_ITEM('density measure',
POSITIVE_RATIO_MEASURE(7850.),#899);
#901=PROPERTY_DEFINITION_REPRESENTATION(#906,#903);
#902=PROPERTY_DEFINITION_REPRESENTATION(#907,#904);
#903=REPRESENTATION('material name',(#905),#1494);
#904=REPRESENTATION('density',(#900),#1494);
#905=DESCRIPTIVE_REPRESENTATION_ITEM('Steel','Steel');
#906=PROPERTY_DEFINITION('material property','material name',#1504);
#907=PROPERTY_DEFINITION('material property','density of part',#1504);
#908=AXIS2_PLACEMENT_3D('',#1237,#987,#988);
#909=AXIS2_PLACEMENT_3D('',#1238,#989,#990);
#910=AXIS2_PLACEMENT_3D('',#1241,#991,#992);
#911=AXIS2_PLACEMENT_3D('',#1245,#994,#995);
#912=AXIS2_PLACEMENT_3D('',#1247,#997,#998);
#913=AXIS2_PLACEMENT_3D('',#1253,#1002,#1003);
#914=AXIS2_PLACEMENT_3D('',#1255,#1004,#1005);
#915=AXIS2_PLACEMENT_3D('',#1259,#1007,#1008);
#916=AXIS2_PLACEMENT_3D('',#1261,#1009,#1010);
#917=AXIS2_PLACEMENT_3D('',#1265,#1013,#1014);
#918=AXIS2_PLACEMENT_3D('',#1269,#1016,#1017);
#919=AXIS2_PLACEMENT_3D('',#1271,#1019,#1020);
#920=AXIS2_PLACEMENT_3D('',#1275,#1023,#1024);
#921=AXIS2_PLACEMENT_3D('',#1277,#1026,#1027);
#922=AXIS2_PLACEMENT_3D('',#1279,#1028,#1029);
#923=AXIS2_PLACEMENT_3D('',#1287,#1033,#1034);
#924=AXIS2_PLACEMENT_3D('',#1295,#1038,#1039);
#925=AXIS2_PLACEMENT_3D('',#1303,#1043,#1044);
#926=AXIS2_PLACEMENT_3D('',#1311,#1048,#1049);
#927=AXIS2_PLACEMENT_3D('',#1319,#1053,#1054);
#928=AXIS2_PLACEMENT_3D('',#1327,#1058,#1059);
#929=AXIS2_PLACEMENT_3D('',#1334,#1063,#1064);
#930=AXIS2_PLACEMENT_3D('',#1336,#1065,#1066);
#931=AXIS2_PLACEMENT_3D('',#1338,#1067,#1068);
#932=AXIS2_PLACEMENT_3D('',#1340,#1069,#1070);
#933=AXIS2_PLACEMENT_3D('',#1342,#1071,#1072);
#934=AXIS2_PLACEMENT_3D('',#1344,#1073,#1074);
#935=AXIS2_PLACEMENT_3D('',#1346,#1075,#1076);
#936=AXIS2_PLACEMENT_3D('',#1347,#1077,#1078);
#937=AXIS2_PLACEMENT_3D('',#1351,#1080,#1081);
#938=AXIS2_PLACEMENT_3D('',#1353,#1083,#1084);
#939=AXIS2_PLACEMENT_3D('',#1357,#1087,#1088);
#940=AXIS2_PLACEMENT_3D('',#1360,#1090,#1091);
#941=AXIS2_PLACEMENT_3D('',#1361,#1092,#1093);
#942=AXIS2_PLACEMENT_3D('',#1365,#1096,#1097);
#943=AXIS2_PLACEMENT_3D('',#1367,#1098,#1099);
#944=AXIS2_PLACEMENT_3D('',#1369,#1101,#1102);
#945=AXIS2_PLACEMENT_3D('',#1371,#1103,#1104);
#946=AXIS2_PLACEMENT_3D('',#1373,#1106,#1107);
#947=AXIS2_PLACEMENT_3D('',#1375,#1108,#1109);
#948=AXIS2_PLACEMENT_3D('',#1377,#1111,#1112);
#949=AXIS2_PLACEMENT_3D('',#1379,#1113,#1114);
#950=AXIS2_PLACEMENT_3D('',#1381,#1116,#1117);
#951=AXIS2_PLACEMENT_3D('',#1383,#1118,#1119);
#952=AXIS2_PLACEMENT_3D('',#1385,#1121,#1122);
#953=AXIS2_PLACEMENT_3D('',#1387,#1123,#1124);
#954=AXIS2_PLACEMENT_3D('',#1389,#1126,#1127);
#955=AXIS2_PLACEMENT_3D('',#1393,#1130,#1131);
#956=AXIS2_PLACEMENT_3D('',#1397,#1134,#1135);
#957=AXIS2_PLACEMENT_3D('',#1401,#1138,#1139);
#958=AXIS2_PLACEMENT_3D('',#1403,#1140,#1141);
#959=AXIS2_PLACEMENT_3D('',#1405,#1143,#1144);
#960=AXIS2_PLACEMENT_3D('',#1409,#1147,#1148);
#961=AXIS2_PLACEMENT_3D('',#1413,#1151,#1152);
#962=AXIS2_PLACEMENT_3D('',#1417,#1155,#1156);
#963=AXIS2_PLACEMENT_3D('',#1419,#1157,#1158);
#964=AXIS2_PLACEMENT_3D('',#1421,#1160,#1161);
#965=AXIS2_PLACEMENT_3D('',#1425,#1164,#1165);
#966=AXIS2_PLACEMENT_3D('',#1429,#1168,#1169);
#967=AXIS2_PLACEMENT_3D('',#1433,#1172,#1173);
#968=AXIS2_PLACEMENT_3D('',#1435,#1174,#1175);
#969=AXIS2_PLACEMENT_3D('',#1437,#1177,#1178);
#970=AXIS2_PLACEMENT_3D('',#1441,#1181,#1182);
#971=AXIS2_PLACEMENT_3D('',#1445,#1185,#1186);
#972=AXIS2_PLACEMENT_3D('',#1449,#1189,#1190);
#973=AXIS2_PLACEMENT_3D('',#1451,#1191,#1192);
#974=AXIS2_PLACEMENT_3D('',#1453,#1194,#1195);
#975=AXIS2_PLACEMENT_3D('',#1457,#1198,#1199);
#976=AXIS2_PLACEMENT_3D('',#1461,#1202,#1203);
#977=AXIS2_PLACEMENT_3D('',#1465,#1206,#1207);
#978=AXIS2_PLACEMENT_3D('',#1467,#1208,#1209);
#979=AXIS2_PLACEMENT_3D('',#1469,#1211,#1212);
#980=AXIS2_PLACEMENT_3D('',#1473,#1215,#1216);
#981=AXIS2_PLACEMENT_3D('',#1477,#1219,#1220);
#982=AXIS2_PLACEMENT_3D('',#1481,#1223,#1224);
#983=AXIS2_PLACEMENT_3D('',#1483,#1225,#1226);
#984=AXIS2_PLACEMENT_3D('',#1485,#1228,#1229);
#985=AXIS2_PLACEMENT_3D('',#1489,#1232,#1233);
#986=AXIS2_PLACEMENT_3D('',#1491,#1235,#1236);
#987=DIRECTION('axis',(0.,0.,1.));
#988=DIRECTION('refdir',(1.,0.,0.));
#989=DIRECTION('center_axis',(-0.600420225325878,0.639495553019607,-0.480146842838489));
#990=DIRECTION('ref_axis',(0.365004438620169,-0.31507176354425,-0.876071654378049));
#991=DIRECTION('center_axis',(0.600420225325883,-0.639495553019612,0.480146842838477));
#992=DIRECTION('ref_axis',(0.365004438620169,-0.31507176354425,-0.876071654378049));
#993=DIRECTION('',(0.600420225325882,-0.639495553019605,0.480146842838487));
#994=DIRECTION('center_axis',(0.600420225325883,-0.639495553019612,0.480146842838477));
#995=DIRECTION('ref_axis',(0.365004438620169,-0.31507176354425,-0.876071654378049));
#996=DIRECTION('',(-0.600420225325878,0.639495553019607,-0.480146842838489));
#997=DIRECTION('center_axis',(0.799684658487092,0.480146842838479,-0.360504446980373));
#998=DIRECTION('ref_axis',(1.51545442861334E-14,-0.600420225325881,-0.799684658487093));
#999=DIRECTION('',(1.51324214899649E-14,-0.600420225325881,-0.799684658487093));
#1000=DIRECTION('',(-0.600420225325882,0.639495553019609,-0.480146842838481));
#1001=DIRECTION('',(-1.5182299861749E-14,0.600420225325881,0.799684658487093));
#1002=DIRECTION('center_axis',(-0.600420225325883,0.639495553019612,-0.480146842838477));
#1003=DIRECTION('ref_axis',(-0.624544866349683,1.03674170963721E-16,0.780988930725818));
#1004=DIRECTION('center_axis',(0.600420225325883,-0.639495553019612,0.480146842838477));
#1005=DIRECTION('ref_axis',(-2.18353930011386E-14,0.600420225325877,0.799684658487096));
#1006=DIRECTION('',(-0.799684658487092,-0.480146842838477,0.360504446980376));
#1007=DIRECTION('center_axis',(0.600420225325883,-0.639495553019612,0.480146842838477));
#1008=DIRECTION('ref_axis',(-0.799684658487092,-0.480146842838472,0.360504446980383));
#1009=DIRECTION('center_axis',(0.600420225325883,-0.639495553019612,0.480146842838477));
#1010=DIRECTION('ref_axis',(-0.365004438620208,-0.753383858106851,-0.546977624891168));
#1011=DIRECTION('',(-1.57321236162324E-14,0.600420225325881,0.799684658487093));
#1012=DIRECTION('',(0.799684658487092,0.480146842838478,-0.360504446980374));
#1013=DIRECTION('center_axis',(-0.600420225325878,0.639495553019607,-0.480146842838489));
#1014=DIRECTION('ref_axis',(-0.365004438620208,-0.753383858106851,-0.546977624891168));
#1015=DIRECTION('',(0.600420225325878,-0.639495553019607,0.480146842838489));
#1016=DIRECTION('center_axis',(0.600420225325883,-0.639495553019612,0.480146842838477));
#1017=DIRECTION('ref_axis',(-0.365004438620208,-0.753383858106851,-0.546977624891168));
#1018=DIRECTION('',(-0.600420225325882,0.639495553019605,-0.480146842838487));
#1019=DIRECTION('center_axis',(-0.799684658487092,-0.480146842838479,0.360504446980373));
#1020=DIRECTION('ref_axis',(-1.57542464124009E-14,0.600420225325881,0.799684658487093));
#1021=DIRECTION('',(1.55986334959834E-14,-0.600420225325881,-0.799684658487093));
#1022=DIRECTION('',(-0.600420225325882,0.639495553019609,-0.480146842838481));
#1023=DIRECTION('center_axis',(-1.66533453693773E-14,0.600420225325885,
0.79968465848709));
#1024=DIRECTION('ref_axis',(0.799684658487091,0.480146842838478,-0.360504446980374));
#1025=DIRECTION('',(-0.799684658487091,-0.480146842838478,0.360504446980374));
#1026=DIRECTION('center_axis',(0.600420225325883,-0.639495553019612,0.480146842838477));
#1027=DIRECTION('ref_axis',(0.624544866349683,-6.62384351834242E-18,-0.780988930725818));
#1028=DIRECTION('center_axis',(-0.600420225325883,0.639495553019612,-0.480146842838477));
#1029=DIRECTION('ref_axis',(-0.565462444827088,0.0850461243530958,0.820377583934794));
#1030=DIRECTION('',(-1.51183356843622E-14,0.600420225325881,0.799684658487093));
#1031=DIRECTION('',(0.799684658487091,0.480146842838473,-0.360504446980381));
#1032=DIRECTION('',(0.639747726789685,0.0238653390752593,-0.768214352676551));
#1033=DIRECTION('center_axis',(0.600420225325883,-0.639495553019612,0.480146842838477));
#1034=DIRECTION('ref_axis',(-0.549453341428388,0.106347228593984,0.828728720730468));
#1035=DIRECTION('',(-0.581030617620785,-0.761403772408911,-0.287519941480045));
#1036=DIRECTION('',(1.39127024779425E-14,-0.600420225325882,-0.799684658487092));
#1037=DIRECTION('',(0.581030617620808,-0.0636787037026676,-0.811386741376719));
#1038=DIRECTION('center_axis',(0.600420225325883,-0.639495553019611,0.480146842838477));
#1039=DIRECTION('ref_axis',(-0.549453341428385,0.106347228593988,0.82872872073047));
#1040=DIRECTION('',(-0.581030617620783,-0.761403772408912,-0.287519941480046));
#1041=DIRECTION('',(1.45538308653811E-14,-0.600420225325882,-0.799684658487092));
#1042=DIRECTION('',(0.581030617620806,-0.0636787037026699,-0.81138674137672));
#1043=DIRECTION('center_axis',(0.600420225325883,-0.639495553019612,0.480146842838477));
#1044=DIRECTION('ref_axis',(-0.549889968783878,0.105774822642698,0.828512346996574));
#1045=DIRECTION('',(-0.58061740866982,-0.761483502489091,-0.288142846842481));
#1046=DIRECTION('',(-0.799684658487092,-0.480146842838479,0.360504446980373));
#1047=DIRECTION('',(-0.580617408669846,0.0642546318057332,0.811637090725296));
#1048=DIRECTION('center_axis',(0.600420225325883,-0.639495553019612,0.480146842838477));
#1049=DIRECTION('ref_axis',(0.549453341428396,-0.106347228593973,-0.828728720730464));
#1050=DIRECTION('',(0.581030617620781,0.761403772408912,0.28751994148005));
#1051=DIRECTION('',(-1.62933602264749E-14,0.600420225325882,0.799684658487092));
#1052=DIRECTION('',(-0.581030617620801,0.0636787037026731,0.811386741376724));
#1053=DIRECTION('center_axis',(0.600420225325883,-0.639495553019612,0.480146842838477));
#1054=DIRECTION('ref_axis',(0.549453341428394,-0.106347228593975,-0.828728720730465));
#1055=DIRECTION('',(0.581030617620793,0.76140377240891,0.287519941480032));
#1056=DIRECTION('',(-1.55780370148802E-14,0.600420225325881,0.799684658487093));
#1057=DIRECTION('',(-0.581030617620803,0.0636787037026744,0.811386741376722));
#1058=DIRECTION('center_axis',(0.600420225325883,-0.639495553019612,0.480146842838477));
#1059=DIRECTION('ref_axis',(0.479810795092276,-0.192248074557607,-0.856050394977895));
#1060=DIRECTION('',(0.639747726789671,0.744369609466309,0.191407237507945));
#1061=DIRECTION('',(0.799684658487091,0.480146842838474,-0.36050444698038));
#1062=DIRECTION('',(1.48260034539672E-14,-0.600420225325881,-0.799684658487092));
#1063=DIRECTION('center_axis',(-0.600420225325883,0.639495553019612,-0.480146842838477));
#1064=DIRECTION('ref_axis',(0.565462444827065,0.764076301425887,0.310547305719332));
#1065=DIRECTION('center_axis',(-0.600420225325883,0.639495553019612,-0.480146842838477));
#1066=DIRECTION('ref_axis',(0.624544866349683,-3.61027100810343E-17,-0.780988930725818));
#1067=DIRECTION('center_axis',(-0.600420225325883,0.639495553019612,-0.480146842838477));
#1068=DIRECTION('ref_axis',(0.624544866349683,-3.61027100810343E-17,-0.780988930725818));
#1069=DIRECTION('center_axis',(-0.600420225325883,0.639495553019612,-0.480146842838477));
#1070=DIRECTION('ref_axis',(0.624544866349683,-3.61027100810343E-17,-0.780988930725818));
#1071=DIRECTION('center_axis',(-0.600420225325883,0.639495553019612,-0.480146842838477));
#1072=DIRECTION('ref_axis',(0.624544866349683,-3.61027100810343E-17,-0.780988930725818));
#1073=DIRECTION('center_axis',(-0.600420225325883,0.639495553019612,-0.480146842838477));
#1074=DIRECTION('ref_axis',(0.624544866349683,-3.61027100810343E-17,-0.780988930725818));
#1075=DIRECTION('center_axis',(-0.600420225325883,0.639495553019612,-0.480146842838477));
#1076=DIRECTION('ref_axis',(0.624544866349683,-3.61027100810343E-17,-0.780988930725818));
#1077=DIRECTION('center_axis',(0.600420225325878,-0.639495553019607,0.480146842838489));
#1078=DIRECTION('ref_axis',(-0.565462444827088,0.0850461243530958,0.820377583934794));
#1079=DIRECTION('',(0.600420225325878,-0.639495553019607,0.480146842838489));
#1080=DIRECTION('center_axis',(0.600420225325883,-0.639495553019612,0.480146842838477));
#1081=DIRECTION('ref_axis',(-0.565462444827088,0.0850461243530958,0.820377583934794));
#1082=DIRECTION('',(-0.600420225325878,0.639495553019607,-0.480146842838489));
#1083=DIRECTION('center_axis',(1.94289029309402E-14,-0.600420225325891,
-0.799684658487085));
#1084=DIRECTION('ref_axis',(0.799684658487091,0.480146842838477,-0.360504446980376));
#1085=DIRECTION('',(-0.600420225325878,0.639495553019607,-0.480146842838489));
#1086=DIRECTION('',(0.799684658487091,0.480146842838477,-0.360504446980376));
#1087=DIRECTION('center_axis',(0.600420225325878,-0.639495553019607,0.480146842838489));
#1088=DIRECTION('ref_axis',(0.565462444827065,0.764076301425887,0.310547305719332));
#1089=DIRECTION('',(0.600420225325878,-0.639495553019607,0.480146842838489));
#1090=DIRECTION('center_axis',(0.600420225325883,-0.639495553019612,0.480146842838477));
#1091=DIRECTION('ref_axis',(0.565462444827065,0.764076301425887,0.310547305719332));
#1092=DIRECTION('center_axis',(-0.799684658487095,-0.480146842838475,0.360504446980371));
#1093=DIRECTION('ref_axis',(1.48260034539672E-14,-0.600420225325881,-0.799684658487092));
#1094=DIRECTION('',(0.600420225325878,-0.639495553019607,0.480146842838489));
#1095=DIRECTION('',(1.47926734360369E-14,-0.600420225325882,-0.799684658487092));
#1096=DIRECTION('center_axis',(0.600420225325878,-0.639495553019607,0.480146842838489));
#1097=DIRECTION('ref_axis',(0.62454486634969,-7.80153835032225E-15,-0.780988930725813));
#1098=DIRECTION('center_axis',(-0.600420225325883,0.639495553019612,-0.480146842838477));
#1099=DIRECTION('ref_axis',(0.624544866349683,8.52736837325271E-17,-0.780988930725818));
#1100=DIRECTION('',(-0.600420225325878,0.639495553019607,-0.480146842838489));
#1101=DIRECTION('center_axis',(0.600420225325878,-0.639495553019607,0.480146842838489));
#1102=DIRECTION('ref_axis',(0.62454486634969,-7.80153835032225E-15,-0.780988930725813));
#1103=DIRECTION('center_axis',(-0.600420225325883,0.639495553019612,-0.480146842838477));
#1104=DIRECTION('ref_axis',(0.624544866349683,8.52736837325271E-17,-0.780988930725818));
#1105=DIRECTION('',(-0.600420225325878,0.639495553019607,-0.480146842838489));
#1106=DIRECTION('center_axis',(0.600420225325878,-0.639495553019607,0.480146842838489));
#1107=DIRECTION('ref_axis',(0.62454486634969,-7.80153835032225E-15,-0.780988930725813));
#1108=DIRECTION('center_axis',(-0.600420225325883,0.639495553019612,-0.480146842838477));
#1109=DIRECTION('ref_axis',(0.624544866349683,8.52736837325271E-17,-0.780988930725818));
#1110=DIRECTION('',(-0.600420225325878,0.639495553019607,-0.480146842838489));
#1111=DIRECTION('center_axis',(0.600420225325878,-0.639495553019607,0.480146842838489));
#1112=DIRECTION('ref_axis',(0.62454486634969,-7.80153835032225E-15,-0.780988930725813));
#1113=DIRECTION('center_axis',(-0.600420225325883,0.639495553019612,-0.480146842838477));
#1114=DIRECTION('ref_axis',(0.624544866349683,8.52736837325271E-17,-0.780988930725818));
#1115=DIRECTION('',(-0.600420225325878,0.639495553019607,-0.480146842838489));
#1116=DIRECTION('center_axis',(0.600420225325878,-0.639495553019607,0.480146842838489));
#1117=DIRECTION('ref_axis',(0.62454486634969,-7.80153835032225E-15,-0.780988930725813));
#1118=DIRECTION('center_axis',(-0.600420225325883,0.639495553019612,-0.480146842838477));
#1119=DIRECTION('ref_axis',(0.624544866349683,8.52736837325271E-17,-0.780988930725818));
#1120=DIRECTION('',(-0.600420225325878,0.639495553019607,-0.480146842838489));
#1121=DIRECTION('center_axis',(0.600420225325878,-0.639495553019607,0.480146842838489));
#1122=DIRECTION('ref_axis',(0.62454486634969,-7.80153835032225E-15,-0.780988930725813));
#1123=DIRECTION('center_axis',(-0.600420225325883,0.639495553019612,-0.480146842838477));
#1124=DIRECTION('ref_axis',(0.624544866349683,8.52736837325271E-17,-0.780988930725818));
#1125=DIRECTION('',(-0.600420225325878,0.639495553019607,-0.480146842838489));
#1126=DIRECTION('center_axis',(0.799684658487095,0.480146842838475,-0.360504446980371));
#1127=DIRECTION('ref_axis',(-1.51183356843622E-14,0.600420225325881,0.799684658487093));
#1128=DIRECTION('',(-1.50850056664318E-14,0.600420225325881,0.799684658487092));
#1129=DIRECTION('',(0.600420225325878,-0.639495553019607,0.480146842838489));
#1130=DIRECTION('center_axis',(1.47382106518989E-14,-0.600420225325894,
-0.799684658487083));
#1131=DIRECTION('ref_axis',(0.799684658487091,0.480146842838473,-0.360504446980381));
#1132=DIRECTION('',(0.799684658487091,0.480146842838474,-0.360504446980381));
#1133=DIRECTION('',(0.600420225325878,-0.639495553019607,0.480146842838489));
#1134=DIRECTION('center_axis',(-0.479810795092235,-0.768424285963796,-0.423445058601452));
#1135=DIRECTION('ref_axis',(0.639747726789685,0.0238653390752593,-0.768214352676551));
#1136=DIRECTION('',(0.639747726789685,0.0238653390752594,-0.768214352676551));
#1137=DIRECTION('',(0.600420225325878,-0.639495553019607,0.480146842838489));
#1138=DIRECTION('center_axis',(0.600420225325878,-0.639495553019607,0.480146842838489));
#1139=DIRECTION('ref_axis',(-0.549453341428395,0.106347228593992,0.828728720730462));
#1140=DIRECTION('center_axis',(0.600420225325883,-0.639495553019612,0.480146842838477));
#1141=DIRECTION('ref_axis',(-0.549453341428388,0.106347228593984,0.828728720730468));
#1142=DIRECTION('',(0.600420225325878,-0.639495553019607,0.480146842838489));
#1143=DIRECTION('center_axis',(-0.5494533414284,0.106347228593985,0.82872872073046));
#1144=DIRECTION('ref_axis',(-0.581030617620785,-0.761403772408911,-0.287519941480045));
#1145=DIRECTION('',(-0.581030617620785,-0.761403772408912,-0.287519941480044));
#1146=DIRECTION('',(0.600420225325878,-0.639495553019607,0.480146842838489));
#1147=DIRECTION('center_axis',(-0.799684658487095,-0.480146842838474,0.360504446980372));
#1148=DIRECTION('ref_axis',(1.39127024779425E-14,-0.600420225325882,-0.799684658487092));
#1149=DIRECTION('',(1.38793724600121E-14,-0.600420225325882,-0.799684658487092));
#1150=DIRECTION('',(0.600420225325878,-0.639495553019607,0.480146842838489));
#1151=DIRECTION('center_axis',(-0.549453341428365,-0.766153026726968,-0.333332514511127));
#1152=DIRECTION('ref_axis',(0.581030617620808,-0.0636787037026676,-0.811386741376719));
#1153=DIRECTION('',(0.581030617620808,-0.0636787037026675,-0.811386741376719));
#1154=DIRECTION('',(0.600420225325878,-0.639495553019607,0.480146842838489));
#1155=DIRECTION('center_axis',(0.600420225325878,-0.639495553019607,0.480146842838489));
#1156=DIRECTION('ref_axis',(-0.549453341428392,0.106347228593996,0.828728720730464));
#1157=DIRECTION('center_axis',(0.600420225325883,-0.639495553019612,0.480146842838477));
#1158=DIRECTION('ref_axis',(-0.549453341428385,0.106347228593988,0.82872872073047));
#1159=DIRECTION('',(0.600420225325878,-0.639495553019607,0.480146842838489));
#1160=DIRECTION('center_axis',(-0.549453341428402,0.106347228593984,0.828728720730459));
#1161=DIRECTION('ref_axis',(-0.581030617620783,-0.761403772408912,-0.287519941480046));
#1162=DIRECTION('',(-0.581030617620783,-0.761403772408912,-0.287519941480046));
#1163=DIRECTION('',(0.600420225325878,-0.639495553019607,0.480146842838489));
#1164=DIRECTION('center_axis',(-0.799684658487095,-0.480146842838475,0.360504446980371));
#1165=DIRECTION('ref_axis',(1.45538308653811E-14,-0.600420225325882,-0.799684658487092));
#1166=DIRECTION('',(1.45205008474507E-14,-0.600420225325882,-0.799684658487092));
#1167=DIRECTION('',(0.600420225325878,-0.639495553019607,0.480146842838489));
#1168=DIRECTION('center_axis',(-0.549453341428367,-0.766153026726968,-0.333332514511124));
#1169=DIRECTION('ref_axis',(0.581030617620806,-0.0636787037026699,-0.81138674137672));
#1170=DIRECTION('',(0.581030617620806,-0.0636787037026698,-0.81138674137672));
#1171=DIRECTION('',(0.600420225325878,-0.639495553019607,0.480146842838489));
#1172=DIRECTION('center_axis',(0.600420225325878,-0.639495553019607,0.480146842838489));
#1173=DIRECTION('ref_axis',(-0.549889968783886,0.105774822642706,0.828512346996568));
#1174=DIRECTION('center_axis',(0.600420225325883,-0.639495553019612,0.480146842838477));
#1175=DIRECTION('ref_axis',(-0.549889968783878,0.105774822642697,0.828512346996574));
#1176=DIRECTION('',(0.600420225325878,-0.639495553019607,0.480146842838489));
#1177=DIRECTION('center_axis',(-0.549889968783908,0.105774822642677,0.828512346996557));
#1178=DIRECTION('ref_axis',(-0.58061740866982,-0.761483502489091,-0.288142846842481));
#1179=DIRECTION('',(-0.58061740866982,-0.761483502489091,-0.28814284684248));
#1180=DIRECTION('',(0.600420225325878,-0.639495553019607,0.480146842838489));
#1181=DIRECTION('center_axis',(-2.24820162486594E-14,0.600420225325889,
0.799684658487087));
#1182=DIRECTION('ref_axis',(-0.799684658487092,-0.480146842838479,0.360504446980373));
#1183=DIRECTION('',(-0.799684658487091,-0.480146842838479,0.360504446980373));
#1184=DIRECTION('',(0.600420225325878,-0.639495553019607,0.480146842838489));
#1185=DIRECTION('center_axis',(0.549889968783871,0.766104940566014,0.332722470343105));
#1186=DIRECTION('ref_axis',(-0.580617408669846,0.0642546318057332,0.811637090725296));
#1187=DIRECTION('',(-0.580617408669846,0.0642546318057331,0.811637090725296));
#1188=DIRECTION('',(0.600420225325878,-0.639495553019607,0.480146842838489));
#1189=DIRECTION('center_axis',(0.600420225325878,-0.639495553019607,0.480146842838489));
#1190=DIRECTION('ref_axis',(0.549453341428403,-0.106347228593981,-0.828728720730458));
#1191=DIRECTION('center_axis',(0.600420225325883,-0.639495553019612,0.480146842838477));
#1192=DIRECTION('ref_axis',(0.549453341428396,-0.106347228593973,-0.828728720730464));
#1193=DIRECTION('',(0.600420225325878,-0.639495553019607,0.480146842838489));
#1194=DIRECTION('center_axis',(0.549453341428404,-0.106347228593981,-0.828728720730458));
#1195=DIRECTION('ref_axis',(0.581030617620781,0.761403772408912,0.28751994148005));
#1196=DIRECTION('',(0.581030617620781,0.761403772408912,0.287519941480049));
#1197=DIRECTION('',(0.600420225325878,-0.639495553019607,0.480146842838489));
#1198=DIRECTION('center_axis',(0.799684658487095,0.480146842838476,-0.36050444698037));
#1199=DIRECTION('ref_axis',(-1.62933602264749E-14,0.600420225325882,0.799684658487092));
#1200=DIRECTION('',(-1.62600302085445E-14,0.600420225325882,0.799684658487092));
#1201=DIRECTION('',(0.600420225325878,-0.639495553019607,0.480146842838489));
#1202=DIRECTION('center_axis',(0.549453341428371,0.766153026726967,0.333332514511119));
#1203=DIRECTION('ref_axis',(-0.581030617620801,0.0636787037026731,0.811386741376724));
#1204=DIRECTION('',(-0.581030617620801,0.063678703702673,0.811386741376724));
#1205=DIRECTION('',(0.600420225325878,-0.639495553019607,0.480146842838489));
#1206=DIRECTION('center_axis',(0.600420225325878,-0.639495553019607,0.480146842838489));
#1207=DIRECTION('ref_axis',(0.549453341428402,-0.106347228593984,-0.828728720730459));
#1208=DIRECTION('center_axis',(0.600420225325883,-0.639495553019612,0.480146842838477));
#1209=DIRECTION('ref_axis',(0.549453341428394,-0.106347228593975,-0.828728720730465));
#1210=DIRECTION('',(0.600420225325878,-0.639495553019607,0.480146842838489));
#1211=DIRECTION('center_axis',(0.549453341428392,-0.106347228593997,-0.828728720730464));
#1212=DIRECTION('ref_axis',(0.581030617620793,0.76140377240891,0.287519941480032));
#1213=DIRECTION('',(0.581030617620793,0.76140377240891,0.287519941480032));
#1214=DIRECTION('',(0.600420225325878,-0.639495553019607,0.480146842838489));
#1215=DIRECTION('center_axis',(0.799684658487095,0.480146842838476,-0.36050444698037));
#1216=DIRECTION('ref_axis',(-1.55780370148802E-14,0.600420225325881,0.799684658487093));
#1217=DIRECTION('',(-1.55447069969499E-14,0.600420225325881,0.799684658487093));
#1218=DIRECTION('',(0.600420225325878,-0.639495553019607,0.480146842838489));
#1219=DIRECTION('center_axis',(0.54945334142837,0.766153026726967,0.33333251451112));
#1220=DIRECTION('ref_axis',(-0.581030617620803,0.0636787037026744,0.811386741376722));
#1221=DIRECTION('',(-0.581030617620803,0.0636787037026743,0.811386741376722));
#1222=DIRECTION('',(0.600420225325878,-0.639495553019607,0.480146842838489));
#1223=DIRECTION('center_axis',(0.600420225325878,-0.639495553019607,0.480146842838489));
#1224=DIRECTION('ref_axis',(0.479810795092284,-0.192248074557615,-0.856050394977889));
#1225=DIRECTION('center_axis',(0.600420225325883,-0.639495553019612,0.480146842838477));
#1226=DIRECTION('ref_axis',(0.479810795092276,-0.192248074557607,-0.856050394977895));
#1227=DIRECTION('',(0.600420225325878,-0.639495553019607,0.480146842838489));
#1228=DIRECTION('center_axis',(0.479810795092266,-0.192248074557636,-0.856050394977894));
#1229=DIRECTION('ref_axis',(0.639747726789671,0.744369609466309,0.191407237507945));
#1230=DIRECTION('',(0.639747726789671,0.744369609466309,0.191407237507945));
#1231=DIRECTION('',(0.600420225325878,-0.639495553019607,0.480146842838489));
#1232=DIRECTION('center_axis',(1.60427227058335E-14,-0.600420225325893,
-0.799684658487084));
#1233=DIRECTION('ref_axis',(0.799684658487091,0.480146842838474,-0.36050444698038));
#1234=DIRECTION('',(0.799684658487091,0.480146842838475,-0.36050444698038));
#1235=DIRECTION('center_axis',(0.600420225325883,-0.639495553019612,0.480146842838477));
#1236=DIRECTION('ref_axis',(0.624544866349683,1.14752550295219E-16,-0.780988930725818));
#1237=CARTESIAN_POINT('',(0.,0.,0.));
#1238=CARTESIAN_POINT('Origin',(33.0634607826363,36.6255680868316,-169.767419487636));
#1239=CARTESIAN_POINT('',(32.3965315153953,36.8300578506945,-170.327231321178));
#1240=CARTESIAN_POINT('',(32.9029984657704,37.3292232663827,-170.295738740699));
#1241=CARTESIAN_POINT('Origin',(32.5831246023758,37.137164529247,-170.151536961907));
#1242=CARTESIAN_POINT('',(33.3833346460311,36.817626823967,-169.911621266429));
#1243=CARTESIAN_POINT('',(33.3833346460311,36.817626823967,-169.911621266429));
#1244=CARTESIAN_POINT('',(32.8768676956559,36.3184614082788,-169.943113846907));
#1245=CARTESIAN_POINT('Origin',(33.0634607826365,36.6255680868314,-169.767419487636));
#1246=CARTESIAN_POINT('',(32.876867695656,36.3184614082788,-169.943113846907));
#1247=CARTESIAN_POINT('Origin',(33.3833346460301,77.4604568243183,-115.780454030782));
#1248=CARTESIAN_POINT('',(32.9029984657694,77.972053266734,-116.164571505053));
#1249=CARTESIAN_POINT('',(32.9029984657694,77.972053266734,-116.164571505053));
#1250=CARTESIAN_POINT('',(33.3833346460301,77.4604568243183,-115.780454030782));
#1251=CARTESIAN_POINT('',(33.3833346460301,77.4604568243183,-115.780454030782));
#1252=CARTESIAN_POINT('',(33.3833346460303,66.7906317364577,-129.991326802218));
#1253=CARTESIAN_POINT('Origin',(28.1848589806961,54.4942717567252,-141.534040615085));
#1254=CARTESIAN_POINT('',(31.4635660804936,36.4953649085822,-169.606333800555));
#1255=CARTESIAN_POINT('Origin',(31.4635660804937,35.2945244579304,-171.205703117529));
#1256=CARTESIAN_POINT('',(24.9061518808995,32.5581607973066,-166.650197335316));
#1257=CARTESIAN_POINT('',(31.4635660804936,36.4953649085822,-169.606333800555));
#1258=CARTESIAN_POINT('',(23.9731864459979,31.7725111061292,-166.529917812984));
#1259=CARTESIAN_POINT('Origin',(24.9061518808995,31.3573203466549,-168.24956665229));
#1260=CARTESIAN_POINT('',(23.4667194956228,31.6634905208887,-166.041786266331));
#1261=CARTESIAN_POINT('Origin',(23.7865933590179,31.8555492580238,-166.185988045123));
#1262=CARTESIAN_POINT('',(23.4667194956217,72.30632052124,-111.910619030684));
#1263=CARTESIAN_POINT('',(23.4667194956217,72.30632052124,-111.910619030684));
#1264=CARTESIAN_POINT('',(23.4667194956217,72.30632052124,-111.910619030684));
#1265=CARTESIAN_POINT('Origin',(24.2669295392783,31.3439528156084,-165.801870570852));
#1266=CARTESIAN_POINT('',(24.4535226262586,31.2609146637135,-166.145800338714));
#1267=CARTESIAN_POINT('',(24.4535226262586,31.2609146637136,-166.145800338714));
#1268=CARTESIAN_POINT('',(23.9470556758835,31.151894078473,-165.65766879206));
#1269=CARTESIAN_POINT('Origin',(24.2669295392785,31.3439528156082,-165.801870570852));
#1270=CARTESIAN_POINT('',(23.9470556758835,31.151894078473,-165.65766879206));
#1271=CARTESIAN_POINT('Origin',(23.9470556758835,30.5048938043007,-166.519392250846));
#1272=CARTESIAN_POINT('',(23.9470556758824,71.7947240788243,-111.526501556414));
#1273=CARTESIAN_POINT('',(23.9470556758832,40.4799838537019,-153.233819675065));
#1274=CARTESIAN_POINT('',(23.9470556758824,71.7947240788243,-111.526501556414));
#1275=CARTESIAN_POINT('Origin',(23.9470556758824,71.7947240788243,-111.526501556414));
#1276=CARTESIAN_POINT('',(26.3664965340858,73.2474053040694,-112.617205472428));
#1277=CARTESIAN_POINT('Origin',(28.7859373922897,53.3604363535933,-142.129654931313));
#1278=CARTESIAN_POINT('',(23.7871187441861,29.8854302185623,-167.144440284059));
#1279=CARTESIAN_POINT('Origin',(25.3864880611605,30.845723904239,-167.865449178019));
#1280=CARTESIAN_POINT('',(23.7871187441861,27.6038333623239,-170.18324198631));
#1281=CARTESIAN_POINT('',(23.7871187441861,27.6038333623239,-170.18324198631));
#1282=CARTESIAN_POINT('',(22.5076232906068,26.8355984137823,-169.606434871141));
#1283=CARTESIAN_POINT('',(22.5076232906068,26.8355984137823,-169.606434871141));
#1284=CARTESIAN_POINT('',(19.3088846566583,26.716271718406,-165.765363107758));
#1285=CARTESIAN_POINT('',(19.3088846566583,26.716271718406,-165.765363107758));
#1286=CARTESIAN_POINT('',(19.0651357444819,29.7779720193583,-161.382754880097));
#1287=CARTESIAN_POINT('Origin',(20.9882224394812,29.4057567192793,-164.283305402653));
#1288=CARTESIAN_POINT('',(22.5076232906067,34.2891336080937,-159.679258045695));
#1289=CARTESIAN_POINT('',(22.5076232906067,34.2891336080937,-159.679258045695));
#1290=CARTESIAN_POINT('',(22.5076232906064,45.7525195157838,-144.411461495834));
#1291=CARTESIAN_POINT('',(22.5076232906064,45.7525195157838,-144.411461495834));
#1292=CARTESIAN_POINT('',(19.0651357444815,46.1298028082675,-139.604161041139));
#1293=CARTESIAN_POINT('',(19.0651357444815,46.1298028082675,-139.604161041139));
#1294=CARTESIAN_POINT('',(19.0651357444814,49.1835537018908,-135.536946717794));
#1295=CARTESIAN_POINT('Origin',(20.9882224394808,48.8113384018118,-138.43749724035));
#1296=CARTESIAN_POINT('',(22.5076232906062,53.6947152906262,-133.833449883392));
#1297=CARTESIAN_POINT('',(22.5076232906062,53.6947152906262,-133.833449883392));
#1298=CARTESIAN_POINT('',(22.5076232906059,64.6657566135491,-119.221394753491));
#1299=CARTESIAN_POINT('',(22.5076232906059,64.6657566135491,-119.221394753491));
#1300=CARTESIAN_POINT('',(19.065135744481,65.0430399060328,-114.414094298796));
#1301=CARTESIAN_POINT('',(19.065135744481,65.0430399060328,-114.414094298796));
#1302=CARTESIAN_POINT('',(19.0636075487367,68.0947873788266,-110.347637283519));
#1303=CARTESIAN_POINT('Origin',(20.9882224394803,67.7245754995772,-113.247430498007));
#1304=CARTESIAN_POINT('',(22.5076232906057,72.6116363926275,-108.638476508085));
#1305=CARTESIAN_POINT('',(22.5076232906057,72.6116363926275,-108.638476508085));
#1306=CARTESIAN_POINT('',(34.8227670313068,80.00589777234,-114.190244991583));
#1307=CARTESIAN_POINT('',(34.8227670313068,80.00589777234,-114.190244991583));
#1308=CARTESIAN_POINT('',(38.2667827731759,79.624762174057,-119.004587233829));
#1309=CARTESIAN_POINT('',(38.2667827731759,79.624762174057,-119.004587233829));
#1310=CARTESIAN_POINT('',(38.2652545774318,76.571179581997,-123.069666402587));
#1311=CARTESIAN_POINT('Origin',(36.3421678824324,76.9433948820759,-120.16911588003));
#1312=CARTESIAN_POINT('',(34.822767031307,72.0600179932616,-124.773163236989));
#1313=CARTESIAN_POINT('',(34.822767031307,72.0600179932616,-124.773163236989));
#1314=CARTESIAN_POINT('',(34.8227670313073,61.0889766703387,-139.385218366889));
#1315=CARTESIAN_POINT('',(34.8227670313073,61.0889766703387,-139.385218366889));
#1316=CARTESIAN_POINT('',(38.2652545774322,60.711693377855,-144.192518821585));
#1317=CARTESIAN_POINT('',(38.2652545774322,60.711693377855,-144.192518821585));
#1318=CARTESIAN_POINT('',(38.2652545774323,57.6579424842317,-148.25973314493));
#1319=CARTESIAN_POINT('Origin',(36.3421678824329,58.0301577843106,-145.359182622373));
#1320=CARTESIAN_POINT('',(34.8227670313075,53.1467808954962,-149.963229979332));
#1321=CARTESIAN_POINT('',(34.8227670313075,53.1467808954962,-149.963229979332));
#1322=CARTESIAN_POINT('',(34.8227670313078,41.6833949878062,-165.231026529192));
#1323=CARTESIAN_POINT('',(34.8227670313078,41.6833949878062,-165.231026529192));
#1324=CARTESIAN_POINT('',(38.2652545774327,41.3061116953225,-170.038326983887));
#1325=CARTESIAN_POINT('',(38.2652545774327,41.3061116953225,-170.038326983887));
#1326=CARTESIAN_POINT('',(38.0215056652564,37.9517078408265,-174.201167167099));
#1327=CARTESIAN_POINT('Origin',(36.3421678824334,38.6245761017781,-171.204990784676));
#1328=CARTESIAN_POINT('',(34.822767031308,34.2298597934949,-175.158203354639));
#1329=CARTESIAN_POINT('',(34.822767031308,34.2298597934949,-175.158203354639));
#1330=CARTESIAN_POINT('',(33.5432715777286,33.4616248449533,-174.58139623947));
#1331=CARTESIAN_POINT('',(33.5432715777286,33.4616248449533,-174.58139623947));
#1332=CARTESIAN_POINT('',(33.5432715777286,35.7432217011917,-171.542594537219));
#1333=CARTESIAN_POINT('',(33.5432715777275,77.6765702379512,-115.692617988481));
#1334=CARTESIAN_POINT('Origin',(31.9439022607546,34.7829280155144,-170.821585643258));
#1335=CARTESIAN_POINT('',(20.3636775731311,48.8113384018118,-137.656508309625));
#1336=CARTESIAN_POINT('Origin',(20.9882224394808,48.8113384018118,-138.43749724035));
#1337=CARTESIAN_POINT('',(20.3636775731306,67.7245754995772,-112.466441567281));
#1338=CARTESIAN_POINT('Origin',(20.9882224394803,67.7245754995772,-113.247430498007));
#1339=CARTESIAN_POINT('',(35.7176230160832,58.0301577843106,-144.578193691648));
#1340=CARTESIAN_POINT('Origin',(36.3421678824329,58.0301577843106,-145.359182622373));
#1341=CARTESIAN_POINT('',(35.7176230160827,76.9433948820759,-119.388126949304));
#1342=CARTESIAN_POINT('Origin',(36.3421678824324,76.9433948820759,-120.16911588003));
#1343=CARTESIAN_POINT('',(35.7176230160837,38.6245761017781,-170.424001853951));
#1344=CARTESIAN_POINT('Origin',(36.3421678824334,38.6245761017781,-171.204990784676));
#1345=CARTESIAN_POINT('',(20.3636775731316,29.4057567192793,-163.502316471927));
#1346=CARTESIAN_POINT('Origin',(20.9882224394812,29.4057567192793,-164.283305402653));
#1347=CARTESIAN_POINT('Origin',(25.3864880611603,30.8457239042392,-167.865449178019));
#1348=CARTESIAN_POINT('',(25.9869082864861,31.4070688018714,-165.785933018207));
#1349=CARTESIAN_POINT('',(25.3864880611602,32.046564354891,-166.266079861045));
#1350=CARTESIAN_POINT('',(24.3875389695119,29.2459346655426,-166.66429344122));
#1351=CARTESIAN_POINT('Origin',(25.9869082864864,30.2062283512193,-167.385302335181));
#1352=CARTESIAN_POINT('',(23.7871187441861,29.8854302185623,-167.144440284059));
#1353=CARTESIAN_POINT('Origin',(23.787118744186,31.086270669214,-165.545070967084));
#1354=CARTESIAN_POINT('',(32.5443224860802,35.3442729131469,-168.742069483446));
#1355=CARTESIAN_POINT('',(31.9439022607544,35.9837684661665,-169.222216326284));
#1356=CARTESIAN_POINT('',(34.1436918030544,36.3045665988238,-169.463078377407));
#1357=CARTESIAN_POINT('Origin',(31.9439022607544,34.7829280155147,-170.821585643258));
#1358=CARTESIAN_POINT('',(34.1436918030545,35.1037261481721,-171.062447694381));
#1359=CARTESIAN_POINT('',(33.5432715777286,35.7432217011916,-171.542594537219));
#1360=CARTESIAN_POINT('Origin',(32.5443224860805,34.1434324624948,-170.34143880042));
#1361=CARTESIAN_POINT('Origin',(33.5432715777285,36.9440621518434,-169.943225220245));
#1362=CARTESIAN_POINT('',(34.1436918030545,32.8221292919337,-174.101249396632));
#1363=CARTESIAN_POINT('',(33.5432715777286,33.4616248449533,-174.58139623947));
#1364=CARTESIAN_POINT('',(34.1436918030534,77.0370746849316,-115.212471145642));
#1365=CARTESIAN_POINT('Origin',(20.9882224394808,48.8113384018118,-138.43749724035));
#1366=CARTESIAN_POINT('',(20.964097798457,48.1718428487922,-137.176361466786));
#1367=CARTESIAN_POINT('Origin',(21.5886426648067,48.1718428487922,-137.957350397512));
#1368=CARTESIAN_POINT('',(20.3636775731311,48.8113384018119,-137.656508309625));
#1369=CARTESIAN_POINT('Origin',(20.9882224394803,67.7245754995772,-113.247430498007));
#1370=CARTESIAN_POINT('',(20.9640977984565,67.0850799465576,-111.986294724443));
#1371=CARTESIAN_POINT('Origin',(21.5886426648062,67.0850799465575,-112.767283655168));
#1372=CARTESIAN_POINT('',(20.3636775731306,67.7245754995772,-112.466441567281));
#1373=CARTESIAN_POINT('Origin',(36.3421678824329,58.0301577843106,-145.359182622373));
#1374=CARTESIAN_POINT('',(36.3180432414091,57.390662231291,-144.098046848809));
#1375=CARTESIAN_POINT('Origin',(36.9425881077588,57.390662231291,-144.879035779535));
#1376=CARTESIAN_POINT('',(35.7176230160832,58.0301577843106,-144.578193691648));
#1377=CARTESIAN_POINT('Origin',(36.3421678824324,76.9433948820759,-120.16911588003));
#1378=CARTESIAN_POINT('',(36.3180432414086,76.3038993290563,-118.907980106466));
#1379=CARTESIAN_POINT('Origin',(36.9425881077583,76.3038993290563,-119.688969037192));
#1380=CARTESIAN_POINT('',(35.7176230160827,76.9433948820759,-119.388126949304));
#1381=CARTESIAN_POINT('Origin',(36.3421678824334,38.6245761017781,-171.204990784676));
#1382=CARTESIAN_POINT('',(36.3180432414096,37.9850805487585,-169.943855011112));
#1383=CARTESIAN_POINT('Origin',(36.9425881077593,37.9850805487585,-170.724843941838));
#1384=CARTESIAN_POINT('',(35.7176230160837,38.6245761017781,-170.424001853951));
#1385=CARTESIAN_POINT('Origin',(20.9882224394812,29.4057567192793,-164.283305402653));
#1386=CARTESIAN_POINT('',(20.9640977984575,28.7662611662597,-163.022169629089));
#1387=CARTESIAN_POINT('Origin',(21.5886426648071,28.7662611662597,-163.803158559815));
#1388=CARTESIAN_POINT('',(20.3636775731316,29.4057567192793,-163.502316471927));
#1389=CARTESIAN_POINT('Origin',(23.7871187441861,27.6038333623239,-170.18324198631));
#1390=CARTESIAN_POINT('',(24.387538969512,26.9643378093043,-169.703095143471));
#1391=CARTESIAN_POINT('',(24.387538969512,26.9643378093043,-169.703095143471));
#1392=CARTESIAN_POINT('',(23.7871187441861,27.6038333623239,-170.18324198631));
#1393=CARTESIAN_POINT('Origin',(22.5076232906068,26.8355984137823,-169.606434871141));
#1394=CARTESIAN_POINT('',(23.1080435159327,26.1961028607627,-169.126288028303));
#1395=CARTESIAN_POINT('',(23.1080435159327,26.1961028607627,-169.126288028303));
#1396=CARTESIAN_POINT('',(22.5076232906068,26.8355984137823,-169.606434871141));
#1397=CARTESIAN_POINT('Origin',(19.3088846566583,26.716271718406,-165.765363107758));
#1398=CARTESIAN_POINT('',(19.9093048819842,26.0767761653864,-165.28521626492));
#1399=CARTESIAN_POINT('',(19.9093048819842,26.0767761653864,-165.28521626492));
#1400=CARTESIAN_POINT('',(19.3088846566583,26.716271718406,-165.765363107758));
#1401=CARTESIAN_POINT('Origin',(20.9882224394812,29.4057567192793,-164.283305402653));
#1402=CARTESIAN_POINT('',(19.6655559698078,29.1384764663386,-160.902608037258));
#1403=CARTESIAN_POINT('Origin',(21.5886426648071,28.7662611662597,-163.803158559815));
#1404=CARTESIAN_POINT('',(19.0651357444819,29.7779720193583,-161.382754880097));
#1405=CARTESIAN_POINT('Origin',(22.5076232906067,34.2891336080937,-159.679258045695));
#1406=CARTESIAN_POINT('',(23.1080435159326,33.6496380550741,-159.199111202856));
#1407=CARTESIAN_POINT('',(23.1080435159326,33.6496380550741,-159.199111202856));
#1408=CARTESIAN_POINT('',(22.5076232906067,34.2891336080937,-159.679258045695));
#1409=CARTESIAN_POINT('Origin',(22.5076232906064,45.7525195157838,-144.411461495834));
#1410=CARTESIAN_POINT('',(23.1080435159323,45.1130239627642,-143.931314652996));
#1411=CARTESIAN_POINT('',(23.1080435159323,45.1130239627642,-143.931314652996));
#1412=CARTESIAN_POINT('',(22.5076232906064,45.7525195157838,-144.411461495834));
#1413=CARTESIAN_POINT('Origin',(19.0651357444815,46.1298028082675,-139.604161041139));
#1414=CARTESIAN_POINT('',(19.6655559698074,45.4903072552479,-139.124014198301));
#1415=CARTESIAN_POINT('',(19.6655559698074,45.4903072552479,-139.124014198301));
#1416=CARTESIAN_POINT('',(19.0651357444815,46.1298028082675,-139.604161041139));
#1417=CARTESIAN_POINT('Origin',(20.9882224394808,48.8113384018118,-138.43749724035));
#1418=CARTESIAN_POINT('',(19.6655559698073,48.5440581488712,-135.056799874955));
#1419=CARTESIAN_POINT('Origin',(21.5886426648067,48.1718428487922,-137.957350397512));
#1420=CARTESIAN_POINT('',(19.0651357444814,49.1835537018908,-135.536946717794));
#1421=CARTESIAN_POINT('Origin',(22.5076232906062,53.6947152906262,-133.833449883392));
#1422=CARTESIAN_POINT('',(23.1080435159321,53.0552197376066,-133.353303040553));
#1423=CARTESIAN_POINT('',(23.1080435159321,53.0552197376066,-133.353303040553));
#1424=CARTESIAN_POINT('',(22.5076232906062,53.6947152906262,-133.833449883392));
#1425=CARTESIAN_POINT('Origin',(22.5076232906059,64.6657566135491,-119.221394753491));
#1426=CARTESIAN_POINT('',(23.1080435159318,64.0262610605295,-118.741247910652));
#1427=CARTESIAN_POINT('',(23.1080435159318,64.0262610605295,-118.741247910652));
#1428=CARTESIAN_POINT('',(22.5076232906059,64.6657566135491,-119.221394753491));
#1429=CARTESIAN_POINT('Origin',(19.065135744481,65.0430399060328,-114.414094298796));
#1430=CARTESIAN_POINT('',(19.6655559698069,64.4035443530132,-113.933947455957));
#1431=CARTESIAN_POINT('',(19.6655559698069,64.4035443530132,-113.933947455957));
#1432=CARTESIAN_POINT('',(19.065135744481,65.0430399060328,-114.414094298796));
#1433=CARTESIAN_POINT('Origin',(20.9882224394803,67.7245754995772,-113.247430498007));
#1434=CARTESIAN_POINT('',(19.6640277740626,67.455291825807,-109.86749044068));
#1435=CARTESIAN_POINT('Origin',(21.5886426648062,67.0850799465575,-112.767283655168));
#1436=CARTESIAN_POINT('',(19.0636075487367,68.0947873788266,-110.347637283519));
#1437=CARTESIAN_POINT('Origin',(22.5076232906057,72.6116363926275,-108.638476508085));
#1438=CARTESIAN_POINT('',(23.1080435159315,71.9721408396079,-108.158329665247));
#1439=CARTESIAN_POINT('',(23.1080435159315,71.9721408396079,-108.158329665247));
#1440=CARTESIAN_POINT('',(22.5076232906057,72.6116363926275,-108.638476508085));
#1441=CARTESIAN_POINT('Origin',(34.8227670313068,80.00589777234,-114.190244991583));
#1442=CARTESIAN_POINT('',(35.4231872566327,79.3664022193205,-113.710098148744));
#1443=CARTESIAN_POINT('',(35.4231872566327,79.3664022193204,-113.710098148744));
#1444=CARTESIAN_POINT('',(34.8227670313068,80.00589777234,-114.190244991583));
#1445=CARTESIAN_POINT('Origin',(38.2667827731759,79.624762174057,-119.004587233829));
#1446=CARTESIAN_POINT('',(38.8672029985018,78.9852666210374,-118.524440390991));
#1447=CARTESIAN_POINT('',(38.8672029985018,78.9852666210374,-118.524440390991));
#1448=CARTESIAN_POINT('',(38.2667827731759,79.624762174057,-119.004587233829));
#1449=CARTESIAN_POINT('Origin',(36.3421678824324,76.9433948820759,-120.16911588003));
#1450=CARTESIAN_POINT('',(38.8656748027577,75.9316840289774,-122.589519559748));
#1451=CARTESIAN_POINT('Origin',(36.9425881077583,76.3038993290563,-119.688969037192));
#1452=CARTESIAN_POINT('',(38.2652545774318,76.571179581997,-123.069666402587));
#1453=CARTESIAN_POINT('Origin',(34.822767031307,72.0600179932616,-124.773163236989));
#1454=CARTESIAN_POINT('',(35.4231872566329,71.4205224402419,-124.29301639415));
#1455=CARTESIAN_POINT('',(35.4231872566329,71.420522440242,-124.29301639415));
#1456=CARTESIAN_POINT('',(34.822767031307,72.0600179932616,-124.773163236989));
#1457=CARTESIAN_POINT('Origin',(34.8227670313073,61.0889766703387,-139.385218366889));
#1458=CARTESIAN_POINT('',(35.4231872566332,60.4494811173191,-138.905071524051));
#1459=CARTESIAN_POINT('',(35.4231872566332,60.4494811173191,-138.905071524051));
#1460=CARTESIAN_POINT('',(34.8227670313073,61.0889766703387,-139.385218366889));
#1461=CARTESIAN_POINT('Origin',(38.2652545774322,60.711693377855,-144.192518821585));
#1462=CARTESIAN_POINT('',(38.8656748027581,60.0721978248354,-143.712371978746));
#1463=CARTESIAN_POINT('',(38.8656748027581,60.0721978248354,-143.712371978746));
#1464=CARTESIAN_POINT('',(38.2652545774322,60.711693377855,-144.192518821585));
#1465=CARTESIAN_POINT('Origin',(36.3421678824329,58.0301577843106,-145.359182622373));
#1466=CARTESIAN_POINT('',(38.8656748027582,57.0184469312121,-147.779586302092));
#1467=CARTESIAN_POINT('Origin',(36.9425881077588,57.390662231291,-144.879035779535));
#1468=CARTESIAN_POINT('',(38.2652545774323,57.6579424842317,-148.25973314493));
#1469=CARTESIAN_POINT('Origin',(34.8227670313075,53.1467808954962,-149.963229979332));
#1470=CARTESIAN_POINT('',(35.4231872566333,52.5072853424766,-149.483083136494));
#1471=CARTESIAN_POINT('',(35.4231872566333,52.5072853424766,-149.483083136494));
#1472=CARTESIAN_POINT('',(34.8227670313075,53.1467808954962,-149.963229979332));
#1473=CARTESIAN_POINT('Origin',(34.8227670313078,41.6833949878062,-165.231026529192));
#1474=CARTESIAN_POINT('',(35.4231872566336,41.0438994347866,-164.750879686354));
#1475=CARTESIAN_POINT('',(35.4231872566337,41.0438994347866,-164.750879686354));
#1476=CARTESIAN_POINT('',(34.8227670313078,41.6833949878062,-165.231026529192));
#1477=CARTESIAN_POINT('Origin',(38.2652545774327,41.3061116953225,-170.038326983887));
#1478=CARTESIAN_POINT('',(38.8656748027586,40.6666161423029,-169.558180141049));
#1479=CARTESIAN_POINT('',(38.8656748027586,40.6666161423029,-169.558180141049));
#1480=CARTESIAN_POINT('',(38.2652545774327,41.3061116953225,-170.038326983887));
#1481=CARTESIAN_POINT('Origin',(36.3421678824334,38.6245761017781,-171.204990784676));
#1482=CARTESIAN_POINT('',(38.6219258905823,37.3122122878069,-173.721020324261));
#1483=CARTESIAN_POINT('Origin',(36.9425881077593,37.9850805487585,-170.724843941838));
#1484=CARTESIAN_POINT('',(38.0215056652564,37.9517078408265,-174.201167167099));
#1485=CARTESIAN_POINT('Origin',(34.822767031308,34.2298597934949,-175.158203354639));
#1486=CARTESIAN_POINT('',(35.4231872566338,33.5903642404753,-174.6780565118));
#1487=CARTESIAN_POINT('',(35.4231872566338,33.5903642404753,-174.6780565118));
#1488=CARTESIAN_POINT('',(34.822767031308,34.2298597934949,-175.158203354639));
#1489=CARTESIAN_POINT('Origin',(33.5432715777286,33.4616248449533,-174.58139623947));
#1490=CARTESIAN_POINT('',(34.1436918030545,32.8221292919337,-174.101249396632));
#1491=CARTESIAN_POINT('Origin',(29.3863576176156,52.7209408005737,-141.649508088475));
#1492=UNCERTAINTY_MEASURE_WITH_UNIT(LENGTH_MEASURE(0.01),#1496,
'DISTANCE_ACCURACY_VALUE',
'Maximum model space distance between geometric entities at asserted c
onnectivities');
#1493=UNCERTAINTY_MEASURE_WITH_UNIT(LENGTH_MEASURE(0.01),#1496,
'DISTANCE_ACCURACY_VALUE',
'Maximum model space distance between geometric entities at asserted c
onnectivities');
#1494=(
GEOMETRIC_REPRESENTATION_CONTEXT(3)
GLOBAL_UNCERTAINTY_ASSIGNED_CONTEXT((#1492))
GLOBAL_UNIT_ASSIGNED_CONTEXT((#1496,#1498,#1499))
REPRESENTATION_CONTEXT('','3D')
);
#1495=(
GEOMETRIC_REPRESENTATION_CONTEXT(3)
GLOBAL_UNCERTAINTY_ASSIGNED_CONTEXT((#1493))
GLOBAL_UNIT_ASSIGNED_CONTEXT((#1496,#1498,#1499))
REPRESENTATION_CONTEXT('','3D')
);
#1496=(
LENGTH_UNIT()
NAMED_UNIT(*)
SI_UNIT(.MILLI.,.METRE.)
);
#1497=(
LENGTH_UNIT()
NAMED_UNIT(*)
SI_UNIT($,.METRE.)
);
#1498=(
NAMED_UNIT(*)
PLANE_ANGLE_UNIT()
SI_UNIT($,.RADIAN.)
);
#1499=(
NAMED_UNIT(*)
SI_UNIT($,.STERADIAN.)
SOLID_ANGLE_UNIT()
);
#1500=SHAPE_DEFINITION_REPRESENTATION(#1501,#1502);
#1501=PRODUCT_DEFINITION_SHAPE('',$,#1504);
#1502=SHAPE_REPRESENTATION('',(#908),#1494);
#1503=PRODUCT_DEFINITION_CONTEXT('part definition',#1508,'design');
#1504=PRODUCT_DEFINITION('LED Lid','LED Lid',#1505,#1503);
#1505=PRODUCT_DEFINITION_FORMATION('',$,#1510);
#1506=PRODUCT_RELATED_PRODUCT_CATEGORY('LED Lid','LED Lid',(#1510));
#1507=APPLICATION_PROTOCOL_DEFINITION('international standard',
'automotive_design',2009,#1508);
#1508=APPLICATION_CONTEXT(
'Core Data for Automotive Mechanical Design Process');
#1509=PRODUCT_CONTEXT('part definition',#1508,'mechanical');
#1510=PRODUCT('LED Lid','LED Lid',$,(#1509));
#1511=PRESENTATION_STYLE_ASSIGNMENT((#1512));
#1512=SURFACE_STYLE_USAGE(.BOTH.,#1513);
#1513=SURFACE_SIDE_STYLE('',(#1514));
#1514=SURFACE_STYLE_FILL_AREA(#1515);
#1515=FILL_AREA_STYLE('Steel - Satin',(#1516));
#1516=FILL_AREA_STYLE_COLOUR('Steel - Satin',#1517);
#1517=COLOUR_RGB('Steel - Satin',0.627450980392157,0.627450980392157,0.627450980392157);
ENDSEC;
END-ISO-10303-21;
