ISO-10303-21;
HEADER;
/* Generated by software containing ST-Developer
 * from STEP Tools, Inc. (www.steptools.com) 
 */

FILE_DESCRIPTION(
/* description */ (''),
/* implementation_level */ '2;1');

FILE_NAME(
/* name */ 'Screen Retainer.step',
/* time_stamp */ '2025-05-01T11:12:28+01:00',
/* author */ (''),
/* organization */ (''),
/* preprocessor_version */ 'ST-DEVELOPER v20.1',
/* originating_system */ 'Autodesk Translation Framework v14.4.0.0',
/* authorisation */ '');

FILE_SCHEMA (('AUTOMOTIVE_DESIGN { 1 0 10303 214 3 1 1 }'));
ENDSEC;

DATA;
#10=MECHANICAL_DESIGN_GEOMETRIC_PRESENTATION_REPRESENTATION('',(#13),#1297);
#11=SHAPE_REPRESENTATION_RELATIONSHIP('SRR','None',#1304,#12);
#12=ADVANCED_BREP_SHAPE_REPRESENTATION('',(#14),#1296);
#13=STYLED_ITEM('',(#1313),#14);
#14=MANIFOLD_SOLID_BREP('Body1',#761);
#15=CYLINDRICAL_SURFACE('',#802,1.5);
#16=CYLINDRICAL_SURFACE('',#805,1.5);
#17=CYLINDRICAL_SURFACE('',#807,5.);
#18=CYLINDRICAL_SURFACE('',#811,5.);
#19=CYLINDRICAL_SURFACE('',#814,5.);
#20=CYLINDRICAL_SURFACE('',#817,5.);
#21=CYLINDRICAL_SURFACE('',#820,0.999999999999996);
#22=CYLINDRICAL_SURFACE('',#822,1.);
#23=CYLINDRICAL_SURFACE('',#824,2.);
#24=CYLINDRICAL_SURFACE('',#827,2.);
#25=CYLINDRICAL_SURFACE('',#839,5.);
#26=CYLINDRICAL_SURFACE('',#841,5.);
#27=CYLINDRICAL_SURFACE('',#843,5.);
#28=CYLINDRICAL_SURFACE('',#845,5.);
#29=CYLINDRICAL_SURFACE('',#846,1.5);
#30=CYLINDRICAL_SURFACE('',#848,1.5);
#31=FACE_BOUND('',#113,.T.);
#32=FACE_BOUND('',#117,.T.);
#33=FACE_BOUND('',#137,.T.);
#34=FACE_BOUND('',#138,.T.);
#35=FACE_BOUND('',#139,.T.);
#36=FACE_BOUND('',#141,.T.);
#37=FACE_BOUND('',#143,.T.);
#38=CIRCLE('',#782,1.5);
#39=CIRCLE('',#783,1.5);
#40=CIRCLE('',#784,5.);
#41=CIRCLE('',#785,5.);
#42=CIRCLE('',#786,5.);
#43=CIRCLE('',#787,5.);
#44=CIRCLE('',#788,1.);
#45=CIRCLE('',#793,1.5);
#46=CIRCLE('',#794,1.5);
#47=CIRCLE('',#795,5.);
#48=CIRCLE('',#796,5.);
#49=CIRCLE('',#797,5.);
#50=CIRCLE('',#798,5.);
#51=CIRCLE('',#799,0.999999999999996);
#52=CIRCLE('',#803,1.5);
#53=CIRCLE('',#806,1.5);
#54=CIRCLE('',#808,5.00000000000005);
#55=CIRCLE('',#812,5.);
#56=CIRCLE('',#815,4.99999999999995);
#57=CIRCLE('',#818,4.99999999999997);
#58=CIRCLE('',#821,0.999999999999996);
#59=CIRCLE('',#823,1.);
#60=CIRCLE('',#825,2.);
#61=CIRCLE('',#826,2.);
#62=CIRCLE('',#828,2.);
#63=CIRCLE('',#829,2.);
#64=CIRCLE('',#831,5.00000000000001);
#65=CIRCLE('',#832,4.99999999999993);
#66=CIRCLE('',#833,4.99999999999998);
#67=CIRCLE('',#834,5.00000000000003);
#68=CIRCLE('',#835,1.5);
#69=CIRCLE('',#836,1.5);
#70=FACE_OUTER_BOUND('',#109,.T.);
#71=FACE_OUTER_BOUND('',#110,.T.);
#72=FACE_OUTER_BOUND('',#111,.T.);
#73=FACE_OUTER_BOUND('',#112,.T.);
#74=FACE_OUTER_BOUND('',#114,.T.);
#75=FACE_OUTER_BOUND('',#115,.T.);
#76=FACE_OUTER_BOUND('',#116,.T.);
#77=FACE_OUTER_BOUND('',#118,.T.);
#78=FACE_OUTER_BOUND('',#119,.T.);
#79=FACE_OUTER_BOUND('',#120,.T.);
#80=FACE_OUTER_BOUND('',#121,.T.);
#81=FACE_OUTER_BOUND('',#122,.T.);
#82=FACE_OUTER_BOUND('',#123,.T.);
#83=FACE_OUTER_BOUND('',#124,.T.);
#84=FACE_OUTER_BOUND('',#125,.T.);
#85=FACE_OUTER_BOUND('',#126,.T.);
#86=FACE_OUTER_BOUND('',#127,.T.);
#87=FACE_OUTER_BOUND('',#128,.T.);
#88=FACE_OUTER_BOUND('',#129,.T.);
#89=FACE_OUTER_BOUND('',#130,.T.);
#90=FACE_OUTER_BOUND('',#131,.T.);
#91=FACE_OUTER_BOUND('',#132,.T.);
#92=FACE_OUTER_BOUND('',#133,.T.);
#93=FACE_OUTER_BOUND('',#134,.T.);
#94=FACE_OUTER_BOUND('',#135,.T.);
#95=FACE_OUTER_BOUND('',#136,.T.);
#96=FACE_OUTER_BOUND('',#140,.T.);
#97=FACE_OUTER_BOUND('',#142,.T.);
#98=FACE_OUTER_BOUND('',#144,.T.);
#99=FACE_OUTER_BOUND('',#145,.T.);
#100=FACE_OUTER_BOUND('',#146,.T.);
#101=FACE_OUTER_BOUND('',#147,.T.);
#102=FACE_OUTER_BOUND('',#148,.T.);
#103=FACE_OUTER_BOUND('',#149,.T.);
#104=FACE_OUTER_BOUND('',#150,.T.);
#105=FACE_OUTER_BOUND('',#151,.T.);
#106=FACE_OUTER_BOUND('',#152,.T.);
#107=FACE_OUTER_BOUND('',#153,.T.);
#108=FACE_OUTER_BOUND('',#154,.T.);
#109=EDGE_LOOP('',(#483,#484,#485,#486,#487));
#110=EDGE_LOOP('',(#488,#489,#490,#491,#492));
#111=EDGE_LOOP('',(#493,#494,#495,#496,#497));
#112=EDGE_LOOP('',(#498,#499,#500,#501,#502,#503,#504,#505,#506,#507,#508,
#509,#510,#511));
#113=EDGE_LOOP('',(#512));
#114=EDGE_LOOP('',(#513,#514,#515,#516,#517));
#115=EDGE_LOOP('',(#518,#519,#520,#521));
#116=EDGE_LOOP('',(#522,#523,#524,#525,#526,#527,#528,#529,#530,#531,#532,
#533,#534,#535));
#117=EDGE_LOOP('',(#536));
#118=EDGE_LOOP('',(#537,#538,#539,#540));
#119=EDGE_LOOP('',(#541,#542,#543,#544,#545,#546));
#120=EDGE_LOOP('',(#547,#548,#549,#550,#551));
#121=EDGE_LOOP('',(#552,#553,#554,#555));
#122=EDGE_LOOP('',(#556,#557,#558,#559,#560));
#123=EDGE_LOOP('',(#561,#562,#563,#564));
#124=EDGE_LOOP('',(#565,#566,#567,#568));
#125=EDGE_LOOP('',(#569,#570,#571,#572));
#126=EDGE_LOOP('',(#573,#574,#575,#576));
#127=EDGE_LOOP('',(#577,#578,#579,#580,#581,#582,#583,#584));
#128=EDGE_LOOP('',(#585,#586,#587,#588));
#129=EDGE_LOOP('',(#589,#590,#591,#592));
#130=EDGE_LOOP('',(#593,#594,#595,#596));
#131=EDGE_LOOP('',(#597,#598,#599,#600));
#132=EDGE_LOOP('',(#601,#602,#603,#604));
#133=EDGE_LOOP('',(#605,#606,#607,#608));
#134=EDGE_LOOP('',(#609,#610,#611,#612));
#135=EDGE_LOOP('',(#613,#614,#615,#616));
#136=EDGE_LOOP('',(#617,#618,#619,#620,#621,#622,#623,#624,#625,#626,#627,
#628,#629,#630,#631,#632));
#137=EDGE_LOOP('',(#633,#634,#635,#636,#637,#638,#639,#640));
#138=EDGE_LOOP('',(#641));
#139=EDGE_LOOP('',(#642));
#140=EDGE_LOOP('',(#643));
#141=EDGE_LOOP('',(#644));
#142=EDGE_LOOP('',(#645));
#143=EDGE_LOOP('',(#646));
#144=EDGE_LOOP('',(#647,#648,#649,#650));
#145=EDGE_LOOP('',(#651,#652,#653,#654));
#146=EDGE_LOOP('',(#655,#656,#657,#658));
#147=EDGE_LOOP('',(#659,#660,#661,#662,#663,#664,#665,#666));
#148=EDGE_LOOP('',(#667,#668,#669,#670));
#149=EDGE_LOOP('',(#671,#672,#673,#674));
#150=EDGE_LOOP('',(#675,#676,#677,#678));
#151=EDGE_LOOP('',(#679,#680,#681,#682,#683));
#152=EDGE_LOOP('',(#684,#685,#686,#687,#688,#689));
#153=EDGE_LOOP('',(#690,#691,#692,#693,#694));
#154=EDGE_LOOP('',(#695,#696,#697,#698));
#155=LINE('',#1080,#227);
#156=LINE('',#1082,#228);
#157=LINE('',#1084,#229);
#158=LINE('',#1085,#230);
#159=LINE('',#1089,#231);
#160=LINE('',#1091,#232);
#161=LINE('',#1093,#233);
#162=LINE('',#1095,#234);
#163=LINE('',#1102,#235);
#164=LINE('',#1104,#236);
#165=LINE('',#1106,#237);
#166=LINE('',#1107,#238);
#167=LINE('',#1112,#239);
#168=LINE('',#1116,#240);
#169=LINE('',#1118,#241);
#170=LINE('',#1122,#242);
#171=LINE('',#1126,#243);
#172=LINE('',#1130,#244);
#173=LINE('',#1133,#245);
#174=LINE('',#1139,#246);
#175=LINE('',#1141,#247);
#176=LINE('',#1142,#248);
#177=LINE('',#1145,#249);
#178=LINE('',#1146,#250);
#179=LINE('',#1151,#251);
#180=LINE('',#1154,#252);
#181=LINE('',#1158,#253);
#182=LINE('',#1162,#254);
#183=LINE('',#1166,#255);
#184=LINE('',#1169,#256);
#185=LINE('',#1173,#257);
#186=LINE('',#1174,#258);
#187=LINE('',#1177,#259);
#188=LINE('',#1179,#260);
#189=LINE('',#1180,#261);
#190=LINE('',#1183,#262);
#191=LINE('',#1187,#263);
#192=LINE('',#1188,#264);
#193=LINE('',#1191,#265);
#194=LINE('',#1195,#266);
#195=LINE('',#1197,#267);
#196=LINE('',#1201,#268);
#197=LINE('',#1202,#269);
#198=LINE('',#1205,#270);
#199=LINE('',#1206,#271);
#200=LINE('',#1209,#272);
#201=LINE('',#1213,#273);
#202=LINE('',#1214,#274);
#203=LINE('',#1217,#275);
#204=LINE('',#1221,#276);
#205=LINE('',#1222,#277);
#206=LINE('',#1225,#278);
#207=LINE('',#1229,#279);
#208=LINE('',#1230,#280);
#209=LINE('',#1234,#281);
#210=LINE('',#1238,#282);
#211=LINE('',#1243,#283);
#212=LINE('',#1249,#284);
#213=LINE('',#1255,#285);
#214=LINE('',#1259,#286);
#215=LINE('',#1263,#287);
#216=LINE('',#1268,#288);
#217=LINE('',#1271,#289);
#218=LINE('',#1275,#290);
#219=LINE('',#1277,#291);
#220=LINE('',#1279,#292);
#221=LINE('',#1281,#293);
#222=LINE('',#1283,#294);
#223=LINE('',#1285,#295);
#224=LINE('',#1288,#296);
#225=LINE('',#1289,#297);
#226=LINE('',#1292,#298);
#227=VECTOR('',#856,10.);
#228=VECTOR('',#857,10.);
#229=VECTOR('',#858,10.);
#230=VECTOR('',#859,10.);
#231=VECTOR('',#862,10.);
#232=VECTOR('',#863,10.);
#233=VECTOR('',#864,10.);
#234=VECTOR('',#865,10.);
#235=VECTOR('',#872,10.);
#236=VECTOR('',#873,10.);
#237=VECTOR('',#874,10.);
#238=VECTOR('',#875,10.);
#239=VECTOR('',#880,10.);
#240=VECTOR('',#883,10.);
#241=VECTOR('',#884,10.);
#242=VECTOR('',#887,10.);
#243=VECTOR('',#890,10.);
#244=VECTOR('',#893,10.);
#245=VECTOR('',#896,10.);
#246=VECTOR('',#901,10.);
#247=VECTOR('',#902,10.);
#248=VECTOR('',#903,10.);
#249=VECTOR('',#908,10.);
#250=VECTOR('',#909,10.);
#251=VECTOR('',#914,10.);
#252=VECTOR('',#917,10.);
#253=VECTOR('',#920,10.);
#254=VECTOR('',#923,10.);
#255=VECTOR('',#926,10.);
#256=VECTOR('',#929,10.);
#257=VECTOR('',#934,10.);
#258=VECTOR('',#935,10.);
#259=VECTOR('',#938,10.);
#260=VECTOR('',#939,10.);
#261=VECTOR('',#940,10.);
#262=VECTOR('',#943,10.);
#263=VECTOR('',#948,10.);
#264=VECTOR('',#949,10.);
#265=VECTOR('',#952,10.);
#266=VECTOR('',#957,10.);
#267=VECTOR('',#958,10.);
#268=VECTOR('',#963,10.);
#269=VECTOR('',#964,10.);
#270=VECTOR('',#967,10.);
#271=VECTOR('',#968,10.);
#272=VECTOR('',#971,10.);
#273=VECTOR('',#976,10.);
#274=VECTOR('',#977,10.);
#275=VECTOR('',#980,10.);
#276=VECTOR('',#985,10.);
#277=VECTOR('',#986,10.);
#278=VECTOR('',#989,10.);
#279=VECTOR('',#994,10.);
#280=VECTOR('',#995,10.);
#281=VECTOR('',#1000,0.999999999999996);
#282=VECTOR('',#1005,1.);
#283=VECTOR('',#1010,2.);
#284=VECTOR('',#1017,2.);
#285=VECTOR('',#1024,10.);
#286=VECTOR('',#1027,10.);
#287=VECTOR('',#1030,10.);
#288=VECTOR('',#1035,10.);
#289=VECTOR('',#1038,10.);
#290=VECTOR('',#1045,10.);
#291=VECTOR('',#1048,10.);
#292=VECTOR('',#1051,10.);
#293=VECTOR('',#1054,10.);
#294=VECTOR('',#1057,10.);
#295=VECTOR('',#1060,10.);
#296=VECTOR('',#1065,10.);
#297=VECTOR('',#1066,10.);
#298=VECTOR('',#1071,10.);
#299=ELLIPSE('',#776,2.12132034355965,1.5);
#300=ELLIPSE('',#778,2.12132034355965,1.5);
#301=ELLIPSE('',#780,2.12132034355964,1.5);
#302=ELLIPSE('',#790,2.12132034355964,1.5);
#303=VERTEX_POINT('',#1076);
#304=VERTEX_POINT('',#1077);
#305=VERTEX_POINT('',#1079);
#306=VERTEX_POINT('',#1081);
#307=VERTEX_POINT('',#1083);
#308=VERTEX_POINT('',#1087);
#309=VERTEX_POINT('',#1088);
#310=VERTEX_POINT('',#1090);
#311=VERTEX_POINT('',#1092);
#312=VERTEX_POINT('',#1094);
#313=VERTEX_POINT('',#1098);
#314=VERTEX_POINT('',#1099);
#315=VERTEX_POINT('',#1101);
#316=VERTEX_POINT('',#1103);
#317=VERTEX_POINT('',#1105);
#318=VERTEX_POINT('',#1109);
#319=VERTEX_POINT('',#1111);
#320=VERTEX_POINT('',#1113);
#321=VERTEX_POINT('',#1115);
#322=VERTEX_POINT('',#1117);
#323=VERTEX_POINT('',#1119);
#324=VERTEX_POINT('',#1121);
#325=VERTEX_POINT('',#1123);
#326=VERTEX_POINT('',#1125);
#327=VERTEX_POINT('',#1127);
#328=VERTEX_POINT('',#1129);
#329=VERTEX_POINT('',#1131);
#330=VERTEX_POINT('',#1134);
#331=VERTEX_POINT('',#1137);
#332=VERTEX_POINT('',#1138);
#333=VERTEX_POINT('',#1140);
#334=VERTEX_POINT('',#1148);
#335=VERTEX_POINT('',#1150);
#336=VERTEX_POINT('',#1153);
#337=VERTEX_POINT('',#1155);
#338=VERTEX_POINT('',#1157);
#339=VERTEX_POINT('',#1159);
#340=VERTEX_POINT('',#1161);
#341=VERTEX_POINT('',#1163);
#342=VERTEX_POINT('',#1165);
#343=VERTEX_POINT('',#1167);
#344=VERTEX_POINT('',#1170);
#345=VERTEX_POINT('',#1176);
#346=VERTEX_POINT('',#1178);
#347=VERTEX_POINT('',#1182);
#348=VERTEX_POINT('',#1186);
#349=VERTEX_POINT('',#1190);
#350=VERTEX_POINT('',#1194);
#351=VERTEX_POINT('',#1196);
#352=VERTEX_POINT('',#1200);
#353=VERTEX_POINT('',#1204);
#354=VERTEX_POINT('',#1208);
#355=VERTEX_POINT('',#1212);
#356=VERTEX_POINT('',#1216);
#357=VERTEX_POINT('',#1220);
#358=VERTEX_POINT('',#1224);
#359=VERTEX_POINT('',#1228);
#360=VERTEX_POINT('',#1232);
#361=VERTEX_POINT('',#1236);
#362=VERTEX_POINT('',#1240);
#363=VERTEX_POINT('',#1242);
#364=VERTEX_POINT('',#1246);
#365=VERTEX_POINT('',#1248);
#366=VERTEX_POINT('',#1252);
#367=VERTEX_POINT('',#1254);
#368=VERTEX_POINT('',#1256);
#369=VERTEX_POINT('',#1258);
#370=VERTEX_POINT('',#1260);
#371=VERTEX_POINT('',#1262);
#372=VERTEX_POINT('',#1265);
#373=VERTEX_POINT('',#1266);
#374=VERTEX_POINT('',#1269);
#375=EDGE_CURVE('',#303,#304,#299,.F.);
#376=EDGE_CURVE('',#303,#305,#155,.T.);
#377=EDGE_CURVE('',#305,#306,#156,.T.);
#378=EDGE_CURVE('',#307,#306,#157,.T.);
#379=EDGE_CURVE('',#304,#307,#158,.F.);
#380=EDGE_CURVE('',#308,#309,#159,.T.);
#381=EDGE_CURVE('',#310,#309,#160,.T.);
#382=EDGE_CURVE('',#310,#311,#161,.T.);
#383=EDGE_CURVE('',#311,#312,#162,.T.);
#384=EDGE_CURVE('',#312,#308,#300,.T.);
#385=EDGE_CURVE('',#313,#314,#301,.F.);
#386=EDGE_CURVE('',#313,#315,#163,.T.);
#387=EDGE_CURVE('',#315,#316,#164,.T.);
#388=EDGE_CURVE('',#317,#316,#165,.T.);
#389=EDGE_CURVE('',#314,#317,#166,.F.);
#390=EDGE_CURVE('',#318,#313,#38,.T.);
#391=EDGE_CURVE('',#319,#318,#167,.T.);
#392=EDGE_CURVE('',#320,#319,#39,.T.);
#393=EDGE_CURVE('',#321,#320,#168,.T.);
#394=EDGE_CURVE('',#321,#322,#169,.T.);
#395=EDGE_CURVE('',#323,#322,#40,.T.);
#396=EDGE_CURVE('',#324,#323,#170,.T.);
#397=EDGE_CURVE('',#325,#324,#41,.T.);
#398=EDGE_CURVE('',#325,#326,#171,.T.);
#399=EDGE_CURVE('',#327,#326,#42,.T.);
#400=EDGE_CURVE('',#328,#327,#172,.T.);
#401=EDGE_CURVE('',#329,#328,#43,.T.);
#402=EDGE_CURVE('',#329,#315,#173,.T.);
#403=EDGE_CURVE('',#330,#330,#44,.T.);
#404=EDGE_CURVE('',#331,#332,#174,.T.);
#405=EDGE_CURVE('',#333,#332,#175,.T.);
#406=EDGE_CURVE('',#333,#321,#176,.T.);
#407=EDGE_CURVE('',#320,#331,#302,.T.);
#408=EDGE_CURVE('',#316,#310,#177,.T.);
#409=EDGE_CURVE('',#309,#317,#178,.T.);
#410=EDGE_CURVE('',#334,#303,#45,.T.);
#411=EDGE_CURVE('',#335,#334,#179,.T.);
#412=EDGE_CURVE('',#312,#335,#46,.T.);
#413=EDGE_CURVE('',#311,#336,#180,.T.);
#414=EDGE_CURVE('',#337,#336,#47,.T.);
#415=EDGE_CURVE('',#338,#337,#181,.T.);
#416=EDGE_CURVE('',#339,#338,#48,.T.);
#417=EDGE_CURVE('',#339,#340,#182,.T.);
#418=EDGE_CURVE('',#341,#340,#49,.T.);
#419=EDGE_CURVE('',#342,#341,#183,.T.);
#420=EDGE_CURVE('',#343,#342,#50,.T.);
#421=EDGE_CURVE('',#343,#305,#184,.T.);
#422=EDGE_CURVE('',#344,#344,#51,.T.);
#423=EDGE_CURVE('',#332,#307,#185,.T.);
#424=EDGE_CURVE('',#306,#333,#186,.T.);
#425=EDGE_CURVE('',#304,#345,#187,.F.);
#426=EDGE_CURVE('',#346,#331,#188,.T.);
#427=EDGE_CURVE('',#345,#346,#189,.T.);
#428=EDGE_CURVE('',#347,#334,#190,.T.);
#429=EDGE_CURVE('',#347,#345,#52,.T.);
#430=EDGE_CURVE('',#335,#348,#191,.T.);
#431=EDGE_CURVE('',#348,#347,#192,.T.);
#432=EDGE_CURVE('',#349,#308,#193,.T.);
#433=EDGE_CURVE('',#349,#348,#53,.T.);
#434=EDGE_CURVE('',#350,#341,#194,.T.);
#435=EDGE_CURVE('',#340,#351,#195,.T.);
#436=EDGE_CURVE('',#350,#351,#54,.T.);
#437=EDGE_CURVE('',#352,#339,#196,.T.);
#438=EDGE_CURVE('',#351,#352,#197,.T.);
#439=EDGE_CURVE('',#342,#353,#198,.T.);
#440=EDGE_CURVE('',#350,#353,#199,.T.);
#441=EDGE_CURVE('',#354,#343,#200,.T.);
#442=EDGE_CURVE('',#354,#353,#55,.T.);
#443=EDGE_CURVE('',#322,#355,#201,.T.);
#444=EDGE_CURVE('',#355,#354,#202,.T.);
#445=EDGE_CURVE('',#356,#323,#203,.T.);
#446=EDGE_CURVE('',#356,#355,#56,.T.);
#447=EDGE_CURVE('',#324,#357,#204,.T.);
#448=EDGE_CURVE('',#356,#357,#205,.T.);
#449=EDGE_CURVE('',#358,#325,#206,.T.);
#450=EDGE_CURVE('',#358,#357,#57,.T.);
#451=EDGE_CURVE('',#359,#358,#207,.T.);
#452=EDGE_CURVE('',#326,#359,#208,.T.);
#453=EDGE_CURVE('',#360,#360,#58,.T.);
#454=EDGE_CURVE('',#360,#344,#209,.T.);
#455=EDGE_CURVE('',#361,#361,#59,.T.);
#456=EDGE_CURVE('',#361,#330,#210,.T.);
#457=EDGE_CURVE('',#362,#362,#60,.T.);
#458=EDGE_CURVE('',#362,#363,#211,.T.);
#459=EDGE_CURVE('',#363,#363,#61,.T.);
#460=EDGE_CURVE('',#364,#364,#62,.T.);
#461=EDGE_CURVE('',#364,#365,#212,.T.);
#462=EDGE_CURVE('',#365,#365,#63,.T.);
#463=EDGE_CURVE('',#352,#366,#64,.T.);
#464=EDGE_CURVE('',#367,#366,#213,.T.);
#465=EDGE_CURVE('',#367,#368,#65,.T.);
#466=EDGE_CURVE('',#368,#369,#214,.T.);
#467=EDGE_CURVE('',#369,#370,#66,.T.);
#468=EDGE_CURVE('',#371,#370,#215,.T.);
#469=EDGE_CURVE('',#371,#359,#67,.T.);
#470=EDGE_CURVE('',#372,#373,#68,.T.);
#471=EDGE_CURVE('',#373,#349,#216,.T.);
#472=EDGE_CURVE('',#346,#374,#69,.T.);
#473=EDGE_CURVE('',#374,#372,#217,.T.);
#474=EDGE_CURVE('',#338,#366,#218,.T.);
#475=EDGE_CURVE('',#367,#337,#219,.T.);
#476=EDGE_CURVE('',#336,#368,#220,.T.);
#477=EDGE_CURVE('',#369,#329,#221,.T.);
#478=EDGE_CURVE('',#328,#370,#222,.T.);
#479=EDGE_CURVE('',#371,#327,#223,.T.);
#480=EDGE_CURVE('',#372,#318,#224,.T.);
#481=EDGE_CURVE('',#314,#373,#225,.F.);
#482=EDGE_CURVE('',#319,#374,#226,.T.);
#483=ORIENTED_EDGE('',*,*,#375,.F.);
#484=ORIENTED_EDGE('',*,*,#376,.T.);
#485=ORIENTED_EDGE('',*,*,#377,.T.);
#486=ORIENTED_EDGE('',*,*,#378,.F.);
#487=ORIENTED_EDGE('',*,*,#379,.F.);
#488=ORIENTED_EDGE('',*,*,#380,.T.);
#489=ORIENTED_EDGE('',*,*,#381,.F.);
#490=ORIENTED_EDGE('',*,*,#382,.T.);
#491=ORIENTED_EDGE('',*,*,#383,.T.);
#492=ORIENTED_EDGE('',*,*,#384,.T.);
#493=ORIENTED_EDGE('',*,*,#385,.F.);
#494=ORIENTED_EDGE('',*,*,#386,.T.);
#495=ORIENTED_EDGE('',*,*,#387,.T.);
#496=ORIENTED_EDGE('',*,*,#388,.F.);
#497=ORIENTED_EDGE('',*,*,#389,.F.);
#498=ORIENTED_EDGE('',*,*,#386,.F.);
#499=ORIENTED_EDGE('',*,*,#390,.F.);
#500=ORIENTED_EDGE('',*,*,#391,.F.);
#501=ORIENTED_EDGE('',*,*,#392,.F.);
#502=ORIENTED_EDGE('',*,*,#393,.F.);
#503=ORIENTED_EDGE('',*,*,#394,.T.);
#504=ORIENTED_EDGE('',*,*,#395,.F.);
#505=ORIENTED_EDGE('',*,*,#396,.F.);
#506=ORIENTED_EDGE('',*,*,#397,.F.);
#507=ORIENTED_EDGE('',*,*,#398,.T.);
#508=ORIENTED_EDGE('',*,*,#399,.F.);
#509=ORIENTED_EDGE('',*,*,#400,.F.);
#510=ORIENTED_EDGE('',*,*,#401,.F.);
#511=ORIENTED_EDGE('',*,*,#402,.T.);
#512=ORIENTED_EDGE('',*,*,#403,.T.);
#513=ORIENTED_EDGE('',*,*,#404,.T.);
#514=ORIENTED_EDGE('',*,*,#405,.F.);
#515=ORIENTED_EDGE('',*,*,#406,.T.);
#516=ORIENTED_EDGE('',*,*,#393,.T.);
#517=ORIENTED_EDGE('',*,*,#407,.T.);
#518=ORIENTED_EDGE('',*,*,#408,.T.);
#519=ORIENTED_EDGE('',*,*,#381,.T.);
#520=ORIENTED_EDGE('',*,*,#409,.T.);
#521=ORIENTED_EDGE('',*,*,#388,.T.);
#522=ORIENTED_EDGE('',*,*,#376,.F.);
#523=ORIENTED_EDGE('',*,*,#410,.F.);
#524=ORIENTED_EDGE('',*,*,#411,.F.);
#525=ORIENTED_EDGE('',*,*,#412,.F.);
#526=ORIENTED_EDGE('',*,*,#383,.F.);
#527=ORIENTED_EDGE('',*,*,#413,.T.);
#528=ORIENTED_EDGE('',*,*,#414,.F.);
#529=ORIENTED_EDGE('',*,*,#415,.F.);
#530=ORIENTED_EDGE('',*,*,#416,.F.);
#531=ORIENTED_EDGE('',*,*,#417,.T.);
#532=ORIENTED_EDGE('',*,*,#418,.F.);
#533=ORIENTED_EDGE('',*,*,#419,.F.);
#534=ORIENTED_EDGE('',*,*,#420,.F.);
#535=ORIENTED_EDGE('',*,*,#421,.T.);
#536=ORIENTED_EDGE('',*,*,#422,.T.);
#537=ORIENTED_EDGE('',*,*,#423,.T.);
#538=ORIENTED_EDGE('',*,*,#378,.T.);
#539=ORIENTED_EDGE('',*,*,#424,.T.);
#540=ORIENTED_EDGE('',*,*,#405,.T.);
#541=ORIENTED_EDGE('',*,*,#425,.F.);
#542=ORIENTED_EDGE('',*,*,#379,.T.);
#543=ORIENTED_EDGE('',*,*,#423,.F.);
#544=ORIENTED_EDGE('',*,*,#404,.F.);
#545=ORIENTED_EDGE('',*,*,#426,.F.);
#546=ORIENTED_EDGE('',*,*,#427,.F.);
#547=ORIENTED_EDGE('',*,*,#428,.T.);
#548=ORIENTED_EDGE('',*,*,#410,.T.);
#549=ORIENTED_EDGE('',*,*,#375,.T.);
#550=ORIENTED_EDGE('',*,*,#425,.T.);
#551=ORIENTED_EDGE('',*,*,#429,.F.);
#552=ORIENTED_EDGE('',*,*,#430,.F.);
#553=ORIENTED_EDGE('',*,*,#411,.T.);
#554=ORIENTED_EDGE('',*,*,#428,.F.);
#555=ORIENTED_EDGE('',*,*,#431,.F.);
#556=ORIENTED_EDGE('',*,*,#432,.T.);
#557=ORIENTED_EDGE('',*,*,#384,.F.);
#558=ORIENTED_EDGE('',*,*,#412,.T.);
#559=ORIENTED_EDGE('',*,*,#430,.T.);
#560=ORIENTED_EDGE('',*,*,#433,.F.);
#561=ORIENTED_EDGE('',*,*,#434,.T.);
#562=ORIENTED_EDGE('',*,*,#418,.T.);
#563=ORIENTED_EDGE('',*,*,#435,.T.);
#564=ORIENTED_EDGE('',*,*,#436,.F.);
#565=ORIENTED_EDGE('',*,*,#435,.F.);
#566=ORIENTED_EDGE('',*,*,#417,.F.);
#567=ORIENTED_EDGE('',*,*,#437,.F.);
#568=ORIENTED_EDGE('',*,*,#438,.F.);
#569=ORIENTED_EDGE('',*,*,#439,.F.);
#570=ORIENTED_EDGE('',*,*,#419,.T.);
#571=ORIENTED_EDGE('',*,*,#434,.F.);
#572=ORIENTED_EDGE('',*,*,#440,.T.);
#573=ORIENTED_EDGE('',*,*,#441,.T.);
#574=ORIENTED_EDGE('',*,*,#420,.T.);
#575=ORIENTED_EDGE('',*,*,#439,.T.);
#576=ORIENTED_EDGE('',*,*,#442,.F.);
#577=ORIENTED_EDGE('',*,*,#443,.F.);
#578=ORIENTED_EDGE('',*,*,#394,.F.);
#579=ORIENTED_EDGE('',*,*,#406,.F.);
#580=ORIENTED_EDGE('',*,*,#424,.F.);
#581=ORIENTED_EDGE('',*,*,#377,.F.);
#582=ORIENTED_EDGE('',*,*,#421,.F.);
#583=ORIENTED_EDGE('',*,*,#441,.F.);
#584=ORIENTED_EDGE('',*,*,#444,.F.);
#585=ORIENTED_EDGE('',*,*,#445,.T.);
#586=ORIENTED_EDGE('',*,*,#395,.T.);
#587=ORIENTED_EDGE('',*,*,#443,.T.);
#588=ORIENTED_EDGE('',*,*,#446,.F.);
#589=ORIENTED_EDGE('',*,*,#447,.F.);
#590=ORIENTED_EDGE('',*,*,#396,.T.);
#591=ORIENTED_EDGE('',*,*,#445,.F.);
#592=ORIENTED_EDGE('',*,*,#448,.T.);
#593=ORIENTED_EDGE('',*,*,#449,.T.);
#594=ORIENTED_EDGE('',*,*,#397,.T.);
#595=ORIENTED_EDGE('',*,*,#447,.T.);
#596=ORIENTED_EDGE('',*,*,#450,.F.);
#597=ORIENTED_EDGE('',*,*,#449,.F.);
#598=ORIENTED_EDGE('',*,*,#451,.F.);
#599=ORIENTED_EDGE('',*,*,#452,.F.);
#600=ORIENTED_EDGE('',*,*,#398,.F.);
#601=ORIENTED_EDGE('',*,*,#453,.F.);
#602=ORIENTED_EDGE('',*,*,#454,.T.);
#603=ORIENTED_EDGE('',*,*,#422,.F.);
#604=ORIENTED_EDGE('',*,*,#454,.F.);
#605=ORIENTED_EDGE('',*,*,#455,.F.);
#606=ORIENTED_EDGE('',*,*,#456,.T.);
#607=ORIENTED_EDGE('',*,*,#403,.F.);
#608=ORIENTED_EDGE('',*,*,#456,.F.);
#609=ORIENTED_EDGE('',*,*,#457,.F.);
#610=ORIENTED_EDGE('',*,*,#458,.T.);
#611=ORIENTED_EDGE('',*,*,#459,.F.);
#612=ORIENTED_EDGE('',*,*,#458,.F.);
#613=ORIENTED_EDGE('',*,*,#460,.F.);
#614=ORIENTED_EDGE('',*,*,#461,.T.);
#615=ORIENTED_EDGE('',*,*,#462,.F.);
#616=ORIENTED_EDGE('',*,*,#461,.F.);
#617=ORIENTED_EDGE('',*,*,#438,.T.);
#618=ORIENTED_EDGE('',*,*,#463,.T.);
#619=ORIENTED_EDGE('',*,*,#464,.F.);
#620=ORIENTED_EDGE('',*,*,#465,.T.);
#621=ORIENTED_EDGE('',*,*,#466,.T.);
#622=ORIENTED_EDGE('',*,*,#467,.T.);
#623=ORIENTED_EDGE('',*,*,#468,.F.);
#624=ORIENTED_EDGE('',*,*,#469,.T.);
#625=ORIENTED_EDGE('',*,*,#451,.T.);
#626=ORIENTED_EDGE('',*,*,#450,.T.);
#627=ORIENTED_EDGE('',*,*,#448,.F.);
#628=ORIENTED_EDGE('',*,*,#446,.T.);
#629=ORIENTED_EDGE('',*,*,#444,.T.);
#630=ORIENTED_EDGE('',*,*,#442,.T.);
#631=ORIENTED_EDGE('',*,*,#440,.F.);
#632=ORIENTED_EDGE('',*,*,#436,.T.);
#633=ORIENTED_EDGE('',*,*,#470,.T.);
#634=ORIENTED_EDGE('',*,*,#471,.T.);
#635=ORIENTED_EDGE('',*,*,#433,.T.);
#636=ORIENTED_EDGE('',*,*,#431,.T.);
#637=ORIENTED_EDGE('',*,*,#429,.T.);
#638=ORIENTED_EDGE('',*,*,#427,.T.);
#639=ORIENTED_EDGE('',*,*,#472,.T.);
#640=ORIENTED_EDGE('',*,*,#473,.T.);
#641=ORIENTED_EDGE('',*,*,#460,.T.);
#642=ORIENTED_EDGE('',*,*,#457,.T.);
#643=ORIENTED_EDGE('',*,*,#462,.T.);
#644=ORIENTED_EDGE('',*,*,#453,.T.);
#645=ORIENTED_EDGE('',*,*,#459,.T.);
#646=ORIENTED_EDGE('',*,*,#455,.T.);
#647=ORIENTED_EDGE('',*,*,#437,.T.);
#648=ORIENTED_EDGE('',*,*,#416,.T.);
#649=ORIENTED_EDGE('',*,*,#474,.T.);
#650=ORIENTED_EDGE('',*,*,#463,.F.);
#651=ORIENTED_EDGE('',*,*,#474,.F.);
#652=ORIENTED_EDGE('',*,*,#415,.T.);
#653=ORIENTED_EDGE('',*,*,#475,.F.);
#654=ORIENTED_EDGE('',*,*,#464,.T.);
#655=ORIENTED_EDGE('',*,*,#475,.T.);
#656=ORIENTED_EDGE('',*,*,#414,.T.);
#657=ORIENTED_EDGE('',*,*,#476,.T.);
#658=ORIENTED_EDGE('',*,*,#465,.F.);
#659=ORIENTED_EDGE('',*,*,#476,.F.);
#660=ORIENTED_EDGE('',*,*,#413,.F.);
#661=ORIENTED_EDGE('',*,*,#382,.F.);
#662=ORIENTED_EDGE('',*,*,#408,.F.);
#663=ORIENTED_EDGE('',*,*,#387,.F.);
#664=ORIENTED_EDGE('',*,*,#402,.F.);
#665=ORIENTED_EDGE('',*,*,#477,.F.);
#666=ORIENTED_EDGE('',*,*,#466,.F.);
#667=ORIENTED_EDGE('',*,*,#477,.T.);
#668=ORIENTED_EDGE('',*,*,#401,.T.);
#669=ORIENTED_EDGE('',*,*,#478,.T.);
#670=ORIENTED_EDGE('',*,*,#467,.F.);
#671=ORIENTED_EDGE('',*,*,#478,.F.);
#672=ORIENTED_EDGE('',*,*,#400,.T.);
#673=ORIENTED_EDGE('',*,*,#479,.F.);
#674=ORIENTED_EDGE('',*,*,#468,.T.);
#675=ORIENTED_EDGE('',*,*,#479,.T.);
#676=ORIENTED_EDGE('',*,*,#399,.T.);
#677=ORIENTED_EDGE('',*,*,#452,.T.);
#678=ORIENTED_EDGE('',*,*,#469,.F.);
#679=ORIENTED_EDGE('',*,*,#480,.T.);
#680=ORIENTED_EDGE('',*,*,#390,.T.);
#681=ORIENTED_EDGE('',*,*,#385,.T.);
#682=ORIENTED_EDGE('',*,*,#481,.T.);
#683=ORIENTED_EDGE('',*,*,#470,.F.);
#684=ORIENTED_EDGE('',*,*,#481,.F.);
#685=ORIENTED_EDGE('',*,*,#389,.T.);
#686=ORIENTED_EDGE('',*,*,#409,.F.);
#687=ORIENTED_EDGE('',*,*,#380,.F.);
#688=ORIENTED_EDGE('',*,*,#432,.F.);
#689=ORIENTED_EDGE('',*,*,#471,.F.);
#690=ORIENTED_EDGE('',*,*,#426,.T.);
#691=ORIENTED_EDGE('',*,*,#407,.F.);
#692=ORIENTED_EDGE('',*,*,#392,.T.);
#693=ORIENTED_EDGE('',*,*,#482,.T.);
#694=ORIENTED_EDGE('',*,*,#472,.F.);
#695=ORIENTED_EDGE('',*,*,#482,.F.);
#696=ORIENTED_EDGE('',*,*,#391,.T.);
#697=ORIENTED_EDGE('',*,*,#480,.F.);
#698=ORIENTED_EDGE('',*,*,#473,.F.);
#699=PLANE('',#775);
#700=PLANE('',#777);
#701=PLANE('',#779);
#702=PLANE('',#781);
#703=PLANE('',#789);
#704=PLANE('',#791);
#705=PLANE('',#792);
#706=PLANE('',#800);
#707=PLANE('',#801);
#708=PLANE('',#804);
#709=PLANE('',#809);
#710=PLANE('',#810);
#711=PLANE('',#813);
#712=PLANE('',#816);
#713=PLANE('',#819);
#714=PLANE('',#830);
#715=PLANE('',#837);
#716=PLANE('',#838);
#717=PLANE('',#840);
#718=PLANE('',#842);
#719=PLANE('',#844);
#720=PLANE('',#847);
#721=PLANE('',#849);
#722=ADVANCED_FACE('',(#70),#699,.T.);
#723=ADVANCED_FACE('',(#71),#700,.T.);
#724=ADVANCED_FACE('',(#72),#701,.T.);
#725=ADVANCED_FACE('',(#73,#31),#702,.F.);
#726=ADVANCED_FACE('',(#74),#703,.T.);
#727=ADVANCED_FACE('',(#75),#704,.T.);
#728=ADVANCED_FACE('',(#76,#32),#705,.F.);
#729=ADVANCED_FACE('',(#77),#706,.T.);
#730=ADVANCED_FACE('',(#78),#707,.T.);
#731=ADVANCED_FACE('',(#79),#15,.F.);
#732=ADVANCED_FACE('',(#80),#708,.T.);
#733=ADVANCED_FACE('',(#81),#16,.F.);
#734=ADVANCED_FACE('',(#82),#17,.T.);
#735=ADVANCED_FACE('',(#83),#709,.T.);
#736=ADVANCED_FACE('',(#84),#710,.T.);
#737=ADVANCED_FACE('',(#85),#18,.T.);
#738=ADVANCED_FACE('',(#86),#711,.T.);
#739=ADVANCED_FACE('',(#87),#19,.T.);
#740=ADVANCED_FACE('',(#88),#712,.T.);
#741=ADVANCED_FACE('',(#89),#20,.T.);
#742=ADVANCED_FACE('',(#90),#713,.T.);
#743=ADVANCED_FACE('',(#91),#21,.F.);
#744=ADVANCED_FACE('',(#92),#22,.F.);
#745=ADVANCED_FACE('',(#93),#23,.F.);
#746=ADVANCED_FACE('',(#94),#24,.F.);
#747=ADVANCED_FACE('',(#95,#33,#34,#35),#714,.T.);
#748=ADVANCED_FACE('',(#96,#36),#715,.T.);
#749=ADVANCED_FACE('',(#97,#37),#716,.T.);
#750=ADVANCED_FACE('',(#98),#25,.T.);
#751=ADVANCED_FACE('',(#99),#717,.T.);
#752=ADVANCED_FACE('',(#100),#26,.T.);
#753=ADVANCED_FACE('',(#101),#718,.T.);
#754=ADVANCED_FACE('',(#102),#27,.T.);
#755=ADVANCED_FACE('',(#103),#719,.T.);
#756=ADVANCED_FACE('',(#104),#28,.T.);
#757=ADVANCED_FACE('',(#105),#29,.F.);
#758=ADVANCED_FACE('',(#106),#720,.T.);
#759=ADVANCED_FACE('',(#107),#30,.F.);
#760=ADVANCED_FACE('',(#108),#721,.T.);
#761=CLOSED_SHELL('',(#722,#723,#724,#725,#726,#727,#728,#729,#730,#731,
#732,#733,#734,#735,#736,#737,#738,#739,#740,#741,#742,#743,#744,#745,#746,
#747,#748,#749,#750,#751,#752,#753,#754,#755,#756,#757,#758,#759,#760));
#762=DERIVED_UNIT_ELEMENT(#764,1.);
#763=DERIVED_UNIT_ELEMENT(#1299,-3.);
#764=(
MASS_UNIT()
NAMED_UNIT(*)
SI_UNIT(.KILO.,.GRAM.)
);
#765=DERIVED_UNIT((#762,#763));
#766=MEASURE_REPRESENTATION_ITEM('density measure',
POSITIVE_RATIO_MEASURE(7850.),#765);
#767=PROPERTY_DEFINITION_REPRESENTATION(#772,#769);
#768=PROPERTY_DEFINITION_REPRESENTATION(#773,#770);
#769=REPRESENTATION('material name',(#771),#1296);
#770=REPRESENTATION('density',(#766),#1296);
#771=DESCRIPTIVE_REPRESENTATION_ITEM('Steel','Steel');
#772=PROPERTY_DEFINITION('material property','material name',#1306);
#773=PROPERTY_DEFINITION('material property','density of part',#1306);
#774=AXIS2_PLACEMENT_3D('',#1074,#850,#851);
#775=AXIS2_PLACEMENT_3D('',#1075,#852,#853);
#776=AXIS2_PLACEMENT_3D('',#1078,#854,#855);
#777=AXIS2_PLACEMENT_3D('',#1086,#860,#861);
#778=AXIS2_PLACEMENT_3D('',#1096,#866,#867);
#779=AXIS2_PLACEMENT_3D('',#1097,#868,#869);
#780=AXIS2_PLACEMENT_3D('',#1100,#870,#871);
#781=AXIS2_PLACEMENT_3D('',#1108,#876,#877);
#782=AXIS2_PLACEMENT_3D('',#1110,#878,#879);
#783=AXIS2_PLACEMENT_3D('',#1114,#881,#882);
#784=AXIS2_PLACEMENT_3D('',#1120,#885,#886);
#785=AXIS2_PLACEMENT_3D('',#1124,#888,#889);
#786=AXIS2_PLACEMENT_3D('',#1128,#891,#892);
#787=AXIS2_PLACEMENT_3D('',#1132,#894,#895);
#788=AXIS2_PLACEMENT_3D('',#1135,#897,#898);
#789=AXIS2_PLACEMENT_3D('',#1136,#899,#900);
#790=AXIS2_PLACEMENT_3D('',#1143,#904,#905);
#791=AXIS2_PLACEMENT_3D('',#1144,#906,#907);
#792=AXIS2_PLACEMENT_3D('',#1147,#910,#911);
#793=AXIS2_PLACEMENT_3D('',#1149,#912,#913);
#794=AXIS2_PLACEMENT_3D('',#1152,#915,#916);
#795=AXIS2_PLACEMENT_3D('',#1156,#918,#919);
#796=AXIS2_PLACEMENT_3D('',#1160,#921,#922);
#797=AXIS2_PLACEMENT_3D('',#1164,#924,#925);
#798=AXIS2_PLACEMENT_3D('',#1168,#927,#928);
#799=AXIS2_PLACEMENT_3D('',#1171,#930,#931);
#800=AXIS2_PLACEMENT_3D('',#1172,#932,#933);
#801=AXIS2_PLACEMENT_3D('',#1175,#936,#937);
#802=AXIS2_PLACEMENT_3D('',#1181,#941,#942);
#803=AXIS2_PLACEMENT_3D('',#1184,#944,#945);
#804=AXIS2_PLACEMENT_3D('',#1185,#946,#947);
#805=AXIS2_PLACEMENT_3D('',#1189,#950,#951);
#806=AXIS2_PLACEMENT_3D('',#1192,#953,#954);
#807=AXIS2_PLACEMENT_3D('',#1193,#955,#956);
#808=AXIS2_PLACEMENT_3D('',#1198,#959,#960);
#809=AXIS2_PLACEMENT_3D('',#1199,#961,#962);
#810=AXIS2_PLACEMENT_3D('',#1203,#965,#966);
#811=AXIS2_PLACEMENT_3D('',#1207,#969,#970);
#812=AXIS2_PLACEMENT_3D('',#1210,#972,#973);
#813=AXIS2_PLACEMENT_3D('',#1211,#974,#975);
#814=AXIS2_PLACEMENT_3D('',#1215,#978,#979);
#815=AXIS2_PLACEMENT_3D('',#1218,#981,#982);
#816=AXIS2_PLACEMENT_3D('',#1219,#983,#984);
#817=AXIS2_PLACEMENT_3D('',#1223,#987,#988);
#818=AXIS2_PLACEMENT_3D('',#1226,#990,#991);
#819=AXIS2_PLACEMENT_3D('',#1227,#992,#993);
#820=AXIS2_PLACEMENT_3D('',#1231,#996,#997);
#821=AXIS2_PLACEMENT_3D('',#1233,#998,#999);
#822=AXIS2_PLACEMENT_3D('',#1235,#1001,#1002);
#823=AXIS2_PLACEMENT_3D('',#1237,#1003,#1004);
#824=AXIS2_PLACEMENT_3D('',#1239,#1006,#1007);
#825=AXIS2_PLACEMENT_3D('',#1241,#1008,#1009);
#826=AXIS2_PLACEMENT_3D('',#1244,#1011,#1012);
#827=AXIS2_PLACEMENT_3D('',#1245,#1013,#1014);
#828=AXIS2_PLACEMENT_3D('',#1247,#1015,#1016);
#829=AXIS2_PLACEMENT_3D('',#1250,#1018,#1019);
#830=AXIS2_PLACEMENT_3D('',#1251,#1020,#1021);
#831=AXIS2_PLACEMENT_3D('',#1253,#1022,#1023);
#832=AXIS2_PLACEMENT_3D('',#1257,#1025,#1026);
#833=AXIS2_PLACEMENT_3D('',#1261,#1028,#1029);
#834=AXIS2_PLACEMENT_3D('',#1264,#1031,#1032);
#835=AXIS2_PLACEMENT_3D('',#1267,#1033,#1034);
#836=AXIS2_PLACEMENT_3D('',#1270,#1036,#1037);
#837=AXIS2_PLACEMENT_3D('',#1272,#1039,#1040);
#838=AXIS2_PLACEMENT_3D('',#1273,#1041,#1042);
#839=AXIS2_PLACEMENT_3D('',#1274,#1043,#1044);
#840=AXIS2_PLACEMENT_3D('',#1276,#1046,#1047);
#841=AXIS2_PLACEMENT_3D('',#1278,#1049,#1050);
#842=AXIS2_PLACEMENT_3D('',#1280,#1052,#1053);
#843=AXIS2_PLACEMENT_3D('',#1282,#1055,#1056);
#844=AXIS2_PLACEMENT_3D('',#1284,#1058,#1059);
#845=AXIS2_PLACEMENT_3D('',#1286,#1061,#1062);
#846=AXIS2_PLACEMENT_3D('',#1287,#1063,#1064);
#847=AXIS2_PLACEMENT_3D('',#1290,#1067,#1068);
#848=AXIS2_PLACEMENT_3D('',#1291,#1069,#1070);
#849=AXIS2_PLACEMENT_3D('',#1293,#1072,#1073);
#850=DIRECTION('axis',(0.,0.,1.));
#851=DIRECTION('refdir',(1.,0.,0.));
#852=DIRECTION('center_axis',(0.70710678118655,0.565685424949236,0.424264068711928));
#853=DIRECTION('ref_axis',(0.514495755427525,0.,-0.857492925712545));
#854=DIRECTION('center_axis',(-0.70710678118655,-0.565685424949236,-0.424264068711928));
#855=DIRECTION('ref_axis',(0.707106781186545,-0.56568542494924,-0.424264068711929));
#856=DIRECTION('',(-6.57320874319456E-17,0.6,-0.8));
#857=DIRECTION('',(-0.707106781186545,0.56568542494924,0.42426406871193));
#858=DIRECTION('',(-6.57320874319456E-17,0.600000000029559,-0.799999999977831));
#859=DIRECTION('',(0.707106781186545,-0.56568542494924,-0.42426406871193));
#860=DIRECTION('center_axis',(0.707106781186549,0.565685424949237,0.424264068711928));
#861=DIRECTION('ref_axis',(0.514495755427526,0.,-0.857492925712545));
#862=DIRECTION('',(-0.707106781186547,0.565685424949239,0.424264068711929));
#863=DIRECTION('',(-6.57320874319456E-17,0.600000000029559,-0.799999999977831));
#864=DIRECTION('',(0.707106781186547,-0.565685424949239,-0.424264068711929));
#865=DIRECTION('',(-6.57320874319456E-17,0.6,-0.8));
#866=DIRECTION('center_axis',(-0.707106781186549,-0.565685424949237,-0.424264068711928));
#867=DIRECTION('ref_axis',(0.707106781186546,-0.565685424949239,-0.424264068711929));
#868=DIRECTION('center_axis',(-0.707106781186545,0.56568542494924,0.42426406871193));
#869=DIRECTION('ref_axis',(0.514495755427529,0.,0.857492925712543));
#870=DIRECTION('center_axis',(0.707106781186545,-0.56568542494924,-0.42426406871193));
#871=DIRECTION('ref_axis',(-0.70710678118655,-0.565685424949237,-0.424264068711927));
#872=DIRECTION('',(6.57320874319456E-17,-0.6,0.8));
#873=DIRECTION('',(0.70710678118655,0.565685424949236,0.424264068711927));
#874=DIRECTION('',(6.57320874319456E-17,-0.600000000029559,0.799999999977831));
#875=DIRECTION('',(-0.70710678118655,-0.565685424949236,-0.424264068711927));
#876=DIRECTION('center_axis',(0.,-0.8,-0.6));
#877=DIRECTION('ref_axis',(-1.,0.,0.));
#878=DIRECTION('center_axis',(0.,0.8,0.6));
#879=DIRECTION('ref_axis',(-0.707106781186548,-0.424264068711927,0.565685424949238));
#880=DIRECTION('',(0.,-0.6,0.8));
#881=DIRECTION('center_axis',(0.,0.8,0.6));
#882=DIRECTION('ref_axis',(-0.707106781186548,0.424264068711928,-0.565685424949238));
#883=DIRECTION('',(6.57320874319456E-17,-0.6,0.8));
#884=DIRECTION('',(-1.,0.,0.));
#885=DIRECTION('center_axis',(0.,-0.8,-0.6));
#886=DIRECTION('ref_axis',(-0.38268343236509,0.554327719506772,-0.739103626009029));
#887=DIRECTION('',(0.707106781186548,0.424264068711929,-0.565685424949238));
#888=DIRECTION('center_axis',(0.,-0.8,-0.6));
#889=DIRECTION('ref_axis',(-0.923879532511287,0.229610059419054,-0.306146745892072));
#890=DIRECTION('',(0.,-0.6,0.8));
#891=DIRECTION('center_axis',(0.,-0.8,-0.6));
#892=DIRECTION('ref_axis',(-0.923879532511287,-0.229610059419054,0.306146745892071));
#893=DIRECTION('',(-0.707106781186548,0.424264068711929,-0.565685424949238));
#894=DIRECTION('center_axis',(0.,-0.8,-0.6));
#895=DIRECTION('ref_axis',(-0.38268343236509,-0.554327719506772,0.739103626009029));
#896=DIRECTION('',(1.,0.,0.));
#897=DIRECTION('center_axis',(0.,-0.8,-0.6));
#898=DIRECTION('ref_axis',(-1.,0.,0.));
#899=DIRECTION('center_axis',(-0.707106781186547,0.565685424949238,0.424264068711929));
#900=DIRECTION('ref_axis',(0.514495755427527,0.,0.857492925712544));
#901=DIRECTION('',(0.707106781186548,0.565685424949238,0.424264068711928));
#902=DIRECTION('',(6.57320874319456E-17,-0.600000000029559,0.799999999977831));
#903=DIRECTION('',(-0.707106781186548,-0.565685424949238,-0.424264068711928));
#904=DIRECTION('center_axis',(0.707106781186547,-0.565685424949238,-0.424264068711929));
#905=DIRECTION('ref_axis',(-0.707106781186548,-0.565685424949238,-0.424264068711928));
#906=DIRECTION('center_axis',(0.,0.79999999997783,0.60000000002956));
#907=DIRECTION('ref_axis',(1.,0.,0.));
#908=DIRECTION('',(1.,1.38777876646663E-16,2.19182982008004E-17));
#909=DIRECTION('',(-1.,-2.06900981065109E-16,-7.30106265185678E-17));
#910=DIRECTION('center_axis',(0.,-0.8,-0.6));
#911=DIRECTION('ref_axis',(-1.,0.,0.));
#912=DIRECTION('center_axis',(0.,0.8,0.6));
#913=DIRECTION('ref_axis',(0.707106781186548,0.424264068711928,-0.565685424949238));
#914=DIRECTION('',(0.,0.6,-0.8));
#915=DIRECTION('center_axis',(0.,0.8,0.6));
#916=DIRECTION('ref_axis',(0.707106781186548,-0.424264068711927,0.565685424949238));
#917=DIRECTION('',(1.,0.,0.));
#918=DIRECTION('center_axis',(0.,-0.8,-0.6));
#919=DIRECTION('ref_axis',(0.382683432365089,-0.554327719506772,0.73910362600903));
#920=DIRECTION('',(-0.707106781186548,-0.424264068711929,0.565685424949238));
#921=DIRECTION('center_axis',(0.,-0.8,-0.6));
#922=DIRECTION('ref_axis',(0.923879532511287,-0.229610059419054,0.306146745892071));
#923=DIRECTION('',(0.,0.6,-0.8));
#924=DIRECTION('center_axis',(0.,-0.8,-0.6));
#925=DIRECTION('ref_axis',(0.923879532511287,0.229610059419054,-0.306146745892072));
#926=DIRECTION('',(0.707106781186547,-0.424264068711929,0.565685424949238));
#927=DIRECTION('center_axis',(0.,-0.8,-0.6));
#928=DIRECTION('ref_axis',(0.382683432365089,0.554327719506772,-0.73910362600903));
#929=DIRECTION('',(-1.,0.,0.));
#930=DIRECTION('center_axis',(0.,-0.8,-0.6));
#931=DIRECTION('ref_axis',(-1.,0.,0.));
#932=DIRECTION('center_axis',(0.,0.799999999977831,0.600000000029559));
#933=DIRECTION('ref_axis',(1.,0.,0.));
#934=DIRECTION('',(1.,1.38777876646663E-16,2.19182982008004E-17));
#935=DIRECTION('',(-1.,-1.71887760648578E-16,-4.67507112041483E-17));
#936=DIRECTION('center_axis',(0.,-0.6,0.8));
#937=DIRECTION('ref_axis',(-1.,0.,0.));
#938=DIRECTION('',(0.,0.8,0.6));
#939=DIRECTION('',(0.,0.8,0.6));
#940=DIRECTION('',(-1.,-2.85719159311282E-16,-1.93987001062032E-16));
#941=DIRECTION('center_axis',(0.,-0.8,-0.6));
#942=DIRECTION('ref_axis',(0.707106781186548,0.424264068711928,-0.565685424949238));
#943=DIRECTION('',(0.,0.8,0.6));
#944=DIRECTION('center_axis',(-3.44967528085644E-16,0.799999999977831,0.600000000029559));
#945=DIRECTION('ref_axis',(2.28660243035071E-16,0.600000000029559,-0.799999999977831));
#946=DIRECTION('center_axis',(-1.,0.,0.));
#947=DIRECTION('ref_axis',(0.,0.6,-0.8));
#948=DIRECTION('',(0.,-0.8,-0.6));
#949=DIRECTION('',(2.28660243035071E-16,0.600000000029559,-0.799999999977831));
#950=DIRECTION('center_axis',(0.,-0.8,-0.6));
#951=DIRECTION('ref_axis',(0.707106781186548,-0.424264068711927,0.565685424949238));
#952=DIRECTION('',(0.,0.8,0.6));
#953=DIRECTION('center_axis',(1.13532983808123E-15,0.799999999977831,0.600000000029559));
#954=DIRECTION('ref_axis',(1.,-2.82181685575537E-15,1.87020607734205E-15));
#955=DIRECTION('center_axis',(0.,-0.8,-0.6));
#956=DIRECTION('ref_axis',(0.923879532511287,0.229610059419054,-0.306146745892072));
#957=DIRECTION('',(0.,0.799999999977831,0.600000000029559));
#958=DIRECTION('',(0.,-0.8,-0.6));
#959=DIRECTION('center_axis',(5.01976773954021E-16,-0.799999999977831,-0.600000000029559));
#960=DIRECTION('ref_axis',(0.707106781186551,0.424264068732828,-0.565685424933559));
#961=DIRECTION('center_axis',(1.,0.,0.));
#962=DIRECTION('ref_axis',(0.,-0.6,0.8));
#963=DIRECTION('',(0.,0.8,0.6));
#964=DIRECTION('',(-2.28660243035071E-16,-0.600000000029559,0.799999999977831));
#965=DIRECTION('center_axis',(0.707106781186548,0.424264068711928,-0.565685424949238));
#966=DIRECTION('ref_axis',(-0.624695047554424,0.,-0.780868809443031));
#967=DIRECTION('',(7.85046229341887E-17,-0.8,-0.6));
#968=DIRECTION('',(-0.707106781186548,0.424264068732829,-0.565685424933562));
#969=DIRECTION('center_axis',(-7.85046229341887E-17,0.8,0.6));
#970=DIRECTION('ref_axis',(0.382683432365089,0.554327719506772,-0.73910362600903));
#971=DIRECTION('',(-7.85046229341887E-17,0.8,0.6));
#972=DIRECTION('center_axis',(3.44967528085644E-16,-0.799999999977831,-0.600000000029559));
#973=DIRECTION('ref_axis',(-1.54769659636518E-15,0.600000000029559,-0.799999999977831));
#974=DIRECTION('center_axis',(0.,0.6,-0.8));
#975=DIRECTION('ref_axis',(1.,0.,0.));
#976=DIRECTION('',(0.,-0.8,-0.6));
#977=DIRECTION('',(1.,2.79135403064472E-16,3.10495900284175E-16));
#978=DIRECTION('center_axis',(0.,-0.8,-0.6));
#979=DIRECTION('ref_axis',(-0.38268343236509,0.554327719506772,-0.739103626009029));
#980=DIRECTION('',(0.,0.799999999977831,0.600000000029559));
#981=DIRECTION('center_axis',(5.87046119645151E-17,-0.799999999977831,-0.600000000029559));
#982=DIRECTION('ref_axis',(-0.707106781186549,0.424264068732829,-0.565685424933561));
#983=DIRECTION('center_axis',(-0.707106781186547,0.424264068711929,-0.565685424949238));
#984=DIRECTION('ref_axis',(-0.624695047554425,0.,0.78086880944303));
#985=DIRECTION('',(0.,-0.8,-0.6));
#986=DIRECTION('',(-0.707106781186549,-0.424264068732828,0.565685424933561));
#987=DIRECTION('center_axis',(0.,0.8,0.6));
#988=DIRECTION('ref_axis',(-0.923879532511287,0.229610059419054,-0.306146745892072));
#989=DIRECTION('',(0.,0.8,0.6));
#990=DIRECTION('center_axis',(5.39256557395048E-16,-0.799999999977831,-0.600000000029559));
#991=DIRECTION('ref_axis',(-1.,-2.42583730746161E-15,2.3356888140857E-15));
#992=DIRECTION('center_axis',(-1.,0.,0.));
#993=DIRECTION('ref_axis',(0.,0.6,-0.8));
#994=DIRECTION('',(2.28660243035071E-16,0.600000000029559,-0.799999999977831));
#995=DIRECTION('',(0.,-0.8,-0.6));
#996=DIRECTION('center_axis',(0.,0.8,0.6));
#997=DIRECTION('ref_axis',(-1.,0.,0.));
#998=DIRECTION('center_axis',(0.,0.8,0.6));
#999=DIRECTION('ref_axis',(-1.,0.,0.));
#1000=DIRECTION('',(0.,0.8,0.6));
#1001=DIRECTION('center_axis',(0.,0.8,0.6));
#1002=DIRECTION('ref_axis',(-1.,0.,0.));
#1003=DIRECTION('center_axis',(0.,0.8,0.6));
#1004=DIRECTION('ref_axis',(-1.,0.,0.));
#1005=DIRECTION('',(0.,0.8,0.6));
#1006=DIRECTION('center_axis',(0.,-0.8,-0.6));
#1007=DIRECTION('ref_axis',(-1.,0.,0.));
#1008=DIRECTION('center_axis',(0.,0.8,0.6));
#1009=DIRECTION('ref_axis',(-1.,0.,0.));
#1010=DIRECTION('',(0.,0.8,0.6));
#1011=DIRECTION('center_axis',(0.,-0.8,-0.6));
#1012=DIRECTION('ref_axis',(-1.,0.,0.));
#1013=DIRECTION('center_axis',(0.,-0.8,-0.6));
#1014=DIRECTION('ref_axis',(-1.,0.,0.));
#1015=DIRECTION('center_axis',(0.,0.8,0.6));
#1016=DIRECTION('ref_axis',(-1.,0.,0.));
#1017=DIRECTION('',(0.,0.8,0.6));
#1018=DIRECTION('center_axis',(0.,-0.8,-0.6));
#1019=DIRECTION('ref_axis',(-1.,0.,0.));
#1020=DIRECTION('center_axis',(2.20794252002406E-16,-0.8,-0.6));
#1021=DIRECTION('ref_axis',(-1.,-1.76635401601925E-16,-1.32476551201444E-16));
#1022=DIRECTION('center_axis',(2.89456376854387E-16,-0.799999999977831,
-0.600000000029559));
#1023=DIRECTION('ref_axis',(1.,-2.03725925173602E-15,3.19877296350581E-15));
#1024=DIRECTION('',(0.707106781186547,0.424264068732829,-0.565685424933563));
#1025=DIRECTION('center_axis',(6.86741595438034E-16,-0.799999999977831,
-0.600000000029559));
#1026=DIRECTION('ref_axis',(0.70710678118655,-0.424264068732828,0.56568542493356));
#1027=DIRECTION('',(-1.,-3.16071594235659E-16,-1.53517087832644E-16));
#1028=DIRECTION('center_axis',(3.44967528085645E-16,-0.799999999977831,
-0.600000000029559));
#1029=DIRECTION('ref_axis',(2.43587501606532E-15,-0.600000000029559,0.799999999977831));
#1030=DIRECTION('',(0.707106781186547,-0.42426406873283,0.565685424933563));
#1031=DIRECTION('center_axis',(3.44967528085645E-16,-0.799999999977831,
-0.600000000029559));
#1032=DIRECTION('ref_axis',(-0.70710678118655,-0.424264068732828,0.56568542493356));
#1033=DIRECTION('center_axis',(-3.44967528085644E-16,0.799999999977832,
0.600000000029558));
#1034=DIRECTION('ref_axis',(-2.28660243035072E-16,-0.600000000029558,0.799999999977832));
#1035=DIRECTION('',(1.,3.37148608248469E-16,1.30516530354663E-16));
#1036=DIRECTION('center_axis',(-1.82526489425252E-15,0.799999999977831,
0.600000000029559));
#1037=DIRECTION('ref_axis',(-1.,-2.21119418927763E-15,-9.3849238127769E-17));
#1038=DIRECTION('',(5.11488440048368E-16,-0.600000000029559,0.799999999977831));
#1039=DIRECTION('center_axis',(0.,-0.8,-0.6));
#1040=DIRECTION('ref_axis',(-1.,0.,0.));
#1041=DIRECTION('center_axis',(0.,-0.8,-0.6));
#1042=DIRECTION('ref_axis',(-1.,0.,0.));
#1043=DIRECTION('center_axis',(0.,0.8,0.6));
#1044=DIRECTION('ref_axis',(0.923879532511287,-0.229610059419054,0.306146745892071));
#1045=DIRECTION('',(3.92523114670944E-17,-0.8,-0.6));
#1046=DIRECTION('center_axis',(0.707106781186547,-0.424264068711929,0.565685424949238));
#1047=DIRECTION('ref_axis',(0.624695047554424,0.,-0.78086880944303));
#1048=DIRECTION('',(0.,0.799999999977831,0.600000000029559));
#1049=DIRECTION('center_axis',(7.85046229341888E-17,-0.8,-0.6));
#1050=DIRECTION('ref_axis',(0.382683432365089,-0.554327719506772,0.73910362600903));
#1051=DIRECTION('',(7.85046229341888E-17,-0.8,-0.6));
#1052=DIRECTION('center_axis',(0.,-0.6,0.8));
#1053=DIRECTION('ref_axis',(-1.,0.,0.));
#1054=DIRECTION('',(7.85046229341888E-17,0.8,0.6));
#1055=DIRECTION('center_axis',(7.85046229341888E-17,0.8,0.6));
#1056=DIRECTION('ref_axis',(-0.38268343236509,-0.554327719506772,0.739103626009029));
#1057=DIRECTION('',(-7.85046229341888E-17,-0.8,-0.6));
#1058=DIRECTION('center_axis',(-0.707106781186547,-0.424264068711929,0.565685424949238));
#1059=DIRECTION('ref_axis',(0.624695047554424,0.,0.78086880944303));
#1060=DIRECTION('',(0.,0.799999999977831,0.600000000029559));
#1061=DIRECTION('center_axis',(0.,-0.8,-0.6));
#1062=DIRECTION('ref_axis',(-0.923879532511287,-0.229610059419054,0.306146745892071));
#1063=DIRECTION('center_axis',(0.,-0.8,-0.6));
#1064=DIRECTION('ref_axis',(-0.707106781186548,-0.424264068711927,0.565685424949238));
#1065=DIRECTION('',(0.,0.8,0.6));
#1066=DIRECTION('',(0.,0.8,0.6));
#1067=DIRECTION('center_axis',(0.,0.6,-0.8));
#1068=DIRECTION('ref_axis',(1.,0.,0.));
#1069=DIRECTION('center_axis',(0.,-0.8,-0.6));
#1070=DIRECTION('ref_axis',(-0.707106781186548,0.424264068711928,-0.565685424949238));
#1071=DIRECTION('',(0.,-0.8,-0.6));
#1072=DIRECTION('center_axis',(1.,0.,0.));
#1073=DIRECTION('ref_axis',(0.,-0.6,0.8));
#1074=CARTESIAN_POINT('',(0.,0.,0.));
#1075=CARTESIAN_POINT('Origin',(64.9749999999996,-10.3344996147944,16.9459994863925));
#1076=CARTESIAN_POINT('',(65.4749999999996,-9.11307836189769,14.4841044825303));
#1077=CARTESIAN_POINT('',(65.0999999999996,-8.78449961479439,14.6709994863925));
#1078=CARTESIAN_POINT('Origin',(65.0999999999996,-9.68449961479439,15.8709994863925));
#1079=CARTESIAN_POINT('',(65.4749999999996,-6.68449961479436,11.2459994863925));
#1080=CARTESIAN_POINT('',(65.4749999999996,-10.7344996147944,16.6459994863925));
#1081=CARTESIAN_POINT('',(64.4749999999996,-5.884499615201,11.8459994861337));
#1082=CARTESIAN_POINT('',(56.2062499999996,0.730500385205628,16.8072494863925));
#1083=CARTESIAN_POINT('',(64.4749999999996,-8.28449961531924,15.045999486045));
#1084=CARTESIAN_POINT('',(64.4749999999996,-5.884499615201,11.8459994861337));
#1085=CARTESIAN_POINT('',(65.5062499999996,-9.10949961479437,14.4272494863925));
#1086=CARTESIAN_POINT('Origin',(65.0999999999996,-14.8344996147944,22.9459994863925));
#1087=CARTESIAN_POINT('',(65.0999999999996,-14.0844996147944,21.9459994863925));
#1088=CARTESIAN_POINT('',(64.5999999999996,-13.6844996155853,22.2459994858455));
#1089=CARTESIAN_POINT('',(58.0499999999996,-8.44449961479437,26.1759994863925));
#1090=CARTESIAN_POINT('',(64.5999999999996,-17.2844996157626,27.0459994857124));
#1091=CARTESIAN_POINT('',(64.5999999999996,-13.6844996155853,22.2459994858455));
#1092=CARTESIAN_POINT('',(65.5999999999996,-18.0844996147944,26.4459994863925));
#1093=CARTESIAN_POINT('',(67.3499999999996,-19.4844996147944,25.3959994863925));
#1094=CARTESIAN_POINT('',(65.5999999999996,-14.4330277522182,21.577370336291));
#1095=CARTESIAN_POINT('',(65.5999999999996,-15.2344996147944,22.6459994863925));
#1096=CARTESIAN_POINT('Origin',(65.0999999999996,-13.1844996147944,20.7459994863925));
#1097=CARTESIAN_POINT('Origin',(37.8999999999996,-13.0344996147944,20.5459994863925));
#1098=CARTESIAN_POINT('',(37.3999999999996,-14.4330277522182,21.577370336291));
#1099=CARTESIAN_POINT('',(37.8999999999996,-14.0844996147944,21.9459994863925));
#1100=CARTESIAN_POINT('Origin',(37.8999999999996,-13.1844996147944,20.7459994863925));
#1101=CARTESIAN_POINT('',(37.3999999999996,-18.0844996147944,26.4459994863925));
#1102=CARTESIAN_POINT('',(37.3999999999996,-13.4344996147944,20.2459994863925));
#1103=CARTESIAN_POINT('',(38.3999999999996,-17.2844996157626,27.0459994857124));
#1104=CARTESIAN_POINT('',(46.6999999999997,-10.6444996147944,32.0259994863925));
#1105=CARTESIAN_POINT('',(38.3999999999996,-13.6844996155853,22.2459994858455));
#1106=CARTESIAN_POINT('',(38.3999999999996,-17.2844996157626,27.0459994857124));
#1107=CARTESIAN_POINT('',(37.3999999999996,-14.4844996147944,21.6459994863925));
#1108=CARTESIAN_POINT('Origin',(51.4999999999996,-12.3844996147944,18.8459994863925));
#1109=CARTESIAN_POINT('',(36.3999999999996,-13.5844996147944,20.4459994863925));
#1110=CARTESIAN_POINT('Origin',(37.8999999999996,-13.5844996147944,20.4459994863925));
#1111=CARTESIAN_POINT('',(36.3999999999996,-9.98449961479437,15.6459994863925));
#1112=CARTESIAN_POINT('',(36.3999999999996,-9.08449961479436,14.4459994863925));
#1113=CARTESIAN_POINT('',(37.3999999999996,-9.13597147737051,14.514628636494));
#1114=CARTESIAN_POINT('Origin',(37.8999999999996,-9.98449961479437,15.6459994863925));
#1115=CARTESIAN_POINT('',(37.3999999999996,-6.68449961479436,11.2459994863925));
#1116=CARTESIAN_POINT('',(37.3999999999996,-9.53449961479436,15.0459994863925));
#1117=CARTESIAN_POINT('',(36.4710678118651,-6.68449961479436,11.2459994863925));
#1118=CARTESIAN_POINT('',(73.5999999999996,-6.68449961479436,11.2459994863925));
#1119=CARTESIAN_POINT('',(32.9355339059323,-7.56317927123472,12.4175723616463));
#1120=CARTESIAN_POINT('Origin',(36.4710678118651,-9.68449961479436,15.2459994863925));
#1121=CARTESIAN_POINT('',(30.8644660940669,-8.805819958354,14.0744266111387));
#1122=CARTESIAN_POINT('',(35.0499999999996,-6.29449961479436,10.7259994863925));
#1123=CARTESIAN_POINT('',(29.3999999999996,-10.9271403019136,16.9028537358849));
#1124=CARTESIAN_POINT('Origin',(34.3999999999996,-10.9271403019136,16.9028537358849));
#1125=CARTESIAN_POINT('',(29.3999999999996,-13.8418589276751,20.7891452369001));
#1126=CARTESIAN_POINT('',(29.3999999999996,-6.68449961479436,11.2459994863925));
#1127=CARTESIAN_POINT('',(30.8644660940669,-15.9631792712347,23.6175723616463));
#1128=CARTESIAN_POINT('Origin',(34.3999999999996,-13.8418589276751,20.7891452369001));
#1129=CARTESIAN_POINT('',(32.9355339059323,-17.205819958354,25.2744266111387));
#1130=CARTESIAN_POINT('',(35.0499999999996,-18.4744996147944,26.9659994863925));
#1131=CARTESIAN_POINT('',(36.4710678118651,-18.0844996147944,26.4459994863925));
#1132=CARTESIAN_POINT('Origin',(36.4710678118651,-15.0844996147944,22.4459994863925));
#1133=CARTESIAN_POINT('',(29.3999999999996,-18.0844996147944,26.4459994863925));
#1134=CARTESIAN_POINT('',(33.1999999999996,-12.3844996147944,18.8459994863925));
#1135=CARTESIAN_POINT('Origin',(32.1999999999996,-12.3844996147944,18.8459994863925));
#1136=CARTESIAN_POINT('Origin',(37.8999999999996,-9.13449961479436,15.3459994863925));
#1137=CARTESIAN_POINT('',(37.8999999999996,-8.68449961479438,14.7459994863925));
#1138=CARTESIAN_POINT('',(38.3999999999996,-8.28449961531924,15.045999486045));
#1139=CARTESIAN_POINT('',(44.9499999999996,-3.04449961479437,18.9759994863925));
#1140=CARTESIAN_POINT('',(38.3999999999996,-5.88449961520101,11.8459994861337));
#1141=CARTESIAN_POINT('',(38.3999999999996,-8.28449961531924,15.045999486045));
#1142=CARTESIAN_POINT('',(35.6499999999996,-8.08449961479436,10.1959994863925));
#1143=CARTESIAN_POINT('Origin',(37.8999999999996,-9.58449961479438,15.9459994863925));
#1144=CARTESIAN_POINT('Origin',(51.4999999999996,-15.4844996156739,24.645999485779));
#1145=CARTESIAN_POINT('',(64.5999999999996,-17.2844996157626,27.0459994857124));
#1146=CARTESIAN_POINT('',(38.3999999999996,-13.6844996155853,22.2459994858455));
#1147=CARTESIAN_POINT('Origin',(51.4999999999996,-12.3844996147944,18.8459994863925));
#1148=CARTESIAN_POINT('',(66.5999999999996,-9.98449961479436,15.6459994863925));
#1149=CARTESIAN_POINT('Origin',(65.0999999999996,-9.98449961479437,15.6459994863925));
#1150=CARTESIAN_POINT('',(66.5999999999996,-13.5844996147944,20.4459994863925));
#1151=CARTESIAN_POINT('',(66.5999999999996,-14.4844996147944,21.6459994863925));
#1152=CARTESIAN_POINT('Origin',(65.0999999999996,-13.5844996147944,20.4459994863925));
#1153=CARTESIAN_POINT('',(66.5289321881341,-18.0844996147944,26.4459994863925));
#1154=CARTESIAN_POINT('',(29.3999999999996,-18.0844996147944,26.4459994863925));
#1155=CARTESIAN_POINT('',(70.0644660940669,-17.205819958354,25.2744266111387));
#1156=CARTESIAN_POINT('Origin',(66.5289321881341,-15.0844996147944,22.4459994863925));
#1157=CARTESIAN_POINT('',(72.1355339059323,-15.9631792712347,23.6175723616463));
#1158=CARTESIAN_POINT('',(67.9499999999996,-18.4744996147944,26.9659994863925));
#1159=CARTESIAN_POINT('',(73.5999999999996,-13.8418589276751,20.7891452369001));
#1160=CARTESIAN_POINT('Origin',(68.5999999999996,-13.8418589276751,20.7891452369001));
#1161=CARTESIAN_POINT('',(73.5999999999996,-10.9271403019136,16.9028537358849));
#1162=CARTESIAN_POINT('',(73.5999999999996,-18.0844996147944,26.4459994863925));
#1163=CARTESIAN_POINT('',(72.1355339059323,-8.805819958354,14.0744266111387));
#1164=CARTESIAN_POINT('Origin',(68.5999999999996,-10.9271403019136,16.9028537358849));
#1165=CARTESIAN_POINT('',(70.0644660940669,-7.56317927123472,12.4175723616463));
#1166=CARTESIAN_POINT('',(67.9499999999996,-6.29449961479436,10.7259994863925));
#1167=CARTESIAN_POINT('',(66.5289321881341,-6.68449961479436,11.2459994863925));
#1168=CARTESIAN_POINT('Origin',(66.5289321881341,-9.68449961479436,15.2459994863925));
#1169=CARTESIAN_POINT('',(73.5999999999996,-6.68449961479436,11.2459994863925));
#1170=CARTESIAN_POINT('',(71.7999999999996,-12.3844996147944,18.8459994863925));
#1171=CARTESIAN_POINT('Origin',(70.7999999999996,-12.3844996147944,18.8459994863925));
#1172=CARTESIAN_POINT('Origin',(51.4374999999996,-7.08449961526012,13.4459994860893));
#1173=CARTESIAN_POINT('',(64.4749999999996,-8.28449961531924,15.045999486045));
#1174=CARTESIAN_POINT('',(38.3999999999996,-5.88449961520101,11.8459994861337));
#1175=CARTESIAN_POINT('Origin',(66.5999999999996,-9.08449961479436,14.4459994863925));
#1176=CARTESIAN_POINT('',(65.0999999999996,-11.9644996152394,12.2859994859386));
#1177=CARTESIAN_POINT('',(65.0999999999996,-9.08449961479437,14.4459994863925));
#1178=CARTESIAN_POINT('',(37.8999999999996,-11.9644996152394,12.2859994859386));
#1179=CARTESIAN_POINT('',(37.8999999999996,-9.08449961479436,14.4459994863925));
#1180=CARTESIAN_POINT('',(65.0999999999996,-11.9644996152394,12.2859994859386));
#1181=CARTESIAN_POINT('Origin',(65.0999999999996,-9.98449961479437,15.6459994863925));
#1182=CARTESIAN_POINT('',(66.5999999999996,-12.8644996152838,13.4859994859053));
#1183=CARTESIAN_POINT('',(66.5999999999996,-9.98449961479437,15.6459994863925));
#1184=CARTESIAN_POINT('Origin',(65.0999999999996,-12.8644996152838,13.4859994859053));
#1185=CARTESIAN_POINT('Origin',(66.5999999999996,-14.4844996147944,21.6459994863925));
#1186=CARTESIAN_POINT('',(66.5999999999996,-16.4644996154611,18.2859994857723));
#1187=CARTESIAN_POINT('',(66.5999999999996,-13.5844996147944,20.4459994863925));
#1188=CARTESIAN_POINT('',(66.5999999999996,-16.4644996154611,18.2859994857723));
#1189=CARTESIAN_POINT('Origin',(65.0999999999996,-13.5844996147944,20.4459994863925));
#1190=CARTESIAN_POINT('',(65.0999999999996,-17.3644996155055,19.4859994857391));
#1191=CARTESIAN_POINT('',(65.0999999999996,-14.4844996147944,21.6459994863925));
#1192=CARTESIAN_POINT('Origin',(65.0999999999996,-16.4644996154611,18.2859994857723));
#1193=CARTESIAN_POINT('Origin',(68.5999999999996,-10.9271403019136,16.9028537358849));
#1194=CARTESIAN_POINT('',(72.1355339059323,-11.6858199587853,11.9144266106951));
#1195=CARTESIAN_POINT('',(72.1355339059323,-11.6858199587853,11.9144266106951));
#1196=CARTESIAN_POINT('',(73.5999999999996,-13.8071403024495,14.7428537353629));
#1197=CARTESIAN_POINT('',(73.5999999999996,-10.9271403019136,16.9028537358849));
#1198=CARTESIAN_POINT('Origin',(68.5999999999995,-13.8071403024495,14.7428537353629));
#1199=CARTESIAN_POINT('Origin',(73.5999999999996,-6.68449961479436,11.2459994863925));
#1200=CARTESIAN_POINT('',(73.5999999999996,-16.7218589283545,18.6291452362704));
#1201=CARTESIAN_POINT('',(73.5999999999996,-13.8418589276751,20.7891452369001));
#1202=CARTESIAN_POINT('',(73.5999999999996,-15.264499615402,16.6859994858167));
#1203=CARTESIAN_POINT('Origin',(71.0999999999996,-8.18449961479436,13.2459994863925));
#1204=CARTESIAN_POINT('',(70.0644660940669,-10.4431792716048,10.2575723612486));
#1205=CARTESIAN_POINT('',(70.0644660940669,-7.56317927123472,12.4175723616463));
#1206=CARTESIAN_POINT('',(72.1355339059323,-11.6858199587853,11.9144266106951));
#1207=CARTESIAN_POINT('Origin',(66.5289321881341,-9.68449961479436,15.2459994863925));
#1208=CARTESIAN_POINT('',(66.5289321881341,-9.5644996151212,9.08599948602727));
#1209=CARTESIAN_POINT('',(66.5289321881341,-6.68449961479436,11.2459994863925));
#1210=CARTESIAN_POINT('Origin',(66.5289321881341,-12.564499615269,13.0859994859164));
#1211=CARTESIAN_POINT('Origin',(29.3999999999996,-6.68449961479436,11.2459994863925));
#1212=CARTESIAN_POINT('',(36.4710678118651,-9.56449961512121,9.08599948602725));
#1213=CARTESIAN_POINT('',(36.4710678118651,-6.68449961479436,11.2459994863925));
#1214=CARTESIAN_POINT('',(36.4710678118651,-9.56449961512121,9.08599948602725));
#1215=CARTESIAN_POINT('Origin',(36.4710678118651,-9.68449961479436,15.2459994863925));
#1216=CARTESIAN_POINT('',(32.9355339059323,-10.4431792716049,10.2575723612486));
#1217=CARTESIAN_POINT('',(32.9355339059323,-10.4431792716049,10.2575723612486));
#1218=CARTESIAN_POINT('Origin',(36.4710678118651,-12.564499615269,13.0859994859164));
#1219=CARTESIAN_POINT('Origin',(31.8999999999996,-8.18449961479436,13.2459994863925));
#1220=CARTESIAN_POINT('',(30.8644660940669,-11.6858199587854,11.9144266106951));
#1221=CARTESIAN_POINT('',(30.8644660940669,-8.80581995835401,14.0744266111387));
#1222=CARTESIAN_POINT('',(32.9355339059323,-10.4431792716049,10.2575723612486));
#1223=CARTESIAN_POINT('Origin',(34.3999999999996,-10.9271403019137,16.9028537358849));
#1224=CARTESIAN_POINT('',(29.3999999999996,-13.8071403024495,14.7428537353629));
#1225=CARTESIAN_POINT('',(29.3999999999996,-10.9271403019137,16.9028537358849));
#1226=CARTESIAN_POINT('Origin',(34.3999999999996,-13.8071403024495,14.7428537353629));
#1227=CARTESIAN_POINT('Origin',(29.3999999999996,-18.0844996147944,26.4459994863925));
#1228=CARTESIAN_POINT('',(29.3999999999996,-16.7218589283545,18.6291452362704));
#1229=CARTESIAN_POINT('',(29.3999999999996,-15.264499615402,16.6859994858166));
#1230=CARTESIAN_POINT('',(29.3999999999996,-13.8418589276751,20.7891452369001));
#1231=CARTESIAN_POINT('Origin',(70.7999999999996,-13.1844996147944,18.2459994863925));
#1232=CARTESIAN_POINT('',(71.7999999999996,-13.1844996147944,18.2459994863925));
#1233=CARTESIAN_POINT('Origin',(70.7999999999996,-13.1844996147944,18.2459994863925));
#1234=CARTESIAN_POINT('',(71.7999999999996,-13.1844996147944,18.2459994863925));
#1235=CARTESIAN_POINT('Origin',(32.1999999999996,-13.1844996147944,18.2459994863925));
#1236=CARTESIAN_POINT('',(33.1999999999996,-13.1844996147944,18.2459994863925));
#1237=CARTESIAN_POINT('Origin',(32.1999999999996,-13.1844996147944,18.2459994863925));
#1238=CARTESIAN_POINT('',(33.1999999999996,-13.1844996147944,18.2459994863925));
#1239=CARTESIAN_POINT('Origin',(32.1999999999996,-13.1844996147944,18.2459994863925));
#1240=CARTESIAN_POINT('',(34.1999999999996,-15.2644996147944,16.6859994863925));
#1241=CARTESIAN_POINT('Origin',(32.1999999999996,-15.2644996147944,16.6859994863925));
#1242=CARTESIAN_POINT('',(34.1999999999996,-13.1844996147944,18.2459994863925));
#1243=CARTESIAN_POINT('',(34.1999999999996,-13.1844996147944,18.2459994863925));
#1244=CARTESIAN_POINT('Origin',(32.1999999999996,-13.1844996147944,18.2459994863925));
#1245=CARTESIAN_POINT('Origin',(70.7999999999996,-13.1844996147944,18.2459994863925));
#1246=CARTESIAN_POINT('',(72.7999999999996,-15.2644996147944,16.6859994863925));
#1247=CARTESIAN_POINT('Origin',(70.7999999999996,-15.2644996147944,16.6859994863925));
#1248=CARTESIAN_POINT('',(72.7999999999996,-13.1844996147944,18.2459994863925));
#1249=CARTESIAN_POINT('',(72.7999999999996,-13.1844996147944,18.2459994863925));
#1250=CARTESIAN_POINT('Origin',(70.7999999999996,-13.1844996147944,18.2459994863925));
#1251=CARTESIAN_POINT('Origin',(51.4999999999996,-15.2644996147944,16.6859994863925));
#1252=CARTESIAN_POINT('',(72.1355339059323,-18.8431792720187,21.4575723609382));
#1253=CARTESIAN_POINT('Origin',(68.5999999999996,-16.7218589283545,18.6291452362704));
#1254=CARTESIAN_POINT('',(70.0644660940669,-20.0858199591992,23.1144266103847));
#1255=CARTESIAN_POINT('',(70.0644660940669,-20.0858199591992,23.1144266103847));
#1256=CARTESIAN_POINT('',(66.5289321881341,-20.9644996156828,24.285999485606));
#1257=CARTESIAN_POINT('Origin',(66.5289321881342,-17.9644996155351,20.2859994857169));
#1258=CARTESIAN_POINT('',(36.4710678118651,-20.9644996156828,24.285999485606));
#1259=CARTESIAN_POINT('',(66.5289321881341,-20.9644996156828,24.285999485606));
#1260=CARTESIAN_POINT('',(32.9355339059323,-20.0858199591992,23.1144266103847));
#1261=CARTESIAN_POINT('Origin',(36.4710678118651,-17.964499615535,20.2859994857169));
#1262=CARTESIAN_POINT('',(30.8644660940669,-18.8431792720187,21.4575723609382));
#1263=CARTESIAN_POINT('',(30.8644660940669,-18.8431792720187,21.4575723609382));
#1264=CARTESIAN_POINT('Origin',(34.3999999999996,-16.7218589283545,18.6291452362704));
#1265=CARTESIAN_POINT('',(36.3999999999996,-16.4644996154611,18.2859994857723));
#1266=CARTESIAN_POINT('',(37.8999999999996,-17.3644996155055,19.4859994857391));
#1267=CARTESIAN_POINT('Origin',(37.8999999999996,-16.4644996154611,18.2859994857723));
#1268=CARTESIAN_POINT('',(37.8999999999996,-17.3644996155055,19.4859994857391));
#1269=CARTESIAN_POINT('',(36.3999999999996,-12.8644996152838,13.4859994859053));
#1270=CARTESIAN_POINT('Origin',(37.8999999999996,-12.8644996152838,13.4859994859053));
#1271=CARTESIAN_POINT('',(36.3999999999996,-12.8644996152838,13.4859994859053));
#1272=CARTESIAN_POINT('Origin',(51.4999999999996,-13.1844996147944,18.2459994863925));
#1273=CARTESIAN_POINT('Origin',(51.4999999999996,-13.1844996147944,18.2459994863925));
#1274=CARTESIAN_POINT('Origin',(68.5999999999996,-13.8418589276751,20.7891452369001));
#1275=CARTESIAN_POINT('',(72.1355339059323,-15.9631792712347,23.6175723616463));
#1276=CARTESIAN_POINT('Origin',(71.0999999999996,-16.5844996147944,24.4459994863925));
#1277=CARTESIAN_POINT('',(70.0644660940669,-20.0858199591992,23.1144266103847));
#1278=CARTESIAN_POINT('Origin',(66.5289321881341,-15.0844996147944,22.4459994863925));
#1279=CARTESIAN_POINT('',(66.5289321881341,-18.0844996147944,26.4459994863925));
#1280=CARTESIAN_POINT('Origin',(73.5999999999996,-18.0844996147944,26.4459994863925));
#1281=CARTESIAN_POINT('',(36.4710678118651,-18.0844996147944,26.4459994863925));
#1282=CARTESIAN_POINT('Origin',(36.4710678118651,-15.0844996147944,22.4459994863925));
#1283=CARTESIAN_POINT('',(32.9355339059323,-17.205819958354,25.2744266111387));
#1284=CARTESIAN_POINT('Origin',(31.8999999999996,-16.5844996147944,24.4459994863925));
#1285=CARTESIAN_POINT('',(30.8644660940669,-18.8431792720187,21.4575723609382));
#1286=CARTESIAN_POINT('Origin',(34.3999999999996,-13.8418589276751,20.7891452369001));
#1287=CARTESIAN_POINT('Origin',(37.8999999999996,-13.5844996147944,20.4459994863925));
#1288=CARTESIAN_POINT('',(36.3999999999996,-13.5844996147944,20.4459994863925));
#1289=CARTESIAN_POINT('',(37.8999999999996,-14.4844996147944,21.6459994863925));
#1290=CARTESIAN_POINT('Origin',(36.3999999999996,-14.4844996147944,21.6459994863925));
#1291=CARTESIAN_POINT('Origin',(37.8999999999996,-9.98449961479437,15.6459994863925));
#1292=CARTESIAN_POINT('',(36.3999999999996,-9.98449961479437,15.6459994863925));
#1293=CARTESIAN_POINT('Origin',(36.3999999999996,-9.08449961479436,14.4459994863925));
#1294=UNCERTAINTY_MEASURE_WITH_UNIT(LENGTH_MEASURE(0.01),#1298,
'DISTANCE_ACCURACY_VALUE',
'Maximum model space distance between geometric entities at asserted c
onnectivities');
#1295=UNCERTAINTY_MEASURE_WITH_UNIT(LENGTH_MEASURE(0.01),#1298,
'DISTANCE_ACCURACY_VALUE',
'Maximum model space distance between geometric entities at asserted c
onnectivities');
#1296=(
GEOMETRIC_REPRESENTATION_CONTEXT(3)
GLOBAL_UNCERTAINTY_ASSIGNED_CONTEXT((#1294))
GLOBAL_UNIT_ASSIGNED_CONTEXT((#1298,#1300,#1301))
REPRESENTATION_CONTEXT('','3D')
);
#1297=(
GEOMETRIC_REPRESENTATION_CONTEXT(3)
GLOBAL_UNCERTAINTY_ASSIGNED_CONTEXT((#1295))
GLOBAL_UNIT_ASSIGNED_CONTEXT((#1298,#1300,#1301))
REPRESENTATION_CONTEXT('','3D')
);
#1298=(
LENGTH_UNIT()
NAMED_UNIT(*)
SI_UNIT(.MILLI.,.METRE.)
);
#1299=(
LENGTH_UNIT()
NAMED_UNIT(*)
SI_UNIT($,.METRE.)
);
#1300=(
NAMED_UNIT(*)
PLANE_ANGLE_UNIT()
SI_UNIT($,.RADIAN.)
);
#1301=(
NAMED_UNIT(*)
SI_UNIT($,.STERADIAN.)
SOLID_ANGLE_UNIT()
);
#1302=SHAPE_DEFINITION_REPRESENTATION(#1303,#1304);
#1303=PRODUCT_DEFINITION_SHAPE('',$,#1306);
#1304=SHAPE_REPRESENTATION('',(#774),#1296);
#1305=PRODUCT_DEFINITION_CONTEXT('part definition',#1310,'design');
#1306=PRODUCT_DEFINITION('Screen Retainer','Screen Retainer',#1307,#1305);
#1307=PRODUCT_DEFINITION_FORMATION('',$,#1312);
#1308=PRODUCT_RELATED_PRODUCT_CATEGORY('Screen Retainer',
'Screen Retainer',(#1312));
#1309=APPLICATION_PROTOCOL_DEFINITION('international standard',
'automotive_design',2009,#1310);
#1310=APPLICATION_CONTEXT(
'Core Data for Automotive Mechanical Design Process');
#1311=PRODUCT_CONTEXT('part definition',#1310,'mechanical');
#1312=PRODUCT('Screen Retainer','Screen Retainer',$,(#1311));
#1313=PRESENTATION_STYLE_ASSIGNMENT((#1314));
#1314=SURFACE_STYLE_USAGE(.BOTH.,#1315);
#1315=SURFACE_SIDE_STYLE('',(#1316));
#1316=SURFACE_STYLE_FILL_AREA(#1317);
#1317=FILL_AREA_STYLE('Steel - Satin',(#1318));
#1318=FILL_AREA_STYLE_COLOUR('Steel - Satin',#1319);
#1319=COLOUR_RGB('Steel - Satin',0.627450980392157,0.627450980392157,0.627450980392157);
ENDSEC;
END-ISO-10303-21;
