ISO-10303-21;
HEADER;
/* Generated by software containing ST-Developer
 * from STEP Tools, Inc. (www.steptools.com) 
 */

FILE_DESCRIPTION(
/* description */ (''),
/* implementation_level */ '2;1');

FILE_NAME(
/* name */ 'End Cap-3DPrint.step',
/* time_stamp */ '2025-05-01T08:09:48+01:00',
/* author */ (''),
/* organization */ (''),
/* preprocessor_version */ 'ST-DEVELOPER v20.1',
/* originating_system */ 'Autodesk Translation Framework v14.4.0.0',
/* authorisation */ '');

FILE_SCHEMA (('AUTOMOTIVE_DESIGN { 1 0 10303 214 3 1 1 }'));
ENDSEC;

DATA;
#10=MECHANICAL_DESIGN_GEOMETRIC_PRESENTATION_REPRESENTATION('',(#13),#206);
#11=SHAPE_REPRESENTATION_RELATIONSHIP('SRR','None',#213,#12);
#12=ADVANCED_BREP_SHAPE_REPRESENTATION('',(#14),#205);
#13=STYLED_ITEM('',(#222),#14);
#14=MANIFOLD_SOLID_BREP('End Cap',#109);
#15=CONICAL_SURFACE('',#131,6.25,0.523598775598304);
#16=CONICAL_SURFACE('',#133,6.25,0.523598775598291);
#17=FACE_BOUND('',#42,.T.);
#18=LINE('',#181,#23);
#19=LINE('',#189,#24);
#20=LINE('',#193,#25);
#21=LINE('',#197,#26);
#22=LINE('',#201,#27);
#23=VECTOR('',#146,4.);
#24=VECTOR('',#157,7.);
#25=VECTOR('',#162,6.25);
#26=VECTOR('',#167,6.25);
#27=VECTOR('',#172,7.);
#28=CYLINDRICAL_SURFACE('',#125,4.);
#29=CYLINDRICAL_SURFACE('',#129,7.);
#30=CYLINDRICAL_SURFACE('',#135,7.);
#31=FACE_OUTER_BOUND('',#39,.T.);
#32=FACE_OUTER_BOUND('',#40,.T.);
#33=FACE_OUTER_BOUND('',#41,.T.);
#34=FACE_OUTER_BOUND('',#43,.T.);
#35=FACE_OUTER_BOUND('',#44,.T.);
#36=FACE_OUTER_BOUND('',#45,.T.);
#37=FACE_OUTER_BOUND('',#46,.T.);
#38=FACE_OUTER_BOUND('',#47,.T.);
#39=EDGE_LOOP('',(#74));
#40=EDGE_LOOP('',(#75,#76,#77,#78));
#41=EDGE_LOOP('',(#79));
#42=EDGE_LOOP('',(#80));
#43=EDGE_LOOP('',(#81,#82,#83,#84));
#44=EDGE_LOOP('',(#85,#86,#87,#88));
#45=EDGE_LOOP('',(#89,#90,#91,#92));
#46=EDGE_LOOP('',(#93,#94,#95,#96));
#47=EDGE_LOOP('',(#97));
#48=CIRCLE('',#124,4.);
#49=CIRCLE('',#126,4.);
#50=CIRCLE('',#128,7.);
#51=CIRCLE('',#130,7.);
#52=CIRCLE('',#132,5.50000000000001);
#53=CIRCLE('',#134,7.);
#54=CIRCLE('',#136,7.);
#55=VERTEX_POINT('',#177);
#56=VERTEX_POINT('',#180);
#57=VERTEX_POINT('',#184);
#58=VERTEX_POINT('',#187);
#59=VERTEX_POINT('',#191);
#60=VERTEX_POINT('',#195);
#61=VERTEX_POINT('',#199);
#62=EDGE_CURVE('',#55,#55,#48,.T.);
#63=EDGE_CURVE('',#55,#56,#18,.T.);
#64=EDGE_CURVE('',#56,#56,#49,.T.);
#65=EDGE_CURVE('',#57,#57,#50,.T.);
#66=EDGE_CURVE('',#58,#58,#51,.T.);
#67=EDGE_CURVE('',#58,#57,#19,.T.);
#68=EDGE_CURVE('',#59,#59,#52,.T.);
#69=EDGE_CURVE('',#59,#58,#20,.T.);
#70=EDGE_CURVE('',#60,#60,#53,.T.);
#71=EDGE_CURVE('',#60,#59,#21,.T.);
#72=EDGE_CURVE('',#61,#61,#54,.T.);
#73=EDGE_CURVE('',#61,#60,#22,.T.);
#74=ORIENTED_EDGE('',*,*,#62,.F.);
#75=ORIENTED_EDGE('',*,*,#62,.T.);
#76=ORIENTED_EDGE('',*,*,#63,.T.);
#77=ORIENTED_EDGE('',*,*,#64,.F.);
#78=ORIENTED_EDGE('',*,*,#63,.F.);
#79=ORIENTED_EDGE('',*,*,#65,.F.);
#80=ORIENTED_EDGE('',*,*,#64,.T.);
#81=ORIENTED_EDGE('',*,*,#66,.F.);
#82=ORIENTED_EDGE('',*,*,#67,.T.);
#83=ORIENTED_EDGE('',*,*,#65,.T.);
#84=ORIENTED_EDGE('',*,*,#67,.F.);
#85=ORIENTED_EDGE('',*,*,#68,.F.);
#86=ORIENTED_EDGE('',*,*,#69,.T.);
#87=ORIENTED_EDGE('',*,*,#66,.T.);
#88=ORIENTED_EDGE('',*,*,#69,.F.);
#89=ORIENTED_EDGE('',*,*,#70,.F.);
#90=ORIENTED_EDGE('',*,*,#71,.T.);
#91=ORIENTED_EDGE('',*,*,#68,.T.);
#92=ORIENTED_EDGE('',*,*,#71,.F.);
#93=ORIENTED_EDGE('',*,*,#72,.F.);
#94=ORIENTED_EDGE('',*,*,#73,.T.);
#95=ORIENTED_EDGE('',*,*,#70,.T.);
#96=ORIENTED_EDGE('',*,*,#73,.F.);
#97=ORIENTED_EDGE('',*,*,#72,.T.);
#98=PLANE('',#123);
#99=PLANE('',#127);
#100=PLANE('',#137);
#101=ADVANCED_FACE('',(#31),#98,.T.);
#102=ADVANCED_FACE('',(#32),#28,.F.);
#103=ADVANCED_FACE('',(#33,#17),#99,.T.);
#104=ADVANCED_FACE('',(#34),#29,.T.);
#105=ADVANCED_FACE('',(#35),#15,.T.);
#106=ADVANCED_FACE('',(#36),#16,.T.);
#107=ADVANCED_FACE('',(#37),#30,.T.);
#108=ADVANCED_FACE('',(#38),#100,.T.);
#109=CLOSED_SHELL('',(#101,#102,#103,#104,#105,#106,#107,#108));
#110=DERIVED_UNIT_ELEMENT(#112,1.);
#111=DERIVED_UNIT_ELEMENT(#208,-3.);
#112=(
MASS_UNIT()
NAMED_UNIT(*)
SI_UNIT(.KILO.,.GRAM.)
);
#113=DERIVED_UNIT((#110,#111));
#114=MEASURE_REPRESENTATION_ITEM('density measure',
POSITIVE_RATIO_MEASURE(7850.),#113);
#115=PROPERTY_DEFINITION_REPRESENTATION(#120,#117);
#116=PROPERTY_DEFINITION_REPRESENTATION(#121,#118);
#117=REPRESENTATION('material name',(#119),#205);
#118=REPRESENTATION('density',(#114),#205);
#119=DESCRIPTIVE_REPRESENTATION_ITEM('Steel','Steel');
#120=PROPERTY_DEFINITION('material property','material name',#215);
#121=PROPERTY_DEFINITION('material property','density of part',#215);
#122=AXIS2_PLACEMENT_3D('',#175,#138,#139);
#123=AXIS2_PLACEMENT_3D('',#176,#140,#141);
#124=AXIS2_PLACEMENT_3D('',#178,#142,#143);
#125=AXIS2_PLACEMENT_3D('',#179,#144,#145);
#126=AXIS2_PLACEMENT_3D('',#182,#147,#148);
#127=AXIS2_PLACEMENT_3D('',#183,#149,#150);
#128=AXIS2_PLACEMENT_3D('',#185,#151,#152);
#129=AXIS2_PLACEMENT_3D('',#186,#153,#154);
#130=AXIS2_PLACEMENT_3D('',#188,#155,#156);
#131=AXIS2_PLACEMENT_3D('',#190,#158,#159);
#132=AXIS2_PLACEMENT_3D('',#192,#160,#161);
#133=AXIS2_PLACEMENT_3D('',#194,#163,#164);
#134=AXIS2_PLACEMENT_3D('',#196,#165,#166);
#135=AXIS2_PLACEMENT_3D('',#198,#168,#169);
#136=AXIS2_PLACEMENT_3D('',#200,#170,#171);
#137=AXIS2_PLACEMENT_3D('',#202,#173,#174);
#138=DIRECTION('axis',(0.,0.,1.));
#139=DIRECTION('refdir',(1.,0.,0.));
#140=DIRECTION('center_axis',(-1.4896211294567E-68,0.,-1.));
#141=DIRECTION('ref_axis',(-1.,0.,1.4896211294567E-68));
#142=DIRECTION('center_axis',(1.4896211294567E-68,0.,1.));
#143=DIRECTION('ref_axis',(1.,0.,-1.4896211294567E-68));
#144=DIRECTION('center_axis',(1.4896211294567E-68,0.,1.));
#145=DIRECTION('ref_axis',(-4.28154430130299E-68,1.,0.));
#146=DIRECTION('',(-1.4896211294567E-68,0.,-1.));
#147=DIRECTION('center_axis',(1.4896211294567E-68,0.,1.));
#148=DIRECTION('ref_axis',(1.,0.,-1.4896211294567E-68));
#149=DIRECTION('center_axis',(-1.4896211294567E-68,0.,-1.));
#150=DIRECTION('ref_axis',(-1.,0.,1.4896211294567E-68));
#151=DIRECTION('center_axis',(1.4896211294567E-68,0.,1.));
#152=DIRECTION('ref_axis',(1.,0.,-1.4896211294567E-68));
#153=DIRECTION('center_axis',(1.4896211294567E-68,0.,1.));
#154=DIRECTION('ref_axis',(-4.28154430130299E-68,1.,0.));
#155=DIRECTION('center_axis',(1.4896211294567E-68,0.,1.));
#156=DIRECTION('ref_axis',(1.,0.,-1.4896211294567E-68));
#157=DIRECTION('',(-1.4896211294567E-68,0.,-1.));
#158=DIRECTION('center_axis',(-1.4896211294567E-68,0.,-1.));
#159=DIRECTION('ref_axis',(-4.28154430130299E-68,1.,0.));
#160=DIRECTION('center_axis',(1.4896211294567E-68,0.,1.));
#161=DIRECTION('ref_axis',(1.,0.,-1.4896211294567E-68));
#162=DIRECTION('',(6.12323399573682E-17,-0.500000000000004,-0.866025403784436));
#163=DIRECTION('center_axis',(1.4896211294567E-68,0.,1.));
#164=DIRECTION('ref_axis',(-4.28154430130299E-68,1.,0.));
#165=DIRECTION('center_axis',(1.4896211294567E-68,0.,1.));
#166=DIRECTION('ref_axis',(1.,0.,-1.4896211294567E-68));
#167=DIRECTION('',(-6.12323399573669E-17,0.499999999999994,-0.866025403784442));
#168=DIRECTION('center_axis',(1.4896211294567E-68,0.,1.));
#169=DIRECTION('ref_axis',(-4.28154430130299E-68,1.,0.));
#170=DIRECTION('center_axis',(1.4896211294567E-68,0.,1.));
#171=DIRECTION('ref_axis',(1.,0.,-1.4896211294567E-68));
#172=DIRECTION('',(-1.4896211294567E-68,0.,-1.));
#173=DIRECTION('center_axis',(1.4896211294567E-68,0.,1.));
#174=DIRECTION('ref_axis',(1.,0.,-1.4896211294567E-68));
#175=CARTESIAN_POINT('',(0.,0.,0.));
#176=CARTESIAN_POINT('Origin',(142.75,-11.4641016151324,112.));
#177=CARTESIAN_POINT('',(142.75,-19.4641016151324,112.));
#178=CARTESIAN_POINT('Origin',(142.75,-15.4641016151324,112.));
#179=CARTESIAN_POINT('Origin',(142.75,-15.4641016151324,103.011125854214));
#180=CARTESIAN_POINT('',(142.75,-19.4641016151324,94.0222517084277));
#181=CARTESIAN_POINT('',(142.75,-19.4641016151324,103.011125854214));
#182=CARTESIAN_POINT('Origin',(142.75,-15.4641016151324,94.0222517084277));
#183=CARTESIAN_POINT('Origin',(142.75,-8.46410161513239,94.0222517084277));
#184=CARTESIAN_POINT('',(142.75,-22.4641016151324,94.0222517084277));
#185=CARTESIAN_POINT('Origin',(142.75,-15.4641016151324,94.0222517084277));
#186=CARTESIAN_POINT('Origin',(142.75,-15.4641016151324,95.7120877485372));
#187=CARTESIAN_POINT('',(142.75,-22.4641016151324,97.4019237886467));
#188=CARTESIAN_POINT('Origin',(142.75,-15.4641016151324,97.4019237886467));
#189=CARTESIAN_POINT('',(142.75,-22.4641016151324,95.7120877485372));
#190=CARTESIAN_POINT('Origin',(142.75,-15.4641016151324,98.7009618943233));
#191=CARTESIAN_POINT('',(142.75,-20.9641016151324,100.));
#192=CARTESIAN_POINT('Origin',(142.75,-15.4641016151324,100.));
#193=CARTESIAN_POINT('',(142.75,-21.7141016151324,98.7009618943233));
#194=CARTESIAN_POINT('Origin',(142.75,-15.4641016151324,101.299038105677));
#195=CARTESIAN_POINT('',(142.75,-22.4641016151324,102.598076211353));
#196=CARTESIAN_POINT('Origin',(142.75,-15.4641016151324,102.598076211353));
#197=CARTESIAN_POINT('',(142.75,-21.7141016151324,101.299038105677));
#198=CARTESIAN_POINT('Origin',(142.75,-15.4641016151324,108.799038105677));
#199=CARTESIAN_POINT('',(142.75,-22.4641016151324,115.));
#200=CARTESIAN_POINT('Origin',(142.75,-15.4641016151324,115.));
#201=CARTESIAN_POINT('',(142.75,-22.4641016151324,108.799038105677));
#202=CARTESIAN_POINT('Origin',(142.75,-15.4641016151324,115.));
#203=UNCERTAINTY_MEASURE_WITH_UNIT(LENGTH_MEASURE(0.01),#207,
'DISTANCE_ACCURACY_VALUE',
'Maximum model space distance between geometric entities at asserted c
onnectivities');
#204=UNCERTAINTY_MEASURE_WITH_UNIT(LENGTH_MEASURE(0.01),#207,
'DISTANCE_ACCURACY_VALUE',
'Maximum model space distance between geometric entities at asserted c
onnectivities');
#205=(
GEOMETRIC_REPRESENTATION_CONTEXT(3)
GLOBAL_UNCERTAINTY_ASSIGNED_CONTEXT((#203))
GLOBAL_UNIT_ASSIGNED_CONTEXT((#207,#209,#210))
REPRESENTATION_CONTEXT('','3D')
);
#206=(
GEOMETRIC_REPRESENTATION_CONTEXT(3)
GLOBAL_UNCERTAINTY_ASSIGNED_CONTEXT((#204))
GLOBAL_UNIT_ASSIGNED_CONTEXT((#207,#209,#210))
REPRESENTATION_CONTEXT('','3D')
);
#207=(
LENGTH_UNIT()
NAMED_UNIT(*)
SI_UNIT(.MILLI.,.METRE.)
);
#208=(
LENGTH_UNIT()
NAMED_UNIT(*)
SI_UNIT($,.METRE.)
);
#209=(
NAMED_UNIT(*)
PLANE_ANGLE_UNIT()
SI_UNIT($,.RADIAN.)
);
#210=(
NAMED_UNIT(*)
SI_UNIT($,.STERADIAN.)
SOLID_ANGLE_UNIT()
);
#211=SHAPE_DEFINITION_REPRESENTATION(#212,#213);
#212=PRODUCT_DEFINITION_SHAPE('',$,#215);
#213=SHAPE_REPRESENTATION('',(#122),#205);
#214=PRODUCT_DEFINITION_CONTEXT('part definition',#219,'design');
#215=PRODUCT_DEFINITION('End Cap-3DPrint','End Cap-3DPrint',#216,#214);
#216=PRODUCT_DEFINITION_FORMATION('',$,#221);
#217=PRODUCT_RELATED_PRODUCT_CATEGORY('End Cap-3DPrint',
'End Cap-3DPrint',(#221));
#218=APPLICATION_PROTOCOL_DEFINITION('international standard',
'automotive_design',2009,#219);
#219=APPLICATION_CONTEXT(
'Core Data for Automotive Mechanical Design Process');
#220=PRODUCT_CONTEXT('part definition',#219,'mechanical');
#221=PRODUCT('End Cap-3DPrint','End Cap-3DPrint',$,(#220));
#222=PRESENTATION_STYLE_ASSIGNMENT((#223));
#223=SURFACE_STYLE_USAGE(.BOTH.,#224);
#224=SURFACE_SIDE_STYLE('',(#225));
#225=SURFACE_STYLE_FILL_AREA(#226);
#226=FILL_AREA_STYLE('Steel - Satin',(#227));
#227=FILL_AREA_STYLE_COLOUR('Steel - Satin',#228);
#228=COLOUR_RGB('Steel - Satin',0.627450980392157,0.627450980392157,0.627450980392157);
ENDSEC;
END-ISO-10303-21;
