ISO-10303-21;
HEADER;
/* Generated by software containing ST-Developer
 * from STEP Tools, Inc. (www.steptools.com) 
 */

FILE_DESCRIPTION(
/* description */ (''),
/* implementation_level */ '2;1');

FILE_NAME(
/* name */ 'TorqueShaftClampRight-3DPrint.step',
/* time_stamp */ '2025-05-01T08:09:05+01:00',
/* author */ (''),
/* organization */ (''),
/* preprocessor_version */ 'ST-DEVELOPER v20.1',
/* originating_system */ 'Autodesk Translation Framework v14.4.0.0',
/* authorisation */ '');

FILE_SCHEMA (('AUTOMOTIVE_DESIGN { 1 0 10303 214 3 1 1 }'));
ENDSEC;

DATA;
#10=MECHANICAL_DESIGN_GEOMETRIC_PRESENTATION_REPRESENTATION('',(#13),#1052);
#11=SHAPE_REPRESENTATION_RELATIONSHIP('SRR','None',#1059,#12);
#12=ADVANCED_BREP_SHAPE_REPRESENTATION('',(#14),#1051);
#13=STYLED_ITEM('',(#1068),#14);
#14=MANIFOLD_SOLID_BREP('Body1',#630);
#15=CYLINDRICAL_SURFACE('',#668,1.6);
#16=CYLINDRICAL_SURFACE('',#676,1.99999999999999);
#17=CYLINDRICAL_SURFACE('',#677,1.99999999999999);
#18=CYLINDRICAL_SURFACE('',#680,2.75);
#19=CYLINDRICAL_SURFACE('',#681,1.99999999999999);
#20=CYLINDRICAL_SURFACE('',#683,1.99999999999999);
#21=CYLINDRICAL_SURFACE('',#691,3.99999999999089);
#22=CYLINDRICAL_SURFACE('',#693,4.00000000001209);
#23=CYLINDRICAL_SURFACE('',#694,4.04999999999999);
#24=CYLINDRICAL_SURFACE('',#695,10.);
#25=CYLINDRICAL_SURFACE('',#697,10.);
#26=FACE_BOUND('',#96,.T.);
#27=FACE_BOUND('',#97,.T.);
#28=FACE_BOUND('',#98,.T.);
#29=FACE_BOUND('',#99,.T.);
#30=FACE_BOUND('',#100,.T.);
#31=FACE_BOUND('',#101,.T.);
#32=FACE_BOUND('',#108,.T.);
#33=FACE_BOUND('',#109,.T.);
#34=FACE_BOUND('',#113,.T.);
#35=FACE_BOUND('',#114,.T.);
#36=FACE_BOUND('',#130,.T.);
#37=FACE_BOUND('',#131,.T.);
#38=CIRCLE('',#647,10.);
#39=CIRCLE('',#648,10.);
#40=CIRCLE('',#649,4.04999999999999);
#41=CIRCLE('',#650,1.99999999999999);
#42=CIRCLE('',#651,1.99999999999999);
#43=CIRCLE('',#652,2.75);
#44=CIRCLE('',#653,1.99999999999999);
#45=CIRCLE('',#654,1.99999999999999);
#46=CIRCLE('',#657,3.99999999999089);
#47=CIRCLE('',#658,4.00000000001209);
#48=CIRCLE('',#663,10.);
#49=CIRCLE('',#664,10.);
#50=CIRCLE('',#665,1.6);
#51=CIRCLE('',#666,4.04999999999999);
#52=CIRCLE('',#669,1.6);
#53=CIRCLE('',#671,1.99999999999999);
#54=CIRCLE('',#672,1.99999999999999);
#55=CIRCLE('',#679,2.75);
#56=CIRCLE('',#682,1.99999999999999);
#57=CIRCLE('',#684,1.99999999999999);
#58=CIRCLE('',#689,4.00000000001209);
#59=CIRCLE('',#690,3.99999999999089);
#60=FACE_OUTER_BOUND('',#93,.T.);
#61=FACE_OUTER_BOUND('',#94,.T.);
#62=FACE_OUTER_BOUND('',#95,.T.);
#63=FACE_OUTER_BOUND('',#102,.T.);
#64=FACE_OUTER_BOUND('',#103,.T.);
#65=FACE_OUTER_BOUND('',#104,.T.);
#66=FACE_OUTER_BOUND('',#105,.T.);
#67=FACE_OUTER_BOUND('',#106,.T.);
#68=FACE_OUTER_BOUND('',#107,.T.);
#69=FACE_OUTER_BOUND('',#110,.T.);
#70=FACE_OUTER_BOUND('',#111,.T.);
#71=FACE_OUTER_BOUND('',#112,.T.);
#72=FACE_OUTER_BOUND('',#115,.T.);
#73=FACE_OUTER_BOUND('',#116,.T.);
#74=FACE_OUTER_BOUND('',#117,.T.);
#75=FACE_OUTER_BOUND('',#118,.T.);
#76=FACE_OUTER_BOUND('',#119,.T.);
#77=FACE_OUTER_BOUND('',#120,.T.);
#78=FACE_OUTER_BOUND('',#121,.T.);
#79=FACE_OUTER_BOUND('',#122,.T.);
#80=FACE_OUTER_BOUND('',#123,.T.);
#81=FACE_OUTER_BOUND('',#124,.T.);
#82=FACE_OUTER_BOUND('',#125,.T.);
#83=FACE_OUTER_BOUND('',#126,.T.);
#84=FACE_OUTER_BOUND('',#127,.T.);
#85=FACE_OUTER_BOUND('',#128,.T.);
#86=FACE_OUTER_BOUND('',#129,.T.);
#87=FACE_OUTER_BOUND('',#132,.T.);
#88=FACE_OUTER_BOUND('',#133,.T.);
#89=FACE_OUTER_BOUND('',#134,.T.);
#90=FACE_OUTER_BOUND('',#135,.T.);
#91=FACE_OUTER_BOUND('',#136,.T.);
#92=FACE_OUTER_BOUND('',#137,.T.);
#93=EDGE_LOOP('',(#405,#406,#407,#408));
#94=EDGE_LOOP('',(#409,#410,#411,#412));
#95=EDGE_LOOP('',(#413,#414,#415,#416,#417,#418,#419,#420,#421,#422));
#96=EDGE_LOOP('',(#423));
#97=EDGE_LOOP('',(#424));
#98=EDGE_LOOP('',(#425));
#99=EDGE_LOOP('',(#426));
#100=EDGE_LOOP('',(#427));
#101=EDGE_LOOP('',(#428));
#102=EDGE_LOOP('',(#429,#430,#431,#432,#433));
#103=EDGE_LOOP('',(#434,#435,#436,#437,#438,#439,#440,#441));
#104=EDGE_LOOP('',(#442,#443,#444,#445));
#105=EDGE_LOOP('',(#446,#447,#448,#449));
#106=EDGE_LOOP('',(#450,#451,#452,#453,#454,#455,#456,#457,#458,#459));
#107=EDGE_LOOP('',(#460,#461,#462,#463,#464,#465,#466,#467));
#108=EDGE_LOOP('',(#468));
#109=EDGE_LOOP('',(#469));
#110=EDGE_LOOP('',(#470,#471,#472,#473));
#111=EDGE_LOOP('',(#474,#475,#476,#477));
#112=EDGE_LOOP('',(#478,#479,#480,#481));
#113=EDGE_LOOP('',(#482));
#114=EDGE_LOOP('',(#483));
#115=EDGE_LOOP('',(#484,#485,#486,#487));
#116=EDGE_LOOP('',(#488,#489,#490,#491));
#117=EDGE_LOOP('',(#492,#493,#494,#495));
#118=EDGE_LOOP('',(#496,#497,#498,#499));
#119=EDGE_LOOP('',(#500,#501,#502,#503));
#120=EDGE_LOOP('',(#504));
#121=EDGE_LOOP('',(#505,#506,#507,#508));
#122=EDGE_LOOP('',(#509,#510,#511,#512));
#123=EDGE_LOOP('',(#513,#514,#515,#516));
#124=EDGE_LOOP('',(#517));
#125=EDGE_LOOP('',(#518,#519,#520,#521,#522,#523,#524,#525,#526,#527));
#126=EDGE_LOOP('',(#528,#529,#530,#531));
#127=EDGE_LOOP('',(#532,#533,#534,#535,#536,#537,#538,#539));
#128=EDGE_LOOP('',(#540,#541,#542,#543));
#129=EDGE_LOOP('',(#544,#545,#546,#547));
#130=EDGE_LOOP('',(#548));
#131=EDGE_LOOP('',(#549));
#132=EDGE_LOOP('',(#550,#551,#552,#553));
#133=EDGE_LOOP('',(#554,#555,#556,#557));
#134=EDGE_LOOP('',(#558,#559,#560,#561));
#135=EDGE_LOOP('',(#562,#563,#564,#565,#566));
#136=EDGE_LOOP('',(#567,#568,#569,#570));
#137=EDGE_LOOP('',(#571,#572,#573,#574));
#138=LINE('',#878,#201);
#139=LINE('',#880,#202);
#140=LINE('',#882,#203);
#141=LINE('',#883,#204);
#142=LINE('',#886,#205);
#143=LINE('',#888,#206);
#144=LINE('',#889,#207);
#145=LINE('',#892,#208);
#146=LINE('',#896,#209);
#147=LINE('',#900,#210);
#148=LINE('',#902,#211);
#149=LINE('',#904,#212);
#150=LINE('',#905,#213);
#151=LINE('',#920,#214);
#152=LINE('',#922,#215);
#153=LINE('',#923,#216);
#154=LINE('',#926,#217);
#155=LINE('',#928,#218);
#156=LINE('',#932,#219);
#157=LINE('',#935,#220);
#158=LINE('',#939,#221);
#159=LINE('',#940,#222);
#160=LINE('',#941,#223);
#161=LINE('',#944,#224);
#162=LINE('',#945,#225);
#163=LINE('',#948,#226);
#164=LINE('',#950,#227);
#165=LINE('',#952,#228);
#166=LINE('',#954,#229);
#167=LINE('',#956,#230);
#168=LINE('',#958,#231);
#169=LINE('',#959,#232);
#170=LINE('',#963,#233);
#171=LINE('',#967,#234);
#172=LINE('',#970,#235);
#173=LINE('',#971,#236);
#174=LINE('',#977,#237);
#175=LINE('',#980,#238);
#176=LINE('',#984,#239);
#177=LINE('',#986,#240);
#178=LINE('',#987,#241);
#179=LINE('',#994,#242);
#180=LINE('',#995,#243);
#181=LINE('',#998,#244);
#182=LINE('',#999,#245);
#183=LINE('',#1001,#246);
#184=LINE('',#1003,#247);
#185=LINE('',#1005,#248);
#186=LINE('',#1010,#249);
#187=LINE('',#1013,#250);
#188=LINE('',#1017,#251);
#189=LINE('',#1022,#252);
#190=LINE('',#1024,#253);
#191=LINE('',#1025,#254);
#192=LINE('',#1027,#255);
#193=LINE('',#1029,#256);
#194=LINE('',#1033,#257);
#195=LINE('',#1036,#258);
#196=LINE('',#1038,#259);
#197=LINE('',#1041,#260);
#198=LINE('',#1043,#261);
#199=LINE('',#1045,#262);
#200=LINE('',#1047,#263);
#201=VECTOR('',#703,10.);
#202=VECTOR('',#704,10.);
#203=VECTOR('',#705,10.);
#204=VECTOR('',#706,10.);
#205=VECTOR('',#709,10.);
#206=VECTOR('',#710,10.);
#207=VECTOR('',#711,10.);
#208=VECTOR('',#714,10.);
#209=VECTOR('',#717,10.);
#210=VECTOR('',#720,10.);
#211=VECTOR('',#721,10.);
#212=VECTOR('',#722,10.);
#213=VECTOR('',#723,10.);
#214=VECTOR('',#738,10.);
#215=VECTOR('',#739,10.);
#216=VECTOR('',#740,10.);
#217=VECTOR('',#743,10.);
#218=VECTOR('',#744,10.);
#219=VECTOR('',#747,10.);
#220=VECTOR('',#750,10.);
#221=VECTOR('',#753,10.);
#222=VECTOR('',#754,10.);
#223=VECTOR('',#755,10.);
#224=VECTOR('',#758,10.);
#225=VECTOR('',#759,10.);
#226=VECTOR('',#762,10.);
#227=VECTOR('',#763,10.);
#228=VECTOR('',#764,10.);
#229=VECTOR('',#765,10.);
#230=VECTOR('',#766,10.);
#231=VECTOR('',#767,10.);
#232=VECTOR('',#768,10.);
#233=VECTOR('',#771,10.);
#234=VECTOR('',#774,10.);
#235=VECTOR('',#777,10.);
#236=VECTOR('',#778,10.);
#237=VECTOR('',#785,10.);
#238=VECTOR('',#788,1.6);
#239=VECTOR('',#793,10.);
#240=VECTOR('',#794,10.);
#241=VECTOR('',#795,10.);
#242=VECTOR('',#802,10.);
#243=VECTOR('',#803,10.);
#244=VECTOR('',#806,10.);
#245=VECTOR('',#807,10.);
#246=VECTOR('',#810,10.);
#247=VECTOR('',#813,1.99999999999999);
#248=VECTOR('',#816,1.99999999999999);
#249=VECTOR('',#823,2.75);
#250=VECTOR('',#826,1.99999999999999);
#251=VECTOR('',#831,1.99999999999999);
#252=VECTOR('',#838,10.);
#253=VECTOR('',#839,10.);
#254=VECTOR('',#840,10.);
#255=VECTOR('',#843,10.);
#256=VECTOR('',#846,10.);
#257=VECTOR('',#849,10.);
#258=VECTOR('',#854,10.);
#259=VECTOR('',#857,10.);
#260=VECTOR('',#862,4.04999999999999);
#261=VECTOR('',#865,10.);
#262=VECTOR('',#868,10.);
#263=VECTOR('',#871,10.);
#264=VERTEX_POINT('',#876);
#265=VERTEX_POINT('',#877);
#266=VERTEX_POINT('',#879);
#267=VERTEX_POINT('',#881);
#268=VERTEX_POINT('',#885);
#269=VERTEX_POINT('',#887);
#270=VERTEX_POINT('',#891);
#271=VERTEX_POINT('',#893);
#272=VERTEX_POINT('',#895);
#273=VERTEX_POINT('',#897);
#274=VERTEX_POINT('',#899);
#275=VERTEX_POINT('',#901);
#276=VERTEX_POINT('',#903);
#277=VERTEX_POINT('',#906);
#278=VERTEX_POINT('',#908);
#279=VERTEX_POINT('',#910);
#280=VERTEX_POINT('',#912);
#281=VERTEX_POINT('',#914);
#282=VERTEX_POINT('',#916);
#283=VERTEX_POINT('',#919);
#284=VERTEX_POINT('',#921);
#285=VERTEX_POINT('',#925);
#286=VERTEX_POINT('',#927);
#287=VERTEX_POINT('',#929);
#288=VERTEX_POINT('',#931);
#289=VERTEX_POINT('',#933);
#290=VERTEX_POINT('',#937);
#291=VERTEX_POINT('',#938);
#292=VERTEX_POINT('',#943);
#293=VERTEX_POINT('',#947);
#294=VERTEX_POINT('',#949);
#295=VERTEX_POINT('',#951);
#296=VERTEX_POINT('',#953);
#297=VERTEX_POINT('',#955);
#298=VERTEX_POINT('',#957);
#299=VERTEX_POINT('',#961);
#300=VERTEX_POINT('',#962);
#301=VERTEX_POINT('',#964);
#302=VERTEX_POINT('',#966);
#303=VERTEX_POINT('',#969);
#304=VERTEX_POINT('',#972);
#305=VERTEX_POINT('',#974);
#306=VERTEX_POINT('',#979);
#307=VERTEX_POINT('',#983);
#308=VERTEX_POINT('',#985);
#309=VERTEX_POINT('',#988);
#310=VERTEX_POINT('',#990);
#311=VERTEX_POINT('',#993);
#312=VERTEX_POINT('',#997);
#313=VERTEX_POINT('',#1007);
#314=VERTEX_POINT('',#1012);
#315=VERTEX_POINT('',#1016);
#316=VERTEX_POINT('',#1021);
#317=VERTEX_POINT('',#1023);
#318=VERTEX_POINT('',#1030);
#319=VERTEX_POINT('',#1032);
#320=EDGE_CURVE('',#264,#265,#138,.T.);
#321=EDGE_CURVE('',#265,#266,#139,.T.);
#322=EDGE_CURVE('',#266,#267,#140,.T.);
#323=EDGE_CURVE('',#267,#264,#141,.T.);
#324=EDGE_CURVE('',#267,#268,#142,.T.);
#325=EDGE_CURVE('',#268,#269,#143,.T.);
#326=EDGE_CURVE('',#269,#264,#144,.T.);
#327=EDGE_CURVE('',#266,#270,#145,.T.);
#328=EDGE_CURVE('',#271,#270,#38,.T.);
#329=EDGE_CURVE('',#271,#272,#146,.T.);
#330=EDGE_CURVE('',#273,#272,#39,.T.);
#331=EDGE_CURVE('',#273,#274,#147,.T.);
#332=EDGE_CURVE('',#275,#274,#148,.T.);
#333=EDGE_CURVE('',#276,#275,#149,.T.);
#334=EDGE_CURVE('',#276,#268,#150,.T.);
#335=EDGE_CURVE('',#277,#277,#40,.T.);
#336=EDGE_CURVE('',#278,#278,#41,.T.);
#337=EDGE_CURVE('',#279,#279,#42,.T.);
#338=EDGE_CURVE('',#280,#280,#43,.T.);
#339=EDGE_CURVE('',#281,#281,#44,.T.);
#340=EDGE_CURVE('',#282,#282,#45,.T.);
#341=EDGE_CURVE('',#265,#283,#151,.T.);
#342=EDGE_CURVE('',#283,#284,#152,.T.);
#343=EDGE_CURVE('',#270,#284,#153,.T.);
#344=EDGE_CURVE('',#285,#264,#154,.T.);
#345=EDGE_CURVE('',#286,#285,#155,.T.);
#346=EDGE_CURVE('',#287,#286,#46,.T.);
#347=EDGE_CURVE('',#288,#287,#156,.T.);
#348=EDGE_CURVE('',#289,#288,#47,.T.);
#349=EDGE_CURVE('',#283,#289,#157,.T.);
#350=EDGE_CURVE('',#290,#291,#158,.T.);
#351=EDGE_CURVE('',#291,#276,#159,.T.);
#352=EDGE_CURVE('',#275,#290,#160,.T.);
#353=EDGE_CURVE('',#274,#292,#161,.T.);
#354=EDGE_CURVE('',#292,#290,#162,.T.);
#355=EDGE_CURVE('',#293,#291,#163,.T.);
#356=EDGE_CURVE('',#293,#294,#164,.T.);
#357=EDGE_CURVE('',#294,#295,#165,.T.);
#358=EDGE_CURVE('',#295,#296,#166,.T.);
#359=EDGE_CURVE('',#296,#297,#167,.T.);
#360=EDGE_CURVE('',#297,#298,#168,.T.);
#361=EDGE_CURVE('',#298,#269,#169,.T.);
#362=EDGE_CURVE('',#299,#300,#170,.T.);
#363=EDGE_CURVE('',#301,#299,#48,.T.);
#364=EDGE_CURVE('',#302,#301,#171,.T.);
#365=EDGE_CURVE('',#284,#302,#49,.T.);
#366=EDGE_CURVE('',#303,#289,#172,.T.);
#367=EDGE_CURVE('',#303,#300,#173,.T.);
#368=EDGE_CURVE('',#304,#304,#50,.T.);
#369=EDGE_CURVE('',#305,#305,#51,.T.);
#370=EDGE_CURVE('',#298,#285,#174,.T.);
#371=EDGE_CURVE('',#304,#306,#175,.T.);
#372=EDGE_CURVE('',#306,#306,#52,.T.);
#373=EDGE_CURVE('',#296,#307,#176,.T.);
#374=EDGE_CURVE('',#308,#295,#177,.T.);
#375=EDGE_CURVE('',#307,#308,#178,.T.);
#376=EDGE_CURVE('',#309,#309,#53,.T.);
#377=EDGE_CURVE('',#310,#310,#54,.T.);
#378=EDGE_CURVE('',#297,#311,#179,.T.);
#379=EDGE_CURVE('',#311,#307,#180,.T.);
#380=EDGE_CURVE('',#312,#294,#181,.T.);
#381=EDGE_CURVE('',#312,#308,#182,.T.);
#382=EDGE_CURVE('',#311,#312,#183,.T.);
#383=EDGE_CURVE('',#282,#310,#184,.T.);
#384=EDGE_CURVE('',#281,#309,#185,.T.);
#385=EDGE_CURVE('',#313,#313,#55,.T.);
#386=EDGE_CURVE('',#280,#313,#186,.T.);
#387=EDGE_CURVE('',#279,#314,#187,.T.);
#388=EDGE_CURVE('',#314,#314,#56,.T.);
#389=EDGE_CURVE('',#278,#315,#188,.T.);
#390=EDGE_CURVE('',#315,#315,#57,.T.);
#391=EDGE_CURVE('',#316,#293,#189,.T.);
#392=EDGE_CURVE('',#316,#317,#190,.T.);
#393=EDGE_CURVE('',#317,#286,#191,.T.);
#394=EDGE_CURVE('',#290,#316,#192,.T.);
#395=EDGE_CURVE('',#300,#292,#193,.T.);
#396=EDGE_CURVE('',#318,#303,#58,.T.);
#397=EDGE_CURVE('',#319,#318,#194,.T.);
#398=EDGE_CURVE('',#317,#319,#59,.T.);
#399=EDGE_CURVE('',#319,#287,#195,.T.);
#400=EDGE_CURVE('',#318,#288,#196,.T.);
#401=EDGE_CURVE('',#305,#277,#197,.T.);
#402=EDGE_CURVE('',#302,#271,#198,.T.);
#403=EDGE_CURVE('',#299,#273,#199,.T.);
#404=EDGE_CURVE('',#272,#301,#200,.T.);
#405=ORIENTED_EDGE('',*,*,#320,.T.);
#406=ORIENTED_EDGE('',*,*,#321,.T.);
#407=ORIENTED_EDGE('',*,*,#322,.T.);
#408=ORIENTED_EDGE('',*,*,#323,.T.);
#409=ORIENTED_EDGE('',*,*,#324,.T.);
#410=ORIENTED_EDGE('',*,*,#325,.T.);
#411=ORIENTED_EDGE('',*,*,#326,.T.);
#412=ORIENTED_EDGE('',*,*,#323,.F.);
#413=ORIENTED_EDGE('',*,*,#324,.F.);
#414=ORIENTED_EDGE('',*,*,#322,.F.);
#415=ORIENTED_EDGE('',*,*,#327,.T.);
#416=ORIENTED_EDGE('',*,*,#328,.F.);
#417=ORIENTED_EDGE('',*,*,#329,.T.);
#418=ORIENTED_EDGE('',*,*,#330,.F.);
#419=ORIENTED_EDGE('',*,*,#331,.T.);
#420=ORIENTED_EDGE('',*,*,#332,.F.);
#421=ORIENTED_EDGE('',*,*,#333,.F.);
#422=ORIENTED_EDGE('',*,*,#334,.T.);
#423=ORIENTED_EDGE('',*,*,#335,.T.);
#424=ORIENTED_EDGE('',*,*,#336,.T.);
#425=ORIENTED_EDGE('',*,*,#337,.T.);
#426=ORIENTED_EDGE('',*,*,#338,.T.);
#427=ORIENTED_EDGE('',*,*,#339,.T.);
#428=ORIENTED_EDGE('',*,*,#340,.T.);
#429=ORIENTED_EDGE('',*,*,#321,.F.);
#430=ORIENTED_EDGE('',*,*,#341,.T.);
#431=ORIENTED_EDGE('',*,*,#342,.T.);
#432=ORIENTED_EDGE('',*,*,#343,.F.);
#433=ORIENTED_EDGE('',*,*,#327,.F.);
#434=ORIENTED_EDGE('',*,*,#320,.F.);
#435=ORIENTED_EDGE('',*,*,#344,.F.);
#436=ORIENTED_EDGE('',*,*,#345,.F.);
#437=ORIENTED_EDGE('',*,*,#346,.F.);
#438=ORIENTED_EDGE('',*,*,#347,.F.);
#439=ORIENTED_EDGE('',*,*,#348,.F.);
#440=ORIENTED_EDGE('',*,*,#349,.F.);
#441=ORIENTED_EDGE('',*,*,#341,.F.);
#442=ORIENTED_EDGE('',*,*,#350,.T.);
#443=ORIENTED_EDGE('',*,*,#351,.T.);
#444=ORIENTED_EDGE('',*,*,#333,.T.);
#445=ORIENTED_EDGE('',*,*,#352,.T.);
#446=ORIENTED_EDGE('',*,*,#332,.T.);
#447=ORIENTED_EDGE('',*,*,#353,.T.);
#448=ORIENTED_EDGE('',*,*,#354,.T.);
#449=ORIENTED_EDGE('',*,*,#352,.F.);
#450=ORIENTED_EDGE('',*,*,#325,.F.);
#451=ORIENTED_EDGE('',*,*,#334,.F.);
#452=ORIENTED_EDGE('',*,*,#351,.F.);
#453=ORIENTED_EDGE('',*,*,#355,.F.);
#454=ORIENTED_EDGE('',*,*,#356,.T.);
#455=ORIENTED_EDGE('',*,*,#357,.T.);
#456=ORIENTED_EDGE('',*,*,#358,.T.);
#457=ORIENTED_EDGE('',*,*,#359,.T.);
#458=ORIENTED_EDGE('',*,*,#360,.T.);
#459=ORIENTED_EDGE('',*,*,#361,.T.);
#460=ORIENTED_EDGE('',*,*,#362,.F.);
#461=ORIENTED_EDGE('',*,*,#363,.F.);
#462=ORIENTED_EDGE('',*,*,#364,.F.);
#463=ORIENTED_EDGE('',*,*,#365,.F.);
#464=ORIENTED_EDGE('',*,*,#342,.F.);
#465=ORIENTED_EDGE('',*,*,#349,.T.);
#466=ORIENTED_EDGE('',*,*,#366,.F.);
#467=ORIENTED_EDGE('',*,*,#367,.T.);
#468=ORIENTED_EDGE('',*,*,#368,.F.);
#469=ORIENTED_EDGE('',*,*,#369,.T.);
#470=ORIENTED_EDGE('',*,*,#326,.F.);
#471=ORIENTED_EDGE('',*,*,#361,.F.);
#472=ORIENTED_EDGE('',*,*,#370,.T.);
#473=ORIENTED_EDGE('',*,*,#344,.T.);
#474=ORIENTED_EDGE('',*,*,#368,.T.);
#475=ORIENTED_EDGE('',*,*,#371,.T.);
#476=ORIENTED_EDGE('',*,*,#372,.T.);
#477=ORIENTED_EDGE('',*,*,#371,.F.);
#478=ORIENTED_EDGE('',*,*,#373,.F.);
#479=ORIENTED_EDGE('',*,*,#358,.F.);
#480=ORIENTED_EDGE('',*,*,#374,.F.);
#481=ORIENTED_EDGE('',*,*,#375,.F.);
#482=ORIENTED_EDGE('',*,*,#376,.T.);
#483=ORIENTED_EDGE('',*,*,#377,.T.);
#484=ORIENTED_EDGE('',*,*,#378,.F.);
#485=ORIENTED_EDGE('',*,*,#359,.F.);
#486=ORIENTED_EDGE('',*,*,#373,.T.);
#487=ORIENTED_EDGE('',*,*,#379,.F.);
#488=ORIENTED_EDGE('',*,*,#380,.F.);
#489=ORIENTED_EDGE('',*,*,#381,.T.);
#490=ORIENTED_EDGE('',*,*,#374,.T.);
#491=ORIENTED_EDGE('',*,*,#357,.F.);
#492=ORIENTED_EDGE('',*,*,#382,.F.);
#493=ORIENTED_EDGE('',*,*,#379,.T.);
#494=ORIENTED_EDGE('',*,*,#375,.T.);
#495=ORIENTED_EDGE('',*,*,#381,.F.);
#496=ORIENTED_EDGE('',*,*,#340,.F.);
#497=ORIENTED_EDGE('',*,*,#383,.T.);
#498=ORIENTED_EDGE('',*,*,#377,.F.);
#499=ORIENTED_EDGE('',*,*,#383,.F.);
#500=ORIENTED_EDGE('',*,*,#339,.F.);
#501=ORIENTED_EDGE('',*,*,#384,.T.);
#502=ORIENTED_EDGE('',*,*,#376,.F.);
#503=ORIENTED_EDGE('',*,*,#384,.F.);
#504=ORIENTED_EDGE('',*,*,#385,.F.);
#505=ORIENTED_EDGE('',*,*,#338,.F.);
#506=ORIENTED_EDGE('',*,*,#386,.T.);
#507=ORIENTED_EDGE('',*,*,#385,.T.);
#508=ORIENTED_EDGE('',*,*,#386,.F.);
#509=ORIENTED_EDGE('',*,*,#337,.F.);
#510=ORIENTED_EDGE('',*,*,#387,.T.);
#511=ORIENTED_EDGE('',*,*,#388,.F.);
#512=ORIENTED_EDGE('',*,*,#387,.F.);
#513=ORIENTED_EDGE('',*,*,#336,.F.);
#514=ORIENTED_EDGE('',*,*,#389,.T.);
#515=ORIENTED_EDGE('',*,*,#390,.F.);
#516=ORIENTED_EDGE('',*,*,#389,.F.);
#517=ORIENTED_EDGE('',*,*,#372,.F.);
#518=ORIENTED_EDGE('',*,*,#345,.T.);
#519=ORIENTED_EDGE('',*,*,#370,.F.);
#520=ORIENTED_EDGE('',*,*,#360,.F.);
#521=ORIENTED_EDGE('',*,*,#378,.T.);
#522=ORIENTED_EDGE('',*,*,#382,.T.);
#523=ORIENTED_EDGE('',*,*,#380,.T.);
#524=ORIENTED_EDGE('',*,*,#356,.F.);
#525=ORIENTED_EDGE('',*,*,#391,.F.);
#526=ORIENTED_EDGE('',*,*,#392,.T.);
#527=ORIENTED_EDGE('',*,*,#393,.T.);
#528=ORIENTED_EDGE('',*,*,#350,.F.);
#529=ORIENTED_EDGE('',*,*,#394,.T.);
#530=ORIENTED_EDGE('',*,*,#391,.T.);
#531=ORIENTED_EDGE('',*,*,#355,.T.);
#532=ORIENTED_EDGE('',*,*,#354,.F.);
#533=ORIENTED_EDGE('',*,*,#395,.F.);
#534=ORIENTED_EDGE('',*,*,#367,.F.);
#535=ORIENTED_EDGE('',*,*,#396,.F.);
#536=ORIENTED_EDGE('',*,*,#397,.F.);
#537=ORIENTED_EDGE('',*,*,#398,.F.);
#538=ORIENTED_EDGE('',*,*,#392,.F.);
#539=ORIENTED_EDGE('',*,*,#394,.F.);
#540=ORIENTED_EDGE('',*,*,#346,.T.);
#541=ORIENTED_EDGE('',*,*,#393,.F.);
#542=ORIENTED_EDGE('',*,*,#398,.T.);
#543=ORIENTED_EDGE('',*,*,#399,.T.);
#544=ORIENTED_EDGE('',*,*,#347,.T.);
#545=ORIENTED_EDGE('',*,*,#399,.F.);
#546=ORIENTED_EDGE('',*,*,#397,.T.);
#547=ORIENTED_EDGE('',*,*,#400,.T.);
#548=ORIENTED_EDGE('',*,*,#388,.T.);
#549=ORIENTED_EDGE('',*,*,#390,.T.);
#550=ORIENTED_EDGE('',*,*,#348,.T.);
#551=ORIENTED_EDGE('',*,*,#400,.F.);
#552=ORIENTED_EDGE('',*,*,#396,.T.);
#553=ORIENTED_EDGE('',*,*,#366,.T.);
#554=ORIENTED_EDGE('',*,*,#369,.F.);
#555=ORIENTED_EDGE('',*,*,#401,.T.);
#556=ORIENTED_EDGE('',*,*,#335,.F.);
#557=ORIENTED_EDGE('',*,*,#401,.F.);
#558=ORIENTED_EDGE('',*,*,#365,.T.);
#559=ORIENTED_EDGE('',*,*,#402,.T.);
#560=ORIENTED_EDGE('',*,*,#328,.T.);
#561=ORIENTED_EDGE('',*,*,#343,.T.);
#562=ORIENTED_EDGE('',*,*,#353,.F.);
#563=ORIENTED_EDGE('',*,*,#331,.F.);
#564=ORIENTED_EDGE('',*,*,#403,.F.);
#565=ORIENTED_EDGE('',*,*,#362,.T.);
#566=ORIENTED_EDGE('',*,*,#395,.T.);
#567=ORIENTED_EDGE('',*,*,#363,.T.);
#568=ORIENTED_EDGE('',*,*,#403,.T.);
#569=ORIENTED_EDGE('',*,*,#330,.T.);
#570=ORIENTED_EDGE('',*,*,#404,.T.);
#571=ORIENTED_EDGE('',*,*,#364,.T.);
#572=ORIENTED_EDGE('',*,*,#404,.F.);
#573=ORIENTED_EDGE('',*,*,#329,.F.);
#574=ORIENTED_EDGE('',*,*,#402,.F.);
#575=PLANE('',#644);
#576=PLANE('',#645);
#577=PLANE('',#646);
#578=PLANE('',#655);
#579=PLANE('',#656);
#580=PLANE('',#659);
#581=PLANE('',#660);
#582=PLANE('',#661);
#583=PLANE('',#662);
#584=PLANE('',#667);
#585=PLANE('',#670);
#586=PLANE('',#673);
#587=PLANE('',#674);
#588=PLANE('',#675);
#589=PLANE('',#678);
#590=PLANE('',#685);
#591=PLANE('',#686);
#592=PLANE('',#687);
#593=PLANE('',#688);
#594=PLANE('',#692);
#595=PLANE('',#696);
#596=PLANE('',#698);
#597=ADVANCED_FACE('',(#60),#575,.T.);
#598=ADVANCED_FACE('',(#61),#576,.T.);
#599=ADVANCED_FACE('',(#62,#26,#27,#28,#29,#30,#31),#577,.T.);
#600=ADVANCED_FACE('',(#63),#578,.T.);
#601=ADVANCED_FACE('',(#64),#579,.F.);
#602=ADVANCED_FACE('',(#65),#580,.T.);
#603=ADVANCED_FACE('',(#66),#581,.T.);
#604=ADVANCED_FACE('',(#67),#582,.T.);
#605=ADVANCED_FACE('',(#68,#32,#33),#583,.F.);
#606=ADVANCED_FACE('',(#69),#584,.T.);
#607=ADVANCED_FACE('',(#70),#15,.F.);
#608=ADVANCED_FACE('',(#71,#34,#35),#585,.T.);
#609=ADVANCED_FACE('',(#72),#586,.F.);
#610=ADVANCED_FACE('',(#73),#587,.F.);
#611=ADVANCED_FACE('',(#74),#588,.F.);
#612=ADVANCED_FACE('',(#75),#16,.F.);
#613=ADVANCED_FACE('',(#76),#17,.F.);
#614=ADVANCED_FACE('',(#77),#589,.T.);
#615=ADVANCED_FACE('',(#78),#18,.F.);
#616=ADVANCED_FACE('',(#79),#19,.F.);
#617=ADVANCED_FACE('',(#80),#20,.F.);
#618=ADVANCED_FACE('',(#81),#590,.F.);
#619=ADVANCED_FACE('',(#82),#591,.F.);
#620=ADVANCED_FACE('',(#83),#592,.T.);
#621=ADVANCED_FACE('',(#84),#593,.F.);
#622=ADVANCED_FACE('',(#85),#21,.F.);
#623=ADVANCED_FACE('',(#86,#36,#37),#594,.F.);
#624=ADVANCED_FACE('',(#87),#22,.F.);
#625=ADVANCED_FACE('',(#88),#23,.F.);
#626=ADVANCED_FACE('',(#89),#24,.T.);
#627=ADVANCED_FACE('',(#90),#595,.T.);
#628=ADVANCED_FACE('',(#91),#25,.T.);
#629=ADVANCED_FACE('',(#92),#596,.T.);
#630=CLOSED_SHELL('',(#597,#598,#599,#600,#601,#602,#603,#604,#605,#606,
#607,#608,#609,#610,#611,#612,#613,#614,#615,#616,#617,#618,#619,#620,#621,
#622,#623,#624,#625,#626,#627,#628,#629));
#631=DERIVED_UNIT_ELEMENT(#633,1.);
#632=DERIVED_UNIT_ELEMENT(#1054,-3.);
#633=(
MASS_UNIT()
NAMED_UNIT(*)
SI_UNIT(.KILO.,.GRAM.)
);
#634=DERIVED_UNIT((#631,#632));
#635=MEASURE_REPRESENTATION_ITEM('density measure',
POSITIVE_RATIO_MEASURE(7850.),#634);
#636=PROPERTY_DEFINITION_REPRESENTATION(#641,#638);
#637=PROPERTY_DEFINITION_REPRESENTATION(#642,#639);
#638=REPRESENTATION('material name',(#640),#1051);
#639=REPRESENTATION('density',(#635),#1051);
#640=DESCRIPTIVE_REPRESENTATION_ITEM('Steel','Steel');
#641=PROPERTY_DEFINITION('material property','material name',#1061);
#642=PROPERTY_DEFINITION('material property','density of part',#1061);
#643=AXIS2_PLACEMENT_3D('',#874,#699,#700);
#644=AXIS2_PLACEMENT_3D('',#875,#701,#702);
#645=AXIS2_PLACEMENT_3D('',#884,#707,#708);
#646=AXIS2_PLACEMENT_3D('',#890,#712,#713);
#647=AXIS2_PLACEMENT_3D('',#894,#715,#716);
#648=AXIS2_PLACEMENT_3D('',#898,#718,#719);
#649=AXIS2_PLACEMENT_3D('',#907,#724,#725);
#650=AXIS2_PLACEMENT_3D('',#909,#726,#727);
#651=AXIS2_PLACEMENT_3D('',#911,#728,#729);
#652=AXIS2_PLACEMENT_3D('',#913,#730,#731);
#653=AXIS2_PLACEMENT_3D('',#915,#732,#733);
#654=AXIS2_PLACEMENT_3D('',#917,#734,#735);
#655=AXIS2_PLACEMENT_3D('',#918,#736,#737);
#656=AXIS2_PLACEMENT_3D('',#924,#741,#742);
#657=AXIS2_PLACEMENT_3D('',#930,#745,#746);
#658=AXIS2_PLACEMENT_3D('',#934,#748,#749);
#659=AXIS2_PLACEMENT_3D('',#936,#751,#752);
#660=AXIS2_PLACEMENT_3D('',#942,#756,#757);
#661=AXIS2_PLACEMENT_3D('',#946,#760,#761);
#662=AXIS2_PLACEMENT_3D('',#960,#769,#770);
#663=AXIS2_PLACEMENT_3D('',#965,#772,#773);
#664=AXIS2_PLACEMENT_3D('',#968,#775,#776);
#665=AXIS2_PLACEMENT_3D('',#973,#779,#780);
#666=AXIS2_PLACEMENT_3D('',#975,#781,#782);
#667=AXIS2_PLACEMENT_3D('',#976,#783,#784);
#668=AXIS2_PLACEMENT_3D('',#978,#786,#787);
#669=AXIS2_PLACEMENT_3D('',#981,#789,#790);
#670=AXIS2_PLACEMENT_3D('',#982,#791,#792);
#671=AXIS2_PLACEMENT_3D('',#989,#796,#797);
#672=AXIS2_PLACEMENT_3D('',#991,#798,#799);
#673=AXIS2_PLACEMENT_3D('',#992,#800,#801);
#674=AXIS2_PLACEMENT_3D('',#996,#804,#805);
#675=AXIS2_PLACEMENT_3D('',#1000,#808,#809);
#676=AXIS2_PLACEMENT_3D('',#1002,#811,#812);
#677=AXIS2_PLACEMENT_3D('',#1004,#814,#815);
#678=AXIS2_PLACEMENT_3D('',#1006,#817,#818);
#679=AXIS2_PLACEMENT_3D('',#1008,#819,#820);
#680=AXIS2_PLACEMENT_3D('',#1009,#821,#822);
#681=AXIS2_PLACEMENT_3D('',#1011,#824,#825);
#682=AXIS2_PLACEMENT_3D('',#1014,#827,#828);
#683=AXIS2_PLACEMENT_3D('',#1015,#829,#830);
#684=AXIS2_PLACEMENT_3D('',#1018,#832,#833);
#685=AXIS2_PLACEMENT_3D('',#1019,#834,#835);
#686=AXIS2_PLACEMENT_3D('',#1020,#836,#837);
#687=AXIS2_PLACEMENT_3D('',#1026,#841,#842);
#688=AXIS2_PLACEMENT_3D('',#1028,#844,#845);
#689=AXIS2_PLACEMENT_3D('',#1031,#847,#848);
#690=AXIS2_PLACEMENT_3D('',#1034,#850,#851);
#691=AXIS2_PLACEMENT_3D('',#1035,#852,#853);
#692=AXIS2_PLACEMENT_3D('',#1037,#855,#856);
#693=AXIS2_PLACEMENT_3D('',#1039,#858,#859);
#694=AXIS2_PLACEMENT_3D('',#1040,#860,#861);
#695=AXIS2_PLACEMENT_3D('',#1042,#863,#864);
#696=AXIS2_PLACEMENT_3D('',#1044,#866,#867);
#697=AXIS2_PLACEMENT_3D('',#1046,#869,#870);
#698=AXIS2_PLACEMENT_3D('',#1048,#872,#873);
#699=DIRECTION('axis',(0.,0.,1.));
#700=DIRECTION('refdir',(1.,0.,0.));
#701=DIRECTION('center_axis',(-0.832050294337847,8.62177301458675E-14,0.554700196225224));
#702=DIRECTION('ref_axis',(0.554700196225224,0.,0.832050294337847));
#703=DIRECTION('',(-1.0362081563168E-13,-1.,0.));
#704=DIRECTION('',(0.319171230802844,-0.817876278932343,0.478756846204399));
#705=DIRECTION('',(1.0362081563168E-13,1.,0.));
#706=DIRECTION('',(-0.544918839633367,0.186965877076449,-0.81737825945009));
#707=DIRECTION('center_axis',(-0.65678074480417,0.510829468181088,0.554700196225228));
#708=DIRECTION('ref_axis',(0.645238767010465,0.,0.76398097721528));
#709=DIRECTION('',(0.61394061351497,0.789352217376287,0.));
#710=DIRECTION('',(-0.645238767010465,0.,-0.76398097721528));
#711=DIRECTION('',(-0.61394061351497,-0.789352217376287,0.));
#712=DIRECTION('center_axis',(0.,0.,1.));
#713=DIRECTION('ref_axis',(1.,0.,0.));
#714=DIRECTION('',(0.363542485652685,-0.931577619485069,-3.62859148147801E-18));
#715=DIRECTION('center_axis',(0.,0.,-1.));
#716=DIRECTION('ref_axis',(-0.56411768025272,-0.825694400384482,0.));
#717=DIRECTION('',(1.,-1.14971691178417E-13,2.10805017447115E-20));
#718=DIRECTION('center_axis',(0.,0.,-1.));
#719=DIRECTION('ref_axis',(0.564117680252639,-0.825694400384538,0.));
#720=DIRECTION('',(0.363542485652657,0.931577619485079,3.64391879748453E-18));
#721=DIRECTION('',(0.,-1.,0.));
#722=DIRECTION('',(0.61394061351492,-0.789352217376327,0.));
#723=DIRECTION('',(-1.,0.,0.));
#724=DIRECTION('center_axis',(0.,0.,-1.));
#725=DIRECTION('ref_axis',(1.,-1.0061556385677E-16,0.));
#726=DIRECTION('center_axis',(0.,0.,-1.));
#727=DIRECTION('ref_axis',(1.,0.,0.));
#728=DIRECTION('center_axis',(0.,0.,-1.));
#729=DIRECTION('ref_axis',(1.,0.,0.));
#730=DIRECTION('center_axis',(0.,0.,-1.));
#731=DIRECTION('ref_axis',(1.,0.,0.));
#732=DIRECTION('center_axis',(0.,0.,-1.));
#733=DIRECTION('ref_axis',(1.,0.,0.));
#734=DIRECTION('center_axis',(0.,0.,-1.));
#735=DIRECTION('ref_axis',(1.,0.,0.));
#736=DIRECTION('center_axis',(-0.931577619485069,-0.363542485652685,0.));
#737=DIRECTION('ref_axis',(-0.363542485652685,0.931577619485069,3.62859148147801E-18));
#738=DIRECTION('',(0.,0.,-1.));
#739=DIRECTION('',(0.363542485652685,-0.931577619485069,3.63625994637465E-18));
#740=DIRECTION('',(0.,0.,-1.));
#741=DIRECTION('center_axis',(1.,-1.0362081563168E-13,0.));
#742=DIRECTION('ref_axis',(0.,0.,-1.));
#743=DIRECTION('',(0.,0.,1.));
#744=DIRECTION('',(1.0362081563168E-13,1.,0.));
#745=DIRECTION('center_axis',(-1.,1.0362081563168E-13,0.));
#746=DIRECTION('ref_axis',(0.,0.866025403784102,-0.500000000000584));
#747=DIRECTION('',(1.0362081563168E-13,1.,0.));
#748=DIRECTION('center_axis',(-1.,1.0362081563168E-13,0.));
#749=DIRECTION('ref_axis',(0.,0.866025403785311,0.499999999998489));
#750=DIRECTION('',(1.0362081563168E-13,1.,1.57711096438099E-18));
#751=DIRECTION('center_axis',(0.656780744804201,0.510829468181045,0.554700196225232));
#752=DIRECTION('ref_axis',(0.64523876701045,0.,-0.763980977215293));
#753=DIRECTION('',(-0.61394061351492,0.789352217376327,0.));
#754=DIRECTION('',(-0.64523876701045,0.,0.763980977215293));
#755=DIRECTION('',(0.544918839633388,0.186965877076407,-0.817378259450085));
#756=DIRECTION('center_axis',(0.832050294337845,0.,0.554700196225228));
#757=DIRECTION('ref_axis',(0.554700196225228,0.,-0.832050294337845));
#758=DIRECTION('',(0.319171230802845,0.817876278932418,-0.47875684620427));
#759=DIRECTION('',(0.,1.,0.));
#760=DIRECTION('center_axis',(0.,1.,0.));
#761=DIRECTION('ref_axis',(1.,0.,0.));
#762=DIRECTION('',(0.,0.,1.));
#763=DIRECTION('',(-1.,0.,0.));
#764=DIRECTION('',(0.,0.,1.));
#765=DIRECTION('',(-1.,0.,0.));
#766=DIRECTION('',(0.,0.,-1.));
#767=DIRECTION('',(-1.,0.,0.));
#768=DIRECTION('',(0.,0.,1.));
#769=DIRECTION('center_axis',(0.,-1.57711096438099E-18,1.));
#770=DIRECTION('ref_axis',(0.,1.,1.57711096438099E-18));
#771=DIRECTION('',(0.363542485652657,0.931577619485079,-3.63625994637469E-18));
#772=DIRECTION('center_axis',(-5.97734191614002E-34,3.90333544979816E-18,
1.));
#773=DIRECTION('ref_axis',(0.564117680252639,-0.825694400384538,0.));
#774=DIRECTION('',(1.,-1.14971691178417E-13,4.49370812091574E-31));
#775=DIRECTION('center_axis',(-5.97734191614002E-34,3.90333544979816E-18,
1.));
#776=DIRECTION('ref_axis',(-0.56411768025272,-0.825694400384482,0.));
#777=DIRECTION('',(-1.,0.,0.));
#778=DIRECTION('',(0.,-1.,-1.57711096438099E-18));
#779=DIRECTION('center_axis',(0.,1.57711096438099E-18,-1.));
#780=DIRECTION('ref_axis',(1.,0.,0.));
#781=DIRECTION('center_axis',(0.,-1.57711096438099E-18,1.));
#782=DIRECTION('ref_axis',(1.,-1.0061556385677E-16,0.));
#783=DIRECTION('center_axis',(-0.789352217376287,0.613940613514971,0.));
#784=DIRECTION('ref_axis',(0.61394061351497,0.789352217376287,0.));
#785=DIRECTION('',(-0.61394061351497,-0.789352217376287,0.));
#786=DIRECTION('center_axis',(0.,0.,-1.));
#787=DIRECTION('ref_axis',(1.,0.,0.));
#788=DIRECTION('',(0.,0.,1.));
#789=DIRECTION('center_axis',(-2.10805017451603E-20,-3.90333028984874E-18,
1.));
#790=DIRECTION('ref_axis',(1.,0.,0.));
#791=DIRECTION('center_axis',(0.,0.,-1.));
#792=DIRECTION('ref_axis',(-1.,0.,0.));
#793=DIRECTION('',(0.,-1.,0.));
#794=DIRECTION('',(1.06148152598313E-13,1.,0.));
#795=DIRECTION('',(1.,-1.06814199062736E-13,0.));
#796=DIRECTION('center_axis',(0.,0.,1.));
#797=DIRECTION('ref_axis',(1.,0.,0.));
#798=DIRECTION('center_axis',(0.,0.,1.));
#799=DIRECTION('ref_axis',(1.,0.,0.));
#800=DIRECTION('center_axis',(-1.,0.,0.));
#801=DIRECTION('ref_axis',(0.,-1.,0.));
#802=DIRECTION('',(0.,-1.,0.));
#803=DIRECTION('',(0.,0.,1.));
#804=DIRECTION('center_axis',(1.,-1.06148152598313E-13,0.));
#805=DIRECTION('ref_axis',(1.06148152598313E-13,1.,0.));
#806=DIRECTION('',(1.06148152598313E-13,1.,0.));
#807=DIRECTION('',(0.,0.,1.));
#808=DIRECTION('center_axis',(-1.06814199062736E-13,-1.,0.));
#809=DIRECTION('ref_axis',(1.,-1.06814199062736E-13,0.));
#810=DIRECTION('',(1.,-1.06814199062736E-13,0.));
#811=DIRECTION('center_axis',(0.,0.,-1.));
#812=DIRECTION('ref_axis',(1.,0.,0.));
#813=DIRECTION('',(0.,0.,-1.));
#814=DIRECTION('center_axis',(0.,0.,-1.));
#815=DIRECTION('ref_axis',(1.,0.,0.));
#816=DIRECTION('',(0.,0.,-1.));
#817=DIRECTION('center_axis',(0.,0.,1.));
#818=DIRECTION('ref_axis',(1.,0.,0.));
#819=DIRECTION('center_axis',(0.,0.,-1.));
#820=DIRECTION('ref_axis',(1.,0.,0.));
#821=DIRECTION('center_axis',(0.,0.,-1.));
#822=DIRECTION('ref_axis',(1.,0.,0.));
#823=DIRECTION('',(0.,0.,-1.));
#824=DIRECTION('center_axis',(0.,0.,-1.));
#825=DIRECTION('ref_axis',(1.,0.,0.));
#826=DIRECTION('',(0.,0.,-1.));
#827=DIRECTION('center_axis',(0.,0.,1.));
#828=DIRECTION('ref_axis',(1.,0.,0.));
#829=DIRECTION('center_axis',(0.,0.,-1.));
#830=DIRECTION('ref_axis',(1.,0.,0.));
#831=DIRECTION('',(0.,0.,-1.));
#832=DIRECTION('center_axis',(0.,0.,1.));
#833=DIRECTION('ref_axis',(1.,0.,0.));
#834=DIRECTION('center_axis',(-2.10805017451603E-20,-3.90333028984874E-18,
1.));
#835=DIRECTION('ref_axis',(1.,-1.00612175184535E-16,2.10805017451599E-20));
#836=DIRECTION('center_axis',(0.,0.,1.));
#837=DIRECTION('ref_axis',(0.,1.,0.));
#838=DIRECTION('',(-0.61394061351492,0.789352217376327,0.));
#839=DIRECTION('',(0.,-1.,0.));
#840=DIRECTION('',(-1.,0.,0.));
#841=DIRECTION('center_axis',(0.789352217376327,0.61394061351492,0.));
#842=DIRECTION('ref_axis',(0.61394061351492,-0.789352217376327,0.));
#843=DIRECTION('',(0.,0.,-1.));
#844=DIRECTION('center_axis',(-1.,0.,0.));
#845=DIRECTION('ref_axis',(0.,0.,1.));
#846=DIRECTION('',(0.,0.,1.));
#847=DIRECTION('center_axis',(1.,0.,0.));
#848=DIRECTION('ref_axis',(0.,0.866025403785311,0.499999999998489));
#849=DIRECTION('',(0.,-1.,0.));
#850=DIRECTION('center_axis',(1.,0.,0.));
#851=DIRECTION('ref_axis',(0.,0.866025403784102,-0.500000000000584));
#852=DIRECTION('center_axis',(-1.,0.,0.));
#853=DIRECTION('ref_axis',(0.,0.866025403784102,-0.500000000000584));
#854=DIRECTION('',(-1.,0.,0.));
#855=DIRECTION('center_axis',(0.,0.,1.));
#856=DIRECTION('ref_axis',(0.,1.,0.));
#857=DIRECTION('',(-1.,0.,0.));
#858=DIRECTION('center_axis',(-1.,0.,0.));
#859=DIRECTION('ref_axis',(0.,0.866025403785311,0.499999999998489));
#860=DIRECTION('center_axis',(0.,0.,-1.));
#861=DIRECTION('ref_axis',(1.,-1.0061556385677E-16,0.));
#862=DIRECTION('',(0.,0.,1.));
#863=DIRECTION('center_axis',(0.,0.,-1.));
#864=DIRECTION('ref_axis',(-0.56411768025272,-0.825694400384482,0.));
#865=DIRECTION('',(0.,0.,1.));
#866=DIRECTION('center_axis',(0.931577619485079,-0.363542485652657,0.));
#867=DIRECTION('ref_axis',(-0.363542485652657,-0.931577619485079,-3.64391879748453E-18));
#868=DIRECTION('',(0.,0.,1.));
#869=DIRECTION('center_axis',(0.,0.,-1.));
#870=DIRECTION('ref_axis',(0.564117680252639,-0.825694400384538,0.));
#871=DIRECTION('',(0.,0.,-1.));
#872=DIRECTION('center_axis',(-1.14971691178417E-13,-1.,0.));
#873=DIRECTION('ref_axis',(-1.,1.14971691178417E-13,-2.10805017447115E-20));
#874=CARTESIAN_POINT('',(0.,0.,0.));
#875=CARTESIAN_POINT('Origin',(129.850000000001,0.98667800856051,6.5));
#876=CARTESIAN_POINT('',(128.850000000002,6.77142857142793,5.));
#877=CARTESIAN_POINT('',(128.850000000001,-6.064101615132,5.));
#878=CARTESIAN_POINT('',(128.850000000001,0.986678008560614,5.));
#879=CARTESIAN_POINT('',(130.85,-11.1891016151309,8.));
#880=CARTESIAN_POINT('',(130.791004490024,-11.0379256208169,7.91150673503565));
#881=CARTESIAN_POINT('',(130.850000000002,6.0852130711445,8.));
#882=CARTESIAN_POINT('',(130.850000000001,0.986678008560407,8.));
#883=CARTESIAN_POINT('',(130.850000000002,6.0852130711445,8.));
#884=CARTESIAN_POINT('Origin',(130.625432214007,7.42530509643514,6.5));
#885=CARTESIAN_POINT('',(137.78372316689,14.9999999999998,8.));
#886=CARTESIAN_POINT('',(131.414784431383,6.81136448292017,8.));
#887=CARTESIAN_POINT('',(135.250000000003,14.9999999999998,5.));
#888=CARTESIAN_POINT('',(133.424657004745,14.9999999999998,2.83874218883068));
#889=CARTESIAN_POINT('',(129.836079996631,8.03924570995011,5.));
#890=CARTESIAN_POINT('Origin',(142.75,1.26794919243373,8.));
#891=CARTESIAN_POINT('',(132.766263358646,-16.09952647166,8.));
#892=CARTESIAN_POINT('',(128.850000000001,-6.06410161513201,8.));
#893=CARTESIAN_POINT('',(142.082039553495,-22.4641016151332,8.));
#894=CARTESIAN_POINT('Origin',(142.082039553496,-12.4641016151332,8.));
#895=CARTESIAN_POINT('',(143.417960446503,-22.4641016151333,8.));
#896=CARTESIAN_POINT('',(135.25,-22.4641016151324,8.));
#897=CARTESIAN_POINT('',(152.733736641355,-16.0995264716599,8.));
#898=CARTESIAN_POINT('Origin',(143.417960446504,-12.4641016151333,8.));
#899=CARTESIAN_POINT('',(154.649999999999,-11.1891016151337,8.));
#900=CARTESIAN_POINT('',(150.249999999999,-22.4641016151341,8.));
#901=CARTESIAN_POINT('',(154.649999999999,6.08521307114578,8.));
#902=CARTESIAN_POINT('',(154.649999999999,0.984999334004834,8.));
#903=CARTESIAN_POINT('',(147.716276833112,14.9999999999998,8.));
#904=CARTESIAN_POINT('',(150.585215568618,11.3113644829203,8.));
#905=CARTESIAN_POINT('',(128.250000000003,14.9999999999998,8.));
#906=CARTESIAN_POINT('',(138.7,-15.4641016151324,8.));
#907=CARTESIAN_POINT('Origin',(142.75,-15.4641016151324,8.));
#908=CARTESIAN_POINT('',(133.749999999999,5.30430589953321E-12,8.));
#909=CARTESIAN_POINT('Origin',(135.749999999999,5.30455082889304E-12,8.));
#910=CARTESIAN_POINT('',(147.750000000001,5.9239583770122E-12,8.));
#911=CARTESIAN_POINT('Origin',(149.750000000001,5.92420330637203E-12,8.));
#912=CARTESIAN_POINT('',(140.,-7.46410161513236,8.));
#913=CARTESIAN_POINT('Origin',(142.75,-7.46410161513236,8.));
#914=CARTESIAN_POINT('',(137.749999999999,10.4999999999999,8.));
#915=CARTESIAN_POINT('Origin',(139.749999999999,10.4999999999999,8.));
#916=CARTESIAN_POINT('',(143.749999999999,10.5000000000001,8.));
#917=CARTESIAN_POINT('Origin',(145.749999999999,10.5000000000001,8.));
#918=CARTESIAN_POINT('Origin',(135.25,-22.4641016151324,8.));
#919=CARTESIAN_POINT('',(128.850000000001,-6.06410161513199,0.1));
#920=CARTESIAN_POINT('',(128.850000000001,-6.064101615132,0.430677405394198));
#921=CARTESIAN_POINT('',(132.766263358646,-16.09952647166,0.1));
#922=CARTESIAN_POINT('',(138.159881050476,-29.9206718069758,0.1));
#923=CARTESIAN_POINT('',(132.766263358646,-16.09952647166,8.));
#924=CARTESIAN_POINT('Origin',(128.850000000001,0.705406824686055,0.861354810788395));
#925=CARTESIAN_POINT('',(128.850000000002,6.77142857142791,0.1));
#926=CARTESIAN_POINT('',(128.850000000002,6.77142857142793,0.430677405394198));
#927=CARTESIAN_POINT('',(128.850000000002,3.99874980461733,0.1));
#928=CARTESIAN_POINT('',(128.850000000002,2.35207831465316,0.1));
#929=CARTESIAN_POINT('',(128.850000000002,3.27261363440549,2.3));
#930=CARTESIAN_POINT('Origin',(128.850000000001,0.,1.12103877145985E-43));
#931=CARTESIAN_POINT('',(128.850000000001,-3.27261363440549,2.3));
#932=CARTESIAN_POINT('',(128.850000000001,-1.28360340485825,2.3));
#933=CARTESIAN_POINT('',(128.850000000001,-3.99874980464919,0.1));
#934=CARTESIAN_POINT('Origin',(128.850000000001,0.,1.12103877145985E-43));
#935=CARTESIAN_POINT('',(128.85,-8.6472965876555,0.1));
#936=CARTESIAN_POINT('Origin',(151.374567785995,11.9253050964352,6.5));
#937=CARTESIAN_POINT('',(156.649999999999,6.77142857142906,5.));
#938=CARTESIAN_POINT('',(150.249999999999,14.9999999999998,5.));
#939=CARTESIAN_POINT('',(152.163920003371,12.5392457099501,5.));
#940=CARTESIAN_POINT('',(148.224262130566,14.9999999999998,7.39853101858978));
#941=CARTESIAN_POINT('',(154.649999999999,6.08521307114578,8.));
#942=CARTESIAN_POINT('Origin',(155.649999999999,0.984999334004834,6.5));
#943=CARTESIAN_POINT('',(156.649999999999,-6.06410161513288,5.));
#944=CARTESIAN_POINT('',(157.175310430288,-4.71799363751611,4.21203435456589));
#945=CARTESIAN_POINT('',(156.649999999999,0.984999334004834,5.));
#946=CARTESIAN_POINT('Origin',(135.250000000003,14.9999999999998,0.));
#947=CARTESIAN_POINT('',(150.249999999999,14.9999999999998,0.1));
#948=CARTESIAN_POINT('',(150.249999999999,14.9999999999998,0.));
#949=CARTESIAN_POINT('',(148.949999999999,14.9999999999998,0.1));
#950=CARTESIAN_POINT('',(146.250000000001,14.9999999999998,0.1));
#951=CARTESIAN_POINT('',(148.949999999999,14.9999999999998,3.));
#952=CARTESIAN_POINT('',(148.949999999999,14.9999999999998,-1.5));
#953=CARTESIAN_POINT('',(136.55,14.9999999999998,3.));
#954=CARTESIAN_POINT('',(139.000000000001,14.9999999999998,3.));
#955=CARTESIAN_POINT('',(136.55,14.9999999999998,0.1));
#956=CARTESIAN_POINT('',(136.55,14.9999999999998,-1.5));
#957=CARTESIAN_POINT('',(135.250000000003,14.9999999999998,0.1));
#958=CARTESIAN_POINT('',(146.250000000001,14.9999999999998,0.1));
#959=CARTESIAN_POINT('',(135.250000000003,14.9999999999998,0.));
#960=CARTESIAN_POINT('Origin',(157.249999999999,-18.,0.1));
#961=CARTESIAN_POINT('',(152.733736641355,-16.0995264716599,0.1));
#962=CARTESIAN_POINT('',(156.649999999999,-6.06410161513289,0.1));
#963=CARTESIAN_POINT('',(152.37718657988,-17.0131860041893,0.1));
#964=CARTESIAN_POINT('',(143.417960446503,-22.4641016151333,0.1));
#965=CARTESIAN_POINT('Origin',(143.417960446504,-12.4641016151333,0.1));
#966=CARTESIAN_POINT('',(142.082039553495,-22.4641016151332,0.1));
#967=CARTESIAN_POINT('',(153.449999999999,-22.4641016151345,0.1));
#968=CARTESIAN_POINT('Origin',(142.082039553496,-12.4641016151332,0.1));
#969=CARTESIAN_POINT('',(156.649999999999,-3.99874980464919,0.1));
#970=CARTESIAN_POINT('',(157.249999999999,-3.99874980464919,0.1));
#971=CARTESIAN_POINT('',(156.649999999999,-8.64897526221203,0.1));
#972=CARTESIAN_POINT('',(141.15,-7.46410161513236,0.1));
#973=CARTESIAN_POINT('Origin',(142.75,-7.46410161513236,0.1));
#974=CARTESIAN_POINT('',(138.7,-15.4641016151324,0.1));
#975=CARTESIAN_POINT('Origin',(142.75,-15.4641016151324,0.1));
#976=CARTESIAN_POINT('Origin',(128.250000000002,5.99999999999982,0.));
#977=CARTESIAN_POINT('',(133.230466298814,12.4034566698994,0.1));
#978=CARTESIAN_POINT('Origin',(142.75,-7.46410161513236,0.));
#979=CARTESIAN_POINT('',(141.15,-7.46410161513238,4.3));
#980=CARTESIAN_POINT('',(141.15,-7.46410161513236,0.));
#981=CARTESIAN_POINT('Origin',(142.75,-7.46410161513236,4.3));
#982=CARTESIAN_POINT('Origin',(142.749999999999,10.9,3.));
#983=CARTESIAN_POINT('',(136.55,6.80000000000157,3.));
#984=CARTESIAN_POINT('',(136.55,6.80000000000157,3.));
#985=CARTESIAN_POINT('',(148.949999999999,6.80000000000025,3.));
#986=CARTESIAN_POINT('',(148.949999999999,14.9999999999998,3.));
#987=CARTESIAN_POINT('',(148.949999999999,6.80000000000025,3.));
#988=CARTESIAN_POINT('',(137.749999999999,10.4999999999999,3.));
#989=CARTESIAN_POINT('Origin',(139.749999999999,10.4999999999999,3.));
#990=CARTESIAN_POINT('',(143.749999999999,10.5000000000001,3.));
#991=CARTESIAN_POINT('Origin',(145.749999999999,10.5000000000001,3.));
#992=CARTESIAN_POINT('Origin',(136.55,14.9999999999998,-3.));
#993=CARTESIAN_POINT('',(136.55,6.80000000000157,0.1));
#994=CARTESIAN_POINT('',(136.55,9.49937490230858,0.1));
#995=CARTESIAN_POINT('',(136.55,6.80000000000157,-3.));
#996=CARTESIAN_POINT('Origin',(148.949999999999,6.80000000000025,-3.));
#997=CARTESIAN_POINT('',(148.949999999999,6.80000000000025,0.1));
#998=CARTESIAN_POINT('',(148.949999999998,5.39937490230923,0.1));
#999=CARTESIAN_POINT('',(148.949999999999,6.80000000000025,-3.));
#1000=CARTESIAN_POINT('Origin',(136.55,6.80000000000157,-3.));
#1001=CARTESIAN_POINT('',(146.899999999999,6.80000000000047,0.1));
#1002=CARTESIAN_POINT('Origin',(145.749999999999,10.5000000000001,8.));
#1003=CARTESIAN_POINT('',(143.749999999999,10.5000000000001,8.));
#1004=CARTESIAN_POINT('Origin',(139.749999999999,10.4999999999999,8.));
#1005=CARTESIAN_POINT('',(137.749999999999,10.4999999999999,8.));
#1006=CARTESIAN_POINT('Origin',(142.75,-7.46410161513236,4.5));
#1007=CARTESIAN_POINT('',(140.,-7.46410161513236,4.5));
#1008=CARTESIAN_POINT('Origin',(142.75,-7.46410161513236,4.5));
#1009=CARTESIAN_POINT('Origin',(142.75,-7.46410161513236,8.));
#1010=CARTESIAN_POINT('',(140.,-7.46410161513236,8.));
#1011=CARTESIAN_POINT('Origin',(149.750000000001,5.92420330637203E-12,8.));
#1012=CARTESIAN_POINT('',(147.750000000001,5.9239583770122E-12,2.3));
#1013=CARTESIAN_POINT('',(147.750000000001,5.92444823573186E-12,8.));
#1014=CARTESIAN_POINT('Origin',(149.750000000001,5.92420330637203E-12,2.3));
#1015=CARTESIAN_POINT('Origin',(135.749999999999,5.30455082889304E-12,8.));
#1016=CARTESIAN_POINT('',(133.749999999999,5.30430589953321E-12,2.3));
#1017=CARTESIAN_POINT('',(133.749999999999,5.30479575825287E-12,8.));
#1018=CARTESIAN_POINT('Origin',(135.749999999999,5.30455082889304E-12,2.3));
#1019=CARTESIAN_POINT('Origin',(142.75,-7.46410161513238,4.3));
#1020=CARTESIAN_POINT('Origin',(157.249999999999,3.99874980461733,0.1));
#1021=CARTESIAN_POINT('',(156.649999999999,6.77142857142907,0.1));
#1022=CARTESIAN_POINT('',(154.234918316573,9.87653359297681,0.1));
#1023=CARTESIAN_POINT('',(156.649999999999,3.99874980461733,0.1));
#1024=CARTESIAN_POINT('',(156.649999999999,2.35039964009663,0.1));
#1025=CARTESIAN_POINT('',(157.249999999999,3.99874980461733,0.1));
#1026=CARTESIAN_POINT('Origin',(150.249999999999,14.9999999999998,0.));
#1027=CARTESIAN_POINT('',(156.649999999999,6.77142857142906,0.0632871790462453));
#1028=CARTESIAN_POINT('Origin',(156.649999999999,0.702049475575934,0.126574358092491));
#1029=CARTESIAN_POINT('',(156.649999999999,-6.06410161513288,0.0632871790462453));
#1030=CARTESIAN_POINT('',(156.649999999999,-3.27261363440549,2.3));
#1031=CARTESIAN_POINT('Origin',(156.649999999999,0.,1.12103877145985E-43));
#1032=CARTESIAN_POINT('',(156.649999999999,3.27261363440549,2.3));
#1033=CARTESIAN_POINT('',(156.649999999999,-1.28528207941478,2.3));
#1034=CARTESIAN_POINT('Origin',(156.649999999999,0.,1.12103877145985E-43));
#1035=CARTESIAN_POINT('Origin',(157.249999999999,0.,1.12103877145985E-43));
#1036=CARTESIAN_POINT('',(157.249999999999,3.27261363440549,2.3));
#1037=CARTESIAN_POINT('Origin',(157.249999999999,-3.27261363440549,2.3));
#1038=CARTESIAN_POINT('',(157.249999999999,-3.27261363440549,2.3));
#1039=CARTESIAN_POINT('Origin',(157.249999999999,0.,1.12103877145985E-43));
#1040=CARTESIAN_POINT('Origin',(142.75,-15.4641016151324,8.));
#1041=CARTESIAN_POINT('',(138.7,-15.4641016151324,8.));
#1042=CARTESIAN_POINT('Origin',(142.082039553496,-12.4641016151332,8.));
#1043=CARTESIAN_POINT('',(142.082039553495,-22.4641016151332,8.));
#1044=CARTESIAN_POINT('Origin',(156.649999999999,-6.0641016151329,8.));
#1045=CARTESIAN_POINT('',(152.733736641355,-16.0995264716599,8.));
#1046=CARTESIAN_POINT('Origin',(143.417960446504,-12.4641016151333,8.));
#1047=CARTESIAN_POINT('',(143.417960446503,-22.4641016151333,8.));
#1048=CARTESIAN_POINT('Origin',(150.249999999999,-22.4641016151341,8.));
#1049=UNCERTAINTY_MEASURE_WITH_UNIT(LENGTH_MEASURE(0.01),#1053,
'DISTANCE_ACCURACY_VALUE',
'Maximum model space distance between geometric entities at asserted c
onnectivities');
#1050=UNCERTAINTY_MEASURE_WITH_UNIT(LENGTH_MEASURE(0.01),#1053,
'DISTANCE_ACCURACY_VALUE',
'Maximum model space distance between geometric entities at asserted c
onnectivities');
#1051=(
GEOMETRIC_REPRESENTATION_CONTEXT(3)
GLOBAL_UNCERTAINTY_ASSIGNED_CONTEXT((#1049))
GLOBAL_UNIT_ASSIGNED_CONTEXT((#1053,#1055,#1056))
REPRESENTATION_CONTEXT('','3D')
);
#1052=(
GEOMETRIC_REPRESENTATION_CONTEXT(3)
GLOBAL_UNCERTAINTY_ASSIGNED_CONTEXT((#1050))
GLOBAL_UNIT_ASSIGNED_CONTEXT((#1053,#1055,#1056))
REPRESENTATION_CONTEXT('','3D')
);
#1053=(
LENGTH_UNIT()
NAMED_UNIT(*)
SI_UNIT(.MILLI.,.METRE.)
);
#1054=(
LENGTH_UNIT()
NAMED_UNIT(*)
SI_UNIT($,.METRE.)
);
#1055=(
NAMED_UNIT(*)
PLANE_ANGLE_UNIT()
SI_UNIT($,.RADIAN.)
);
#1056=(
NAMED_UNIT(*)
SI_UNIT($,.STERADIAN.)
SOLID_ANGLE_UNIT()
);
#1057=SHAPE_DEFINITION_REPRESENTATION(#1058,#1059);
#1058=PRODUCT_DEFINITION_SHAPE('',$,#1061);
#1059=SHAPE_REPRESENTATION('',(#643),#1051);
#1060=PRODUCT_DEFINITION_CONTEXT('part definition',#1065,'design');
#1061=PRODUCT_DEFINITION('TorqueShaftClampRight-3DPrint',
'TorqueShaftClampRight-3DPrint',#1062,#1060);
#1062=PRODUCT_DEFINITION_FORMATION('',$,#1067);
#1063=PRODUCT_RELATED_PRODUCT_CATEGORY('TorqueShaftClampRight-3DPrint',
'TorqueShaftClampRight-3DPrint',(#1067));
#1064=APPLICATION_PROTOCOL_DEFINITION('international standard',
'automotive_design',2009,#1065);
#1065=APPLICATION_CONTEXT(
'Core Data for Automotive Mechanical Design Process');
#1066=PRODUCT_CONTEXT('part definition',#1065,'mechanical');
#1067=PRODUCT('TorqueShaftClampRight-3DPrint',
'TorqueShaftClampRight-3DPrint',$,(#1066));
#1068=PRESENTATION_STYLE_ASSIGNMENT((#1069));
#1069=SURFACE_STYLE_USAGE(.BOTH.,#1070);
#1070=SURFACE_SIDE_STYLE('',(#1071));
#1071=SURFACE_STYLE_FILL_AREA(#1072);
#1072=FILL_AREA_STYLE('Steel - Satin',(#1073));
#1073=FILL_AREA_STYLE_COLOUR('Steel - Satin',#1074);
#1074=COLOUR_RGB('Steel - Satin',0.627450980392157,0.627450980392157,0.627450980392157);
ENDSEC;
END-ISO-10303-21;
