ISO-10303-21;
HEADER;
/* Generated by software containing ST-Developer
 * from STEP Tools, Inc. (www.steptools.com) 
 */

FILE_DESCRIPTION(
/* description */ (''),
/* implementation_level */ '2;1');

FILE_NAME(
/* name */ 'Torque Cell Interface Bearing Retainer.step',
/* time_stamp */ '2025-05-01T08:15:43+01:00',
/* author */ (''),
/* organization */ (''),
/* preprocessor_version */ 'ST-DEVELOPER v20.1',
/* originating_system */ 'Autodesk Translation Framework v14.4.0.0',
/* authorisation */ '');

FILE_SCHEMA (('AUTOMOTIVE_DESIGN { 1 0 10303 214 3 1 1 }'));
ENDSEC;

DATA;
#10=MECHANICAL_DESIGN_GEOMETRIC_PRESENTATION_REPRESENTATION('',(#13),#981);
#11=SHAPE_REPRESENTATION_RELATIONSHIP('SRR','None',#988,#12);
#12=ADVANCED_BREP_SHAPE_REPRESENTATION('',(#14),#980);
#13=STYLED_ITEM('',(#997),#14);
#14=MANIFOLD_SOLID_BREP('Bearing Retainer',#565);
#15=FACE_BOUND('',#170,.T.);
#16=FACE_BOUND('',#174,.T.);
#17=FACE_BOUND('',#195,.T.);
#18=FACE_BOUND('',#198,.T.);
#19=FACE_BOUND('',#202,.T.);
#20=FACE_BOUND('',#205,.T.);
#21=FACE_BOUND('',#206,.T.);
#22=FACE_BOUND('',#207,.T.);
#23=LINE('',#827,#69);
#24=LINE('',#835,#70);
#25=LINE('',#838,#71);
#26=LINE('',#841,#72);
#27=LINE('',#843,#73);
#28=LINE('',#845,#74);
#29=LINE('',#847,#75);
#30=LINE('',#849,#76);
#31=LINE('',#857,#77);
#32=LINE('',#859,#78);
#33=LINE('',#861,#79);
#34=LINE('',#863,#80);
#35=LINE('',#865,#81);
#36=LINE('',#866,#82);
#37=LINE('',#872,#83);
#38=LINE('',#879,#84);
#39=LINE('',#881,#85);
#40=LINE('',#883,#86);
#41=LINE('',#884,#87);
#42=LINE('',#889,#88);
#43=LINE('',#892,#89);
#44=LINE('',#895,#90);
#45=LINE('',#896,#91);
#46=LINE('',#898,#92);
#47=LINE('',#900,#93);
#48=LINE('',#901,#94);
#49=LINE('',#905,#95);
#50=LINE('',#908,#96);
#51=LINE('',#910,#97);
#52=LINE('',#911,#98);
#53=LINE('',#913,#99);
#54=LINE('',#915,#100);
#55=LINE('',#918,#101);
#56=LINE('',#919,#102);
#57=LINE('',#922,#103);
#58=LINE('',#923,#104);
#59=LINE('',#925,#105);
#60=LINE('',#926,#106);
#61=LINE('',#927,#107);
#62=LINE('',#940,#108);
#63=LINE('',#947,#109);
#64=LINE('',#960,#110);
#65=LINE('',#967,#111);
#66=LINE('',#971,#112);
#67=LINE('',#974,#113);
#68=LINE('',#977,#114);
#69=VECTOR('',#653,2.75);
#70=VECTOR('',#662,10.);
#71=VECTOR('',#665,10.);
#72=VECTOR('',#668,10.);
#73=VECTOR('',#669,10.);
#74=VECTOR('',#670,10.);
#75=VECTOR('',#671,10.);
#76=VECTOR('',#672,10.);
#77=VECTOR('',#681,10.);
#78=VECTOR('',#682,10.);
#79=VECTOR('',#683,10.);
#80=VECTOR('',#684,10.);
#81=VECTOR('',#685,10.);
#82=VECTOR('',#686,10.);
#83=VECTOR('',#693,10.);
#84=VECTOR('',#700,10.);
#85=VECTOR('',#701,10.);
#86=VECTOR('',#702,10.);
#87=VECTOR('',#703,10.);
#88=VECTOR('',#708,10.);
#89=VECTOR('',#711,10.);
#90=VECTOR('',#714,10.);
#91=VECTOR('',#715,10.);
#92=VECTOR('',#716,10.);
#93=VECTOR('',#717,10.);
#94=VECTOR('',#718,10.);
#95=VECTOR('',#723,10.);
#96=VECTOR('',#726,10.);
#97=VECTOR('',#727,10.);
#98=VECTOR('',#728,10.);
#99=VECTOR('',#731,10.);
#100=VECTOR('',#734,10.);
#101=VECTOR('',#737,10.);
#102=VECTOR('',#738,10.);
#103=VECTOR('',#741,10.);
#104=VECTOR('',#742,10.);
#105=VECTOR('',#745,10.);
#106=VECTOR('',#746,10.);
#107=VECTOR('',#747,10.);
#108=VECTOR('',#764,2.75);
#109=VECTOR('',#773,2.75);
#110=VECTOR('',#794,5.8);
#111=VECTOR('',#803,1.6);
#112=VECTOR('',#808,4.);
#113=VECTOR('',#813,1.6);
#114=VECTOR('',#818,1.6);
#115=CYLINDRICAL_SURFACE('',#581,2.75);
#116=CYLINDRICAL_SURFACE('',#585,0.5);
#117=CYLINDRICAL_SURFACE('',#593,0.5);
#118=CYLINDRICAL_SURFACE('',#600,0.5);
#119=CYLINDRICAL_SURFACE('',#603,0.5);
#120=CYLINDRICAL_SURFACE('',#617,2.75);
#121=CYLINDRICAL_SURFACE('',#621,2.75);
#122=CYLINDRICAL_SURFACE('',#625,11.6);
#123=CYLINDRICAL_SURFACE('',#627,11.6);
#124=CYLINDRICAL_SURFACE('',#631,5.8);
#125=CYLINDRICAL_SURFACE('',#635,1.6);
#126=CYLINDRICAL_SURFACE('',#637,4.);
#127=CYLINDRICAL_SURFACE('',#640,1.6);
#128=CYLINDRICAL_SURFACE('',#642,1.6);
#129=FACE_OUTER_BOUND('',#165,.T.);
#130=FACE_OUTER_BOUND('',#166,.T.);
#131=FACE_OUTER_BOUND('',#167,.T.);
#132=FACE_OUTER_BOUND('',#168,.T.);
#133=FACE_OUTER_BOUND('',#169,.T.);
#134=FACE_OUTER_BOUND('',#171,.T.);
#135=FACE_OUTER_BOUND('',#172,.T.);
#136=FACE_OUTER_BOUND('',#173,.T.);
#137=FACE_OUTER_BOUND('',#175,.T.);
#138=FACE_OUTER_BOUND('',#176,.T.);
#139=FACE_OUTER_BOUND('',#177,.T.);
#140=FACE_OUTER_BOUND('',#178,.T.);
#141=FACE_OUTER_BOUND('',#179,.T.);
#142=FACE_OUTER_BOUND('',#180,.T.);
#143=FACE_OUTER_BOUND('',#181,.T.);
#144=FACE_OUTER_BOUND('',#182,.T.);
#145=FACE_OUTER_BOUND('',#183,.T.);
#146=FACE_OUTER_BOUND('',#184,.T.);
#147=FACE_OUTER_BOUND('',#185,.T.);
#148=FACE_OUTER_BOUND('',#186,.T.);
#149=FACE_OUTER_BOUND('',#187,.T.);
#150=FACE_OUTER_BOUND('',#188,.T.);
#151=FACE_OUTER_BOUND('',#189,.T.);
#152=FACE_OUTER_BOUND('',#190,.T.);
#153=FACE_OUTER_BOUND('',#191,.T.);
#154=FACE_OUTER_BOUND('',#192,.T.);
#155=FACE_OUTER_BOUND('',#193,.T.);
#156=FACE_OUTER_BOUND('',#194,.T.);
#157=FACE_OUTER_BOUND('',#196,.T.);
#158=FACE_OUTER_BOUND('',#197,.T.);
#159=FACE_OUTER_BOUND('',#199,.T.);
#160=FACE_OUTER_BOUND('',#200,.T.);
#161=FACE_OUTER_BOUND('',#201,.T.);
#162=FACE_OUTER_BOUND('',#203,.T.);
#163=FACE_OUTER_BOUND('',#204,.T.);
#164=FACE_OUTER_BOUND('',#208,.T.);
#165=EDGE_LOOP('',(#359));
#166=EDGE_LOOP('',(#360,#361,#362,#363));
#167=EDGE_LOOP('',(#364));
#168=EDGE_LOOP('',(#365,#366,#367,#368));
#169=EDGE_LOOP('',(#369,#370,#371,#372,#373,#374,#375,#376));
#170=EDGE_LOOP('',(#377));
#171=EDGE_LOOP('',(#378,#379,#380,#381,#382,#383,#384,#385));
#172=EDGE_LOOP('',(#386,#387,#388,#389));
#173=EDGE_LOOP('',(#390,#391,#392,#393,#394,#395,#396,#397));
#174=EDGE_LOOP('',(#398));
#175=EDGE_LOOP('',(#399,#400,#401,#402));
#176=EDGE_LOOP('',(#403,#404,#405,#406,#407,#408,#409,#410));
#177=EDGE_LOOP('',(#411,#412,#413,#414));
#178=EDGE_LOOP('',(#415,#416,#417,#418));
#179=EDGE_LOOP('',(#419,#420,#421,#422));
#180=EDGE_LOOP('',(#423,#424,#425,#426));
#181=EDGE_LOOP('',(#427,#428,#429,#430));
#182=EDGE_LOOP('',(#431,#432,#433,#434));
#183=EDGE_LOOP('',(#435,#436,#437,#438));
#184=EDGE_LOOP('',(#439,#440,#441,#442));
#185=EDGE_LOOP('',(#443,#444,#445,#446));
#186=EDGE_LOOP('',(#447));
#187=EDGE_LOOP('',(#448));
#188=EDGE_LOOP('',(#449,#450,#451,#452));
#189=EDGE_LOOP('',(#453));
#190=EDGE_LOOP('',(#454,#455,#456,#457));
#191=EDGE_LOOP('',(#458));
#192=EDGE_LOOP('',(#459,#460,#461,#462));
#193=EDGE_LOOP('',(#463,#464,#465,#466));
#194=EDGE_LOOP('',(#467,#468,#469,#470,#471,#472,#473,#474));
#195=EDGE_LOOP('',(#475));
#196=EDGE_LOOP('',(#476,#477,#478,#479));
#197=EDGE_LOOP('',(#480));
#198=EDGE_LOOP('',(#481));
#199=EDGE_LOOP('',(#482,#483,#484,#485));
#200=EDGE_LOOP('',(#486,#487,#488,#489));
#201=EDGE_LOOP('',(#490));
#202=EDGE_LOOP('',(#491));
#203=EDGE_LOOP('',(#492,#493,#494,#495));
#204=EDGE_LOOP('',(#496,#497,#498,#499));
#205=EDGE_LOOP('',(#500));
#206=EDGE_LOOP('',(#501));
#207=EDGE_LOOP('',(#502));
#208=EDGE_LOOP('',(#503,#504,#505,#506));
#209=CIRCLE('',#580,1.6);
#210=CIRCLE('',#582,2.75);
#211=CIRCLE('',#583,2.75);
#212=CIRCLE('',#586,0.5);
#213=CIRCLE('',#587,0.5);
#214=CIRCLE('',#589,0.5);
#215=CIRCLE('',#590,11.6);
#216=CIRCLE('',#591,1.6);
#217=CIRCLE('',#594,0.5);
#218=CIRCLE('',#595,0.5);
#219=CIRCLE('',#597,11.6);
#220=CIRCLE('',#598,0.5);
#221=CIRCLE('',#599,1.6);
#222=CIRCLE('',#601,0.5);
#223=CIRCLE('',#604,0.5);
#224=CIRCLE('',#614,1.6);
#225=CIRCLE('',#616,1.6);
#226=CIRCLE('',#618,2.75);
#227=CIRCLE('',#619,2.75);
#228=CIRCLE('',#622,2.75);
#229=CIRCLE('',#623,2.75);
#230=CIRCLE('',#626,11.6);
#231=CIRCLE('',#628,11.6);
#232=CIRCLE('',#630,5.8);
#233=CIRCLE('',#632,5.8);
#234=CIRCLE('',#634,4.);
#235=CIRCLE('',#636,1.6);
#236=CIRCLE('',#638,4.);
#237=VERTEX_POINT('',#821);
#238=VERTEX_POINT('',#824);
#239=VERTEX_POINT('',#826);
#240=VERTEX_POINT('',#831);
#241=VERTEX_POINT('',#832);
#242=VERTEX_POINT('',#834);
#243=VERTEX_POINT('',#836);
#244=VERTEX_POINT('',#840);
#245=VERTEX_POINT('',#842);
#246=VERTEX_POINT('',#844);
#247=VERTEX_POINT('',#846);
#248=VERTEX_POINT('',#848);
#249=VERTEX_POINT('',#850);
#250=VERTEX_POINT('',#853);
#251=VERTEX_POINT('',#856);
#252=VERTEX_POINT('',#858);
#253=VERTEX_POINT('',#860);
#254=VERTEX_POINT('',#862);
#255=VERTEX_POINT('',#864);
#256=VERTEX_POINT('',#868);
#257=VERTEX_POINT('',#870);
#258=VERTEX_POINT('',#874);
#259=VERTEX_POINT('',#876);
#260=VERTEX_POINT('',#878);
#261=VERTEX_POINT('',#880);
#262=VERTEX_POINT('',#882);
#263=VERTEX_POINT('',#885);
#264=VERTEX_POINT('',#888);
#265=VERTEX_POINT('',#890);
#266=VERTEX_POINT('',#894);
#267=VERTEX_POINT('',#897);
#268=VERTEX_POINT('',#899);
#269=VERTEX_POINT('',#903);
#270=VERTEX_POINT('',#907);
#271=VERTEX_POINT('',#909);
#272=VERTEX_POINT('',#917);
#273=VERTEX_POINT('',#921);
#274=VERTEX_POINT('',#931);
#275=VERTEX_POINT('',#934);
#276=VERTEX_POINT('',#937);
#277=VERTEX_POINT('',#939);
#278=VERTEX_POINT('',#944);
#279=VERTEX_POINT('',#946);
#280=VERTEX_POINT('',#955);
#281=VERTEX_POINT('',#958);
#282=VERTEX_POINT('',#962);
#283=VERTEX_POINT('',#965);
#284=VERTEX_POINT('',#969);
#285=EDGE_CURVE('',#237,#237,#209,.T.);
#286=EDGE_CURVE('',#238,#238,#210,.T.);
#287=EDGE_CURVE('',#238,#239,#23,.T.);
#288=EDGE_CURVE('',#239,#239,#211,.T.);
#289=EDGE_CURVE('',#240,#241,#212,.T.);
#290=EDGE_CURVE('',#241,#242,#24,.T.);
#291=EDGE_CURVE('',#242,#243,#213,.F.);
#292=EDGE_CURVE('',#243,#240,#25,.T.);
#293=EDGE_CURVE('',#244,#240,#26,.T.);
#294=EDGE_CURVE('',#245,#244,#27,.T.);
#295=EDGE_CURVE('',#246,#245,#28,.T.);
#296=EDGE_CURVE('',#247,#246,#29,.T.);
#297=EDGE_CURVE('',#248,#247,#30,.T.);
#298=EDGE_CURVE('',#249,#248,#214,.T.);
#299=EDGE_CURVE('',#241,#249,#215,.T.);
#300=EDGE_CURVE('',#250,#250,#216,.T.);
#301=EDGE_CURVE('',#243,#251,#31,.T.);
#302=EDGE_CURVE('',#252,#251,#32,.T.);
#303=EDGE_CURVE('',#252,#253,#33,.T.);
#304=EDGE_CURVE('',#254,#253,#34,.T.);
#305=EDGE_CURVE('',#255,#254,#35,.T.);
#306=EDGE_CURVE('',#244,#255,#36,.T.);
#307=EDGE_CURVE('',#256,#252,#217,.T.);
#308=EDGE_CURVE('',#251,#257,#218,.F.);
#309=EDGE_CURVE('',#257,#256,#37,.T.);
#310=EDGE_CURVE('',#258,#256,#219,.T.);
#311=EDGE_CURVE('',#259,#258,#220,.T.);
#312=EDGE_CURVE('',#260,#259,#38,.T.);
#313=EDGE_CURVE('',#261,#260,#39,.T.);
#314=EDGE_CURVE('',#262,#261,#40,.T.);
#315=EDGE_CURVE('',#253,#262,#41,.T.);
#316=EDGE_CURVE('',#263,#263,#221,.T.);
#317=EDGE_CURVE('',#258,#264,#42,.T.);
#318=EDGE_CURVE('',#264,#265,#222,.F.);
#319=EDGE_CURVE('',#265,#259,#43,.T.);
#320=EDGE_CURVE('',#265,#266,#44,.T.);
#321=EDGE_CURVE('',#248,#266,#45,.T.);
#322=EDGE_CURVE('',#267,#247,#46,.T.);
#323=EDGE_CURVE('',#268,#267,#47,.T.);
#324=EDGE_CURVE('',#260,#268,#48,.T.);
#325=EDGE_CURVE('',#266,#269,#223,.F.);
#326=EDGE_CURVE('',#269,#249,#49,.T.);
#327=EDGE_CURVE('',#254,#270,#50,.T.);
#328=EDGE_CURVE('',#270,#271,#51,.T.);
#329=EDGE_CURVE('',#271,#255,#52,.T.);
#330=EDGE_CURVE('',#271,#245,#53,.T.);
#331=EDGE_CURVE('',#262,#270,#54,.T.);
#332=EDGE_CURVE('',#272,#261,#55,.T.);
#333=EDGE_CURVE('',#270,#272,#56,.T.);
#334=EDGE_CURVE('',#273,#271,#57,.T.);
#335=EDGE_CURVE('',#246,#273,#58,.T.);
#336=EDGE_CURVE('',#267,#273,#59,.T.);
#337=EDGE_CURVE('',#273,#272,#60,.T.);
#338=EDGE_CURVE('',#272,#268,#61,.T.);
#339=EDGE_CURVE('',#274,#274,#224,.T.);
#340=EDGE_CURVE('',#275,#275,#225,.T.);
#341=EDGE_CURVE('',#276,#276,#226,.T.);
#342=EDGE_CURVE('',#276,#277,#62,.T.);
#343=EDGE_CURVE('',#277,#277,#227,.T.);
#344=EDGE_CURVE('',#278,#278,#228,.T.);
#345=EDGE_CURVE('',#278,#279,#63,.T.);
#346=EDGE_CURVE('',#279,#279,#229,.T.);
#347=EDGE_CURVE('',#242,#269,#230,.T.);
#348=EDGE_CURVE('',#264,#257,#231,.T.);
#349=EDGE_CURVE('',#280,#280,#232,.T.);
#350=EDGE_CURVE('',#281,#281,#233,.T.);
#351=EDGE_CURVE('',#281,#280,#64,.T.);
#352=EDGE_CURVE('',#282,#282,#234,.T.);
#353=EDGE_CURVE('',#283,#283,#235,.T.);
#354=EDGE_CURVE('',#283,#237,#65,.T.);
#355=EDGE_CURVE('',#284,#284,#236,.T.);
#356=EDGE_CURVE('',#284,#282,#66,.T.);
#357=EDGE_CURVE('',#274,#263,#67,.T.);
#358=EDGE_CURVE('',#275,#250,#68,.T.);
#359=ORIENTED_EDGE('',*,*,#285,.F.);
#360=ORIENTED_EDGE('',*,*,#286,.F.);
#361=ORIENTED_EDGE('',*,*,#287,.T.);
#362=ORIENTED_EDGE('',*,*,#288,.T.);
#363=ORIENTED_EDGE('',*,*,#287,.F.);
#364=ORIENTED_EDGE('',*,*,#288,.F.);
#365=ORIENTED_EDGE('',*,*,#289,.T.);
#366=ORIENTED_EDGE('',*,*,#290,.T.);
#367=ORIENTED_EDGE('',*,*,#291,.T.);
#368=ORIENTED_EDGE('',*,*,#292,.T.);
#369=ORIENTED_EDGE('',*,*,#289,.F.);
#370=ORIENTED_EDGE('',*,*,#293,.F.);
#371=ORIENTED_EDGE('',*,*,#294,.F.);
#372=ORIENTED_EDGE('',*,*,#295,.F.);
#373=ORIENTED_EDGE('',*,*,#296,.F.);
#374=ORIENTED_EDGE('',*,*,#297,.F.);
#375=ORIENTED_EDGE('',*,*,#298,.F.);
#376=ORIENTED_EDGE('',*,*,#299,.F.);
#377=ORIENTED_EDGE('',*,*,#300,.F.);
#378=ORIENTED_EDGE('',*,*,#292,.F.);
#379=ORIENTED_EDGE('',*,*,#301,.T.);
#380=ORIENTED_EDGE('',*,*,#302,.F.);
#381=ORIENTED_EDGE('',*,*,#303,.T.);
#382=ORIENTED_EDGE('',*,*,#304,.F.);
#383=ORIENTED_EDGE('',*,*,#305,.F.);
#384=ORIENTED_EDGE('',*,*,#306,.F.);
#385=ORIENTED_EDGE('',*,*,#293,.T.);
#386=ORIENTED_EDGE('',*,*,#307,.T.);
#387=ORIENTED_EDGE('',*,*,#302,.T.);
#388=ORIENTED_EDGE('',*,*,#308,.T.);
#389=ORIENTED_EDGE('',*,*,#309,.T.);
#390=ORIENTED_EDGE('',*,*,#307,.F.);
#391=ORIENTED_EDGE('',*,*,#310,.F.);
#392=ORIENTED_EDGE('',*,*,#311,.F.);
#393=ORIENTED_EDGE('',*,*,#312,.F.);
#394=ORIENTED_EDGE('',*,*,#313,.F.);
#395=ORIENTED_EDGE('',*,*,#314,.F.);
#396=ORIENTED_EDGE('',*,*,#315,.F.);
#397=ORIENTED_EDGE('',*,*,#303,.F.);
#398=ORIENTED_EDGE('',*,*,#316,.F.);
#399=ORIENTED_EDGE('',*,*,#311,.T.);
#400=ORIENTED_EDGE('',*,*,#317,.T.);
#401=ORIENTED_EDGE('',*,*,#318,.T.);
#402=ORIENTED_EDGE('',*,*,#319,.T.);
#403=ORIENTED_EDGE('',*,*,#319,.F.);
#404=ORIENTED_EDGE('',*,*,#320,.T.);
#405=ORIENTED_EDGE('',*,*,#321,.F.);
#406=ORIENTED_EDGE('',*,*,#297,.T.);
#407=ORIENTED_EDGE('',*,*,#322,.F.);
#408=ORIENTED_EDGE('',*,*,#323,.F.);
#409=ORIENTED_EDGE('',*,*,#324,.F.);
#410=ORIENTED_EDGE('',*,*,#312,.T.);
#411=ORIENTED_EDGE('',*,*,#298,.T.);
#412=ORIENTED_EDGE('',*,*,#321,.T.);
#413=ORIENTED_EDGE('',*,*,#325,.T.);
#414=ORIENTED_EDGE('',*,*,#326,.T.);
#415=ORIENTED_EDGE('',*,*,#327,.T.);
#416=ORIENTED_EDGE('',*,*,#328,.T.);
#417=ORIENTED_EDGE('',*,*,#329,.T.);
#418=ORIENTED_EDGE('',*,*,#305,.T.);
#419=ORIENTED_EDGE('',*,*,#329,.F.);
#420=ORIENTED_EDGE('',*,*,#330,.T.);
#421=ORIENTED_EDGE('',*,*,#294,.T.);
#422=ORIENTED_EDGE('',*,*,#306,.T.);
#423=ORIENTED_EDGE('',*,*,#327,.F.);
#424=ORIENTED_EDGE('',*,*,#304,.T.);
#425=ORIENTED_EDGE('',*,*,#315,.T.);
#426=ORIENTED_EDGE('',*,*,#331,.T.);
#427=ORIENTED_EDGE('',*,*,#331,.F.);
#428=ORIENTED_EDGE('',*,*,#314,.T.);
#429=ORIENTED_EDGE('',*,*,#332,.F.);
#430=ORIENTED_EDGE('',*,*,#333,.F.);
#431=ORIENTED_EDGE('',*,*,#330,.F.);
#432=ORIENTED_EDGE('',*,*,#334,.F.);
#433=ORIENTED_EDGE('',*,*,#335,.F.);
#434=ORIENTED_EDGE('',*,*,#295,.T.);
#435=ORIENTED_EDGE('',*,*,#336,.T.);
#436=ORIENTED_EDGE('',*,*,#337,.T.);
#437=ORIENTED_EDGE('',*,*,#338,.T.);
#438=ORIENTED_EDGE('',*,*,#323,.T.);
#439=ORIENTED_EDGE('',*,*,#338,.F.);
#440=ORIENTED_EDGE('',*,*,#332,.T.);
#441=ORIENTED_EDGE('',*,*,#313,.T.);
#442=ORIENTED_EDGE('',*,*,#324,.T.);
#443=ORIENTED_EDGE('',*,*,#336,.F.);
#444=ORIENTED_EDGE('',*,*,#322,.T.);
#445=ORIENTED_EDGE('',*,*,#296,.T.);
#446=ORIENTED_EDGE('',*,*,#335,.T.);
#447=ORIENTED_EDGE('',*,*,#339,.F.);
#448=ORIENTED_EDGE('',*,*,#340,.F.);
#449=ORIENTED_EDGE('',*,*,#341,.F.);
#450=ORIENTED_EDGE('',*,*,#342,.T.);
#451=ORIENTED_EDGE('',*,*,#343,.T.);
#452=ORIENTED_EDGE('',*,*,#342,.F.);
#453=ORIENTED_EDGE('',*,*,#343,.F.);
#454=ORIENTED_EDGE('',*,*,#344,.F.);
#455=ORIENTED_EDGE('',*,*,#345,.T.);
#456=ORIENTED_EDGE('',*,*,#346,.T.);
#457=ORIENTED_EDGE('',*,*,#345,.F.);
#458=ORIENTED_EDGE('',*,*,#346,.F.);
#459=ORIENTED_EDGE('',*,*,#290,.F.);
#460=ORIENTED_EDGE('',*,*,#299,.T.);
#461=ORIENTED_EDGE('',*,*,#326,.F.);
#462=ORIENTED_EDGE('',*,*,#347,.F.);
#463=ORIENTED_EDGE('',*,*,#309,.F.);
#464=ORIENTED_EDGE('',*,*,#348,.F.);
#465=ORIENTED_EDGE('',*,*,#317,.F.);
#466=ORIENTED_EDGE('',*,*,#310,.T.);
#467=ORIENTED_EDGE('',*,*,#348,.T.);
#468=ORIENTED_EDGE('',*,*,#308,.F.);
#469=ORIENTED_EDGE('',*,*,#301,.F.);
#470=ORIENTED_EDGE('',*,*,#291,.F.);
#471=ORIENTED_EDGE('',*,*,#347,.T.);
#472=ORIENTED_EDGE('',*,*,#325,.F.);
#473=ORIENTED_EDGE('',*,*,#320,.F.);
#474=ORIENTED_EDGE('',*,*,#318,.F.);
#475=ORIENTED_EDGE('',*,*,#349,.T.);
#476=ORIENTED_EDGE('',*,*,#350,.F.);
#477=ORIENTED_EDGE('',*,*,#351,.T.);
#478=ORIENTED_EDGE('',*,*,#349,.F.);
#479=ORIENTED_EDGE('',*,*,#351,.F.);
#480=ORIENTED_EDGE('',*,*,#350,.T.);
#481=ORIENTED_EDGE('',*,*,#352,.F.);
#482=ORIENTED_EDGE('',*,*,#353,.F.);
#483=ORIENTED_EDGE('',*,*,#354,.T.);
#484=ORIENTED_EDGE('',*,*,#285,.T.);
#485=ORIENTED_EDGE('',*,*,#354,.F.);
#486=ORIENTED_EDGE('',*,*,#355,.F.);
#487=ORIENTED_EDGE('',*,*,#356,.T.);
#488=ORIENTED_EDGE('',*,*,#352,.T.);
#489=ORIENTED_EDGE('',*,*,#356,.F.);
#490=ORIENTED_EDGE('',*,*,#355,.T.);
#491=ORIENTED_EDGE('',*,*,#353,.T.);
#492=ORIENTED_EDGE('',*,*,#339,.T.);
#493=ORIENTED_EDGE('',*,*,#357,.T.);
#494=ORIENTED_EDGE('',*,*,#316,.T.);
#495=ORIENTED_EDGE('',*,*,#357,.F.);
#496=ORIENTED_EDGE('',*,*,#328,.F.);
#497=ORIENTED_EDGE('',*,*,#333,.T.);
#498=ORIENTED_EDGE('',*,*,#337,.F.);
#499=ORIENTED_EDGE('',*,*,#334,.T.);
#500=ORIENTED_EDGE('',*,*,#286,.T.);
#501=ORIENTED_EDGE('',*,*,#341,.T.);
#502=ORIENTED_EDGE('',*,*,#344,.T.);
#503=ORIENTED_EDGE('',*,*,#340,.T.);
#504=ORIENTED_EDGE('',*,*,#358,.T.);
#505=ORIENTED_EDGE('',*,*,#300,.T.);
#506=ORIENTED_EDGE('',*,*,#358,.F.);
#507=PLANE('',#579);
#508=PLANE('',#584);
#509=PLANE('',#588);
#510=PLANE('',#592);
#511=PLANE('',#596);
#512=PLANE('',#602);
#513=PLANE('',#605);
#514=PLANE('',#606);
#515=PLANE('',#607);
#516=PLANE('',#608);
#517=PLANE('',#609);
#518=PLANE('',#610);
#519=PLANE('',#611);
#520=PLANE('',#612);
#521=PLANE('',#613);
#522=PLANE('',#615);
#523=PLANE('',#620);
#524=PLANE('',#624);
#525=PLANE('',#629);
#526=PLANE('',#633);
#527=PLANE('',#639);
#528=PLANE('',#641);
#529=ADVANCED_FACE('',(#129),#507,.F.);
#530=ADVANCED_FACE('',(#130),#115,.F.);
#531=ADVANCED_FACE('',(#131),#508,.T.);
#532=ADVANCED_FACE('',(#132),#116,.T.);
#533=ADVANCED_FACE('',(#133,#15),#509,.F.);
#534=ADVANCED_FACE('',(#134),#510,.F.);
#535=ADVANCED_FACE('',(#135),#117,.T.);
#536=ADVANCED_FACE('',(#136,#16),#511,.F.);
#537=ADVANCED_FACE('',(#137),#118,.T.);
#538=ADVANCED_FACE('',(#138),#512,.T.);
#539=ADVANCED_FACE('',(#139),#119,.T.);
#540=ADVANCED_FACE('',(#140),#513,.T.);
#541=ADVANCED_FACE('',(#141),#514,.T.);
#542=ADVANCED_FACE('',(#142),#515,.T.);
#543=ADVANCED_FACE('',(#143),#516,.T.);
#544=ADVANCED_FACE('',(#144),#517,.T.);
#545=ADVANCED_FACE('',(#145),#518,.T.);
#546=ADVANCED_FACE('',(#146),#519,.T.);
#547=ADVANCED_FACE('',(#147),#520,.T.);
#548=ADVANCED_FACE('',(#148),#521,.F.);
#549=ADVANCED_FACE('',(#149),#522,.F.);
#550=ADVANCED_FACE('',(#150),#120,.F.);
#551=ADVANCED_FACE('',(#151),#523,.T.);
#552=ADVANCED_FACE('',(#152),#121,.F.);
#553=ADVANCED_FACE('',(#153),#524,.T.);
#554=ADVANCED_FACE('',(#154),#122,.F.);
#555=ADVANCED_FACE('',(#155),#123,.F.);
#556=ADVANCED_FACE('',(#156,#17),#525,.F.);
#557=ADVANCED_FACE('',(#157),#124,.T.);
#558=ADVANCED_FACE('',(#158,#18),#526,.F.);
#559=ADVANCED_FACE('',(#159),#125,.F.);
#560=ADVANCED_FACE('',(#160),#126,.T.);
#561=ADVANCED_FACE('',(#161,#19),#527,.F.);
#562=ADVANCED_FACE('',(#162),#127,.F.);
#563=ADVANCED_FACE('',(#163,#20,#21,#22),#528,.T.);
#564=ADVANCED_FACE('',(#164),#128,.F.);
#565=CLOSED_SHELL('',(#529,#530,#531,#532,#533,#534,#535,#536,#537,#538,
#539,#540,#541,#542,#543,#544,#545,#546,#547,#548,#549,#550,#551,#552,#553,
#554,#555,#556,#557,#558,#559,#560,#561,#562,#563,#564));
#566=DERIVED_UNIT_ELEMENT(#568,1.);
#567=DERIVED_UNIT_ELEMENT(#983,-3.);
#568=(
MASS_UNIT()
NAMED_UNIT(*)
SI_UNIT(.KILO.,.GRAM.)
);
#569=DERIVED_UNIT((#566,#567));
#570=MEASURE_REPRESENTATION_ITEM('density measure',
POSITIVE_RATIO_MEASURE(7850.),#569);
#571=PROPERTY_DEFINITION_REPRESENTATION(#576,#573);
#572=PROPERTY_DEFINITION_REPRESENTATION(#577,#574);
#573=REPRESENTATION('material name',(#575),#980);
#574=REPRESENTATION('density',(#570),#980);
#575=DESCRIPTIVE_REPRESENTATION_ITEM('Steel','Steel');
#576=PROPERTY_DEFINITION('material property','material name',#990);
#577=PROPERTY_DEFINITION('material property','density of part',#990);
#578=AXIS2_PLACEMENT_3D('',#819,#643,#644);
#579=AXIS2_PLACEMENT_3D('',#820,#645,#646);
#580=AXIS2_PLACEMENT_3D('',#822,#647,#648);
#581=AXIS2_PLACEMENT_3D('',#823,#649,#650);
#582=AXIS2_PLACEMENT_3D('',#825,#651,#652);
#583=AXIS2_PLACEMENT_3D('',#828,#654,#655);
#584=AXIS2_PLACEMENT_3D('',#829,#656,#657);
#585=AXIS2_PLACEMENT_3D('',#830,#658,#659);
#586=AXIS2_PLACEMENT_3D('',#833,#660,#661);
#587=AXIS2_PLACEMENT_3D('',#837,#663,#664);
#588=AXIS2_PLACEMENT_3D('',#839,#666,#667);
#589=AXIS2_PLACEMENT_3D('',#851,#673,#674);
#590=AXIS2_PLACEMENT_3D('',#852,#675,#676);
#591=AXIS2_PLACEMENT_3D('',#854,#677,#678);
#592=AXIS2_PLACEMENT_3D('',#855,#679,#680);
#593=AXIS2_PLACEMENT_3D('',#867,#687,#688);
#594=AXIS2_PLACEMENT_3D('',#869,#689,#690);
#595=AXIS2_PLACEMENT_3D('',#871,#691,#692);
#596=AXIS2_PLACEMENT_3D('',#873,#694,#695);
#597=AXIS2_PLACEMENT_3D('',#875,#696,#697);
#598=AXIS2_PLACEMENT_3D('',#877,#698,#699);
#599=AXIS2_PLACEMENT_3D('',#886,#704,#705);
#600=AXIS2_PLACEMENT_3D('',#887,#706,#707);
#601=AXIS2_PLACEMENT_3D('',#891,#709,#710);
#602=AXIS2_PLACEMENT_3D('',#893,#712,#713);
#603=AXIS2_PLACEMENT_3D('',#902,#719,#720);
#604=AXIS2_PLACEMENT_3D('',#904,#721,#722);
#605=AXIS2_PLACEMENT_3D('',#906,#724,#725);
#606=AXIS2_PLACEMENT_3D('',#912,#729,#730);
#607=AXIS2_PLACEMENT_3D('',#914,#732,#733);
#608=AXIS2_PLACEMENT_3D('',#916,#735,#736);
#609=AXIS2_PLACEMENT_3D('',#920,#739,#740);
#610=AXIS2_PLACEMENT_3D('',#924,#743,#744);
#611=AXIS2_PLACEMENT_3D('',#928,#748,#749);
#612=AXIS2_PLACEMENT_3D('',#929,#750,#751);
#613=AXIS2_PLACEMENT_3D('',#930,#752,#753);
#614=AXIS2_PLACEMENT_3D('',#932,#754,#755);
#615=AXIS2_PLACEMENT_3D('',#933,#756,#757);
#616=AXIS2_PLACEMENT_3D('',#935,#758,#759);
#617=AXIS2_PLACEMENT_3D('',#936,#760,#761);
#618=AXIS2_PLACEMENT_3D('',#938,#762,#763);
#619=AXIS2_PLACEMENT_3D('',#941,#765,#766);
#620=AXIS2_PLACEMENT_3D('',#942,#767,#768);
#621=AXIS2_PLACEMENT_3D('',#943,#769,#770);
#622=AXIS2_PLACEMENT_3D('',#945,#771,#772);
#623=AXIS2_PLACEMENT_3D('',#948,#774,#775);
#624=AXIS2_PLACEMENT_3D('',#949,#776,#777);
#625=AXIS2_PLACEMENT_3D('',#950,#778,#779);
#626=AXIS2_PLACEMENT_3D('',#951,#780,#781);
#627=AXIS2_PLACEMENT_3D('',#952,#782,#783);
#628=AXIS2_PLACEMENT_3D('',#953,#784,#785);
#629=AXIS2_PLACEMENT_3D('',#954,#786,#787);
#630=AXIS2_PLACEMENT_3D('',#956,#788,#789);
#631=AXIS2_PLACEMENT_3D('',#957,#790,#791);
#632=AXIS2_PLACEMENT_3D('',#959,#792,#793);
#633=AXIS2_PLACEMENT_3D('',#961,#795,#796);
#634=AXIS2_PLACEMENT_3D('',#963,#797,#798);
#635=AXIS2_PLACEMENT_3D('',#964,#799,#800);
#636=AXIS2_PLACEMENT_3D('',#966,#801,#802);
#637=AXIS2_PLACEMENT_3D('',#968,#804,#805);
#638=AXIS2_PLACEMENT_3D('',#970,#806,#807);
#639=AXIS2_PLACEMENT_3D('',#972,#809,#810);
#640=AXIS2_PLACEMENT_3D('',#973,#811,#812);
#641=AXIS2_PLACEMENT_3D('',#975,#814,#815);
#642=AXIS2_PLACEMENT_3D('',#976,#816,#817);
#643=DIRECTION('axis',(0.,0.,1.));
#644=DIRECTION('refdir',(1.,0.,0.));
#645=DIRECTION('center_axis',(-2.66453300098997E-15,1.,-3.54987106508713E-29));
#646=DIRECTION('ref_axis',(-1.,-2.66453300098997E-15,1.40017725091125E-59));
#647=DIRECTION('center_axis',(-2.66453300098997E-15,1.,-3.54987106508713E-29));
#648=DIRECTION('ref_axis',(-1.,-2.433365533425E-15,-8.18117331556333E-45));
#649=DIRECTION('center_axis',(5.07530525542929E-15,-1.,3.54987407349456E-29));
#650=DIRECTION('ref_axis',(-1.,-5.07530525542929E-15,8.55793792313416E-44));
#651=DIRECTION('center_axis',(2.66453300098997E-15,-1.,3.54987106508714E-29));
#652=DIRECTION('ref_axis',(-1.,-5.07530525542929E-15,8.55793792313416E-44));
#653=DIRECTION('',(5.07530525542929E-15,-1.,3.54987407349456E-29));
#654=DIRECTION('center_axis',(2.66453300098997E-15,-1.,3.54987106508713E-29));
#655=DIRECTION('ref_axis',(-1.,-2.66453300098997E-15,0.));
#656=DIRECTION('center_axis',(-2.66453300098997E-15,1.,-3.54987106508713E-29));
#657=DIRECTION('ref_axis',(-1.,-2.66453300098997E-15,0.));
#658=DIRECTION('center_axis',(-2.16628882853689E-15,1.,-3.07848158135029E-29));
#659=DIRECTION('ref_axis',(0.911360802534698,0.,0.411608415369888));
#660=DIRECTION('center_axis',(0.,1.,0.));
#661=DIRECTION('ref_axis',(0.911360802534698,0.,0.411608415369888));
#662=DIRECTION('',(-2.16628882853689E-15,1.,-3.07848158135029E-29));
#663=DIRECTION('center_axis',(-2.66453300098997E-15,1.,-3.54987106508714E-29));
#664=DIRECTION('ref_axis',(0.911360802534698,0.,0.411608415369888));
#665=DIRECTION('',(2.16628882853689E-15,-1.,-6.12323372859874E-17));
#666=DIRECTION('center_axis',(0.,1.,0.));
#667=DIRECTION('ref_axis',(-1.,0.,-1.20320420293751E-14));
#668=DIRECTION('',(1.,0.,1.20320420293751E-14));
#669=DIRECTION('',(0.600000000000022,0.,0.799999999999983));
#670=DIRECTION('',(-1.29189588320018E-14,0.,1.));
#671=DIRECTION('',(-0.600000000000011,0.,0.799999999999991));
#672=DIRECTION('',(-1.,0.,-1.20320420293751E-14));
#673=DIRECTION('center_axis',(0.,1.,0.));
#674=DIRECTION('ref_axis',(0.911360802534703,0.,-0.411608415369879));
#675=DIRECTION('center_axis',(0.,-1.,0.));
#676=DIRECTION('ref_axis',(-1.,-2.16628882853689E-15,-9.26226417689807E-45));
#677=DIRECTION('center_axis',(0.,-1.,0.));
#678=DIRECTION('ref_axis',(-1.,-2.16628882853689E-15,-9.26226417689808E-45));
#679=DIRECTION('center_axis',(1.20320420293751E-14,6.12323372860135E-17,
-1.));
#680=DIRECTION('ref_axis',(-1.,-1.5099032909037E-13,-1.20320420293751E-14));
#681=DIRECTION('',(1.,2.66453300098997E-15,1.22363138245767E-14));
#682=DIRECTION('',(-2.16628882853689E-15,1.,6.12323372859874E-17));
#683=DIRECTION('',(1.,0.,1.20320420293751E-14));
#684=DIRECTION('',(4.44089209850063E-15,-1.,-6.12323372859601E-17));
#685=DIRECTION('',(1.,2.66453300098997E-15,1.20320420293751E-14));
#686=DIRECTION('',(-4.39049877080902E-14,1.,6.12323372854852E-17));
#687=DIRECTION('center_axis',(-2.16628882853689E-15,1.,-3.07848158135029E-29));
#688=DIRECTION('ref_axis',(-0.911360802534707,0.,0.41160841536987));
#689=DIRECTION('center_axis',(0.,1.,0.));
#690=DIRECTION('ref_axis',(-0.911360802534707,0.,0.41160841536987));
#691=DIRECTION('center_axis',(-2.66453300098997E-15,1.,-3.54987106508714E-29));
#692=DIRECTION('ref_axis',(-0.911360802534707,0.,0.41160841536987));
#693=DIRECTION('',(2.16628882853689E-15,-1.,3.07848158135029E-29));
#694=DIRECTION('center_axis',(0.,1.,0.));
#695=DIRECTION('ref_axis',(-1.,0.,-1.20320420293751E-14));
#696=DIRECTION('center_axis',(0.,-1.,0.));
#697=DIRECTION('ref_axis',(-1.,-2.16628882853689E-15,-9.26226417689807E-45));
#698=DIRECTION('center_axis',(0.,1.,0.));
#699=DIRECTION('ref_axis',(-0.911360802534698,0.,-0.411608415369888));
#700=DIRECTION('',(-1.,0.,-1.20320420293751E-14));
#701=DIRECTION('',(-0.599999999999993,0.,-0.800000000000005));
#702=DIRECTION('',(1.0449157878825E-14,0.,-1.));
#703=DIRECTION('',(0.600000000000007,0.,-0.799999999999995));
#704=DIRECTION('center_axis',(0.,-1.,0.));
#705=DIRECTION('ref_axis',(-1.,-4.44089209850063E-15,5.60520098263936E-44));
#706=DIRECTION('center_axis',(-2.16628882853689E-15,1.,-3.07848158135029E-29));
#707=DIRECTION('ref_axis',(-0.911360802534698,0.,-0.411608415369888));
#708=DIRECTION('',(-2.16628882853689E-15,1.,-3.07848158135029E-29));
#709=DIRECTION('center_axis',(-2.66453300098997E-15,1.,-3.54987106508714E-29));
#710=DIRECTION('ref_axis',(-0.911360802534698,0.,-0.411608415369888));
#711=DIRECTION('',(2.16628882853689E-15,-1.,-6.12323372859874E-17));
#712=DIRECTION('center_axis',(1.20320420293751E-14,6.12323372860135E-17,
-1.));
#713=DIRECTION('ref_axis',(-1.,-1.5099032909037E-13,-1.20320420293751E-14));
#714=DIRECTION('',(-1.,-2.66453300098997E-15,-1.20839625022226E-14));
#715=DIRECTION('',(-2.16628882853689E-15,1.,6.12323372859874E-17));
#716=DIRECTION('',(4.39049877080902E-14,-1.,-6.12323372854852E-17));
#717=DIRECTION('',(-1.,-2.66453300098997E-15,-1.20320420293751E-14));
#718=DIRECTION('',(-4.44089209850063E-15,1.,6.12323372859601E-17));
#719=DIRECTION('center_axis',(-2.16628882853689E-15,1.,-3.07848158135029E-29));
#720=DIRECTION('ref_axis',(0.911360802534703,0.,-0.411608415369879));
#721=DIRECTION('center_axis',(-2.66453300098997E-15,1.,-3.54987106508714E-29));
#722=DIRECTION('ref_axis',(0.911360802534703,0.,-0.411608415369879));
#723=DIRECTION('',(2.16628882853689E-15,-1.,3.07848158135029E-29));
#724=DIRECTION('center_axis',(-9.35085161841706E-15,0.799999999999998,0.600000000000002));
#725=DIRECTION('ref_axis',(1.,0.,1.55847526973617E-14));
#726=DIRECTION('',(0.514495755427529,0.514495755427531,-0.68599434057003));
#727=DIRECTION('',(-1.,-2.66453300098997E-15,-1.20320420293751E-14));
#728=DIRECTION('',(0.514495755427566,-0.51449575542751,0.685994340570018));
#729=DIRECTION('center_axis',(-0.799999999999983,-3.51607295688427E-14,
0.600000000000022));
#730=DIRECTION('ref_axis',(0.600000000000022,0.,0.799999999999983));
#731=DIRECTION('',(4.39049877080902E-14,-1.,-6.12323372854852E-17));
#732=DIRECTION('center_axis',(0.799999999999995,3.51597427642891E-15,0.600000000000007));
#733=DIRECTION('ref_axis',(0.600000000000007,0.,-0.799999999999995));
#734=DIRECTION('',(-4.44089209850063E-15,1.,6.12323372859601E-17));
#735=DIRECTION('center_axis',(1.,4.44089209850063E-15,1.0449157878825E-14));
#736=DIRECTION('ref_axis',(1.0449157878825E-14,-7.65658465018776E-30,-1.));
#737=DIRECTION('',(4.44089209850063E-15,-1.,-6.12323372859601E-17));
#738=DIRECTION('',(1.0449157878825E-14,-7.65658465018776E-30,-1.));
#739=DIRECTION('center_axis',(-1.,-4.39049877080902E-14,-1.29189588320018E-14));
#740=DIRECTION('ref_axis',(-4.39049877080902E-14,1.,6.12323372854852E-17));
#741=DIRECTION('',(-1.253898945459E-14,2.08815945005128E-30,1.));
#742=DIRECTION('',(-4.39049877080902E-14,1.,6.12323372854852E-17));
#743=DIRECTION('center_axis',(5.08759881683312E-15,0.799999999999998,-0.600000000000002));
#744=DIRECTION('ref_axis',(-1.,0.,-8.4793313613885E-15));
#745=DIRECTION('',(-0.514495755427553,0.514495755427521,0.68599434057002));
#746=DIRECTION('',(1.,2.66453300098997E-15,1.20320420293751E-14));
#747=DIRECTION('',(-0.514495755427518,-0.514495755427529,-0.68599434057004));
#748=DIRECTION('center_axis',(0.800000000000005,3.58945308117211E-15,-0.599999999999993));
#749=DIRECTION('ref_axis',(-0.599999999999993,0.,-0.800000000000005));
#750=DIRECTION('center_axis',(-0.799999999999992,-3.50872507641005E-14,
-0.600000000000011));
#751=DIRECTION('ref_axis',(-0.600000000000011,0.,0.799999999999991));
#752=DIRECTION('center_axis',(-2.66453300098997E-15,1.,-3.54987106508713E-29));
#753=DIRECTION('ref_axis',(-1.,-2.66453300098997E-15,1.40017725091125E-59));
#754=DIRECTION('center_axis',(-2.66453300098997E-15,1.,-3.54987106508713E-29));
#755=DIRECTION('ref_axis',(-1.,-4.44089209850063E-15,5.60520098263936E-44));
#756=DIRECTION('center_axis',(-2.66453300098997E-15,1.,-3.54987106508713E-29));
#757=DIRECTION('ref_axis',(-1.,-2.66453300098997E-15,1.40017725091125E-59));
#758=DIRECTION('center_axis',(-2.66453300098997E-15,1.,-3.54987106508713E-29));
#759=DIRECTION('ref_axis',(-1.,-2.16628882853689E-15,-9.26226417689808E-45));
#760=DIRECTION('center_axis',(5.07530525542929E-15,-1.,3.60622128101034E-29));
#761=DIRECTION('ref_axis',(-1.,-5.07530525542929E-15,8.69377820762836E-44));
#762=DIRECTION('center_axis',(2.66453300098997E-15,-1.,3.54987106508714E-29));
#763=DIRECTION('ref_axis',(-1.,-5.07530525542929E-15,8.69377820762836E-44));
#764=DIRECTION('',(5.07530525542929E-15,-1.,3.60622128101034E-29));
#765=DIRECTION('center_axis',(2.66453300098997E-15,-1.,3.54987106508713E-29));
#766=DIRECTION('ref_axis',(-1.,-2.66453300098997E-15,0.));
#767=DIRECTION('center_axis',(-2.66453300098997E-15,1.,-3.54987106508713E-29));
#768=DIRECTION('ref_axis',(-1.,-2.66453300098997E-15,0.));
#769=DIRECTION('center_axis',(5.07530525542929E-15,-1.,3.60622128101034E-29));
#770=DIRECTION('ref_axis',(-1.,-5.07530525542929E-15,8.69377820762836E-44));
#771=DIRECTION('center_axis',(2.66453300098997E-15,-1.,3.54987106508714E-29));
#772=DIRECTION('ref_axis',(-1.,-5.07530525542929E-15,8.69377820762836E-44));
#773=DIRECTION('',(5.07530525542929E-15,-1.,3.60622128101034E-29));
#774=DIRECTION('center_axis',(2.66453300098997E-15,-1.,3.54987106508713E-29));
#775=DIRECTION('ref_axis',(-1.,-2.66453300098997E-15,0.));
#776=DIRECTION('center_axis',(-2.66453300098997E-15,1.,-3.54987106508713E-29));
#777=DIRECTION('ref_axis',(-1.,-2.66453300098997E-15,0.));
#778=DIRECTION('center_axis',(-2.16628882853689E-15,1.,-3.07848158135029E-29));
#779=DIRECTION('ref_axis',(-1.,-2.16628882853689E-15,-9.26226417689807E-45));
#780=DIRECTION('center_axis',(2.4671600188344E-15,-1.,3.18731387152824E-29));
#781=DIRECTION('ref_axis',(-1.,-2.46716001883439E-15,0.));
#782=DIRECTION('center_axis',(-2.16628882853689E-15,1.,-3.07848158135029E-29));
#783=DIRECTION('ref_axis',(1.,2.16628882853689E-15,1.16687841360164E-14));
#784=DIRECTION('center_axis',(2.66453300098997E-15,-1.,3.54987106508714E-29));
#785=DIRECTION('ref_axis',(-1.,-2.16628882853689E-15,-9.26226417689807E-45));
#786=DIRECTION('center_axis',(-2.66453300098997E-15,1.,-3.54987106508714E-29));
#787=DIRECTION('ref_axis',(-1.,-2.66453300098997E-15,-1.11199098246846E-60));
#788=DIRECTION('center_axis',(-2.66453300098997E-15,1.,-3.54987106508714E-29));
#789=DIRECTION('ref_axis',(-1.,0.,-9.45875661818497E-44));
#790=DIRECTION('center_axis',(0.,-1.,3.54987407349457E-29));
#791=DIRECTION('ref_axis',(-1.,0.,-9.45875661818497E-44));
#792=DIRECTION('center_axis',(2.66453300098997E-15,-1.,3.54987106508716E-29));
#793=DIRECTION('ref_axis',(-1.,-2.66453300098997E-15,-1.40017725091127E-59));
#794=DIRECTION('',(0.,1.,-3.54987407349457E-29));
#795=DIRECTION('center_axis',(-2.66453300098997E-15,1.,-3.54987106508716E-29));
#796=DIRECTION('ref_axis',(-1.,-2.66453300098997E-15,-1.40017725091127E-59));
#797=DIRECTION('center_axis',(2.66453300098997E-15,-1.,3.54987106508716E-29));
#798=DIRECTION('ref_axis',(-1.,-2.433365533425E-15,-8.18117331556332E-45));
#799=DIRECTION('center_axis',(2.433365533425E-15,-1.,3.5390677597244E-29));
#800=DIRECTION('ref_axis',(-1.,-2.433365533425E-15,-8.18117331556333E-45));
#801=DIRECTION('center_axis',(-2.66453300098997E-15,1.,-3.54987106508716E-29));
#802=DIRECTION('ref_axis',(-1.,-2.66453300098997E-15,1.40017725091127E-59));
#803=DIRECTION('',(-2.433365533425E-15,1.,-3.5390677597244E-29));
#804=DIRECTION('center_axis',(2.433365533425E-15,-1.,3.5390677597244E-29));
#805=DIRECTION('ref_axis',(-1.,-2.433365533425E-15,-8.18117331556332E-45));
#806=DIRECTION('center_axis',(2.66453300098997E-15,-1.,3.54987106508716E-29));
#807=DIRECTION('ref_axis',(-1.,-2.66453300098997E-15,0.));
#808=DIRECTION('',(-2.433365533425E-15,1.,-3.5390677597244E-29));
#809=DIRECTION('center_axis',(-2.66453300098997E-15,1.,-3.54987106508716E-29));
#810=DIRECTION('ref_axis',(-1.,-2.66453300098997E-15,0.));
#811=DIRECTION('center_axis',(-4.44089209850063E-15,1.,-3.15544362088405E-29));
#812=DIRECTION('ref_axis',(-1.,-4.44089209850063E-15,5.60520098263936E-44));
#813=DIRECTION('',(4.44089209850063E-15,-1.,3.15544362088405E-29));
#814=DIRECTION('center_axis',(-2.66453300098997E-15,1.,-3.54987106508714E-29));
#815=DIRECTION('ref_axis',(-1.,-2.66453300098997E-15,-1.11199098246846E-60));
#816=DIRECTION('center_axis',(-2.16628882853689E-15,1.,-3.07848158135029E-29));
#817=DIRECTION('ref_axis',(-1.,-2.16628882853689E-15,-9.26226417689808E-45));
#818=DIRECTION('',(2.16628882853689E-15,-1.,3.07848158135029E-29));
#819=CARTESIAN_POINT('',(0.,0.,0.));
#820=CARTESIAN_POINT('Origin',(142.749999999996,77.7999999999796,1.55431223447494E-14));
#821=CARTESIAN_POINT('',(144.349999999996,77.7999999999796,1.53471788568859E-14));
#822=CARTESIAN_POINT('Origin',(142.749999999996,77.7999999999796,1.55431223447494E-14));
#823=CARTESIAN_POINT('Origin',(142.749999999996,81.4999999999795,1.55431223447493E-14));
#824=CARTESIAN_POINT('',(145.499999999996,81.4999999999796,1.52063444749838E-14));
#825=CARTESIAN_POINT('Origin',(142.749999999996,81.4999999999796,1.55431223447493E-14));
#826=CARTESIAN_POINT('',(145.499999999996,77.9999999999796,1.52063444749839E-14));
#827=CARTESIAN_POINT('',(145.499999999996,81.4999999999796,1.58799002145148E-14));
#828=CARTESIAN_POINT('Origin',(142.749999999996,77.9999999999795,1.55431223447494E-14));
#829=CARTESIAN_POINT('Origin',(142.749999999996,77.9999999999795,1.55431223447494E-14));
#830=CARTESIAN_POINT('Origin',(133.672004626567,69.2999999999795,7.99999999999991));
#831=CARTESIAN_POINT('',(133.672004626567,70.1999999999795,8.49999999999991));
#832=CARTESIAN_POINT('',(134.047128402329,70.1999999999795,7.66942148760322));
#833=CARTESIAN_POINT('Origin',(133.672004626567,70.1999999999795,7.99999999999991));
#834=CARTESIAN_POINT('',(134.047128402329,77.4999999999795,7.66942148760322));
#835=CARTESIAN_POINT('',(134.047128402329,69.2999999999795,7.66942148760322));
#836=CARTESIAN_POINT('',(133.672004626567,77.4999999999795,8.49999999999991));
#837=CARTESIAN_POINT('Origin',(133.672004626567,77.4999999999795,7.99999999999991));
#838=CARTESIAN_POINT('',(133.672004626567,69.2999999999795,8.49999999999991));
#839=CARTESIAN_POINT('Origin',(134.85633165125,70.1999999999795,-8.50000000000008));
#840=CARTESIAN_POINT('',(127.749999999997,70.1999999999795,8.49999999999984));
#841=CARTESIAN_POINT('',(138.803165825624,70.1999999999795,8.49999999999997));
#842=CARTESIAN_POINT('',(124.749999999997,70.1999999999795,4.4999999999998));
#843=CARTESIAN_POINT('',(124.199139697223,70.1999999999795,3.76551959630098));
#844=CARTESIAN_POINT('',(124.749999999997,70.1999999999795,-4.5000000000002));
#845=CARTESIAN_POINT('',(124.749999999997,70.1999999999795,-5.75000000000021));
#846=CARTESIAN_POINT('',(127.749999999997,70.1999999999795,-8.50000000000017));
#847=CARTESIAN_POINT('',(128.279139697223,70.1999999999795,-9.20551959630104));
#848=CARTESIAN_POINT('',(133.672004626567,70.1999999999795,-8.50000000000009));
#849=CARTESIAN_POINT('',(138.803165825624,70.1999999999795,-8.50000000000003));
#850=CARTESIAN_POINT('',(134.047128402329,70.1999999999795,-7.66942148760339));
#851=CARTESIAN_POINT('Origin',(133.672004626567,70.1999999999795,-8.00000000000009));
#852=CARTESIAN_POINT('Origin',(142.749999999996,70.1999999999795,1.554312234475E-14));
#853=CARTESIAN_POINT('',(130.349999999997,70.1999999999795,-1.77439740452164E-13));
#854=CARTESIAN_POINT('Origin',(128.749999999997,70.1999999999795,-1.77635683940027E-13));
#855=CARTESIAN_POINT('Origin',(142.749999999997,57.6500000000004,8.50000000000002));
#856=CARTESIAN_POINT('',(151.827995373425,77.4999999999796,8.50000000000013));
#857=CARTESIAN_POINT('',(134.85633165125,77.4999999999795,8.49999999999992));
#858=CARTESIAN_POINT('',(151.827995373425,70.1999999999795,8.50000000000013));
#859=CARTESIAN_POINT('',(151.827995373425,69.2999999999795,8.50000000000013));
#860=CARTESIAN_POINT('',(157.749999999996,70.1999999999795,8.5000000000002));
#861=CARTESIAN_POINT('',(151.749999999996,70.1999999999795,8.50000000000012));
#862=CARTESIAN_POINT('',(157.749999999996,78.4999999999796,8.5000000000002));
#863=CARTESIAN_POINT('',(157.749999999996,67.57499999999,8.5000000000002));
#864=CARTESIAN_POINT('',(127.749999999997,78.4999999999795,8.49999999999984));
#865=CARTESIAN_POINT('',(142.749999999997,78.4999999999795,8.50000000000002));
#866=CARTESIAN_POINT('',(127.749999999998,56.4249999999991,8.49999999999984));
#867=CARTESIAN_POINT('Origin',(151.827995373425,69.2999999999795,8.00000000000013));
#868=CARTESIAN_POINT('',(151.452871597664,70.1999999999795,7.66942148760343));
#869=CARTESIAN_POINT('Origin',(151.827995373425,70.1999999999795,8.00000000000013));
#870=CARTESIAN_POINT('',(151.452871597664,77.4999999999796,7.66942148760343));
#871=CARTESIAN_POINT('Origin',(151.827995373425,77.4999999999796,8.00000000000013));
#872=CARTESIAN_POINT('',(151.452871597664,69.2999999999795,7.66942148760343));
#873=CARTESIAN_POINT('Origin',(160.749999999996,70.1999999999795,-8.49999999999977));
#874=CARTESIAN_POINT('',(151.452871597664,70.1999999999795,-7.66942148760319));
#875=CARTESIAN_POINT('Origin',(142.749999999996,70.1999999999795,1.554312234475E-14));
#876=CARTESIAN_POINT('',(151.827995373426,70.1999999999795,-8.49999999999988));
#877=CARTESIAN_POINT('Origin',(151.827995373426,70.1999999999795,-7.99999999999988));
#878=CARTESIAN_POINT('',(157.749999999996,70.1999999999795,-8.4999999999998));
#879=CARTESIAN_POINT('',(151.749999999997,70.1999999999795,-8.49999999999988));
#880=CARTESIAN_POINT('',(160.749999999996,70.1999999999795,-4.49999999999977));
#881=CARTESIAN_POINT('',(159.039999999996,70.1999999999795,-6.77999999999978));
#882=CARTESIAN_POINT('',(160.749999999996,70.1999999999795,4.50000000000023));
#883=CARTESIAN_POINT('',(160.749999999996,70.1999999999795,2.33146835171283E-13));
#884=CARTESIAN_POINT('',(163.119999999996,70.1999999999795,1.34000000000023));
#885=CARTESIAN_POINT('',(158.349999999996,70.1999999999795,1.81162296501762E-13));
#886=CARTESIAN_POINT('Origin',(156.749999999996,70.1999999999795,1.80966353013898E-13));
#887=CARTESIAN_POINT('Origin',(151.827995373426,69.2999999999795,-7.99999999999988));
#888=CARTESIAN_POINT('',(151.452871597664,77.4999999999796,-7.66942148760319));
#889=CARTESIAN_POINT('',(151.452871597664,69.2999999999795,-7.66942148760318));
#890=CARTESIAN_POINT('',(151.827995373425,77.4999999999796,-8.49999999999988));
#891=CARTESIAN_POINT('Origin',(151.827995373425,77.4999999999796,-7.99999999999988));
#892=CARTESIAN_POINT('',(151.827995373426,69.2999999999795,-8.49999999999988));
#893=CARTESIAN_POINT('Origin',(142.749999999997,57.6500000000004,-8.49999999999999));
#894=CARTESIAN_POINT('',(133.672004626567,77.4999999999795,-8.50000000000009));
#895=CARTESIAN_POINT('',(160.749999999996,77.4999999999796,-8.49999999999977));
#896=CARTESIAN_POINT('',(133.672004626567,69.2999999999795,-8.50000000000009));
#897=CARTESIAN_POINT('',(127.749999999997,78.4999999999795,-8.50000000000016));
#898=CARTESIAN_POINT('',(127.749999999998,56.4249999999991,-8.50000000000017));
#899=CARTESIAN_POINT('',(157.749999999996,78.4999999999796,-8.4999999999998));
#900=CARTESIAN_POINT('',(142.749999999997,78.4999999999795,-8.49999999999998));
#901=CARTESIAN_POINT('',(157.749999999996,67.57499999999,-8.4999999999998));
#902=CARTESIAN_POINT('Origin',(133.672004626567,69.2999999999795,-8.00000000000009));
#903=CARTESIAN_POINT('',(134.047128402329,77.4999999999795,-7.6694214876034));
#904=CARTESIAN_POINT('Origin',(133.672004626567,77.4999999999795,-8.00000000000009));
#905=CARTESIAN_POINT('',(134.047128402329,69.2999999999795,-7.66942148760339));
#906=CARTESIAN_POINT('Origin',(142.749999999997,79.9999999999796,6.50000000000002));
#907=CARTESIAN_POINT('',(160.749999999996,81.4999999999796,4.50000000000023));
#908=CARTESIAN_POINT('',(155.421691176468,76.1716911764517,11.604411764704));
#909=CARTESIAN_POINT('',(124.749999999997,81.4999999999795,4.4999999999998));
#910=CARTESIAN_POINT('',(142.749999999997,81.4999999999796,4.50000000000002));
#911=CARTESIAN_POINT('',(131.554044117642,74.695955882335,13.5720588235259));
#912=CARTESIAN_POINT('Origin',(126.249999999998,56.4249999999991,6.49999999999982));
#913=CARTESIAN_POINT('',(124.749999999997,56.424999999999,4.4999999999998));
#914=CARTESIAN_POINT('Origin',(159.249999999996,67.57499999999,6.50000000000022));
#915=CARTESIAN_POINT('',(160.749999999996,67.57499999999,4.50000000000023));
#916=CARTESIAN_POINT('Origin',(160.749999999996,77.4999999999796,8.50000000000023));
#917=CARTESIAN_POINT('',(160.749999999996,81.4999999999796,-4.49999999999977));
#918=CARTESIAN_POINT('',(160.749999999996,67.57499999999,-4.49999999999977));
#919=CARTESIAN_POINT('',(160.749999999996,81.4999999999796,8.50000000000023));
#920=CARTESIAN_POINT('Origin',(124.749999999998,55.1999999999984,-3.0000000000002));
#921=CARTESIAN_POINT('',(124.749999999997,81.4999999999795,-4.5000000000002));
#922=CARTESIAN_POINT('',(124.749999999997,81.4999999999795,-8.5000000000002));
#923=CARTESIAN_POINT('',(124.749999999998,56.424999999999,-4.5000000000002));
#924=CARTESIAN_POINT('Origin',(142.749999999997,79.9999999999796,-6.49999999999998));
#925=CARTESIAN_POINT('',(131.554044117641,74.6959558823349,-13.5720588235263));
#926=CARTESIAN_POINT('',(142.749999999997,81.4999999999796,-4.49999999999998));
#927=CARTESIAN_POINT('',(155.421691176468,76.1716911764517,-11.6044117647037));
#928=CARTESIAN_POINT('Origin',(159.249999999996,67.57499999999,-6.49999999999979));
#929=CARTESIAN_POINT('Origin',(126.249999999998,56.4249999999991,-6.50000000000018));
#930=CARTESIAN_POINT('Origin',(156.749999999996,77.7999999999796,1.80966353013898E-13));
#931=CARTESIAN_POINT('',(158.349999999996,77.7999999999796,1.80770409526034E-13));
#932=CARTESIAN_POINT('Origin',(156.749999999996,77.7999999999796,1.80966353013898E-13));
#933=CARTESIAN_POINT('Origin',(128.749999999997,77.7999999999795,-1.77635683940028E-13));
#934=CARTESIAN_POINT('',(130.349999999997,77.7999999999795,-1.77831627427891E-13));
#935=CARTESIAN_POINT('Origin',(128.749999999997,77.7999999999795,-1.77635683940028E-13));
#936=CARTESIAN_POINT('Origin',(156.749999999996,81.4999999999796,1.80966353013898E-13));
#937=CARTESIAN_POINT('',(159.499999999996,81.4999999999796,1.80629575144132E-13));
#938=CARTESIAN_POINT('Origin',(156.749999999996,81.4999999999796,1.80966353013898E-13));
#939=CARTESIAN_POINT('',(159.499999999996,77.9999999999796,1.80629575144132E-13));
#940=CARTESIAN_POINT('',(159.499999999996,81.4999999999796,1.81303130883663E-13));
#941=CARTESIAN_POINT('Origin',(156.749999999996,77.9999999999796,1.80966353013898E-13));
#942=CARTESIAN_POINT('Origin',(156.749999999996,77.9999999999796,1.80966353013898E-13));
#943=CARTESIAN_POINT('Origin',(128.749999999997,81.4999999999795,-1.77635683940028E-13));
#944=CARTESIAN_POINT('',(131.499999999997,81.4999999999795,-1.77972461809793E-13));
#945=CARTESIAN_POINT('Origin',(128.749999999997,81.4999999999795,-1.77635683940028E-13));
#946=CARTESIAN_POINT('',(131.499999999997,77.9999999999795,-1.77972461809793E-13));
#947=CARTESIAN_POINT('',(131.499999999997,81.4999999999795,-1.77298906070262E-13));
#948=CARTESIAN_POINT('Origin',(128.749999999997,77.9999999999795,-1.77635683940028E-13));
#949=CARTESIAN_POINT('Origin',(128.749999999997,77.9999999999795,-1.77635683940028E-13));
#950=CARTESIAN_POINT('Origin',(142.749999999996,69.2999999999795,1.554312234475E-14));
#951=CARTESIAN_POINT('Origin',(142.749999999996,77.4999999999795,1.55431223447497E-14));
#952=CARTESIAN_POINT('Origin',(142.749999999996,69.2999999999795,1.554312234475E-14));
#953=CARTESIAN_POINT('Origin',(142.749999999996,77.4999999999796,1.55431223447497E-14));
#954=CARTESIAN_POINT('Origin',(142.749999999996,77.4999999999796,1.66533453693746E-14));
#955=CARTESIAN_POINT('',(148.549999999996,77.4999999999796,1.4832827201244E-14));
#956=CARTESIAN_POINT('Origin',(142.749999999996,77.4999999999796,1.55431223447494E-14));
#957=CARTESIAN_POINT('Origin',(142.749999999996,77.4999999999796,1.55431223447494E-14));
#958=CARTESIAN_POINT('',(148.549999999996,76.9999999999796,1.4832827201244E-14));
#959=CARTESIAN_POINT('Origin',(142.749999999996,76.9999999999796,1.55431223447495E-14));
#960=CARTESIAN_POINT('',(148.549999999996,77.4999999999796,1.62534174882549E-14));
#961=CARTESIAN_POINT('Origin',(142.749999999996,76.9999999999796,1.55431223447495E-14));
#962=CARTESIAN_POINT('',(146.749999999996,76.9999999999796,1.50532636250905E-14));
#963=CARTESIAN_POINT('Origin',(142.749999999996,76.9999999999796,1.55431223447495E-14));
#964=CARTESIAN_POINT('Origin',(142.749999999996,77.4999999999796,1.55431223447494E-14));
#965=CARTESIAN_POINT('',(144.349999999996,70.1999999999796,1.53471788568861E-14));
#966=CARTESIAN_POINT('Origin',(142.749999999996,70.1999999999796,1.55431223447497E-14));
#967=CARTESIAN_POINT('',(144.349999999996,77.4999999999796,1.5739065832613E-14));
#968=CARTESIAN_POINT('Origin',(142.749999999996,77.4999999999796,1.55431223447494E-14));
#969=CARTESIAN_POINT('',(146.749999999996,70.1999999999796,1.50532636250908E-14));
#970=CARTESIAN_POINT('Origin',(142.749999999996,70.1999999999796,1.55431223447497E-14));
#971=CARTESIAN_POINT('',(146.749999999996,77.4999999999796,1.60329810644084E-14));
#972=CARTESIAN_POINT('Origin',(142.749999999996,70.1999999999796,1.55431223447497E-14));
#973=CARTESIAN_POINT('Origin',(156.749999999996,77.4999999999796,1.80966353013898E-13));
#974=CARTESIAN_POINT('',(158.349999999996,77.4999999999796,1.80770409526034E-13));
#975=CARTESIAN_POINT('Origin',(142.749999999996,81.4999999999796,1.66533453693745E-14));
#976=CARTESIAN_POINT('Origin',(128.749999999997,69.2999999999795,-1.77635683940027E-13));
#977=CARTESIAN_POINT('',(130.349999999997,69.2999999999795,-1.77831627427891E-13));
#978=UNCERTAINTY_MEASURE_WITH_UNIT(LENGTH_MEASURE(0.01),#982,
'DISTANCE_ACCURACY_VALUE',
'Maximum model space distance between geometric entities at asserted c
onnectivities');
#979=UNCERTAINTY_MEASURE_WITH_UNIT(LENGTH_MEASURE(0.01),#982,
'DISTANCE_ACCURACY_VALUE',
'Maximum model space distance between geometric entities at asserted c
onnectivities');
#980=(
GEOMETRIC_REPRESENTATION_CONTEXT(3)
GLOBAL_UNCERTAINTY_ASSIGNED_CONTEXT((#978))
GLOBAL_UNIT_ASSIGNED_CONTEXT((#982,#984,#985))
REPRESENTATION_CONTEXT('','3D')
);
#981=(
GEOMETRIC_REPRESENTATION_CONTEXT(3)
GLOBAL_UNCERTAINTY_ASSIGNED_CONTEXT((#979))
GLOBAL_UNIT_ASSIGNED_CONTEXT((#982,#984,#985))
REPRESENTATION_CONTEXT('','3D')
);
#982=(
LENGTH_UNIT()
NAMED_UNIT(*)
SI_UNIT(.MILLI.,.METRE.)
);
#983=(
LENGTH_UNIT()
NAMED_UNIT(*)
SI_UNIT($,.METRE.)
);
#984=(
NAMED_UNIT(*)
PLANE_ANGLE_UNIT()
SI_UNIT($,.RADIAN.)
);
#985=(
NAMED_UNIT(*)
SI_UNIT($,.STERADIAN.)
SOLID_ANGLE_UNIT()
);
#986=SHAPE_DEFINITION_REPRESENTATION(#987,#988);
#987=PRODUCT_DEFINITION_SHAPE('',$,#990);
#988=SHAPE_REPRESENTATION('',(#578),#980);
#989=PRODUCT_DEFINITION_CONTEXT('part definition',#994,'design');
#990=PRODUCT_DEFINITION('Torque Cell Interface Bearing Retainer',
'Torque Cell Interface Bearing Retainer',#991,#989);
#991=PRODUCT_DEFINITION_FORMATION('',$,#996);
#992=PRODUCT_RELATED_PRODUCT_CATEGORY(
'Torque Cell Interface Bearing Retainer',
'Torque Cell Interface Bearing Retainer',(#996));
#993=APPLICATION_PROTOCOL_DEFINITION('international standard',
'automotive_design',2009,#994);
#994=APPLICATION_CONTEXT(
'Core Data for Automotive Mechanical Design Process');
#995=PRODUCT_CONTEXT('part definition',#994,'mechanical');
#996=PRODUCT('Torque Cell Interface Bearing Retainer',
'Torque Cell Interface Bearing Retainer',$,(#995));
#997=PRESENTATION_STYLE_ASSIGNMENT((#998));
#998=SURFACE_STYLE_USAGE(.BOTH.,#999);
#999=SURFACE_SIDE_STYLE('',(#1000));
#1000=SURFACE_STYLE_FILL_AREA(#1001);
#1001=FILL_AREA_STYLE('Steel - Satin',(#1002));
#1002=FILL_AREA_STYLE_COLOUR('Steel - Satin',#1003);
#1003=COLOUR_RGB('Steel - Satin',0.627450980392157,0.627450980392157,0.627450980392157);
ENDSEC;
END-ISO-10303-21;
