ISO-10303-21;
HEADER;
/* Generated by software containing ST-Developer
 * from STEP Tools, Inc. (www.steptools.com) 
 */

FILE_DESCRIPTION(
/* description */ (''),
/* implementation_level */ '2;1');

FILE_NAME(
/* name */ 'Torque Cell Interface Lid.step',
/* time_stamp */ '2025-05-01T08:14:20+01:00',
/* author */ (''),
/* organization */ (''),
/* preprocessor_version */ 'ST-DEVELOPER v20.1',
/* originating_system */ 'Autodesk Translation Framework v14.4.0.0',
/* authorisation */ '');

FILE_SCHEMA (('AUTOMOTIVE_DESIGN { 1 0 10303 214 3 1 1 }'));
ENDSEC;

DATA;
#10=MECHANICAL_DESIGN_GEOMETRIC_PRESENTATION_REPRESENTATION('',(#13),#783);
#11=SHAPE_REPRESENTATION_RELATIONSHIP('SRR','None',#790,#12);
#12=ADVANCED_BREP_SHAPE_REPRESENTATION('',(#14),#782);
#13=STYLED_ITEM('',(#799),#14);
#14=MANIFOLD_SOLID_BREP('Lid',#461);
#15=FACE_BOUND('',#92,.T.);
#16=FACE_BOUND('',#95,.T.);
#17=FACE_BOUND('',#100,.T.);
#18=FACE_BOUND('',#101,.T.);
#19=FACE_BOUND('',#102,.T.);
#20=FACE_BOUND('',#103,.T.);
#21=FACE_BOUND('',#104,.T.);
#22=FACE_BOUND('',#108,.T.);
#23=FACE_BOUND('',#111,.T.);
#24=FACE_BOUND('',#114,.T.);
#25=FACE_BOUND('',#120,.T.);
#26=FACE_BOUND('',#121,.T.);
#27=FACE_BOUND('',#122,.T.);
#28=FACE_BOUND('',#123,.T.);
#29=FACE_BOUND('',#124,.T.);
#30=CIRCLE('',#479,2.75);
#31=CIRCLE('',#480,2.75);
#32=CIRCLE('',#482,1.5);
#33=CIRCLE('',#484,2.75);
#34=CIRCLE('',#485,2.75);
#35=CIRCLE('',#487,1.5);
#36=CIRCLE('',#492,2.75);
#37=CIRCLE('',#493,2.75);
#38=CIRCLE('',#494,2.75);
#39=CIRCLE('',#497,2.75);
#40=CIRCLE('',#499,1.6);
#41=CIRCLE('',#501,2.75);
#42=CIRCLE('',#503,1.6);
#43=CIRCLE('',#505,2.75);
#44=CIRCLE('',#507,1.6);
#45=CIRCLE('',#509,1.6);
#46=CIRCLE('',#511,1.6);
#47=CIRCLE('',#513,1.6);
#48=CIRCLE('',#516,1.5);
#49=CIRCLE('',#517,1.5);
#50=CYLINDRICAL_SURFACE('',#478,2.75);
#51=CYLINDRICAL_SURFACE('',#483,2.75);
#52=CYLINDRICAL_SURFACE('',#496,2.75);
#53=CYLINDRICAL_SURFACE('',#500,2.75);
#54=CYLINDRICAL_SURFACE('',#504,2.75);
#55=CYLINDRICAL_SURFACE('',#508,1.6);
#56=CYLINDRICAL_SURFACE('',#510,1.6);
#57=CYLINDRICAL_SURFACE('',#512,1.6);
#58=CYLINDRICAL_SURFACE('',#518,1.5);
#59=CYLINDRICAL_SURFACE('',#519,1.5);
#60=FACE_OUTER_BOUND('',#87,.T.);
#61=FACE_OUTER_BOUND('',#88,.T.);
#62=FACE_OUTER_BOUND('',#89,.T.);
#63=FACE_OUTER_BOUND('',#90,.T.);
#64=FACE_OUTER_BOUND('',#91,.T.);
#65=FACE_OUTER_BOUND('',#93,.T.);
#66=FACE_OUTER_BOUND('',#94,.T.);
#67=FACE_OUTER_BOUND('',#96,.T.);
#68=FACE_OUTER_BOUND('',#97,.T.);
#69=FACE_OUTER_BOUND('',#98,.T.);
#70=FACE_OUTER_BOUND('',#99,.T.);
#71=FACE_OUTER_BOUND('',#105,.T.);
#72=FACE_OUTER_BOUND('',#106,.T.);
#73=FACE_OUTER_BOUND('',#107,.T.);
#74=FACE_OUTER_BOUND('',#109,.T.);
#75=FACE_OUTER_BOUND('',#110,.T.);
#76=FACE_OUTER_BOUND('',#112,.T.);
#77=FACE_OUTER_BOUND('',#113,.T.);
#78=FACE_OUTER_BOUND('',#115,.T.);
#79=FACE_OUTER_BOUND('',#116,.T.);
#80=FACE_OUTER_BOUND('',#117,.T.);
#81=FACE_OUTER_BOUND('',#118,.T.);
#82=FACE_OUTER_BOUND('',#119,.T.);
#83=FACE_OUTER_BOUND('',#125,.T.);
#84=FACE_OUTER_BOUND('',#126,.T.);
#85=FACE_OUTER_BOUND('',#127,.T.);
#86=FACE_OUTER_BOUND('',#128,.T.);
#87=EDGE_LOOP('',(#301,#302,#303,#304));
#88=EDGE_LOOP('',(#305,#306,#307,#308));
#89=EDGE_LOOP('',(#309,#310,#311,#312));
#90=EDGE_LOOP('',(#313,#314,#315,#316));
#91=EDGE_LOOP('',(#317));
#92=EDGE_LOOP('',(#318));
#93=EDGE_LOOP('',(#319,#320,#321,#322));
#94=EDGE_LOOP('',(#323));
#95=EDGE_LOOP('',(#324));
#96=EDGE_LOOP('',(#325,#326,#327,#328));
#97=EDGE_LOOP('',(#329,#330,#331,#332));
#98=EDGE_LOOP('',(#333,#334,#335,#336,#337,#338));
#99=EDGE_LOOP('',(#339,#340,#341,#342,#343,#344));
#100=EDGE_LOOP('',(#345));
#101=EDGE_LOOP('',(#346));
#102=EDGE_LOOP('',(#347));
#103=EDGE_LOOP('',(#348));
#104=EDGE_LOOP('',(#349));
#105=EDGE_LOOP('',(#350,#351,#352,#353));
#106=EDGE_LOOP('',(#354,#355,#356,#357));
#107=EDGE_LOOP('',(#358));
#108=EDGE_LOOP('',(#359));
#109=EDGE_LOOP('',(#360,#361,#362,#363));
#110=EDGE_LOOP('',(#364));
#111=EDGE_LOOP('',(#365));
#112=EDGE_LOOP('',(#366,#367,#368,#369));
#113=EDGE_LOOP('',(#370));
#114=EDGE_LOOP('',(#371));
#115=EDGE_LOOP('',(#372,#373,#374,#375));
#116=EDGE_LOOP('',(#376,#377,#378,#379));
#117=EDGE_LOOP('',(#380,#381,#382,#383));
#118=EDGE_LOOP('',(#384,#385,#386,#387));
#119=EDGE_LOOP('',(#388,#389,#390,#391,#392,#393));
#120=EDGE_LOOP('',(#394));
#121=EDGE_LOOP('',(#395));
#122=EDGE_LOOP('',(#396));
#123=EDGE_LOOP('',(#397));
#124=EDGE_LOOP('',(#398));
#125=EDGE_LOOP('',(#399,#400,#401,#402));
#126=EDGE_LOOP('',(#403,#404,#405,#406));
#127=EDGE_LOOP('',(#407,#408,#409,#410));
#128=EDGE_LOOP('',(#411,#412,#413,#414,#415,#416));
#129=LINE('',#660,#167);
#130=LINE('',#662,#168);
#131=LINE('',#664,#169);
#132=LINE('',#665,#170);
#133=LINE('',#668,#171);
#134=LINE('',#670,#172);
#135=LINE('',#671,#173);
#136=LINE('',#674,#174);
#137=LINE('',#676,#175);
#138=LINE('',#677,#176);
#139=LINE('',#682,#177);
#140=LINE('',#691,#178);
#141=LINE('',#698,#179);
#142=LINE('',#699,#180);
#143=LINE('',#702,#181);
#144=LINE('',#704,#182);
#145=LINE('',#705,#183);
#146=LINE('',#708,#184);
#147=LINE('',#710,#185);
#148=LINE('',#712,#186);
#149=LINE('',#714,#187);
#150=LINE('',#715,#188);
#151=LINE('',#718,#189);
#152=LINE('',#719,#190);
#153=LINE('',#728,#191);
#154=LINE('',#729,#192);
#155=LINE('',#732,#193);
#156=LINE('',#739,#194);
#157=LINE('',#746,#195);
#158=LINE('',#754,#196);
#159=LINE('',#758,#197);
#160=LINE('',#762,#198);
#161=LINE('',#764,#199);
#162=LINE('',#767,#200);
#163=LINE('',#768,#201);
#164=LINE('',#774,#202);
#165=LINE('',#776,#203);
#166=LINE('',#778,#204);
#167=VECTOR('',#526,10.);
#168=VECTOR('',#527,10.);
#169=VECTOR('',#528,10.);
#170=VECTOR('',#529,10.);
#171=VECTOR('',#532,10.);
#172=VECTOR('',#533,10.);
#173=VECTOR('',#534,10.);
#174=VECTOR('',#537,10.);
#175=VECTOR('',#538,10.);
#176=VECTOR('',#539,10.);
#177=VECTOR('',#544,2.75);
#178=VECTOR('',#555,2.75);
#179=VECTOR('',#564,10.);
#180=VECTOR('',#565,10.);
#181=VECTOR('',#568,10.);
#182=VECTOR('',#569,10.);
#183=VECTOR('',#570,10.);
#184=VECTOR('',#573,10.);
#185=VECTOR('',#574,10.);
#186=VECTOR('',#575,10.);
#187=VECTOR('',#576,10.);
#188=VECTOR('',#577,10.);
#189=VECTOR('',#580,10.);
#190=VECTOR('',#581,10.);
#191=VECTOR('',#590,10.);
#192=VECTOR('',#591,10.);
#193=VECTOR('',#594,2.75);
#194=VECTOR('',#603,2.75);
#195=VECTOR('',#612,2.75);
#196=VECTOR('',#623,1.6);
#197=VECTOR('',#628,1.6);
#198=VECTOR('',#633,1.6);
#199=VECTOR('',#636,10.);
#200=VECTOR('',#639,10.);
#201=VECTOR('',#640,10.);
#202=VECTOR('',#647,1.5);
#203=VECTOR('',#650,1.5);
#204=VECTOR('',#653,10.);
#205=VERTEX_POINT('',#658);
#206=VERTEX_POINT('',#659);
#207=VERTEX_POINT('',#661);
#208=VERTEX_POINT('',#663);
#209=VERTEX_POINT('',#667);
#210=VERTEX_POINT('',#669);
#211=VERTEX_POINT('',#673);
#212=VERTEX_POINT('',#675);
#213=VERTEX_POINT('',#679);
#214=VERTEX_POINT('',#681);
#215=VERTEX_POINT('',#685);
#216=VERTEX_POINT('',#688);
#217=VERTEX_POINT('',#690);
#218=VERTEX_POINT('',#694);
#219=VERTEX_POINT('',#697);
#220=VERTEX_POINT('',#701);
#221=VERTEX_POINT('',#703);
#222=VERTEX_POINT('',#707);
#223=VERTEX_POINT('',#709);
#224=VERTEX_POINT('',#711);
#225=VERTEX_POINT('',#713);
#226=VERTEX_POINT('',#717);
#227=VERTEX_POINT('',#720);
#228=VERTEX_POINT('',#722);
#229=VERTEX_POINT('',#724);
#230=VERTEX_POINT('',#727);
#231=VERTEX_POINT('',#731);
#232=VERTEX_POINT('',#735);
#233=VERTEX_POINT('',#738);
#234=VERTEX_POINT('',#742);
#235=VERTEX_POINT('',#745);
#236=VERTEX_POINT('',#749);
#237=VERTEX_POINT('',#752);
#238=VERTEX_POINT('',#756);
#239=VERTEX_POINT('',#760);
#240=VERTEX_POINT('',#766);
#241=VERTEX_POINT('',#769);
#242=VERTEX_POINT('',#771);
#243=EDGE_CURVE('',#205,#206,#129,.T.);
#244=EDGE_CURVE('',#206,#207,#130,.T.);
#245=EDGE_CURVE('',#207,#208,#131,.T.);
#246=EDGE_CURVE('',#208,#205,#132,.T.);
#247=EDGE_CURVE('',#209,#208,#133,.T.);
#248=EDGE_CURVE('',#209,#210,#134,.T.);
#249=EDGE_CURVE('',#210,#205,#135,.T.);
#250=EDGE_CURVE('',#207,#211,#136,.T.);
#251=EDGE_CURVE('',#211,#212,#137,.T.);
#252=EDGE_CURVE('',#212,#208,#138,.T.);
#253=EDGE_CURVE('',#213,#213,#30,.T.);
#254=EDGE_CURVE('',#213,#214,#139,.T.);
#255=EDGE_CURVE('',#214,#214,#31,.T.);
#256=EDGE_CURVE('',#215,#215,#32,.T.);
#257=EDGE_CURVE('',#216,#216,#33,.T.);
#258=EDGE_CURVE('',#216,#217,#140,.T.);
#259=EDGE_CURVE('',#217,#217,#34,.T.);
#260=EDGE_CURVE('',#218,#218,#35,.T.);
#261=EDGE_CURVE('',#212,#219,#141,.T.);
#262=EDGE_CURVE('',#219,#209,#142,.T.);
#263=EDGE_CURVE('',#211,#220,#143,.T.);
#264=EDGE_CURVE('',#220,#221,#144,.T.);
#265=EDGE_CURVE('',#221,#212,#145,.T.);
#266=EDGE_CURVE('',#222,#220,#146,.T.);
#267=EDGE_CURVE('',#223,#222,#147,.T.);
#268=EDGE_CURVE('',#224,#223,#148,.T.);
#269=EDGE_CURVE('',#225,#224,#149,.T.);
#270=EDGE_CURVE('',#221,#225,#150,.T.);
#271=EDGE_CURVE('',#206,#226,#151,.T.);
#272=EDGE_CURVE('',#222,#226,#152,.T.);
#273=EDGE_CURVE('',#227,#227,#36,.T.);
#274=EDGE_CURVE('',#228,#228,#37,.T.);
#275=EDGE_CURVE('',#229,#229,#38,.T.);
#276=EDGE_CURVE('',#226,#230,#153,.T.);
#277=EDGE_CURVE('',#230,#223,#154,.T.);
#278=EDGE_CURVE('',#227,#231,#155,.T.);
#279=EDGE_CURVE('',#231,#231,#39,.T.);
#280=EDGE_CURVE('',#232,#232,#40,.T.);
#281=EDGE_CURVE('',#228,#233,#156,.T.);
#282=EDGE_CURVE('',#233,#233,#41,.T.);
#283=EDGE_CURVE('',#234,#234,#42,.T.);
#284=EDGE_CURVE('',#229,#235,#157,.T.);
#285=EDGE_CURVE('',#235,#235,#43,.T.);
#286=EDGE_CURVE('',#236,#236,#44,.T.);
#287=EDGE_CURVE('',#237,#237,#45,.T.);
#288=EDGE_CURVE('',#237,#232,#158,.T.);
#289=EDGE_CURVE('',#238,#238,#46,.T.);
#290=EDGE_CURVE('',#238,#234,#159,.T.);
#291=EDGE_CURVE('',#239,#239,#47,.T.);
#292=EDGE_CURVE('',#239,#236,#160,.T.);
#293=EDGE_CURVE('',#225,#219,#161,.T.);
#294=EDGE_CURVE('',#240,#224,#162,.T.);
#295=EDGE_CURVE('',#210,#240,#163,.T.);
#296=EDGE_CURVE('',#241,#241,#48,.T.);
#297=EDGE_CURVE('',#242,#242,#49,.T.);
#298=EDGE_CURVE('',#215,#241,#164,.T.);
#299=EDGE_CURVE('',#218,#242,#165,.T.);
#300=EDGE_CURVE('',#240,#230,#166,.T.);
#301=ORIENTED_EDGE('',*,*,#243,.T.);
#302=ORIENTED_EDGE('',*,*,#244,.T.);
#303=ORIENTED_EDGE('',*,*,#245,.T.);
#304=ORIENTED_EDGE('',*,*,#246,.T.);
#305=ORIENTED_EDGE('',*,*,#246,.F.);
#306=ORIENTED_EDGE('',*,*,#247,.F.);
#307=ORIENTED_EDGE('',*,*,#248,.T.);
#308=ORIENTED_EDGE('',*,*,#249,.T.);
#309=ORIENTED_EDGE('',*,*,#245,.F.);
#310=ORIENTED_EDGE('',*,*,#250,.T.);
#311=ORIENTED_EDGE('',*,*,#251,.T.);
#312=ORIENTED_EDGE('',*,*,#252,.T.);
#313=ORIENTED_EDGE('',*,*,#253,.F.);
#314=ORIENTED_EDGE('',*,*,#254,.T.);
#315=ORIENTED_EDGE('',*,*,#255,.T.);
#316=ORIENTED_EDGE('',*,*,#254,.F.);
#317=ORIENTED_EDGE('',*,*,#255,.F.);
#318=ORIENTED_EDGE('',*,*,#256,.F.);
#319=ORIENTED_EDGE('',*,*,#257,.F.);
#320=ORIENTED_EDGE('',*,*,#258,.T.);
#321=ORIENTED_EDGE('',*,*,#259,.T.);
#322=ORIENTED_EDGE('',*,*,#258,.F.);
#323=ORIENTED_EDGE('',*,*,#259,.F.);
#324=ORIENTED_EDGE('',*,*,#260,.F.);
#325=ORIENTED_EDGE('',*,*,#252,.F.);
#326=ORIENTED_EDGE('',*,*,#261,.T.);
#327=ORIENTED_EDGE('',*,*,#262,.T.);
#328=ORIENTED_EDGE('',*,*,#247,.T.);
#329=ORIENTED_EDGE('',*,*,#251,.F.);
#330=ORIENTED_EDGE('',*,*,#263,.T.);
#331=ORIENTED_EDGE('',*,*,#264,.T.);
#332=ORIENTED_EDGE('',*,*,#265,.T.);
#333=ORIENTED_EDGE('',*,*,#264,.F.);
#334=ORIENTED_EDGE('',*,*,#266,.F.);
#335=ORIENTED_EDGE('',*,*,#267,.F.);
#336=ORIENTED_EDGE('',*,*,#268,.F.);
#337=ORIENTED_EDGE('',*,*,#269,.F.);
#338=ORIENTED_EDGE('',*,*,#270,.F.);
#339=ORIENTED_EDGE('',*,*,#244,.F.);
#340=ORIENTED_EDGE('',*,*,#271,.T.);
#341=ORIENTED_EDGE('',*,*,#272,.F.);
#342=ORIENTED_EDGE('',*,*,#266,.T.);
#343=ORIENTED_EDGE('',*,*,#263,.F.);
#344=ORIENTED_EDGE('',*,*,#250,.F.);
#345=ORIENTED_EDGE('',*,*,#253,.T.);
#346=ORIENTED_EDGE('',*,*,#257,.T.);
#347=ORIENTED_EDGE('',*,*,#273,.T.);
#348=ORIENTED_EDGE('',*,*,#274,.T.);
#349=ORIENTED_EDGE('',*,*,#275,.T.);
#350=ORIENTED_EDGE('',*,*,#267,.T.);
#351=ORIENTED_EDGE('',*,*,#272,.T.);
#352=ORIENTED_EDGE('',*,*,#276,.T.);
#353=ORIENTED_EDGE('',*,*,#277,.T.);
#354=ORIENTED_EDGE('',*,*,#273,.F.);
#355=ORIENTED_EDGE('',*,*,#278,.T.);
#356=ORIENTED_EDGE('',*,*,#279,.T.);
#357=ORIENTED_EDGE('',*,*,#278,.F.);
#358=ORIENTED_EDGE('',*,*,#279,.F.);
#359=ORIENTED_EDGE('',*,*,#280,.F.);
#360=ORIENTED_EDGE('',*,*,#274,.F.);
#361=ORIENTED_EDGE('',*,*,#281,.T.);
#362=ORIENTED_EDGE('',*,*,#282,.T.);
#363=ORIENTED_EDGE('',*,*,#281,.F.);
#364=ORIENTED_EDGE('',*,*,#282,.F.);
#365=ORIENTED_EDGE('',*,*,#283,.F.);
#366=ORIENTED_EDGE('',*,*,#275,.F.);
#367=ORIENTED_EDGE('',*,*,#284,.T.);
#368=ORIENTED_EDGE('',*,*,#285,.T.);
#369=ORIENTED_EDGE('',*,*,#284,.F.);
#370=ORIENTED_EDGE('',*,*,#285,.F.);
#371=ORIENTED_EDGE('',*,*,#286,.F.);
#372=ORIENTED_EDGE('',*,*,#287,.F.);
#373=ORIENTED_EDGE('',*,*,#288,.T.);
#374=ORIENTED_EDGE('',*,*,#280,.T.);
#375=ORIENTED_EDGE('',*,*,#288,.F.);
#376=ORIENTED_EDGE('',*,*,#289,.F.);
#377=ORIENTED_EDGE('',*,*,#290,.T.);
#378=ORIENTED_EDGE('',*,*,#283,.T.);
#379=ORIENTED_EDGE('',*,*,#290,.F.);
#380=ORIENTED_EDGE('',*,*,#291,.F.);
#381=ORIENTED_EDGE('',*,*,#292,.T.);
#382=ORIENTED_EDGE('',*,*,#286,.T.);
#383=ORIENTED_EDGE('',*,*,#292,.F.);
#384=ORIENTED_EDGE('',*,*,#265,.F.);
#385=ORIENTED_EDGE('',*,*,#270,.T.);
#386=ORIENTED_EDGE('',*,*,#293,.T.);
#387=ORIENTED_EDGE('',*,*,#261,.F.);
#388=ORIENTED_EDGE('',*,*,#269,.T.);
#389=ORIENTED_EDGE('',*,*,#294,.F.);
#390=ORIENTED_EDGE('',*,*,#295,.F.);
#391=ORIENTED_EDGE('',*,*,#248,.F.);
#392=ORIENTED_EDGE('',*,*,#262,.F.);
#393=ORIENTED_EDGE('',*,*,#293,.F.);
#394=ORIENTED_EDGE('',*,*,#287,.T.);
#395=ORIENTED_EDGE('',*,*,#289,.T.);
#396=ORIENTED_EDGE('',*,*,#291,.T.);
#397=ORIENTED_EDGE('',*,*,#296,.F.);
#398=ORIENTED_EDGE('',*,*,#297,.F.);
#399=ORIENTED_EDGE('',*,*,#256,.T.);
#400=ORIENTED_EDGE('',*,*,#298,.T.);
#401=ORIENTED_EDGE('',*,*,#296,.T.);
#402=ORIENTED_EDGE('',*,*,#298,.F.);
#403=ORIENTED_EDGE('',*,*,#260,.T.);
#404=ORIENTED_EDGE('',*,*,#299,.T.);
#405=ORIENTED_EDGE('',*,*,#297,.T.);
#406=ORIENTED_EDGE('',*,*,#299,.F.);
#407=ORIENTED_EDGE('',*,*,#277,.F.);
#408=ORIENTED_EDGE('',*,*,#300,.F.);
#409=ORIENTED_EDGE('',*,*,#294,.T.);
#410=ORIENTED_EDGE('',*,*,#268,.T.);
#411=ORIENTED_EDGE('',*,*,#243,.F.);
#412=ORIENTED_EDGE('',*,*,#249,.F.);
#413=ORIENTED_EDGE('',*,*,#295,.T.);
#414=ORIENTED_EDGE('',*,*,#300,.T.);
#415=ORIENTED_EDGE('',*,*,#276,.F.);
#416=ORIENTED_EDGE('',*,*,#271,.F.);
#417=PLANE('',#475);
#418=PLANE('',#476);
#419=PLANE('',#477);
#420=PLANE('',#481);
#421=PLANE('',#486);
#422=PLANE('',#488);
#423=PLANE('',#489);
#424=PLANE('',#490);
#425=PLANE('',#491);
#426=PLANE('',#495);
#427=PLANE('',#498);
#428=PLANE('',#502);
#429=PLANE('',#506);
#430=PLANE('',#514);
#431=PLANE('',#515);
#432=PLANE('',#520);
#433=PLANE('',#521);
#434=ADVANCED_FACE('',(#60),#417,.T.);
#435=ADVANCED_FACE('',(#61),#418,.T.);
#436=ADVANCED_FACE('',(#62),#419,.T.);
#437=ADVANCED_FACE('',(#63),#50,.F.);
#438=ADVANCED_FACE('',(#64,#15),#420,.T.);
#439=ADVANCED_FACE('',(#65),#51,.F.);
#440=ADVANCED_FACE('',(#66,#16),#421,.T.);
#441=ADVANCED_FACE('',(#67),#422,.T.);
#442=ADVANCED_FACE('',(#68),#423,.T.);
#443=ADVANCED_FACE('',(#69),#424,.F.);
#444=ADVANCED_FACE('',(#70,#17,#18,#19,#20,#21),#425,.T.);
#445=ADVANCED_FACE('',(#71),#426,.T.);
#446=ADVANCED_FACE('',(#72),#52,.F.);
#447=ADVANCED_FACE('',(#73,#22),#427,.T.);
#448=ADVANCED_FACE('',(#74),#53,.F.);
#449=ADVANCED_FACE('',(#75,#23),#428,.T.);
#450=ADVANCED_FACE('',(#76),#54,.F.);
#451=ADVANCED_FACE('',(#77,#24),#429,.T.);
#452=ADVANCED_FACE('',(#78),#55,.F.);
#453=ADVANCED_FACE('',(#79),#56,.F.);
#454=ADVANCED_FACE('',(#80),#57,.F.);
#455=ADVANCED_FACE('',(#81),#430,.T.);
#456=ADVANCED_FACE('',(#82,#25,#26,#27,#28,#29),#431,.F.);
#457=ADVANCED_FACE('',(#83),#58,.F.);
#458=ADVANCED_FACE('',(#84),#59,.F.);
#459=ADVANCED_FACE('',(#85),#432,.T.);
#460=ADVANCED_FACE('',(#86),#433,.T.);
#461=CLOSED_SHELL('',(#434,#435,#436,#437,#438,#439,#440,#441,#442,#443,
#444,#445,#446,#447,#448,#449,#450,#451,#452,#453,#454,#455,#456,#457,#458,
#459,#460));
#462=DERIVED_UNIT_ELEMENT(#464,1.);
#463=DERIVED_UNIT_ELEMENT(#785,-3.);
#464=(
MASS_UNIT()
NAMED_UNIT(*)
SI_UNIT(.KILO.,.GRAM.)
);
#465=DERIVED_UNIT((#462,#463));
#466=MEASURE_REPRESENTATION_ITEM('density measure',
POSITIVE_RATIO_MEASURE(7850.),#465);
#467=PROPERTY_DEFINITION_REPRESENTATION(#472,#469);
#468=PROPERTY_DEFINITION_REPRESENTATION(#473,#470);
#469=REPRESENTATION('material name',(#471),#782);
#470=REPRESENTATION('density',(#466),#782);
#471=DESCRIPTIVE_REPRESENTATION_ITEM('Steel','Steel');
#472=PROPERTY_DEFINITION('material property','material name',#792);
#473=PROPERTY_DEFINITION('material property','density of part',#792);
#474=AXIS2_PLACEMENT_3D('',#656,#522,#523);
#475=AXIS2_PLACEMENT_3D('',#657,#524,#525);
#476=AXIS2_PLACEMENT_3D('',#666,#530,#531);
#477=AXIS2_PLACEMENT_3D('',#672,#535,#536);
#478=AXIS2_PLACEMENT_3D('',#678,#540,#541);
#479=AXIS2_PLACEMENT_3D('',#680,#542,#543);
#480=AXIS2_PLACEMENT_3D('',#683,#545,#546);
#481=AXIS2_PLACEMENT_3D('',#684,#547,#548);
#482=AXIS2_PLACEMENT_3D('',#686,#549,#550);
#483=AXIS2_PLACEMENT_3D('',#687,#551,#552);
#484=AXIS2_PLACEMENT_3D('',#689,#553,#554);
#485=AXIS2_PLACEMENT_3D('',#692,#556,#557);
#486=AXIS2_PLACEMENT_3D('',#693,#558,#559);
#487=AXIS2_PLACEMENT_3D('',#695,#560,#561);
#488=AXIS2_PLACEMENT_3D('',#696,#562,#563);
#489=AXIS2_PLACEMENT_3D('',#700,#566,#567);
#490=AXIS2_PLACEMENT_3D('',#706,#571,#572);
#491=AXIS2_PLACEMENT_3D('',#716,#578,#579);
#492=AXIS2_PLACEMENT_3D('',#721,#582,#583);
#493=AXIS2_PLACEMENT_3D('',#723,#584,#585);
#494=AXIS2_PLACEMENT_3D('',#725,#586,#587);
#495=AXIS2_PLACEMENT_3D('',#726,#588,#589);
#496=AXIS2_PLACEMENT_3D('',#730,#592,#593);
#497=AXIS2_PLACEMENT_3D('',#733,#595,#596);
#498=AXIS2_PLACEMENT_3D('',#734,#597,#598);
#499=AXIS2_PLACEMENT_3D('',#736,#599,#600);
#500=AXIS2_PLACEMENT_3D('',#737,#601,#602);
#501=AXIS2_PLACEMENT_3D('',#740,#604,#605);
#502=AXIS2_PLACEMENT_3D('',#741,#606,#607);
#503=AXIS2_PLACEMENT_3D('',#743,#608,#609);
#504=AXIS2_PLACEMENT_3D('',#744,#610,#611);
#505=AXIS2_PLACEMENT_3D('',#747,#613,#614);
#506=AXIS2_PLACEMENT_3D('',#748,#615,#616);
#507=AXIS2_PLACEMENT_3D('',#750,#617,#618);
#508=AXIS2_PLACEMENT_3D('',#751,#619,#620);
#509=AXIS2_PLACEMENT_3D('',#753,#621,#622);
#510=AXIS2_PLACEMENT_3D('',#755,#624,#625);
#511=AXIS2_PLACEMENT_3D('',#757,#626,#627);
#512=AXIS2_PLACEMENT_3D('',#759,#629,#630);
#513=AXIS2_PLACEMENT_3D('',#761,#631,#632);
#514=AXIS2_PLACEMENT_3D('',#763,#634,#635);
#515=AXIS2_PLACEMENT_3D('',#765,#637,#638);
#516=AXIS2_PLACEMENT_3D('',#770,#641,#642);
#517=AXIS2_PLACEMENT_3D('',#772,#643,#644);
#518=AXIS2_PLACEMENT_3D('',#773,#645,#646);
#519=AXIS2_PLACEMENT_3D('',#775,#648,#649);
#520=AXIS2_PLACEMENT_3D('',#777,#651,#652);
#521=AXIS2_PLACEMENT_3D('',#779,#654,#655);
#522=DIRECTION('axis',(0.,0.,1.));
#523=DIRECTION('refdir',(1.,0.,0.));
#524=DIRECTION('center_axis',(1.52827389552738E-13,-0.970142500145332,-0.242535625036334));
#525=DIRECTION('ref_axis',(0.,0.242535625036334,-0.970142500145332));
#526=DIRECTION('',(-0.235702260395465,0.235702260395485,-0.942809041582084));
#527=DIRECTION('',(1.,1.54522856895996E-13,1.20320420293751E-14));
#528=DIRECTION('',(0.519592068221878,-0.207225946967296,0.828903787869508));
#529=DIRECTION('',(-1.,-1.54522856895996E-13,-1.20320420293751E-14));
#530=DIRECTION('center_axis',(1.54522856895996E-13,-1.,1.99627442684267E-27));
#531=DIRECTION('ref_axis',(-1.,-1.54522856895996E-13,-1.20320420293751E-14));
#532=DIRECTION('',(1.29189588320018E-14,0.,-1.));
#533=DIRECTION('',(-1.,-1.54522856895996E-13,-1.20320420293751E-14));
#534=DIRECTION('',(1.29189588320018E-14,0.,-1.));
#535=DIRECTION('center_axis',(0.392998112522037,-0.803462807822565,-0.447213595499953));
#536=DIRECTION('ref_axis',(-0.75117137352679,0.,-0.660107239464828));
#537=DIRECTION('',(0.898298727842053,0.439385247314187,1.08352726339918E-14));
#538=DIRECTION('',(0.593203555893476,-0.150088319141097,0.790938074524634));
#539=DIRECTION('',(-0.898298727842053,-0.439385247314187,-1.08352726339918E-14));
#540=DIRECTION('center_axis',(-1.01506105108586E-14,0.,1.));
#541=DIRECTION('ref_axis',(-1.,0.,-1.01506105108586E-14));
#542=DIRECTION('center_axis',(-1.20320420293751E-14,-6.12323372860135E-17,
1.));
#543=DIRECTION('ref_axis',(-1.,0.,-1.01506105108586E-14));
#544=DIRECTION('',(-1.01506105108586E-14,0.,1.));
#545=DIRECTION('center_axis',(-1.20320420293751E-14,-6.12323372860135E-17,
1.));
#546=DIRECTION('ref_axis',(-1.,0.,-1.20320420293751E-14));
#547=DIRECTION('center_axis',(1.20320420293751E-14,6.12323372860135E-17,
-1.));
#548=DIRECTION('ref_axis',(-1.,0.,-1.20320420293751E-14));
#549=DIRECTION('center_axis',(1.20320420293751E-14,6.12323372860135E-17,
-1.));
#550=DIRECTION('ref_axis',(-1.,-1.5099032909037E-13,-1.29189588320018E-14));
#551=DIRECTION('center_axis',(-1.01506105108586E-14,0.,1.));
#552=DIRECTION('ref_axis',(-1.,0.,-1.01506105108586E-14));
#553=DIRECTION('center_axis',(-1.20320420293751E-14,-6.12323372860135E-17,
1.));
#554=DIRECTION('ref_axis',(-1.,0.,-1.01506105108586E-14));
#555=DIRECTION('',(-1.01506105108586E-14,0.,1.));
#556=DIRECTION('center_axis',(-1.20320420293751E-14,-6.12323372860135E-17,
1.));
#557=DIRECTION('ref_axis',(-1.,0.,-1.20320420293751E-14));
#558=DIRECTION('center_axis',(1.20320420293751E-14,6.12323372860135E-17,
-1.));
#559=DIRECTION('ref_axis',(-1.,0.,-1.20320420293751E-14));
#560=DIRECTION('center_axis',(1.20320420293751E-14,6.12323372860135E-17,
-1.));
#561=DIRECTION('ref_axis',(-1.,-1.5099032909037E-13,-1.29189588320018E-14));
#562=DIRECTION('center_axis',(0.439385247314187,-0.898298727842053,5.67639992144092E-15));
#563=DIRECTION('ref_axis',(-0.898298727842053,-0.439385247314187,-1.08352726339918E-14));
#564=DIRECTION('',(-1.23572649697409E-14,0.,1.));
#565=DIRECTION('',(-0.898298727842053,-0.439385247314187,-1.08352726339918E-14));
#566=DIRECTION('center_axis',(0.800000000000009,9.51285207429246E-14,-0.599999999999988));
#567=DIRECTION('ref_axis',(-0.599999999999988,0.,-0.800000000000009));
#568=DIRECTION('',(-1.18864726675691E-13,1.,6.12323372845833E-17));
#569=DIRECTION('',(0.599999999999988,0.,0.800000000000009));
#570=DIRECTION('',(1.18864726675691E-13,-1.,-6.12323372845833E-17));
#571=DIRECTION('center_axis',(0.,-1.,0.));
#572=DIRECTION('ref_axis',(1.,0.,1.20320420293751E-14));
#573=DIRECTION('',(1.,0.,1.20320420293751E-14));
#574=DIRECTION('',(0.600000000000011,0.,-0.799999999999991));
#575=DIRECTION('',(1.29189588320018E-14,0.,-1.));
#576=DIRECTION('',(-1.,0.,-1.20320420293751E-14));
#577=DIRECTION('',(-1.29189588320018E-14,0.,1.));
#578=DIRECTION('center_axis',(1.20320420293751E-14,6.12323372860135E-17,
-1.));
#579=DIRECTION('ref_axis',(-1.,-1.5099032909037E-13,-1.20320420293751E-14));
#580=DIRECTION('',(-0.707106781186536,0.707106781186559,-8.4646407095697E-15));
#581=DIRECTION('',(4.39049877080902E-14,-1.,-6.12323372854852E-17));
#582=DIRECTION('center_axis',(-1.20320420293751E-14,-6.12323372860135E-17,
1.));
#583=DIRECTION('ref_axis',(1.,0.,0.));
#584=DIRECTION('center_axis',(-1.20320420293751E-14,-6.12323372860135E-17,
1.));
#585=DIRECTION('ref_axis',(1.,0.,0.));
#586=DIRECTION('center_axis',(-1.20320420293751E-14,-6.12323372860135E-17,
1.));
#587=DIRECTION('ref_axis',(1.,0.,0.));
#588=DIRECTION('center_axis',(-0.799999999999992,-3.50872507641005E-14,
-0.600000000000011));
#589=DIRECTION('ref_axis',(-0.600000000000011,0.,0.799999999999991));
#590=DIRECTION('',(-0.514495755427542,0.51449575542755,0.685994340570006));
#591=DIRECTION('',(-4.39049877080902E-14,1.,6.12323372854852E-17));
#592=DIRECTION('center_axis',(0.,0.,1.));
#593=DIRECTION('ref_axis',(1.,0.,0.));
#594=DIRECTION('',(0.,0.,1.));
#595=DIRECTION('center_axis',(0.,0.,1.));
#596=DIRECTION('ref_axis',(1.,0.,0.));
#597=DIRECTION('center_axis',(0.,0.,-1.));
#598=DIRECTION('ref_axis',(1.,0.,0.));
#599=DIRECTION('center_axis',(0.,0.,-1.));
#600=DIRECTION('ref_axis',(1.,0.,0.));
#601=DIRECTION('center_axis',(0.,0.,1.));
#602=DIRECTION('ref_axis',(1.,0.,0.));
#603=DIRECTION('',(0.,0.,1.));
#604=DIRECTION('center_axis',(0.,0.,1.));
#605=DIRECTION('ref_axis',(1.,0.,0.));
#606=DIRECTION('center_axis',(0.,0.,-1.));
#607=DIRECTION('ref_axis',(1.,0.,0.));
#608=DIRECTION('center_axis',(0.,0.,-1.));
#609=DIRECTION('ref_axis',(1.,0.,0.));
#610=DIRECTION('center_axis',(0.,0.,1.));
#611=DIRECTION('ref_axis',(1.,0.,0.));
#612=DIRECTION('',(0.,0.,1.));
#613=DIRECTION('center_axis',(0.,0.,1.));
#614=DIRECTION('ref_axis',(1.,0.,0.));
#615=DIRECTION('center_axis',(0.,0.,-1.));
#616=DIRECTION('ref_axis',(1.,0.,0.));
#617=DIRECTION('center_axis',(0.,0.,-1.));
#618=DIRECTION('ref_axis',(1.,0.,0.));
#619=DIRECTION('center_axis',(0.,0.,-1.));
#620=DIRECTION('ref_axis',(1.,0.,0.));
#621=DIRECTION('center_axis',(1.20320420293751E-14,6.12323372860135E-17,
-1.));
#622=DIRECTION('ref_axis',(1.,0.,0.));
#623=DIRECTION('',(0.,0.,-1.));
#624=DIRECTION('center_axis',(0.,0.,-1.));
#625=DIRECTION('ref_axis',(1.,0.,0.));
#626=DIRECTION('center_axis',(1.20320420293751E-14,6.12323372860135E-17,
-1.));
#627=DIRECTION('ref_axis',(1.,0.,0.));
#628=DIRECTION('',(0.,0.,-1.));
#629=DIRECTION('center_axis',(0.,0.,-1.));
#630=DIRECTION('ref_axis',(1.,0.,0.));
#631=DIRECTION('center_axis',(1.20320420293751E-14,6.12323372860135E-17,
-1.));
#632=DIRECTION('ref_axis',(1.,0.,0.));
#633=DIRECTION('',(0.,0.,-1.));
#634=DIRECTION('center_axis',(1.,1.18864726675691E-13,1.29189588320018E-14));
#635=DIRECTION('ref_axis',(1.18864726675691E-13,-1.,-6.12323372845833E-17));
#636=DIRECTION('',(1.18864726675691E-13,-1.,-6.12323372845833E-17));
#637=DIRECTION('center_axis',(1.20320420293751E-14,6.12323372860135E-17,
-1.));
#638=DIRECTION('ref_axis',(-1.,0.,-1.20320420293751E-14));
#639=DIRECTION('',(-4.39049877080902E-14,1.,6.12323372854852E-17));
#640=DIRECTION('',(-0.707106781186536,0.707106781186559,-8.4646407095697E-15));
#641=DIRECTION('center_axis',(-1.20320420293751E-14,-6.12323372860135E-17,
1.));
#642=DIRECTION('ref_axis',(-1.,-1.5099032909037E-13,-1.29189588320018E-14));
#643=DIRECTION('center_axis',(-1.20320420293751E-14,-6.12323372860135E-17,
1.));
#644=DIRECTION('ref_axis',(-1.,-1.5099032909037E-13,-1.29189588320018E-14));
#645=DIRECTION('center_axis',(1.29189588320018E-14,0.,-1.));
#646=DIRECTION('ref_axis',(-1.,-1.5099032909037E-13,-1.29189588320018E-14));
#647=DIRECTION('',(-1.29189588320018E-14,0.,1.));
#648=DIRECTION('center_axis',(1.29189588320018E-14,0.,-1.));
#649=DIRECTION('ref_axis',(-1.,-1.5099032909037E-13,-1.29189588320018E-14));
#650=DIRECTION('',(-1.29189588320018E-14,0.,1.));
#651=DIRECTION('center_axis',(-1.,-4.39049877080902E-14,-1.29189588320018E-14));
#652=DIRECTION('ref_axis',(-4.39049877080902E-14,1.,6.12323372854852E-17));
#653=DIRECTION('',(1.29189588320018E-14,0.,-1.));
#654=DIRECTION('center_axis',(-0.707106781186559,-0.707106781186536,-9.13508339597848E-15));
#655=DIRECTION('ref_axis',(-0.707106781186536,0.707106781186559,-8.4646407095697E-15));
#656=CARTESIAN_POINT('',(0.,0.,0.));
#657=CARTESIAN_POINT('Origin',(147.149999999999,46.4999999999997,-6.49999999999993));
#658=CARTESIAN_POINT('',(133.949999999998,45.9999999999977,-4.50000000000009));
#659=CARTESIAN_POINT('',(132.949999999998,46.9999999999975,-8.5000000000001));
#660=CARTESIAN_POINT('',(134.24722222222,45.7027777777756,-3.3111111111115));
#661=CARTESIAN_POINT('',(149.042630262639,47.,-8.49999999999991));
#662=CARTESIAN_POINT('',(147.149999999999,46.9999999999997,-8.49999999999993));
#663=CARTESIAN_POINT('',(151.55,46.0000000000004,-4.49999999999988));
#664=CARTESIAN_POINT('',(150.32391819562,46.4889912269864,-6.45596490794462));
#665=CARTESIAN_POINT('',(147.149999999999,45.9999999999997,-4.49999999999993));
#666=CARTESIAN_POINT('Origin',(151.55,46.0000000000004,-2.99999999999988));
#667=CARTESIAN_POINT('',(151.55,46.0000000000004,-2.99999999999988));
#668=CARTESIAN_POINT('',(151.55,46.0000000000004,-2.99999999999988));
#669=CARTESIAN_POINT('',(133.949999999998,45.9999999999977,-3.00000000000009));
#670=CARTESIAN_POINT('',(147.15,45.9999999999997,-2.99999999999993));
#671=CARTESIAN_POINT('',(133.949999999998,45.9999999999977,-3.00000000000009));
#672=CARTESIAN_POINT('Origin',(154.459198983784,48.5361931887063,-6.49999999999984));
#673=CARTESIAN_POINT('',(157.749999999998,51.2590395454486,-8.4999999999998));
#674=CARTESIAN_POINT('',(154.01981373647,49.4344919165484,-8.49999999999985));
#675=CARTESIAN_POINT('',(160.749999999998,50.500000000001,-4.49999999999977));
#676=CARTESIAN_POINT('',(157.950691805152,51.2082618732622,-8.23241092646086));
#677=CARTESIAN_POINT('',(154.898584231098,47.6378944608642,-4.49999999999984));
#678=CARTESIAN_POINT('Origin',(145.749999999998,50.5000000000001,-8.49999999999995));
#679=CARTESIAN_POINT('',(148.499999999998,50.5000000000001,-8.49999999999992));
#680=CARTESIAN_POINT('Origin',(145.749999999998,50.5000000000001,-8.49999999999996));
#681=CARTESIAN_POINT('',(148.499999999998,50.5000000000001,-4.99999999999992));
#682=CARTESIAN_POINT('',(148.499999999998,50.5000000000001,-8.49999999999992));
#683=CARTESIAN_POINT('Origin',(145.749999999998,50.5000000000001,-4.99999999999995));
#684=CARTESIAN_POINT('Origin',(145.749999999998,50.5000000000001,-4.99999999999995));
#685=CARTESIAN_POINT('',(147.249999999998,50.5000000000001,-4.99999999999993));
#686=CARTESIAN_POINT('Origin',(145.749999999998,50.5000000000001,-4.99999999999995));
#687=CARTESIAN_POINT('Origin',(139.749999999998,50.4999999999999,-8.50000000000002));
#688=CARTESIAN_POINT('',(142.499999999998,50.4999999999999,-8.49999999999999));
#689=CARTESIAN_POINT('Origin',(139.749999999998,50.4999999999999,-8.50000000000002));
#690=CARTESIAN_POINT('',(142.499999999998,50.4999999999999,-4.99999999999999));
#691=CARTESIAN_POINT('',(142.499999999998,50.4999999999999,-8.49999999999999));
#692=CARTESIAN_POINT('Origin',(139.749999999998,50.4999999999999,-5.00000000000002));
#693=CARTESIAN_POINT('Origin',(139.749999999998,50.4999999999999,-5.00000000000002));
#694=CARTESIAN_POINT('',(141.249999999998,50.4999999999999,-5.));
#695=CARTESIAN_POINT('Origin',(139.749999999998,50.4999999999999,-5.00000000000002));
#696=CARTESIAN_POINT('Origin',(160.749999999998,50.500000000001,-2.99999999999977));
#697=CARTESIAN_POINT('',(160.749999999998,50.500000000001,-2.99999999999977));
#698=CARTESIAN_POINT('',(160.749999999998,50.500000000001,-2.99999999999977));
#699=CARTESIAN_POINT('',(154.898584231098,47.6378944608643,-2.99999999999984));
#700=CARTESIAN_POINT('Origin',(159.249999999997,63.4750000000033,-6.49999999999979));
#701=CARTESIAN_POINT('',(157.749999999996,66.1000000000045,-8.4999999999998));
#702=CARTESIAN_POINT('',(157.749999999997,63.4750000000032,-8.4999999999998));
#703=CARTESIAN_POINT('',(160.749999999996,66.1000000000045,-4.49999999999977));
#704=CARTESIAN_POINT('',(152.559999999997,66.1000000000045,-15.4199999999996));
#705=CARTESIAN_POINT('',(160.749999999996,63.4750000000035,-4.49999999999977));
#706=CARTESIAN_POINT('Origin',(124.749999999997,66.1000000000045,-8.5000000000002));
#707=CARTESIAN_POINT('',(127.749999999997,66.1000000000045,-8.50000000000017));
#708=CARTESIAN_POINT('',(133.749999999997,66.1000000000045,-8.50000000000009));
#709=CARTESIAN_POINT('',(124.749999999997,66.1000000000045,-4.5000000000002));
#710=CARTESIAN_POINT('',(126.459999999997,66.1000000000045,-6.78000000000027));
#711=CARTESIAN_POINT('',(124.749999999997,66.1000000000045,-3.0000000000002));
#712=CARTESIAN_POINT('',(124.749999999997,66.1000000000045,-5.7500000000002));
#713=CARTESIAN_POINT('',(160.749999999996,66.1000000000045,-2.99999999999977));
#714=CARTESIAN_POINT('',(133.749999999997,66.1000000000045,-3.00000000000009));
#715=CARTESIAN_POINT('',(160.749999999996,66.1000000000045,-5.74999999999975));
#716=CARTESIAN_POINT('Origin',(142.749999999997,57.6500000000004,-8.49999999999999));
#717=CARTESIAN_POINT('',(127.749999999998,52.1999999999982,-8.50000000000017));
#718=CARTESIAN_POINT('',(133.949999999998,45.9999999999977,-8.50000000000009));
#719=CARTESIAN_POINT('',(127.749999999998,56.4249999999991,-8.50000000000017));
#720=CARTESIAN_POINT('',(150.499999999998,53.8000000000022,-8.50000000000171));
#721=CARTESIAN_POINT('Origin',(153.249999999998,53.8000000000022,-8.49999999999999));
#722=CARTESIAN_POINT('',(139.999999999996,62.5,-8.50000000000171));
#723=CARTESIAN_POINT('Origin',(142.749999999996,62.5,-8.49999999999999));
#724=CARTESIAN_POINT('',(128.599999999998,53.7999999999989,-8.50000000000171));
#725=CARTESIAN_POINT('Origin',(131.349999999998,53.7999999999989,-8.49999999999999));
#726=CARTESIAN_POINT('Origin',(126.249999999998,56.4249999999991,-6.50000000000018));
#727=CARTESIAN_POINT('',(124.749999999998,55.1999999999984,-4.5000000000002));
#728=CARTESIAN_POINT('',(127.309926470586,52.6400735294099,-7.91323529411787));
#729=CARTESIAN_POINT('',(124.749999999998,56.424999999999,-4.5000000000002));
#730=CARTESIAN_POINT('Origin',(153.249999999998,53.8000000000022,-8.50000000000171));
#731=CARTESIAN_POINT('',(150.499999999998,53.8000000000022,-5.00000000000171));
#732=CARTESIAN_POINT('',(150.499999999998,53.8000000000022,-8.50000000000171));
#733=CARTESIAN_POINT('Origin',(153.249999999998,53.8000000000022,-5.00000000000171));
#734=CARTESIAN_POINT('Origin',(153.249999999998,53.8000000000022,-5.00000000000171));
#735=CARTESIAN_POINT('',(151.649999999998,53.8000000000022,-5.00000000000171));
#736=CARTESIAN_POINT('Origin',(153.249999999998,53.8000000000022,-5.00000000000171));
#737=CARTESIAN_POINT('Origin',(142.749999999996,62.5,-8.50000000000171));
#738=CARTESIAN_POINT('',(139.999999999996,62.5,-5.00000000000171));
#739=CARTESIAN_POINT('',(139.999999999996,62.5,-8.50000000000171));
#740=CARTESIAN_POINT('Origin',(142.749999999996,62.5,-5.00000000000171));
#741=CARTESIAN_POINT('Origin',(142.749999999996,62.5,-5.00000000000171));
#742=CARTESIAN_POINT('',(141.149999999996,62.5,-5.00000000000171));
#743=CARTESIAN_POINT('Origin',(142.749999999996,62.5,-5.00000000000171));
#744=CARTESIAN_POINT('Origin',(131.349999999998,53.7999999999989,-8.50000000000171));
#745=CARTESIAN_POINT('',(128.599999999998,53.7999999999989,-5.00000000000171));
#746=CARTESIAN_POINT('',(128.599999999998,53.7999999999989,-8.50000000000171));
#747=CARTESIAN_POINT('Origin',(131.349999999998,53.7999999999989,-5.00000000000171));
#748=CARTESIAN_POINT('Origin',(131.349999999998,53.7999999999989,-5.00000000000171));
#749=CARTESIAN_POINT('',(129.749999999998,53.7999999999989,-5.00000000000171));
#750=CARTESIAN_POINT('Origin',(131.349999999998,53.7999999999989,-5.00000000000171));
#751=CARTESIAN_POINT('Origin',(153.249999999998,53.8000000000022,-3.00000000000171));
#752=CARTESIAN_POINT('',(151.649999999998,53.8000000000022,-3.00000000000171));
#753=CARTESIAN_POINT('Origin',(153.249999999998,53.8000000000022,-2.99999999999998));
#754=CARTESIAN_POINT('',(151.649999999998,53.8000000000022,-3.00000000000171));
#755=CARTESIAN_POINT('Origin',(142.749999999996,62.5,-3.00000000000171));
#756=CARTESIAN_POINT('',(141.149999999996,62.5,-3.00000000000171));
#757=CARTESIAN_POINT('Origin',(142.749999999996,62.5,-2.99999999999998));
#758=CARTESIAN_POINT('',(141.149999999996,62.5,-3.00000000000171));
#759=CARTESIAN_POINT('Origin',(131.349999999998,53.7999999999989,-3.00000000000171));
#760=CARTESIAN_POINT('',(129.749999999998,53.7999999999989,-3.00000000000171));
#761=CARTESIAN_POINT('Origin',(131.349999999998,53.7999999999989,-2.99999999999998));
#762=CARTESIAN_POINT('',(129.749999999998,53.7999999999989,-3.00000000000171));
#763=CARTESIAN_POINT('Origin',(160.749999999996,69.3000000000045,-2.99999999999977));
#764=CARTESIAN_POINT('',(160.749999999996,63.4750000000039,-2.99999999999977));
#765=CARTESIAN_POINT('Origin',(142.749999999997,57.6500000000011,-2.99999999999998));
#766=CARTESIAN_POINT('',(124.749999999998,55.1999999999984,-3.0000000000002));
#767=CARTESIAN_POINT('',(124.749999999998,56.4249999999994,-3.0000000000002));
#768=CARTESIAN_POINT('',(133.237499999997,46.7124999999988,-3.0000000000001));
#769=CARTESIAN_POINT('',(147.249999999998,50.5000000000004,-2.99999999999993));
#770=CARTESIAN_POINT('Origin',(145.749999999998,50.5000000000001,-2.99999999999995));
#771=CARTESIAN_POINT('',(141.249999999998,50.5000000000001,-3.));
#772=CARTESIAN_POINT('Origin',(139.749999999998,50.4999999999999,-3.00000000000002));
#773=CARTESIAN_POINT('Origin',(145.749999999998,50.5000000000001,-2.99999999999995));
#774=CARTESIAN_POINT('',(147.249999999998,50.5000000000004,-2.99999999999993));
#775=CARTESIAN_POINT('Origin',(139.749999999998,50.4999999999999,-3.00000000000002));
#776=CARTESIAN_POINT('',(141.249999999998,50.5000000000001,-3.));
#777=CARTESIAN_POINT('Origin',(124.749999999998,55.1999999999984,-3.0000000000002));
#778=CARTESIAN_POINT('',(124.749999999998,55.1999999999984,-3.0000000000002));
#779=CARTESIAN_POINT('Origin',(133.949999999998,45.9999999999977,-3.00000000000009));
#780=UNCERTAINTY_MEASURE_WITH_UNIT(LENGTH_MEASURE(0.01),#784,
'DISTANCE_ACCURACY_VALUE',
'Maximum model space distance between geometric entities at asserted c
onnectivities');
#781=UNCERTAINTY_MEASURE_WITH_UNIT(LENGTH_MEASURE(0.01),#784,
'DISTANCE_ACCURACY_VALUE',
'Maximum model space distance between geometric entities at asserted c
onnectivities');
#782=(
GEOMETRIC_REPRESENTATION_CONTEXT(3)
GLOBAL_UNCERTAINTY_ASSIGNED_CONTEXT((#780))
GLOBAL_UNIT_ASSIGNED_CONTEXT((#784,#786,#787))
REPRESENTATION_CONTEXT('','3D')
);
#783=(
GEOMETRIC_REPRESENTATION_CONTEXT(3)
GLOBAL_UNCERTAINTY_ASSIGNED_CONTEXT((#781))
GLOBAL_UNIT_ASSIGNED_CONTEXT((#784,#786,#787))
REPRESENTATION_CONTEXT('','3D')
);
#784=(
LENGTH_UNIT()
NAMED_UNIT(*)
SI_UNIT(.MILLI.,.METRE.)
);
#785=(
LENGTH_UNIT()
NAMED_UNIT(*)
SI_UNIT($,.METRE.)
);
#786=(
NAMED_UNIT(*)
PLANE_ANGLE_UNIT()
SI_UNIT($,.RADIAN.)
);
#787=(
NAMED_UNIT(*)
SI_UNIT($,.STERADIAN.)
SOLID_ANGLE_UNIT()
);
#788=SHAPE_DEFINITION_REPRESENTATION(#789,#790);
#789=PRODUCT_DEFINITION_SHAPE('',$,#792);
#790=SHAPE_REPRESENTATION('',(#474),#782);
#791=PRODUCT_DEFINITION_CONTEXT('part definition',#796,'design');
#792=PRODUCT_DEFINITION('Torque Cell Interface Lid',
'Torque Cell Interface Lid',#793,#791);
#793=PRODUCT_DEFINITION_FORMATION('',$,#798);
#794=PRODUCT_RELATED_PRODUCT_CATEGORY('Torque Cell Interface Lid',
'Torque Cell Interface Lid',(#798));
#795=APPLICATION_PROTOCOL_DEFINITION('international standard',
'automotive_design',2009,#796);
#796=APPLICATION_CONTEXT(
'Core Data for Automotive Mechanical Design Process');
#797=PRODUCT_CONTEXT('part definition',#796,'mechanical');
#798=PRODUCT('Torque Cell Interface Lid','Torque Cell Interface Lid',$,
(#797));
#799=PRESENTATION_STYLE_ASSIGNMENT((#800));
#800=SURFACE_STYLE_USAGE(.BOTH.,#801);
#801=SURFACE_SIDE_STYLE('',(#802));
#802=SURFACE_STYLE_FILL_AREA(#803);
#803=FILL_AREA_STYLE('Steel - Satin',(#804));
#804=FILL_AREA_STYLE_COLOUR('Steel - Satin',#805);
#805=COLOUR_RGB('Steel - Satin',0.627450980392157,0.627450980392157,0.627450980392157);
ENDSEC;
END-ISO-10303-21;
