ISO-10303-21;
HEADER;
/* Generated by software containing ST-Developer
 * from STEP Tools, Inc. (www.steptools.com) 
 */

FILE_DESCRIPTION(
/* description */ (''),
/* implementation_level */ '2;1');

FILE_NAME(
/* name */ 'Torque Cell Interface Case.step',
/* time_stamp */ '2025-05-01T08:14:50+01:00',
/* author */ (''),
/* organization */ (''),
/* preprocessor_version */ 'ST-DEVELOPER v20.1',
/* originating_system */ 'Autodesk Translation Framework v14.4.0.0',
/* authorisation */ '');

FILE_SCHEMA (('AUTOMOTIVE_DESIGN { 1 0 10303 214 3 1 1 }'));
ENDSEC;

DATA;
#10=MECHANICAL_DESIGN_GEOMETRIC_PRESENTATION_REPRESENTATION('',(#13),#1769);
#11=SHAPE_REPRESENTATION_RELATIONSHIP('SRR','None',#1776,#12);
#12=ADVANCED_BREP_SHAPE_REPRESENTATION('',(#14),#1768);
#13=STYLED_ITEM('',(#1785),#14);
#14=MANIFOLD_SOLID_BREP('Case',#1043);
#15=FACE_BOUND('',#130,.T.);
#16=FACE_BOUND('',#135,.T.);
#17=FACE_BOUND('',#136,.T.);
#18=FACE_BOUND('',#140,.T.);
#19=FACE_BOUND('',#141,.T.);
#20=FACE_BOUND('',#151,.T.);
#21=FACE_BOUND('',#153,.T.);
#22=FACE_BOUND('',#154,.T.);
#23=FACE_BOUND('',#155,.T.);
#24=FACE_BOUND('',#156,.T.);
#25=FACE_BOUND('',#157,.T.);
#26=FACE_BOUND('',#165,.T.);
#27=FACE_BOUND('',#197,.T.);
#28=FACE_BOUND('',#199,.T.);
#29=PLANE('',#1060);
#30=PLANE('',#1061);
#31=PLANE('',#1066);
#32=PLANE('',#1070);
#33=PLANE('',#1074);
#34=PLANE('',#1077);
#35=PLANE('',#1080);
#36=PLANE('',#1081);
#37=PLANE('',#1082);
#38=PLANE('',#1092);
#39=PLANE('',#1096);
#40=PLANE('',#1098);
#41=PLANE('',#1110);
#42=PLANE('',#1111);
#43=PLANE('',#1112);
#44=PLANE('',#1113);
#45=PLANE('',#1114);
#46=PLANE('',#1116);
#47=PLANE('',#1117);
#48=PLANE('',#1118);
#49=PLANE('',#1119);
#50=PLANE('',#1121);
#51=PLANE('',#1123);
#52=PLANE('',#1129);
#53=PLANE('',#1132);
#54=PLANE('',#1135);
#55=PLANE('',#1141);
#56=PLANE('',#1144);
#57=PLANE('',#1148);
#58=PLANE('',#1149);
#59=PLANE('',#1150);
#60=PLANE('',#1151);
#61=PLANE('',#1152);
#62=PLANE('',#1153);
#63=PLANE('',#1154);
#64=PLANE('',#1155);
#65=PLANE('',#1156);
#66=PLANE('',#1158);
#67=FACE_OUTER_BOUND('',#127,.T.);
#68=FACE_OUTER_BOUND('',#128,.T.);
#69=FACE_OUTER_BOUND('',#129,.T.);
#70=FACE_OUTER_BOUND('',#131,.T.);
#71=FACE_OUTER_BOUND('',#132,.T.);
#72=FACE_OUTER_BOUND('',#133,.T.);
#73=FACE_OUTER_BOUND('',#134,.T.);
#74=FACE_OUTER_BOUND('',#137,.T.);
#75=FACE_OUTER_BOUND('',#138,.T.);
#76=FACE_OUTER_BOUND('',#139,.T.);
#77=FACE_OUTER_BOUND('',#142,.T.);
#78=FACE_OUTER_BOUND('',#143,.T.);
#79=FACE_OUTER_BOUND('',#144,.T.);
#80=FACE_OUTER_BOUND('',#145,.T.);
#81=FACE_OUTER_BOUND('',#146,.T.);
#82=FACE_OUTER_BOUND('',#147,.T.);
#83=FACE_OUTER_BOUND('',#148,.T.);
#84=FACE_OUTER_BOUND('',#149,.T.);
#85=FACE_OUTER_BOUND('',#150,.T.);
#86=FACE_OUTER_BOUND('',#152,.T.);
#87=FACE_OUTER_BOUND('',#158,.T.);
#88=FACE_OUTER_BOUND('',#159,.T.);
#89=FACE_OUTER_BOUND('',#160,.T.);
#90=FACE_OUTER_BOUND('',#161,.T.);
#91=FACE_OUTER_BOUND('',#162,.T.);
#92=FACE_OUTER_BOUND('',#163,.T.);
#93=FACE_OUTER_BOUND('',#164,.T.);
#94=FACE_OUTER_BOUND('',#166,.T.);
#95=FACE_OUTER_BOUND('',#167,.T.);
#96=FACE_OUTER_BOUND('',#168,.T.);
#97=FACE_OUTER_BOUND('',#169,.T.);
#98=FACE_OUTER_BOUND('',#170,.T.);
#99=FACE_OUTER_BOUND('',#171,.T.);
#100=FACE_OUTER_BOUND('',#172,.T.);
#101=FACE_OUTER_BOUND('',#173,.T.);
#102=FACE_OUTER_BOUND('',#174,.T.);
#103=FACE_OUTER_BOUND('',#175,.T.);
#104=FACE_OUTER_BOUND('',#176,.T.);
#105=FACE_OUTER_BOUND('',#177,.T.);
#106=FACE_OUTER_BOUND('',#178,.T.);
#107=FACE_OUTER_BOUND('',#179,.T.);
#108=FACE_OUTER_BOUND('',#180,.T.);
#109=FACE_OUTER_BOUND('',#181,.T.);
#110=FACE_OUTER_BOUND('',#182,.T.);
#111=FACE_OUTER_BOUND('',#183,.T.);
#112=FACE_OUTER_BOUND('',#184,.T.);
#113=FACE_OUTER_BOUND('',#185,.T.);
#114=FACE_OUTER_BOUND('',#186,.T.);
#115=FACE_OUTER_BOUND('',#187,.T.);
#116=FACE_OUTER_BOUND('',#188,.T.);
#117=FACE_OUTER_BOUND('',#189,.T.);
#118=FACE_OUTER_BOUND('',#190,.T.);
#119=FACE_OUTER_BOUND('',#191,.T.);
#120=FACE_OUTER_BOUND('',#192,.T.);
#121=FACE_OUTER_BOUND('',#193,.T.);
#122=FACE_OUTER_BOUND('',#194,.T.);
#123=FACE_OUTER_BOUND('',#195,.T.);
#124=FACE_OUTER_BOUND('',#196,.T.);
#125=FACE_OUTER_BOUND('',#198,.T.);
#126=FACE_OUTER_BOUND('',#200,.T.);
#127=EDGE_LOOP('',(#677,#678,#679,#680));
#128=EDGE_LOOP('',(#681,#682,#683,#684));
#129=EDGE_LOOP('',(#685,#686,#687,#688,#689,#690,#691,#692));
#130=EDGE_LOOP('',(#693));
#131=EDGE_LOOP('',(#694,#695,#696,#697));
#132=EDGE_LOOP('',(#698,#699,#700,#701));
#133=EDGE_LOOP('',(#702,#703,#704,#705));
#134=EDGE_LOOP('',(#706,#707,#708,#709,#710,#711,#712,#713,#714,#715,#716,
#717,#718,#719));
#135=EDGE_LOOP('',(#720));
#136=EDGE_LOOP('',(#721));
#137=EDGE_LOOP('',(#722,#723,#724,#725));
#138=EDGE_LOOP('',(#726,#727,#728,#729));
#139=EDGE_LOOP('',(#730,#731,#732,#733,#734,#735,#736,#737,#738,#739,#740,
#741));
#140=EDGE_LOOP('',(#742));
#141=EDGE_LOOP('',(#743));
#142=EDGE_LOOP('',(#744,#745,#746,#747));
#143=EDGE_LOOP('',(#748,#749,#750,#751,#752,#753));
#144=EDGE_LOOP('',(#754,#755,#756,#757,#758,#759,#760,#761,#762,#763));
#145=EDGE_LOOP('',(#764,#765,#766,#767));
#146=EDGE_LOOP('',(#768,#769,#770,#771));
#147=EDGE_LOOP('',(#772,#773,#774,#775));
#148=EDGE_LOOP('',(#776,#777,#778,#779,#780,#781,#782,#783));
#149=EDGE_LOOP('',(#784,#785,#786,#787));
#150=EDGE_LOOP('',(#788,#789,#790,#791,#792,#793,#794,#795));
#151=EDGE_LOOP('',(#796));
#152=EDGE_LOOP('',(#797,#798,#799,#800,#801,#802,#803,#804,#805,#806));
#153=EDGE_LOOP('',(#807));
#154=EDGE_LOOP('',(#808));
#155=EDGE_LOOP('',(#809));
#156=EDGE_LOOP('',(#810));
#157=EDGE_LOOP('',(#811));
#158=EDGE_LOOP('',(#812,#813,#814,#815));
#159=EDGE_LOOP('',(#816,#817,#818,#819));
#160=EDGE_LOOP('',(#820,#821,#822,#823));
#161=EDGE_LOOP('',(#824,#825,#826,#827));
#162=EDGE_LOOP('',(#828,#829,#830,#831));
#163=EDGE_LOOP('',(#832,#833,#834,#835));
#164=EDGE_LOOP('',(#836,#837,#838,#839,#840,#841,#842,#843));
#165=EDGE_LOOP('',(#844));
#166=EDGE_LOOP('',(#845,#846,#847,#848));
#167=EDGE_LOOP('',(#849,#850,#851,#852,#853,#854));
#168=EDGE_LOOP('',(#855,#856,#857,#858));
#169=EDGE_LOOP('',(#859));
#170=EDGE_LOOP('',(#860));
#171=EDGE_LOOP('',(#861));
#172=EDGE_LOOP('',(#862,#863,#864,#865));
#173=EDGE_LOOP('',(#866,#867,#868,#869));
#174=EDGE_LOOP('',(#870,#871,#872,#873));
#175=EDGE_LOOP('',(#874));
#176=EDGE_LOOP('',(#875,#876,#877,#878));
#177=EDGE_LOOP('',(#879));
#178=EDGE_LOOP('',(#880,#881,#882,#883));
#179=EDGE_LOOP('',(#884));
#180=EDGE_LOOP('',(#885,#886,#887,#888));
#181=EDGE_LOOP('',(#889,#890,#891,#892));
#182=EDGE_LOOP('',(#893,#894,#895,#896));
#183=EDGE_LOOP('',(#897,#898,#899,#900));
#184=EDGE_LOOP('',(#901));
#185=EDGE_LOOP('',(#902,#903,#904,#905));
#186=EDGE_LOOP('',(#906));
#187=EDGE_LOOP('',(#907,#908,#909,#910));
#188=EDGE_LOOP('',(#911));
#189=EDGE_LOOP('',(#912,#913,#914,#915,#916,#917));
#190=EDGE_LOOP('',(#918,#919,#920,#921,#922,#923,#924,#925));
#191=EDGE_LOOP('',(#926,#927,#928,#929));
#192=EDGE_LOOP('',(#930,#931,#932,#933));
#193=EDGE_LOOP('',(#934,#935,#936,#937));
#194=EDGE_LOOP('',(#938,#939,#940,#941));
#195=EDGE_LOOP('',(#942,#943,#944,#945));
#196=EDGE_LOOP('',(#946,#947,#948,#949,#950,#951,#952,#953));
#197=EDGE_LOOP('',(#954));
#198=EDGE_LOOP('',(#955));
#199=EDGE_LOOP('',(#956));
#200=EDGE_LOOP('',(#957,#958,#959,#960));
#201=LINE('',#1475,#299);
#202=LINE('',#1478,#300);
#203=LINE('',#1481,#301);
#204=LINE('',#1483,#302);
#205=LINE('',#1484,#303);
#206=LINE('',#1487,#304);
#207=LINE('',#1489,#305);
#208=LINE('',#1491,#306);
#209=LINE('',#1493,#307);
#210=LINE('',#1495,#308);
#211=LINE('',#1501,#309);
#212=LINE('',#1505,#310);
#213=LINE('',#1506,#311);
#214=LINE('',#1512,#312);
#215=LINE('',#1515,#313);
#216=LINE('',#1518,#314);
#217=LINE('',#1522,#315);
#218=LINE('',#1524,#316);
#219=LINE('',#1526,#317);
#220=LINE('',#1528,#318);
#221=LINE('',#1529,#319);
#222=LINE('',#1531,#320);
#223=LINE('',#1532,#321);
#224=LINE('',#1539,#322);
#225=LINE('',#1540,#323);
#226=LINE('',#1544,#324);
#227=LINE('',#1548,#325);
#228=LINE('',#1550,#326);
#229=LINE('',#1552,#327);
#230=LINE('',#1554,#328);
#231=LINE('',#1556,#329);
#232=LINE('',#1558,#330);
#233=LINE('',#1559,#331);
#234=LINE('',#1561,#332);
#235=LINE('',#1562,#333);
#236=LINE('',#1569,#334);
#237=LINE('',#1571,#335);
#238=LINE('',#1572,#336);
#239=LINE('',#1575,#337);
#240=LINE('',#1577,#338);
#241=LINE('',#1579,#339);
#242=LINE('',#1580,#340);
#243=LINE('',#1583,#341);
#244=LINE('',#1584,#342);
#245=LINE('',#1586,#343);
#246=LINE('',#1588,#344);
#247=LINE('',#1590,#345);
#248=LINE('',#1591,#346);
#249=LINE('',#1597,#347);
#250=LINE('',#1600,#348);
#251=LINE('',#1605,#349);
#252=LINE('',#1612,#350);
#253=LINE('',#1615,#351);
#254=LINE('',#1618,#352);
#255=LINE('',#1620,#353);
#256=LINE('',#1622,#354);
#257=LINE('',#1624,#355);
#258=LINE('',#1625,#356);
#259=LINE('',#1626,#357);
#260=LINE('',#1632,#358);
#261=LINE('',#1635,#359);
#262=LINE('',#1636,#360);
#263=LINE('',#1637,#361);
#264=LINE('',#1642,#362);
#265=LINE('',#1644,#363);
#266=LINE('',#1646,#364);
#267=LINE('',#1648,#365);
#268=LINE('',#1650,#366);
#269=LINE('',#1652,#367);
#270=LINE('',#1654,#368);
#271=LINE('',#1655,#369);
#272=LINE('',#1671,#370);
#273=LINE('',#1676,#371);
#274=LINE('',#1678,#372);
#275=LINE('',#1679,#373);
#276=LINE('',#1681,#374);
#277=LINE('',#1684,#375);
#278=LINE('',#1685,#376);
#279=LINE('',#1687,#377);
#280=LINE('',#1691,#378);
#281=LINE('',#1693,#379);
#282=LINE('',#1705,#380);
#283=LINE('',#1707,#381);
#284=LINE('',#1710,#382);
#285=LINE('',#1715,#383);
#286=LINE('',#1720,#384);
#287=LINE('',#1724,#385);
#288=LINE('',#1726,#386);
#289=LINE('',#1728,#387);
#290=LINE('',#1731,#388);
#291=LINE('',#1736,#389);
#292=LINE('',#1743,#390);
#293=LINE('',#1747,#391);
#294=LINE('',#1749,#392);
#295=LINE('',#1750,#393);
#296=LINE('',#1752,#394);
#297=LINE('',#1754,#395);
#298=LINE('',#1765,#396);
#299=VECTOR('',#1167,10.);
#300=VECTOR('',#1170,10.);
#301=VECTOR('',#1173,10.);
#302=VECTOR('',#1174,10.);
#303=VECTOR('',#1175,10.);
#304=VECTOR('',#1178,10.);
#305=VECTOR('',#1179,10.);
#306=VECTOR('',#1180,10.);
#307=VECTOR('',#1181,10.);
#308=VECTOR('',#1182,10.);
#309=VECTOR('',#1189,10.);
#310=VECTOR('',#1194,10.);
#311=VECTOR('',#1195,10.);
#312=VECTOR('',#1200,10.);
#313=VECTOR('',#1203,10.);
#314=VECTOR('',#1206,10.);
#315=VECTOR('',#1209,10.);
#316=VECTOR('',#1210,10.);
#317=VECTOR('',#1211,10.);
#318=VECTOR('',#1212,10.);
#319=VECTOR('',#1213,10.);
#320=VECTOR('',#1214,10.);
#321=VECTOR('',#1215,10.);
#322=VECTOR('',#1222,10.);
#323=VECTOR('',#1223,10.);
#324=VECTOR('',#1228,10.);
#325=VECTOR('',#1231,10.);
#326=VECTOR('',#1232,10.);
#327=VECTOR('',#1233,10.);
#328=VECTOR('',#1234,10.);
#329=VECTOR('',#1235,10.);
#330=VECTOR('',#1236,10.);
#331=VECTOR('',#1237,10.);
#332=VECTOR('',#1238,10.);
#333=VECTOR('',#1239,10.);
#334=VECTOR('',#1246,10.);
#335=VECTOR('',#1247,10.);
#336=VECTOR('',#1248,10.);
#337=VECTOR('',#1251,10.);
#338=VECTOR('',#1252,10.);
#339=VECTOR('',#1253,10.);
#340=VECTOR('',#1254,10.);
#341=VECTOR('',#1257,10.);
#342=VECTOR('',#1258,10.);
#343=VECTOR('',#1259,10.);
#344=VECTOR('',#1260,10.);
#345=VECTOR('',#1261,10.);
#346=VECTOR('',#1262,10.);
#347=VECTOR('',#1267,10.);
#348=VECTOR('',#1270,10.);
#349=VECTOR('',#1275,10.);
#350=VECTOR('',#1282,10.);
#351=VECTOR('',#1285,10.);
#352=VECTOR('',#1288,10.);
#353=VECTOR('',#1289,10.);
#354=VECTOR('',#1290,10.);
#355=VECTOR('',#1291,10.);
#356=VECTOR('',#1292,10.);
#357=VECTOR('',#1293,10.);
#358=VECTOR('',#1300,10.);
#359=VECTOR('',#1303,10.);
#360=VECTOR('',#1304,10.);
#361=VECTOR('',#1305,10.);
#362=VECTOR('',#1310,10.);
#363=VECTOR('',#1311,10.);
#364=VECTOR('',#1312,10.);
#365=VECTOR('',#1313,10.);
#366=VECTOR('',#1314,10.);
#367=VECTOR('',#1315,10.);
#368=VECTOR('',#1316,10.);
#369=VECTOR('',#1317,10.);
#370=VECTOR('',#1334,10.);
#371=VECTOR('',#1343,10.);
#372=VECTOR('',#1344,10.);
#373=VECTOR('',#1345,10.);
#374=VECTOR('',#1348,10.);
#375=VECTOR('',#1353,10.);
#376=VECTOR('',#1354,10.);
#377=VECTOR('',#1357,10.);
#378=VECTOR('',#1362,10.);
#379=VECTOR('',#1365,10.);
#380=VECTOR('',#1382,1.99999999999999);
#381=VECTOR('',#1385,2.00000000000001);
#382=VECTOR('',#1388,2.00000000000001);
#383=VECTOR('',#1395,1.99999999999999);
#384=VECTOR('',#1402,1.99999999999999);
#385=VECTOR('',#1409,1.6);
#386=VECTOR('',#1412,1.6);
#387=VECTOR('',#1415,1.6);
#388=VECTOR('',#1418,1.99999999999999);
#389=VECTOR('',#1425,1.99999999999999);
#390=VECTOR('',#1434,1.99999999999999);
#391=VECTOR('',#1441,10.);
#392=VECTOR('',#1444,10.);
#393=VECTOR('',#1445,10.);
#394=VECTOR('',#1448,10.);
#395=VECTOR('',#1451,10.);
#396=VECTOR('',#1468,5.8);
#397=CIRCLE('',#1058,2.);
#398=CIRCLE('',#1059,2.);
#399=CIRCLE('',#1062,2.);
#400=CIRCLE('',#1063,1.6);
#401=CIRCLE('',#1065,2.);
#402=CIRCLE('',#1068,2.);
#403=CIRCLE('',#1069,2.);
#404=CIRCLE('',#1071,2.);
#405=CIRCLE('',#1072,2.00000000000001);
#406=CIRCLE('',#1073,1.99999999999999);
#407=CIRCLE('',#1076,2.);
#408=CIRCLE('',#1078,1.6);
#409=CIRCLE('',#1079,1.6);
#410=CIRCLE('',#1084,0.5);
#411=CIRCLE('',#1085,0.5);
#412=CIRCLE('',#1087,11.6);
#413=CIRCLE('',#1088,11.6);
#414=CIRCLE('',#1090,0.5);
#415=CIRCLE('',#1091,0.5);
#416=CIRCLE('',#1094,0.5);
#417=CIRCLE('',#1095,0.5);
#418=CIRCLE('',#1097,1.99999999999999);
#419=CIRCLE('',#1099,1.99999999999999);
#420=CIRCLE('',#1100,1.99999999999999);
#421=CIRCLE('',#1101,2.00000000000001);
#422=CIRCLE('',#1102,2.00000000000001);
#423=CIRCLE('',#1103,1.99999999999999);
#424=CIRCLE('',#1105,0.5);
#425=CIRCLE('',#1106,0.5);
#426=CIRCLE('',#1108,11.6);
#427=CIRCLE('',#1109,11.6);
#428=CIRCLE('',#1115,1.99999999999999);
#429=CIRCLE('',#1120,1.6);
#430=CIRCLE('',#1122,1.6);
#431=CIRCLE('',#1124,1.6);
#432=CIRCLE('',#1128,2.00000000000001);
#433=CIRCLE('',#1131,1.99999999999999);
#434=CIRCLE('',#1134,1.99999999999999);
#435=CIRCLE('',#1140,1.99999999999999);
#436=CIRCLE('',#1143,1.99999999999999);
#437=CIRCLE('',#1146,1.99999999999999);
#438=CIRCLE('',#1147,1.99999999999999);
#439=CIRCLE('',#1157,5.8);
#440=CIRCLE('',#1159,5.8);
#441=VERTEX_POINT('',#1471);
#442=VERTEX_POINT('',#1472);
#443=VERTEX_POINT('',#1474);
#444=VERTEX_POINT('',#1476);
#445=VERTEX_POINT('',#1480);
#446=VERTEX_POINT('',#1482);
#447=VERTEX_POINT('',#1486);
#448=VERTEX_POINT('',#1488);
#449=VERTEX_POINT('',#1490);
#450=VERTEX_POINT('',#1492);
#451=VERTEX_POINT('',#1494);
#452=VERTEX_POINT('',#1497);
#453=VERTEX_POINT('',#1500);
#454=VERTEX_POINT('',#1504);
#455=VERTEX_POINT('',#1508);
#456=VERTEX_POINT('',#1509);
#457=VERTEX_POINT('',#1511);
#458=VERTEX_POINT('',#1513);
#459=VERTEX_POINT('',#1517);
#460=VERTEX_POINT('',#1519);
#461=VERTEX_POINT('',#1521);
#462=VERTEX_POINT('',#1523);
#463=VERTEX_POINT('',#1525);
#464=VERTEX_POINT('',#1527);
#465=VERTEX_POINT('',#1530);
#466=VERTEX_POINT('',#1533);
#467=VERTEX_POINT('',#1535);
#468=VERTEX_POINT('',#1538);
#469=VERTEX_POINT('',#1542);
#470=VERTEX_POINT('',#1546);
#471=VERTEX_POINT('',#1547);
#472=VERTEX_POINT('',#1549);
#473=VERTEX_POINT('',#1551);
#474=VERTEX_POINT('',#1553);
#475=VERTEX_POINT('',#1555);
#476=VERTEX_POINT('',#1557);
#477=VERTEX_POINT('',#1560);
#478=VERTEX_POINT('',#1563);
#479=VERTEX_POINT('',#1565);
#480=VERTEX_POINT('',#1568);
#481=VERTEX_POINT('',#1570);
#482=VERTEX_POINT('',#1574);
#483=VERTEX_POINT('',#1576);
#484=VERTEX_POINT('',#1578);
#485=VERTEX_POINT('',#1582);
#486=VERTEX_POINT('',#1585);
#487=VERTEX_POINT('',#1587);
#488=VERTEX_POINT('',#1589);
#489=VERTEX_POINT('',#1593);
#490=VERTEX_POINT('',#1594);
#491=VERTEX_POINT('',#1596);
#492=VERTEX_POINT('',#1598);
#493=VERTEX_POINT('',#1602);
#494=VERTEX_POINT('',#1604);
#495=VERTEX_POINT('',#1608);
#496=VERTEX_POINT('',#1609);
#497=VERTEX_POINT('',#1611);
#498=VERTEX_POINT('',#1613);
#499=VERTEX_POINT('',#1617);
#500=VERTEX_POINT('',#1619);
#501=VERTEX_POINT('',#1621);
#502=VERTEX_POINT('',#1623);
#503=VERTEX_POINT('',#1628);
#504=VERTEX_POINT('',#1630);
#505=VERTEX_POINT('',#1634);
#506=VERTEX_POINT('',#1638);
#507=VERTEX_POINT('',#1641);
#508=VERTEX_POINT('',#1643);
#509=VERTEX_POINT('',#1645);
#510=VERTEX_POINT('',#1647);
#511=VERTEX_POINT('',#1649);
#512=VERTEX_POINT('',#1651);
#513=VERTEX_POINT('',#1653);
#514=VERTEX_POINT('',#1656);
#515=VERTEX_POINT('',#1658);
#516=VERTEX_POINT('',#1660);
#517=VERTEX_POINT('',#1662);
#518=VERTEX_POINT('',#1664);
#519=VERTEX_POINT('',#1667);
#520=VERTEX_POINT('',#1669);
#521=VERTEX_POINT('',#1677);
#522=VERTEX_POINT('',#1688);
#523=VERTEX_POINT('',#1696);
#524=VERTEX_POINT('',#1699);
#525=VERTEX_POINT('',#1702);
#526=VERTEX_POINT('',#1709);
#527=VERTEX_POINT('',#1714);
#528=VERTEX_POINT('',#1719);
#529=VERTEX_POINT('',#1730);
#530=VERTEX_POINT('',#1735);
#531=VERTEX_POINT('',#1740);
#532=VERTEX_POINT('',#1742);
#533=VERTEX_POINT('',#1759);
#534=VERTEX_POINT('',#1762);
#535=EDGE_CURVE('',#441,#442,#397,.T.);
#536=EDGE_CURVE('',#442,#443,#201,.T.);
#537=EDGE_CURVE('',#443,#444,#398,.F.);
#538=EDGE_CURVE('',#444,#441,#202,.T.);
#539=EDGE_CURVE('',#442,#445,#203,.T.);
#540=EDGE_CURVE('',#446,#445,#204,.T.);
#541=EDGE_CURVE('',#446,#443,#205,.T.);
#542=EDGE_CURVE('',#447,#441,#206,.T.);
#543=EDGE_CURVE('',#448,#447,#207,.T.);
#544=EDGE_CURVE('',#449,#448,#208,.T.);
#545=EDGE_CURVE('',#450,#449,#209,.T.);
#546=EDGE_CURVE('',#451,#450,#210,.T.);
#547=EDGE_CURVE('',#445,#451,#399,.T.);
#548=EDGE_CURVE('',#452,#452,#400,.T.);
#549=EDGE_CURVE('',#451,#453,#211,.T.);
#550=EDGE_CURVE('',#453,#446,#401,.F.);
#551=EDGE_CURVE('',#454,#450,#212,.T.);
#552=EDGE_CURVE('',#454,#453,#213,.T.);
#553=EDGE_CURVE('',#455,#456,#402,.T.);
#554=EDGE_CURVE('',#455,#457,#214,.T.);
#555=EDGE_CURVE('',#457,#458,#403,.T.);
#556=EDGE_CURVE('',#458,#456,#215,.T.);
#557=EDGE_CURVE('',#459,#456,#216,.T.);
#558=EDGE_CURVE('',#459,#460,#404,.T.);
#559=EDGE_CURVE('',#461,#460,#217,.T.);
#560=EDGE_CURVE('',#462,#461,#218,.T.);
#561=EDGE_CURVE('',#463,#462,#219,.T.);
#562=EDGE_CURVE('',#464,#463,#220,.T.);
#563=EDGE_CURVE('',#444,#464,#221,.T.);
#564=EDGE_CURVE('',#465,#454,#222,.T.);
#565=EDGE_CURVE('',#455,#465,#223,.T.);
#566=EDGE_CURVE('',#466,#466,#405,.T.);
#567=EDGE_CURVE('',#467,#467,#406,.T.);
#568=EDGE_CURVE('',#458,#468,#224,.T.);
#569=EDGE_CURVE('',#459,#468,#225,.T.);
#570=EDGE_CURVE('',#468,#469,#407,.T.);
#571=EDGE_CURVE('',#469,#460,#226,.T.);
#572=EDGE_CURVE('',#470,#471,#227,.T.);
#573=EDGE_CURVE('',#472,#470,#228,.T.);
#574=EDGE_CURVE('',#473,#472,#229,.T.);
#575=EDGE_CURVE('',#474,#473,#230,.T.);
#576=EDGE_CURVE('',#475,#474,#231,.T.);
#577=EDGE_CURVE('',#476,#475,#232,.T.);
#578=EDGE_CURVE('',#469,#476,#233,.T.);
#579=EDGE_CURVE('',#477,#457,#234,.T.);
#580=EDGE_CURVE('',#471,#477,#235,.T.);
#581=EDGE_CURVE('',#478,#478,#408,.T.);
#582=EDGE_CURVE('',#479,#479,#409,.T.);
#583=EDGE_CURVE('',#472,#480,#236,.T.);
#584=EDGE_CURVE('',#481,#480,#237,.T.);
#585=EDGE_CURVE('',#481,#473,#238,.T.);
#586=EDGE_CURVE('',#470,#482,#239,.T.);
#587=EDGE_CURVE('',#483,#482,#240,.T.);
#588=EDGE_CURVE('',#484,#483,#241,.T.);
#589=EDGE_CURVE('',#480,#484,#242,.T.);
#590=EDGE_CURVE('',#485,#471,#243,.T.);
#591=EDGE_CURVE('',#477,#465,#244,.T.);
#592=EDGE_CURVE('',#486,#449,#245,.T.);
#593=EDGE_CURVE('',#487,#486,#246,.T.);
#594=EDGE_CURVE('',#488,#487,#247,.T.);
#595=EDGE_CURVE('',#485,#488,#248,.T.);
#596=EDGE_CURVE('',#489,#490,#410,.T.);
#597=EDGE_CURVE('',#490,#491,#249,.T.);
#598=EDGE_CURVE('',#491,#492,#411,.F.);
#599=EDGE_CURVE('',#492,#489,#250,.T.);
#600=EDGE_CURVE('',#493,#492,#412,.T.);
#601=EDGE_CURVE('',#494,#493,#251,.T.);
#602=EDGE_CURVE('',#489,#494,#413,.T.);
#603=EDGE_CURVE('',#495,#496,#414,.T.);
#604=EDGE_CURVE('',#496,#497,#252,.T.);
#605=EDGE_CURVE('',#497,#498,#415,.F.);
#606=EDGE_CURVE('',#498,#495,#253,.T.);
#607=EDGE_CURVE('',#499,#490,#254,.T.);
#608=EDGE_CURVE('',#500,#499,#255,.T.);
#609=EDGE_CURVE('',#500,#501,#256,.T.);
#610=EDGE_CURVE('',#502,#501,#257,.T.);
#611=EDGE_CURVE('',#495,#502,#258,.T.);
#612=EDGE_CURVE('',#498,#491,#259,.T.);
#613=EDGE_CURVE('',#503,#494,#416,.T.);
#614=EDGE_CURVE('',#493,#504,#417,.F.);
#615=EDGE_CURVE('',#504,#503,#260,.T.);
#616=EDGE_CURVE('',#503,#505,#261,.T.);
#617=EDGE_CURVE('',#484,#505,#262,.T.);
#618=EDGE_CURVE('',#499,#483,#263,.T.);
#619=EDGE_CURVE('',#506,#506,#418,.T.);
#620=EDGE_CURVE('',#504,#507,#264,.T.);
#621=EDGE_CURVE('',#508,#507,#265,.T.);
#622=EDGE_CURVE('',#509,#508,#266,.T.);
#623=EDGE_CURVE('',#510,#509,#267,.T.);
#624=EDGE_CURVE('',#510,#511,#268,.T.);
#625=EDGE_CURVE('',#512,#511,#269,.T.);
#626=EDGE_CURVE('',#513,#512,#270,.T.);
#627=EDGE_CURVE('',#505,#513,#271,.T.);
#628=EDGE_CURVE('',#514,#514,#419,.T.);
#629=EDGE_CURVE('',#515,#515,#420,.T.);
#630=EDGE_CURVE('',#516,#516,#421,.T.);
#631=EDGE_CURVE('',#517,#517,#422,.T.);
#632=EDGE_CURVE('',#518,#518,#423,.T.);
#633=EDGE_CURVE('',#519,#508,#424,.T.);
#634=EDGE_CURVE('',#507,#520,#425,.F.);
#635=EDGE_CURVE('',#520,#519,#272,.T.);
#636=EDGE_CURVE('',#519,#496,#426,.T.);
#637=EDGE_CURVE('',#497,#520,#427,.T.);
#638=EDGE_CURVE('',#481,#512,#273,.T.);
#639=EDGE_CURVE('',#511,#521,#274,.T.);
#640=EDGE_CURVE('',#521,#481,#275,.T.);
#641=EDGE_CURVE('',#480,#513,#276,.T.);
#642=EDGE_CURVE('',#509,#487,#277,.T.);
#643=EDGE_CURVE('',#486,#510,#278,.T.);
#644=EDGE_CURVE('',#488,#502,#279,.T.);
#645=EDGE_CURVE('',#522,#522,#428,.T.);
#646=EDGE_CURVE('',#482,#500,#280,.T.);
#647=EDGE_CURVE('',#501,#485,#281,.T.);
#648=EDGE_CURVE('',#523,#523,#429,.T.);
#649=EDGE_CURVE('',#524,#524,#430,.T.);
#650=EDGE_CURVE('',#525,#525,#431,.T.);
#651=EDGE_CURVE('',#467,#518,#282,.T.);
#652=EDGE_CURVE('',#466,#517,#283,.T.);
#653=EDGE_CURVE('',#516,#526,#284,.T.);
#654=EDGE_CURVE('',#526,#526,#432,.T.);
#655=EDGE_CURVE('',#515,#527,#285,.T.);
#656=EDGE_CURVE('',#527,#527,#433,.T.);
#657=EDGE_CURVE('',#514,#528,#286,.T.);
#658=EDGE_CURVE('',#528,#528,#434,.T.);
#659=EDGE_CURVE('',#478,#524,#287,.T.);
#660=EDGE_CURVE('',#479,#525,#288,.T.);
#661=EDGE_CURVE('',#452,#523,#289,.T.);
#662=EDGE_CURVE('',#506,#529,#290,.T.);
#663=EDGE_CURVE('',#529,#529,#435,.T.);
#664=EDGE_CURVE('',#522,#530,#291,.T.);
#665=EDGE_CURVE('',#530,#530,#436,.T.);
#666=EDGE_CURVE('',#531,#531,#437,.T.);
#667=EDGE_CURVE('',#531,#532,#292,.T.);
#668=EDGE_CURVE('',#532,#532,#438,.T.);
#669=EDGE_CURVE('',#521,#448,#293,.T.);
#670=EDGE_CURVE('',#447,#464,#294,.T.);
#671=EDGE_CURVE('',#463,#474,#295,.T.);
#672=EDGE_CURVE('',#475,#462,#296,.T.);
#673=EDGE_CURVE('',#476,#461,#297,.T.);
#674=EDGE_CURVE('',#533,#533,#439,.T.);
#675=EDGE_CURVE('',#534,#534,#440,.T.);
#676=EDGE_CURVE('',#534,#533,#298,.T.);
#677=ORIENTED_EDGE('',*,*,#535,.T.);
#678=ORIENTED_EDGE('',*,*,#536,.T.);
#679=ORIENTED_EDGE('',*,*,#537,.T.);
#680=ORIENTED_EDGE('',*,*,#538,.T.);
#681=ORIENTED_EDGE('',*,*,#536,.F.);
#682=ORIENTED_EDGE('',*,*,#539,.T.);
#683=ORIENTED_EDGE('',*,*,#540,.F.);
#684=ORIENTED_EDGE('',*,*,#541,.T.);
#685=ORIENTED_EDGE('',*,*,#535,.F.);
#686=ORIENTED_EDGE('',*,*,#542,.F.);
#687=ORIENTED_EDGE('',*,*,#543,.F.);
#688=ORIENTED_EDGE('',*,*,#544,.F.);
#689=ORIENTED_EDGE('',*,*,#545,.F.);
#690=ORIENTED_EDGE('',*,*,#546,.F.);
#691=ORIENTED_EDGE('',*,*,#547,.F.);
#692=ORIENTED_EDGE('',*,*,#539,.F.);
#693=ORIENTED_EDGE('',*,*,#548,.F.);
#694=ORIENTED_EDGE('',*,*,#547,.T.);
#695=ORIENTED_EDGE('',*,*,#549,.T.);
#696=ORIENTED_EDGE('',*,*,#550,.T.);
#697=ORIENTED_EDGE('',*,*,#540,.T.);
#698=ORIENTED_EDGE('',*,*,#549,.F.);
#699=ORIENTED_EDGE('',*,*,#546,.T.);
#700=ORIENTED_EDGE('',*,*,#551,.F.);
#701=ORIENTED_EDGE('',*,*,#552,.T.);
#702=ORIENTED_EDGE('',*,*,#553,.F.);
#703=ORIENTED_EDGE('',*,*,#554,.T.);
#704=ORIENTED_EDGE('',*,*,#555,.T.);
#705=ORIENTED_EDGE('',*,*,#556,.T.);
#706=ORIENTED_EDGE('',*,*,#553,.T.);
#707=ORIENTED_EDGE('',*,*,#557,.F.);
#708=ORIENTED_EDGE('',*,*,#558,.T.);
#709=ORIENTED_EDGE('',*,*,#559,.F.);
#710=ORIENTED_EDGE('',*,*,#560,.F.);
#711=ORIENTED_EDGE('',*,*,#561,.F.);
#712=ORIENTED_EDGE('',*,*,#562,.F.);
#713=ORIENTED_EDGE('',*,*,#563,.F.);
#714=ORIENTED_EDGE('',*,*,#537,.F.);
#715=ORIENTED_EDGE('',*,*,#541,.F.);
#716=ORIENTED_EDGE('',*,*,#550,.F.);
#717=ORIENTED_EDGE('',*,*,#552,.F.);
#718=ORIENTED_EDGE('',*,*,#564,.F.);
#719=ORIENTED_EDGE('',*,*,#565,.F.);
#720=ORIENTED_EDGE('',*,*,#566,.T.);
#721=ORIENTED_EDGE('',*,*,#567,.T.);
#722=ORIENTED_EDGE('',*,*,#556,.F.);
#723=ORIENTED_EDGE('',*,*,#568,.T.);
#724=ORIENTED_EDGE('',*,*,#569,.F.);
#725=ORIENTED_EDGE('',*,*,#557,.T.);
#726=ORIENTED_EDGE('',*,*,#558,.F.);
#727=ORIENTED_EDGE('',*,*,#569,.T.);
#728=ORIENTED_EDGE('',*,*,#570,.T.);
#729=ORIENTED_EDGE('',*,*,#571,.T.);
#730=ORIENTED_EDGE('',*,*,#572,.F.);
#731=ORIENTED_EDGE('',*,*,#573,.F.);
#732=ORIENTED_EDGE('',*,*,#574,.F.);
#733=ORIENTED_EDGE('',*,*,#575,.F.);
#734=ORIENTED_EDGE('',*,*,#576,.F.);
#735=ORIENTED_EDGE('',*,*,#577,.F.);
#736=ORIENTED_EDGE('',*,*,#578,.F.);
#737=ORIENTED_EDGE('',*,*,#570,.F.);
#738=ORIENTED_EDGE('',*,*,#568,.F.);
#739=ORIENTED_EDGE('',*,*,#555,.F.);
#740=ORIENTED_EDGE('',*,*,#579,.F.);
#741=ORIENTED_EDGE('',*,*,#580,.F.);
#742=ORIENTED_EDGE('',*,*,#581,.F.);
#743=ORIENTED_EDGE('',*,*,#582,.F.);
#744=ORIENTED_EDGE('',*,*,#574,.T.);
#745=ORIENTED_EDGE('',*,*,#583,.T.);
#746=ORIENTED_EDGE('',*,*,#584,.F.);
#747=ORIENTED_EDGE('',*,*,#585,.T.);
#748=ORIENTED_EDGE('',*,*,#573,.T.);
#749=ORIENTED_EDGE('',*,*,#586,.T.);
#750=ORIENTED_EDGE('',*,*,#587,.F.);
#751=ORIENTED_EDGE('',*,*,#588,.F.);
#752=ORIENTED_EDGE('',*,*,#589,.F.);
#753=ORIENTED_EDGE('',*,*,#583,.F.);
#754=ORIENTED_EDGE('',*,*,#590,.T.);
#755=ORIENTED_EDGE('',*,*,#580,.T.);
#756=ORIENTED_EDGE('',*,*,#591,.T.);
#757=ORIENTED_EDGE('',*,*,#564,.T.);
#758=ORIENTED_EDGE('',*,*,#551,.T.);
#759=ORIENTED_EDGE('',*,*,#545,.T.);
#760=ORIENTED_EDGE('',*,*,#592,.F.);
#761=ORIENTED_EDGE('',*,*,#593,.F.);
#762=ORIENTED_EDGE('',*,*,#594,.F.);
#763=ORIENTED_EDGE('',*,*,#595,.F.);
#764=ORIENTED_EDGE('',*,*,#596,.T.);
#765=ORIENTED_EDGE('',*,*,#597,.T.);
#766=ORIENTED_EDGE('',*,*,#598,.T.);
#767=ORIENTED_EDGE('',*,*,#599,.T.);
#768=ORIENTED_EDGE('',*,*,#599,.F.);
#769=ORIENTED_EDGE('',*,*,#600,.F.);
#770=ORIENTED_EDGE('',*,*,#601,.F.);
#771=ORIENTED_EDGE('',*,*,#602,.F.);
#772=ORIENTED_EDGE('',*,*,#603,.T.);
#773=ORIENTED_EDGE('',*,*,#604,.T.);
#774=ORIENTED_EDGE('',*,*,#605,.T.);
#775=ORIENTED_EDGE('',*,*,#606,.T.);
#776=ORIENTED_EDGE('',*,*,#597,.F.);
#777=ORIENTED_EDGE('',*,*,#607,.F.);
#778=ORIENTED_EDGE('',*,*,#608,.F.);
#779=ORIENTED_EDGE('',*,*,#609,.T.);
#780=ORIENTED_EDGE('',*,*,#610,.F.);
#781=ORIENTED_EDGE('',*,*,#611,.F.);
#782=ORIENTED_EDGE('',*,*,#606,.F.);
#783=ORIENTED_EDGE('',*,*,#612,.T.);
#784=ORIENTED_EDGE('',*,*,#613,.T.);
#785=ORIENTED_EDGE('',*,*,#601,.T.);
#786=ORIENTED_EDGE('',*,*,#614,.T.);
#787=ORIENTED_EDGE('',*,*,#615,.T.);
#788=ORIENTED_EDGE('',*,*,#596,.F.);
#789=ORIENTED_EDGE('',*,*,#602,.T.);
#790=ORIENTED_EDGE('',*,*,#613,.F.);
#791=ORIENTED_EDGE('',*,*,#616,.T.);
#792=ORIENTED_EDGE('',*,*,#617,.F.);
#793=ORIENTED_EDGE('',*,*,#588,.T.);
#794=ORIENTED_EDGE('',*,*,#618,.F.);
#795=ORIENTED_EDGE('',*,*,#607,.T.);
#796=ORIENTED_EDGE('',*,*,#619,.T.);
#797=ORIENTED_EDGE('',*,*,#615,.F.);
#798=ORIENTED_EDGE('',*,*,#620,.T.);
#799=ORIENTED_EDGE('',*,*,#621,.F.);
#800=ORIENTED_EDGE('',*,*,#622,.F.);
#801=ORIENTED_EDGE('',*,*,#623,.F.);
#802=ORIENTED_EDGE('',*,*,#624,.T.);
#803=ORIENTED_EDGE('',*,*,#625,.F.);
#804=ORIENTED_EDGE('',*,*,#626,.F.);
#805=ORIENTED_EDGE('',*,*,#627,.F.);
#806=ORIENTED_EDGE('',*,*,#616,.F.);
#807=ORIENTED_EDGE('',*,*,#628,.T.);
#808=ORIENTED_EDGE('',*,*,#629,.T.);
#809=ORIENTED_EDGE('',*,*,#630,.T.);
#810=ORIENTED_EDGE('',*,*,#631,.T.);
#811=ORIENTED_EDGE('',*,*,#632,.T.);
#812=ORIENTED_EDGE('',*,*,#633,.T.);
#813=ORIENTED_EDGE('',*,*,#621,.T.);
#814=ORIENTED_EDGE('',*,*,#634,.T.);
#815=ORIENTED_EDGE('',*,*,#635,.T.);
#816=ORIENTED_EDGE('',*,*,#604,.F.);
#817=ORIENTED_EDGE('',*,*,#636,.F.);
#818=ORIENTED_EDGE('',*,*,#635,.F.);
#819=ORIENTED_EDGE('',*,*,#637,.F.);
#820=ORIENTED_EDGE('',*,*,#638,.T.);
#821=ORIENTED_EDGE('',*,*,#625,.T.);
#822=ORIENTED_EDGE('',*,*,#639,.T.);
#823=ORIENTED_EDGE('',*,*,#640,.T.);
#824=ORIENTED_EDGE('',*,*,#638,.F.);
#825=ORIENTED_EDGE('',*,*,#584,.T.);
#826=ORIENTED_EDGE('',*,*,#641,.T.);
#827=ORIENTED_EDGE('',*,*,#626,.T.);
#828=ORIENTED_EDGE('',*,*,#641,.F.);
#829=ORIENTED_EDGE('',*,*,#589,.T.);
#830=ORIENTED_EDGE('',*,*,#617,.T.);
#831=ORIENTED_EDGE('',*,*,#627,.T.);
#832=ORIENTED_EDGE('',*,*,#642,.T.);
#833=ORIENTED_EDGE('',*,*,#593,.T.);
#834=ORIENTED_EDGE('',*,*,#643,.T.);
#835=ORIENTED_EDGE('',*,*,#623,.T.);
#836=ORIENTED_EDGE('',*,*,#603,.F.);
#837=ORIENTED_EDGE('',*,*,#611,.T.);
#838=ORIENTED_EDGE('',*,*,#644,.F.);
#839=ORIENTED_EDGE('',*,*,#594,.T.);
#840=ORIENTED_EDGE('',*,*,#642,.F.);
#841=ORIENTED_EDGE('',*,*,#622,.T.);
#842=ORIENTED_EDGE('',*,*,#633,.F.);
#843=ORIENTED_EDGE('',*,*,#636,.T.);
#844=ORIENTED_EDGE('',*,*,#645,.T.);
#845=ORIENTED_EDGE('',*,*,#618,.T.);
#846=ORIENTED_EDGE('',*,*,#587,.T.);
#847=ORIENTED_EDGE('',*,*,#646,.T.);
#848=ORIENTED_EDGE('',*,*,#608,.T.);
#849=ORIENTED_EDGE('',*,*,#646,.F.);
#850=ORIENTED_EDGE('',*,*,#586,.F.);
#851=ORIENTED_EDGE('',*,*,#572,.T.);
#852=ORIENTED_EDGE('',*,*,#590,.F.);
#853=ORIENTED_EDGE('',*,*,#647,.F.);
#854=ORIENTED_EDGE('',*,*,#609,.F.);
#855=ORIENTED_EDGE('',*,*,#644,.T.);
#856=ORIENTED_EDGE('',*,*,#610,.T.);
#857=ORIENTED_EDGE('',*,*,#647,.T.);
#858=ORIENTED_EDGE('',*,*,#595,.T.);
#859=ORIENTED_EDGE('',*,*,#648,.F.);
#860=ORIENTED_EDGE('',*,*,#649,.F.);
#861=ORIENTED_EDGE('',*,*,#650,.F.);
#862=ORIENTED_EDGE('',*,*,#567,.F.);
#863=ORIENTED_EDGE('',*,*,#651,.T.);
#864=ORIENTED_EDGE('',*,*,#632,.F.);
#865=ORIENTED_EDGE('',*,*,#651,.F.);
#866=ORIENTED_EDGE('',*,*,#566,.F.);
#867=ORIENTED_EDGE('',*,*,#652,.T.);
#868=ORIENTED_EDGE('',*,*,#631,.F.);
#869=ORIENTED_EDGE('',*,*,#652,.F.);
#870=ORIENTED_EDGE('',*,*,#630,.F.);
#871=ORIENTED_EDGE('',*,*,#653,.T.);
#872=ORIENTED_EDGE('',*,*,#654,.T.);
#873=ORIENTED_EDGE('',*,*,#653,.F.);
#874=ORIENTED_EDGE('',*,*,#654,.F.);
#875=ORIENTED_EDGE('',*,*,#629,.F.);
#876=ORIENTED_EDGE('',*,*,#655,.T.);
#877=ORIENTED_EDGE('',*,*,#656,.T.);
#878=ORIENTED_EDGE('',*,*,#655,.F.);
#879=ORIENTED_EDGE('',*,*,#656,.F.);
#880=ORIENTED_EDGE('',*,*,#628,.F.);
#881=ORIENTED_EDGE('',*,*,#657,.T.);
#882=ORIENTED_EDGE('',*,*,#658,.T.);
#883=ORIENTED_EDGE('',*,*,#657,.F.);
#884=ORIENTED_EDGE('',*,*,#658,.F.);
#885=ORIENTED_EDGE('',*,*,#581,.T.);
#886=ORIENTED_EDGE('',*,*,#659,.T.);
#887=ORIENTED_EDGE('',*,*,#649,.T.);
#888=ORIENTED_EDGE('',*,*,#659,.F.);
#889=ORIENTED_EDGE('',*,*,#582,.T.);
#890=ORIENTED_EDGE('',*,*,#660,.T.);
#891=ORIENTED_EDGE('',*,*,#650,.T.);
#892=ORIENTED_EDGE('',*,*,#660,.F.);
#893=ORIENTED_EDGE('',*,*,#548,.T.);
#894=ORIENTED_EDGE('',*,*,#661,.T.);
#895=ORIENTED_EDGE('',*,*,#648,.T.);
#896=ORIENTED_EDGE('',*,*,#661,.F.);
#897=ORIENTED_EDGE('',*,*,#619,.F.);
#898=ORIENTED_EDGE('',*,*,#662,.T.);
#899=ORIENTED_EDGE('',*,*,#663,.T.);
#900=ORIENTED_EDGE('',*,*,#662,.F.);
#901=ORIENTED_EDGE('',*,*,#663,.F.);
#902=ORIENTED_EDGE('',*,*,#645,.F.);
#903=ORIENTED_EDGE('',*,*,#664,.T.);
#904=ORIENTED_EDGE('',*,*,#665,.T.);
#905=ORIENTED_EDGE('',*,*,#664,.F.);
#906=ORIENTED_EDGE('',*,*,#665,.F.);
#907=ORIENTED_EDGE('',*,*,#666,.F.);
#908=ORIENTED_EDGE('',*,*,#667,.T.);
#909=ORIENTED_EDGE('',*,*,#668,.T.);
#910=ORIENTED_EDGE('',*,*,#667,.F.);
#911=ORIENTED_EDGE('',*,*,#668,.F.);
#912=ORIENTED_EDGE('',*,*,#544,.T.);
#913=ORIENTED_EDGE('',*,*,#669,.F.);
#914=ORIENTED_EDGE('',*,*,#639,.F.);
#915=ORIENTED_EDGE('',*,*,#624,.F.);
#916=ORIENTED_EDGE('',*,*,#643,.F.);
#917=ORIENTED_EDGE('',*,*,#592,.T.);
#918=ORIENTED_EDGE('',*,*,#575,.T.);
#919=ORIENTED_EDGE('',*,*,#585,.F.);
#920=ORIENTED_EDGE('',*,*,#640,.F.);
#921=ORIENTED_EDGE('',*,*,#669,.T.);
#922=ORIENTED_EDGE('',*,*,#543,.T.);
#923=ORIENTED_EDGE('',*,*,#670,.T.);
#924=ORIENTED_EDGE('',*,*,#562,.T.);
#925=ORIENTED_EDGE('',*,*,#671,.T.);
#926=ORIENTED_EDGE('',*,*,#576,.T.);
#927=ORIENTED_EDGE('',*,*,#671,.F.);
#928=ORIENTED_EDGE('',*,*,#561,.T.);
#929=ORIENTED_EDGE('',*,*,#672,.F.);
#930=ORIENTED_EDGE('',*,*,#577,.T.);
#931=ORIENTED_EDGE('',*,*,#672,.T.);
#932=ORIENTED_EDGE('',*,*,#560,.T.);
#933=ORIENTED_EDGE('',*,*,#673,.F.);
#934=ORIENTED_EDGE('',*,*,#571,.F.);
#935=ORIENTED_EDGE('',*,*,#578,.T.);
#936=ORIENTED_EDGE('',*,*,#673,.T.);
#937=ORIENTED_EDGE('',*,*,#559,.T.);
#938=ORIENTED_EDGE('',*,*,#554,.F.);
#939=ORIENTED_EDGE('',*,*,#565,.T.);
#940=ORIENTED_EDGE('',*,*,#591,.F.);
#941=ORIENTED_EDGE('',*,*,#579,.T.);
#942=ORIENTED_EDGE('',*,*,#538,.F.);
#943=ORIENTED_EDGE('',*,*,#563,.T.);
#944=ORIENTED_EDGE('',*,*,#670,.F.);
#945=ORIENTED_EDGE('',*,*,#542,.T.);
#946=ORIENTED_EDGE('',*,*,#637,.T.);
#947=ORIENTED_EDGE('',*,*,#634,.F.);
#948=ORIENTED_EDGE('',*,*,#620,.F.);
#949=ORIENTED_EDGE('',*,*,#614,.F.);
#950=ORIENTED_EDGE('',*,*,#600,.T.);
#951=ORIENTED_EDGE('',*,*,#598,.F.);
#952=ORIENTED_EDGE('',*,*,#612,.F.);
#953=ORIENTED_EDGE('',*,*,#605,.F.);
#954=ORIENTED_EDGE('',*,*,#674,.T.);
#955=ORIENTED_EDGE('',*,*,#675,.T.);
#956=ORIENTED_EDGE('',*,*,#666,.T.);
#957=ORIENTED_EDGE('',*,*,#675,.F.);
#958=ORIENTED_EDGE('',*,*,#676,.T.);
#959=ORIENTED_EDGE('',*,*,#674,.F.);
#960=ORIENTED_EDGE('',*,*,#676,.F.);
#961=CYLINDRICAL_SURFACE('',#1057,2.);
#962=CYLINDRICAL_SURFACE('',#1064,2.);
#963=CYLINDRICAL_SURFACE('',#1067,2.);
#964=CYLINDRICAL_SURFACE('',#1075,2.);
#965=CYLINDRICAL_SURFACE('',#1083,0.5);
#966=CYLINDRICAL_SURFACE('',#1086,11.6);
#967=CYLINDRICAL_SURFACE('',#1089,0.5);
#968=CYLINDRICAL_SURFACE('',#1093,0.5);
#969=CYLINDRICAL_SURFACE('',#1104,0.5);
#970=CYLINDRICAL_SURFACE('',#1107,11.6);
#971=CYLINDRICAL_SURFACE('',#1125,1.99999999999999);
#972=CYLINDRICAL_SURFACE('',#1126,2.00000000000001);
#973=CYLINDRICAL_SURFACE('',#1127,2.00000000000001);
#974=CYLINDRICAL_SURFACE('',#1130,1.99999999999999);
#975=CYLINDRICAL_SURFACE('',#1133,1.99999999999999);
#976=CYLINDRICAL_SURFACE('',#1136,1.6);
#977=CYLINDRICAL_SURFACE('',#1137,1.6);
#978=CYLINDRICAL_SURFACE('',#1138,1.6);
#979=CYLINDRICAL_SURFACE('',#1139,1.99999999999999);
#980=CYLINDRICAL_SURFACE('',#1142,1.99999999999999);
#981=CYLINDRICAL_SURFACE('',#1145,1.99999999999999);
#982=CYLINDRICAL_SURFACE('',#1160,5.8);
#983=ADVANCED_FACE('',(#67),#961,.T.);
#984=ADVANCED_FACE('',(#68),#29,.F.);
#985=ADVANCED_FACE('',(#69,#15),#30,.T.);
#986=ADVANCED_FACE('',(#70),#962,.T.);
#987=ADVANCED_FACE('',(#71),#31,.F.);
#988=ADVANCED_FACE('',(#72),#963,.F.);
#989=ADVANCED_FACE('',(#73,#16,#17),#32,.F.);
#990=ADVANCED_FACE('',(#74),#33,.F.);
#991=ADVANCED_FACE('',(#75),#964,.F.);
#992=ADVANCED_FACE('',(#76,#18,#19),#34,.T.);
#993=ADVANCED_FACE('',(#77),#35,.T.);
#994=ADVANCED_FACE('',(#78),#36,.T.);
#995=ADVANCED_FACE('',(#79),#37,.T.);
#996=ADVANCED_FACE('',(#80),#965,.T.);
#997=ADVANCED_FACE('',(#81),#966,.F.);
#998=ADVANCED_FACE('',(#82),#967,.T.);
#999=ADVANCED_FACE('',(#83),#38,.T.);
#1000=ADVANCED_FACE('',(#84),#968,.T.);
#1001=ADVANCED_FACE('',(#85,#20),#39,.T.);
#1002=ADVANCED_FACE('',(#86,#21,#22,#23,#24,#25),#40,.F.);
#1003=ADVANCED_FACE('',(#87),#969,.T.);
#1004=ADVANCED_FACE('',(#88),#970,.F.);
#1005=ADVANCED_FACE('',(#89),#41,.T.);
#1006=ADVANCED_FACE('',(#90),#42,.T.);
#1007=ADVANCED_FACE('',(#91),#43,.T.);
#1008=ADVANCED_FACE('',(#92),#44,.T.);
#1009=ADVANCED_FACE('',(#93,#26),#45,.T.);
#1010=ADVANCED_FACE('',(#94),#46,.T.);
#1011=ADVANCED_FACE('',(#95),#47,.F.);
#1012=ADVANCED_FACE('',(#96),#48,.T.);
#1013=ADVANCED_FACE('',(#97),#49,.F.);
#1014=ADVANCED_FACE('',(#98),#50,.F.);
#1015=ADVANCED_FACE('',(#99),#51,.F.);
#1016=ADVANCED_FACE('',(#100),#971,.F.);
#1017=ADVANCED_FACE('',(#101),#972,.F.);
#1018=ADVANCED_FACE('',(#102),#973,.F.);
#1019=ADVANCED_FACE('',(#103),#52,.F.);
#1020=ADVANCED_FACE('',(#104),#974,.F.);
#1021=ADVANCED_FACE('',(#105),#53,.F.);
#1022=ADVANCED_FACE('',(#106),#975,.F.);
#1023=ADVANCED_FACE('',(#107),#54,.F.);
#1024=ADVANCED_FACE('',(#108),#976,.F.);
#1025=ADVANCED_FACE('',(#109),#977,.F.);
#1026=ADVANCED_FACE('',(#110),#978,.F.);
#1027=ADVANCED_FACE('',(#111),#979,.F.);
#1028=ADVANCED_FACE('',(#112),#55,.T.);
#1029=ADVANCED_FACE('',(#113),#980,.F.);
#1030=ADVANCED_FACE('',(#114),#56,.T.);
#1031=ADVANCED_FACE('',(#115),#981,.F.);
#1032=ADVANCED_FACE('',(#116),#57,.T.);
#1033=ADVANCED_FACE('',(#117),#58,.T.);
#1034=ADVANCED_FACE('',(#118),#59,.T.);
#1035=ADVANCED_FACE('',(#119),#60,.F.);
#1036=ADVANCED_FACE('',(#120),#61,.F.);
#1037=ADVANCED_FACE('',(#121),#62,.F.);
#1038=ADVANCED_FACE('',(#122),#63,.F.);
#1039=ADVANCED_FACE('',(#123),#64,.F.);
#1040=ADVANCED_FACE('',(#124,#27),#65,.T.);
#1041=ADVANCED_FACE('',(#125,#28),#66,.T.);
#1042=ADVANCED_FACE('',(#126),#982,.T.);
#1043=CLOSED_SHELL('',(#983,#984,#985,#986,#987,#988,#989,#990,#991,#992,
#993,#994,#995,#996,#997,#998,#999,#1000,#1001,#1002,#1003,#1004,#1005,
#1006,#1007,#1008,#1009,#1010,#1011,#1012,#1013,#1014,#1015,#1016,#1017,
#1018,#1019,#1020,#1021,#1022,#1023,#1024,#1025,#1026,#1027,#1028,#1029,
#1030,#1031,#1032,#1033,#1034,#1035,#1036,#1037,#1038,#1039,#1040,#1041,
#1042));
#1044=DERIVED_UNIT_ELEMENT(#1046,1.);
#1045=DERIVED_UNIT_ELEMENT(#1771,-3.);
#1046=(
MASS_UNIT()
NAMED_UNIT(*)
SI_UNIT(.KILO.,.GRAM.)
);
#1047=DERIVED_UNIT((#1044,#1045));
#1048=MEASURE_REPRESENTATION_ITEM('density measure',
POSITIVE_RATIO_MEASURE(7850.),#1047);
#1049=PROPERTY_DEFINITION_REPRESENTATION(#1054,#1051);
#1050=PROPERTY_DEFINITION_REPRESENTATION(#1055,#1052);
#1051=REPRESENTATION('material name',(#1053),#1768);
#1052=REPRESENTATION('density',(#1048),#1768);
#1053=DESCRIPTIVE_REPRESENTATION_ITEM('Steel','Steel');
#1054=PROPERTY_DEFINITION('material property','material name',#1778);
#1055=PROPERTY_DEFINITION('material property','density of part',#1778);
#1056=AXIS2_PLACEMENT_3D('',#1469,#1161,#1162);
#1057=AXIS2_PLACEMENT_3D('',#1470,#1163,#1164);
#1058=AXIS2_PLACEMENT_3D('',#1473,#1165,#1166);
#1059=AXIS2_PLACEMENT_3D('',#1477,#1168,#1169);
#1060=AXIS2_PLACEMENT_3D('',#1479,#1171,#1172);
#1061=AXIS2_PLACEMENT_3D('',#1485,#1176,#1177);
#1062=AXIS2_PLACEMENT_3D('',#1496,#1183,#1184);
#1063=AXIS2_PLACEMENT_3D('',#1498,#1185,#1186);
#1064=AXIS2_PLACEMENT_3D('',#1499,#1187,#1188);
#1065=AXIS2_PLACEMENT_3D('',#1502,#1190,#1191);
#1066=AXIS2_PLACEMENT_3D('',#1503,#1192,#1193);
#1067=AXIS2_PLACEMENT_3D('',#1507,#1196,#1197);
#1068=AXIS2_PLACEMENT_3D('',#1510,#1198,#1199);
#1069=AXIS2_PLACEMENT_3D('',#1514,#1201,#1202);
#1070=AXIS2_PLACEMENT_3D('',#1516,#1204,#1205);
#1071=AXIS2_PLACEMENT_3D('',#1520,#1207,#1208);
#1072=AXIS2_PLACEMENT_3D('',#1534,#1216,#1217);
#1073=AXIS2_PLACEMENT_3D('',#1536,#1218,#1219);
#1074=AXIS2_PLACEMENT_3D('',#1537,#1220,#1221);
#1075=AXIS2_PLACEMENT_3D('',#1541,#1224,#1225);
#1076=AXIS2_PLACEMENT_3D('',#1543,#1226,#1227);
#1077=AXIS2_PLACEMENT_3D('',#1545,#1229,#1230);
#1078=AXIS2_PLACEMENT_3D('',#1564,#1240,#1241);
#1079=AXIS2_PLACEMENT_3D('',#1566,#1242,#1243);
#1080=AXIS2_PLACEMENT_3D('',#1567,#1244,#1245);
#1081=AXIS2_PLACEMENT_3D('',#1573,#1249,#1250);
#1082=AXIS2_PLACEMENT_3D('',#1581,#1255,#1256);
#1083=AXIS2_PLACEMENT_3D('',#1592,#1263,#1264);
#1084=AXIS2_PLACEMENT_3D('',#1595,#1265,#1266);
#1085=AXIS2_PLACEMENT_3D('',#1599,#1268,#1269);
#1086=AXIS2_PLACEMENT_3D('',#1601,#1271,#1272);
#1087=AXIS2_PLACEMENT_3D('',#1603,#1273,#1274);
#1088=AXIS2_PLACEMENT_3D('',#1606,#1276,#1277);
#1089=AXIS2_PLACEMENT_3D('',#1607,#1278,#1279);
#1090=AXIS2_PLACEMENT_3D('',#1610,#1280,#1281);
#1091=AXIS2_PLACEMENT_3D('',#1614,#1283,#1284);
#1092=AXIS2_PLACEMENT_3D('',#1616,#1286,#1287);
#1093=AXIS2_PLACEMENT_3D('',#1627,#1294,#1295);
#1094=AXIS2_PLACEMENT_3D('',#1629,#1296,#1297);
#1095=AXIS2_PLACEMENT_3D('',#1631,#1298,#1299);
#1096=AXIS2_PLACEMENT_3D('',#1633,#1301,#1302);
#1097=AXIS2_PLACEMENT_3D('',#1639,#1306,#1307);
#1098=AXIS2_PLACEMENT_3D('',#1640,#1308,#1309);
#1099=AXIS2_PLACEMENT_3D('',#1657,#1318,#1319);
#1100=AXIS2_PLACEMENT_3D('',#1659,#1320,#1321);
#1101=AXIS2_PLACEMENT_3D('',#1661,#1322,#1323);
#1102=AXIS2_PLACEMENT_3D('',#1663,#1324,#1325);
#1103=AXIS2_PLACEMENT_3D('',#1665,#1326,#1327);
#1104=AXIS2_PLACEMENT_3D('',#1666,#1328,#1329);
#1105=AXIS2_PLACEMENT_3D('',#1668,#1330,#1331);
#1106=AXIS2_PLACEMENT_3D('',#1670,#1332,#1333);
#1107=AXIS2_PLACEMENT_3D('',#1672,#1335,#1336);
#1108=AXIS2_PLACEMENT_3D('',#1673,#1337,#1338);
#1109=AXIS2_PLACEMENT_3D('',#1674,#1339,#1340);
#1110=AXIS2_PLACEMENT_3D('',#1675,#1341,#1342);
#1111=AXIS2_PLACEMENT_3D('',#1680,#1346,#1347);
#1112=AXIS2_PLACEMENT_3D('',#1682,#1349,#1350);
#1113=AXIS2_PLACEMENT_3D('',#1683,#1351,#1352);
#1114=AXIS2_PLACEMENT_3D('',#1686,#1355,#1356);
#1115=AXIS2_PLACEMENT_3D('',#1689,#1358,#1359);
#1116=AXIS2_PLACEMENT_3D('',#1690,#1360,#1361);
#1117=AXIS2_PLACEMENT_3D('',#1692,#1363,#1364);
#1118=AXIS2_PLACEMENT_3D('',#1694,#1366,#1367);
#1119=AXIS2_PLACEMENT_3D('',#1695,#1368,#1369);
#1120=AXIS2_PLACEMENT_3D('',#1697,#1370,#1371);
#1121=AXIS2_PLACEMENT_3D('',#1698,#1372,#1373);
#1122=AXIS2_PLACEMENT_3D('',#1700,#1374,#1375);
#1123=AXIS2_PLACEMENT_3D('',#1701,#1376,#1377);
#1124=AXIS2_PLACEMENT_3D('',#1703,#1378,#1379);
#1125=AXIS2_PLACEMENT_3D('',#1704,#1380,#1381);
#1126=AXIS2_PLACEMENT_3D('',#1706,#1383,#1384);
#1127=AXIS2_PLACEMENT_3D('',#1708,#1386,#1387);
#1128=AXIS2_PLACEMENT_3D('',#1711,#1389,#1390);
#1129=AXIS2_PLACEMENT_3D('',#1712,#1391,#1392);
#1130=AXIS2_PLACEMENT_3D('',#1713,#1393,#1394);
#1131=AXIS2_PLACEMENT_3D('',#1716,#1396,#1397);
#1132=AXIS2_PLACEMENT_3D('',#1717,#1398,#1399);
#1133=AXIS2_PLACEMENT_3D('',#1718,#1400,#1401);
#1134=AXIS2_PLACEMENT_3D('',#1721,#1403,#1404);
#1135=AXIS2_PLACEMENT_3D('',#1722,#1405,#1406);
#1136=AXIS2_PLACEMENT_3D('',#1723,#1407,#1408);
#1137=AXIS2_PLACEMENT_3D('',#1725,#1410,#1411);
#1138=AXIS2_PLACEMENT_3D('',#1727,#1413,#1414);
#1139=AXIS2_PLACEMENT_3D('',#1729,#1416,#1417);
#1140=AXIS2_PLACEMENT_3D('',#1732,#1419,#1420);
#1141=AXIS2_PLACEMENT_3D('',#1733,#1421,#1422);
#1142=AXIS2_PLACEMENT_3D('',#1734,#1423,#1424);
#1143=AXIS2_PLACEMENT_3D('',#1737,#1426,#1427);
#1144=AXIS2_PLACEMENT_3D('',#1738,#1428,#1429);
#1145=AXIS2_PLACEMENT_3D('',#1739,#1430,#1431);
#1146=AXIS2_PLACEMENT_3D('',#1741,#1432,#1433);
#1147=AXIS2_PLACEMENT_3D('',#1744,#1435,#1436);
#1148=AXIS2_PLACEMENT_3D('',#1745,#1437,#1438);
#1149=AXIS2_PLACEMENT_3D('',#1746,#1439,#1440);
#1150=AXIS2_PLACEMENT_3D('',#1748,#1442,#1443);
#1151=AXIS2_PLACEMENT_3D('',#1751,#1446,#1447);
#1152=AXIS2_PLACEMENT_3D('',#1753,#1449,#1450);
#1153=AXIS2_PLACEMENT_3D('',#1755,#1452,#1453);
#1154=AXIS2_PLACEMENT_3D('',#1756,#1454,#1455);
#1155=AXIS2_PLACEMENT_3D('',#1757,#1456,#1457);
#1156=AXIS2_PLACEMENT_3D('',#1758,#1458,#1459);
#1157=AXIS2_PLACEMENT_3D('',#1760,#1460,#1461);
#1158=AXIS2_PLACEMENT_3D('',#1761,#1462,#1463);
#1159=AXIS2_PLACEMENT_3D('',#1763,#1464,#1465);
#1160=AXIS2_PLACEMENT_3D('',#1764,#1466,#1467);
#1161=DIRECTION('axis',(0.,0.,1.));
#1162=DIRECTION('refdir',(1.,0.,0.));
#1163=DIRECTION('center_axis',(-1.1842378929335E-14,0.,1.));
#1164=DIRECTION('ref_axis',(0.906307787036639,0.422618261740723,1.07187112418325E-14));
#1165=DIRECTION('center_axis',(-1.20320420293751E-14,-6.12323372860135E-17,
1.));
#1166=DIRECTION('ref_axis',(0.906307787036639,0.422618261740723,1.07187112418325E-14));
#1167=DIRECTION('',(-1.1842378929335E-14,0.,1.));
#1168=DIRECTION('center_axis',(-1.1842378929335E-14,0.,1.));
#1169=DIRECTION('ref_axis',(0.906307787036639,0.422618261740723,1.07187112418325E-14));
#1170=DIRECTION('',(1.1842378929335E-14,0.,-1.));
#1171=DIRECTION('center_axis',(-0.642787609686542,-0.766044443118976,-7.61213444498951E-15));
#1172=DIRECTION('ref_axis',(0.766044443118976,-0.642787609686542,9.17771954825834E-15));
#1173=DIRECTION('',(-0.766044443118976,0.642787609686542,-9.17771954825717E-15));
#1174=DIRECTION('',(1.1842378929335E-14,0.,-1.));
#1175=DIRECTION('',(0.766044443118976,-0.642787609686542,9.17771954825834E-15));
#1176=DIRECTION('center_axis',(1.20320420293751E-14,6.12323372860135E-17,
-1.));
#1177=DIRECTION('ref_axis',(-1.,0.,-1.20320420293751E-14));
#1178=DIRECTION('',(-4.44089187268951E-14,1.,6.12323372854792E-17));
#1179=DIRECTION('',(1.,1.54522856895996E-13,1.20320420293751E-14));
#1180=DIRECTION('',(0.707106781186536,-0.707106781186559,8.4646407095697E-15));
#1181=DIRECTION('',(4.39049877080902E-14,-1.,-6.12323372854852E-17));
#1182=DIRECTION('',(-1.,2.11056883077429E-15,-1.20320420293751E-14));
#1183=DIRECTION('center_axis',(-1.20320420293751E-14,-6.12323372860135E-17,
1.));
#1184=DIRECTION('ref_axis',(0.342020143325674,0.939692620785906,4.13516132853974E-15));
#1185=DIRECTION('center_axis',(1.20320420293751E-14,6.12323372860135E-17,
-1.));
#1186=DIRECTION('ref_axis',(1.,0.,0.));
#1187=DIRECTION('center_axis',(-1.1842378929335E-14,0.,1.));
#1188=DIRECTION('ref_axis',(0.342020143325674,0.939692620785906,4.13516132853974E-15));
#1189=DIRECTION('',(-1.1842378929335E-14,2.80259692864963E-45,1.));
#1190=DIRECTION('center_axis',(-1.1842378929335E-14,0.,1.));
#1191=DIRECTION('ref_axis',(0.342020143325674,0.939692620785906,4.13516132853974E-15));
#1192=DIRECTION('center_axis',(-2.11056883077429E-15,-1.,-2.49941558504726E-29));
#1193=DIRECTION('ref_axis',(1.,-2.11056883077429E-15,1.20320420293751E-14));
#1194=DIRECTION('',(1.29189588320018E-14,-2.2721959864066E-30,-1.));
#1195=DIRECTION('',(1.,-2.11056883077429E-15,1.20320420293751E-14));
#1196=DIRECTION('center_axis',(-1.1842378929335E-14,0.,1.));
#1197=DIRECTION('ref_axis',(0.342020143325606,0.939692620785931,3.83979266221555E-15));
#1198=DIRECTION('center_axis',(1.1842378929335E-14,0.,-1.));
#1199=DIRECTION('ref_axis',(0.342020143325606,0.939692620785931,3.83979266221555E-15));
#1200=DIRECTION('',(1.1842378929335E-14,0.,-1.));
#1201=DIRECTION('center_axis',(1.20320420293751E-14,6.12323372860135E-17,
-1.));
#1202=DIRECTION('ref_axis',(0.342020143325606,0.939692620785931,3.83979266221555E-15));
#1203=DIRECTION('',(-1.1842378929335E-14,0.,1.));
#1204=DIRECTION('center_axis',(-1.1842378929335E-14,0.,1.));
#1205=DIRECTION('ref_axis',(1.,0.,1.1842378929335E-14));
#1206=DIRECTION('',(-0.766044443118985,0.642787609686531,-9.17771954825845E-15));
#1207=DIRECTION('center_axis',(1.1842378929335E-14,0.,-1.));
#1208=DIRECTION('ref_axis',(0.906307787036645,0.422618261740711,1.07187112418326E-14));
#1209=DIRECTION('',(-7.65527015343797E-15,1.,6.12323372841047E-17));
#1210=DIRECTION('',(-1.,-4.20213423298513E-14,-1.20320420293751E-14));
#1211=DIRECTION('',(2.2581104781954E-21,1.,6.12323372841968E-17));
#1212=DIRECTION('',(1.,1.54522856895996E-13,1.1842378929335E-14));
#1213=DIRECTION('',(4.44089187268951E-14,-1.,-6.12323372836624E-17));
#1214=DIRECTION('',(4.39049877080902E-14,-1.,5.19939501326999E-28));
#1215=DIRECTION('',(-1.,-1.17490979354423E-13,-1.20320420293751E-14));
#1216=DIRECTION('center_axis',(-1.1842378929335E-14,0.,1.));
#1217=DIRECTION('ref_axis',(-1.,0.,-1.29189588320018E-14));
#1218=DIRECTION('center_axis',(-1.1842378929335E-14,0.,1.));
#1219=DIRECTION('ref_axis',(-1.,0.,-1.29189588320018E-14));
#1220=DIRECTION('center_axis',(0.642787609686531,0.766044443118985,7.61213444498939E-15));
#1221=DIRECTION('ref_axis',(-0.766044443118985,0.642787609686531,-9.17771954825845E-15));
#1222=DIRECTION('',(0.766044443118985,-0.642787609686531,9.17771954825728E-15));
#1223=DIRECTION('',(1.1842378929335E-14,1.20860502567674E-30,-1.));
#1224=DIRECTION('center_axis',(-1.1842378929335E-14,0.,1.));
#1225=DIRECTION('ref_axis',(0.906307787036645,0.422618261740711,1.07187112418326E-14));
#1226=DIRECTION('center_axis',(1.20320420293751E-14,6.12323372860135E-17,
-1.));
#1227=DIRECTION('ref_axis',(0.906307787036645,0.422618261740711,1.07187112418326E-14));
#1228=DIRECTION('',(-1.1842378929335E-14,-1.20778866859049E-44,1.));
#1229=DIRECTION('center_axis',(1.20320420293751E-14,6.12323372860135E-17,
-1.));
#1230=DIRECTION('ref_axis',(-1.,0.,-1.20320420293751E-14));
#1231=DIRECTION('',(-1.,-1.53457491367315E-13,-1.20320420293751E-14));
#1232=DIRECTION('',(-1.18864726675691E-13,1.,6.12323372845833E-17));
#1233=DIRECTION('',(0.898298727842053,0.439385247314187,1.08352726339918E-14));
#1234=DIRECTION('',(1.,1.54522856895996E-13,1.20320420293751E-14));
#1235=DIRECTION('',(-2.2581104781954E-21,-1.,-6.12323372860135E-17));
#1236=DIRECTION('',(1.,4.20213423298513E-14,1.20320420293751E-14));
#1237=DIRECTION('',(7.65527015343797E-15,-1.,-6.12323372859214E-17));
#1238=DIRECTION('',(1.,1.17490979354423E-13,1.20320420293751E-14));
#1239=DIRECTION('',(4.39049877080902E-14,-1.,-6.12323372854852E-17));
#1240=DIRECTION('center_axis',(1.20320420293751E-14,6.12323372860135E-17,
-1.));
#1241=DIRECTION('ref_axis',(1.,0.,0.));
#1242=DIRECTION('center_axis',(1.20320420293751E-14,6.12323372860135E-17,
-1.));
#1243=DIRECTION('ref_axis',(1.,0.,0.));
#1244=DIRECTION('center_axis',(0.439385247314187,-0.898298727842053,5.67639992144092E-15));
#1245=DIRECTION('ref_axis',(-0.898298727842053,-0.439385247314187,-1.08352726339918E-14));
#1246=DIRECTION('',(-1.23572649697409E-14,0.,1.));
#1247=DIRECTION('',(0.898298727842053,0.439385247314187,1.08352726339918E-14));
#1248=DIRECTION('',(1.29189588320018E-14,0.,-1.));
#1249=DIRECTION('center_axis',(1.,1.18864726675691E-13,1.29189588320018E-14));
#1250=DIRECTION('ref_axis',(1.18864726675691E-13,-1.,-6.12323372845833E-17));
#1251=DIRECTION('',(1.29189588320018E-14,1.98251101343662E-27,-1.));
#1252=DIRECTION('',(1.18864726675691E-13,-1.,-6.12323372845833E-17));
#1253=DIRECTION('',(1.29189588320018E-14,0.,-1.));
#1254=DIRECTION('',(-1.18864726675691E-13,1.,6.12323372845833E-17));
#1255=DIRECTION('center_axis',(-1.,-4.39049877080902E-14,-1.29189588320018E-14));
#1256=DIRECTION('ref_axis',(-4.39049877080902E-14,1.,6.12323372854852E-17));
#1257=DIRECTION('',(-1.29189588320018E-14,0.,1.));
#1258=DIRECTION('',(-1.29189588320018E-14,-1.26488427117614E-28,1.));
#1259=DIRECTION('',(1.29189588320018E-14,0.,-1.));
#1260=DIRECTION('',(4.39049877080902E-14,-1.,-6.12323372854852E-17));
#1261=DIRECTION('',(-1.29189588320018E-14,0.,1.));
#1262=DIRECTION('',(-4.39049877080902E-14,1.,6.12323372854852E-17));
#1263=DIRECTION('center_axis',(-2.16628882853689E-15,1.,-3.07848158135029E-29));
#1264=DIRECTION('ref_axis',(-0.911360802534698,0.,-0.411608415369888));
#1265=DIRECTION('center_axis',(2.4671600188344E-15,-1.,3.18731387152824E-29));
#1266=DIRECTION('ref_axis',(-0.911360802534698,0.,-0.411608415369888));
#1267=DIRECTION('',(2.16628882853689E-15,-1.,-6.12323372859874E-17));
#1268=DIRECTION('center_axis',(1.53457491367315E-13,-1.,1.98251101343662E-27));
#1269=DIRECTION('ref_axis',(-0.911360802534698,0.,-0.411608415369888));
#1270=DIRECTION('',(-2.16628882853689E-15,1.,-3.07848158135029E-29));
#1271=DIRECTION('center_axis',(-2.16628882853689E-15,1.,-3.07848158135029E-29));
#1272=DIRECTION('ref_axis',(1.,2.16628882853689E-15,1.14238547761869E-14));
#1273=DIRECTION('center_axis',(-1.53457491367315E-13,1.,-1.98251101343662E-27));
#1274=DIRECTION('ref_axis',(-1.,-2.16628882853689E-15,-9.26226417689807E-45));
#1275=DIRECTION('',(2.16628882853689E-15,-1.,3.07848158135029E-29));
#1276=DIRECTION('center_axis',(2.4671600188344E-15,-1.,3.18731387152824E-29));
#1277=DIRECTION('ref_axis',(-1.,-2.16628882853689E-15,-9.26226417689807E-45));
#1278=DIRECTION('center_axis',(-2.16628882853689E-15,1.,-3.07848158135029E-29));
#1279=DIRECTION('ref_axis',(0.911360802534703,0.,-0.411608415369879));
#1280=DIRECTION('center_axis',(2.4671600188344E-15,-1.,3.18731387152824E-29));
#1281=DIRECTION('ref_axis',(0.911360802534703,0.,-0.411608415369879));
#1282=DIRECTION('',(2.16628882853689E-15,-1.,3.07848158135029E-29));
#1283=DIRECTION('center_axis',(1.53457491367315E-13,-1.,1.98251101343662E-27));
#1284=DIRECTION('ref_axis',(0.911360802534703,0.,-0.411608415369879));
#1285=DIRECTION('',(-2.16628882853689E-15,1.,6.12323372859874E-17));
#1286=DIRECTION('center_axis',(1.20320420293751E-14,6.12323372860135E-17,
-1.));
#1287=DIRECTION('ref_axis',(-1.,-1.5099032909037E-13,-1.20320420293751E-14));
#1288=DIRECTION('',(-1.,-2.4671600188344E-15,-1.20320420293751E-14));
#1289=DIRECTION('',(-1.18864726675691E-13,1.,6.12323372845833E-17));
#1290=DIRECTION('',(-1.,-1.53457491367315E-13,-1.20320420293751E-14));
#1291=DIRECTION('',(4.39049877080902E-14,-1.,-6.12323372854852E-17));
#1292=DIRECTION('',(-1.,-2.4671600188344E-15,-1.20320420293751E-14));
#1293=DIRECTION('',(1.,1.53457491367315E-13,1.20320420293751E-14));
#1294=DIRECTION('center_axis',(-2.16628882853689E-15,1.,-3.07848158135029E-29));
#1295=DIRECTION('ref_axis',(-0.911360802534707,0.,0.41160841536987));
#1296=DIRECTION('center_axis',(2.4671600188344E-15,-1.,3.18731387152824E-29));
#1297=DIRECTION('ref_axis',(-0.911360802534707,0.,0.41160841536987));
#1298=DIRECTION('center_axis',(1.53457491367315E-13,-1.,1.98251101343662E-27));
#1299=DIRECTION('ref_axis',(-0.911360802534707,0.,0.41160841536987));
#1300=DIRECTION('',(-2.16628882853689E-15,1.,6.12323372859874E-17));
#1301=DIRECTION('center_axis',(-2.4671600188344E-15,1.,-3.18731387152824E-29));
#1302=DIRECTION('ref_axis',(0.,3.18731387152824E-29,1.));
#1303=DIRECTION('',(1.,2.4671600188344E-15,1.20320420293751E-14));
#1304=DIRECTION('',(-0.600000000000009,-1.48029601130063E-15,0.799999999999993));
#1305=DIRECTION('',(0.600000000000009,1.48029601130068E-15,0.799999999999993));
#1306=DIRECTION('center_axis',(2.4671600188344E-15,-1.,3.18731387152824E-29));
#1307=DIRECTION('ref_axis',(-1.,-3.28954970259306E-15,2.19133884891049E-44));
#1308=DIRECTION('center_axis',(1.20320420293751E-14,6.12323372860135E-17,
-1.));
#1309=DIRECTION('ref_axis',(-1.,-1.5099032909037E-13,-1.20320420293751E-14));
#1310=DIRECTION('',(-1.,-1.53457491367315E-13,-1.20320420293751E-14));
#1311=DIRECTION('',(2.16628882853689E-15,-1.,-6.12323372859874E-17));
#1312=DIRECTION('',(1.,2.4671600188344E-15,1.20320420293751E-14));
#1313=DIRECTION('',(-4.39049877080902E-14,1.,6.12323372854852E-17));
#1314=DIRECTION('',(0.707106781186536,-0.707106781186559,8.4646407095697E-15));
#1315=DIRECTION('',(-1.,-1.54522856895996E-13,-1.20320420293751E-14));
#1316=DIRECTION('',(-0.898298727842053,-0.439385247314187,-1.08352726339918E-14));
#1317=DIRECTION('',(1.18864726675691E-13,-1.,-6.12323372845833E-17));
#1318=DIRECTION('center_axis',(1.20320420293751E-14,6.12323372860135E-17,
-1.));
#1319=DIRECTION('ref_axis',(1.,0.,0.));
#1320=DIRECTION('center_axis',(1.20320420293751E-14,6.12323372860135E-17,
-1.));
#1321=DIRECTION('ref_axis',(1.,0.,0.));
#1322=DIRECTION('center_axis',(1.20320420293751E-14,6.12323372860135E-17,
-1.));
#1323=DIRECTION('ref_axis',(1.,0.,0.));
#1324=DIRECTION('center_axis',(1.20320420293751E-14,6.12323372860135E-17,
-1.));
#1325=DIRECTION('ref_axis',(-1.,0.,-1.29189588320018E-14));
#1326=DIRECTION('center_axis',(1.20320420293751E-14,6.12323372860135E-17,
-1.));
#1327=DIRECTION('ref_axis',(-1.,0.,-1.29189588320018E-14));
#1328=DIRECTION('center_axis',(-2.16628882853689E-15,1.,-3.07848158135029E-29));
#1329=DIRECTION('ref_axis',(0.911360802534698,0.,0.411608415369888));
#1330=DIRECTION('center_axis',(2.4671600188344E-15,-1.,3.18731387152824E-29));
#1331=DIRECTION('ref_axis',(0.911360802534698,0.,0.411608415369888));
#1332=DIRECTION('center_axis',(1.53457491367315E-13,-1.,1.98251101343662E-27));
#1333=DIRECTION('ref_axis',(0.911360802534698,0.,0.411608415369888));
#1334=DIRECTION('',(-2.16628882853689E-15,1.,-3.07848158135029E-29));
#1335=DIRECTION('center_axis',(-2.16628882853689E-15,1.,-3.07848158135029E-29));
#1336=DIRECTION('ref_axis',(-1.,-2.16628882853689E-15,-9.26226417689807E-45));
#1337=DIRECTION('center_axis',(2.4671600188344E-15,-1.,3.18731387152824E-29));
#1338=DIRECTION('ref_axis',(-1.,-2.16628882853689E-15,-9.26226417689807E-45));
#1339=DIRECTION('center_axis',(-1.53457491367315E-13,1.,-1.98251101343662E-27));
#1340=DIRECTION('ref_axis',(-1.,-2.16628882853689E-15,-9.26226417689807E-45));
#1341=DIRECTION('center_axis',(1.46990991884622E-13,-0.970142500145332,
0.242535625036334));
#1342=DIRECTION('ref_axis',(0.,-0.242535625036334,-0.970142500145332));
#1343=DIRECTION('',(-0.519592068221899,0.207225946967296,0.828903787869495));
#1344=DIRECTION('',(0.235702260395489,-0.235702260395485,-0.942809041582078));
#1345=DIRECTION('',(1.,1.54522856895996E-13,1.20320420293751E-14));
#1346=DIRECTION('center_axis',(0.392998112522026,-0.803462807822565,0.447213595499964));
#1347=DIRECTION('ref_axis',(0.751171373526807,0.,-0.660107239464809));
#1348=DIRECTION('',(-0.593203555893496,0.150088319141097,0.790938074524619));
#1349=DIRECTION('center_axis',(0.799999999999993,9.50550419381813E-14,0.600000000000009));
#1350=DIRECTION('ref_axis',(0.600000000000009,0.,-0.799999999999993));
#1351=DIRECTION('center_axis',(-0.800000000000034,-3.51607295688449E-14,
0.599999999999954));
#1352=DIRECTION('ref_axis',(0.599999999999954,0.,0.800000000000034));
#1353=DIRECTION('',(-0.599999999999954,-1.48029601130055E-15,-0.800000000000034));
#1354=DIRECTION('',(0.514495755427501,-0.514495755427527,0.685994340570054));
#1355=DIRECTION('center_axis',(-2.4671600188344E-15,1.,-3.18731387152824E-29));
#1356=DIRECTION('ref_axis',(0.,3.18731387152824E-29,1.));
#1357=DIRECTION('',(0.600000000000011,1.48029601130064E-15,-0.799999999999991));
#1358=DIRECTION('center_axis',(2.4671600188344E-15,-1.,3.18731387152824E-29));
#1359=DIRECTION('ref_axis',(-1.,-3.28954970259306E-15,2.19133884891049E-44));
#1360=DIRECTION('center_axis',(0.799999999999993,9.51285207429228E-14,-0.600000000000009));
#1361=DIRECTION('ref_axis',(-0.600000000000009,0.,-0.799999999999993));
#1362=DIRECTION('',(-0.600000000000009,-9.20744948203921E-14,-0.799999999999993));
#1363=DIRECTION('center_axis',(-1.53457491367315E-13,1.,-1.98251101343662E-27));
#1364=DIRECTION('ref_axis',(0.,1.98251101343662E-27,1.));
#1365=DIRECTION('',(-0.600000000000011,-9.20744948203893E-14,0.799999999999991));
#1366=DIRECTION('center_axis',(-0.799999999999992,-3.50872507641005E-14,
-0.600000000000011));
#1367=DIRECTION('ref_axis',(-0.600000000000011,0.,0.799999999999991));
#1368=DIRECTION('center_axis',(0.,0.,1.));
#1369=DIRECTION('ref_axis',(1.,0.,0.));
#1370=DIRECTION('center_axis',(0.,0.,1.));
#1371=DIRECTION('ref_axis',(1.,0.,0.));
#1372=DIRECTION('center_axis',(0.,0.,1.));
#1373=DIRECTION('ref_axis',(1.,0.,0.));
#1374=DIRECTION('center_axis',(0.,0.,1.));
#1375=DIRECTION('ref_axis',(1.,0.,0.));
#1376=DIRECTION('center_axis',(0.,0.,1.));
#1377=DIRECTION('ref_axis',(1.,0.,0.));
#1378=DIRECTION('center_axis',(0.,0.,1.));
#1379=DIRECTION('ref_axis',(1.,0.,0.));
#1380=DIRECTION('center_axis',(-1.29189588320018E-14,0.,1.));
#1381=DIRECTION('ref_axis',(-1.,0.,-1.29189588320018E-14));
#1382=DIRECTION('',(-1.29189588320018E-14,0.,1.));
#1383=DIRECTION('center_axis',(-1.29189588320018E-14,0.,1.));
#1384=DIRECTION('ref_axis',(-1.,0.,-1.29189588320018E-14));
#1385=DIRECTION('',(-1.29189588320018E-14,0.,1.));
#1386=DIRECTION('center_axis',(0.,0.,-1.));
#1387=DIRECTION('ref_axis',(1.,0.,0.));
#1388=DIRECTION('',(0.,0.,-1.));
#1389=DIRECTION('center_axis',(0.,0.,-1.));
#1390=DIRECTION('ref_axis',(1.,0.,0.));
#1391=DIRECTION('center_axis',(0.,0.,-1.));
#1392=DIRECTION('ref_axis',(1.,0.,0.));
#1393=DIRECTION('center_axis',(0.,0.,-1.));
#1394=DIRECTION('ref_axis',(1.,0.,0.));
#1395=DIRECTION('',(0.,0.,-1.));
#1396=DIRECTION('center_axis',(0.,0.,-1.));
#1397=DIRECTION('ref_axis',(1.,0.,0.));
#1398=DIRECTION('center_axis',(0.,0.,-1.));
#1399=DIRECTION('ref_axis',(1.,0.,0.));
#1400=DIRECTION('center_axis',(0.,0.,-1.));
#1401=DIRECTION('ref_axis',(1.,0.,0.));
#1402=DIRECTION('',(0.,0.,-1.));
#1403=DIRECTION('center_axis',(0.,0.,-1.));
#1404=DIRECTION('ref_axis',(1.,0.,0.));
#1405=DIRECTION('center_axis',(0.,0.,-1.));
#1406=DIRECTION('ref_axis',(1.,0.,0.));
#1407=DIRECTION('center_axis',(0.,0.,1.));
#1408=DIRECTION('ref_axis',(1.,0.,0.));
#1409=DIRECTION('',(0.,0.,1.));
#1410=DIRECTION('center_axis',(0.,0.,1.));
#1411=DIRECTION('ref_axis',(1.,0.,0.));
#1412=DIRECTION('',(0.,0.,1.));
#1413=DIRECTION('center_axis',(0.,0.,1.));
#1414=DIRECTION('ref_axis',(1.,0.,0.));
#1415=DIRECTION('',(0.,0.,1.));
#1416=DIRECTION('center_axis',(3.28954970259306E-15,-1.,3.50604846764894E-29));
#1417=DIRECTION('ref_axis',(-1.,-3.28954970259306E-15,2.19133884891049E-44));
#1418=DIRECTION('',(3.28954970259306E-15,-1.,3.50604846764894E-29));
#1419=DIRECTION('center_axis',(2.66453300098997E-15,-1.,3.54987106508716E-29));
#1420=DIRECTION('ref_axis',(-1.,-2.66453300098997E-15,0.));
#1421=DIRECTION('center_axis',(-2.66453300098997E-15,1.,-3.54987106508716E-29));
#1422=DIRECTION('ref_axis',(-1.,-2.66453300098997E-15,0.));
#1423=DIRECTION('center_axis',(3.28954970259306E-15,-1.,3.50604846764894E-29));
#1424=DIRECTION('ref_axis',(-1.,-3.28954970259306E-15,2.19133884891049E-44));
#1425=DIRECTION('',(3.28954970259306E-15,-1.,3.50604846764894E-29));
#1426=DIRECTION('center_axis',(2.66453300098997E-15,-1.,3.54987106508716E-29));
#1427=DIRECTION('ref_axis',(-1.,-2.66453300098997E-15,0.));
#1428=DIRECTION('center_axis',(-2.66453300098997E-15,1.,-3.54987106508716E-29));
#1429=DIRECTION('ref_axis',(-1.,-2.66453300098997E-15,0.));
#1430=DIRECTION('center_axis',(3.28954970259306E-15,-1.,3.54256980585362E-29));
#1431=DIRECTION('ref_axis',(-1.,-3.28954970259306E-15,2.2141652952533E-44));
#1432=DIRECTION('center_axis',(2.4671600188344E-15,-1.,3.18731387152824E-29));
#1433=DIRECTION('ref_axis',(-1.,-3.28954970259306E-15,2.2141652952533E-44));
#1434=DIRECTION('',(3.28954970259306E-15,-1.,3.54256980585362E-29));
#1435=DIRECTION('center_axis',(2.66453300098997E-15,-1.,3.54987106508716E-29));
#1436=DIRECTION('ref_axis',(-1.,-2.66453300098997E-15,0.));
#1437=DIRECTION('center_axis',(-2.66453300098997E-15,1.,-3.54987106508716E-29));
#1438=DIRECTION('ref_axis',(-1.,-2.66453300098997E-15,0.));
#1439=DIRECTION('center_axis',(-0.707106781186559,-0.707106781186536,-9.13508339597848E-15));
#1440=DIRECTION('ref_axis',(-0.707106781186536,0.707106781186559,-8.4646407095697E-15));
#1441=DIRECTION('',(1.29189588320018E-14,0.,-1.));
#1442=DIRECTION('center_axis',(1.54522856895996E-13,-1.,1.99627442684267E-27));
#1443=DIRECTION('ref_axis',(-1.,-1.54522856895996E-13,-1.20320420293751E-14));
#1444=DIRECTION('',(-1.1842378929335E-14,1.6635620223689E-28,1.));
#1445=DIRECTION('',(1.1842378929335E-14,-1.6635620223689E-28,-1.));
#1446=DIRECTION('center_axis',(1.,-2.25811047892054E-21,1.1842378929335E-14));
#1447=DIRECTION('ref_axis',(2.2581104781954E-21,1.,6.12323372841968E-17));
#1448=DIRECTION('',(-1.1842378929335E-14,0.,1.));
#1449=DIRECTION('center_axis',(-4.20213423298513E-14,1.,-4.97632658989404E-28));
#1450=DIRECTION('ref_axis',(-1.,-4.20213423298513E-14,-1.20320420293751E-14));
#1451=DIRECTION('',(-1.1842378929335E-14,0.,1.));
#1452=DIRECTION('center_axis',(1.,7.65527015343797E-15,1.1842378929335E-14));
#1453=DIRECTION('ref_axis',(-7.65527015343797E-15,1.,6.12323372841047E-17));
#1454=DIRECTION('center_axis',(-1.17490979354423E-13,1.,-1.39137269829375E-27));
#1455=DIRECTION('ref_axis',(-1.,-1.17490979354423E-13,-1.20320420293751E-14));
#1456=DIRECTION('center_axis',(-1.,-4.44089187268951E-14,-1.1842378929335E-14));
#1457=DIRECTION('ref_axis',(4.44089187268951E-14,-1.,-6.12323372836624E-17));
#1458=DIRECTION('center_axis',(-1.53457491367315E-13,1.,-1.98251101343662E-27));
#1459=DIRECTION('ref_axis',(1.,1.53457491367315E-13,1.20320420293751E-14));
#1460=DIRECTION('center_axis',(1.53457491367315E-13,-1.,1.98251101343662E-27));
#1461=DIRECTION('ref_axis',(-1.,0.,-7.78498434313118E-44));
#1462=DIRECTION('center_axis',(-2.4671600188344E-15,1.,-3.18731387152824E-29));
#1463=DIRECTION('ref_axis',(-1.,-2.4671600188344E-15,0.));
#1464=DIRECTION('center_axis',(-2.4671600188344E-15,1.,-3.18731387152824E-29));
#1465=DIRECTION('ref_axis',(-1.,-2.46716001883439E-15,0.));
#1466=DIRECTION('center_axis',(0.,1.,-3.15544362088406E-29));
#1467=DIRECTION('ref_axis',(-1.,0.,-7.78498434313118E-44));
#1468=DIRECTION('',(0.,-1.,3.15544362088406E-29));
#1469=CARTESIAN_POINT('',(0.,0.,0.));
#1470=CARTESIAN_POINT('Origin',(133.549999999998,55.0673846836876,-3.0000000000001));
#1471=CARTESIAN_POINT('',(135.549999999998,55.0673846836876,-2.60000000000007));
#1472=CARTESIAN_POINT('',(134.835575219371,56.5994735699255,-2.60000000000008));
#1473=CARTESIAN_POINT('Origin',(133.549999999998,55.0673846836876,-2.60000000000009));
#1474=CARTESIAN_POINT('',(134.835575219371,56.5994735699255,2.99999999999992));
#1475=CARTESIAN_POINT('',(134.835575219371,56.5994735699255,-3.00000000000008));
#1476=CARTESIAN_POINT('',(135.549999999998,55.0673846836876,2.99999999999993));
#1477=CARTESIAN_POINT('Origin',(133.549999999998,55.0673846836876,2.99999999999991));
#1478=CARTESIAN_POINT('',(135.549999999998,55.0673846836876,-3.00000000000007));
#1479=CARTESIAN_POINT('Origin',(133.166492814807,57.9999999999993,-3.0000000000001));
#1480=CARTESIAN_POINT('',(133.724127565648,57.5320888862372,-2.60000000000009));
#1481=CARTESIAN_POINT('',(136.064579929084,55.5682161712896,-2.60000000000006));
#1482=CARTESIAN_POINT('',(133.724127565648,57.5320888862372,2.99999999999991));
#1483=CARTESIAN_POINT('',(133.724127565648,57.5320888862372,-3.00000000000009));
#1484=CARTESIAN_POINT('',(133.166492814807,57.9999999999993,2.9999999999999));
#1485=CARTESIAN_POINT('Origin',(142.749999999997,57.6500000000011,-2.59999999999998));
#1486=CARTESIAN_POINT('',(135.549999999998,45.9999999999979,-2.60000000000007));
#1487=CARTESIAN_POINT('',(135.549999999998,56.8249999999993,-2.60000000000007));
#1488=CARTESIAN_POINT('',(133.949999999998,45.9999999999977,-2.60000000000009));
#1489=CARTESIAN_POINT('',(147.15,45.9999999999997,-2.59999999999993));
#1490=CARTESIAN_POINT('',(124.749999999998,55.1999999999984,-2.6000000000002));
#1491=CARTESIAN_POINT('',(133.237499999997,46.7124999999988,-2.6000000000001));
#1492=CARTESIAN_POINT('',(124.749999999997,57.9999999999993,-2.6000000000002));
#1493=CARTESIAN_POINT('',(124.749999999998,56.4249999999994,-2.6000000000002));
#1494=CARTESIAN_POINT('',(132.438552346275,57.9999999999993,-2.60000000000011));
#1495=CARTESIAN_POINT('',(133.749999999997,57.9999999999993,-2.60000000000009));
#1496=CARTESIAN_POINT('Origin',(132.438552346275,55.9999999999993,-2.60000000000011));
#1497=CARTESIAN_POINT('',(129.749999999998,53.7999999999989,-2.60000000000171));
#1498=CARTESIAN_POINT('Origin',(131.349999999998,53.7999999999989,-2.59999999999998));
#1499=CARTESIAN_POINT('Origin',(132.438552346275,55.9999999999993,-3.00000000000011));
#1500=CARTESIAN_POINT('',(132.438552346275,57.9999999999993,2.99999999999989));
#1501=CARTESIAN_POINT('',(132.438552346275,57.9999999999993,-3.00000000000011));
#1502=CARTESIAN_POINT('Origin',(132.438552346275,55.9999999999993,2.99999999999989));
#1503=CARTESIAN_POINT('Origin',(124.749999999997,57.9999999999993,-3.0000000000002));
#1504=CARTESIAN_POINT('',(124.749999999997,57.9999999999993,2.9999999999998));
#1505=CARTESIAN_POINT('',(124.749999999997,57.9999999999993,-3.0000000000002));
#1506=CARTESIAN_POINT('',(124.749999999997,57.9999999999993,2.9999999999998));
#1507=CARTESIAN_POINT('Origin',(134.605423211929,60.6468695672459,-3.00000000000008));
#1508=CARTESIAN_POINT('',(134.605423211929,62.6468695672459,2.99999999999992));
#1509=CARTESIAN_POINT('',(135.890998431302,62.1789584534839,2.99999999999993));
#1510=CARTESIAN_POINT('Origin',(134.605423211929,60.6468695672459,2.99999999999992));
#1511=CARTESIAN_POINT('',(134.605423211929,62.6468695672459,-2.60000000000008));
#1512=CARTESIAN_POINT('',(134.605423211929,62.6468695672459,-3.00000000000008));
#1513=CARTESIAN_POINT('',(135.890998431302,62.1789584534839,-2.60000000000007));
#1514=CARTESIAN_POINT('Origin',(134.605423211929,60.6468695672459,-2.60000000000008));
#1515=CARTESIAN_POINT('',(135.890998431302,62.1789584534839,-3.00000000000007));
#1516=CARTESIAN_POINT('Origin',(136.899999999998,54.3234347836219,2.99999999999995));
#1517=CARTESIAN_POINT('',(139.03557521937,59.5403452304072,2.99999999999997));
#1518=CARTESIAN_POINT('',(139.749999999997,58.9408716604793,2.99999999999998));
#1519=CARTESIAN_POINT('',(139.749999999997,58.0082563441693,2.99999999999998));
#1520=CARTESIAN_POINT('Origin',(137.749999999997,58.0082563441693,2.99999999999996));
#1521=CARTESIAN_POINT('',(139.749999999997,54.2999999999999,2.99999999999998));
#1522=CARTESIAN_POINT('',(139.749999999997,54.2999999999999,2.99999999999998));
#1523=CARTESIAN_POINT('',(149.049999999998,54.3000000000003,3.00000000000009));
#1524=CARTESIAN_POINT('',(149.049999999998,54.3000000000003,3.00000000000009));
#1525=CARTESIAN_POINT('',(149.049999999998,46.,3.00000000000009));
#1526=CARTESIAN_POINT('',(149.049999999998,54.2000000000003,3.00000000000009));
#1527=CARTESIAN_POINT('',(135.549999999998,45.9999999999979,2.99999999999993));
#1528=CARTESIAN_POINT('',(144.224999999999,45.9999999999993,3.00000000000003));
#1529=CARTESIAN_POINT('',(135.549999999998,45.9999999999979,2.99999999999993));
#1530=CARTESIAN_POINT('',(124.749999999997,62.6468695672447,2.9999999999998));
#1531=CARTESIAN_POINT('',(124.749999999998,54.7617173918099,2.9999999999998));
#1532=CARTESIAN_POINT('',(135.333363680461,62.646869567246,2.99999999999993));
#1533=CARTESIAN_POINT('',(147.749999999998,50.5000000000001,3.00000000000008));
#1534=CARTESIAN_POINT('Origin',(145.749999999998,50.5000000000001,3.00000000000006));
#1535=CARTESIAN_POINT('',(141.749999999998,50.4999999999999,3.));
#1536=CARTESIAN_POINT('Origin',(139.749999999998,50.4999999999999,2.99999999999998));
#1537=CARTESIAN_POINT('Origin',(139.749999999997,58.9408716604793,-3.00000000000002));
#1538=CARTESIAN_POINT('',(139.03557521937,59.5403452304072,-2.60000000000003));
#1539=CARTESIAN_POINT('',(140.948051238093,57.9355873084615,-2.60000000000001));
#1540=CARTESIAN_POINT('',(139.03557521937,59.5403452304072,-3.00000000000003));
#1541=CARTESIAN_POINT('Origin',(137.749999999997,58.0082563441693,-3.00000000000004));
#1542=CARTESIAN_POINT('',(139.749999999997,58.0082563441693,-2.60000000000002));
#1543=CARTESIAN_POINT('Origin',(137.749999999997,58.0082563441693,-2.60000000000004));
#1544=CARTESIAN_POINT('',(139.749999999997,58.0082563441693,-3.00000000000002));
#1545=CARTESIAN_POINT('Origin',(142.749999999997,57.6500000000011,-2.59999999999998));
#1546=CARTESIAN_POINT('',(160.749999999996,66.3000000000045,-2.59999999999977));
#1547=CARTESIAN_POINT('',(124.749999999997,66.299999999999,-2.6000000000002));
#1548=CARTESIAN_POINT('',(142.749999999996,66.3000000000018,-2.59999999999998));
#1549=CARTESIAN_POINT('',(160.749999999998,50.500000000001,-2.59999999999977));
#1550=CARTESIAN_POINT('',(160.749999999996,63.4750000000039,-2.59999999999977));
#1551=CARTESIAN_POINT('',(151.55,46.0000000000004,-2.59999999999988));
#1552=CARTESIAN_POINT('',(154.898584231098,47.6378944608643,-2.59999999999984));
#1553=CARTESIAN_POINT('',(149.049999999998,46.,-2.59999999999991));
#1554=CARTESIAN_POINT('',(147.15,45.9999999999997,-2.59999999999993));
#1555=CARTESIAN_POINT('',(149.049999999998,54.3000000000003,-2.59999999999991));
#1556=CARTESIAN_POINT('',(149.049999999998,51.8250000000006,-2.59999999999991));
#1557=CARTESIAN_POINT('',(139.749999999997,54.2999999999999,-2.60000000000002));
#1558=CARTESIAN_POINT('',(145.899999999998,54.3000000000001,-2.59999999999995));
#1559=CARTESIAN_POINT('',(139.749999999997,55.9750000000005,-2.60000000000002));
#1560=CARTESIAN_POINT('',(124.749999999997,62.6468695672447,-2.6000000000002));
#1561=CARTESIAN_POINT('',(139.041681840229,62.6468695672464,-2.60000000000003));
#1562=CARTESIAN_POINT('',(124.749999999998,56.4249999999994,-2.6000000000002));
#1563=CARTESIAN_POINT('',(151.649999999998,53.8000000000022,-2.60000000000171));
#1564=CARTESIAN_POINT('Origin',(153.249999999998,53.8000000000022,-2.59999999999998));
#1565=CARTESIAN_POINT('',(141.149999999996,62.5,-2.60000000000171));
#1566=CARTESIAN_POINT('Origin',(142.749999999996,62.5,-2.59999999999998));
#1567=CARTESIAN_POINT('Origin',(160.749999999998,50.500000000001,-2.99999999999977));
#1568=CARTESIAN_POINT('',(160.749999999998,50.500000000001,4.50000000000023));
#1569=CARTESIAN_POINT('',(160.749999999998,50.500000000001,-2.99999999999977));
#1570=CARTESIAN_POINT('',(151.55,46.0000000000004,4.50000000000012));
#1571=CARTESIAN_POINT('',(154.898584231098,47.6378944608642,4.50000000000016));
#1572=CARTESIAN_POINT('',(151.55,46.0000000000004,-2.99999999999988));
#1573=CARTESIAN_POINT('Origin',(160.749999999996,69.3000000000045,-2.99999999999977));
#1574=CARTESIAN_POINT('',(160.749999999996,66.3000000000045,-4.49999999999977));
#1575=CARTESIAN_POINT('',(160.749999999996,66.3000000000045,-2.99999999999977));
#1576=CARTESIAN_POINT('',(160.749999999996,69.7999999999796,-4.49999999999977));
#1577=CARTESIAN_POINT('',(160.749999999996,63.4750000000035,-4.49999999999977));
#1578=CARTESIAN_POINT('',(160.749999999996,69.7999999999796,4.50000000000023));
#1579=CARTESIAN_POINT('',(160.749999999996,69.7999999999796,-1.49999999999976));
#1580=CARTESIAN_POINT('',(160.749999999996,63.4750000000035,4.50000000000023));
#1581=CARTESIAN_POINT('Origin',(124.749999999998,55.1999999999984,-3.0000000000002));
#1582=CARTESIAN_POINT('',(124.749999999997,66.299999999999,-4.5000000000002));
#1583=CARTESIAN_POINT('',(124.749999999997,66.299999999999,-4.37500000000021));
#1584=CARTESIAN_POINT('',(124.749999999997,62.6468695672447,-3.00000000000021));
#1585=CARTESIAN_POINT('',(124.749999999998,55.1999999999984,4.4999999999998));
#1586=CARTESIAN_POINT('',(124.749999999998,55.1999999999984,-3.0000000000002));
#1587=CARTESIAN_POINT('',(124.749999999997,69.7999999999795,4.4999999999998));
#1588=CARTESIAN_POINT('',(124.749999999997,56.424999999999,4.4999999999998));
#1589=CARTESIAN_POINT('',(124.749999999997,69.7999999999795,-4.5000000000002));
#1590=CARTESIAN_POINT('',(124.749999999997,69.7999999999795,-1.50000000000021));
#1591=CARTESIAN_POINT('',(124.749999999998,56.424999999999,-4.5000000000002));
#1592=CARTESIAN_POINT('Origin',(151.827995373426,69.2999999999795,-7.99999999999988));
#1593=CARTESIAN_POINT('',(151.452871597664,69.7999999999795,-7.66942148760319));
#1594=CARTESIAN_POINT('',(151.827995373426,69.7999999999795,-8.49999999999988));
#1595=CARTESIAN_POINT('Origin',(151.827995373426,69.7999999999795,-7.99999999999988));
#1596=CARTESIAN_POINT('',(151.827995373426,69.3000000000032,-8.49999999999988));
#1597=CARTESIAN_POINT('',(151.827995373426,69.2999999999795,-8.49999999999988));
#1598=CARTESIAN_POINT('',(151.452871597664,69.3000000000004,-7.66942148760319));
#1599=CARTESIAN_POINT('Origin',(151.827995373426,69.2999999999991,-7.99999999999988));
#1600=CARTESIAN_POINT('',(151.452871597664,69.2999999999795,-7.66942148760318));
#1601=CARTESIAN_POINT('Origin',(142.749999999996,69.2999999999795,1.554312234475E-14));
#1602=CARTESIAN_POINT('',(151.452871597664,69.3000000000004,7.66942148760343));
#1603=CARTESIAN_POINT('Origin',(142.749999999996,69.299999999999,1.554312234475E-14));
#1604=CARTESIAN_POINT('',(151.452871597664,69.7999999999795,7.66942148760343));
#1605=CARTESIAN_POINT('',(151.452871597664,69.2999999999795,7.66942148760343));
#1606=CARTESIAN_POINT('Origin',(142.749999999996,69.7999999999795,1.554312234475E-14));
#1607=CARTESIAN_POINT('Origin',(133.672004626567,69.2999999999795,-8.00000000000009));
#1608=CARTESIAN_POINT('',(133.672004626567,69.7999999999795,-8.50000000000009));
#1609=CARTESIAN_POINT('',(134.047128402329,69.7999999999795,-7.6694214876034));
#1610=CARTESIAN_POINT('Origin',(133.672004626567,69.7999999999795,-8.00000000000009));
#1611=CARTESIAN_POINT('',(134.047128402329,69.2999999999977,-7.6694214876034));
#1612=CARTESIAN_POINT('',(134.047128402329,69.2999999999795,-7.66942148760339));
#1613=CARTESIAN_POINT('',(133.672004626567,69.3000000000004,-8.50000000000009));
#1614=CARTESIAN_POINT('Origin',(133.672004626567,69.299999999999,-8.00000000000009));
#1615=CARTESIAN_POINT('',(133.672004626567,69.2999999999795,-8.50000000000009));
#1616=CARTESIAN_POINT('Origin',(142.749999999997,57.6500000000004,-8.49999999999999));
#1617=CARTESIAN_POINT('',(157.749999999996,69.7999999999796,-8.4999999999998));
#1618=CARTESIAN_POINT('',(142.749999999997,69.7999999999795,-8.49999999999999));
#1619=CARTESIAN_POINT('',(157.749999999996,66.3000000000041,-8.4999999999998));
#1620=CARTESIAN_POINT('',(157.749999999996,63.4750000000032,-8.4999999999998));
#1621=CARTESIAN_POINT('',(127.749999999997,66.2999999999995,-8.50000000000017));
#1622=CARTESIAN_POINT('',(142.749999999996,66.3000000000018,-8.49999999999999));
#1623=CARTESIAN_POINT('',(127.749999999997,69.7999999999795,-8.50000000000017));
#1624=CARTESIAN_POINT('',(127.749999999998,56.4249999999991,-8.50000000000017));
#1625=CARTESIAN_POINT('',(142.749999999997,69.7999999999795,-8.49999999999999));
#1626=CARTESIAN_POINT('',(124.749999999997,69.299999999999,-8.5000000000002));
#1627=CARTESIAN_POINT('Origin',(151.827995373425,69.2999999999795,8.00000000000013));
#1628=CARTESIAN_POINT('',(151.827995373425,69.7999999999795,8.50000000000012));
#1629=CARTESIAN_POINT('Origin',(151.827995373425,69.7999999999795,8.00000000000013));
#1630=CARTESIAN_POINT('',(151.827995373425,69.3000000000032,8.50000000000013));
#1631=CARTESIAN_POINT('Origin',(151.827995373425,69.2999999999991,8.00000000000013));
#1632=CARTESIAN_POINT('',(151.827995373425,69.2999999999795,8.50000000000013));
#1633=CARTESIAN_POINT('Origin',(142.749999999997,69.7999999999795,1.60982338570645E-14));
#1634=CARTESIAN_POINT('',(157.749999999996,69.7999999999796,8.5000000000002));
#1635=CARTESIAN_POINT('',(142.749999999997,69.7999999999795,8.50000000000002));
#1636=CARTESIAN_POINT('',(157.839999999996,69.7999999999796,8.37999999999962));
#1637=CARTESIAN_POINT('',(157.839999999996,69.7999999999796,-8.37999999999933));
#1638=CARTESIAN_POINT('',(158.749999999996,69.7999999999796,1.80721423654069E-13));
#1639=CARTESIAN_POINT('Origin',(156.749999999996,69.7999999999796,1.80966353013898E-13));
#1640=CARTESIAN_POINT('Origin',(142.749999999997,57.6500000000004,8.50000000000002));
#1641=CARTESIAN_POINT('',(133.672004626567,69.3000000000004,8.49999999999991));
#1642=CARTESIAN_POINT('',(124.749999999997,69.299999999999,8.4999999999998));
#1643=CARTESIAN_POINT('',(133.672004626567,69.7999999999795,8.49999999999991));
#1644=CARTESIAN_POINT('',(133.672004626567,69.2999999999795,8.49999999999991));
#1645=CARTESIAN_POINT('',(127.749999999997,69.7999999999795,8.49999999999983));
#1646=CARTESIAN_POINT('',(142.749999999997,69.7999999999795,8.50000000000002));
#1647=CARTESIAN_POINT('',(127.749999999997,52.1999999999985,8.49999999999983));
#1648=CARTESIAN_POINT('',(127.749999999997,56.4249999999991,8.49999999999984));
#1649=CARTESIAN_POINT('',(132.949999999998,46.9999999999975,8.4999999999999));
#1650=CARTESIAN_POINT('',(133.949999999998,45.9999999999977,8.49999999999991));
#1651=CARTESIAN_POINT('',(149.042630262639,47.,8.50000000000009));
#1652=CARTESIAN_POINT('',(147.149999999999,46.9999999999997,8.50000000000007));
#1653=CARTESIAN_POINT('',(157.749999999998,51.2590395454486,8.5000000000002));
#1654=CARTESIAN_POINT('',(154.01981373647,49.4344919165484,8.50000000000015));
#1655=CARTESIAN_POINT('',(157.749999999996,63.4750000000032,8.5000000000002));
#1656=CARTESIAN_POINT('',(129.349999999998,53.7999999999989,8.49999999999829));
#1657=CARTESIAN_POINT('Origin',(131.349999999998,53.7999999999989,8.50000000000002));
#1658=CARTESIAN_POINT('',(140.749999999996,62.5,8.49999999999829));
#1659=CARTESIAN_POINT('Origin',(142.749999999996,62.5,8.50000000000002));
#1660=CARTESIAN_POINT('',(151.249999999998,53.8000000000022,8.49999999999829));
#1661=CARTESIAN_POINT('Origin',(153.249999999998,53.8000000000022,8.50000000000002));
#1662=CARTESIAN_POINT('',(147.749999999998,50.5000000000001,8.50000000000008));
#1663=CARTESIAN_POINT('Origin',(145.749999999998,50.5000000000001,8.50000000000006));
#1664=CARTESIAN_POINT('',(141.749999999998,50.4999999999999,8.50000000000001));
#1665=CARTESIAN_POINT('Origin',(139.749999999998,50.4999999999999,8.49999999999998));
#1666=CARTESIAN_POINT('Origin',(133.672004626567,69.2999999999795,7.99999999999991));
#1667=CARTESIAN_POINT('',(134.047128402329,69.7999999999795,7.66942148760322));
#1668=CARTESIAN_POINT('Origin',(133.672004626567,69.7999999999795,7.99999999999991));
#1669=CARTESIAN_POINT('',(134.047128402329,69.2999999999977,7.66942148760322));
#1670=CARTESIAN_POINT('Origin',(133.672004626567,69.299999999999,7.99999999999991));
#1671=CARTESIAN_POINT('',(134.047128402329,69.2999999999795,7.66942148760322));
#1672=CARTESIAN_POINT('Origin',(142.749999999996,69.2999999999795,1.554312234475E-14));
#1673=CARTESIAN_POINT('Origin',(142.749999999996,69.7999999999795,1.554312234475E-14));
#1674=CARTESIAN_POINT('Origin',(142.749999999996,69.299999999999,1.554312234475E-14));
#1675=CARTESIAN_POINT('Origin',(147.149999999999,46.4999999999997,6.50000000000007));
#1676=CARTESIAN_POINT('',(150.32391819562,46.4889912269864,6.45596490794482));
#1677=CARTESIAN_POINT('',(133.949999999998,45.9999999999977,4.49999999999991));
#1678=CARTESIAN_POINT('',(134.913888888887,45.036111111109,0.644444444444553));
#1679=CARTESIAN_POINT('',(147.149999999999,45.9999999999997,4.50000000000007));
#1680=CARTESIAN_POINT('Origin',(154.459198983784,48.5361931887063,6.50000000000016));
#1681=CARTESIAN_POINT('',(157.950691805152,51.2082618732622,8.23241092646126));
#1682=CARTESIAN_POINT('Origin',(159.249999999996,63.4750000000033,6.50000000000021));
#1683=CARTESIAN_POINT('Origin',(126.249999999997,56.4249999999991,6.49999999999982));
#1684=CARTESIAN_POINT('',(127.659999999997,69.7999999999795,8.37999999999985));
#1685=CARTESIAN_POINT('',(126.251102941174,53.6988970588219,6.5014705882351));
#1686=CARTESIAN_POINT('Origin',(142.749999999997,69.7999999999795,1.60982338570645E-14));
#1687=CARTESIAN_POINT('',(127.659999999997,69.7999999999795,-8.38000000000041));
#1688=CARTESIAN_POINT('',(130.749999999997,69.7999999999795,-1.77880613299857E-13));
#1689=CARTESIAN_POINT('Origin',(128.749999999997,69.7999999999795,-1.77635683940028E-13));
#1690=CARTESIAN_POINT('Origin',(159.249999999996,63.4750000000033,-6.49999999999979));
#1691=CARTESIAN_POINT('',(156.459999999996,66.3000000000039,-10.2199999999999));
#1692=CARTESIAN_POINT('Origin',(142.749999999996,66.3000000000018,-5.74999999999998));
#1693=CARTESIAN_POINT('',(129.039999999997,66.2999999999997,-10.2199999999997));
#1694=CARTESIAN_POINT('Origin',(126.249999999998,56.4249999999991,-6.50000000000018));
#1695=CARTESIAN_POINT('Origin',(131.349999999998,53.7999999999989,2.29999999999829));
#1696=CARTESIAN_POINT('',(129.749999999998,53.7999999999989,2.29999999999829));
#1697=CARTESIAN_POINT('Origin',(131.349999999998,53.7999999999989,2.29999999999829));
#1698=CARTESIAN_POINT('Origin',(153.249999999998,53.8000000000022,2.29999999999829));
#1699=CARTESIAN_POINT('',(151.649999999998,53.8000000000022,2.29999999999829));
#1700=CARTESIAN_POINT('Origin',(153.249999999998,53.8000000000022,2.29999999999829));
#1701=CARTESIAN_POINT('Origin',(142.749999999996,62.5,2.29999999999829));
#1702=CARTESIAN_POINT('',(141.149999999996,62.5,2.29999999999829));
#1703=CARTESIAN_POINT('Origin',(142.749999999996,62.5,2.29999999999829));
#1704=CARTESIAN_POINT('Origin',(139.749999999998,50.4999999999999,2.99999999999998));
#1705=CARTESIAN_POINT('',(141.749999999998,50.4999999999999,3.00000000000001));
#1706=CARTESIAN_POINT('Origin',(145.749999999998,50.5000000000001,3.00000000000005));
#1707=CARTESIAN_POINT('',(147.749999999998,50.5000000000001,3.00000000000008));
#1708=CARTESIAN_POINT('Origin',(153.249999999998,53.8000000000022,8.49999999999829));
#1709=CARTESIAN_POINT('',(151.249999999998,53.8000000000022,2.49999999999829));
#1710=CARTESIAN_POINT('',(151.249999999998,53.8000000000022,8.49999999999829));
#1711=CARTESIAN_POINT('Origin',(153.249999999998,53.8000000000022,2.49999999999829));
#1712=CARTESIAN_POINT('Origin',(153.249999999998,53.8000000000022,2.49999999999829));
#1713=CARTESIAN_POINT('Origin',(142.749999999996,62.5,8.49999999999829));
#1714=CARTESIAN_POINT('',(140.749999999996,62.5,2.49999999999829));
#1715=CARTESIAN_POINT('',(140.749999999996,62.5,8.49999999999829));
#1716=CARTESIAN_POINT('Origin',(142.749999999996,62.5,2.49999999999829));
#1717=CARTESIAN_POINT('Origin',(142.749999999996,62.5,2.49999999999829));
#1718=CARTESIAN_POINT('Origin',(131.349999999998,53.7999999999989,8.49999999999829));
#1719=CARTESIAN_POINT('',(129.349999999998,53.7999999999989,2.49999999999829));
#1720=CARTESIAN_POINT('',(129.349999999998,53.7999999999989,8.49999999999829));
#1721=CARTESIAN_POINT('Origin',(131.349999999998,53.7999999999989,2.49999999999829));
#1722=CARTESIAN_POINT('Origin',(131.349999999998,53.7999999999989,2.49999999999829));
#1723=CARTESIAN_POINT('Origin',(153.249999999998,53.8000000000022,-3.00000000000171));
#1724=CARTESIAN_POINT('',(151.649999999998,53.8000000000022,-3.00000000000171));
#1725=CARTESIAN_POINT('Origin',(142.749999999996,62.5,-3.00000000000171));
#1726=CARTESIAN_POINT('',(141.149999999996,62.5,-3.00000000000171));
#1727=CARTESIAN_POINT('Origin',(131.349999999998,53.7999999999989,-3.00000000000171));
#1728=CARTESIAN_POINT('',(129.749999999998,53.7999999999989,-3.00000000000171));
#1729=CARTESIAN_POINT('Origin',(156.749999999996,69.7999999999796,1.80966353013898E-13));
#1730=CARTESIAN_POINT('',(158.749999999996,64.3999999999796,1.80721423654069E-13));
#1731=CARTESIAN_POINT('',(158.749999999996,69.7999999999796,1.81211282373728E-13));
#1732=CARTESIAN_POINT('Origin',(156.749999999996,64.3999999999796,1.80966353013898E-13));
#1733=CARTESIAN_POINT('Origin',(156.749999999996,64.3999999999796,1.80966353013898E-13));
#1734=CARTESIAN_POINT('Origin',(128.749999999997,69.7999999999795,-1.77635683940028E-13));
#1735=CARTESIAN_POINT('',(130.749999999997,64.3999999999795,-1.77880613299857E-13));
#1736=CARTESIAN_POINT('',(130.749999999997,69.7999999999795,-1.77390754580198E-13));
#1737=CARTESIAN_POINT('Origin',(128.749999999997,64.3999999999795,-1.77635683940027E-13));
#1738=CARTESIAN_POINT('Origin',(128.749999999997,64.3999999999795,-1.77635683940027E-13));
#1739=CARTESIAN_POINT('Origin',(142.749999999996,69.7999999999796,1.11022302462491E-14));
#1740=CARTESIAN_POINT('',(144.749999999996,69.7999999999796,1.08573008864196E-14));
#1741=CARTESIAN_POINT('Origin',(142.749999999996,69.7999999999795,1.11022302462491E-14));
#1742=CARTESIAN_POINT('',(144.749999999996,64.3999999999796,1.08573008864198E-14));
#1743=CARTESIAN_POINT('',(144.749999999996,69.7999999999796,1.13471596060786E-14));
#1744=CARTESIAN_POINT('Origin',(142.749999999996,64.3999999999796,1.11022302462493E-14));
#1745=CARTESIAN_POINT('Origin',(142.749999999996,64.3999999999796,1.11022302462493E-14));
#1746=CARTESIAN_POINT('Origin',(133.949999999998,45.9999999999977,-3.00000000000009));
#1747=CARTESIAN_POINT('',(133.949999999998,45.9999999999977,-3.00000000000009));
#1748=CARTESIAN_POINT('Origin',(151.55,46.0000000000004,-2.99999999999988));
#1749=CARTESIAN_POINT('',(135.549999999998,45.9999999999979,-3.00000000000007));
#1750=CARTESIAN_POINT('',(149.049999999998,46.,-2.99999999999991));
#1751=CARTESIAN_POINT('Origin',(149.049999999998,46.,-2.99999999999991));
#1752=CARTESIAN_POINT('',(149.049999999998,54.3000000000003,-2.99999999999991));
#1753=CARTESIAN_POINT('Origin',(149.049999999998,54.3000000000003,-2.99999999999991));
#1754=CARTESIAN_POINT('',(139.749999999997,54.2999999999999,-3.00000000000002));
#1755=CARTESIAN_POINT('Origin',(139.749999999997,54.2999999999999,-3.00000000000002));
#1756=CARTESIAN_POINT('Origin',(135.333363680461,62.646869567246,-3.00000000000007));
#1757=CARTESIAN_POINT('Origin',(135.549999999998,55.9999999999979,-3.00000000000007));
#1758=CARTESIAN_POINT('Origin',(124.749999999997,69.299999999999,-3.0000000000002));
#1759=CARTESIAN_POINT('',(148.549999999996,69.2999999999795,1.48328272012445E-14));
#1760=CARTESIAN_POINT('Origin',(142.749999999996,69.299999999999,1.554312234475E-14));
#1761=CARTESIAN_POINT('Origin',(142.749999999996,69.7999999999795,1.554312234475E-14));
#1762=CARTESIAN_POINT('',(148.549999999996,69.7999999999795,1.48328272012445E-14));
#1763=CARTESIAN_POINT('Origin',(142.749999999996,69.7999999999795,1.554312234475E-14));
#1764=CARTESIAN_POINT('Origin',(142.749999999996,69.2999999999795,1.554312234475E-14));
#1765=CARTESIAN_POINT('',(148.549999999996,69.2999999999795,1.48328272012445E-14));
#1766=UNCERTAINTY_MEASURE_WITH_UNIT(LENGTH_MEASURE(0.01),#1770,
'DISTANCE_ACCURACY_VALUE',
'Maximum model space distance between geometric entities at asserted c
onnectivities');
#1767=UNCERTAINTY_MEASURE_WITH_UNIT(LENGTH_MEASURE(0.01),#1770,
'DISTANCE_ACCURACY_VALUE',
'Maximum model space distance between geometric entities at asserted c
onnectivities');
#1768=(
GEOMETRIC_REPRESENTATION_CONTEXT(3)
GLOBAL_UNCERTAINTY_ASSIGNED_CONTEXT((#1766))
GLOBAL_UNIT_ASSIGNED_CONTEXT((#1770,#1772,#1773))
REPRESENTATION_CONTEXT('','3D')
);
#1769=(
GEOMETRIC_REPRESENTATION_CONTEXT(3)
GLOBAL_UNCERTAINTY_ASSIGNED_CONTEXT((#1767))
GLOBAL_UNIT_ASSIGNED_CONTEXT((#1770,#1772,#1773))
REPRESENTATION_CONTEXT('','3D')
);
#1770=(
LENGTH_UNIT()
NAMED_UNIT(*)
SI_UNIT(.MILLI.,.METRE.)
);
#1771=(
LENGTH_UNIT()
NAMED_UNIT(*)
SI_UNIT($,.METRE.)
);
#1772=(
NAMED_UNIT(*)
PLANE_ANGLE_UNIT()
SI_UNIT($,.RADIAN.)
);
#1773=(
NAMED_UNIT(*)
SI_UNIT($,.STERADIAN.)
SOLID_ANGLE_UNIT()
);
#1774=SHAPE_DEFINITION_REPRESENTATION(#1775,#1776);
#1775=PRODUCT_DEFINITION_SHAPE('',$,#1778);
#1776=SHAPE_REPRESENTATION('',(#1056),#1768);
#1777=PRODUCT_DEFINITION_CONTEXT('part definition',#1782,'design');
#1778=PRODUCT_DEFINITION('Torque Cell Interface Case',
'Torque Cell Interface Case',#1779,#1777);
#1779=PRODUCT_DEFINITION_FORMATION('',$,#1784);
#1780=PRODUCT_RELATED_PRODUCT_CATEGORY('Torque Cell Interface Case',
'Torque Cell Interface Case',(#1784));
#1781=APPLICATION_PROTOCOL_DEFINITION('international standard',
'automotive_design',2009,#1782);
#1782=APPLICATION_CONTEXT(
'Core Data for Automotive Mechanical Design Process');
#1783=PRODUCT_CONTEXT('part definition',#1782,'mechanical');
#1784=PRODUCT('Torque Cell Interface Case','Torque Cell Interface Case',
$,(#1783));
#1785=PRESENTATION_STYLE_ASSIGNMENT((#1786));
#1786=SURFACE_STYLE_USAGE(.BOTH.,#1787);
#1787=SURFACE_SIDE_STYLE('',(#1788));
#1788=SURFACE_STYLE_FILL_AREA(#1789);
#1789=FILL_AREA_STYLE('Steel - Satin',(#1790));
#1790=FILL_AREA_STYLE_COLOUR('Steel - Satin',#1791);
#1791=COLOUR_RGB('Steel - Satin',0.627450980392157,0.627450980392157,0.627450980392157);
ENDSEC;
END-ISO-10303-21;
