ISO-10303-21;
HEADER;
/* Generated by software containing ST-Developer
 * from STEP Tools, Inc. (www.steptools.com) 
 */

FILE_DESCRIPTION(
/* description */ (''),
/* implementation_level */ '2;1');

FILE_NAME(
/* name */ 'Torque Load Cell v2.step',
/* time_stamp */ '2025-05-01T08:12:11+01:00',
/* author */ (''),
/* organization */ (''),
/* preprocessor_version */ 'ST-DEVELOPER v20.1',
/* originating_system */ 'Autodesk Translation Framework v14.4.0.0',
/* authorisation */ '');

FILE_SCHEMA (('AUTOMOTIVE_DESIGN { 1 0 10303 214 3 1 1 }'));
ENDSEC;

DATA;
#10=MECHANICAL_DESIGN_GEOMETRIC_PRESENTATION_REPRESENTATION('',(#13),#719);
#11=SHAPE_REPRESENTATION_RELATIONSHIP('SRR','None',#726,#12);
#12=ADVANCED_BREP_SHAPE_REPRESENTATION('',(#14),#718);
#13=STYLED_ITEM('',(#735),#14);
#14=MANIFOLD_SOLID_BREP('Body1',#443);
#15=FACE_BOUND('',#74,.T.);
#16=FACE_BOUND('',#75,.T.);
#17=FACE_BOUND('',#76,.T.);
#18=FACE_BOUND('',#77,.T.);
#19=FACE_BOUND('',#79,.T.);
#20=FACE_BOUND('',#80,.T.);
#21=FACE_BOUND('',#81,.T.);
#22=FACE_BOUND('',#82,.T.);
#23=CIRCLE('',#462,1.6);
#24=CIRCLE('',#463,1.6);
#25=CIRCLE('',#465,1.5);
#26=CIRCLE('',#466,1.5);
#27=CIRCLE('',#468,1.5);
#28=CIRCLE('',#469,1.5);
#29=CIRCLE('',#471,1.5);
#30=CIRCLE('',#472,1.5);
#31=CYLINDRICAL_SURFACE('',#461,1.6);
#32=CYLINDRICAL_SURFACE('',#464,1.5);
#33=CYLINDRICAL_SURFACE('',#467,1.5);
#34=CYLINDRICAL_SURFACE('',#470,1.5);
#35=FACE_OUTER_BOUND('',#55,.T.);
#36=FACE_OUTER_BOUND('',#56,.T.);
#37=FACE_OUTER_BOUND('',#57,.T.);
#38=FACE_OUTER_BOUND('',#58,.T.);
#39=FACE_OUTER_BOUND('',#59,.T.);
#40=FACE_OUTER_BOUND('',#60,.T.);
#41=FACE_OUTER_BOUND('',#61,.T.);
#42=FACE_OUTER_BOUND('',#62,.T.);
#43=FACE_OUTER_BOUND('',#63,.T.);
#44=FACE_OUTER_BOUND('',#64,.T.);
#45=FACE_OUTER_BOUND('',#65,.T.);
#46=FACE_OUTER_BOUND('',#66,.T.);
#47=FACE_OUTER_BOUND('',#67,.T.);
#48=FACE_OUTER_BOUND('',#68,.T.);
#49=FACE_OUTER_BOUND('',#69,.T.);
#50=FACE_OUTER_BOUND('',#70,.T.);
#51=FACE_OUTER_BOUND('',#71,.T.);
#52=FACE_OUTER_BOUND('',#72,.T.);
#53=FACE_OUTER_BOUND('',#73,.T.);
#54=FACE_OUTER_BOUND('',#78,.T.);
#55=EDGE_LOOP('',(#287,#288,#289,#290));
#56=EDGE_LOOP('',(#291,#292,#293,#294));
#57=EDGE_LOOP('',(#295,#296,#297,#298));
#58=EDGE_LOOP('',(#299,#300,#301,#302));
#59=EDGE_LOOP('',(#303,#304,#305,#306));
#60=EDGE_LOOP('',(#307,#308,#309,#310));
#61=EDGE_LOOP('',(#311,#312,#313,#314));
#62=EDGE_LOOP('',(#315,#316,#317,#318));
#63=EDGE_LOOP('',(#319,#320,#321,#322));
#64=EDGE_LOOP('',(#323,#324,#325,#326,#327,#328,#329,#330,#331,#332,#333,
#334));
#65=EDGE_LOOP('',(#335,#336,#337,#338));
#66=EDGE_LOOP('',(#339,#340,#341,#342));
#67=EDGE_LOOP('',(#343,#344,#345,#346));
#68=EDGE_LOOP('',(#347,#348,#349,#350));
#69=EDGE_LOOP('',(#351,#352,#353,#354));
#70=EDGE_LOOP('',(#355,#356,#357,#358));
#71=EDGE_LOOP('',(#359,#360,#361,#362));
#72=EDGE_LOOP('',(#363,#364,#365,#366,#367,#368,#369,#370,#371,#372,#373,
#374));
#73=EDGE_LOOP('',(#375,#376,#377,#378,#379,#380,#381,#382,#383,#384,#385,
#386));
#74=EDGE_LOOP('',(#387));
#75=EDGE_LOOP('',(#388));
#76=EDGE_LOOP('',(#389));
#77=EDGE_LOOP('',(#390));
#78=EDGE_LOOP('',(#391,#392,#393,#394,#395,#396,#397,#398,#399,#400,#401,
#402));
#79=EDGE_LOOP('',(#403));
#80=EDGE_LOOP('',(#404));
#81=EDGE_LOOP('',(#405));
#82=EDGE_LOOP('',(#406));
#83=LINE('',#599,#135);
#84=LINE('',#601,#136);
#85=LINE('',#603,#137);
#86=LINE('',#604,#138);
#87=LINE('',#608,#139);
#88=LINE('',#610,#140);
#89=LINE('',#612,#141);
#90=LINE('',#613,#142);
#91=LINE('',#616,#143);
#92=LINE('',#618,#144);
#93=LINE('',#619,#145);
#94=LINE('',#622,#146);
#95=LINE('',#624,#147);
#96=LINE('',#625,#148);
#97=LINE('',#630,#149);
#98=LINE('',#636,#150);
#99=LINE('',#642,#151);
#100=LINE('',#648,#152);
#101=LINE('',#652,#153);
#102=LINE('',#654,#154);
#103=LINE('',#655,#155);
#104=LINE('',#658,#156);
#105=LINE('',#660,#157);
#106=LINE('',#662,#158);
#107=LINE('',#664,#159);
#108=LINE('',#665,#160);
#109=LINE('',#667,#161);
#110=LINE('',#668,#162);
#111=LINE('',#671,#163);
#112=LINE('',#673,#164);
#113=LINE('',#674,#165);
#114=LINE('',#677,#166);
#115=LINE('',#679,#167);
#116=LINE('',#680,#168);
#117=LINE('',#682,#169);
#118=LINE('',#683,#170);
#119=LINE('',#686,#171);
#120=LINE('',#687,#172);
#121=LINE('',#691,#173);
#122=LINE('',#693,#174);
#123=LINE('',#695,#175);
#124=LINE('',#696,#176);
#125=LINE('',#699,#177);
#126=LINE('',#701,#178);
#127=LINE('',#702,#179);
#128=LINE('',#705,#180);
#129=LINE('',#707,#181);
#130=LINE('',#708,#182);
#131=LINE('',#710,#183);
#132=LINE('',#711,#184);
#133=LINE('',#712,#185);
#134=LINE('',#713,#186);
#135=VECTOR('',#489,10.);
#136=VECTOR('',#490,10.);
#137=VECTOR('',#491,10.);
#138=VECTOR('',#492,10.);
#139=VECTOR('',#495,10.);
#140=VECTOR('',#496,10.);
#141=VECTOR('',#497,10.);
#142=VECTOR('',#498,10.);
#143=VECTOR('',#501,10.);
#144=VECTOR('',#502,10.);
#145=VECTOR('',#503,10.);
#146=VECTOR('',#506,10.);
#147=VECTOR('',#507,10.);
#148=VECTOR('',#508,10.);
#149=VECTOR('',#513,1.6);
#150=VECTOR('',#520,1.5);
#151=VECTOR('',#527,1.5);
#152=VECTOR('',#534,1.5);
#153=VECTOR('',#539,10.);
#154=VECTOR('',#540,10.);
#155=VECTOR('',#541,10.);
#156=VECTOR('',#544,10.);
#157=VECTOR('',#545,10.);
#158=VECTOR('',#546,10.);
#159=VECTOR('',#547,10.);
#160=VECTOR('',#548,10.);
#161=VECTOR('',#549,10.);
#162=VECTOR('',#550,10.);
#163=VECTOR('',#553,10.);
#164=VECTOR('',#554,10.);
#165=VECTOR('',#555,10.);
#166=VECTOR('',#558,10.);
#167=VECTOR('',#559,10.);
#168=VECTOR('',#560,10.);
#169=VECTOR('',#563,10.);
#170=VECTOR('',#564,10.);
#171=VECTOR('',#567,10.);
#172=VECTOR('',#568,10.);
#173=VECTOR('',#571,10.);
#174=VECTOR('',#572,10.);
#175=VECTOR('',#573,10.);
#176=VECTOR('',#574,10.);
#177=VECTOR('',#577,10.);
#178=VECTOR('',#578,10.);
#179=VECTOR('',#579,10.);
#180=VECTOR('',#582,10.);
#181=VECTOR('',#583,10.);
#182=VECTOR('',#584,10.);
#183=VECTOR('',#587,10.);
#184=VECTOR('',#588,10.);
#185=VECTOR('',#589,10.);
#186=VECTOR('',#590,10.);
#187=VERTEX_POINT('',#597);
#188=VERTEX_POINT('',#598);
#189=VERTEX_POINT('',#600);
#190=VERTEX_POINT('',#602);
#191=VERTEX_POINT('',#606);
#192=VERTEX_POINT('',#607);
#193=VERTEX_POINT('',#609);
#194=VERTEX_POINT('',#611);
#195=VERTEX_POINT('',#615);
#196=VERTEX_POINT('',#617);
#197=VERTEX_POINT('',#621);
#198=VERTEX_POINT('',#623);
#199=VERTEX_POINT('',#627);
#200=VERTEX_POINT('',#629);
#201=VERTEX_POINT('',#633);
#202=VERTEX_POINT('',#635);
#203=VERTEX_POINT('',#639);
#204=VERTEX_POINT('',#641);
#205=VERTEX_POINT('',#645);
#206=VERTEX_POINT('',#647);
#207=VERTEX_POINT('',#651);
#208=VERTEX_POINT('',#653);
#209=VERTEX_POINT('',#657);
#210=VERTEX_POINT('',#659);
#211=VERTEX_POINT('',#661);
#212=VERTEX_POINT('',#663);
#213=VERTEX_POINT('',#666);
#214=VERTEX_POINT('',#670);
#215=VERTEX_POINT('',#672);
#216=VERTEX_POINT('',#676);
#217=VERTEX_POINT('',#678);
#218=VERTEX_POINT('',#685);
#219=VERTEX_POINT('',#689);
#220=VERTEX_POINT('',#690);
#221=VERTEX_POINT('',#692);
#222=VERTEX_POINT('',#694);
#223=VERTEX_POINT('',#698);
#224=VERTEX_POINT('',#700);
#225=VERTEX_POINT('',#704);
#226=VERTEX_POINT('',#706);
#227=EDGE_CURVE('',#187,#188,#83,.T.);
#228=EDGE_CURVE('',#189,#187,#84,.T.);
#229=EDGE_CURVE('',#190,#189,#85,.T.);
#230=EDGE_CURVE('',#190,#188,#86,.T.);
#231=EDGE_CURVE('',#191,#192,#87,.T.);
#232=EDGE_CURVE('',#193,#191,#88,.T.);
#233=EDGE_CURVE('',#194,#193,#89,.T.);
#234=EDGE_CURVE('',#194,#192,#90,.T.);
#235=EDGE_CURVE('',#195,#193,#91,.T.);
#236=EDGE_CURVE('',#195,#196,#92,.T.);
#237=EDGE_CURVE('',#196,#194,#93,.T.);
#238=EDGE_CURVE('',#188,#197,#94,.T.);
#239=EDGE_CURVE('',#198,#197,#95,.T.);
#240=EDGE_CURVE('',#187,#198,#96,.T.);
#241=EDGE_CURVE('',#199,#199,#23,.T.);
#242=EDGE_CURVE('',#199,#200,#97,.T.);
#243=EDGE_CURVE('',#200,#200,#24,.T.);
#244=EDGE_CURVE('',#201,#201,#25,.T.);
#245=EDGE_CURVE('',#201,#202,#98,.T.);
#246=EDGE_CURVE('',#202,#202,#26,.T.);
#247=EDGE_CURVE('',#203,#203,#27,.T.);
#248=EDGE_CURVE('',#203,#204,#99,.T.);
#249=EDGE_CURVE('',#204,#204,#28,.T.);
#250=EDGE_CURVE('',#205,#205,#29,.T.);
#251=EDGE_CURVE('',#205,#206,#100,.T.);
#252=EDGE_CURVE('',#206,#206,#30,.T.);
#253=EDGE_CURVE('',#189,#207,#101,.T.);
#254=EDGE_CURVE('',#208,#207,#102,.T.);
#255=EDGE_CURVE('',#190,#208,#103,.T.);
#256=EDGE_CURVE('',#195,#209,#104,.T.);
#257=EDGE_CURVE('',#210,#191,#105,.T.);
#258=EDGE_CURVE('',#211,#210,#106,.T.);
#259=EDGE_CURVE('',#211,#212,#107,.T.);
#260=EDGE_CURVE('',#197,#212,#108,.T.);
#261=EDGE_CURVE('',#213,#208,#109,.T.);
#262=EDGE_CURVE('',#209,#213,#110,.T.);
#263=EDGE_CURVE('',#209,#214,#111,.T.);
#264=EDGE_CURVE('',#215,#213,#112,.T.);
#265=EDGE_CURVE('',#214,#215,#113,.T.);
#266=EDGE_CURVE('',#214,#216,#114,.T.);
#267=EDGE_CURVE('',#217,#215,#115,.T.);
#268=EDGE_CURVE('',#216,#217,#116,.T.);
#269=EDGE_CURVE('',#216,#211,#117,.T.);
#270=EDGE_CURVE('',#212,#217,#118,.T.);
#271=EDGE_CURVE('',#218,#192,#119,.T.);
#272=EDGE_CURVE('',#210,#218,#120,.T.);
#273=EDGE_CURVE('',#219,#220,#121,.T.);
#274=EDGE_CURVE('',#220,#221,#122,.T.);
#275=EDGE_CURVE('',#222,#221,#123,.T.);
#276=EDGE_CURVE('',#219,#222,#124,.T.);
#277=EDGE_CURVE('',#223,#219,#125,.T.);
#278=EDGE_CURVE('',#224,#222,#126,.T.);
#279=EDGE_CURVE('',#223,#224,#127,.T.);
#280=EDGE_CURVE('',#225,#223,#128,.T.);
#281=EDGE_CURVE('',#226,#224,#129,.T.);
#282=EDGE_CURVE('',#225,#226,#130,.T.);
#283=EDGE_CURVE('',#196,#225,#131,.T.);
#284=EDGE_CURVE('',#207,#226,#132,.T.);
#285=EDGE_CURVE('',#221,#198,#133,.T.);
#286=EDGE_CURVE('',#220,#218,#134,.T.);
#287=ORIENTED_EDGE('',*,*,#227,.F.);
#288=ORIENTED_EDGE('',*,*,#228,.F.);
#289=ORIENTED_EDGE('',*,*,#229,.F.);
#290=ORIENTED_EDGE('',*,*,#230,.T.);
#291=ORIENTED_EDGE('',*,*,#231,.F.);
#292=ORIENTED_EDGE('',*,*,#232,.F.);
#293=ORIENTED_EDGE('',*,*,#233,.F.);
#294=ORIENTED_EDGE('',*,*,#234,.T.);
#295=ORIENTED_EDGE('',*,*,#233,.T.);
#296=ORIENTED_EDGE('',*,*,#235,.F.);
#297=ORIENTED_EDGE('',*,*,#236,.T.);
#298=ORIENTED_EDGE('',*,*,#237,.T.);
#299=ORIENTED_EDGE('',*,*,#227,.T.);
#300=ORIENTED_EDGE('',*,*,#238,.T.);
#301=ORIENTED_EDGE('',*,*,#239,.F.);
#302=ORIENTED_EDGE('',*,*,#240,.F.);
#303=ORIENTED_EDGE('',*,*,#241,.F.);
#304=ORIENTED_EDGE('',*,*,#242,.T.);
#305=ORIENTED_EDGE('',*,*,#243,.T.);
#306=ORIENTED_EDGE('',*,*,#242,.F.);
#307=ORIENTED_EDGE('',*,*,#244,.F.);
#308=ORIENTED_EDGE('',*,*,#245,.T.);
#309=ORIENTED_EDGE('',*,*,#246,.T.);
#310=ORIENTED_EDGE('',*,*,#245,.F.);
#311=ORIENTED_EDGE('',*,*,#247,.F.);
#312=ORIENTED_EDGE('',*,*,#248,.T.);
#313=ORIENTED_EDGE('',*,*,#249,.T.);
#314=ORIENTED_EDGE('',*,*,#248,.F.);
#315=ORIENTED_EDGE('',*,*,#250,.F.);
#316=ORIENTED_EDGE('',*,*,#251,.T.);
#317=ORIENTED_EDGE('',*,*,#252,.T.);
#318=ORIENTED_EDGE('',*,*,#251,.F.);
#319=ORIENTED_EDGE('',*,*,#229,.T.);
#320=ORIENTED_EDGE('',*,*,#253,.T.);
#321=ORIENTED_EDGE('',*,*,#254,.F.);
#322=ORIENTED_EDGE('',*,*,#255,.F.);
#323=ORIENTED_EDGE('',*,*,#256,.F.);
#324=ORIENTED_EDGE('',*,*,#235,.T.);
#325=ORIENTED_EDGE('',*,*,#232,.T.);
#326=ORIENTED_EDGE('',*,*,#257,.F.);
#327=ORIENTED_EDGE('',*,*,#258,.F.);
#328=ORIENTED_EDGE('',*,*,#259,.T.);
#329=ORIENTED_EDGE('',*,*,#260,.F.);
#330=ORIENTED_EDGE('',*,*,#238,.F.);
#331=ORIENTED_EDGE('',*,*,#230,.F.);
#332=ORIENTED_EDGE('',*,*,#255,.T.);
#333=ORIENTED_EDGE('',*,*,#261,.F.);
#334=ORIENTED_EDGE('',*,*,#262,.F.);
#335=ORIENTED_EDGE('',*,*,#263,.F.);
#336=ORIENTED_EDGE('',*,*,#262,.T.);
#337=ORIENTED_EDGE('',*,*,#264,.F.);
#338=ORIENTED_EDGE('',*,*,#265,.F.);
#339=ORIENTED_EDGE('',*,*,#266,.F.);
#340=ORIENTED_EDGE('',*,*,#265,.T.);
#341=ORIENTED_EDGE('',*,*,#267,.F.);
#342=ORIENTED_EDGE('',*,*,#268,.F.);
#343=ORIENTED_EDGE('',*,*,#269,.F.);
#344=ORIENTED_EDGE('',*,*,#268,.T.);
#345=ORIENTED_EDGE('',*,*,#270,.F.);
#346=ORIENTED_EDGE('',*,*,#259,.F.);
#347=ORIENTED_EDGE('',*,*,#231,.T.);
#348=ORIENTED_EDGE('',*,*,#271,.F.);
#349=ORIENTED_EDGE('',*,*,#272,.F.);
#350=ORIENTED_EDGE('',*,*,#257,.T.);
#351=ORIENTED_EDGE('',*,*,#273,.T.);
#352=ORIENTED_EDGE('',*,*,#274,.T.);
#353=ORIENTED_EDGE('',*,*,#275,.F.);
#354=ORIENTED_EDGE('',*,*,#276,.F.);
#355=ORIENTED_EDGE('',*,*,#277,.T.);
#356=ORIENTED_EDGE('',*,*,#276,.T.);
#357=ORIENTED_EDGE('',*,*,#278,.F.);
#358=ORIENTED_EDGE('',*,*,#279,.F.);
#359=ORIENTED_EDGE('',*,*,#280,.T.);
#360=ORIENTED_EDGE('',*,*,#279,.T.);
#361=ORIENTED_EDGE('',*,*,#281,.F.);
#362=ORIENTED_EDGE('',*,*,#282,.F.);
#363=ORIENTED_EDGE('',*,*,#283,.T.);
#364=ORIENTED_EDGE('',*,*,#282,.T.);
#365=ORIENTED_EDGE('',*,*,#284,.F.);
#366=ORIENTED_EDGE('',*,*,#253,.F.);
#367=ORIENTED_EDGE('',*,*,#228,.T.);
#368=ORIENTED_EDGE('',*,*,#240,.T.);
#369=ORIENTED_EDGE('',*,*,#285,.F.);
#370=ORIENTED_EDGE('',*,*,#274,.F.);
#371=ORIENTED_EDGE('',*,*,#286,.T.);
#372=ORIENTED_EDGE('',*,*,#271,.T.);
#373=ORIENTED_EDGE('',*,*,#234,.F.);
#374=ORIENTED_EDGE('',*,*,#237,.F.);
#375=ORIENTED_EDGE('',*,*,#284,.T.);
#376=ORIENTED_EDGE('',*,*,#281,.T.);
#377=ORIENTED_EDGE('',*,*,#278,.T.);
#378=ORIENTED_EDGE('',*,*,#275,.T.);
#379=ORIENTED_EDGE('',*,*,#285,.T.);
#380=ORIENTED_EDGE('',*,*,#239,.T.);
#381=ORIENTED_EDGE('',*,*,#260,.T.);
#382=ORIENTED_EDGE('',*,*,#270,.T.);
#383=ORIENTED_EDGE('',*,*,#267,.T.);
#384=ORIENTED_EDGE('',*,*,#264,.T.);
#385=ORIENTED_EDGE('',*,*,#261,.T.);
#386=ORIENTED_EDGE('',*,*,#254,.T.);
#387=ORIENTED_EDGE('',*,*,#250,.T.);
#388=ORIENTED_EDGE('',*,*,#247,.T.);
#389=ORIENTED_EDGE('',*,*,#244,.T.);
#390=ORIENTED_EDGE('',*,*,#241,.T.);
#391=ORIENTED_EDGE('',*,*,#283,.F.);
#392=ORIENTED_EDGE('',*,*,#236,.F.);
#393=ORIENTED_EDGE('',*,*,#256,.T.);
#394=ORIENTED_EDGE('',*,*,#263,.T.);
#395=ORIENTED_EDGE('',*,*,#266,.T.);
#396=ORIENTED_EDGE('',*,*,#269,.T.);
#397=ORIENTED_EDGE('',*,*,#258,.T.);
#398=ORIENTED_EDGE('',*,*,#272,.T.);
#399=ORIENTED_EDGE('',*,*,#286,.F.);
#400=ORIENTED_EDGE('',*,*,#273,.F.);
#401=ORIENTED_EDGE('',*,*,#277,.F.);
#402=ORIENTED_EDGE('',*,*,#280,.F.);
#403=ORIENTED_EDGE('',*,*,#252,.F.);
#404=ORIENTED_EDGE('',*,*,#249,.F.);
#405=ORIENTED_EDGE('',*,*,#246,.F.);
#406=ORIENTED_EDGE('',*,*,#243,.F.);
#407=PLANE('',#457);
#408=PLANE('',#458);
#409=PLANE('',#459);
#410=PLANE('',#460);
#411=PLANE('',#473);
#412=PLANE('',#474);
#413=PLANE('',#475);
#414=PLANE('',#476);
#415=PLANE('',#477);
#416=PLANE('',#478);
#417=PLANE('',#479);
#418=PLANE('',#480);
#419=PLANE('',#481);
#420=PLANE('',#482);
#421=PLANE('',#483);
#422=PLANE('',#484);
#423=ADVANCED_FACE('',(#35),#407,.F.);
#424=ADVANCED_FACE('',(#36),#408,.F.);
#425=ADVANCED_FACE('',(#37),#409,.T.);
#426=ADVANCED_FACE('',(#38),#410,.T.);
#427=ADVANCED_FACE('',(#39),#31,.F.);
#428=ADVANCED_FACE('',(#40),#32,.F.);
#429=ADVANCED_FACE('',(#41),#33,.F.);
#430=ADVANCED_FACE('',(#42),#34,.F.);
#431=ADVANCED_FACE('',(#43),#411,.T.);
#432=ADVANCED_FACE('',(#44),#412,.T.);
#433=ADVANCED_FACE('',(#45),#413,.T.);
#434=ADVANCED_FACE('',(#46),#414,.T.);
#435=ADVANCED_FACE('',(#47),#415,.T.);
#436=ADVANCED_FACE('',(#48),#416,.T.);
#437=ADVANCED_FACE('',(#49),#417,.T.);
#438=ADVANCED_FACE('',(#50),#418,.T.);
#439=ADVANCED_FACE('',(#51),#419,.T.);
#440=ADVANCED_FACE('',(#52),#420,.T.);
#441=ADVANCED_FACE('',(#53,#15,#16,#17,#18),#421,.T.);
#442=ADVANCED_FACE('',(#54,#19,#20,#21,#22),#422,.F.);
#443=CLOSED_SHELL('',(#423,#424,#425,#426,#427,#428,#429,#430,#431,#432,
#433,#434,#435,#436,#437,#438,#439,#440,#441,#442));
#444=DERIVED_UNIT_ELEMENT(#446,1.);
#445=DERIVED_UNIT_ELEMENT(#721,-3.);
#446=(
MASS_UNIT()
NAMED_UNIT(*)
SI_UNIT(.KILO.,.GRAM.)
);
#447=DERIVED_UNIT((#444,#445));
#448=MEASURE_REPRESENTATION_ITEM('density measure',
POSITIVE_RATIO_MEASURE(7850.),#447);
#449=PROPERTY_DEFINITION_REPRESENTATION(#454,#451);
#450=PROPERTY_DEFINITION_REPRESENTATION(#455,#452);
#451=REPRESENTATION('material name',(#453),#718);
#452=REPRESENTATION('density',(#448),#718);
#453=DESCRIPTIVE_REPRESENTATION_ITEM('Steel','Steel');
#454=PROPERTY_DEFINITION('material property','material name',#728);
#455=PROPERTY_DEFINITION('material property','density of part',#728);
#456=AXIS2_PLACEMENT_3D('',#595,#485,#486);
#457=AXIS2_PLACEMENT_3D('',#596,#487,#488);
#458=AXIS2_PLACEMENT_3D('',#605,#493,#494);
#459=AXIS2_PLACEMENT_3D('',#614,#499,#500);
#460=AXIS2_PLACEMENT_3D('',#620,#504,#505);
#461=AXIS2_PLACEMENT_3D('',#626,#509,#510);
#462=AXIS2_PLACEMENT_3D('',#628,#511,#512);
#463=AXIS2_PLACEMENT_3D('',#631,#514,#515);
#464=AXIS2_PLACEMENT_3D('',#632,#516,#517);
#465=AXIS2_PLACEMENT_3D('',#634,#518,#519);
#466=AXIS2_PLACEMENT_3D('',#637,#521,#522);
#467=AXIS2_PLACEMENT_3D('',#638,#523,#524);
#468=AXIS2_PLACEMENT_3D('',#640,#525,#526);
#469=AXIS2_PLACEMENT_3D('',#643,#528,#529);
#470=AXIS2_PLACEMENT_3D('',#644,#530,#531);
#471=AXIS2_PLACEMENT_3D('',#646,#532,#533);
#472=AXIS2_PLACEMENT_3D('',#649,#535,#536);
#473=AXIS2_PLACEMENT_3D('',#650,#537,#538);
#474=AXIS2_PLACEMENT_3D('',#656,#542,#543);
#475=AXIS2_PLACEMENT_3D('',#669,#551,#552);
#476=AXIS2_PLACEMENT_3D('',#675,#556,#557);
#477=AXIS2_PLACEMENT_3D('',#681,#561,#562);
#478=AXIS2_PLACEMENT_3D('',#684,#565,#566);
#479=AXIS2_PLACEMENT_3D('',#688,#569,#570);
#480=AXIS2_PLACEMENT_3D('',#697,#575,#576);
#481=AXIS2_PLACEMENT_3D('',#703,#580,#581);
#482=AXIS2_PLACEMENT_3D('',#709,#585,#586);
#483=AXIS2_PLACEMENT_3D('',#714,#591,#592);
#484=AXIS2_PLACEMENT_3D('',#715,#593,#594);
#485=DIRECTION('axis',(0.,0.,1.));
#486=DIRECTION('refdir',(1.,0.,0.));
#487=DIRECTION('center_axis',(-1.,0.,0.));
#488=DIRECTION('ref_axis',(0.,1.,0.));
#489=DIRECTION('',(0.,-1.,0.));
#490=DIRECTION('',(0.,0.,-1.));
#491=DIRECTION('',(0.,1.,0.));
#492=DIRECTION('',(0.,0.,-1.));
#493=DIRECTION('center_axis',(1.,0.,0.));
#494=DIRECTION('ref_axis',(0.,-1.,0.));
#495=DIRECTION('',(0.,1.,0.));
#496=DIRECTION('',(0.,0.,-1.));
#497=DIRECTION('',(0.,-1.,0.));
#498=DIRECTION('',(0.,0.,-1.));
#499=DIRECTION('center_axis',(0.,0.,1.));
#500=DIRECTION('ref_axis',(0.,1.,0.));
#501=DIRECTION('',(-1.,0.,0.));
#502=DIRECTION('',(0.,1.,0.));
#503=DIRECTION('',(-1.,0.,0.));
#504=DIRECTION('center_axis',(0.,0.,-1.));
#505=DIRECTION('ref_axis',(0.,-1.,0.));
#506=DIRECTION('',(-1.,0.,0.));
#507=DIRECTION('',(0.,-1.,0.));
#508=DIRECTION('',(-1.,0.,0.));
#509=DIRECTION('center_axis',(-1.,0.,0.));
#510=DIRECTION('ref_axis',(0.,0.,1.));
#511=DIRECTION('center_axis',(1.,0.,0.));
#512=DIRECTION('ref_axis',(0.,0.,1.));
#513=DIRECTION('',(1.,0.,0.));
#514=DIRECTION('center_axis',(1.,0.,0.));
#515=DIRECTION('ref_axis',(0.,0.,1.));
#516=DIRECTION('center_axis',(-1.,0.,0.));
#517=DIRECTION('ref_axis',(0.,0.,1.));
#518=DIRECTION('center_axis',(1.,0.,0.));
#519=DIRECTION('ref_axis',(0.,0.,1.));
#520=DIRECTION('',(1.,0.,0.));
#521=DIRECTION('center_axis',(1.,0.,0.));
#522=DIRECTION('ref_axis',(0.,0.,1.));
#523=DIRECTION('center_axis',(-1.,0.,0.));
#524=DIRECTION('ref_axis',(0.,0.,1.));
#525=DIRECTION('center_axis',(1.,0.,0.));
#526=DIRECTION('ref_axis',(0.,0.,1.));
#527=DIRECTION('',(1.,0.,0.));
#528=DIRECTION('center_axis',(1.,0.,0.));
#529=DIRECTION('ref_axis',(0.,0.,1.));
#530=DIRECTION('center_axis',(-1.,0.,0.));
#531=DIRECTION('ref_axis',(0.,0.,1.));
#532=DIRECTION('center_axis',(1.,0.,0.));
#533=DIRECTION('ref_axis',(0.,0.,1.));
#534=DIRECTION('',(1.,0.,0.));
#535=DIRECTION('center_axis',(1.,0.,0.));
#536=DIRECTION('ref_axis',(0.,0.,1.));
#537=DIRECTION('center_axis',(0.,0.,1.));
#538=DIRECTION('ref_axis',(0.,1.,0.));
#539=DIRECTION('',(-1.,0.,0.));
#540=DIRECTION('',(0.,1.,0.));
#541=DIRECTION('',(-1.,0.,0.));
#542=DIRECTION('center_axis',(0.,1.,0.));
#543=DIRECTION('ref_axis',(0.,0.,-1.));
#544=DIRECTION('',(0.,0.,1.));
#545=DIRECTION('',(-1.,0.,0.));
#546=DIRECTION('',(0.,0.,1.));
#547=DIRECTION('',(-1.,0.,0.));
#548=DIRECTION('',(0.,0.,-1.));
#549=DIRECTION('',(0.,0.,-1.));
#550=DIRECTION('',(-1.,0.,0.));
#551=DIRECTION('center_axis',(0.,-3.1720657846433E-16,1.));
#552=DIRECTION('ref_axis',(0.,1.,3.1720657846433E-16));
#553=DIRECTION('',(0.,-1.,-3.1720657846433E-16));
#554=DIRECTION('',(0.,1.,3.1720657846433E-16));
#555=DIRECTION('',(-1.,0.,0.));
#556=DIRECTION('center_axis',(0.,-1.,1.8503717077086E-16));
#557=DIRECTION('ref_axis',(0.,1.8503717077086E-16,1.));
#558=DIRECTION('',(0.,-1.8503717077086E-16,-1.));
#559=DIRECTION('',(0.,1.8503717077086E-16,1.));
#560=DIRECTION('',(-1.,0.,0.));
#561=DIRECTION('center_axis',(0.,0.,-1.));
#562=DIRECTION('ref_axis',(0.,-1.,0.));
#563=DIRECTION('',(0.,1.,0.));
#564=DIRECTION('',(0.,-1.,0.));
#565=DIRECTION('center_axis',(0.,0.,-1.));
#566=DIRECTION('ref_axis',(0.,-1.,0.));
#567=DIRECTION('',(-1.,0.,0.));
#568=DIRECTION('',(0.,1.,0.));
#569=DIRECTION('center_axis',(0.,0.,-1.));
#570=DIRECTION('ref_axis',(0.,-1.,0.));
#571=DIRECTION('',(0.,-1.,0.));
#572=DIRECTION('',(-1.,0.,0.));
#573=DIRECTION('',(0.,-1.,0.));
#574=DIRECTION('',(-1.,0.,0.));
#575=DIRECTION('center_axis',(0.,1.,0.));
#576=DIRECTION('ref_axis',(0.,0.,-1.));
#577=DIRECTION('',(0.,0.,-1.));
#578=DIRECTION('',(0.,0.,-1.));
#579=DIRECTION('',(-1.,0.,0.));
#580=DIRECTION('center_axis',(0.,3.1720657846433E-16,1.));
#581=DIRECTION('ref_axis',(0.,1.,-3.1720657846433E-16));
#582=DIRECTION('',(0.,1.,-3.1720657846433E-16));
#583=DIRECTION('',(0.,1.,-3.1720657846433E-16));
#584=DIRECTION('',(-1.,0.,0.));
#585=DIRECTION('center_axis',(0.,-1.,0.));
#586=DIRECTION('ref_axis',(0.,0.,1.));
#587=DIRECTION('',(0.,0.,1.));
#588=DIRECTION('',(0.,0.,1.));
#589=DIRECTION('',(0.,0.,1.));
#590=DIRECTION('',(0.,0.,1.));
#591=DIRECTION('center_axis',(-1.,0.,0.));
#592=DIRECTION('ref_axis',(0.,0.,1.));
#593=DIRECTION('center_axis',(-1.,0.,0.));
#594=DIRECTION('ref_axis',(0.,0.,1.));
#595=CARTESIAN_POINT('',(0.,0.,0.));
#596=CARTESIAN_POINT('Origin',(-1.108537992416,17.,-16.));
#597=CARTESIAN_POINT('',(-1.108537992416,50.,-24.));
#598=CARTESIAN_POINT('',(-1.108537992416,17.,-24.));
#599=CARTESIAN_POINT('',(-1.108537992416,33.5,-24.));
#600=CARTESIAN_POINT('',(-1.108537992416,50.,-16.));
#601=CARTESIAN_POINT('',(-1.108537992416,50.,-16.));
#602=CARTESIAN_POINT('',(-1.108537992416,17.,-16.));
#603=CARTESIAN_POINT('',(-1.108537992416,17.,-16.));
#604=CARTESIAN_POINT('',(-1.108537992416,17.,-16.));
#605=CARTESIAN_POINT('Origin',(1.22717315618454,50.,-16.));
#606=CARTESIAN_POINT('',(1.22717315618454,17.,-24.));
#607=CARTESIAN_POINT('',(1.22717315618454,50.,-24.));
#608=CARTESIAN_POINT('',(1.22717315618454,50.,-24.));
#609=CARTESIAN_POINT('',(1.22717315618454,17.,-16.));
#610=CARTESIAN_POINT('',(1.22717315618454,17.,-16.));
#611=CARTESIAN_POINT('',(1.22717315618454,50.,-16.));
#612=CARTESIAN_POINT('',(1.22717315618454,33.5,-16.));
#613=CARTESIAN_POINT('',(1.22717315618454,50.,-16.));
#614=CARTESIAN_POINT('Origin',(3.1,17.,-16.));
#615=CARTESIAN_POINT('',(3.1,17.,-16.));
#616=CARTESIAN_POINT('',(3.1,17.,-16.));
#617=CARTESIAN_POINT('',(3.1,50.,-16.));
#618=CARTESIAN_POINT('',(3.1,17.,-16.));
#619=CARTESIAN_POINT('',(3.1,50.,-16.));
#620=CARTESIAN_POINT('Origin',(3.1,50.,-24.));
#621=CARTESIAN_POINT('',(-2.9,17.,-24.));
#622=CARTESIAN_POINT('',(3.1,17.,-24.));
#623=CARTESIAN_POINT('',(-2.9,50.,-24.));
#624=CARTESIAN_POINT('',(-2.9,33.5,-24.));
#625=CARTESIAN_POINT('',(3.1,50.,-24.));
#626=CARTESIAN_POINT('Origin',(3.1,13.5,-23.));
#627=CARTESIAN_POINT('',(-2.9,13.5,-24.6));
#628=CARTESIAN_POINT('Origin',(-2.9,13.5,-23.));
#629=CARTESIAN_POINT('',(3.1,13.5,-24.6));
#630=CARTESIAN_POINT('',(3.1,13.5,-24.6));
#631=CARTESIAN_POINT('Origin',(3.1,13.5,-23.));
#632=CARTESIAN_POINT('Origin',(3.1,13.5,-17.));
#633=CARTESIAN_POINT('',(-2.9,13.5,-18.5));
#634=CARTESIAN_POINT('Origin',(-2.9,13.5,-17.));
#635=CARTESIAN_POINT('',(3.1,13.5,-18.5));
#636=CARTESIAN_POINT('',(3.1,13.5,-18.5));
#637=CARTESIAN_POINT('Origin',(3.1,13.5,-17.));
#638=CARTESIAN_POINT('Origin',(3.1,53.5,-23.));
#639=CARTESIAN_POINT('',(-2.9,53.5,-24.5));
#640=CARTESIAN_POINT('Origin',(-2.9,53.5,-23.));
#641=CARTESIAN_POINT('',(3.1,53.5,-24.5));
#642=CARTESIAN_POINT('',(3.1,53.5,-24.5));
#643=CARTESIAN_POINT('Origin',(3.1,53.5,-23.));
#644=CARTESIAN_POINT('Origin',(3.1,53.5,-17.));
#645=CARTESIAN_POINT('',(-2.9,53.5,-18.5));
#646=CARTESIAN_POINT('Origin',(-2.9,53.5,-17.));
#647=CARTESIAN_POINT('',(3.1,53.5,-18.5));
#648=CARTESIAN_POINT('',(3.1,53.5,-18.5));
#649=CARTESIAN_POINT('Origin',(3.1,53.5,-17.));
#650=CARTESIAN_POINT('Origin',(3.1,17.,-16.));
#651=CARTESIAN_POINT('',(-2.9,50.,-16.));
#652=CARTESIAN_POINT('',(3.1,50.,-16.));
#653=CARTESIAN_POINT('',(-2.9,17.,-16.));
#654=CARTESIAN_POINT('',(-2.9,17.,-16.));
#655=CARTESIAN_POINT('',(3.1,17.,-16.));
#656=CARTESIAN_POINT('Origin',(3.1,17.,-14.));
#657=CARTESIAN_POINT('',(3.1,17.,-14.));
#658=CARTESIAN_POINT('',(3.1,17.,-26.));
#659=CARTESIAN_POINT('',(3.1,17.,-24.));
#660=CARTESIAN_POINT('',(3.1,17.,-24.));
#661=CARTESIAN_POINT('',(3.1,17.,-26.));
#662=CARTESIAN_POINT('',(3.1,17.,-26.));
#663=CARTESIAN_POINT('',(-2.9,17.,-26.));
#664=CARTESIAN_POINT('',(3.1,17.,-26.));
#665=CARTESIAN_POINT('',(-2.9,17.,-26.));
#666=CARTESIAN_POINT('',(-2.9,17.,-14.));
#667=CARTESIAN_POINT('',(-2.9,17.,-26.));
#668=CARTESIAN_POINT('',(3.1,17.,-14.));
#669=CARTESIAN_POINT('Origin',(3.1,10.,-14.));
#670=CARTESIAN_POINT('',(3.1,10.,-14.));
#671=CARTESIAN_POINT('',(3.1,17.,-14.));
#672=CARTESIAN_POINT('',(-2.9,10.,-14.));
#673=CARTESIAN_POINT('',(-2.9,17.,-14.));
#674=CARTESIAN_POINT('',(3.1,10.,-14.));
#675=CARTESIAN_POINT('Origin',(3.1,10.,-26.));
#676=CARTESIAN_POINT('',(3.1,10.,-26.));
#677=CARTESIAN_POINT('',(3.1,10.,-14.));
#678=CARTESIAN_POINT('',(-2.9,10.,-26.));
#679=CARTESIAN_POINT('',(-2.9,10.,-14.));
#680=CARTESIAN_POINT('',(3.1,10.,-26.));
#681=CARTESIAN_POINT('Origin',(3.1,17.,-26.));
#682=CARTESIAN_POINT('',(3.1,10.,-26.));
#683=CARTESIAN_POINT('',(-2.9,10.,-26.));
#684=CARTESIAN_POINT('Origin',(3.1,50.,-24.));
#685=CARTESIAN_POINT('',(3.1,50.,-24.));
#686=CARTESIAN_POINT('',(3.1,50.,-24.));
#687=CARTESIAN_POINT('',(3.1,33.5,-24.));
#688=CARTESIAN_POINT('Origin',(3.1,57.,-26.));
#689=CARTESIAN_POINT('',(3.1,57.,-26.));
#690=CARTESIAN_POINT('',(3.1,50.,-26.));
#691=CARTESIAN_POINT('',(3.1,57.,-26.));
#692=CARTESIAN_POINT('',(-2.9,50.,-26.));
#693=CARTESIAN_POINT('',(3.1,50.,-26.));
#694=CARTESIAN_POINT('',(-2.9,57.,-26.));
#695=CARTESIAN_POINT('',(-2.9,57.,-26.));
#696=CARTESIAN_POINT('',(3.1,57.,-26.));
#697=CARTESIAN_POINT('Origin',(3.1,57.,-14.));
#698=CARTESIAN_POINT('',(3.1,57.,-14.));
#699=CARTESIAN_POINT('',(3.1,57.,-14.));
#700=CARTESIAN_POINT('',(-2.9,57.,-14.));
#701=CARTESIAN_POINT('',(-2.9,57.,-14.));
#702=CARTESIAN_POINT('',(3.1,57.,-14.));
#703=CARTESIAN_POINT('Origin',(3.1,50.,-14.));
#704=CARTESIAN_POINT('',(3.1,50.,-14.));
#705=CARTESIAN_POINT('',(3.1,50.,-14.));
#706=CARTESIAN_POINT('',(-2.9,50.,-14.));
#707=CARTESIAN_POINT('',(-2.9,50.,-14.));
#708=CARTESIAN_POINT('',(3.1,50.,-14.));
#709=CARTESIAN_POINT('Origin',(3.1,50.,-16.));
#710=CARTESIAN_POINT('',(3.1,50.,-26.));
#711=CARTESIAN_POINT('',(-2.9,50.,-26.));
#712=CARTESIAN_POINT('',(-2.9,50.,-26.));
#713=CARTESIAN_POINT('',(3.1,50.,-26.));
#714=CARTESIAN_POINT('Origin',(-2.9,33.5,-20.));
#715=CARTESIAN_POINT('Origin',(3.1,33.5,-20.));
#716=UNCERTAINTY_MEASURE_WITH_UNIT(LENGTH_MEASURE(0.01),#720,
'DISTANCE_ACCURACY_VALUE',
'Maximum model space distance between geometric entities at asserted c
onnectivities');
#717=UNCERTAINTY_MEASURE_WITH_UNIT(LENGTH_MEASURE(0.01),#720,
'DISTANCE_ACCURACY_VALUE',
'Maximum model space distance between geometric entities at asserted c
onnectivities');
#718=(
GEOMETRIC_REPRESENTATION_CONTEXT(3)
GLOBAL_UNCERTAINTY_ASSIGNED_CONTEXT((#716))
GLOBAL_UNIT_ASSIGNED_CONTEXT((#720,#722,#723))
REPRESENTATION_CONTEXT('','3D')
);
#719=(
GEOMETRIC_REPRESENTATION_CONTEXT(3)
GLOBAL_UNCERTAINTY_ASSIGNED_CONTEXT((#717))
GLOBAL_UNIT_ASSIGNED_CONTEXT((#720,#722,#723))
REPRESENTATION_CONTEXT('','3D')
);
#720=(
LENGTH_UNIT()
NAMED_UNIT(*)
SI_UNIT(.MILLI.,.METRE.)
);
#721=(
LENGTH_UNIT()
NAMED_UNIT(*)
SI_UNIT($,.METRE.)
);
#722=(
NAMED_UNIT(*)
PLANE_ANGLE_UNIT()
SI_UNIT($,.RADIAN.)
);
#723=(
NAMED_UNIT(*)
SI_UNIT($,.STERADIAN.)
SOLID_ANGLE_UNIT()
);
#724=SHAPE_DEFINITION_REPRESENTATION(#725,#726);
#725=PRODUCT_DEFINITION_SHAPE('',$,#728);
#726=SHAPE_REPRESENTATION('',(#456),#718);
#727=PRODUCT_DEFINITION_CONTEXT('part definition',#732,'design');
#728=PRODUCT_DEFINITION('Torque Load Cell','Torque Load Cell v2',#729,#727);
#729=PRODUCT_DEFINITION_FORMATION('',$,#734);
#730=PRODUCT_RELATED_PRODUCT_CATEGORY('Torque Load Cell v2',
'Torque Load Cell v2',(#734));
#731=APPLICATION_PROTOCOL_DEFINITION('international standard',
'automotive_design',2009,#732);
#732=APPLICATION_CONTEXT(
'Core Data for Automotive Mechanical Design Process');
#733=PRODUCT_CONTEXT('part definition',#732,'mechanical');
#734=PRODUCT('Torque Load Cell','Torque Load Cell v2',$,(#733));
#735=PRESENTATION_STYLE_ASSIGNMENT((#736));
#736=SURFACE_STYLE_USAGE(.BOTH.,#737);
#737=SURFACE_SIDE_STYLE('',(#738));
#738=SURFACE_STYLE_FILL_AREA(#739);
#739=FILL_AREA_STYLE('Steel - Satin',(#740));
#740=FILL_AREA_STYLE_COLOUR('Steel - Satin',#741);
#741=COLOUR_RGB('Steel - Satin',0.627450980392157,0.627450980392157,0.627450980392157);
ENDSEC;
END-ISO-10303-21;
