ISO-10303-21;
HEADER;
/* Generated by software containing ST-Developer
 * from STEP Tools, Inc. (www.steptools.com) 
 */

FILE_DESCRIPTION(
/* description */ (''),
/* implementation_level */ '2;1');

FILE_NAME(
/* name */ 'TorqueShaftClampLeft-3DPrint.step',
/* time_stamp */ '2025-05-01T08:08:50+01:00',
/* author */ (''),
/* organization */ (''),
/* preprocessor_version */ 'ST-DEVELOPER v20.1',
/* originating_system */ 'Autodesk Translation Framework v14.4.0.0',
/* authorisation */ '');

FILE_SCHEMA (('AUTOMOTIVE_DESIGN { 1 0 10303 214 3 1 1 }'));
ENDSEC;

DATA;
#10=MECHANICAL_DESIGN_GEOMETRIC_PRESENTATION_REPRESENTATION('',(#13),#1256);
#11=SHAPE_REPRESENTATION_RELATIONSHIP('SRR','None',#1263,#12);
#12=ADVANCED_BREP_SHAPE_REPRESENTATION('',(#14),#1255);
#13=STYLED_ITEM('',(#1272),#14);
#14=MANIFOLD_SOLID_BREP('Body1',#738);
#15=CYLINDRICAL_SURFACE('',#774,4.04999999999999);
#16=CYLINDRICAL_SURFACE('',#775,10.);
#17=CYLINDRICAL_SURFACE('',#776,10.);
#18=CYLINDRICAL_SURFACE('',#788,4.00000000002275);
#19=CYLINDRICAL_SURFACE('',#792,4.00000000001209);
#20=CYLINDRICAL_SURFACE('',#801,3.24999999999999);
#21=CYLINDRICAL_SURFACE('',#804,3.24999999999999);
#22=CYLINDRICAL_SURFACE('',#807,2.75);
#23=CYLINDRICAL_SURFACE('',#810,2.75);
#24=CYLINDRICAL_SURFACE('',#813,2.00000000000001);
#25=CYLINDRICAL_SURFACE('',#822,1.6);
#26=CYLINDRICAL_SURFACE('',#823,1.5);
#27=CYLINDRICAL_SURFACE('',#824,1.8);
#28=CYLINDRICAL_SURFACE('',#825,1.8);
#29=CYLINDRICAL_SURFACE('',#826,1.6);
#30=FACE_BOUND('',#120,.T.);
#31=FACE_BOUND('',#121,.T.);
#32=FACE_BOUND('',#122,.T.);
#33=FACE_BOUND('',#123,.T.);
#34=FACE_BOUND('',#124,.T.);
#35=FACE_BOUND('',#125,.T.);
#36=FACE_BOUND('',#132,.T.);
#37=FACE_BOUND('',#133,.T.);
#38=FACE_BOUND('',#143,.T.);
#39=FACE_BOUND('',#144,.T.);
#40=FACE_BOUND('',#167,.T.);
#41=FACE_BOUND('',#168,.T.);
#42=CIRCLE('',#755,10.);
#43=CIRCLE('',#756,10.);
#44=CIRCLE('',#757,4.04999999999999);
#45=CIRCLE('',#758,3.24999999999999);
#46=CIRCLE('',#759,3.24999999999999);
#47=CIRCLE('',#760,2.75);
#48=CIRCLE('',#761,2.75);
#49=CIRCLE('',#762,2.00000000000001);
#50=CIRCLE('',#769,10.);
#51=CIRCLE('',#770,10.);
#52=CIRCLE('',#771,1.6);
#53=CIRCLE('',#772,4.04999999999999);
#54=CIRCLE('',#779,1.5);
#55=CIRCLE('',#781,1.6);
#56=CIRCLE('',#783,4.00000000002275);
#57=CIRCLE('',#784,4.00000000001209);
#58=CIRCLE('',#786,1.8);
#59=CIRCLE('',#787,1.8);
#60=CIRCLE('',#789,4.00000000002275);
#61=CIRCLE('',#791,4.00000000001209);
#62=CIRCLE('',#796,1.6);
#63=CIRCLE('',#798,1.8);
#64=CIRCLE('',#800,1.8);
#65=CIRCLE('',#802,3.24999999999999);
#66=CIRCLE('',#805,3.24999999999999);
#67=CIRCLE('',#808,2.75);
#68=CIRCLE('',#811,2.75);
#69=CIRCLE('',#814,2.00000000000001);
#70=CIRCLE('',#820,1.6);
#71=CIRCLE('',#821,1.5);
#72=FACE_OUTER_BOUND('',#117,.T.);
#73=FACE_OUTER_BOUND('',#118,.T.);
#74=FACE_OUTER_BOUND('',#119,.T.);
#75=FACE_OUTER_BOUND('',#126,.T.);
#76=FACE_OUTER_BOUND('',#127,.T.);
#77=FACE_OUTER_BOUND('',#128,.T.);
#78=FACE_OUTER_BOUND('',#129,.T.);
#79=FACE_OUTER_BOUND('',#130,.T.);
#80=FACE_OUTER_BOUND('',#131,.T.);
#81=FACE_OUTER_BOUND('',#134,.T.);
#82=FACE_OUTER_BOUND('',#135,.T.);
#83=FACE_OUTER_BOUND('',#136,.T.);
#84=FACE_OUTER_BOUND('',#137,.T.);
#85=FACE_OUTER_BOUND('',#138,.T.);
#86=FACE_OUTER_BOUND('',#139,.T.);
#87=FACE_OUTER_BOUND('',#140,.T.);
#88=FACE_OUTER_BOUND('',#141,.T.);
#89=FACE_OUTER_BOUND('',#142,.T.);
#90=FACE_OUTER_BOUND('',#145,.T.);
#91=FACE_OUTER_BOUND('',#146,.T.);
#92=FACE_OUTER_BOUND('',#147,.T.);
#93=FACE_OUTER_BOUND('',#148,.T.);
#94=FACE_OUTER_BOUND('',#149,.T.);
#95=FACE_OUTER_BOUND('',#150,.T.);
#96=FACE_OUTER_BOUND('',#151,.T.);
#97=FACE_OUTER_BOUND('',#152,.T.);
#98=FACE_OUTER_BOUND('',#153,.T.);
#99=FACE_OUTER_BOUND('',#154,.T.);
#100=FACE_OUTER_BOUND('',#155,.T.);
#101=FACE_OUTER_BOUND('',#156,.T.);
#102=FACE_OUTER_BOUND('',#157,.T.);
#103=FACE_OUTER_BOUND('',#158,.T.);
#104=FACE_OUTER_BOUND('',#159,.T.);
#105=FACE_OUTER_BOUND('',#160,.T.);
#106=FACE_OUTER_BOUND('',#161,.T.);
#107=FACE_OUTER_BOUND('',#162,.T.);
#108=FACE_OUTER_BOUND('',#163,.T.);
#109=FACE_OUTER_BOUND('',#164,.T.);
#110=FACE_OUTER_BOUND('',#165,.T.);
#111=FACE_OUTER_BOUND('',#166,.T.);
#112=FACE_OUTER_BOUND('',#169,.T.);
#113=FACE_OUTER_BOUND('',#170,.T.);
#114=FACE_OUTER_BOUND('',#171,.T.);
#115=FACE_OUTER_BOUND('',#172,.T.);
#116=FACE_OUTER_BOUND('',#173,.T.);
#117=EDGE_LOOP('',(#469,#470,#471,#472));
#118=EDGE_LOOP('',(#473,#474,#475,#476));
#119=EDGE_LOOP('',(#477,#478,#479,#480,#481,#482,#483,#484,#485,#486));
#120=EDGE_LOOP('',(#487));
#121=EDGE_LOOP('',(#488));
#122=EDGE_LOOP('',(#489));
#123=EDGE_LOOP('',(#490));
#124=EDGE_LOOP('',(#491));
#125=EDGE_LOOP('',(#492));
#126=EDGE_LOOP('',(#493,#494,#495,#496,#497,#498,#499,#500,#501,#502));
#127=EDGE_LOOP('',(#503,#504,#505,#506));
#128=EDGE_LOOP('',(#507,#508,#509,#510));
#129=EDGE_LOOP('',(#511,#512,#513,#514));
#130=EDGE_LOOP('',(#515,#516,#517,#518,#519));
#131=EDGE_LOOP('',(#520,#521,#522,#523,#524,#525,#526,#527));
#132=EDGE_LOOP('',(#528));
#133=EDGE_LOOP('',(#529));
#134=EDGE_LOOP('',(#530,#531,#532,#533,#534));
#135=EDGE_LOOP('',(#535,#536,#537,#538));
#136=EDGE_LOOP('',(#539,#540,#541,#542));
#137=EDGE_LOOP('',(#543,#544,#545,#546));
#138=EDGE_LOOP('',(#547,#548,#549,#550));
#139=EDGE_LOOP('',(#551));
#140=EDGE_LOOP('',(#552));
#141=EDGE_LOOP('',(#553,#554,#555,#556,#557,#558,#559,#560));
#142=EDGE_LOOP('',(#561,#562,#563,#564));
#143=EDGE_LOOP('',(#565));
#144=EDGE_LOOP('',(#566));
#145=EDGE_LOOP('',(#567,#568,#569,#570));
#146=EDGE_LOOP('',(#571,#572,#573,#574,#575,#576,#577,#578));
#147=EDGE_LOOP('',(#579,#580,#581,#582));
#148=EDGE_LOOP('',(#583,#584,#585,#586,#587,#588,#589,#590,#591,#592));
#149=EDGE_LOOP('',(#593,#594,#595,#596));
#150=EDGE_LOOP('',(#597));
#151=EDGE_LOOP('',(#598));
#152=EDGE_LOOP('',(#599));
#153=EDGE_LOOP('',(#600,#601,#602,#603));
#154=EDGE_LOOP('',(#604));
#155=EDGE_LOOP('',(#605,#606,#607,#608));
#156=EDGE_LOOP('',(#609));
#157=EDGE_LOOP('',(#610,#611,#612,#613));
#158=EDGE_LOOP('',(#614));
#159=EDGE_LOOP('',(#615,#616,#617,#618));
#160=EDGE_LOOP('',(#619));
#161=EDGE_LOOP('',(#620,#621,#622,#623));
#162=EDGE_LOOP('',(#624));
#163=EDGE_LOOP('',(#625,#626,#627,#628));
#164=EDGE_LOOP('',(#629,#630,#631,#632));
#165=EDGE_LOOP('',(#633,#634,#635,#636));
#166=EDGE_LOOP('',(#637,#638,#639,#640));
#167=EDGE_LOOP('',(#641));
#168=EDGE_LOOP('',(#642));
#169=EDGE_LOOP('',(#643,#644,#645,#646));
#170=EDGE_LOOP('',(#647,#648,#649,#650));
#171=EDGE_LOOP('',(#651,#652,#653,#654));
#172=EDGE_LOOP('',(#655,#656,#657,#658));
#173=EDGE_LOOP('',(#659,#660,#661,#662));
#174=LINE('',#1050,#241);
#175=LINE('',#1052,#242);
#176=LINE('',#1054,#243);
#177=LINE('',#1055,#244);
#178=LINE('',#1058,#245);
#179=LINE('',#1060,#246);
#180=LINE('',#1061,#247);
#181=LINE('',#1064,#248);
#182=LINE('',#1066,#249);
#183=LINE('',#1068,#250);
#184=LINE('',#1070,#251);
#185=LINE('',#1074,#252);
#186=LINE('',#1077,#253);
#187=LINE('',#1092,#254);
#188=LINE('',#1094,#255);
#189=LINE('',#1096,#256);
#190=LINE('',#1098,#257);
#191=LINE('',#1100,#258);
#192=LINE('',#1102,#259);
#193=LINE('',#1104,#260);
#194=LINE('',#1105,#261);
#195=LINE('',#1108,#262);
#196=LINE('',#1109,#263);
#197=LINE('',#1113,#264);
#198=LINE('',#1114,#265);
#199=LINE('',#1115,#266);
#200=LINE('',#1117,#267);
#201=LINE('',#1120,#268);
#202=LINE('',#1122,#269);
#203=LINE('',#1123,#270);
#204=LINE('',#1127,#271);
#205=LINE('',#1131,#272);
#206=LINE('',#1134,#273);
#207=LINE('',#1136,#274);
#208=LINE('',#1137,#275);
#209=LINE('',#1143,#276);
#210=LINE('',#1144,#277);
#211=LINE('',#1146,#278);
#212=LINE('',#1148,#279);
#213=LINE('',#1150,#280);
#214=LINE('',#1162,#281);
#215=LINE('',#1165,#282);
#216=LINE('',#1168,#283);
#217=LINE('',#1170,#284);
#218=LINE('',#1171,#285);
#219=LINE('',#1180,#286);
#220=LINE('',#1182,#287);
#221=LINE('',#1185,#288);
#222=LINE('',#1187,#289);
#223=LINE('',#1189,#290);
#224=LINE('',#1191,#291);
#225=LINE('',#1192,#292);
#226=LINE('',#1205,#293);
#227=LINE('',#1210,#294);
#228=LINE('',#1215,#295);
#229=LINE('',#1220,#296);
#230=LINE('',#1225,#297);
#231=LINE('',#1230,#298);
#232=LINE('',#1231,#299);
#233=LINE('',#1234,#300);
#234=LINE('',#1235,#301);
#235=LINE('',#1237,#302);
#236=LINE('',#1244,#303);
#237=LINE('',#1246,#304);
#238=LINE('',#1248,#305);
#239=LINE('',#1250,#306);
#240=LINE('',#1252,#307);
#241=VECTOR('',#831,10.);
#242=VECTOR('',#832,10.);
#243=VECTOR('',#833,10.);
#244=VECTOR('',#834,10.);
#245=VECTOR('',#837,10.);
#246=VECTOR('',#838,10.);
#247=VECTOR('',#839,10.);
#248=VECTOR('',#842,10.);
#249=VECTOR('',#843,10.);
#250=VECTOR('',#844,10.);
#251=VECTOR('',#845,10.);
#252=VECTOR('',#848,10.);
#253=VECTOR('',#851,10.);
#254=VECTOR('',#866,10.);
#255=VECTOR('',#867,10.);
#256=VECTOR('',#868,10.);
#257=VECTOR('',#869,10.);
#258=VECTOR('',#870,10.);
#259=VECTOR('',#871,10.);
#260=VECTOR('',#872,10.);
#261=VECTOR('',#873,10.);
#262=VECTOR('',#876,10.);
#263=VECTOR('',#877,10.);
#264=VECTOR('',#880,10.);
#265=VECTOR('',#881,10.);
#266=VECTOR('',#882,10.);
#267=VECTOR('',#885,10.);
#268=VECTOR('',#888,10.);
#269=VECTOR('',#889,10.);
#270=VECTOR('',#890,10.);
#271=VECTOR('',#893,10.);
#272=VECTOR('',#896,10.);
#273=VECTOR('',#899,10.);
#274=VECTOR('',#900,10.);
#275=VECTOR('',#901,10.);
#276=VECTOR('',#908,10.);
#277=VECTOR('',#909,10.);
#278=VECTOR('',#912,4.04999999999999);
#279=VECTOR('',#915,10.);
#280=VECTOR('',#918,10.);
#281=VECTOR('',#933,10.);
#282=VECTOR('',#936,10.);
#283=VECTOR('',#939,10.);
#284=VECTOR('',#940,10.);
#285=VECTOR('',#941,10.);
#286=VECTOR('',#952,10.);
#287=VECTOR('',#953,10.);
#288=VECTOR('',#958,10.);
#289=VECTOR('',#961,10.);
#290=VECTOR('',#962,10.);
#291=VECTOR('',#963,10.);
#292=VECTOR('',#964,10.);
#293=VECTOR('',#981,3.24999999999999);
#294=VECTOR('',#988,3.24999999999999);
#295=VECTOR('',#995,2.75);
#296=VECTOR('',#1002,2.75);
#297=VECTOR('',#1009,2.00000000000001);
#298=VECTOR('',#1016,10.);
#299=VECTOR('',#1017,10.);
#300=VECTOR('',#1020,10.);
#301=VECTOR('',#1021,10.);
#302=VECTOR('',#1024,10.);
#303=VECTOR('',#1033,1.6);
#304=VECTOR('',#1036,1.5);
#305=VECTOR('',#1039,1.8);
#306=VECTOR('',#1042,1.8);
#307=VECTOR('',#1045,1.6);
#308=VERTEX_POINT('',#1048);
#309=VERTEX_POINT('',#1049);
#310=VERTEX_POINT('',#1051);
#311=VERTEX_POINT('',#1053);
#312=VERTEX_POINT('',#1057);
#313=VERTEX_POINT('',#1059);
#314=VERTEX_POINT('',#1063);
#315=VERTEX_POINT('',#1065);
#316=VERTEX_POINT('',#1067);
#317=VERTEX_POINT('',#1069);
#318=VERTEX_POINT('',#1071);
#319=VERTEX_POINT('',#1073);
#320=VERTEX_POINT('',#1075);
#321=VERTEX_POINT('',#1078);
#322=VERTEX_POINT('',#1080);
#323=VERTEX_POINT('',#1082);
#324=VERTEX_POINT('',#1084);
#325=VERTEX_POINT('',#1086);
#326=VERTEX_POINT('',#1088);
#327=VERTEX_POINT('',#1091);
#328=VERTEX_POINT('',#1093);
#329=VERTEX_POINT('',#1095);
#330=VERTEX_POINT('',#1097);
#331=VERTEX_POINT('',#1099);
#332=VERTEX_POINT('',#1101);
#333=VERTEX_POINT('',#1103);
#334=VERTEX_POINT('',#1107);
#335=VERTEX_POINT('',#1111);
#336=VERTEX_POINT('',#1112);
#337=VERTEX_POINT('',#1119);
#338=VERTEX_POINT('',#1121);
#339=VERTEX_POINT('',#1125);
#340=VERTEX_POINT('',#1126);
#341=VERTEX_POINT('',#1128);
#342=VERTEX_POINT('',#1130);
#343=VERTEX_POINT('',#1133);
#344=VERTEX_POINT('',#1135);
#345=VERTEX_POINT('',#1138);
#346=VERTEX_POINT('',#1140);
#347=VERTEX_POINT('',#1153);
#348=VERTEX_POINT('',#1156);
#349=VERTEX_POINT('',#1159);
#350=VERTEX_POINT('',#1161);
#351=VERTEX_POINT('',#1163);
#352=VERTEX_POINT('',#1167);
#353=VERTEX_POINT('',#1169);
#354=VERTEX_POINT('',#1172);
#355=VERTEX_POINT('',#1174);
#356=VERTEX_POINT('',#1179);
#357=VERTEX_POINT('',#1181);
#358=VERTEX_POINT('',#1188);
#359=VERTEX_POINT('',#1190);
#360=VERTEX_POINT('',#1195);
#361=VERTEX_POINT('',#1198);
#362=VERTEX_POINT('',#1201);
#363=VERTEX_POINT('',#1204);
#364=VERTEX_POINT('',#1209);
#365=VERTEX_POINT('',#1214);
#366=VERTEX_POINT('',#1219);
#367=VERTEX_POINT('',#1224);
#368=VERTEX_POINT('',#1229);
#369=VERTEX_POINT('',#1233);
#370=VERTEX_POINT('',#1239);
#371=VERTEX_POINT('',#1241);
#372=EDGE_CURVE('',#308,#309,#174,.T.);
#373=EDGE_CURVE('',#309,#310,#175,.T.);
#374=EDGE_CURVE('',#310,#311,#176,.T.);
#375=EDGE_CURVE('',#311,#308,#177,.T.);
#376=EDGE_CURVE('',#311,#312,#178,.T.);
#377=EDGE_CURVE('',#312,#313,#179,.T.);
#378=EDGE_CURVE('',#313,#308,#180,.T.);
#379=EDGE_CURVE('',#310,#314,#181,.T.);
#380=EDGE_CURVE('',#315,#314,#182,.T.);
#381=EDGE_CURVE('',#316,#315,#183,.T.);
#382=EDGE_CURVE('',#316,#317,#184,.T.);
#383=EDGE_CURVE('',#318,#317,#42,.T.);
#384=EDGE_CURVE('',#318,#319,#185,.T.);
#385=EDGE_CURVE('',#320,#319,#43,.T.);
#386=EDGE_CURVE('',#320,#312,#186,.T.);
#387=EDGE_CURVE('',#321,#321,#44,.T.);
#388=EDGE_CURVE('',#322,#322,#45,.T.);
#389=EDGE_CURVE('',#323,#323,#46,.T.);
#390=EDGE_CURVE('',#324,#324,#47,.T.);
#391=EDGE_CURVE('',#325,#325,#48,.T.);
#392=EDGE_CURVE('',#326,#326,#49,.T.);
#393=EDGE_CURVE('',#309,#327,#187,.T.);
#394=EDGE_CURVE('',#327,#328,#188,.T.);
#395=EDGE_CURVE('',#328,#329,#189,.T.);
#396=EDGE_CURVE('',#329,#330,#190,.T.);
#397=EDGE_CURVE('',#330,#331,#191,.T.);
#398=EDGE_CURVE('',#331,#332,#192,.T.);
#399=EDGE_CURVE('',#333,#332,#193,.T.);
#400=EDGE_CURVE('',#314,#333,#194,.T.);
#401=EDGE_CURVE('',#308,#334,#195,.T.);
#402=EDGE_CURVE('',#334,#327,#196,.T.);
#403=EDGE_CURVE('',#335,#336,#197,.T.);
#404=EDGE_CURVE('',#336,#316,#198,.T.);
#405=EDGE_CURVE('',#315,#335,#199,.T.);
#406=EDGE_CURVE('',#333,#335,#200,.T.);
#407=EDGE_CURVE('',#336,#337,#201,.T.);
#408=EDGE_CURVE('',#337,#338,#202,.T.);
#409=EDGE_CURVE('',#317,#338,#203,.T.);
#410=EDGE_CURVE('',#339,#340,#204,.T.);
#411=EDGE_CURVE('',#341,#339,#50,.T.);
#412=EDGE_CURVE('',#342,#341,#205,.T.);
#413=EDGE_CURVE('',#338,#342,#51,.T.);
#414=EDGE_CURVE('',#337,#343,#206,.T.);
#415=EDGE_CURVE('',#343,#344,#207,.T.);
#416=EDGE_CURVE('',#344,#340,#208,.T.);
#417=EDGE_CURVE('',#345,#345,#52,.T.);
#418=EDGE_CURVE('',#346,#346,#53,.T.);
#419=EDGE_CURVE('',#339,#320,#209,.T.);
#420=EDGE_CURVE('',#340,#313,#210,.T.);
#421=EDGE_CURVE('',#321,#346,#211,.T.);
#422=EDGE_CURVE('',#319,#341,#212,.T.);
#423=EDGE_CURVE('',#342,#318,#213,.T.);
#424=EDGE_CURVE('',#347,#347,#54,.T.);
#425=EDGE_CURVE('',#348,#348,#55,.T.);
#426=EDGE_CURVE('',#349,#344,#56,.T.);
#427=EDGE_CURVE('',#350,#349,#214,.T.);
#428=EDGE_CURVE('',#351,#350,#57,.T.);
#429=EDGE_CURVE('',#334,#351,#215,.T.);
#430=EDGE_CURVE('',#352,#349,#216,.T.);
#431=EDGE_CURVE('',#352,#353,#217,.T.);
#432=EDGE_CURVE('',#353,#350,#218,.T.);
#433=EDGE_CURVE('',#354,#354,#58,.T.);
#434=EDGE_CURVE('',#355,#355,#59,.T.);
#435=EDGE_CURVE('',#343,#352,#60,.T.);
#436=EDGE_CURVE('',#356,#335,#219,.T.);
#437=EDGE_CURVE('',#357,#356,#220,.T.);
#438=EDGE_CURVE('',#353,#357,#61,.T.);
#439=EDGE_CURVE('',#357,#351,#221,.T.);
#440=EDGE_CURVE('',#332,#356,#222,.T.);
#441=EDGE_CURVE('',#331,#358,#223,.T.);
#442=EDGE_CURVE('',#358,#359,#224,.T.);
#443=EDGE_CURVE('',#359,#328,#225,.T.);
#444=EDGE_CURVE('',#360,#360,#62,.T.);
#445=EDGE_CURVE('',#361,#361,#63,.T.);
#446=EDGE_CURVE('',#362,#362,#64,.T.);
#447=EDGE_CURVE('',#322,#363,#226,.T.);
#448=EDGE_CURVE('',#363,#363,#65,.T.);
#449=EDGE_CURVE('',#323,#364,#227,.T.);
#450=EDGE_CURVE('',#364,#364,#66,.T.);
#451=EDGE_CURVE('',#324,#365,#228,.T.);
#452=EDGE_CURVE('',#365,#365,#67,.T.);
#453=EDGE_CURVE('',#325,#366,#229,.T.);
#454=EDGE_CURVE('',#366,#366,#68,.T.);
#455=EDGE_CURVE('',#326,#367,#230,.T.);
#456=EDGE_CURVE('',#367,#367,#69,.T.);
#457=EDGE_CURVE('',#368,#359,#231,.T.);
#458=EDGE_CURVE('',#368,#329,#232,.T.);
#459=EDGE_CURVE('',#330,#369,#233,.T.);
#460=EDGE_CURVE('',#369,#358,#234,.T.);
#461=EDGE_CURVE('',#369,#368,#235,.T.);
#462=EDGE_CURVE('',#370,#370,#70,.T.);
#463=EDGE_CURVE('',#371,#371,#71,.T.);
#464=EDGE_CURVE('',#348,#370,#236,.T.);
#465=EDGE_CURVE('',#347,#371,#237,.T.);
#466=EDGE_CURVE('',#361,#355,#238,.T.);
#467=EDGE_CURVE('',#362,#354,#239,.T.);
#468=EDGE_CURVE('',#360,#345,#240,.T.);
#469=ORIENTED_EDGE('',*,*,#372,.T.);
#470=ORIENTED_EDGE('',*,*,#373,.T.);
#471=ORIENTED_EDGE('',*,*,#374,.T.);
#472=ORIENTED_EDGE('',*,*,#375,.T.);
#473=ORIENTED_EDGE('',*,*,#376,.T.);
#474=ORIENTED_EDGE('',*,*,#377,.T.);
#475=ORIENTED_EDGE('',*,*,#378,.T.);
#476=ORIENTED_EDGE('',*,*,#375,.F.);
#477=ORIENTED_EDGE('',*,*,#376,.F.);
#478=ORIENTED_EDGE('',*,*,#374,.F.);
#479=ORIENTED_EDGE('',*,*,#379,.T.);
#480=ORIENTED_EDGE('',*,*,#380,.F.);
#481=ORIENTED_EDGE('',*,*,#381,.F.);
#482=ORIENTED_EDGE('',*,*,#382,.T.);
#483=ORIENTED_EDGE('',*,*,#383,.F.);
#484=ORIENTED_EDGE('',*,*,#384,.T.);
#485=ORIENTED_EDGE('',*,*,#385,.F.);
#486=ORIENTED_EDGE('',*,*,#386,.T.);
#487=ORIENTED_EDGE('',*,*,#387,.T.);
#488=ORIENTED_EDGE('',*,*,#388,.T.);
#489=ORIENTED_EDGE('',*,*,#389,.T.);
#490=ORIENTED_EDGE('',*,*,#390,.T.);
#491=ORIENTED_EDGE('',*,*,#391,.T.);
#492=ORIENTED_EDGE('',*,*,#392,.T.);
#493=ORIENTED_EDGE('',*,*,#373,.F.);
#494=ORIENTED_EDGE('',*,*,#393,.T.);
#495=ORIENTED_EDGE('',*,*,#394,.T.);
#496=ORIENTED_EDGE('',*,*,#395,.T.);
#497=ORIENTED_EDGE('',*,*,#396,.T.);
#498=ORIENTED_EDGE('',*,*,#397,.T.);
#499=ORIENTED_EDGE('',*,*,#398,.T.);
#500=ORIENTED_EDGE('',*,*,#399,.F.);
#501=ORIENTED_EDGE('',*,*,#400,.F.);
#502=ORIENTED_EDGE('',*,*,#379,.F.);
#503=ORIENTED_EDGE('',*,*,#372,.F.);
#504=ORIENTED_EDGE('',*,*,#401,.T.);
#505=ORIENTED_EDGE('',*,*,#402,.T.);
#506=ORIENTED_EDGE('',*,*,#393,.F.);
#507=ORIENTED_EDGE('',*,*,#403,.T.);
#508=ORIENTED_EDGE('',*,*,#404,.T.);
#509=ORIENTED_EDGE('',*,*,#381,.T.);
#510=ORIENTED_EDGE('',*,*,#405,.T.);
#511=ORIENTED_EDGE('',*,*,#380,.T.);
#512=ORIENTED_EDGE('',*,*,#400,.T.);
#513=ORIENTED_EDGE('',*,*,#406,.T.);
#514=ORIENTED_EDGE('',*,*,#405,.F.);
#515=ORIENTED_EDGE('',*,*,#404,.F.);
#516=ORIENTED_EDGE('',*,*,#407,.T.);
#517=ORIENTED_EDGE('',*,*,#408,.T.);
#518=ORIENTED_EDGE('',*,*,#409,.F.);
#519=ORIENTED_EDGE('',*,*,#382,.F.);
#520=ORIENTED_EDGE('',*,*,#410,.F.);
#521=ORIENTED_EDGE('',*,*,#411,.F.);
#522=ORIENTED_EDGE('',*,*,#412,.F.);
#523=ORIENTED_EDGE('',*,*,#413,.F.);
#524=ORIENTED_EDGE('',*,*,#408,.F.);
#525=ORIENTED_EDGE('',*,*,#414,.T.);
#526=ORIENTED_EDGE('',*,*,#415,.T.);
#527=ORIENTED_EDGE('',*,*,#416,.T.);
#528=ORIENTED_EDGE('',*,*,#417,.F.);
#529=ORIENTED_EDGE('',*,*,#418,.T.);
#530=ORIENTED_EDGE('',*,*,#377,.F.);
#531=ORIENTED_EDGE('',*,*,#386,.F.);
#532=ORIENTED_EDGE('',*,*,#419,.F.);
#533=ORIENTED_EDGE('',*,*,#410,.T.);
#534=ORIENTED_EDGE('',*,*,#420,.T.);
#535=ORIENTED_EDGE('',*,*,#387,.F.);
#536=ORIENTED_EDGE('',*,*,#421,.T.);
#537=ORIENTED_EDGE('',*,*,#418,.F.);
#538=ORIENTED_EDGE('',*,*,#421,.F.);
#539=ORIENTED_EDGE('',*,*,#411,.T.);
#540=ORIENTED_EDGE('',*,*,#419,.T.);
#541=ORIENTED_EDGE('',*,*,#385,.T.);
#542=ORIENTED_EDGE('',*,*,#422,.T.);
#543=ORIENTED_EDGE('',*,*,#413,.T.);
#544=ORIENTED_EDGE('',*,*,#423,.T.);
#545=ORIENTED_EDGE('',*,*,#383,.T.);
#546=ORIENTED_EDGE('',*,*,#409,.T.);
#547=ORIENTED_EDGE('',*,*,#412,.T.);
#548=ORIENTED_EDGE('',*,*,#422,.F.);
#549=ORIENTED_EDGE('',*,*,#384,.F.);
#550=ORIENTED_EDGE('',*,*,#423,.F.);
#551=ORIENTED_EDGE('',*,*,#424,.F.);
#552=ORIENTED_EDGE('',*,*,#425,.F.);
#553=ORIENTED_EDGE('',*,*,#378,.F.);
#554=ORIENTED_EDGE('',*,*,#420,.F.);
#555=ORIENTED_EDGE('',*,*,#416,.F.);
#556=ORIENTED_EDGE('',*,*,#426,.F.);
#557=ORIENTED_EDGE('',*,*,#427,.F.);
#558=ORIENTED_EDGE('',*,*,#428,.F.);
#559=ORIENTED_EDGE('',*,*,#429,.F.);
#560=ORIENTED_EDGE('',*,*,#401,.F.);
#561=ORIENTED_EDGE('',*,*,#427,.T.);
#562=ORIENTED_EDGE('',*,*,#430,.F.);
#563=ORIENTED_EDGE('',*,*,#431,.T.);
#564=ORIENTED_EDGE('',*,*,#432,.T.);
#565=ORIENTED_EDGE('',*,*,#433,.F.);
#566=ORIENTED_EDGE('',*,*,#434,.F.);
#567=ORIENTED_EDGE('',*,*,#426,.T.);
#568=ORIENTED_EDGE('',*,*,#415,.F.);
#569=ORIENTED_EDGE('',*,*,#435,.T.);
#570=ORIENTED_EDGE('',*,*,#430,.T.);
#571=ORIENTED_EDGE('',*,*,#403,.F.);
#572=ORIENTED_EDGE('',*,*,#436,.F.);
#573=ORIENTED_EDGE('',*,*,#437,.F.);
#574=ORIENTED_EDGE('',*,*,#438,.F.);
#575=ORIENTED_EDGE('',*,*,#431,.F.);
#576=ORIENTED_EDGE('',*,*,#435,.F.);
#577=ORIENTED_EDGE('',*,*,#414,.F.);
#578=ORIENTED_EDGE('',*,*,#407,.F.);
#579=ORIENTED_EDGE('',*,*,#428,.T.);
#580=ORIENTED_EDGE('',*,*,#432,.F.);
#581=ORIENTED_EDGE('',*,*,#438,.T.);
#582=ORIENTED_EDGE('',*,*,#439,.T.);
#583=ORIENTED_EDGE('',*,*,#429,.T.);
#584=ORIENTED_EDGE('',*,*,#439,.F.);
#585=ORIENTED_EDGE('',*,*,#437,.T.);
#586=ORIENTED_EDGE('',*,*,#440,.F.);
#587=ORIENTED_EDGE('',*,*,#398,.F.);
#588=ORIENTED_EDGE('',*,*,#441,.T.);
#589=ORIENTED_EDGE('',*,*,#442,.T.);
#590=ORIENTED_EDGE('',*,*,#443,.T.);
#591=ORIENTED_EDGE('',*,*,#394,.F.);
#592=ORIENTED_EDGE('',*,*,#402,.F.);
#593=ORIENTED_EDGE('',*,*,#406,.F.);
#594=ORIENTED_EDGE('',*,*,#399,.T.);
#595=ORIENTED_EDGE('',*,*,#440,.T.);
#596=ORIENTED_EDGE('',*,*,#436,.T.);
#597=ORIENTED_EDGE('',*,*,#444,.F.);
#598=ORIENTED_EDGE('',*,*,#445,.F.);
#599=ORIENTED_EDGE('',*,*,#446,.F.);
#600=ORIENTED_EDGE('',*,*,#388,.F.);
#601=ORIENTED_EDGE('',*,*,#447,.T.);
#602=ORIENTED_EDGE('',*,*,#448,.T.);
#603=ORIENTED_EDGE('',*,*,#447,.F.);
#604=ORIENTED_EDGE('',*,*,#448,.F.);
#605=ORIENTED_EDGE('',*,*,#389,.F.);
#606=ORIENTED_EDGE('',*,*,#449,.T.);
#607=ORIENTED_EDGE('',*,*,#450,.T.);
#608=ORIENTED_EDGE('',*,*,#449,.F.);
#609=ORIENTED_EDGE('',*,*,#450,.F.);
#610=ORIENTED_EDGE('',*,*,#390,.F.);
#611=ORIENTED_EDGE('',*,*,#451,.T.);
#612=ORIENTED_EDGE('',*,*,#452,.T.);
#613=ORIENTED_EDGE('',*,*,#451,.F.);
#614=ORIENTED_EDGE('',*,*,#452,.F.);
#615=ORIENTED_EDGE('',*,*,#391,.F.);
#616=ORIENTED_EDGE('',*,*,#453,.T.);
#617=ORIENTED_EDGE('',*,*,#454,.T.);
#618=ORIENTED_EDGE('',*,*,#453,.F.);
#619=ORIENTED_EDGE('',*,*,#454,.F.);
#620=ORIENTED_EDGE('',*,*,#392,.F.);
#621=ORIENTED_EDGE('',*,*,#455,.T.);
#622=ORIENTED_EDGE('',*,*,#456,.T.);
#623=ORIENTED_EDGE('',*,*,#455,.F.);
#624=ORIENTED_EDGE('',*,*,#456,.F.);
#625=ORIENTED_EDGE('',*,*,#443,.F.);
#626=ORIENTED_EDGE('',*,*,#457,.F.);
#627=ORIENTED_EDGE('',*,*,#458,.T.);
#628=ORIENTED_EDGE('',*,*,#395,.F.);
#629=ORIENTED_EDGE('',*,*,#441,.F.);
#630=ORIENTED_EDGE('',*,*,#397,.F.);
#631=ORIENTED_EDGE('',*,*,#459,.T.);
#632=ORIENTED_EDGE('',*,*,#460,.T.);
#633=ORIENTED_EDGE('',*,*,#442,.F.);
#634=ORIENTED_EDGE('',*,*,#460,.F.);
#635=ORIENTED_EDGE('',*,*,#461,.T.);
#636=ORIENTED_EDGE('',*,*,#457,.T.);
#637=ORIENTED_EDGE('',*,*,#458,.F.);
#638=ORIENTED_EDGE('',*,*,#461,.F.);
#639=ORIENTED_EDGE('',*,*,#459,.F.);
#640=ORIENTED_EDGE('',*,*,#396,.F.);
#641=ORIENTED_EDGE('',*,*,#462,.F.);
#642=ORIENTED_EDGE('',*,*,#463,.F.);
#643=ORIENTED_EDGE('',*,*,#425,.T.);
#644=ORIENTED_EDGE('',*,*,#464,.T.);
#645=ORIENTED_EDGE('',*,*,#462,.T.);
#646=ORIENTED_EDGE('',*,*,#464,.F.);
#647=ORIENTED_EDGE('',*,*,#424,.T.);
#648=ORIENTED_EDGE('',*,*,#465,.T.);
#649=ORIENTED_EDGE('',*,*,#463,.T.);
#650=ORIENTED_EDGE('',*,*,#465,.F.);
#651=ORIENTED_EDGE('',*,*,#445,.T.);
#652=ORIENTED_EDGE('',*,*,#466,.T.);
#653=ORIENTED_EDGE('',*,*,#434,.T.);
#654=ORIENTED_EDGE('',*,*,#466,.F.);
#655=ORIENTED_EDGE('',*,*,#446,.T.);
#656=ORIENTED_EDGE('',*,*,#467,.T.);
#657=ORIENTED_EDGE('',*,*,#433,.T.);
#658=ORIENTED_EDGE('',*,*,#467,.F.);
#659=ORIENTED_EDGE('',*,*,#444,.T.);
#660=ORIENTED_EDGE('',*,*,#468,.T.);
#661=ORIENTED_EDGE('',*,*,#417,.T.);
#662=ORIENTED_EDGE('',*,*,#468,.F.);
#663=PLANE('',#752);
#664=PLANE('',#753);
#665=PLANE('',#754);
#666=PLANE('',#763);
#667=PLANE('',#764);
#668=PLANE('',#765);
#669=PLANE('',#766);
#670=PLANE('',#767);
#671=PLANE('',#768);
#672=PLANE('',#773);
#673=PLANE('',#777);
#674=PLANE('',#778);
#675=PLANE('',#780);
#676=PLANE('',#782);
#677=PLANE('',#785);
#678=PLANE('',#790);
#679=PLANE('',#793);
#680=PLANE('',#794);
#681=PLANE('',#795);
#682=PLANE('',#797);
#683=PLANE('',#799);
#684=PLANE('',#803);
#685=PLANE('',#806);
#686=PLANE('',#809);
#687=PLANE('',#812);
#688=PLANE('',#815);
#689=PLANE('',#816);
#690=PLANE('',#817);
#691=PLANE('',#818);
#692=PLANE('',#819);
#693=ADVANCED_FACE('',(#72),#663,.T.);
#694=ADVANCED_FACE('',(#73),#664,.T.);
#695=ADVANCED_FACE('',(#74,#30,#31,#32,#33,#34,#35),#665,.F.);
#696=ADVANCED_FACE('',(#75),#666,.T.);
#697=ADVANCED_FACE('',(#76),#667,.T.);
#698=ADVANCED_FACE('',(#77),#668,.T.);
#699=ADVANCED_FACE('',(#78),#669,.T.);
#700=ADVANCED_FACE('',(#79),#670,.T.);
#701=ADVANCED_FACE('',(#80,#36,#37),#671,.F.);
#702=ADVANCED_FACE('',(#81),#672,.T.);
#703=ADVANCED_FACE('',(#82),#15,.F.);
#704=ADVANCED_FACE('',(#83),#16,.T.);
#705=ADVANCED_FACE('',(#84),#17,.T.);
#706=ADVANCED_FACE('',(#85),#673,.T.);
#707=ADVANCED_FACE('',(#86),#674,.F.);
#708=ADVANCED_FACE('',(#87),#675,.F.);
#709=ADVANCED_FACE('',(#88),#676,.F.);
#710=ADVANCED_FACE('',(#89,#38,#39),#677,.F.);
#711=ADVANCED_FACE('',(#90),#18,.F.);
#712=ADVANCED_FACE('',(#91),#678,.F.);
#713=ADVANCED_FACE('',(#92),#19,.F.);
#714=ADVANCED_FACE('',(#93),#679,.F.);
#715=ADVANCED_FACE('',(#94),#680,.T.);
#716=ADVANCED_FACE('',(#95),#681,.F.);
#717=ADVANCED_FACE('',(#96),#682,.F.);
#718=ADVANCED_FACE('',(#97),#683,.F.);
#719=ADVANCED_FACE('',(#98),#20,.F.);
#720=ADVANCED_FACE('',(#99),#684,.F.);
#721=ADVANCED_FACE('',(#100),#21,.F.);
#722=ADVANCED_FACE('',(#101),#685,.F.);
#723=ADVANCED_FACE('',(#102),#22,.F.);
#724=ADVANCED_FACE('',(#103),#686,.F.);
#725=ADVANCED_FACE('',(#104),#23,.F.);
#726=ADVANCED_FACE('',(#105),#687,.F.);
#727=ADVANCED_FACE('',(#106),#24,.F.);
#728=ADVANCED_FACE('',(#107),#688,.F.);
#729=ADVANCED_FACE('',(#108),#689,.F.);
#730=ADVANCED_FACE('',(#109),#690,.F.);
#731=ADVANCED_FACE('',(#110),#691,.F.);
#732=ADVANCED_FACE('',(#111,#40,#41),#692,.F.);
#733=ADVANCED_FACE('',(#112),#25,.F.);
#734=ADVANCED_FACE('',(#113),#26,.F.);
#735=ADVANCED_FACE('',(#114),#27,.F.);
#736=ADVANCED_FACE('',(#115),#28,.F.);
#737=ADVANCED_FACE('',(#116),#29,.F.);
#738=CLOSED_SHELL('',(#693,#694,#695,#696,#697,#698,#699,#700,#701,#702,
#703,#704,#705,#706,#707,#708,#709,#710,#711,#712,#713,#714,#715,#716,#717,
#718,#719,#720,#721,#722,#723,#724,#725,#726,#727,#728,#729,#730,#731,#732,
#733,#734,#735,#736,#737));
#739=DERIVED_UNIT_ELEMENT(#741,1.);
#740=DERIVED_UNIT_ELEMENT(#1258,-3.);
#741=(
MASS_UNIT()
NAMED_UNIT(*)
SI_UNIT(.KILO.,.GRAM.)
);
#742=DERIVED_UNIT((#739,#740));
#743=MEASURE_REPRESENTATION_ITEM('density measure',
POSITIVE_RATIO_MEASURE(7850.),#742);
#744=PROPERTY_DEFINITION_REPRESENTATION(#749,#746);
#745=PROPERTY_DEFINITION_REPRESENTATION(#750,#747);
#746=REPRESENTATION('material name',(#748),#1255);
#747=REPRESENTATION('density',(#743),#1255);
#748=DESCRIPTIVE_REPRESENTATION_ITEM('Steel','Steel');
#749=PROPERTY_DEFINITION('material property','material name',#1265);
#750=PROPERTY_DEFINITION('material property','density of part',#1265);
#751=AXIS2_PLACEMENT_3D('',#1046,#827,#828);
#752=AXIS2_PLACEMENT_3D('',#1047,#829,#830);
#753=AXIS2_PLACEMENT_3D('',#1056,#835,#836);
#754=AXIS2_PLACEMENT_3D('',#1062,#840,#841);
#755=AXIS2_PLACEMENT_3D('',#1072,#846,#847);
#756=AXIS2_PLACEMENT_3D('',#1076,#849,#850);
#757=AXIS2_PLACEMENT_3D('',#1079,#852,#853);
#758=AXIS2_PLACEMENT_3D('',#1081,#854,#855);
#759=AXIS2_PLACEMENT_3D('',#1083,#856,#857);
#760=AXIS2_PLACEMENT_3D('',#1085,#858,#859);
#761=AXIS2_PLACEMENT_3D('',#1087,#860,#861);
#762=AXIS2_PLACEMENT_3D('',#1089,#862,#863);
#763=AXIS2_PLACEMENT_3D('',#1090,#864,#865);
#764=AXIS2_PLACEMENT_3D('',#1106,#874,#875);
#765=AXIS2_PLACEMENT_3D('',#1110,#878,#879);
#766=AXIS2_PLACEMENT_3D('',#1116,#883,#884);
#767=AXIS2_PLACEMENT_3D('',#1118,#886,#887);
#768=AXIS2_PLACEMENT_3D('',#1124,#891,#892);
#769=AXIS2_PLACEMENT_3D('',#1129,#894,#895);
#770=AXIS2_PLACEMENT_3D('',#1132,#897,#898);
#771=AXIS2_PLACEMENT_3D('',#1139,#902,#903);
#772=AXIS2_PLACEMENT_3D('',#1141,#904,#905);
#773=AXIS2_PLACEMENT_3D('',#1142,#906,#907);
#774=AXIS2_PLACEMENT_3D('',#1145,#910,#911);
#775=AXIS2_PLACEMENT_3D('',#1147,#913,#914);
#776=AXIS2_PLACEMENT_3D('',#1149,#916,#917);
#777=AXIS2_PLACEMENT_3D('',#1151,#919,#920);
#778=AXIS2_PLACEMENT_3D('',#1152,#921,#922);
#779=AXIS2_PLACEMENT_3D('',#1154,#923,#924);
#780=AXIS2_PLACEMENT_3D('',#1155,#925,#926);
#781=AXIS2_PLACEMENT_3D('',#1157,#927,#928);
#782=AXIS2_PLACEMENT_3D('',#1158,#929,#930);
#783=AXIS2_PLACEMENT_3D('',#1160,#931,#932);
#784=AXIS2_PLACEMENT_3D('',#1164,#934,#935);
#785=AXIS2_PLACEMENT_3D('',#1166,#937,#938);
#786=AXIS2_PLACEMENT_3D('',#1173,#942,#943);
#787=AXIS2_PLACEMENT_3D('',#1175,#944,#945);
#788=AXIS2_PLACEMENT_3D('',#1176,#946,#947);
#789=AXIS2_PLACEMENT_3D('',#1177,#948,#949);
#790=AXIS2_PLACEMENT_3D('',#1178,#950,#951);
#791=AXIS2_PLACEMENT_3D('',#1183,#954,#955);
#792=AXIS2_PLACEMENT_3D('',#1184,#956,#957);
#793=AXIS2_PLACEMENT_3D('',#1186,#959,#960);
#794=AXIS2_PLACEMENT_3D('',#1193,#965,#966);
#795=AXIS2_PLACEMENT_3D('',#1194,#967,#968);
#796=AXIS2_PLACEMENT_3D('',#1196,#969,#970);
#797=AXIS2_PLACEMENT_3D('',#1197,#971,#972);
#798=AXIS2_PLACEMENT_3D('',#1199,#973,#974);
#799=AXIS2_PLACEMENT_3D('',#1200,#975,#976);
#800=AXIS2_PLACEMENT_3D('',#1202,#977,#978);
#801=AXIS2_PLACEMENT_3D('',#1203,#979,#980);
#802=AXIS2_PLACEMENT_3D('',#1206,#982,#983);
#803=AXIS2_PLACEMENT_3D('',#1207,#984,#985);
#804=AXIS2_PLACEMENT_3D('',#1208,#986,#987);
#805=AXIS2_PLACEMENT_3D('',#1211,#989,#990);
#806=AXIS2_PLACEMENT_3D('',#1212,#991,#992);
#807=AXIS2_PLACEMENT_3D('',#1213,#993,#994);
#808=AXIS2_PLACEMENT_3D('',#1216,#996,#997);
#809=AXIS2_PLACEMENT_3D('',#1217,#998,#999);
#810=AXIS2_PLACEMENT_3D('',#1218,#1000,#1001);
#811=AXIS2_PLACEMENT_3D('',#1221,#1003,#1004);
#812=AXIS2_PLACEMENT_3D('',#1222,#1005,#1006);
#813=AXIS2_PLACEMENT_3D('',#1223,#1007,#1008);
#814=AXIS2_PLACEMENT_3D('',#1226,#1010,#1011);
#815=AXIS2_PLACEMENT_3D('',#1227,#1012,#1013);
#816=AXIS2_PLACEMENT_3D('',#1228,#1014,#1015);
#817=AXIS2_PLACEMENT_3D('',#1232,#1018,#1019);
#818=AXIS2_PLACEMENT_3D('',#1236,#1022,#1023);
#819=AXIS2_PLACEMENT_3D('',#1238,#1025,#1026);
#820=AXIS2_PLACEMENT_3D('',#1240,#1027,#1028);
#821=AXIS2_PLACEMENT_3D('',#1242,#1029,#1030);
#822=AXIS2_PLACEMENT_3D('',#1243,#1031,#1032);
#823=AXIS2_PLACEMENT_3D('',#1245,#1034,#1035);
#824=AXIS2_PLACEMENT_3D('',#1247,#1037,#1038);
#825=AXIS2_PLACEMENT_3D('',#1249,#1040,#1041);
#826=AXIS2_PLACEMENT_3D('',#1251,#1043,#1044);
#827=DIRECTION('axis',(0.,0.,1.));
#828=DIRECTION('refdir',(1.,0.,0.));
#829=DIRECTION('center_axis',(-0.65678074480417,0.510829468181088,-0.554700196225228));
#830=DIRECTION('ref_axis',(-0.645238767010465,0.,0.76398097721528));
#831=DIRECTION('',(0.61394061351497,0.789352217376287,0.));
#832=DIRECTION('',(0.645238767010465,0.,-0.76398097721528));
#833=DIRECTION('',(-0.61394061351497,-0.789352217376287,0.));
#834=DIRECTION('',(-0.544918839633367,0.186965877076449,0.81737825945009));
#835=DIRECTION('center_axis',(-0.832050294337847,8.62177301458675E-14,-0.554700196225224));
#836=DIRECTION('ref_axis',(-0.554700196225224,0.,0.832050294337847));
#837=DIRECTION('',(-1.0362081563168E-13,-1.,0.));
#838=DIRECTION('',(-0.319171230802844,0.817876278932343,0.478756846204399));
#839=DIRECTION('',(1.0362081563168E-13,1.,0.));
#840=DIRECTION('center_axis',(0.,0.,1.));
#841=DIRECTION('ref_axis',(1.,0.,0.));
#842=DIRECTION('',(1.,0.,0.));
#843=DIRECTION('',(-0.61394061351492,0.789352217376327,0.));
#844=DIRECTION('',(0.,1.,0.));
#845=DIRECTION('',(-0.363542485652657,-0.931577619485079,-3.64391879748453E-18));
#846=DIRECTION('center_axis',(0.,0.,1.));
#847=DIRECTION('ref_axis',(0.564117680252639,-0.825694400384538,0.));
#848=DIRECTION('',(-1.,1.14971691178417E-13,-2.10805017447115E-20));
#849=DIRECTION('center_axis',(0.,0.,1.));
#850=DIRECTION('ref_axis',(-0.56411768025272,-0.825694400384482,0.));
#851=DIRECTION('',(-0.363542485652685,0.931577619485069,3.62859148147801E-18));
#852=DIRECTION('center_axis',(0.,0.,1.));
#853=DIRECTION('ref_axis',(1.,-1.0061556385677E-16,0.));
#854=DIRECTION('center_axis',(0.,0.,1.));
#855=DIRECTION('ref_axis',(1.,0.,0.));
#856=DIRECTION('center_axis',(0.,0.,1.));
#857=DIRECTION('ref_axis',(1.,0.,0.));
#858=DIRECTION('center_axis',(0.,0.,1.));
#859=DIRECTION('ref_axis',(1.,0.,0.));
#860=DIRECTION('center_axis',(0.,0.,1.));
#861=DIRECTION('ref_axis',(1.,0.,0.));
#862=DIRECTION('center_axis',(0.,0.,1.));
#863=DIRECTION('ref_axis',(1.,0.,0.));
#864=DIRECTION('center_axis',(0.,1.,0.));
#865=DIRECTION('ref_axis',(1.,0.,0.));
#866=DIRECTION('',(0.,0.,1.));
#867=DIRECTION('',(1.,0.,0.));
#868=DIRECTION('',(0.,0.,-1.));
#869=DIRECTION('',(1.,0.,0.));
#870=DIRECTION('',(0.,0.,1.));
#871=DIRECTION('',(1.,0.,0.));
#872=DIRECTION('',(0.,0.,1.));
#873=DIRECTION('',(0.64523876701045,0.,0.763980977215293));
#874=DIRECTION('center_axis',(-0.789352217376287,0.613940613514971,0.));
#875=DIRECTION('ref_axis',(0.61394061351497,0.789352217376287,0.));
#876=DIRECTION('',(0.,0.,1.));
#877=DIRECTION('',(0.61394061351497,0.789352217376287,0.));
#878=DIRECTION('center_axis',(0.832050294337845,0.,-0.554700196225228));
#879=DIRECTION('ref_axis',(-0.554700196225228,0.,-0.832050294337845));
#880=DIRECTION('',(0.,-1.,0.));
#881=DIRECTION('',(-0.319171230802845,-0.817876278932418,-0.47875684620427));
#882=DIRECTION('',(0.544918839633388,0.186965877076408,0.817378259450085));
#883=DIRECTION('center_axis',(0.656780744804201,0.510829468181045,-0.554700196225232));
#884=DIRECTION('ref_axis',(-0.64523876701045,0.,-0.763980977215293));
#885=DIRECTION('',(0.61394061351492,-0.789352217376327,0.));
#886=DIRECTION('center_axis',(0.931577619485079,-0.363542485652657,0.));
#887=DIRECTION('ref_axis',(-0.363542485652657,-0.931577619485079,-3.64391879748453E-18));
#888=DIRECTION('',(0.,0.,1.));
#889=DIRECTION('',(-0.363542485652657,-0.931577619485079,3.63625994637469E-18));
#890=DIRECTION('',(0.,0.,1.));
#891=DIRECTION('center_axis',(0.,0.,-1.));
#892=DIRECTION('ref_axis',(0.,-1.,0.));
#893=DIRECTION('',(-0.363542485652685,0.931577619485069,-3.63625994637465E-18));
#894=DIRECTION('center_axis',(5.97734191614002E-34,-3.90333544979816E-18,
-1.));
#895=DIRECTION('ref_axis',(-0.56411768025272,-0.825694400384482,0.));
#896=DIRECTION('',(-1.,1.14971691178417E-13,-4.49370812091574E-31));
#897=DIRECTION('center_axis',(5.97734191614002E-34,-3.90333544979816E-18,
-1.));
#898=DIRECTION('ref_axis',(0.564117680252639,-0.825694400384538,0.));
#899=DIRECTION('',(0.,1.,0.));
#900=DIRECTION('',(-1.,0.,0.));
#901=DIRECTION('',(-1.0362081563168E-13,-1.,0.));
#902=DIRECTION('center_axis',(0.,0.,1.));
#903=DIRECTION('ref_axis',(1.,0.,0.));
#904=DIRECTION('center_axis',(0.,0.,-1.));
#905=DIRECTION('ref_axis',(1.,-1.0061556385677E-16,0.));
#906=DIRECTION('center_axis',(-0.931577619485069,-0.363542485652685,0.));
#907=DIRECTION('ref_axis',(-0.363542485652685,0.931577619485069,3.62859148147801E-18));
#908=DIRECTION('',(0.,0.,-1.));
#909=DIRECTION('',(0.,0.,-1.));
#910=DIRECTION('center_axis',(0.,0.,-1.));
#911=DIRECTION('ref_axis',(1.,-1.0061556385677E-16,0.));
#912=DIRECTION('',(0.,0.,1.));
#913=DIRECTION('center_axis',(0.,0.,-1.));
#914=DIRECTION('ref_axis',(-0.56411768025272,-0.825694400384482,0.));
#915=DIRECTION('',(0.,0.,1.));
#916=DIRECTION('center_axis',(0.,0.,-1.));
#917=DIRECTION('ref_axis',(0.564117680252639,-0.825694400384538,0.));
#918=DIRECTION('',(0.,0.,-1.));
#919=DIRECTION('center_axis',(-1.14971691178417E-13,-1.,0.));
#920=DIRECTION('ref_axis',(-1.,1.14971691178417E-13,-2.10805017447115E-20));
#921=DIRECTION('center_axis',(2.10805017451603E-20,3.90333028984874E-18,
-1.));
#922=DIRECTION('ref_axis',(-1.,1.00615563856776E-16,-2.10805017451599E-20));
#923=DIRECTION('center_axis',(2.10805017451603E-20,3.90333028984874E-18,
-1.));
#924=DIRECTION('ref_axis',(-1.,0.,0.));
#925=DIRECTION('center_axis',(2.10805017451603E-20,3.90333028984874E-18,
-1.));
#926=DIRECTION('ref_axis',(-1.,1.00615563856776E-16,-2.10805017451599E-20));
#927=DIRECTION('center_axis',(2.10805017451603E-20,3.90333028984874E-18,
-1.));
#928=DIRECTION('ref_axis',(-1.,0.,0.));
#929=DIRECTION('center_axis',(1.,-1.0362081563168E-13,0.));
#930=DIRECTION('ref_axis',(0.,0.,-1.));
#931=DIRECTION('center_axis',(-1.,1.0362081563168E-13,0.));
#932=DIRECTION('ref_axis',(0.,-0.866025403785311,0.499999999998489));
#933=DIRECTION('',(-1.0362081563168E-13,-1.,-8.48116481696168E-17));
#934=DIRECTION('center_axis',(-1.,1.0362081563168E-13,0.));
#935=DIRECTION('ref_axis',(0.,-0.866025403785311,-0.499999999998489));
#936=DIRECTION('',(-1.0362081563168E-13,-1.,0.));
#937=DIRECTION('center_axis',(0.,8.48116481696168E-17,-1.));
#938=DIRECTION('ref_axis',(0.,-1.,-8.48116481696168E-17));
#939=DIRECTION('',(-1.,0.,0.));
#940=DIRECTION('',(0.,1.,8.48116481696168E-17));
#941=DIRECTION('',(-1.,0.,0.));
#942=DIRECTION('center_axis',(0.,-8.48116481696168E-17,1.));
#943=DIRECTION('ref_axis',(1.,0.,0.));
#944=DIRECTION('center_axis',(0.,-8.48116481696168E-17,1.));
#945=DIRECTION('ref_axis',(1.,0.,0.));
#946=DIRECTION('center_axis',(-1.,0.,0.));
#947=DIRECTION('ref_axis',(0.,-0.866025403785311,0.499999999998489));
#948=DIRECTION('center_axis',(1.,0.,0.));
#949=DIRECTION('ref_axis',(0.,-0.866025403785311,0.499999999998489));
#950=DIRECTION('center_axis',(-1.,0.,0.));
#951=DIRECTION('ref_axis',(0.,0.,1.));
#952=DIRECTION('',(0.,0.,-1.));
#953=DIRECTION('',(0.,1.,0.));
#954=DIRECTION('center_axis',(1.,0.,0.));
#955=DIRECTION('ref_axis',(0.,-0.866025403785311,-0.499999999998489));
#956=DIRECTION('center_axis',(-1.,0.,0.));
#957=DIRECTION('ref_axis',(0.,-0.866025403785311,-0.499999999998489));
#958=DIRECTION('',(-1.,0.,0.));
#959=DIRECTION('center_axis',(0.,0.,-1.));
#960=DIRECTION('ref_axis',(0.,-1.,0.));
#961=DIRECTION('',(0.61394061351492,-0.789352217376327,0.));
#962=DIRECTION('',(-1.06148152598313E-13,-1.,0.));
#963=DIRECTION('',(-1.,1.06814199062736E-13,0.));
#964=DIRECTION('',(0.,1.,0.));
#965=DIRECTION('center_axis',(0.789352217376327,0.61394061351492,0.));
#966=DIRECTION('ref_axis',(0.61394061351492,-0.789352217376327,0.));
#967=DIRECTION('center_axis',(2.10805017451603E-20,3.90333028984874E-18,
-1.));
#968=DIRECTION('ref_axis',(-1.,1.00612175184535E-16,-2.10805017451599E-20));
#969=DIRECTION('center_axis',(2.10805017451603E-20,3.90333028984874E-18,
-1.));
#970=DIRECTION('ref_axis',(1.,0.,0.));
#971=DIRECTION('center_axis',(2.10805017451603E-20,3.90333028984874E-18,
-1.));
#972=DIRECTION('ref_axis',(-1.,1.00612175184535E-16,-2.10805017451599E-20));
#973=DIRECTION('center_axis',(2.10805017451603E-20,3.90333028984874E-18,
-1.));
#974=DIRECTION('ref_axis',(1.,0.,0.));
#975=DIRECTION('center_axis',(2.10805017451603E-20,3.90333028984874E-18,
-1.));
#976=DIRECTION('ref_axis',(-1.,1.00612175184535E-16,-2.10805017451599E-20));
#977=DIRECTION('center_axis',(2.10805017451603E-20,3.90333028984874E-18,
-1.));
#978=DIRECTION('ref_axis',(1.,0.,0.));
#979=DIRECTION('center_axis',(0.,0.,1.));
#980=DIRECTION('ref_axis',(1.,0.,0.));
#981=DIRECTION('',(0.,0.,1.));
#982=DIRECTION('center_axis',(0.,0.,1.));
#983=DIRECTION('ref_axis',(1.,0.,0.));
#984=DIRECTION('center_axis',(0.,0.,1.));
#985=DIRECTION('ref_axis',(1.,0.,0.));
#986=DIRECTION('center_axis',(0.,0.,1.));
#987=DIRECTION('ref_axis',(1.,0.,0.));
#988=DIRECTION('',(0.,0.,1.));
#989=DIRECTION('center_axis',(0.,0.,1.));
#990=DIRECTION('ref_axis',(1.,0.,0.));
#991=DIRECTION('center_axis',(0.,0.,1.));
#992=DIRECTION('ref_axis',(1.,0.,0.));
#993=DIRECTION('center_axis',(0.,0.,1.));
#994=DIRECTION('ref_axis',(1.,0.,0.));
#995=DIRECTION('',(0.,0.,1.));
#996=DIRECTION('center_axis',(0.,0.,1.));
#997=DIRECTION('ref_axis',(1.,0.,0.));
#998=DIRECTION('center_axis',(0.,0.,1.));
#999=DIRECTION('ref_axis',(1.,0.,0.));
#1000=DIRECTION('center_axis',(0.,0.,1.));
#1001=DIRECTION('ref_axis',(1.,0.,0.));
#1002=DIRECTION('',(0.,0.,1.));
#1003=DIRECTION('center_axis',(0.,0.,1.));
#1004=DIRECTION('ref_axis',(1.,0.,0.));
#1005=DIRECTION('center_axis',(0.,0.,1.));
#1006=DIRECTION('ref_axis',(1.,0.,0.));
#1007=DIRECTION('center_axis',(0.,0.,1.));
#1008=DIRECTION('ref_axis',(1.,0.,0.));
#1009=DIRECTION('',(0.,0.,1.));
#1010=DIRECTION('center_axis',(0.,0.,1.));
#1011=DIRECTION('ref_axis',(1.,0.,0.));
#1012=DIRECTION('center_axis',(0.,0.,1.));
#1013=DIRECTION('ref_axis',(1.,0.,0.));
#1014=DIRECTION('center_axis',(-1.,0.,0.));
#1015=DIRECTION('ref_axis',(0.,-1.,0.));
#1016=DIRECTION('',(0.,0.,1.));
#1017=DIRECTION('',(0.,1.,0.));
#1018=DIRECTION('center_axis',(1.,-1.06148152598313E-13,0.));
#1019=DIRECTION('ref_axis',(1.06148152598313E-13,1.,0.));
#1020=DIRECTION('',(-1.06148152598313E-13,-1.,0.));
#1021=DIRECTION('',(0.,0.,1.));
#1022=DIRECTION('center_axis',(-1.06814199062736E-13,-1.,0.));
#1023=DIRECTION('ref_axis',(1.,-1.06814199062736E-13,0.));
#1024=DIRECTION('',(-1.,1.06814199062736E-13,0.));
#1025=DIRECTION('center_axis',(0.,0.,-1.));
#1026=DIRECTION('ref_axis',(-1.,0.,0.));
#1027=DIRECTION('center_axis',(0.,0.,1.));
#1028=DIRECTION('ref_axis',(-1.,0.,0.));
#1029=DIRECTION('center_axis',(0.,0.,1.));
#1030=DIRECTION('ref_axis',(-1.,0.,0.));
#1031=DIRECTION('center_axis',(0.,0.,1.));
#1032=DIRECTION('ref_axis',(-1.,0.,0.));
#1033=DIRECTION('',(0.,0.,1.));
#1034=DIRECTION('center_axis',(0.,0.,1.));
#1035=DIRECTION('ref_axis',(-1.,0.,0.));
#1036=DIRECTION('',(0.,0.,1.));
#1037=DIRECTION('center_axis',(0.,0.,-1.));
#1038=DIRECTION('ref_axis',(1.,0.,0.));
#1039=DIRECTION('',(0.,0.,1.));
#1040=DIRECTION('center_axis',(0.,0.,-1.));
#1041=DIRECTION('ref_axis',(1.,0.,0.));
#1042=DIRECTION('',(0.,0.,1.));
#1043=DIRECTION('center_axis',(0.,0.,-1.));
#1044=DIRECTION('ref_axis',(1.,0.,0.));
#1045=DIRECTION('',(0.,0.,1.));
#1046=CARTESIAN_POINT('',(0.,0.,0.));
#1047=CARTESIAN_POINT('Origin',(130.625432214007,7.42530509643514,-6.5));
#1048=CARTESIAN_POINT('',(128.850000000002,6.77142857142793,-5.));
#1049=CARTESIAN_POINT('',(135.250000000003,14.9999999999998,-5.));
#1050=CARTESIAN_POINT('',(129.836079996631,8.03924570995011,-5.));
#1051=CARTESIAN_POINT('',(137.78372316689,14.9999999999998,-8.));
#1052=CARTESIAN_POINT('',(133.424657004745,14.9999999999998,-2.83874218883068));
#1053=CARTESIAN_POINT('',(130.850000000002,6.0852130711445,-8.));
#1054=CARTESIAN_POINT('',(131.414784431383,6.81136448292017,-8.));
#1055=CARTESIAN_POINT('',(130.850000000002,6.0852130711445,-8.));
#1056=CARTESIAN_POINT('Origin',(129.850000000001,0.98667800856051,-6.5));
#1057=CARTESIAN_POINT('',(130.85,-11.1891016151309,-8.));
#1058=CARTESIAN_POINT('',(130.850000000001,0.986678008560407,-8.));
#1059=CARTESIAN_POINT('',(128.850000000001,-6.064101615132,-5.));
#1060=CARTESIAN_POINT('',(129.568561195157,-7.90541467772062,-6.077841792735));
#1061=CARTESIAN_POINT('',(128.850000000001,0.986678008560614,-5.));
#1062=CARTESIAN_POINT('Origin',(142.75,1.26794919243373,-8.));
#1063=CARTESIAN_POINT('',(147.716276833112,14.9999999999998,-8.));
#1064=CARTESIAN_POINT('',(128.250000000003,14.9999999999998,-8.));
#1065=CARTESIAN_POINT('',(154.649999999999,6.08521307114578,-8.));
#1066=CARTESIAN_POINT('',(150.585215568618,11.3113644829203,-8.));
#1067=CARTESIAN_POINT('',(154.649999999999,-11.1891016151337,-8.));
#1068=CARTESIAN_POINT('',(154.649999999999,0.984999334004834,-8.));
#1069=CARTESIAN_POINT('',(152.733736641355,-16.0995264716599,-8.));
#1070=CARTESIAN_POINT('',(150.249999999999,-22.4641016151341,-8.));
#1071=CARTESIAN_POINT('',(143.417960446503,-22.4641016151333,-8.));
#1072=CARTESIAN_POINT('Origin',(143.417960446504,-12.4641016151333,-8.));
#1073=CARTESIAN_POINT('',(142.082039553495,-22.4641016151332,-8.));
#1074=CARTESIAN_POINT('',(135.25,-22.4641016151324,-8.));
#1075=CARTESIAN_POINT('',(132.766263358646,-16.09952647166,-8.));
#1076=CARTESIAN_POINT('Origin',(142.082039553496,-12.4641016151332,-8.));
#1077=CARTESIAN_POINT('',(128.850000000001,-6.06410161513201,-8.));
#1078=CARTESIAN_POINT('',(138.7,-15.4641016151324,-8.));
#1079=CARTESIAN_POINT('Origin',(142.75,-15.4641016151324,-8.));
#1080=CARTESIAN_POINT('',(132.499999999999,5.30415281868332E-12,-8.));
#1081=CARTESIAN_POINT('Origin',(135.749999999999,5.30455082889304E-12,-8.));
#1082=CARTESIAN_POINT('',(146.500000000001,5.9238052961623E-12,-8.));
#1083=CARTESIAN_POINT('Origin',(149.750000000001,5.92420330637203E-12,-8.));
#1084=CARTESIAN_POINT('',(136.999999999999,10.4999999999999,-8.));
#1085=CARTESIAN_POINT('Origin',(139.749999999999,10.4999999999999,-8.));
#1086=CARTESIAN_POINT('',(142.999999999999,10.5000000000001,-8.));
#1087=CARTESIAN_POINT('Origin',(145.749999999999,10.5000000000001,-8.));
#1088=CARTESIAN_POINT('',(140.75,-7.46410161513236,-8.));
#1089=CARTESIAN_POINT('Origin',(142.75,-7.46410161513236,-8.));
#1090=CARTESIAN_POINT('Origin',(135.250000000003,14.9999999999998,0.));
#1091=CARTESIAN_POINT('',(135.250000000003,14.9999999999998,-0.1));
#1092=CARTESIAN_POINT('',(135.250000000003,14.9999999999998,0.));
#1093=CARTESIAN_POINT('',(136.55,14.9999999999998,-0.1));
#1094=CARTESIAN_POINT('',(146.250000000001,14.9999999999998,-0.1));
#1095=CARTESIAN_POINT('',(136.55,14.9999999999998,-3.));
#1096=CARTESIAN_POINT('',(136.55,14.9999999999998,-1.5));
#1097=CARTESIAN_POINT('',(148.949999999999,14.9999999999998,-3.));
#1098=CARTESIAN_POINT('',(139.000000000001,14.9999999999998,-3.));
#1099=CARTESIAN_POINT('',(148.949999999999,14.9999999999998,-0.1));
#1100=CARTESIAN_POINT('',(148.949999999999,14.9999999999998,-1.5));
#1101=CARTESIAN_POINT('',(150.249999999999,14.9999999999998,-0.1));
#1102=CARTESIAN_POINT('',(146.250000000001,14.9999999999998,-0.1));
#1103=CARTESIAN_POINT('',(150.249999999999,14.9999999999998,-5.));
#1104=CARTESIAN_POINT('',(150.249999999999,14.9999999999998,0.));
#1105=CARTESIAN_POINT('',(148.224262130566,14.9999999999998,-7.39853101858978));
#1106=CARTESIAN_POINT('Origin',(128.250000000002,5.99999999999982,0.));
#1107=CARTESIAN_POINT('',(128.850000000002,6.77142857142792,-0.1));
#1108=CARTESIAN_POINT('',(128.850000000002,6.77142857142793,0.430677405394198));
#1109=CARTESIAN_POINT('',(136.62307692308,16.7653846153836,-0.1));
#1110=CARTESIAN_POINT('Origin',(155.649999999999,0.984999334004834,-6.5));
#1111=CARTESIAN_POINT('',(156.649999999999,6.77142857142906,-5.));
#1112=CARTESIAN_POINT('',(156.649999999999,-6.06410161513288,-5.));
#1113=CARTESIAN_POINT('',(156.649999999999,0.984999334004834,-5.));
#1114=CARTESIAN_POINT('',(158.397753725154,-1.58548269442038,-2.37836941226622));
#1115=CARTESIAN_POINT('',(154.649999999999,6.08521307114578,-8.));
#1116=CARTESIAN_POINT('Origin',(151.374567785995,11.9253050964352,-6.5));
#1117=CARTESIAN_POINT('',(152.163920003371,12.5392457099501,-5.));
#1118=CARTESIAN_POINT('Origin',(156.649999999999,-6.0641016151329,8.));
#1119=CARTESIAN_POINT('',(156.649999999999,-6.06410161513288,-0.1));
#1120=CARTESIAN_POINT('',(156.649999999999,-6.06410161513288,0.0632871790462453));
#1121=CARTESIAN_POINT('',(152.733736641355,-16.0995264716599,-0.1));
#1122=CARTESIAN_POINT('',(158.353983100503,-1.69764492008889,-0.1));
#1123=CARTESIAN_POINT('',(152.733736641355,-16.0995264716599,8.));
#1124=CARTESIAN_POINT('Origin',(157.249999999999,-3.99874980464919,-0.1));
#1125=CARTESIAN_POINT('',(132.766263358646,-16.09952647166,-0.1));
#1126=CARTESIAN_POINT('',(128.850000000001,-6.06410161513199,-0.1));
#1127=CARTESIAN_POINT('',(132.183084529852,-14.6051307228757,-0.1));
#1128=CARTESIAN_POINT('',(142.082039553495,-22.4641016151332,-0.1));
#1129=CARTESIAN_POINT('Origin',(142.082039553496,-12.4641016151332,-0.1));
#1130=CARTESIAN_POINT('',(143.417960446503,-22.4641016151333,-0.1));
#1131=CARTESIAN_POINT('',(153.449999999997,-22.4641016151345,-0.1));
#1132=CARTESIAN_POINT('Origin',(143.417960446504,-12.4641016151333,-0.1));
#1133=CARTESIAN_POINT('',(156.649999999999,-3.99874980464919,-0.1));
#1134=CARTESIAN_POINT('',(156.649999999999,-1.64835016453663,-0.1));
#1135=CARTESIAN_POINT('',(128.850000000001,-3.99874980464919,-0.1));
#1136=CARTESIAN_POINT('',(157.249999999999,-3.99874980464919,-0.1));
#1137=CARTESIAN_POINT('',(128.850000000001,-1.6466714899801,-0.1));
#1138=CARTESIAN_POINT('',(141.15,-7.46410161513236,-0.1));
#1139=CARTESIAN_POINT('Origin',(142.75,-7.46410161513236,-0.1));
#1140=CARTESIAN_POINT('',(138.7,-15.4641016151324,-0.099999999999999));
#1141=CARTESIAN_POINT('Origin',(142.75,-15.4641016151324,-0.1));
#1142=CARTESIAN_POINT('Origin',(135.25,-22.4641016151324,8.));
#1143=CARTESIAN_POINT('',(132.766263358646,-16.09952647166,8.));
#1144=CARTESIAN_POINT('',(128.850000000001,-6.064101615132,0.430677405394198));
#1145=CARTESIAN_POINT('Origin',(142.75,-15.4641016151324,8.));
#1146=CARTESIAN_POINT('',(138.7,-15.4641016151324,8.));
#1147=CARTESIAN_POINT('Origin',(142.082039553496,-12.4641016151332,8.));
#1148=CARTESIAN_POINT('',(142.082039553495,-22.4641016151332,8.));
#1149=CARTESIAN_POINT('Origin',(143.417960446504,-12.4641016151333,8.));
#1150=CARTESIAN_POINT('',(143.417960446503,-22.4641016151333,8.));
#1151=CARTESIAN_POINT('Origin',(150.249999999999,-22.4641016151341,8.));
#1152=CARTESIAN_POINT('Origin',(139.749999999999,10.4999999999999,-4.3));
#1153=CARTESIAN_POINT('',(141.249999999999,10.4999999999999,-4.3));
#1154=CARTESIAN_POINT('Origin',(139.749999999999,10.4999999999999,-4.3));
#1155=CARTESIAN_POINT('Origin',(145.749999999999,10.5000000000001,-4.3));
#1156=CARTESIAN_POINT('',(147.349999999999,10.5000000000001,-4.3));
#1157=CARTESIAN_POINT('Origin',(145.749999999999,10.5000000000001,-4.3));
#1158=CARTESIAN_POINT('Origin',(128.850000000001,0.705406824686055,0.861354810788395));
#1159=CARTESIAN_POINT('',(128.850000000001,-3.27261363440549,-2.3));
#1160=CARTESIAN_POINT('Origin',(128.850000000001,0.,1.12103877145985E-43));
#1161=CARTESIAN_POINT('',(128.850000000002,3.27261363440549,-2.3));
#1162=CARTESIAN_POINT('',(128.850000000002,1.98901022954724,-2.3));
#1163=CARTESIAN_POINT('',(128.850000000002,3.99874980461733,-0.1));
#1164=CARTESIAN_POINT('Origin',(128.850000000001,0.,1.12103877145985E-43));
#1165=CARTESIAN_POINT('',(128.850000000002,9.3527034123445,-0.1));
#1166=CARTESIAN_POINT('Origin',(157.249999999999,3.27261363440549,-2.3));
#1167=CARTESIAN_POINT('',(156.649999999999,-3.27261363440549,-2.3));
#1168=CARTESIAN_POINT('',(157.249999999999,-3.27261363440549,-2.3));
#1169=CARTESIAN_POINT('',(156.649999999999,3.27261363440549,-2.3));
#1170=CARTESIAN_POINT('',(156.649999999999,1.98733155499071,-2.3));
#1171=CARTESIAN_POINT('',(157.249999999999,3.27261363440549,-2.3));
#1172=CARTESIAN_POINT('',(147.950000000001,5.92398286994818E-12,-2.3));
#1173=CARTESIAN_POINT('Origin',(149.750000000001,5.92420330637203E-12,-2.3));
#1174=CARTESIAN_POINT('',(133.949999999999,5.3043303924692E-12,-2.3));
#1175=CARTESIAN_POINT('Origin',(135.749999999999,5.30455082889304E-12,-2.3));
#1176=CARTESIAN_POINT('Origin',(157.249999999999,0.,1.12103877145985E-43));
#1177=CARTESIAN_POINT('Origin',(156.649999999999,0.,1.12103877145985E-43));
#1178=CARTESIAN_POINT('Origin',(156.649999999999,0.702049475575934,0.126574358092491));
#1179=CARTESIAN_POINT('',(156.649999999999,6.77142857142905,-0.1));
#1180=CARTESIAN_POINT('',(156.649999999999,6.77142857142906,0.0632871790462453));
#1181=CARTESIAN_POINT('',(156.649999999999,3.99874980461733,-0.1));
#1182=CARTESIAN_POINT('',(156.649999999999,9.35102473778797,-0.1));
#1183=CARTESIAN_POINT('Origin',(156.649999999999,0.,1.12103877145985E-43));
#1184=CARTESIAN_POINT('Origin',(157.249999999999,0.,1.12103877145985E-43));
#1185=CARTESIAN_POINT('',(157.249999999999,3.99874980461733,-0.1));
#1186=CARTESIAN_POINT('Origin',(157.249999999999,18.,-0.1));
#1187=CARTESIAN_POINT('',(150.842307692307,14.2384615384614,-0.1));
#1188=CARTESIAN_POINT('',(148.949999999999,6.80000000000025,-0.1));
#1189=CARTESIAN_POINT('',(148.949999999999,12.4000000000006,-0.1));
#1190=CARTESIAN_POINT('',(136.55,6.80000000000157,-0.1));
#1191=CARTESIAN_POINT('',(146.899999999999,6.80000000000047,-0.1));
#1192=CARTESIAN_POINT('',(136.55,16.4999999999999,-0.1));
#1193=CARTESIAN_POINT('Origin',(150.249999999999,14.9999999999998,0.));
#1194=CARTESIAN_POINT('Origin',(142.75,-7.46410161513238,-2.8));
#1195=CARTESIAN_POINT('',(141.15,-7.46410161513236,-2.8));
#1196=CARTESIAN_POINT('Origin',(142.75,-7.46410161513236,-2.8));
#1197=CARTESIAN_POINT('Origin',(135.749999999999,5.29098672819961E-12,-4.3));
#1198=CARTESIAN_POINT('',(133.949999999999,5.30477126531689E-12,-4.3));
#1199=CARTESIAN_POINT('Origin',(135.749999999999,5.30455082889304E-12,-4.3));
#1200=CARTESIAN_POINT('Origin',(149.750000000001,5.90908260548787E-12,-4.3));
#1201=CARTESIAN_POINT('',(147.950000000001,5.92442374279587E-12,-4.3));
#1202=CARTESIAN_POINT('Origin',(149.750000000001,5.92420330637203E-12,-4.3));
#1203=CARTESIAN_POINT('Origin',(135.749999999999,5.30455082889304E-12,-8.));
#1204=CARTESIAN_POINT('',(132.499999999999,5.30415281868332E-12,-4.5));
#1205=CARTESIAN_POINT('',(132.499999999999,5.30415281868332E-12,-8.));
#1206=CARTESIAN_POINT('Origin',(135.749999999999,5.30455082889304E-12,-4.5));
#1207=CARTESIAN_POINT('Origin',(135.749999999999,5.304645611659E-12,-4.5));
#1208=CARTESIAN_POINT('Origin',(149.750000000001,5.92420330637203E-12,-8.));
#1209=CARTESIAN_POINT('',(146.500000000001,5.9238052961623E-12,-4.5));
#1210=CARTESIAN_POINT('',(146.500000000001,5.9238052961623E-12,-8.));
#1211=CARTESIAN_POINT('Origin',(149.750000000001,5.92420330637203E-12,-4.5));
#1212=CARTESIAN_POINT('Origin',(149.750000000001,5.92415005939984E-12,-4.5));
#1213=CARTESIAN_POINT('Origin',(139.749999999999,10.4999999999999,-8.));
#1214=CARTESIAN_POINT('',(136.999999999999,10.4999999999999,-4.5));
#1215=CARTESIAN_POINT('',(136.999999999999,10.4999999999999,-8.));
#1216=CARTESIAN_POINT('Origin',(139.749999999999,10.4999999999999,-4.5));
#1217=CARTESIAN_POINT('Origin',(139.749999999999,10.4999999999999,-4.5));
#1218=CARTESIAN_POINT('Origin',(145.749999999999,10.5000000000001,-8.));
#1219=CARTESIAN_POINT('',(142.999999999999,10.5000000000001,-4.5));
#1220=CARTESIAN_POINT('',(142.999999999999,10.5000000000001,-8.));
#1221=CARTESIAN_POINT('Origin',(145.749999999999,10.5000000000001,-4.5));
#1222=CARTESIAN_POINT('Origin',(145.749999999999,10.5000000000001,-4.5));
#1223=CARTESIAN_POINT('Origin',(142.75,-7.46410161513236,-8.));
#1224=CARTESIAN_POINT('',(140.75,-7.46410161513236,-3.));
#1225=CARTESIAN_POINT('',(140.75,-7.46410161513236,-8.));
#1226=CARTESIAN_POINT('Origin',(142.75,-7.46410161513236,-3.));
#1227=CARTESIAN_POINT('Origin',(142.75,-7.46410161513236,-3.));
#1228=CARTESIAN_POINT('Origin',(136.55,14.9999999999998,-3.));
#1229=CARTESIAN_POINT('',(136.55,6.80000000000157,-3.));
#1230=CARTESIAN_POINT('',(136.55,6.80000000000157,-3.));
#1231=CARTESIAN_POINT('',(136.55,6.80000000000157,-3.));
#1232=CARTESIAN_POINT('Origin',(148.949999999999,6.80000000000025,-3.));
#1233=CARTESIAN_POINT('',(148.949999999999,6.80000000000025,-3.));
#1234=CARTESIAN_POINT('',(148.949999999999,14.9999999999998,-3.));
#1235=CARTESIAN_POINT('',(148.949999999999,6.80000000000025,-3.));
#1236=CARTESIAN_POINT('Origin',(136.55,6.80000000000157,-3.));
#1237=CARTESIAN_POINT('',(148.949999999999,6.80000000000025,-3.));
#1238=CARTESIAN_POINT('Origin',(142.749999999999,10.9,-3.));
#1239=CARTESIAN_POINT('',(147.349999999999,10.5000000000001,-3.));
#1240=CARTESIAN_POINT('Origin',(145.749999999999,10.5000000000001,-3.));
#1241=CARTESIAN_POINT('',(141.249999999999,10.4999999999999,-3.));
#1242=CARTESIAN_POINT('Origin',(139.749999999999,10.4999999999999,-3.));
#1243=CARTESIAN_POINT('Origin',(145.749999999999,10.5000000000001,-8.));
#1244=CARTESIAN_POINT('',(147.349999999999,10.5000000000001,-8.));
#1245=CARTESIAN_POINT('Origin',(139.749999999999,10.4999999999999,-8.));
#1246=CARTESIAN_POINT('',(141.249999999999,10.4999999999999,-8.));
#1247=CARTESIAN_POINT('Origin',(135.749999999999,5.30455082889304E-12,0.));
#1248=CARTESIAN_POINT('',(133.949999999999,5.30477126531689E-12,0.));
#1249=CARTESIAN_POINT('Origin',(149.750000000001,5.92420330637203E-12,0.));
#1250=CARTESIAN_POINT('',(147.950000000001,5.92442374279587E-12,0.));
#1251=CARTESIAN_POINT('Origin',(142.75,-7.46410161513236,0.));
#1252=CARTESIAN_POINT('',(141.15,-7.46410161513236,0.));
#1253=UNCERTAINTY_MEASURE_WITH_UNIT(LENGTH_MEASURE(0.01),#1257,
'DISTANCE_ACCURACY_VALUE',
'Maximum model space distance between geometric entities at asserted c
onnectivities');
#1254=UNCERTAINTY_MEASURE_WITH_UNIT(LENGTH_MEASURE(0.01),#1257,
'DISTANCE_ACCURACY_VALUE',
'Maximum model space distance between geometric entities at asserted c
onnectivities');
#1255=(
GEOMETRIC_REPRESENTATION_CONTEXT(3)
GLOBAL_UNCERTAINTY_ASSIGNED_CONTEXT((#1253))
GLOBAL_UNIT_ASSIGNED_CONTEXT((#1257,#1259,#1260))
REPRESENTATION_CONTEXT('','3D')
);
#1256=(
GEOMETRIC_REPRESENTATION_CONTEXT(3)
GLOBAL_UNCERTAINTY_ASSIGNED_CONTEXT((#1254))
GLOBAL_UNIT_ASSIGNED_CONTEXT((#1257,#1259,#1260))
REPRESENTATION_CONTEXT('','3D')
);
#1257=(
LENGTH_UNIT()
NAMED_UNIT(*)
SI_UNIT(.MILLI.,.METRE.)
);
#1258=(
LENGTH_UNIT()
NAMED_UNIT(*)
SI_UNIT($,.METRE.)
);
#1259=(
NAMED_UNIT(*)
PLANE_ANGLE_UNIT()
SI_UNIT($,.RADIAN.)
);
#1260=(
NAMED_UNIT(*)
SI_UNIT($,.STERADIAN.)
SOLID_ANGLE_UNIT()
);
#1261=SHAPE_DEFINITION_REPRESENTATION(#1262,#1263);
#1262=PRODUCT_DEFINITION_SHAPE('',$,#1265);
#1263=SHAPE_REPRESENTATION('',(#751),#1255);
#1264=PRODUCT_DEFINITION_CONTEXT('part definition',#1269,'design');
#1265=PRODUCT_DEFINITION('TorqueShaftClampLeft-3DPrint',
'TorqueShaftClampLeft-3DPrint',#1266,#1264);
#1266=PRODUCT_DEFINITION_FORMATION('',$,#1271);
#1267=PRODUCT_RELATED_PRODUCT_CATEGORY('TorqueShaftClampLeft-3DPrint',
'TorqueShaftClampLeft-3DPrint',(#1271));
#1268=APPLICATION_PROTOCOL_DEFINITION('international standard',
'automotive_design',2009,#1269);
#1269=APPLICATION_CONTEXT(
'Core Data for Automotive Mechanical Design Process');
#1270=PRODUCT_CONTEXT('part definition',#1269,'mechanical');
#1271=PRODUCT('TorqueShaftClampLeft-3DPrint',
'TorqueShaftClampLeft-3DPrint',$,(#1270));
#1272=PRESENTATION_STYLE_ASSIGNMENT((#1273));
#1273=SURFACE_STYLE_USAGE(.BOTH.,#1274);
#1274=SURFACE_SIDE_STYLE('',(#1275));
#1275=SURFACE_STYLE_FILL_AREA(#1276);
#1276=FILL_AREA_STYLE('Steel - Satin',(#1277));
#1277=FILL_AREA_STYLE_COLOUR('Steel - Satin',#1278);
#1278=COLOUR_RGB('Steel - Satin',0.627450980392157,0.627450980392157,0.627450980392157);
ENDSEC;
END-ISO-10303-21;
