ISO-10303-21;
HEADER;
/* Generated by software containing ST-Developer
 * from STEP Tools, Inc. (www.steptools.com) 
 */

FILE_DESCRIPTION(
/* description */ (''),
/* implementation_level */ '2;1');

FILE_NAME(
/* name */ 'Bolt Side - 3D Print.step',
/* time_stamp */ '2025-05-01T08:26:09+01:00',
/* author */ (''),
/* organization */ (''),
/* preprocessor_version */ 'ST-DEVELOPER v20.1',
/* originating_system */ 'Autodesk Translation Framework v14.4.0.0',
/* authorisation */ '');

FILE_SCHEMA (('AUTOMOTIVE_DESIGN { 1 0 10303 214 3 1 1 }'));
ENDSEC;

DATA;
#10=MECHANICAL_DESIGN_GEOMETRIC_PRESENTATION_REPRESENTATION('',(#13),#1366);
#11=SHAPE_REPRESENTATION_RELATIONSHIP('SRR','None',#1373,#12);
#12=ADVANCED_BREP_SHAPE_REPRESENTATION('',(#14),#1365);
#13=STYLED_ITEM('',(#1382),#14);
#14=MANIFOLD_SOLID_BREP('Bolt Side',#633);
#15=FACE_BOUND('',#191,.T.);
#16=FACE_BOUND('',#194,.T.);
#17=FACE_BOUND('',#195,.T.);
#18=FACE_BOUND('',#198,.T.);
#19=FACE_BOUND('',#201,.T.);
#20=FACE_BOUND('',#204,.T.);
#21=FACE_BOUND('',#207,.T.);
#22=FACE_BOUND('',#217,.T.);
#23=FACE_BOUND('',#224,.T.);
#24=FACE_BOUND('',#225,.T.);
#25=FACE_BOUND('',#226,.T.);
#26=FACE_BOUND('',#227,.T.);
#27=FACE_BOUND('',#228,.T.);
#28=FACE_BOUND('',#232,.T.);
#29=FACE_BOUND('',#233,.T.);
#30=CYLINDRICAL_SURFACE('',#653,1.5);
#31=CYLINDRICAL_SURFACE('',#659,4.05);
#32=CYLINDRICAL_SURFACE('',#665,2.00000000000001);
#33=CYLINDRICAL_SURFACE('',#669,2.);
#34=CYLINDRICAL_SURFACE('',#673,1.5);
#35=CYLINDRICAL_SURFACE('',#677,1.5);
#36=CYLINDRICAL_SURFACE('',#681,0.999999999999996);
#37=CYLINDRICAL_SURFACE('',#682,0.999999999999996);
#38=CYLINDRICAL_SURFACE('',#683,0.999999999999996);
#39=CYLINDRICAL_SURFACE('',#685,0.999999999999996);
#40=CYLINDRICAL_SURFACE('',#689,2.75);
#41=CYLINDRICAL_SURFACE('',#693,2.75);
#42=CYLINDRICAL_SURFACE('',#699,1.7);
#43=CYLINDRICAL_SURFACE('',#701,1.7);
#44=CYLINDRICAL_SURFACE('',#704,12.0000000000005);
#45=CYLINDRICAL_SURFACE('',#708,5.00000000000003);
#46=LINE('',#1009,#90);
#47=LINE('',#1012,#91);
#48=LINE('',#1016,#92);
#49=LINE('',#1019,#93);
#50=LINE('',#1022,#94);
#51=LINE('',#1024,#95);
#52=LINE('',#1028,#96);
#53=LINE('',#1029,#97);
#54=LINE('',#1032,#98);
#55=LINE('',#1033,#99);
#56=LINE('',#1035,#100);
#57=LINE('',#1036,#101);
#58=LINE('',#1039,#102);
#59=LINE('',#1043,#103);
#60=LINE('',#1047,#104);
#61=LINE('',#1051,#105);
#62=LINE('',#1054,#106);
#63=LINE('',#1056,#107);
#64=LINE('',#1058,#108);
#65=LINE('',#1059,#109);
#66=LINE('',#1068,#110);
#67=LINE('',#1117,#111);
#68=LINE('',#1166,#112);
#69=LINE('',#1215,#113);
#70=LINE('',#1261,#114);
#71=LINE('',#1263,#115);
#72=LINE('',#1267,#116);
#73=LINE('',#1271,#117);
#74=LINE('',#1277,#118);
#75=LINE('',#1279,#119);
#76=LINE('',#1280,#120);
#77=LINE('',#1304,#121);
#78=LINE('',#1309,#122);
#79=LINE('',#1310,#123);
#80=LINE('',#1334,#124);
#81=LINE('',#1338,#125);
#82=LINE('',#1341,#126);
#83=LINE('',#1342,#127);
#84=LINE('',#1344,#128);
#85=LINE('',#1346,#129);
#86=LINE('',#1350,#130);
#87=LINE('',#1354,#131);
#88=LINE('',#1358,#132);
#89=LINE('',#1361,#133);
#90=VECTOR('',#718,10.);
#91=VECTOR('',#721,10.);
#92=VECTOR('',#724,10.);
#93=VECTOR('',#727,10.);
#94=VECTOR('',#730,10.);
#95=VECTOR('',#731,10.);
#96=VECTOR('',#736,10.);
#97=VECTOR('',#737,10.);
#98=VECTOR('',#740,10.);
#99=VECTOR('',#741,10.);
#100=VECTOR('',#742,10.);
#101=VECTOR('',#743,10.);
#102=VECTOR('',#744,10.);
#103=VECTOR('',#747,10.);
#104=VECTOR('',#752,10.);
#105=VECTOR('',#757,10.);
#106=VECTOR('',#760,10.);
#107=VECTOR('',#761,10.);
#108=VECTOR('',#762,10.);
#109=VECTOR('',#763,10.);
#110=VECTOR('',#772,2.00000000000001);
#111=VECTOR('',#781,2.);
#112=VECTOR('',#790,1.5);
#113=VECTOR('',#799,1.5);
#114=VECTOR('',#806,0.999999999999996);
#115=VECTOR('',#809,0.999999999999996);
#116=VECTOR('',#814,0.999999999999996);
#117=VECTOR('',#819,0.999999999999996);
#118=VECTOR('',#824,10.);
#119=VECTOR('',#825,10.);
#120=VECTOR('',#826,10.);
#121=VECTOR('',#831,10.);
#122=VECTOR('',#836,10.);
#123=VECTOR('',#837,10.);
#124=VECTOR('',#844,10.);
#125=VECTOR('',#847,10.);
#126=VECTOR('',#852,10.);
#127=VECTOR('',#853,10.);
#128=VECTOR('',#856,10.);
#129=VECTOR('',#859,10.);
#130=VECTOR('',#864,10.);
#131=VECTOR('',#869,10.);
#132=VECTOR('',#874,10.);
#133=VECTOR('',#879,10.);
#134=PLANE('',#648);
#135=PLANE('',#651);
#136=PLANE('',#655);
#137=PLANE('',#656);
#138=PLANE('',#662);
#139=PLANE('',#667);
#140=PLANE('',#671);
#141=PLANE('',#675);
#142=PLANE('',#679);
#143=PLANE('',#687);
#144=PLANE('',#691);
#145=PLANE('',#695);
#146=PLANE('',#698);
#147=PLANE('',#700);
#148=PLANE('',#702);
#149=PLANE('',#706);
#150=PLANE('',#709);
#151=FACE_OUTER_BOUND('',#185,.T.);
#152=FACE_OUTER_BOUND('',#186,.T.);
#153=FACE_OUTER_BOUND('',#187,.T.);
#154=FACE_OUTER_BOUND('',#188,.T.);
#155=FACE_OUTER_BOUND('',#189,.T.);
#156=FACE_OUTER_BOUND('',#190,.T.);
#157=FACE_OUTER_BOUND('',#192,.T.);
#158=FACE_OUTER_BOUND('',#193,.T.);
#159=FACE_OUTER_BOUND('',#196,.T.);
#160=FACE_OUTER_BOUND('',#197,.T.);
#161=FACE_OUTER_BOUND('',#199,.T.);
#162=FACE_OUTER_BOUND('',#200,.T.);
#163=FACE_OUTER_BOUND('',#202,.T.);
#164=FACE_OUTER_BOUND('',#203,.T.);
#165=FACE_OUTER_BOUND('',#205,.T.);
#166=FACE_OUTER_BOUND('',#206,.T.);
#167=FACE_OUTER_BOUND('',#208,.T.);
#168=FACE_OUTER_BOUND('',#209,.T.);
#169=FACE_OUTER_BOUND('',#210,.T.);
#170=FACE_OUTER_BOUND('',#211,.T.);
#171=FACE_OUTER_BOUND('',#212,.T.);
#172=FACE_OUTER_BOUND('',#213,.T.);
#173=FACE_OUTER_BOUND('',#214,.T.);
#174=FACE_OUTER_BOUND('',#215,.T.);
#175=FACE_OUTER_BOUND('',#216,.T.);
#176=FACE_OUTER_BOUND('',#218,.T.);
#177=FACE_OUTER_BOUND('',#219,.T.);
#178=FACE_OUTER_BOUND('',#220,.T.);
#179=FACE_OUTER_BOUND('',#221,.T.);
#180=FACE_OUTER_BOUND('',#222,.T.);
#181=FACE_OUTER_BOUND('',#223,.T.);
#182=FACE_OUTER_BOUND('',#229,.T.);
#183=FACE_OUTER_BOUND('',#230,.T.);
#184=FACE_OUTER_BOUND('',#231,.T.);
#185=EDGE_LOOP('',(#424,#425,#426,#427));
#186=EDGE_LOOP('',(#428,#429,#430,#431));
#187=EDGE_LOOP('',(#432,#433,#434));
#188=EDGE_LOOP('',(#435,#436,#437,#438));
#189=EDGE_LOOP('',(#439,#440,#441));
#190=EDGE_LOOP('',(#442,#443,#444,#445,#446,#447,#448,#449));
#191=EDGE_LOOP('',(#450,#451,#452,#453));
#192=EDGE_LOOP('',(#454,#455,#456,#457,#458,#459,#460,#461,#462,#463));
#193=EDGE_LOOP('',(#464,#465,#466,#467,#468,#469));
#194=EDGE_LOOP('',(#470));
#195=EDGE_LOOP('',(#471));
#196=EDGE_LOOP('',(#472,#473,#474,#475,#476));
#197=EDGE_LOOP('',(#477));
#198=EDGE_LOOP('',(#478));
#199=EDGE_LOOP('',(#479,#480,#481,#482,#483));
#200=EDGE_LOOP('',(#484));
#201=EDGE_LOOP('',(#485));
#202=EDGE_LOOP('',(#486,#487,#488,#489,#490));
#203=EDGE_LOOP('',(#491));
#204=EDGE_LOOP('',(#492));
#205=EDGE_LOOP('',(#493,#494,#495,#496,#497));
#206=EDGE_LOOP('',(#498));
#207=EDGE_LOOP('',(#499));
#208=EDGE_LOOP('',(#500,#501,#502,#503));
#209=EDGE_LOOP('',(#504,#505,#506,#507));
#210=EDGE_LOOP('',(#508,#509,#510,#511));
#211=EDGE_LOOP('',(#512,#513,#514,#515));
#212=EDGE_LOOP('',(#516,#517,#518,#519));
#213=EDGE_LOOP('',(#520,#521,#522,#523));
#214=EDGE_LOOP('',(#524,#525,#526,#527));
#215=EDGE_LOOP('',(#528,#529,#530,#531));
#216=EDGE_LOOP('',(#532,#533,#534,#535));
#217=EDGE_LOOP('',(#536,#537,#538,#539));
#218=EDGE_LOOP('',(#540,#541,#542,#543));
#219=EDGE_LOOP('',(#544,#545,#546,#547));
#220=EDGE_LOOP('',(#548,#549,#550,#551));
#221=EDGE_LOOP('',(#552,#553,#554,#555));
#222=EDGE_LOOP('',(#556,#557,#558,#559,#560,#561,#562,#563,#564,#565));
#223=EDGE_LOOP('',(#566,#567,#568,#569));
#224=EDGE_LOOP('',(#570,#571));
#225=EDGE_LOOP('',(#572,#573));
#226=EDGE_LOOP('',(#574,#575));
#227=EDGE_LOOP('',(#576,#577));
#228=EDGE_LOOP('',(#578,#579,#580,#581));
#229=EDGE_LOOP('',(#582,#583,#584,#585));
#230=EDGE_LOOP('',(#586,#587,#588,#589));
#231=EDGE_LOOP('',(#590,#591,#592,#593,#594,#595));
#232=EDGE_LOOP('',(#596));
#233=EDGE_LOOP('',(#597));
#234=CIRCLE('',#647,4.05);
#235=CIRCLE('',#649,4.05);
#236=CIRCLE('',#650,5.);
#237=CIRCLE('',#652,1.5);
#238=CIRCLE('',#654,1.5);
#239=CIRCLE('',#657,1.7);
#240=CIRCLE('',#658,1.7);
#241=CIRCLE('',#660,4.05);
#242=CIRCLE('',#661,4.05);
#243=CIRCLE('',#663,0.999999999999996);
#244=CIRCLE('',#664,0.999999999999996);
#245=CIRCLE('',#666,2.00000000000001);
#246=CIRCLE('',#668,0.999999999999996);
#247=CIRCLE('',#670,2.);
#248=CIRCLE('',#672,0.999999999999996);
#249=CIRCLE('',#674,1.5);
#250=CIRCLE('',#676,0.999999999999996);
#251=CIRCLE('',#678,1.5);
#252=CIRCLE('',#680,0.999999999999996);
#253=CIRCLE('',#684,0.999999999999996);
#254=CIRCLE('',#686,0.999999999999996);
#255=CIRCLE('',#688,12.0000000000005);
#256=CIRCLE('',#690,2.75);
#257=CIRCLE('',#692,12.0000000000005);
#258=CIRCLE('',#694,2.75);
#259=CIRCLE('',#696,1.7);
#260=CIRCLE('',#697,1.7);
#261=CIRCLE('',#703,12.0000000000011);
#262=CIRCLE('',#705,12.);
#263=CIRCLE('',#707,5.00000000000005);
#264=B_SPLINE_CURVE_WITH_KNOTS('',3,(#945,#946,#947,#948,#949,#950,#951,
#952,#953,#954,#955,#956,#957,#958,#959,#960,#961,#962,#963,#964,#965,#966,
#967,#968),.UNSPECIFIED.,.F.,.F.,(4,2,2,2,2,2,2,2,2,2,2,4),(0.,0.0810250661626427,
0.14338757488843,0.177725813547003,0.195616400534811,0.202122069603807,
0.207260015998937,0.209686655574956,0.210740931325565,0.211216570115572,
0.21126602936374,0.21129297118814),.UNSPECIFIED.);
#265=B_SPLINE_CURVE_WITH_KNOTS('',3,(#970,#971,#972,#973,#974,#975,#976,
#977),.UNSPECIFIED.,.F.,.F.,(4,1,1,1,1,4),(1.6059265469586,1.71903430915086,
1.85656717110115,1.99410003305144,2.13163289500172,2.24490729073716),
 .UNSPECIFIED.);
#266=B_SPLINE_CURVE_WITH_KNOTS('',3,(#979,#980,#981,#982,#983,#984,#985,
#986,#987,#988,#989,#990,#991,#992,#993,#994,#995,#996,#997,#998,#999,#1000,
#1001,#1002),.UNSPECIFIED.,.F.,.F.,(4,2,2,2,2,2,2,2,2,2,2,4),(-5.45207735714813E-6,
0.,6.85620358599586E-5,0.000169180010332916,0.000416340042662236,0.000953278019666729,
0.00186223137476215,0.00282769635351853,0.00487085093956857,0.0098334479109261,
0.0188464962974829,0.0305554972312866),.UNSPECIFIED.);
#267=B_SPLINE_CURVE_WITH_KNOTS('',3,(#1070,#1071,#1072,#1073,#1074,#1075,
#1076,#1077,#1078,#1079,#1080,#1081,#1082,#1083,#1084,#1085,#1086,#1087,
#1088,#1089,#1090,#1091,#1092,#1093,#1094,#1095,#1096,#1097),
 .UNSPECIFIED.,.F.,.F.,(4,2,2,2,2,2,2,2,2,2,2,2,2,4),(0.,0.0386743800375788,
0.0773487600751575,0.154697520150315,0.264975216090362,0.37525291203041,
0.469612022613417,0.563971133196424,0.637984880237952,0.71199862727948,
0.786012374321007,0.860026121362534,0.954385231945542,1.04874434252855),
 .UNSPECIFIED.);
#268=B_SPLINE_CURVE_WITH_KNOTS('',3,(#1098,#1099,#1100,#1101,#1102,#1103,
#1104,#1105,#1106,#1107,#1108,#1109),.UNSPECIFIED.,.F.,.F.,(4,2,2,2,2,4),
(1.04874434252855,1.1590220384686,1.26929973440864,1.3466484944838,1.38532287452138,
1.42399725455896),.UNSPECIFIED.);
#269=B_SPLINE_CURVE_WITH_KNOTS('',3,(#1119,#1120,#1121,#1122,#1123,#1124,
#1125,#1126,#1127,#1128,#1129,#1130,#1131,#1132,#1133,#1134,#1135,#1136,
#1137,#1138,#1139,#1140,#1141,#1142,#1143,#1144,#1145,#1146,#1147,#1148),
 .UNSPECIFIED.,.F.,.F.,(4,2,2,2,2,2,2,2,2,2,2,2,2,2,4),(0.,0.0740137470415277,
0.148027494083055,0.242386604666062,0.336745715249069,0.447023411189116,
0.557301107129163,0.63464986720432,0.673324247241898,0.711998627279477,
0.750673007317055,0.789347387354634,0.866696147429791,0.976973843369838,
1.08725153930988),.UNSPECIFIED.);
#270=B_SPLINE_CURVE_WITH_KNOTS('',3,(#1149,#1150,#1151,#1152,#1153,#1154,
#1155,#1156,#1157,#1158),.UNSPECIFIED.,.F.,.F.,(4,2,2,2,4),(1.08725153930988,
1.18161064989289,1.2759697604759,1.34998350751743,1.42399725455895),
 .UNSPECIFIED.);
#271=B_SPLINE_CURVE_WITH_KNOTS('',3,(#1168,#1169,#1170,#1171,#1172,#1173,
#1174,#1175,#1176,#1177,#1178,#1179,#1180,#1181,#1182,#1183,#1184,#1185,
#1186,#1187,#1188,#1189,#1190,#1191,#1192,#1193,#1194,#1195,#1196,#1197),
 .UNSPECIFIED.,.F.,.F.,(4,2,2,2,2,2,2,2,2,2,2,2,2,2,4),(0.,0.0555390508659618,
0.111078101731924,0.182866381217843,0.254654660703762,0.335168873560592,
0.415683086417422,0.472834813931806,0.501410677688997,0.529986541446189,
0.55856240520338,0.587138268960572,0.644289996474954,0.724804209331784,
0.805318422188614),.UNSPECIFIED.);
#272=B_SPLINE_CURVE_WITH_KNOTS('',3,(#1198,#1199,#1200,#1201,#1202,#1203,
#1204,#1205,#1206,#1207),.UNSPECIFIED.,.F.,.F.,(4,2,2,2,4),(0.805318422188614,
0.877106701674534,0.948894981160453,1.00443403202642,1.05997308289238),
 .UNSPECIFIED.);
#273=B_SPLINE_CURVE_WITH_KNOTS('',3,(#1217,#1218,#1219,#1220,#1221,#1222,
#1223,#1224,#1225,#1226,#1227,#1228,#1229,#1230,#1231,#1232,#1233,#1234,
#1235,#1236,#1237,#1238,#1239,#1240,#1241,#1242,#1243,#1244),
 .UNSPECIFIED.,.F.,.F.,(4,2,2,2,2,2,2,2,2,2,2,2,2,4),(0.,0.0285758637571915,
0.057151727514383,0.114303455028766,0.194817667885596,0.275331880742426,
0.347120160228345,0.418908439714264,0.474447490580226,0.529986541446187,
0.585525592312149,0.64106464317811,0.712852922664029,0.784641202149948),
 .UNSPECIFIED.);
#274=B_SPLINE_CURVE_WITH_KNOTS('',3,(#1245,#1246,#1247,#1248,#1249,#1250,
#1251,#1252,#1253,#1254,#1255,#1256),.UNSPECIFIED.,.F.,.F.,(4,2,2,2,2,4),
(0.784641202149948,0.865155415006779,0.945669627863609,1.00282135537799,
1.03139721913518,1.05997308289237),.UNSPECIFIED.);
#275=B_SPLINE_CURVE_WITH_KNOTS('',3,(#1283,#1284,#1285,#1286,#1287,#1288,
#1289,#1290,#1291,#1292,#1293,#1294,#1295,#1296,#1297,#1298,#1299,#1300,
#1301),.UNSPECIFIED.,.F.,.F.,(4,2,2,2,3,2,2,2,4),(-0.416782449918229,-0.312421862804679,
-0.20806127569113,-0.104030637845565,0.,0.104030637845565,0.208061275691129,
0.312421862804679,0.416782449918228),.UNSPECIFIED.);
#276=B_SPLINE_CURVE_WITH_KNOTS('',3,(#1312,#1313,#1314,#1315,#1316,#1317,
#1318,#1319,#1320,#1321,#1322,#1323,#1324,#1325,#1326,#1327,#1328,#1329),
 .UNSPECIFIED.,.F.,.F.,(4,2,2,2,2,2,2,2,4),(0.41536836260904,0.519728949722587,
0.624089536836133,0.728120174681697,0.832150812527262,0.936181450372826,
1.04021208821839,1.14457267533194,1.24893326244548),.UNSPECIFIED.);
#277=VERTEX_POINT('',#943);
#278=VERTEX_POINT('',#944);
#279=VERTEX_POINT('',#969);
#280=VERTEX_POINT('',#978);
#281=VERTEX_POINT('',#1005);
#282=VERTEX_POINT('',#1006);
#283=VERTEX_POINT('',#1008);
#284=VERTEX_POINT('',#1010);
#285=VERTEX_POINT('',#1014);
#286=VERTEX_POINT('',#1015);
#287=VERTEX_POINT('',#1017);
#288=VERTEX_POINT('',#1021);
#289=VERTEX_POINT('',#1023);
#290=VERTEX_POINT('',#1027);
#291=VERTEX_POINT('',#1031);
#292=VERTEX_POINT('',#1034);
#293=VERTEX_POINT('',#1037);
#294=VERTEX_POINT('',#1038);
#295=VERTEX_POINT('',#1040);
#296=VERTEX_POINT('',#1042);
#297=VERTEX_POINT('',#1046);
#298=VERTEX_POINT('',#1049);
#299=VERTEX_POINT('',#1053);
#300=VERTEX_POINT('',#1055);
#301=VERTEX_POINT('',#1057);
#302=VERTEX_POINT('',#1060);
#303=VERTEX_POINT('',#1062);
#304=VERTEX_POINT('',#1065);
#305=VERTEX_POINT('',#1067);
#306=VERTEX_POINT('',#1069);
#307=VERTEX_POINT('',#1111);
#308=VERTEX_POINT('',#1114);
#309=VERTEX_POINT('',#1116);
#310=VERTEX_POINT('',#1118);
#311=VERTEX_POINT('',#1160);
#312=VERTEX_POINT('',#1163);
#313=VERTEX_POINT('',#1165);
#314=VERTEX_POINT('',#1167);
#315=VERTEX_POINT('',#1209);
#316=VERTEX_POINT('',#1212);
#317=VERTEX_POINT('',#1214);
#318=VERTEX_POINT('',#1216);
#319=VERTEX_POINT('',#1258);
#320=VERTEX_POINT('',#1265);
#321=VERTEX_POINT('',#1269);
#322=VERTEX_POINT('',#1273);
#323=VERTEX_POINT('',#1274);
#324=VERTEX_POINT('',#1276);
#325=VERTEX_POINT('',#1278);
#326=VERTEX_POINT('',#1282);
#327=VERTEX_POINT('',#1302);
#328=VERTEX_POINT('',#1306);
#329=VERTEX_POINT('',#1308);
#330=VERTEX_POINT('',#1332);
#331=VERTEX_POINT('',#1333);
#332=VERTEX_POINT('',#1335);
#333=VERTEX_POINT('',#1337);
#334=VERTEX_POINT('',#1349);
#335=VERTEX_POINT('',#1353);
#336=VERTEX_POINT('',#1357);
#337=EDGE_CURVE('',#277,#278,#264,.F.);
#338=EDGE_CURVE('',#278,#279,#265,.T.);
#339=EDGE_CURVE('',#280,#279,#266,.T.);
#340=EDGE_CURVE('',#277,#280,#234,.T.);
#341=EDGE_CURVE('',#281,#282,#235,.T.);
#342=EDGE_CURVE('',#282,#283,#46,.T.);
#343=EDGE_CURVE('',#283,#284,#236,.T.);
#344=EDGE_CURVE('',#284,#281,#47,.T.);
#345=EDGE_CURVE('',#285,#286,#48,.T.);
#346=EDGE_CURVE('',#287,#285,#237,.T.);
#347=EDGE_CURVE('',#286,#287,#49,.T.);
#348=EDGE_CURVE('',#288,#287,#50,.T.);
#349=EDGE_CURVE('',#289,#285,#51,.T.);
#350=EDGE_CURVE('',#289,#288,#238,.T.);
#351=EDGE_CURVE('',#290,#289,#52,.T.);
#352=EDGE_CURVE('',#288,#290,#53,.T.);
#353=EDGE_CURVE('',#291,#278,#54,.T.);
#354=EDGE_CURVE('',#290,#291,#55,.T.);
#355=EDGE_CURVE('',#292,#286,#56,.T.);
#356=EDGE_CURVE('',#292,#279,#57,.T.);
#357=EDGE_CURVE('',#293,#294,#58,.T.);
#358=EDGE_CURVE('',#294,#295,#239,.T.);
#359=EDGE_CURVE('',#295,#296,#59,.T.);
#360=EDGE_CURVE('',#296,#293,#240,.T.);
#361=EDGE_CURVE('',#297,#281,#60,.T.);
#362=EDGE_CURVE('',#291,#297,#241,.T.);
#363=EDGE_CURVE('',#298,#292,#242,.T.);
#364=EDGE_CURVE('',#282,#298,#61,.T.);
#365=EDGE_CURVE('',#299,#298,#62,.T.);
#366=EDGE_CURVE('',#300,#299,#63,.T.);
#367=EDGE_CURVE('',#301,#300,#64,.T.);
#368=EDGE_CURVE('',#283,#301,#65,.T.);
#369=EDGE_CURVE('',#302,#302,#243,.T.);
#370=EDGE_CURVE('',#303,#303,#244,.T.);
#371=EDGE_CURVE('',#304,#304,#245,.T.);
#372=EDGE_CURVE('',#304,#305,#66,.T.);
#373=EDGE_CURVE('',#306,#305,#267,.T.);
#374=EDGE_CURVE('',#305,#306,#268,.T.);
#375=EDGE_CURVE('',#307,#307,#246,.T.);
#376=EDGE_CURVE('',#308,#308,#247,.T.);
#377=EDGE_CURVE('',#308,#309,#67,.T.);
#378=EDGE_CURVE('',#310,#309,#269,.T.);
#379=EDGE_CURVE('',#309,#310,#270,.T.);
#380=EDGE_CURVE('',#311,#311,#248,.T.);
#381=EDGE_CURVE('',#312,#312,#249,.T.);
#382=EDGE_CURVE('',#312,#313,#68,.T.);
#383=EDGE_CURVE('',#314,#313,#271,.T.);
#384=EDGE_CURVE('',#313,#314,#272,.T.);
#385=EDGE_CURVE('',#315,#315,#250,.T.);
#386=EDGE_CURVE('',#316,#316,#251,.T.);
#387=EDGE_CURVE('',#316,#317,#69,.T.);
#388=EDGE_CURVE('',#318,#317,#273,.T.);
#389=EDGE_CURVE('',#317,#318,#274,.T.);
#390=EDGE_CURVE('',#319,#319,#252,.T.);
#391=EDGE_CURVE('',#303,#311,#70,.T.);
#392=EDGE_CURVE('',#302,#315,#71,.T.);
#393=EDGE_CURVE('',#320,#320,#253,.T.);
#394=EDGE_CURVE('',#320,#307,#72,.T.);
#395=EDGE_CURVE('',#321,#321,#254,.T.);
#396=EDGE_CURVE('',#321,#319,#73,.T.);
#397=EDGE_CURVE('',#322,#323,#255,.T.);
#398=EDGE_CURVE('',#324,#322,#74,.T.);
#399=EDGE_CURVE('',#325,#324,#75,.T.);
#400=EDGE_CURVE('',#325,#323,#76,.T.);
#401=EDGE_CURVE('',#323,#326,#275,.T.);
#402=EDGE_CURVE('',#327,#325,#256,.T.);
#403=EDGE_CURVE('',#327,#326,#77,.T.);
#404=EDGE_CURVE('',#326,#328,#257,.T.);
#405=EDGE_CURVE('',#329,#327,#78,.T.);
#406=EDGE_CURVE('',#329,#328,#79,.T.);
#407=EDGE_CURVE('',#328,#322,#276,.T.);
#408=EDGE_CURVE('',#324,#329,#258,.T.);
#409=EDGE_CURVE('',#330,#331,#80,.T.);
#410=EDGE_CURVE('',#332,#330,#259,.T.);
#411=EDGE_CURVE('',#333,#332,#81,.T.);
#412=EDGE_CURVE('',#331,#333,#260,.T.);
#413=EDGE_CURVE('',#294,#332,#82,.T.);
#414=EDGE_CURVE('',#293,#333,#83,.T.);
#415=EDGE_CURVE('',#295,#330,#84,.T.);
#416=EDGE_CURVE('',#331,#296,#85,.T.);
#417=EDGE_CURVE('',#297,#334,#86,.T.);
#418=EDGE_CURVE('',#299,#334,#261,.T.);
#419=EDGE_CURVE('',#334,#335,#87,.T.);
#420=EDGE_CURVE('',#300,#335,#262,.T.);
#421=EDGE_CURVE('',#335,#336,#88,.T.);
#422=EDGE_CURVE('',#301,#336,#263,.T.);
#423=EDGE_CURVE('',#336,#284,#89,.T.);
#424=ORIENTED_EDGE('',*,*,#337,.T.);
#425=ORIENTED_EDGE('',*,*,#338,.T.);
#426=ORIENTED_EDGE('',*,*,#339,.F.);
#427=ORIENTED_EDGE('',*,*,#340,.F.);
#428=ORIENTED_EDGE('',*,*,#341,.T.);
#429=ORIENTED_EDGE('',*,*,#342,.T.);
#430=ORIENTED_EDGE('',*,*,#343,.T.);
#431=ORIENTED_EDGE('',*,*,#344,.T.);
#432=ORIENTED_EDGE('',*,*,#345,.F.);
#433=ORIENTED_EDGE('',*,*,#346,.F.);
#434=ORIENTED_EDGE('',*,*,#347,.F.);
#435=ORIENTED_EDGE('',*,*,#348,.T.);
#436=ORIENTED_EDGE('',*,*,#346,.T.);
#437=ORIENTED_EDGE('',*,*,#349,.F.);
#438=ORIENTED_EDGE('',*,*,#350,.T.);
#439=ORIENTED_EDGE('',*,*,#351,.F.);
#440=ORIENTED_EDGE('',*,*,#352,.F.);
#441=ORIENTED_EDGE('',*,*,#350,.F.);
#442=ORIENTED_EDGE('',*,*,#338,.F.);
#443=ORIENTED_EDGE('',*,*,#353,.F.);
#444=ORIENTED_EDGE('',*,*,#354,.F.);
#445=ORIENTED_EDGE('',*,*,#351,.T.);
#446=ORIENTED_EDGE('',*,*,#349,.T.);
#447=ORIENTED_EDGE('',*,*,#345,.T.);
#448=ORIENTED_EDGE('',*,*,#355,.F.);
#449=ORIENTED_EDGE('',*,*,#356,.T.);
#450=ORIENTED_EDGE('',*,*,#357,.T.);
#451=ORIENTED_EDGE('',*,*,#358,.T.);
#452=ORIENTED_EDGE('',*,*,#359,.T.);
#453=ORIENTED_EDGE('',*,*,#360,.T.);
#454=ORIENTED_EDGE('',*,*,#361,.F.);
#455=ORIENTED_EDGE('',*,*,#362,.F.);
#456=ORIENTED_EDGE('',*,*,#353,.T.);
#457=ORIENTED_EDGE('',*,*,#337,.F.);
#458=ORIENTED_EDGE('',*,*,#340,.T.);
#459=ORIENTED_EDGE('',*,*,#339,.T.);
#460=ORIENTED_EDGE('',*,*,#356,.F.);
#461=ORIENTED_EDGE('',*,*,#363,.F.);
#462=ORIENTED_EDGE('',*,*,#364,.F.);
#463=ORIENTED_EDGE('',*,*,#341,.F.);
#464=ORIENTED_EDGE('',*,*,#364,.T.);
#465=ORIENTED_EDGE('',*,*,#365,.F.);
#466=ORIENTED_EDGE('',*,*,#366,.F.);
#467=ORIENTED_EDGE('',*,*,#367,.F.);
#468=ORIENTED_EDGE('',*,*,#368,.F.);
#469=ORIENTED_EDGE('',*,*,#342,.F.);
#470=ORIENTED_EDGE('',*,*,#369,.T.);
#471=ORIENTED_EDGE('',*,*,#370,.T.);
#472=ORIENTED_EDGE('',*,*,#371,.F.);
#473=ORIENTED_EDGE('',*,*,#372,.T.);
#474=ORIENTED_EDGE('',*,*,#373,.F.);
#475=ORIENTED_EDGE('',*,*,#374,.F.);
#476=ORIENTED_EDGE('',*,*,#372,.F.);
#477=ORIENTED_EDGE('',*,*,#371,.T.);
#478=ORIENTED_EDGE('',*,*,#375,.F.);
#479=ORIENTED_EDGE('',*,*,#376,.F.);
#480=ORIENTED_EDGE('',*,*,#377,.T.);
#481=ORIENTED_EDGE('',*,*,#378,.F.);
#482=ORIENTED_EDGE('',*,*,#379,.F.);
#483=ORIENTED_EDGE('',*,*,#377,.F.);
#484=ORIENTED_EDGE('',*,*,#376,.T.);
#485=ORIENTED_EDGE('',*,*,#380,.F.);
#486=ORIENTED_EDGE('',*,*,#381,.F.);
#487=ORIENTED_EDGE('',*,*,#382,.T.);
#488=ORIENTED_EDGE('',*,*,#383,.F.);
#489=ORIENTED_EDGE('',*,*,#384,.F.);
#490=ORIENTED_EDGE('',*,*,#382,.F.);
#491=ORIENTED_EDGE('',*,*,#381,.T.);
#492=ORIENTED_EDGE('',*,*,#385,.F.);
#493=ORIENTED_EDGE('',*,*,#386,.F.);
#494=ORIENTED_EDGE('',*,*,#387,.T.);
#495=ORIENTED_EDGE('',*,*,#388,.F.);
#496=ORIENTED_EDGE('',*,*,#389,.F.);
#497=ORIENTED_EDGE('',*,*,#387,.F.);
#498=ORIENTED_EDGE('',*,*,#386,.T.);
#499=ORIENTED_EDGE('',*,*,#390,.F.);
#500=ORIENTED_EDGE('',*,*,#370,.F.);
#501=ORIENTED_EDGE('',*,*,#391,.T.);
#502=ORIENTED_EDGE('',*,*,#380,.T.);
#503=ORIENTED_EDGE('',*,*,#391,.F.);
#504=ORIENTED_EDGE('',*,*,#369,.F.);
#505=ORIENTED_EDGE('',*,*,#392,.T.);
#506=ORIENTED_EDGE('',*,*,#385,.T.);
#507=ORIENTED_EDGE('',*,*,#392,.F.);
#508=ORIENTED_EDGE('',*,*,#393,.F.);
#509=ORIENTED_EDGE('',*,*,#394,.T.);
#510=ORIENTED_EDGE('',*,*,#375,.T.);
#511=ORIENTED_EDGE('',*,*,#394,.F.);
#512=ORIENTED_EDGE('',*,*,#395,.F.);
#513=ORIENTED_EDGE('',*,*,#396,.T.);
#514=ORIENTED_EDGE('',*,*,#390,.T.);
#515=ORIENTED_EDGE('',*,*,#396,.F.);
#516=ORIENTED_EDGE('',*,*,#397,.F.);
#517=ORIENTED_EDGE('',*,*,#398,.F.);
#518=ORIENTED_EDGE('',*,*,#399,.F.);
#519=ORIENTED_EDGE('',*,*,#400,.T.);
#520=ORIENTED_EDGE('',*,*,#401,.F.);
#521=ORIENTED_EDGE('',*,*,#400,.F.);
#522=ORIENTED_EDGE('',*,*,#402,.F.);
#523=ORIENTED_EDGE('',*,*,#403,.T.);
#524=ORIENTED_EDGE('',*,*,#404,.F.);
#525=ORIENTED_EDGE('',*,*,#403,.F.);
#526=ORIENTED_EDGE('',*,*,#405,.F.);
#527=ORIENTED_EDGE('',*,*,#406,.T.);
#528=ORIENTED_EDGE('',*,*,#407,.F.);
#529=ORIENTED_EDGE('',*,*,#406,.F.);
#530=ORIENTED_EDGE('',*,*,#408,.F.);
#531=ORIENTED_EDGE('',*,*,#398,.T.);
#532=ORIENTED_EDGE('',*,*,#402,.T.);
#533=ORIENTED_EDGE('',*,*,#399,.T.);
#534=ORIENTED_EDGE('',*,*,#408,.T.);
#535=ORIENTED_EDGE('',*,*,#405,.T.);
#536=ORIENTED_EDGE('',*,*,#409,.F.);
#537=ORIENTED_EDGE('',*,*,#410,.F.);
#538=ORIENTED_EDGE('',*,*,#411,.F.);
#539=ORIENTED_EDGE('',*,*,#412,.F.);
#540=ORIENTED_EDGE('',*,*,#411,.T.);
#541=ORIENTED_EDGE('',*,*,#413,.F.);
#542=ORIENTED_EDGE('',*,*,#357,.F.);
#543=ORIENTED_EDGE('',*,*,#414,.T.);
#544=ORIENTED_EDGE('',*,*,#410,.T.);
#545=ORIENTED_EDGE('',*,*,#415,.F.);
#546=ORIENTED_EDGE('',*,*,#358,.F.);
#547=ORIENTED_EDGE('',*,*,#413,.T.);
#548=ORIENTED_EDGE('',*,*,#409,.T.);
#549=ORIENTED_EDGE('',*,*,#416,.T.);
#550=ORIENTED_EDGE('',*,*,#359,.F.);
#551=ORIENTED_EDGE('',*,*,#415,.T.);
#552=ORIENTED_EDGE('',*,*,#412,.T.);
#553=ORIENTED_EDGE('',*,*,#414,.F.);
#554=ORIENTED_EDGE('',*,*,#360,.F.);
#555=ORIENTED_EDGE('',*,*,#416,.F.);
#556=ORIENTED_EDGE('',*,*,#352,.T.);
#557=ORIENTED_EDGE('',*,*,#354,.T.);
#558=ORIENTED_EDGE('',*,*,#362,.T.);
#559=ORIENTED_EDGE('',*,*,#417,.T.);
#560=ORIENTED_EDGE('',*,*,#418,.F.);
#561=ORIENTED_EDGE('',*,*,#365,.T.);
#562=ORIENTED_EDGE('',*,*,#363,.T.);
#563=ORIENTED_EDGE('',*,*,#355,.T.);
#564=ORIENTED_EDGE('',*,*,#347,.T.);
#565=ORIENTED_EDGE('',*,*,#348,.F.);
#566=ORIENTED_EDGE('',*,*,#419,.T.);
#567=ORIENTED_EDGE('',*,*,#420,.F.);
#568=ORIENTED_EDGE('',*,*,#366,.T.);
#569=ORIENTED_EDGE('',*,*,#418,.T.);
#570=ORIENTED_EDGE('',*,*,#373,.T.);
#571=ORIENTED_EDGE('',*,*,#374,.T.);
#572=ORIENTED_EDGE('',*,*,#378,.T.);
#573=ORIENTED_EDGE('',*,*,#379,.T.);
#574=ORIENTED_EDGE('',*,*,#383,.T.);
#575=ORIENTED_EDGE('',*,*,#384,.T.);
#576=ORIENTED_EDGE('',*,*,#388,.T.);
#577=ORIENTED_EDGE('',*,*,#389,.T.);
#578=ORIENTED_EDGE('',*,*,#404,.T.);
#579=ORIENTED_EDGE('',*,*,#407,.T.);
#580=ORIENTED_EDGE('',*,*,#397,.T.);
#581=ORIENTED_EDGE('',*,*,#401,.T.);
#582=ORIENTED_EDGE('',*,*,#421,.T.);
#583=ORIENTED_EDGE('',*,*,#422,.F.);
#584=ORIENTED_EDGE('',*,*,#367,.T.);
#585=ORIENTED_EDGE('',*,*,#420,.T.);
#586=ORIENTED_EDGE('',*,*,#423,.T.);
#587=ORIENTED_EDGE('',*,*,#343,.F.);
#588=ORIENTED_EDGE('',*,*,#368,.T.);
#589=ORIENTED_EDGE('',*,*,#422,.T.);
#590=ORIENTED_EDGE('',*,*,#361,.T.);
#591=ORIENTED_EDGE('',*,*,#344,.F.);
#592=ORIENTED_EDGE('',*,*,#423,.F.);
#593=ORIENTED_EDGE('',*,*,#421,.F.);
#594=ORIENTED_EDGE('',*,*,#419,.F.);
#595=ORIENTED_EDGE('',*,*,#417,.F.);
#596=ORIENTED_EDGE('',*,*,#393,.T.);
#597=ORIENTED_EDGE('',*,*,#395,.T.);
#598=B_SPLINE_SURFACE_WITH_KNOTS('',3,3,((#883,#884,#885,#886,#887,#888,
#889,#890,#891,#892,#893,#894),(#895,#896,#897,#898,#899,#900,#901,#902,
#903,#904,#905,#906),(#907,#908,#909,#910,#911,#912,#913,#914,#915,#916,
#917,#918),(#919,#920,#921,#922,#923,#924,#925,#926,#927,#928,#929,#930),
(#931,#932,#933,#934,#935,#936,#937,#938,#939,#940,#941,#942)),
 .UNSPECIFIED.,.F.,.F.,.F.,(4,1,4),(4,1,1,1,1,1,1,1,1,4),(0.,0.571428571428571,
1.),(-2.40669861890229,-2.33793218792715,-2.26916575695201,-2.13163289500172,
-1.99410003305144,-1.85656717110115,-1.71903430915086,-1.58150144720058,
-1.51273501622544,-1.44396858525029),.UNSPECIFIED.);
#599=ADVANCED_FACE('',(#151),#598,.F.);
#600=ADVANCED_FACE('',(#152),#134,.T.);
#601=ADVANCED_FACE('',(#153),#135,.T.);
#602=ADVANCED_FACE('',(#154),#30,.T.);
#603=ADVANCED_FACE('',(#155),#136,.F.);
#604=ADVANCED_FACE('',(#156,#15),#137,.T.);
#605=ADVANCED_FACE('',(#157),#31,.F.);
#606=ADVANCED_FACE('',(#158,#16,#17),#138,.F.);
#607=ADVANCED_FACE('',(#159),#32,.F.);
#608=ADVANCED_FACE('',(#160,#18),#139,.T.);
#609=ADVANCED_FACE('',(#161),#33,.F.);
#610=ADVANCED_FACE('',(#162,#19),#140,.T.);
#611=ADVANCED_FACE('',(#163),#34,.F.);
#612=ADVANCED_FACE('',(#164,#20),#141,.T.);
#613=ADVANCED_FACE('',(#165),#35,.F.);
#614=ADVANCED_FACE('',(#166,#21),#142,.T.);
#615=ADVANCED_FACE('',(#167),#36,.F.);
#616=ADVANCED_FACE('',(#168),#37,.F.);
#617=ADVANCED_FACE('',(#169),#38,.F.);
#618=ADVANCED_FACE('',(#170),#39,.F.);
#619=ADVANCED_FACE('',(#171),#143,.F.);
#620=ADVANCED_FACE('',(#172),#40,.F.);
#621=ADVANCED_FACE('',(#173),#144,.F.);
#622=ADVANCED_FACE('',(#174),#41,.F.);
#623=ADVANCED_FACE('',(#175,#22),#145,.T.);
#624=ADVANCED_FACE('',(#176),#146,.F.);
#625=ADVANCED_FACE('',(#177),#42,.F.);
#626=ADVANCED_FACE('',(#178),#147,.F.);
#627=ADVANCED_FACE('',(#179),#43,.F.);
#628=ADVANCED_FACE('',(#180),#148,.T.);
#629=ADVANCED_FACE('',(#181,#23,#24,#25,#26,#27),#44,.T.);
#630=ADVANCED_FACE('',(#182),#149,.T.);
#631=ADVANCED_FACE('',(#183),#45,.T.);
#632=ADVANCED_FACE('',(#184,#28,#29),#150,.F.);
#633=CLOSED_SHELL('',(#599,#600,#601,#602,#603,#604,#605,#606,#607,#608,
#609,#610,#611,#612,#613,#614,#615,#616,#617,#618,#619,#620,#621,#622,#623,
#624,#625,#626,#627,#628,#629,#630,#631,#632));
#634=DERIVED_UNIT_ELEMENT(#636,1.);
#635=DERIVED_UNIT_ELEMENT(#1368,-3.);
#636=(
MASS_UNIT()
NAMED_UNIT(*)
SI_UNIT(.KILO.,.GRAM.)
);
#637=DERIVED_UNIT((#634,#635));
#638=MEASURE_REPRESENTATION_ITEM('density measure',
POSITIVE_RATIO_MEASURE(7850.),#637);
#639=PROPERTY_DEFINITION_REPRESENTATION(#644,#641);
#640=PROPERTY_DEFINITION_REPRESENTATION(#645,#642);
#641=REPRESENTATION('material name',(#643),#1365);
#642=REPRESENTATION('density',(#638),#1365);
#643=DESCRIPTIVE_REPRESENTATION_ITEM('Steel','Steel');
#644=PROPERTY_DEFINITION('material property','material name',#1375);
#645=PROPERTY_DEFINITION('material property','density of part',#1375);
#646=AXIS2_PLACEMENT_3D('',#882,#710,#711);
#647=AXIS2_PLACEMENT_3D('',#1003,#712,#713);
#648=AXIS2_PLACEMENT_3D('',#1004,#714,#715);
#649=AXIS2_PLACEMENT_3D('',#1007,#716,#717);
#650=AXIS2_PLACEMENT_3D('',#1011,#719,#720);
#651=AXIS2_PLACEMENT_3D('',#1013,#722,#723);
#652=AXIS2_PLACEMENT_3D('',#1018,#725,#726);
#653=AXIS2_PLACEMENT_3D('',#1020,#728,#729);
#654=AXIS2_PLACEMENT_3D('',#1025,#732,#733);
#655=AXIS2_PLACEMENT_3D('',#1026,#734,#735);
#656=AXIS2_PLACEMENT_3D('',#1030,#738,#739);
#657=AXIS2_PLACEMENT_3D('',#1041,#745,#746);
#658=AXIS2_PLACEMENT_3D('',#1044,#748,#749);
#659=AXIS2_PLACEMENT_3D('',#1045,#750,#751);
#660=AXIS2_PLACEMENT_3D('',#1048,#753,#754);
#661=AXIS2_PLACEMENT_3D('',#1050,#755,#756);
#662=AXIS2_PLACEMENT_3D('',#1052,#758,#759);
#663=AXIS2_PLACEMENT_3D('',#1061,#764,#765);
#664=AXIS2_PLACEMENT_3D('',#1063,#766,#767);
#665=AXIS2_PLACEMENT_3D('',#1064,#768,#769);
#666=AXIS2_PLACEMENT_3D('',#1066,#770,#771);
#667=AXIS2_PLACEMENT_3D('',#1110,#773,#774);
#668=AXIS2_PLACEMENT_3D('',#1112,#775,#776);
#669=AXIS2_PLACEMENT_3D('',#1113,#777,#778);
#670=AXIS2_PLACEMENT_3D('',#1115,#779,#780);
#671=AXIS2_PLACEMENT_3D('',#1159,#782,#783);
#672=AXIS2_PLACEMENT_3D('',#1161,#784,#785);
#673=AXIS2_PLACEMENT_3D('',#1162,#786,#787);
#674=AXIS2_PLACEMENT_3D('',#1164,#788,#789);
#675=AXIS2_PLACEMENT_3D('',#1208,#791,#792);
#676=AXIS2_PLACEMENT_3D('',#1210,#793,#794);
#677=AXIS2_PLACEMENT_3D('',#1211,#795,#796);
#678=AXIS2_PLACEMENT_3D('',#1213,#797,#798);
#679=AXIS2_PLACEMENT_3D('',#1257,#800,#801);
#680=AXIS2_PLACEMENT_3D('',#1259,#802,#803);
#681=AXIS2_PLACEMENT_3D('',#1260,#804,#805);
#682=AXIS2_PLACEMENT_3D('',#1262,#807,#808);
#683=AXIS2_PLACEMENT_3D('',#1264,#810,#811);
#684=AXIS2_PLACEMENT_3D('',#1266,#812,#813);
#685=AXIS2_PLACEMENT_3D('',#1268,#815,#816);
#686=AXIS2_PLACEMENT_3D('',#1270,#817,#818);
#687=AXIS2_PLACEMENT_3D('',#1272,#820,#821);
#688=AXIS2_PLACEMENT_3D('',#1275,#822,#823);
#689=AXIS2_PLACEMENT_3D('',#1281,#827,#828);
#690=AXIS2_PLACEMENT_3D('',#1303,#829,#830);
#691=AXIS2_PLACEMENT_3D('',#1305,#832,#833);
#692=AXIS2_PLACEMENT_3D('',#1307,#834,#835);
#693=AXIS2_PLACEMENT_3D('',#1311,#838,#839);
#694=AXIS2_PLACEMENT_3D('',#1330,#840,#841);
#695=AXIS2_PLACEMENT_3D('',#1331,#842,#843);
#696=AXIS2_PLACEMENT_3D('',#1336,#845,#846);
#697=AXIS2_PLACEMENT_3D('',#1339,#848,#849);
#698=AXIS2_PLACEMENT_3D('',#1340,#850,#851);
#699=AXIS2_PLACEMENT_3D('',#1343,#854,#855);
#700=AXIS2_PLACEMENT_3D('',#1345,#857,#858);
#701=AXIS2_PLACEMENT_3D('',#1347,#860,#861);
#702=AXIS2_PLACEMENT_3D('',#1348,#862,#863);
#703=AXIS2_PLACEMENT_3D('',#1351,#865,#866);
#704=AXIS2_PLACEMENT_3D('',#1352,#867,#868);
#705=AXIS2_PLACEMENT_3D('',#1355,#870,#871);
#706=AXIS2_PLACEMENT_3D('',#1356,#872,#873);
#707=AXIS2_PLACEMENT_3D('',#1359,#875,#876);
#708=AXIS2_PLACEMENT_3D('',#1360,#877,#878);
#709=AXIS2_PLACEMENT_3D('',#1362,#880,#881);
#710=DIRECTION('axis',(0.,0.,1.));
#711=DIRECTION('refdir',(1.,0.,0.));
#712=DIRECTION('center_axis',(1.,5.59245160967005E-14,0.));
#713=DIRECTION('ref_axis',(0.,0.,1.));
#714=DIRECTION('center_axis',(-1.,-5.59245160967005E-14,0.));
#715=DIRECTION('ref_axis',(0.,0.,1.));
#716=DIRECTION('center_axis',(1.,5.59245160967005E-14,0.));
#717=DIRECTION('ref_axis',(0.,0.,1.));
#718=DIRECTION('',(5.59245160967005E-14,-1.,0.));
#719=DIRECTION('center_axis',(-1.,-5.59245160967005E-14,0.));
#720=DIRECTION('ref_axis',(0.,0.,1.));
#721=DIRECTION('',(5.59245160967005E-14,-1.,0.));
#722=DIRECTION('center_axis',(0.,1.,0.));
#723=DIRECTION('ref_axis',(1.,0.,0.));
#724=DIRECTION('',(1.,0.,0.));
#725=DIRECTION('center_axis',(0.,1.,0.));
#726=DIRECTION('ref_axis',(1.,0.,0.));
#727=DIRECTION('',(0.,0.,1.));
#728=DIRECTION('center_axis',(0.,1.,0.));
#729=DIRECTION('ref_axis',(1.,0.,0.));
#730=DIRECTION('',(0.,-1.,0.));
#731=DIRECTION('',(0.,-1.,0.));
#732=DIRECTION('center_axis',(0.,-1.,0.));
#733=DIRECTION('ref_axis',(1.,0.,0.));
#734=DIRECTION('center_axis',(0.,1.,0.));
#735=DIRECTION('ref_axis',(1.,0.,0.));
#736=DIRECTION('',(-1.,0.,0.));
#737=DIRECTION('',(0.,0.,-1.));
#738=DIRECTION('center_axis',(0.,0.,-1.));
#739=DIRECTION('ref_axis',(5.59245160967005E-14,-1.,0.));
#740=DIRECTION('',(-1.,-5.59274848654922E-14,0.));
#741=DIRECTION('',(-5.59245160967005E-14,1.,0.));
#742=DIRECTION('',(-5.59245160967005E-14,1.,0.));
#743=DIRECTION('',(-1.,-5.59274848654922E-14,0.));
#744=DIRECTION('',(0.,-1.,0.));
#745=DIRECTION('center_axis',(0.,0.,1.));
#746=DIRECTION('ref_axis',(-1.,0.,0.));
#747=DIRECTION('',(0.,1.,0.));
#748=DIRECTION('center_axis',(0.,0.,1.));
#749=DIRECTION('ref_axis',(1.,0.,0.));
#750=DIRECTION('center_axis',(-1.,-5.59274848654922E-14,0.));
#751=DIRECTION('ref_axis',(-6.84914153248871E-30,1.22464679914735E-16,1.));
#752=DIRECTION('',(-1.,-5.59274848654922E-14,0.));
#753=DIRECTION('center_axis',(-1.,-5.59245160967005E-14,0.));
#754=DIRECTION('ref_axis',(0.,0.,-1.));
#755=DIRECTION('center_axis',(-1.,-5.59245160967005E-14,0.));
#756=DIRECTION('ref_axis',(0.,0.,-1.));
#757=DIRECTION('',(1.,5.59274848654922E-14,0.));
#758=DIRECTION('center_axis',(0.,0.,1.));
#759=DIRECTION('ref_axis',(-5.59245160967005E-14,1.,0.));
#760=DIRECTION('',(-5.59245160967005E-14,1.,0.));
#761=DIRECTION('',(1.,5.59245160967005E-14,0.));
#762=DIRECTION('',(5.59245160967005E-14,-1.,0.));
#763=DIRECTION('',(1.,5.59245160967005E-14,0.));
#764=DIRECTION('center_axis',(0.,0.,1.));
#765=DIRECTION('ref_axis',(1.,0.,0.));
#766=DIRECTION('center_axis',(0.,0.,1.));
#767=DIRECTION('ref_axis',(1.,0.,0.));
#768=DIRECTION('center_axis',(0.,0.,1.));
#769=DIRECTION('ref_axis',(1.,0.,0.));
#770=DIRECTION('center_axis',(0.,0.,1.));
#771=DIRECTION('ref_axis',(1.,0.,0.));
#772=DIRECTION('',(0.,0.,1.));
#773=DIRECTION('center_axis',(0.,0.,1.));
#774=DIRECTION('ref_axis',(1.,0.,0.));
#775=DIRECTION('center_axis',(0.,0.,1.));
#776=DIRECTION('ref_axis',(1.,0.,0.));
#777=DIRECTION('center_axis',(0.,0.,1.));
#778=DIRECTION('ref_axis',(1.,0.,0.));
#779=DIRECTION('center_axis',(0.,0.,1.));
#780=DIRECTION('ref_axis',(1.,0.,0.));
#781=DIRECTION('',(0.,0.,1.));
#782=DIRECTION('center_axis',(0.,0.,1.));
#783=DIRECTION('ref_axis',(1.,0.,0.));
#784=DIRECTION('center_axis',(0.,0.,1.));
#785=DIRECTION('ref_axis',(1.,0.,0.));
#786=DIRECTION('center_axis',(0.,0.,1.));
#787=DIRECTION('ref_axis',(1.,0.,0.));
#788=DIRECTION('center_axis',(0.,0.,1.));
#789=DIRECTION('ref_axis',(1.,0.,0.));
#790=DIRECTION('',(0.,0.,1.));
#791=DIRECTION('center_axis',(0.,0.,1.));
#792=DIRECTION('ref_axis',(1.,0.,0.));
#793=DIRECTION('center_axis',(0.,0.,1.));
#794=DIRECTION('ref_axis',(1.,0.,0.));
#795=DIRECTION('center_axis',(0.,0.,1.));
#796=DIRECTION('ref_axis',(1.,0.,0.));
#797=DIRECTION('center_axis',(0.,0.,1.));
#798=DIRECTION('ref_axis',(1.,0.,0.));
#799=DIRECTION('',(0.,0.,1.));
#800=DIRECTION('center_axis',(0.,0.,1.));
#801=DIRECTION('ref_axis',(1.,0.,0.));
#802=DIRECTION('center_axis',(0.,0.,1.));
#803=DIRECTION('ref_axis',(1.,0.,0.));
#804=DIRECTION('center_axis',(0.,0.,1.));
#805=DIRECTION('ref_axis',(1.,0.,0.));
#806=DIRECTION('',(0.,0.,1.));
#807=DIRECTION('center_axis',(0.,0.,1.));
#808=DIRECTION('ref_axis',(1.,0.,0.));
#809=DIRECTION('',(0.,0.,1.));
#810=DIRECTION('center_axis',(0.,0.,1.));
#811=DIRECTION('ref_axis',(1.,0.,0.));
#812=DIRECTION('center_axis',(0.,0.,1.));
#813=DIRECTION('ref_axis',(1.,0.,0.));
#814=DIRECTION('',(0.,0.,1.));
#815=DIRECTION('center_axis',(0.,0.,1.));
#816=DIRECTION('ref_axis',(1.,0.,0.));
#817=DIRECTION('center_axis',(0.,0.,1.));
#818=DIRECTION('ref_axis',(1.,0.,0.));
#819=DIRECTION('',(0.,0.,1.));
#820=DIRECTION('center_axis',(-1.,0.,0.));
#821=DIRECTION('ref_axis',(0.,-1.,0.));
#822=DIRECTION('center_axis',(-1.,0.,0.));
#823=DIRECTION('ref_axis',(5.59552404411076E-14,-1.,0.));
#824=DIRECTION('',(0.,0.,1.));
#825=DIRECTION('',(0.,-1.,0.));
#826=DIRECTION('',(0.,0.,1.));
#827=DIRECTION('center_axis',(0.,0.,1.));
#828=DIRECTION('ref_axis',(1.,0.,0.));
#829=DIRECTION('center_axis',(0.,0.,1.));
#830=DIRECTION('ref_axis',(1.,0.,0.));
#831=DIRECTION('',(0.,0.,1.));
#832=DIRECTION('center_axis',(1.,0.,0.));
#833=DIRECTION('ref_axis',(0.,1.,0.));
#834=DIRECTION('center_axis',(1.,0.,0.));
#835=DIRECTION('ref_axis',(5.59552404411076E-14,-1.,0.));
#836=DIRECTION('',(0.,1.,0.));
#837=DIRECTION('',(0.,0.,1.));
#838=DIRECTION('center_axis',(0.,0.,1.));
#839=DIRECTION('ref_axis',(-1.,0.,0.));
#840=DIRECTION('center_axis',(0.,0.,1.));
#841=DIRECTION('ref_axis',(-1.,0.,0.));
#842=DIRECTION('center_axis',(0.,0.,1.));
#843=DIRECTION('ref_axis',(1.,0.,0.));
#844=DIRECTION('',(0.,1.,0.));
#845=DIRECTION('center_axis',(0.,0.,1.));
#846=DIRECTION('ref_axis',(-1.,0.,0.));
#847=DIRECTION('',(0.,-1.,0.));
#848=DIRECTION('center_axis',(0.,0.,1.));
#849=DIRECTION('ref_axis',(1.,0.,0.));
#850=DIRECTION('center_axis',(-1.,0.,0.));
#851=DIRECTION('ref_axis',(0.,1.,0.));
#852=DIRECTION('',(0.,0.,1.));
#853=DIRECTION('',(0.,0.,1.));
#854=DIRECTION('center_axis',(0.,0.,-1.));
#855=DIRECTION('ref_axis',(-1.,0.,0.));
#856=DIRECTION('',(0.,0.,1.));
#857=DIRECTION('center_axis',(1.,0.,0.));
#858=DIRECTION('ref_axis',(0.,-1.,0.));
#859=DIRECTION('',(0.,0.,-1.));
#860=DIRECTION('center_axis',(0.,0.,-1.));
#861=DIRECTION('ref_axis',(1.,0.,0.));
#862=DIRECTION('center_axis',(1.,5.59245160967005E-14,0.));
#863=DIRECTION('ref_axis',(0.,0.,-1.));
#864=DIRECTION('',(-5.59245160967005E-14,1.,0.));
#865=DIRECTION('center_axis',(-1.,-5.59245160967005E-14,0.));
#866=DIRECTION('ref_axis',(0.,0.,1.));
#867=DIRECTION('center_axis',(-1.,-5.59245160967005E-14,0.));
#868=DIRECTION('ref_axis',(5.59552404411076E-14,-1.,0.));
#869=DIRECTION('',(-1.,-5.59245160967005E-14,0.));
#870=DIRECTION('center_axis',(-1.,-5.59245160967005E-14,0.));
#871=DIRECTION('ref_axis',(0.,0.,1.));
#872=DIRECTION('center_axis',(-1.,-5.59245160967005E-14,0.));
#873=DIRECTION('ref_axis',(0.,0.,1.));
#874=DIRECTION('',(5.59245160967005E-14,-1.,0.));
#875=DIRECTION('center_axis',(-1.,-5.59245160967005E-14,0.));
#876=DIRECTION('ref_axis',(0.,0.,1.));
#877=DIRECTION('center_axis',(-1.,-5.59245160967005E-14,0.));
#878=DIRECTION('ref_axis',(5.59552404411076E-14,-1.,0.));
#879=DIRECTION('',(-1.,-5.59245160967005E-14,0.));
#880=DIRECTION('center_axis',(0.,0.,1.));
#881=DIRECTION('ref_axis',(-5.59245160967005E-14,1.,0.));
#882=CARTESIAN_POINT('',(0.,0.,0.));
#883=CARTESIAN_POINT('Ctrl Pts',(69.0499999999993,-2.63062602419339,3.07933913446383));
#884=CARTESIAN_POINT('Ctrl Pts',(69.0499999999993,-2.63062203482823,3.07933884297521));
#885=CARTESIAN_POINT('Ctrl Pts',(69.0499999999993,-2.58182215513423,3.12194056921712));
#886=CARTESIAN_POINT('Ctrl Pts',(69.0499999999993,-2.31264229021796,3.33567252038445));
#887=CARTESIAN_POINT('Ctrl Pts',(69.0499999999993,-1.71100216935213,3.7163752887727));
#888=CARTESIAN_POINT('Ctrl Pts',(69.0499999999992,-0.627168028863494,4.06448897012368));
#889=CARTESIAN_POINT('Ctrl Pts',(69.0499999999991,0.62854693454136,4.06231514191124));
#890=CARTESIAN_POINT('Ctrl Pts',(69.049999999999,1.71341841271546,3.71596471854661));
#891=CARTESIAN_POINT('Ctrl Pts',(69.049999999999,2.31303097915859,3.33483408261603));
#892=CARTESIAN_POINT('Ctrl Pts',(69.049999999999,2.58202048695407,3.1219060654595));
#893=CARTESIAN_POINT('Ctrl Pts',(69.049999999999,2.63062203483595,3.07933884297521));
#894=CARTESIAN_POINT('Ctrl Pts',(69.049999999999,2.63062602420111,3.07933913446383));
#895=CARTESIAN_POINT('Ctrl Pts',(69.0499999999993,-2.83539699411817,2.90440339495887));
#896=CARTESIAN_POINT('Ctrl Pts',(69.0862018261167,-2.83539699411817,2.90440339495887));
#897=CARTESIAN_POINT('Ctrl Pts',(69.1584809799373,-2.76973284365678,2.93215139977378));
#898=CARTESIAN_POINT('Ctrl Pts',(69.2467448168577,-2.42600845763843,3.07271789865734));
#899=CARTESIAN_POINT('Ctrl Pts',(69.2434125068618,-1.7419267886766,3.33221945323063));
#900=CARTESIAN_POINT('Ctrl Pts',(69.1805151212395,-0.630936934415781,3.58595774610137));
#901=CARTESIAN_POINT('Ctrl Pts',(69.1814678965938,0.631530854740437,3.58431193684926));
#902=CARTESIAN_POINT('Ctrl Pts',(69.2436431790929,1.74306705280851,3.33152179410602));
#903=CARTESIAN_POINT('Ctrl Pts',(69.2465012027821,2.4268125076161,3.07213074364902));
#904=CARTESIAN_POINT('Ctrl Pts',(69.1584245873273,2.76994779402918,2.93210355372477));
#905=CARTESIAN_POINT('Ctrl Pts',(69.0862003628937,2.8353969941259,2.90440339495887));
#906=CARTESIAN_POINT('Ctrl Pts',(69.049999999999,2.8353969941259,2.90440339495887));
#907=CARTESIAN_POINT('Ctrl Pts',(69.0499999999993,-3.25633706061083,2.6718527533282));
#908=CARTESIAN_POINT('Ctrl Pts',(69.1607031494508,-3.25633706061082,2.6718527533282));
#909=CARTESIAN_POINT('Ctrl Pts',(69.3820293692622,-3.16346347023818,2.67854151812406));
#910=CARTESIAN_POINT('Ctrl Pts',(69.6890157743986,-2.69501278846393,2.71291268616407));
#911=CARTESIAN_POINT('Ctrl Pts',(69.7959992689218,-1.84725000079788,2.77858762040986));
#912=CARTESIAN_POINT('Ctrl Pts',(69.7392754564205,-0.64834866956963,2.84740610816873));
#913=CARTESIAN_POINT('Ctrl Pts',(69.7407607534305,0.648612300164816,2.84688321002667));
#914=CARTESIAN_POINT('Ctrl Pts',(69.7962534544901,1.84689732796762,2.77831247097507));
#915=CARTESIAN_POINT('Ctrl Pts',(69.6883359598461,2.69640584965999,2.712774726296));
#916=CARTESIAN_POINT('Ctrl Pts',(69.3818487318847,3.16367713676453,2.67851167897971));
#917=CARTESIAN_POINT('Ctrl Pts',(69.1606986749979,3.25633706061856,2.6718527533282));
#918=CARTESIAN_POINT('Ctrl Pts',(69.049999999999,3.25633706061855,2.6718527533282));
#919=CARTESIAN_POINT('Ctrl Pts',(69.0499999999994,-3.72770195380052,2.6));
#920=CARTESIAN_POINT('Ctrl Pts',(69.2440907072112,-3.72770195380051,2.6));
#921=CARTESIAN_POINT('Ctrl Pts',(69.6327827748439,-3.60968449394555,2.60000949571597));
#922=CARTESIAN_POINT('Ctrl Pts',(70.2120322803231,-3.02272344713327,2.59998526009975));
#923=CARTESIAN_POINT('Ctrl Pts',(70.5341311946243,-1.99841403568303,2.59986702953854));
#924=CARTESIAN_POINT('Ctrl Pts',(70.6061904140874,-0.676453523739781,2.59951566546669));
#925=CARTESIAN_POINT('Ctrl Pts',(70.6073913740121,0.677223985965744,2.59954604365105));
#926=CARTESIAN_POINT('Ctrl Pts',(70.5334937231178,1.99712420577449,2.59986692756564));
#927=CARTESIAN_POINT('Ctrl Pts',(70.2106924064574,3.02462176679538,2.59997717251354));
#928=CARTESIAN_POINT('Ctrl Pts',(69.6324468870499,3.60985428771005,2.60001359211738));
#929=CARTESIAN_POINT('Ctrl Pts',(69.2440828623603,3.72770195380825,2.6));
#930=CARTESIAN_POINT('Ctrl Pts',(69.049999999999,3.72770195380824,2.6));
#931=CARTESIAN_POINT('Ctrl Pts',(69.0499999999994,-3.92969464462185,2.6));
#932=CARTESIAN_POINT('Ctrl Pts',(69.2798217025309,-3.92969464462184,2.6));
#933=CARTESIAN_POINT('Ctrl Pts',(69.7402365395421,-3.80089609497542,2.6));
#934=CARTESIAN_POINT('Ctrl Pts',(70.436125597187,-3.16311962397372,2.6));
#935=CARTESIAN_POINT('Ctrl Pts',(70.8502466637951,-2.06313178979247,2.6));
#936=CARTESIAN_POINT('Ctrl Pts',(70.9771808657568,-0.688478640874594,2.6));
#937=CARTESIAN_POINT('Ctrl Pts',(70.9782751359838,0.68946522348338,2.6));
#938=CARTESIAN_POINT('Ctrl Pts',(70.8492273304357,2.06143650836005,2.6));
#939=CARTESIAN_POINT('Ctrl Pts',(70.4344983774314,3.16523604731804,2.6));
#940=CARTESIAN_POINT('Ctrl Pts',(69.739835691902,3.80104646331291,2.6));
#941=CARTESIAN_POINT('Ctrl Pts',(69.2798124134876,3.92969464462959,2.6));
#942=CARTESIAN_POINT('Ctrl Pts',(69.0499999999989,3.92969464462957,2.6));
#943=CARTESIAN_POINT('',(69.049999999999,2.63062203483595,3.07933884297521));
#944=CARTESIAN_POINT('',(70.3728756556316,3.10523751096969,2.6));
#945=CARTESIAN_POINT('Ctrl Pts',(70.3728756555313,3.10523751104878,2.6));
#946=CARTESIAN_POINT('Ctrl Pts',(70.1027921016558,3.10523751104877,2.6));
#947=CARTESIAN_POINT('Ctrl Pts',(69.8528180186847,3.07302273755352,2.63938270844703));
#948=CARTESIAN_POINT('Ctrl Pts',(69.4791941746279,2.97204051686394,2.75205476709804));
#949=CARTESIAN_POINT('Ctrl Pts',(69.3451296325585,2.9145863554888,2.81352586348122));
#950=CARTESIAN_POINT('Ctrl Pts',(69.189024243789,2.81457393679181,2.91258857931359));
#951=CARTESIAN_POINT('Ctrl Pts',(69.1462824318778,2.7786625020267,2.9468205224403));
#952=CARTESIAN_POINT('Ctrl Pts',(69.0980878851827,2.7259953562397,2.99533820945309));
#953=CARTESIAN_POINT('Ctrl Pts',(69.0829581309869,2.7064988034012,3.01298649774933));
#954=CARTESIAN_POINT('Ctrl Pts',(69.0668499632595,2.67905170314372,3.03731421312408));
#955=CARTESIAN_POINT('Ctrl Pts',(69.0629026932668,2.67148855128126,3.04396967227639));
#956=CARTESIAN_POINT('Ctrl Pts',(69.0569125463287,2.65784347103587,3.05588481155897));
#957=CARTESIAN_POINT('Ctrl Pts',(69.0545500635558,2.65156842311545,3.06133169001077));
#958=CARTESIAN_POINT('Ctrl Pts',(69.0519506146754,2.64245551934604,3.06919268427582));
#959=CARTESIAN_POINT('Ctrl Pts',(69.051213695847,2.63942057177323,3.0718030684651));
#960=CARTESIAN_POINT('Ctrl Pts',(69.0504637174278,2.63519684792004,3.07542524096384));
#961=CARTESIAN_POINT('Ctrl Pts',(69.0502649123738,2.63386431442322,3.07656652255766));
#962=CARTESIAN_POINT('Ctrl Pts',(69.0500758943716,2.63202087351957,3.07814338362659));
#963=CARTESIAN_POINT('Ctrl Pts',(69.0500257113083,2.63140587296758,3.07866913056268));
#964=CARTESIAN_POINT('Ctrl Pts',(69.0500042321975,2.6308220996633,3.07916792091211));
#965=CARTESIAN_POINT('Ctrl Pts',(69.0500024628822,2.63076511540103,3.0792166069818));
#966=CARTESIAN_POINT('Ctrl Pts',(69.0500006421203,2.63068121521506,3.07928828553761));
#967=CARTESIAN_POINT('Ctrl Pts',(69.049999999999,2.63059244379287,3.07936412205423));
#968=CARTESIAN_POINT('Ctrl Pts',(69.049999999999,2.63062203483595,3.07933884297521));
#969=CARTESIAN_POINT('',(70.3728756602933,-3.10523750728811,2.6));
#970=CARTESIAN_POINT('Ctrl Pts',(70.3723108077608,3.10487790375476,2.6));
#971=CARTESIAN_POINT('Ctrl Pts',(70.574429340686,2.78740380283309,2.6));
#972=CARTESIAN_POINT('Ctrl Pts',(70.8568667301626,1.98021825738337,2.6));
#973=CARTESIAN_POINT('Ctrl Pts',(70.9782751359838,0.68946522348338,2.6));
#974=CARTESIAN_POINT('Ctrl Pts',(70.9771808657568,-0.688478640874594,2.6));
#975=CARTESIAN_POINT('Ctrl Pts',(70.8577096778611,-1.98230994959788,2.6));
#976=CARTESIAN_POINT('Ctrl Pts',(70.5754663932873,-2.78762322508352,2.6));
#977=CARTESIAN_POINT('Ctrl Pts',(70.372716931222,-3.10513615017284,2.6));
#978=CARTESIAN_POINT('',(69.0499999999993,-2.63062203482823,3.07933884297521));
#979=CARTESIAN_POINT('Ctrl Pts',(69.0499999999993,-2.63062203482823,3.07933884297521));
#980=CARTESIAN_POINT('Ctrl Pts',(69.0499999999993,-2.63063585276533,3.07932703856794));
#981=CARTESIAN_POINT('Ctrl Pts',(69.0500003183591,-2.6306582548594,3.0793079005598));
#982=CARTESIAN_POINT('Ctrl Pts',(69.0500033742955,-2.63084582184325,3.0791476602937));
#983=CARTESIAN_POINT('Ctrl Pts',(69.0500162598592,-2.6312174571173,3.07883017648053));
#984=CARTESIAN_POINT('Ctrl Pts',(69.0501269989486,-2.63262382303145,3.07762782307018));
#985=CARTESIAN_POINT('Ctrl Pts',(69.0502314569007,-2.63350806386507,3.07687122259002));
#986=CARTESIAN_POINT('Ctrl Pts',(69.0506452933882,-2.63643484672586,3.07436477965759));
#987=CARTESIAN_POINT('Ctrl Pts',(69.051073136037,-2.63859463342734,3.07251133062182));
#988=CARTESIAN_POINT('Ctrl Pts',(69.0526159466502,-2.64518913459258,3.06684037983427));
#989=CARTESIAN_POINT('Ctrl Pts',(69.0540569822728,-2.64980089530695,3.0628564659363));
#990=CARTESIAN_POINT('Ctrl Pts',(69.0584206036542,-2.66175027379708,3.05248822971941));
#991=CARTESIAN_POINT('Ctrl Pts',(69.0618581007252,-2.66926589587808,3.04591734174159));
#992=CARTESIAN_POINT('Ctrl Pts',(69.06968728577,-2.68418112354232,3.03278361892228));
#993=CARTESIAN_POINT('Ctrl Pts',(69.074237234105,-2.69176002621185,3.02605774065535));
#994=CARTESIAN_POINT('Ctrl Pts',(69.089442151122,-2.71469954181485,3.00555202862355));
#995=CARTESIAN_POINT('Ctrl Pts',(69.1015568728928,-2.72978688818458,2.99184546157577));
#996=CARTESIAN_POINT('Ctrl Pts',(69.146290742143,-2.77867009714365,2.94681337351648));
#997=CARTESIAN_POINT('Ctrl Pts',(69.189034510601,-2.81458177415474,2.91258100743552));
#998=CARTESIAN_POINT('Ctrl Pts',(69.3451493109743,-2.91459667463331,2.8135152952381));
#999=CARTESIAN_POINT('Ctrl Pts',(69.47922382699,-2.97205208460834,2.75204226467241));
#1000=CARTESIAN_POINT('Ctrl Pts',(69.8528506517186,-3.07302694024572,2.63937749372401));
#1001=CARTESIAN_POINT('Ctrl Pts',(70.102809876145,-3.10523751104092,2.6));
#1002=CARTESIAN_POINT('Ctrl Pts',(70.3728756555316,-3.10523751104091,2.6));
#1003=CARTESIAN_POINT('Origin',(69.0499999999992,3.86149336385438E-12,0.));
#1004=CARTESIAN_POINT('Origin',(68.1499999999994,-3.56410161513236,0.));
#1005=CARTESIAN_POINT('',(68.149999999999,4.04876524387755,0.1));
#1006=CARTESIAN_POINT('',(68.1499999999994,-4.04876524386993,0.1));
#1007=CARTESIAN_POINT('Origin',(68.1499999999992,3.81125577199009E-12,0.));
#1008=CARTESIAN_POINT('',(68.1499999999994,-4.99899989998164,0.1));
#1009=CARTESIAN_POINT('',(68.1499999999996,-7.78184247061721,0.1));
#1010=CARTESIAN_POINT('',(68.1499999999988,4.99899989997835,0.1));
#1011=CARTESIAN_POINT('Origin',(68.1499999999991,-1.64253061138201E-12,
0.));
#1012=CARTESIAN_POINT('',(68.1499999999996,-7.78184247061721,0.1));
#1013=CARTESIAN_POINT('Origin',(89.3000000203502,-3.105,3.35));
#1014=CARTESIAN_POINT('',(88.5500000407012,-3.105,2.6));
#1015=CARTESIAN_POINT('',(90.0499999999992,-3.105,2.6));
#1016=CARTESIAN_POINT('',(89.6750000101748,-3.105,2.6));
#1017=CARTESIAN_POINT('',(90.0499999999992,-3.105,4.1));
#1018=CARTESIAN_POINT('Origin',(88.5499999999992,-3.105,4.1));
#1019=CARTESIAN_POINT('',(90.0499999999994,-3.105,1.675));
#1020=CARTESIAN_POINT('Origin',(88.5499999999992,0.,4.1));
#1021=CARTESIAN_POINT('',(90.0499999999992,3.105,4.1));
#1022=CARTESIAN_POINT('',(90.0499999999992,0.,4.1));
#1023=CARTESIAN_POINT('',(88.5500000407012,3.105,2.6));
#1024=CARTESIAN_POINT('',(88.5499999999992,0.,2.6));
#1025=CARTESIAN_POINT('Origin',(88.5499999999992,3.105,4.1));
#1026=CARTESIAN_POINT('Origin',(89.3000000203502,3.105,3.35));
#1027=CARTESIAN_POINT('',(90.0499999999992,3.105,2.6));
#1028=CARTESIAN_POINT('',(89.6750000101748,3.105,2.6));
#1029=CARTESIAN_POINT('',(90.049999999999,3.105,1.675));
#1030=CARTESIAN_POINT('Origin',(90.0499999999995,2.43779004899603,2.6));
#1031=CARTESIAN_POINT('',(90.049999999999,3.10523751104989,2.6));
#1032=CARTESIAN_POINT('',(90.049999999999,3.10523751104989,2.6));
#1033=CARTESIAN_POINT('',(90.0499999999996,-7.55261875552068,2.6));
#1034=CARTESIAN_POINT('',(90.0499999999994,-3.10523751103981,2.6));
#1035=CARTESIAN_POINT('',(90.0499999999996,-7.55261875552068,2.6));
#1036=CARTESIAN_POINT('',(90.0499999999994,-3.10523751103981,2.6));
#1037=CARTESIAN_POINT('',(77.8499999999998,0.400000000000464,2.6));
#1038=CARTESIAN_POINT('',(77.8499999999998,-0.399999999999537,2.6));
#1039=CARTESIAN_POINT('',(77.8499999999998,1.01889502449825,2.6));
#1040=CARTESIAN_POINT('',(81.2499999999998,-0.399999999999537,2.6));
#1041=CARTESIAN_POINT('Origin',(79.5499999999998,-0.399999999999537,2.6));
#1042=CARTESIAN_POINT('',(81.2499999999998,0.400000000000464,2.6));
#1043=CARTESIAN_POINT('',(81.2499999999998,1.41889502449825,2.6));
#1044=CARTESIAN_POINT('Origin',(79.5499999999998,0.400000000000464,2.6));
#1045=CARTESIAN_POINT('Origin',(90.0499999999992,5.03600267450783E-12,0.));
#1046=CARTESIAN_POINT('',(90.0499999999989,4.04876524387878,0.1));
#1047=CARTESIAN_POINT('',(90.0499999999989,4.04876524387878,0.1));
#1048=CARTESIAN_POINT('Origin',(90.0499999999992,5.03600267450783E-12,0.));
#1049=CARTESIAN_POINT('',(90.0499999999994,-4.04876524386871,0.1));
#1050=CARTESIAN_POINT('Origin',(90.0499999999992,5.03600267450783E-12,0.));
#1051=CARTESIAN_POINT('',(90.0499999999994,-4.04876524386871,0.1));
#1052=CARTESIAN_POINT('Origin',(90.0500000000003,-11.9995833261008,0.1));
#1053=CARTESIAN_POINT('',(90.0500000000003,-11.9995833261008,0.1));
#1054=CARTESIAN_POINT('',(90.0499999999998,-11.9997916630512,0.1));
#1055=CARTESIAN_POINT('',(69.0499999999998,-11.999583326102,0.1));
#1056=CARTESIAN_POINT('',(79.5499999999996,-11.9995833261008,0.1));
#1057=CARTESIAN_POINT('',(69.0499999999994,-4.99899989998164,0.1));
#1058=CARTESIAN_POINT('',(69.0499999999996,-8.49979166305183,0.1));
#1059=CARTESIAN_POINT('',(68.5999999999994,-4.99899989998164,0.1));
#1060=CARTESIAN_POINT('',(84.5499999999993,-7.7811408934786,0.1));
#1061=CARTESIAN_POINT('Origin',(85.5499999999992,-7.7811408934786,0.1));
#1062=CARTESIAN_POINT('',(72.5499999999987,-7.78114089347927,0.1));
#1063=CARTESIAN_POINT('Origin',(73.5499999999987,-7.78114089347927,0.1));
#1064=CARTESIAN_POINT('Origin',(85.5499999999992,7.78114089347726,4.));
#1065=CARTESIAN_POINT('',(83.5499999999992,7.78114089347726,4.));
#1066=CARTESIAN_POINT('Origin',(85.5499999999992,7.78114089347726,4.));
#1067=CARTESIAN_POINT('',(83.5499999999992,7.7811408934772,9.13530767932085));
#1068=CARTESIAN_POINT('',(83.5499999999992,7.78114089347726,4.));
#1069=CARTESIAN_POINT('',(85.5499999999991,9.78114089347727,6.95192655470026));
#1070=CARTESIAN_POINT('Ctrl Pts',(85.5499999999991,9.78114089347727,6.95192655470026));
#1071=CARTESIAN_POINT('Ctrl Pts',(85.6789146001244,9.78114089347727,6.95192655470026));
#1072=CARTESIAN_POINT('Ctrl Pts',(85.8071239174377,9.76853128667819,6.96975908442288));
#1073=CARTESIAN_POINT('Ctrl Pts',(86.0545025472143,9.72057176349889,7.03648467321056));
#1074=CARTESIAN_POINT('Ctrl Pts',(86.173675315222,9.68520797930248,7.08535495087241));
#1075=CARTESIAN_POINT('Ctrl Pts',(86.5089460888449,9.55263527455736,7.26424070150771));
#1076=CARTESIAN_POINT('Ctrl Pts',(86.7029454275705,9.42773226151566,7.42704987623822));
#1077=CARTESIAN_POINT('Ctrl Pts',(87.0729805893586,9.1089012986828,7.81765565438541));
#1078=CARTESIAN_POINT('Ctrl Pts',(87.2498915558036,8.8734875173712,8.08718696716769));
#1079=CARTESIAN_POINT('Ctrl Pts',(87.4889420330786,8.34978497166781,8.62684560334997));
#1080=CARTESIAN_POINT('Ctrl Pts',(87.5499999999992,8.06097997197149,8.89695037667708));
#1081=CARTESIAN_POINT('Ctrl Pts',(87.5499999999992,7.54169658583214,9.33925810544019));
#1082=CARTESIAN_POINT('Ctrl Pts',(87.5044933493504,7.27366936889066,9.54957403746248));
#1083=CARTESIAN_POINT('Ctrl Pts',(87.291478070189,6.75897348487151,9.92052957137277));
#1084=CARTESIAN_POINT('Ctrl Pts',(87.1233352290707,6.51281891727573,10.0815177619479));
#1085=CARTESIAN_POINT('Ctrl Pts',(86.7443113037891,6.1608578437814,10.2993659047102));
#1086=CARTESIAN_POINT('Ctrl Pts',(86.5313188819783,6.0198460476877,10.3813962830808));
#1087=CARTESIAN_POINT('Ctrl Pts',(86.0575206193691,5.82984137154698,10.4892747187453));
#1088=CARTESIAN_POINT('Ctrl Pts',(85.7967124901377,5.78114089347726,10.5156269413559));
#1089=CARTESIAN_POINT('Ctrl Pts',(85.3032875098609,5.78114089347723,10.5156269413559));
#1090=CARTESIAN_POINT('Ctrl Pts',(85.0424793806295,5.82984137154693,10.4892747187453));
#1091=CARTESIAN_POINT('Ctrl Pts',(84.5686811180203,6.01984604768759,10.3813962830808));
#1092=CARTESIAN_POINT('Ctrl Pts',(84.3556886962095,6.16085784378127,10.2993659047102));
#1093=CARTESIAN_POINT('Ctrl Pts',(83.9766647709279,6.51281891727556,10.0815177619479));
#1094=CARTESIAN_POINT('Ctrl Pts',(83.8085219298096,6.75897348487132,9.92052957137277));
#1095=CARTESIAN_POINT('Ctrl Pts',(83.5955066506481,7.27366936889045,9.54957403746248));
#1096=CARTESIAN_POINT('Ctrl Pts',(83.5499999999992,7.54169658583193,9.33925810544018));
#1097=CARTESIAN_POINT('Ctrl Pts',(83.5499999999992,7.78114089347715,9.13530767932085));
#1098=CARTESIAN_POINT('Ctrl Pts',(83.5499999999992,7.78114089347715,9.13530767932085));
#1099=CARTESIAN_POINT('Ctrl Pts',(83.5499999999992,8.06097997197128,8.89695037667707));
#1100=CARTESIAN_POINT('Ctrl Pts',(83.6110579669198,8.3497849716676,8.62684560334996));
#1101=CARTESIAN_POINT('Ctrl Pts',(83.8501084441947,8.87348751737102,8.08718696716767));
#1102=CARTESIAN_POINT('Ctrl Pts',(84.0270194106397,9.10890129868264,7.8176556543854));
#1103=CARTESIAN_POINT('Ctrl Pts',(84.3970545724278,9.42773226151553,7.42704987623821));
#1104=CARTESIAN_POINT('Ctrl Pts',(84.5910539111534,9.55263527455725,7.26424070150772));
#1105=CARTESIAN_POINT('Ctrl Pts',(84.9263246847762,9.68520797930241,7.08535495087241));
#1106=CARTESIAN_POINT('Ctrl Pts',(85.0454974527839,9.72057176349884,7.03648467321056));
#1107=CARTESIAN_POINT('Ctrl Pts',(85.2928760825605,9.76853128667816,6.96975908442287));
#1108=CARTESIAN_POINT('Ctrl Pts',(85.4210853998738,9.78114089347726,6.95192655470026));
#1109=CARTESIAN_POINT('Ctrl Pts',(85.5499999999991,9.78114089347727,6.95192655470026));
#1110=CARTESIAN_POINT('Origin',(85.5499999999992,7.78114089347726,4.));
#1111=CARTESIAN_POINT('',(84.5499999999992,7.78114089347726,4.));
#1112=CARTESIAN_POINT('Origin',(85.5499999999992,7.78114089347726,4.));
#1113=CARTESIAN_POINT('Origin',(73.5499999999987,-7.78114089347927,4.));
#1114=CARTESIAN_POINT('',(71.5499999999987,-7.78114089347927,4.));
#1115=CARTESIAN_POINT('Origin',(73.5499999999987,-7.78114089347927,4.));
#1116=CARTESIAN_POINT('',(71.5499999999987,-7.78114089347933,9.13530767932085));
#1117=CARTESIAN_POINT('',(71.5499999999987,-7.78114089347927,4.));
#1118=CARTESIAN_POINT('',(73.5499999999986,-5.78114089347927,10.5156269413559));
#1119=CARTESIAN_POINT('Ctrl Pts',(73.5499999999986,-5.78114089347927,10.5156269413559));
#1120=CARTESIAN_POINT('Ctrl Pts',(73.796712490137,-5.78114089347925,10.5156269413559));
#1121=CARTESIAN_POINT('Ctrl Pts',(74.0575206193684,-5.82984137154895,10.4892747187453));
#1122=CARTESIAN_POINT('Ctrl Pts',(74.5313188819776,-6.01984604768962,10.3813962830808));
#1123=CARTESIAN_POINT('Ctrl Pts',(74.7443113037884,-6.16085784378329,10.2993659047102));
#1124=CARTESIAN_POINT('Ctrl Pts',(75.12333522907,-6.51281891727758,10.0815177619479));
#1125=CARTESIAN_POINT('Ctrl Pts',(75.2914780701883,-6.75897348487333,9.92052957137276));
#1126=CARTESIAN_POINT('Ctrl Pts',(75.5044933493498,-7.27366936889246,9.54957403746248));
#1127=CARTESIAN_POINT('Ctrl Pts',(75.5499999999987,-7.54169658583393,9.33925810544019));
#1128=CARTESIAN_POINT('Ctrl Pts',(75.5499999999987,-8.06097997197329,8.89695037667708));
#1129=CARTESIAN_POINT('Ctrl Pts',(75.4889420330781,-8.3497849716696,8.62684560334998));
#1130=CARTESIAN_POINT('Ctrl Pts',(75.2498915558032,-8.87348751737302,8.08718696716769));
#1131=CARTESIAN_POINT('Ctrl Pts',(75.0729805893582,-9.10890129868464,7.81765565438541));
#1132=CARTESIAN_POINT('Ctrl Pts',(74.7029454275701,-9.42773226151753,7.42704987623822));
#1133=CARTESIAN_POINT('Ctrl Pts',(74.5089460888445,-9.55263527455926,7.26424070150771));
#1134=CARTESIAN_POINT('Ctrl Pts',(74.1736753152217,-9.68520797930442,7.08535495087241));
#1135=CARTESIAN_POINT('Ctrl Pts',(74.0545025472139,-9.72057176350084,7.03648467321057));
#1136=CARTESIAN_POINT('Ctrl Pts',(73.8071239174374,-9.76853128668017,6.96975908442288));
#1137=CARTESIAN_POINT('Ctrl Pts',(73.678914600124,-9.78114089347926,6.95192655470027));
#1138=CARTESIAN_POINT('Ctrl Pts',(73.4210853998735,-9.78114089347928,6.95192655470027));
#1139=CARTESIAN_POINT('Ctrl Pts',(73.2928760825602,-9.76853128668019,6.96975908442288));
#1140=CARTESIAN_POINT('Ctrl Pts',(73.0454974527836,-9.7205717635009,7.03648467321057));
#1141=CARTESIAN_POINT('Ctrl Pts',(72.9263246847759,-9.68520797930449,7.08535495087241));
#1142=CARTESIAN_POINT('Ctrl Pts',(72.591053911153,-9.55263527455937,7.26424070150771));
#1143=CARTESIAN_POINT('Ctrl Pts',(72.3970545724275,-9.42773226151767,7.42704987623822));
#1144=CARTESIAN_POINT('Ctrl Pts',(72.0270194106393,-9.10890129868482,7.8176556543854));
#1145=CARTESIAN_POINT('Ctrl Pts',(71.8501084441943,-8.87348751737322,8.08718696716768));
#1146=CARTESIAN_POINT('Ctrl Pts',(71.6110579669193,-8.34978497166983,8.62684560334997));
#1147=CARTESIAN_POINT('Ctrl Pts',(71.5499999999987,-8.06097997197352,8.89695037667707));
#1148=CARTESIAN_POINT('Ctrl Pts',(71.5499999999987,-7.78114089347938,9.13530767932085));
#1149=CARTESIAN_POINT('Ctrl Pts',(71.5499999999987,-7.78114089347938,9.13530767932085));
#1150=CARTESIAN_POINT('Ctrl Pts',(71.5499999999987,-7.54169658583417,9.33925810544018));
#1151=CARTESIAN_POINT('Ctrl Pts',(71.5955066506475,-7.27366936889269,9.54957403746247));
#1152=CARTESIAN_POINT('Ctrl Pts',(71.8085219298089,-6.75897348487353,9.92052957137276));
#1153=CARTESIAN_POINT('Ctrl Pts',(71.9766647709272,-6.51281891727776,10.0815177619479));
#1154=CARTESIAN_POINT('Ctrl Pts',(72.3556886962088,-6.16085784378342,10.2993659047102));
#1155=CARTESIAN_POINT('Ctrl Pts',(72.5686811180196,-6.01984604768974,10.3813962830808));
#1156=CARTESIAN_POINT('Ctrl Pts',(73.0424793806287,-5.829841371549,10.4892747187453));
#1157=CARTESIAN_POINT('Ctrl Pts',(73.3032875098601,-5.78114089347928,10.5156269413559));
#1158=CARTESIAN_POINT('Ctrl Pts',(73.5499999999986,-5.78114089347927,10.5156269413559));
#1159=CARTESIAN_POINT('Origin',(73.5499999999987,-7.78114089347927,4.));
#1160=CARTESIAN_POINT('',(72.5499999999987,-7.78114089347927,4.));
#1161=CARTESIAN_POINT('Origin',(73.5499999999987,-7.78114089347927,4.));
#1162=CARTESIAN_POINT('Origin',(85.5499999999992,-7.7811408934786,2.));
#1163=CARTESIAN_POINT('',(84.0499999999992,-7.7811408934786,2.));
#1164=CARTESIAN_POINT('Origin',(85.5499999999992,-7.7811408934786,2.));
#1165=CARTESIAN_POINT('',(84.0499999999992,-7.78114089347864,9.13530767932084));
#1166=CARTESIAN_POINT('',(84.0499999999992,-7.7811408934786,2.));
#1167=CARTESIAN_POINT('',(85.5499999999992,-6.28114089347859,10.2248358948343));
#1168=CARTESIAN_POINT('Ctrl Pts',(85.5499999999992,-6.28114089347859,10.2248358948343));
#1169=CARTESIAN_POINT('Ctrl Pts',(85.7351301695523,-6.28114089347858,10.2248358948343));
#1170=CARTESIAN_POINT('Ctrl Pts',(85.9303116036925,-6.31770512557458,10.202626484207));
#1171=CARTESIAN_POINT('Ctrl Pts',(86.2840084890825,-6.45920581877735,10.1136366249425));
#1172=CARTESIAN_POINT('Ctrl Pts',(86.4425699257381,-6.56387482664787,10.046614049215));
#1173=CARTESIAN_POINT('Ctrl Pts',(86.7267619425039,-6.82578224594305,9.87118457070397));
#1174=CARTESIAN_POINT('Ctrl Pts',(86.8535114498172,-7.00993036121325,9.74265523143119));
#1175=CARTESIAN_POINT('Ctrl Pts',(87.0149536875802,-7.39666946992452,9.45239312239038));
#1176=CARTESIAN_POINT('Ctrl Pts',(87.0499999999992,-7.59897199879159,9.2904728785376));
#1177=CARTESIAN_POINT('Ctrl Pts',(87.0499999999993,-7.98545258986891,8.96128200316351));
#1178=CARTESIAN_POINT('Ctrl Pts',(87.0064940086407,-8.19910048689371,8.76640541188874));
#1179=CARTESIAN_POINT('Ctrl Pts',(86.8308439782912,-8.59077274076843,8.38294317629752));
#1180=CARTESIAN_POINT('Ctrl Pts',(86.6993290941629,-8.76911006361086,8.19438932839402));
#1181=CARTESIAN_POINT('Ctrl Pts',(86.4198330317021,-9.01284398313765,7.92410703528829));
#1182=CARTESIAN_POINT('Ctrl Pts',(86.2717270760616,-9.10869622446358,7.8129707693994));
#1183=CARTESIAN_POINT('Ctrl Pts',(86.0172428931183,-9.20942913007617,7.69344720235361));
#1184=CARTESIAN_POINT('Ctrl Pts',(85.9270242474297,-9.23607837242683,7.66130649969463));
#1185=CARTESIAN_POINT('Ctrl Pts',(85.7410296726584,-9.27193164208774,7.61788086765894));
#1186=CARTESIAN_POINT('Ctrl Pts',(85.64525287919,-9.2811408934786,7.60660395415882));
#1187=CARTESIAN_POINT('Ctrl Pts',(85.4547471208087,-9.28114089347861,7.60660395415882));
#1188=CARTESIAN_POINT('Ctrl Pts',(85.3589703273403,-9.27193164208775,7.61788086765895));
#1189=CARTESIAN_POINT('Ctrl Pts',(85.172975752569,-9.23607837242687,7.66130649969464));
#1190=CARTESIAN_POINT('Ctrl Pts',(85.0827571068804,-9.20942913007623,7.6934472023536));
#1191=CARTESIAN_POINT('Ctrl Pts',(84.8282729239371,-9.10869622446367,7.81297076939939));
#1192=CARTESIAN_POINT('Ctrl Pts',(84.6801669682965,-9.01284398313775,7.92410703528828));
#1193=CARTESIAN_POINT('Ctrl Pts',(84.4006709058358,-8.76911006361099,8.19438932839402));
#1194=CARTESIAN_POINT('Ctrl Pts',(84.2691560217074,-8.59077274076858,8.38294317629751));
#1195=CARTESIAN_POINT('Ctrl Pts',(84.0935059913579,-8.19910048689388,8.76640541188874));
#1196=CARTESIAN_POINT('Ctrl Pts',(84.0499999999993,-7.98545258986909,8.9612820031635));
#1197=CARTESIAN_POINT('Ctrl Pts',(84.0499999999992,-7.78114089347869,9.13530767932084));
#1198=CARTESIAN_POINT('Ctrl Pts',(84.0499999999992,-7.78114089347869,9.13530767932084));
#1199=CARTESIAN_POINT('Ctrl Pts',(84.0499999999992,-7.59897199879177,9.29047287853759));
#1200=CARTESIAN_POINT('Ctrl Pts',(84.0850463124182,-7.39666946992469,9.45239312239037));
#1201=CARTESIAN_POINT('Ctrl Pts',(84.2464885501812,-7.0099303612134,9.74265523143118));
#1202=CARTESIAN_POINT('Ctrl Pts',(84.3732380574945,-6.82578224594319,9.87118457070397));
#1203=CARTESIAN_POINT('Ctrl Pts',(84.6574300742603,-6.56387482664798,10.046614049215));
#1204=CARTESIAN_POINT('Ctrl Pts',(84.8159915109159,-6.45920581877743,10.1136366249425));
#1205=CARTESIAN_POINT('Ctrl Pts',(85.1696883963059,-6.31770512557462,10.202626484207));
#1206=CARTESIAN_POINT('Ctrl Pts',(85.364869830446,-6.28114089347861,10.2248358948343));
#1207=CARTESIAN_POINT('Ctrl Pts',(85.5499999999991,-6.2811408934786,10.2248358948343));
#1208=CARTESIAN_POINT('Origin',(85.5499999999992,-7.7811408934786,2.));
#1209=CARTESIAN_POINT('',(84.5499999999993,-7.7811408934786,2.));
#1210=CARTESIAN_POINT('Origin',(85.5499999999992,-7.7811408934786,2.));
#1211=CARTESIAN_POINT('Origin',(73.5499999999986,7.78114089347657,2.));
#1212=CARTESIAN_POINT('',(72.0499999999986,7.78114089347657,2.));
#1213=CARTESIAN_POINT('Origin',(73.5499999999986,7.78114089347657,2.));
#1214=CARTESIAN_POINT('',(72.0499999999986,7.78114089347653,9.13530767932086));
#1215=CARTESIAN_POINT('',(72.0499999999986,7.78114089347657,2.));
#1216=CARTESIAN_POINT('',(73.5499999999986,9.28114089347658,7.60660395415884));
#1217=CARTESIAN_POINT('Ctrl Pts',(73.5499999999986,9.28114089347658,7.60660395415884));
#1218=CARTESIAN_POINT('Ctrl Pts',(73.6452528791892,9.28114089347658,7.60660395415884));
#1219=CARTESIAN_POINT('Ctrl Pts',(73.7410296726576,9.27193164208572,7.61788086765897));
#1220=CARTESIAN_POINT('Ctrl Pts',(73.9270242474289,9.23607837242484,7.66130649969466));
#1221=CARTESIAN_POINT('Ctrl Pts',(74.0172428931175,9.20942913007419,7.69344720235363));
#1222=CARTESIAN_POINT('Ctrl Pts',(74.2717270760608,9.10869622446163,7.81297076939942));
#1223=CARTESIAN_POINT('Ctrl Pts',(74.4198330317014,9.01284398313571,7.92410703528831));
#1224=CARTESIAN_POINT('Ctrl Pts',(74.6993290941622,8.76911006360896,8.19438932839404));
#1225=CARTESIAN_POINT('Ctrl Pts',(74.8308439782904,8.59077274076654,8.38294317629754));
#1226=CARTESIAN_POINT('Ctrl Pts',(75.00649400864,8.19910048689184,8.76640541188876));
#1227=CARTESIAN_POINT('Ctrl Pts',(75.0499999999986,7.98545258986705,8.96128200316353));
#1228=CARTESIAN_POINT('Ctrl Pts',(75.0499999999987,7.59897199878973,9.29047287853761));
#1229=CARTESIAN_POINT('Ctrl Pts',(75.0149536875797,7.39666946992265,9.45239312239039));
#1230=CARTESIAN_POINT('Ctrl Pts',(74.8535114498168,7.00993036121137,9.7426552314312));
#1231=CARTESIAN_POINT('Ctrl Pts',(74.7267619425034,6.82578224594115,9.87118457070398));
#1232=CARTESIAN_POINT('Ctrl Pts',(74.4425699257376,6.56387482664594,10.046614049215));
#1233=CARTESIAN_POINT('Ctrl Pts',(74.284008489082,6.45920581877539,10.1136366249425));
#1234=CARTESIAN_POINT('Ctrl Pts',(73.930311603692,6.31770512557258,10.202626484207));
#1235=CARTESIAN_POINT('Ctrl Pts',(73.7351301695519,6.28114089347658,10.2248358948343));
#1236=CARTESIAN_POINT('Ctrl Pts',(73.3648698304455,6.28114089347656,10.2248358948343));
#1237=CARTESIAN_POINT('Ctrl Pts',(73.1696883963054,6.31770512557255,10.202626484207));
#1238=CARTESIAN_POINT('Ctrl Pts',(72.8159915109154,6.45920581877532,10.1136366249425));
#1239=CARTESIAN_POINT('Ctrl Pts',(72.6574300742598,6.56387482664585,10.046614049215));
#1240=CARTESIAN_POINT('Ctrl Pts',(72.373238057494,6.82578224594103,9.87118457070398));
#1241=CARTESIAN_POINT('Ctrl Pts',(72.2464885501806,7.00993036121123,9.7426552314312));
#1242=CARTESIAN_POINT('Ctrl Pts',(72.0850463124177,7.39666946992249,9.45239312239039));
#1243=CARTESIAN_POINT('Ctrl Pts',(72.0499999999986,7.59897199878957,9.29047287853761));
#1244=CARTESIAN_POINT('Ctrl Pts',(72.0499999999986,7.78114089347649,9.13530767932086));
#1245=CARTESIAN_POINT('Ctrl Pts',(72.0499999999986,7.78114089347649,9.13530767932086));
#1246=CARTESIAN_POINT('Ctrl Pts',(72.0499999999986,7.98545258986689,8.96128200316352));
#1247=CARTESIAN_POINT('Ctrl Pts',(72.0935059913572,8.19910048689169,8.76640541188875));
#1248=CARTESIAN_POINT('Ctrl Pts',(72.2691560217068,8.59077274076641,8.38294317629753));
#1249=CARTESIAN_POINT('Ctrl Pts',(72.400670905835,8.76911006360884,8.19438932839403));
#1250=CARTESIAN_POINT('Ctrl Pts',(72.6801669682958,9.01284398313562,7.9241070352883));
#1251=CARTESIAN_POINT('Ctrl Pts',(72.8282729239363,9.10869622446155,7.81297076939942));
#1252=CARTESIAN_POINT('Ctrl Pts',(73.0827571068796,9.20942913007414,7.69344720235363));
#1253=CARTESIAN_POINT('Ctrl Pts',(73.1729757525682,9.2360783724248,7.66130649969466));
#1254=CARTESIAN_POINT('Ctrl Pts',(73.3589703273395,9.2719316420857,7.61788086765897));
#1255=CARTESIAN_POINT('Ctrl Pts',(73.4547471208079,9.28114089347657,7.60660395415884));
#1256=CARTESIAN_POINT('Ctrl Pts',(73.5499999999986,9.28114089347658,7.60660395415884));
#1257=CARTESIAN_POINT('Origin',(73.5499999999986,7.78114089347657,2.));
#1258=CARTESIAN_POINT('',(72.5499999999986,7.78114089347657,2.));
#1259=CARTESIAN_POINT('Origin',(73.5499999999986,7.78114089347657,2.));
#1260=CARTESIAN_POINT('Origin',(73.5499999999987,-7.78114089347927,0.));
#1261=CARTESIAN_POINT('',(72.5499999999987,-7.78114089347927,0.));
#1262=CARTESIAN_POINT('Origin',(85.5499999999992,-7.7811408934786,0.));
#1263=CARTESIAN_POINT('',(84.5499999999993,-7.7811408934786,0.));
#1264=CARTESIAN_POINT('Origin',(85.5499999999992,7.78114089347726,0.));
#1265=CARTESIAN_POINT('',(84.5499999999992,7.78114089347726,0.1));
#1266=CARTESIAN_POINT('Origin',(85.5499999999992,7.78114089347726,0.1));
#1267=CARTESIAN_POINT('',(84.5499999999992,7.78114089347726,0.));
#1268=CARTESIAN_POINT('Origin',(73.5499999999986,7.78114089347657,0.));
#1269=CARTESIAN_POINT('',(72.5499999999986,7.78114089347657,0.1));
#1270=CARTESIAN_POINT('Origin',(73.5499999999986,7.78114089347657,0.1));
#1271=CARTESIAN_POINT('',(72.5499999999986,7.78114089347657,0.));
#1272=CARTESIAN_POINT('Origin',(76.7999999999998,0.400000000000464,8.5));
#1273=CARTESIAN_POINT('',(76.7999999999998,-0.399999999999537,11.9933314804526));
#1274=CARTESIAN_POINT('',(76.7999999999998,0.400000000000464,11.9933314804524));
#1275=CARTESIAN_POINT('Origin',(76.7999999999998,-1.15878354714551E-12,
0.));
#1276=CARTESIAN_POINT('',(76.7999999999998,-0.399999999999537,8.5));
#1277=CARTESIAN_POINT('',(76.7999999999998,-0.399999999999537,8.5));
#1278=CARTESIAN_POINT('',(76.7999999999998,0.400000000000464,8.5));
#1279=CARTESIAN_POINT('',(76.7999999999998,0.400000000000464,8.5));
#1280=CARTESIAN_POINT('',(76.7999999999998,0.400000000000464,8.5));
#1281=CARTESIAN_POINT('Origin',(79.5499999999998,0.400000000000464,8.5));
#1282=CARTESIAN_POINT('',(82.2999999999998,0.400000000000464,11.9933314804525));
#1283=CARTESIAN_POINT('Ctrl Pts',(76.7999999999998,0.400000000000312,11.9933314804525));
#1284=CARTESIAN_POINT('Ctrl Pts',(76.7999999999998,0.747675309652361,11.981735859662));
#1285=CARTESIAN_POINT('Ctrl Pts',(76.8699042541411,1.11707166397234,11.9527665400856));
#1286=CARTESIAN_POINT('Ctrl Pts',(77.1516290870004,1.79460454105291,11.8699566811821));
#1287=CARTESIAN_POINT('Ctrl Pts',(77.3633638211587,2.10287425380711,11.8169158317646));
#1288=CARTESIAN_POINT('Ctrl Pts',(77.8501694151806,2.58883196340253,11.7200315783601));
#1289=CARTESIAN_POINT('Ctrl Pts',(78.1580268556351,2.79979145656608,11.6697091828177));
#1290=CARTESIAN_POINT('Ctrl Pts',(78.8344892644565,3.08041638327057,11.5987921819104));
#1291=CARTESIAN_POINT('Ctrl Pts',(79.2032312071811,3.15000000000045,11.5791839090673));
#1292=CARTESIAN_POINT('Ctrl Pts',(79.5499999999997,3.15000000000047,11.5791839090673));
#1293=CARTESIAN_POINT('Ctrl Pts',(79.8967687928182,3.15000000000049,11.5791839090673));
#1294=CARTESIAN_POINT('Ctrl Pts',(80.2655107355429,3.08041638327065,11.5987921819104));
#1295=CARTESIAN_POINT('Ctrl Pts',(80.9419731443643,2.79979145656624,11.6697091828177));
#1296=CARTESIAN_POINT('Ctrl Pts',(81.2498305848188,2.58883196340271,11.7200315783601));
#1297=CARTESIAN_POINT('Ctrl Pts',(81.7366361788407,2.10287425380735,11.8169158317646));
#1298=CARTESIAN_POINT('Ctrl Pts',(81.9483709129991,1.79460454105318,11.8699566811821));
#1299=CARTESIAN_POINT('Ctrl Pts',(82.2300957458584,1.11707166397264,11.9527665400856));
#1300=CARTESIAN_POINT('Ctrl Pts',(82.2999999999998,0.747675309652664,11.981735859662));
#1301=CARTESIAN_POINT('Ctrl Pts',(82.2999999999998,0.400000000000615,11.9933314804525));
#1302=CARTESIAN_POINT('',(82.2999999999998,0.400000000000464,8.5));
#1303=CARTESIAN_POINT('Origin',(79.5499999999998,0.400000000000464,8.5));
#1304=CARTESIAN_POINT('',(82.2999999999998,0.400000000000464,8.5));
#1305=CARTESIAN_POINT('Origin',(82.2999999999998,-0.399999999999537,8.5));
#1306=CARTESIAN_POINT('',(82.2999999999998,-0.399999999999537,11.9933314804525));
#1307=CARTESIAN_POINT('Origin',(82.2999999999998,-8.51198708613656E-13,
0.));
#1308=CARTESIAN_POINT('',(82.2999999999998,-0.399999999999537,8.5));
#1309=CARTESIAN_POINT('',(82.2999999999998,-0.399999999999537,8.5));
#1310=CARTESIAN_POINT('',(82.2999999999998,-0.399999999999537,8.5));
#1311=CARTESIAN_POINT('Origin',(79.5499999999998,-0.399999999999537,8.5));
#1312=CARTESIAN_POINT('Ctrl Pts',(82.2999999999998,-0.399999999999385,11.9933314804526));
#1313=CARTESIAN_POINT('Ctrl Pts',(82.2999999999998,-0.747675309651425,11.9817358596622));
#1314=CARTESIAN_POINT('Ctrl Pts',(82.2300957458585,-1.11707166397141,11.9527665400859));
#1315=CARTESIAN_POINT('Ctrl Pts',(81.9483709129993,-1.79460454105198,11.8699566811825));
#1316=CARTESIAN_POINT('Ctrl Pts',(81.7366361788409,-2.10287425380617,11.8169158317651));
#1317=CARTESIAN_POINT('Ctrl Pts',(81.249830584819,-2.58883196340159,11.7200315783607));
#1318=CARTESIAN_POINT('Ctrl Pts',(80.9419731443645,-2.79979145656516,11.6697091828184));
#1319=CARTESIAN_POINT('Ctrl Pts',(80.2655107355432,-3.08041638326964,11.5987921819112));
#1320=CARTESIAN_POINT('Ctrl Pts',(79.8967687928185,-3.14999999999952,11.5791839090681));
#1321=CARTESIAN_POINT('Ctrl Pts',(79.2032312071814,-3.14999999999956,11.5791839090681));
#1322=CARTESIAN_POINT('Ctrl Pts',(78.8344892644567,-3.08041638326972,11.5987921819112));
#1323=CARTESIAN_POINT('Ctrl Pts',(78.1580268556354,-2.79979145656531,11.6697091828184));
#1324=CARTESIAN_POINT('Ctrl Pts',(77.8501694151809,-2.58883196340178,11.7200315783607));
#1325=CARTESIAN_POINT('Ctrl Pts',(77.3633638211589,-2.10287425380641,11.8169158317651));
#1326=CARTESIAN_POINT('Ctrl Pts',(77.1516290870005,-1.79460454105223,11.8699566811825));
#1327=CARTESIAN_POINT('Ctrl Pts',(76.8699042541412,-1.11707166397169,11.9527665400859));
#1328=CARTESIAN_POINT('Ctrl Pts',(76.7999999999998,-0.747675309651729,11.9817358596622));
#1329=CARTESIAN_POINT('Ctrl Pts',(76.7999999999998,-0.399999999999689,11.9933314804526));
#1330=CARTESIAN_POINT('Origin',(79.5499999999998,-0.399999999999537,8.5));
#1331=CARTESIAN_POINT('Origin',(79.5499999999998,4.63518112781003E-13,8.5));
#1332=CARTESIAN_POINT('',(81.2499999999998,-0.399999999999537,8.5));
#1333=CARTESIAN_POINT('',(81.2499999999998,0.400000000000464,8.5));
#1334=CARTESIAN_POINT('',(81.2499999999998,0.200000000000464,8.5));
#1335=CARTESIAN_POINT('',(77.8499999999998,-0.399999999999537,8.5));
#1336=CARTESIAN_POINT('Origin',(79.5499999999998,-0.399999999999537,8.5));
#1337=CARTESIAN_POINT('',(77.8499999999998,0.400000000000464,8.5));
#1338=CARTESIAN_POINT('',(77.8499999999998,-0.199999999999537,8.5));
#1339=CARTESIAN_POINT('Origin',(79.5499999999998,0.400000000000464,8.5));
#1340=CARTESIAN_POINT('Origin',(77.8499999999998,-0.399999999999537,0.));
#1341=CARTESIAN_POINT('',(77.8499999999998,-0.399999999999537,0.));
#1342=CARTESIAN_POINT('',(77.8499999999998,0.400000000000464,0.));
#1343=CARTESIAN_POINT('Origin',(79.5499999999998,-0.399999999999537,0.));
#1344=CARTESIAN_POINT('',(81.2499999999998,-0.399999999999537,0.));
#1345=CARTESIAN_POINT('Origin',(81.2499999999998,0.400000000000464,0.));
#1346=CARTESIAN_POINT('',(81.2499999999998,0.400000000000464,0.));
#1347=CARTESIAN_POINT('Origin',(79.5499999999998,0.400000000000464,0.));
#1348=CARTESIAN_POINT('Origin',(90.0499999999998,-12.0000000000015,0.));
#1349=CARTESIAN_POINT('',(90.049999999999,11.9995833261,0.1));
#1350=CARTESIAN_POINT('',(90.0499999999998,-11.9997916630512,0.1));
#1351=CARTESIAN_POINT('Origin',(90.0499999999992,-4.17783708864263E-13,
0.));
#1352=CARTESIAN_POINT('Origin',(79.5499999999989,-1.00499112787963E-12,
0.));
#1353=CARTESIAN_POINT('',(69.0499999999984,11.9995833260988,0.1));
#1354=CARTESIAN_POINT('',(79.5499999999983,11.9995833260988,0.1));
#1355=CARTESIAN_POINT('Origin',(69.0499999999987,-1.592198546895E-12,0.));
#1356=CARTESIAN_POINT('Origin',(69.0499999999994,-5.00000000000164,0.));
#1357=CARTESIAN_POINT('',(69.0499999999988,4.99899989997845,0.1));
#1358=CARTESIAN_POINT('',(69.0499999999996,-8.49979166305183,0.1));
#1359=CARTESIAN_POINT('Origin',(69.0499999999991,-1.59219854689498E-12,
0.));
#1360=CARTESIAN_POINT('Origin',(68.5999999999991,-1.61736457913849E-12,
0.));
#1361=CARTESIAN_POINT('',(68.5999999999988,4.9989998999784,0.1));
#1362=CARTESIAN_POINT('Origin',(90.0500000000003,-11.9995833261008,0.1));
#1363=UNCERTAINTY_MEASURE_WITH_UNIT(LENGTH_MEASURE(0.01),#1367,
'DISTANCE_ACCURACY_VALUE',
'Maximum model space distance between geometric entities at asserted c
onnectivities');
#1364=UNCERTAINTY_MEASURE_WITH_UNIT(LENGTH_MEASURE(0.01),#1367,
'DISTANCE_ACCURACY_VALUE',
'Maximum model space distance between geometric entities at asserted c
onnectivities');
#1365=(
GEOMETRIC_REPRESENTATION_CONTEXT(3)
GLOBAL_UNCERTAINTY_ASSIGNED_CONTEXT((#1363))
GLOBAL_UNIT_ASSIGNED_CONTEXT((#1367,#1369,#1370))
REPRESENTATION_CONTEXT('','3D')
);
#1366=(
GEOMETRIC_REPRESENTATION_CONTEXT(3)
GLOBAL_UNCERTAINTY_ASSIGNED_CONTEXT((#1364))
GLOBAL_UNIT_ASSIGNED_CONTEXT((#1367,#1369,#1370))
REPRESENTATION_CONTEXT('','3D')
);
#1367=(
LENGTH_UNIT()
NAMED_UNIT(*)
SI_UNIT(.MILLI.,.METRE.)
);
#1368=(
LENGTH_UNIT()
NAMED_UNIT(*)
SI_UNIT($,.METRE.)
);
#1369=(
NAMED_UNIT(*)
PLANE_ANGLE_UNIT()
SI_UNIT($,.RADIAN.)
);
#1370=(
NAMED_UNIT(*)
SI_UNIT($,.STERADIAN.)
SOLID_ANGLE_UNIT()
);
#1371=SHAPE_DEFINITION_REPRESENTATION(#1372,#1373);
#1372=PRODUCT_DEFINITION_SHAPE('',$,#1375);
#1373=SHAPE_REPRESENTATION('',(#646),#1365);
#1374=PRODUCT_DEFINITION_CONTEXT('part definition',#1379,'design');
#1375=PRODUCT_DEFINITION('Bolt Side - 3D Print','Bolt Side - 3D Print',
#1376,#1374);
#1376=PRODUCT_DEFINITION_FORMATION('',$,#1381);
#1377=PRODUCT_RELATED_PRODUCT_CATEGORY('Bolt Side - 3D Print',
'Bolt Side - 3D Print',(#1381));
#1378=APPLICATION_PROTOCOL_DEFINITION('international standard',
'automotive_design',2009,#1379);
#1379=APPLICATION_CONTEXT(
'Core Data for Automotive Mechanical Design Process');
#1380=PRODUCT_CONTEXT('part definition',#1379,'mechanical');
#1381=PRODUCT('Bolt Side - 3D Print','Bolt Side - 3D Print',$,(#1380));
#1382=PRESENTATION_STYLE_ASSIGNMENT((#1383));
#1383=SURFACE_STYLE_USAGE(.BOTH.,#1384);
#1384=SURFACE_SIDE_STYLE('',(#1385));
#1385=SURFACE_STYLE_FILL_AREA(#1386);
#1386=FILL_AREA_STYLE('Steel - Satin',(#1387));
#1387=FILL_AREA_STYLE_COLOUR('Steel - Satin',#1388);
#1388=COLOUR_RGB('Steel - Satin',0.627450980392157,0.627450980392157,0.627450980392157);
ENDSEC;
END-ISO-10303-21;
