ISO-10303-21;
HEADER;
/* Generated by software containing ST-Developer
 * from STEP Tools, Inc. (www.steptools.com) 
 */

FILE_DESCRIPTION(
/* description */ (''),
/* implementation_level */ '2;1');

FILE_NAME(
/* name */ 'Nut Side - 3D Print.step',
/* time_stamp */ '2025-05-01T08:26:02+01:00',
/* author */ (''),
/* organization */ (''),
/* preprocessor_version */ 'ST-DEVELOPER v20.1',
/* originating_system */ 'Autodesk Translation Framework v14.4.0.0',
/* authorisation */ '');

FILE_SCHEMA (('AUTOMOTIVE_DESIGN { 1 0 10303 214 3 1 1 }'));
ENDSEC;

DATA;
#10=MECHANICAL_DESIGN_GEOMETRIC_PRESENTATION_REPRESENTATION('',(#13),#1403);
#11=SHAPE_REPRESENTATION_RELATIONSHIP('SRR','None',#1410,#12);
#12=ADVANCED_BREP_SHAPE_REPRESENTATION('',(#14),#1402);
#13=STYLED_ITEM('',(#1419),#14);
#14=MANIFOLD_SOLID_BREP('Nut Side',#675);
#15=ELLIPSE('',#731,23.998300398285,12.0000000000005);
#16=ELLIPSE('',#735,23.9983003378366,12.0000000000005);
#17=ELLIPSE('',#737,24.0016999430726,12.0000000000005);
#18=ELLIPSE('',#739,24.0016998826042,12.0000000000005);
#19=CYLINDRICAL_SURFACE('',#695,1.5);
#20=CYLINDRICAL_SURFACE('',#702,4.05);
#21=CYLINDRICAL_SURFACE('',#706,2.);
#22=CYLINDRICAL_SURFACE('',#710,2.00000000000001);
#23=CYLINDRICAL_SURFACE('',#714,1.5);
#24=CYLINDRICAL_SURFACE('',#718,1.5);
#25=CYLINDRICAL_SURFACE('',#722,0.999999999999996);
#26=CYLINDRICAL_SURFACE('',#724,0.999999999999996);
#27=CYLINDRICAL_SURFACE('',#726,0.999999999999996);
#28=CYLINDRICAL_SURFACE('',#728,0.999999999999996);
#29=CYLINDRICAL_SURFACE('',#746,1.7);
#30=CYLINDRICAL_SURFACE('',#748,1.7);
#31=CYLINDRICAL_SURFACE('',#751,12.0000000000005);
#32=CYLINDRICAL_SURFACE('',#755,5.00000000000003);
#33=FACE_BOUND('',#207,.T.);
#34=FACE_BOUND('',#216,.T.);
#35=FACE_BOUND('',#219,.T.);
#36=FACE_BOUND('',#222,.T.);
#37=FACE_BOUND('',#225,.T.);
#38=FACE_BOUND('',#237,.T.);
#39=FACE_BOUND('',#243,.T.);
#40=FACE_BOUND('',#244,.T.);
#41=FACE_BOUND('',#246,.T.);
#42=FACE_BOUND('',#247,.T.);
#43=FACE_BOUND('',#249,.T.);
#44=FACE_BOUND('',#250,.T.);
#45=FACE_BOUND('',#251,.T.);
#46=FACE_BOUND('',#252,.T.);
#47=FACE_BOUND('',#253,.T.);
#48=LINE('',#1066,#98);
#49=LINE('',#1068,#99);
#50=LINE('',#1070,#100);
#51=LINE('',#1072,#101);
#52=LINE('',#1074,#102);
#53=LINE('',#1076,#103);
#54=LINE('',#1077,#104);
#55=LINE('',#1080,#105);
#56=LINE('',#1084,#106);
#57=LINE('',#1088,#107);
#58=LINE('',#1092,#108);
#59=LINE('',#1095,#109);
#60=LINE('',#1100,#110);
#61=LINE('',#1104,#111);
#62=LINE('',#1110,#112);
#63=LINE('',#1111,#113);
#64=LINE('',#1114,#114);
#65=LINE('',#1117,#115);
#66=LINE('',#1122,#116);
#67=LINE('',#1171,#117);
#68=LINE('',#1220,#118);
#69=LINE('',#1269,#119);
#70=LINE('',#1316,#120);
#71=LINE('',#1320,#121);
#72=LINE('',#1324,#122);
#73=LINE('',#1328,#123);
#74=LINE('',#1335,#124);
#75=LINE('',#1337,#125);
#76=LINE('',#1338,#126);
#77=LINE('',#1343,#127);
#78=LINE('',#1344,#128);
#79=LINE('',#1349,#129);
#80=LINE('',#1350,#130);
#81=LINE('',#1355,#131);
#82=LINE('',#1356,#132);
#83=LINE('',#1361,#133);
#84=LINE('',#1362,#134);
#85=LINE('',#1365,#135);
#86=LINE('',#1369,#136);
#87=LINE('',#1373,#137);
#88=LINE('',#1376,#138);
#89=LINE('',#1377,#139);
#90=LINE('',#1379,#140);
#91=LINE('',#1381,#141);
#92=LINE('',#1385,#142);
#93=LINE('',#1387,#143);
#94=LINE('',#1388,#144);
#95=LINE('',#1391,#145);
#96=LINE('',#1393,#146);
#97=LINE('',#1394,#147);
#98=VECTOR('',#762,10.);
#99=VECTOR('',#763,10.);
#100=VECTOR('',#764,10.);
#101=VECTOR('',#765,10.);
#102=VECTOR('',#766,10.);
#103=VECTOR('',#767,10.);
#104=VECTOR('',#768,10.);
#105=VECTOR('',#769,10.);
#106=VECTOR('',#772,10.);
#107=VECTOR('',#777,10.);
#108=VECTOR('',#782,10.);
#109=VECTOR('',#787,10.);
#110=VECTOR('',#792,10.);
#111=VECTOR('',#795,10.);
#112=VECTOR('',#802,10.);
#113=VECTOR('',#803,10.);
#114=VECTOR('',#806,10.);
#115=VECTOR('',#809,10.);
#116=VECTOR('',#814,2.);
#117=VECTOR('',#823,2.00000000000001);
#118=VECTOR('',#832,1.5);
#119=VECTOR('',#841,1.5);
#120=VECTOR('',#848,0.999999999999996);
#121=VECTOR('',#853,0.999999999999996);
#122=VECTOR('',#858,0.999999999999996);
#123=VECTOR('',#863,0.999999999999996);
#124=VECTOR('',#870,10.);
#125=VECTOR('',#871,10.);
#126=VECTOR('',#872,10.);
#127=VECTOR('',#877,10.);
#128=VECTOR('',#878,10.);
#129=VECTOR('',#883,10.);
#130=VECTOR('',#884,10.);
#131=VECTOR('',#889,10.);
#132=VECTOR('',#890,10.);
#133=VECTOR('',#895,10.);
#134=VECTOR('',#896,10.);
#135=VECTOR('',#901,10.);
#136=VECTOR('',#904,10.);
#137=VECTOR('',#907,10.);
#138=VECTOR('',#912,10.);
#139=VECTOR('',#913,10.);
#140=VECTOR('',#916,10.);
#141=VECTOR('',#919,10.);
#142=VECTOR('',#924,10.);
#143=VECTOR('',#925,10.);
#144=VECTOR('',#926,10.);
#145=VECTOR('',#929,10.);
#146=VECTOR('',#930,10.);
#147=VECTOR('',#931,10.);
#148=PLANE('',#690);
#149=PLANE('',#693);
#150=PLANE('',#697);
#151=PLANE('',#698);
#152=PLANE('',#704);
#153=PLANE('',#708);
#154=PLANE('',#712);
#155=PLANE('',#716);
#156=PLANE('',#720);
#157=PLANE('',#730);
#158=PLANE('',#732);
#159=PLANE('',#734);
#160=PLANE('',#736);
#161=PLANE('',#738);
#162=PLANE('',#740);
#163=PLANE('',#742);
#164=PLANE('',#745);
#165=PLANE('',#747);
#166=PLANE('',#749);
#167=PLANE('',#750);
#168=PLANE('',#753);
#169=FACE_OUTER_BOUND('',#205,.T.);
#170=FACE_OUTER_BOUND('',#206,.T.);
#171=FACE_OUTER_BOUND('',#208,.T.);
#172=FACE_OUTER_BOUND('',#209,.T.);
#173=FACE_OUTER_BOUND('',#210,.T.);
#174=FACE_OUTER_BOUND('',#211,.T.);
#175=FACE_OUTER_BOUND('',#212,.T.);
#176=FACE_OUTER_BOUND('',#213,.T.);
#177=FACE_OUTER_BOUND('',#214,.T.);
#178=FACE_OUTER_BOUND('',#215,.T.);
#179=FACE_OUTER_BOUND('',#217,.T.);
#180=FACE_OUTER_BOUND('',#218,.T.);
#181=FACE_OUTER_BOUND('',#220,.T.);
#182=FACE_OUTER_BOUND('',#221,.T.);
#183=FACE_OUTER_BOUND('',#223,.T.);
#184=FACE_OUTER_BOUND('',#224,.T.);
#185=FACE_OUTER_BOUND('',#226,.T.);
#186=FACE_OUTER_BOUND('',#227,.T.);
#187=FACE_OUTER_BOUND('',#228,.T.);
#188=FACE_OUTER_BOUND('',#229,.T.);
#189=FACE_OUTER_BOUND('',#230,.T.);
#190=FACE_OUTER_BOUND('',#231,.T.);
#191=FACE_OUTER_BOUND('',#232,.T.);
#192=FACE_OUTER_BOUND('',#233,.T.);
#193=FACE_OUTER_BOUND('',#234,.T.);
#194=FACE_OUTER_BOUND('',#235,.T.);
#195=FACE_OUTER_BOUND('',#236,.T.);
#196=FACE_OUTER_BOUND('',#238,.T.);
#197=FACE_OUTER_BOUND('',#239,.T.);
#198=FACE_OUTER_BOUND('',#240,.T.);
#199=FACE_OUTER_BOUND('',#241,.T.);
#200=FACE_OUTER_BOUND('',#242,.T.);
#201=FACE_OUTER_BOUND('',#245,.T.);
#202=FACE_OUTER_BOUND('',#248,.T.);
#203=FACE_OUTER_BOUND('',#254,.T.);
#204=FACE_OUTER_BOUND('',#255,.T.);
#205=EDGE_LOOP('',(#452,#453,#454,#455));
#206=EDGE_LOOP('',(#456,#457,#458,#459,#460,#461,#462,#463));
#207=EDGE_LOOP('',(#464,#465,#466,#467));
#208=EDGE_LOOP('',(#468,#469,#470));
#209=EDGE_LOOP('',(#471,#472,#473,#474));
#210=EDGE_LOOP('',(#475,#476,#477));
#211=EDGE_LOOP('',(#478,#479,#480,#481,#482,#483,#484,#485,#486,#487));
#212=EDGE_LOOP('',(#488,#489,#490,#491,#492,#493,#494,#495,#496,#497));
#213=EDGE_LOOP('',(#498,#499,#500,#501));
#214=EDGE_LOOP('',(#502,#503,#504,#505,#506));
#215=EDGE_LOOP('',(#507));
#216=EDGE_LOOP('',(#508));
#217=EDGE_LOOP('',(#509,#510,#511,#512,#513));
#218=EDGE_LOOP('',(#514));
#219=EDGE_LOOP('',(#515));
#220=EDGE_LOOP('',(#516,#517,#518,#519,#520));
#221=EDGE_LOOP('',(#521));
#222=EDGE_LOOP('',(#522));
#223=EDGE_LOOP('',(#523,#524,#525,#526,#527));
#224=EDGE_LOOP('',(#528));
#225=EDGE_LOOP('',(#529));
#226=EDGE_LOOP('',(#530,#531,#532,#533));
#227=EDGE_LOOP('',(#534,#535,#536,#537));
#228=EDGE_LOOP('',(#538,#539,#540,#541));
#229=EDGE_LOOP('',(#542,#543,#544,#545));
#230=EDGE_LOOP('',(#546,#547,#548,#549));
#231=EDGE_LOOP('',(#550,#551,#552,#553));
#232=EDGE_LOOP('',(#554,#555,#556,#557));
#233=EDGE_LOOP('',(#558,#559,#560,#561));
#234=EDGE_LOOP('',(#562,#563,#564,#565));
#235=EDGE_LOOP('',(#566,#567,#568,#569));
#236=EDGE_LOOP('',(#570,#571,#572,#573,#574,#575));
#237=EDGE_LOOP('',(#576,#577,#578,#579));
#238=EDGE_LOOP('',(#580,#581,#582,#583));
#239=EDGE_LOOP('',(#584,#585,#586,#587));
#240=EDGE_LOOP('',(#588,#589,#590,#591));
#241=EDGE_LOOP('',(#592,#593,#594,#595));
#242=EDGE_LOOP('',(#596,#597,#598,#599,#600,#601));
#243=EDGE_LOOP('',(#602));
#244=EDGE_LOOP('',(#603));
#245=EDGE_LOOP('',(#604,#605,#606,#607,#608,#609));
#246=EDGE_LOOP('',(#610));
#247=EDGE_LOOP('',(#611));
#248=EDGE_LOOP('',(#612,#613,#614,#615));
#249=EDGE_LOOP('',(#616,#617));
#250=EDGE_LOOP('',(#618,#619));
#251=EDGE_LOOP('',(#620,#621));
#252=EDGE_LOOP('',(#622,#623));
#253=EDGE_LOOP('',(#624,#625,#626,#627,#628,#629));
#254=EDGE_LOOP('',(#630,#631,#632,#633));
#255=EDGE_LOOP('',(#634,#635,#636,#637));
#256=CIRCLE('',#689,4.05);
#257=CIRCLE('',#691,1.7);
#258=CIRCLE('',#692,1.7);
#259=CIRCLE('',#694,1.5);
#260=CIRCLE('',#696,1.5);
#261=CIRCLE('',#699,4.05);
#262=CIRCLE('',#700,12.0000000000011);
#263=CIRCLE('',#701,4.05);
#264=CIRCLE('',#703,4.05);
#265=CIRCLE('',#705,5.);
#266=CIRCLE('',#707,2.);
#267=CIRCLE('',#709,0.999999999999996);
#268=CIRCLE('',#711,2.00000000000001);
#269=CIRCLE('',#713,0.999999999999996);
#270=CIRCLE('',#715,1.5);
#271=CIRCLE('',#717,0.999999999999996);
#272=CIRCLE('',#719,1.5);
#273=CIRCLE('',#721,0.999999999999996);
#274=CIRCLE('',#723,0.999999999999996);
#275=CIRCLE('',#725,0.999999999999996);
#276=CIRCLE('',#727,0.999999999999996);
#277=CIRCLE('',#729,0.999999999999996);
#278=CIRCLE('',#733,12.0000000000005);
#279=CIRCLE('',#741,12.0000000000005);
#280=CIRCLE('',#743,1.7);
#281=CIRCLE('',#744,1.7);
#282=CIRCLE('',#752,12.);
#283=CIRCLE('',#754,5.00000000000005);
#284=B_SPLINE_CURVE_WITH_KNOTS('',3,(#1005,#1006,#1007,#1008,#1009,#1010,
#1011,#1012,#1013,#1014,#1015,#1016,#1017,#1018,#1019,#1020,#1021,#1022,
#1023,#1024,#1025,#1026,#1027,#1028),.UNSPECIFIED.,.F.,.F.,(4,2,2,2,2,2,
2,2,2,2,2,4),(0.,0.0810250661627055,0.143387574888624,0.177725813547126,
0.195616400534804,0.204131609671706,0.20822175869487,0.210120780591534,
0.210909439182629,0.211155871158183,0.211269699135084,0.211287725963111),
 .UNSPECIFIED.);
#285=B_SPLINE_CURVE_WITH_KNOTS('',3,(#1030,#1031,#1032,#1033,#1034,#1035,
#1036,#1037),.UNSPECIFIED.,.F.,.F.,(4,1,1,1,1,4),(1.60592654695917,1.71903430915143,
1.85656717110171,1.994100033052,2.13163289500228,2.24490729073772),
 .UNSPECIFIED.);
#286=B_SPLINE_CURVE_WITH_KNOTS('',3,(#1039,#1040,#1041,#1042,#1043,#1044,
#1045,#1046,#1047,#1048,#1049,#1050,#1051,#1052,#1053,#1054,#1055,#1056,
#1057,#1058,#1059,#1060,#1061,#1062),.UNSPECIFIED.,.F.,.F.,(4,2,2,2,2,2,
2,2,2,2,2,4),(-6.40793287690786E-6,0.,4.8843948463178E-5,0.000154588798771348,
0.000492993172351631,0.00130778979512708,0.00306261584497936,0.00671581924865276,
0.014391097757139,0.0291224026116328,0.0558773384276114,0.0906351201477714),
 .UNSPECIFIED.);
#287=B_SPLINE_CURVE_WITH_KNOTS('',3,(#1124,#1125,#1126,#1127,#1128,#1129,
#1130,#1131,#1132,#1133,#1134,#1135,#1136,#1137,#1138,#1139,#1140,#1141,
#1142,#1143,#1144,#1145,#1146,#1147,#1148,#1149,#1150,#1151,#1152,#1153),
 .UNSPECIFIED.,.F.,.F.,(4,2,2,2,2,2,2,2,2,2,2,2,2,2,4),(0.,0.0740137470415276,
0.148027494083055,0.242386604666062,0.336745715249069,0.447023411189116,
0.557301107129163,0.634649867204319,0.673324247241898,0.711998627279476,
0.750673007317055,0.789347387354633,0.86669614742979,0.976973843369837,
1.08725153930988),.UNSPECIFIED.);
#288=B_SPLINE_CURVE_WITH_KNOTS('',3,(#1154,#1155,#1156,#1157,#1158,#1159,
#1160,#1161,#1162,#1163),.UNSPECIFIED.,.F.,.F.,(4,2,2,2,4),(1.08725153930988,
1.18161064989289,1.2759697604759,1.34998350751742,1.42399725455895),
 .UNSPECIFIED.);
#289=B_SPLINE_CURVE_WITH_KNOTS('',3,(#1173,#1174,#1175,#1176,#1177,#1178,
#1179,#1180,#1181,#1182,#1183,#1184,#1185,#1186,#1187,#1188,#1189,#1190,
#1191,#1192,#1193,#1194,#1195,#1196,#1197,#1198,#1199,#1200),
 .UNSPECIFIED.,.F.,.F.,(4,2,2,2,2,2,2,2,2,2,2,2,2,4),(0.,0.0386743800375787,
0.0773487600751574,0.154697520150315,0.264975216090362,0.37525291203041,
0.469612022613417,0.563971133196425,0.637984880237952,0.71199862727948,
0.786012374321007,0.860026121362535,0.954385231945542,1.04874434252855),
 .UNSPECIFIED.);
#290=B_SPLINE_CURVE_WITH_KNOTS('',3,(#1201,#1202,#1203,#1204,#1205,#1206,
#1207,#1208,#1209,#1210,#1211,#1212),.UNSPECIFIED.,.F.,.F.,(4,2,2,2,2,4),
(1.04874434252855,1.1590220384686,1.26929973440864,1.3466484944838,1.38532287452138,
1.42399725455896),.UNSPECIFIED.);
#291=B_SPLINE_CURVE_WITH_KNOTS('',3,(#1222,#1223,#1224,#1225,#1226,#1227,
#1228,#1229,#1230,#1231,#1232,#1233,#1234,#1235,#1236,#1237,#1238,#1239,
#1240,#1241,#1242,#1243,#1244,#1245,#1246,#1247,#1248,#1249),
 .UNSPECIFIED.,.F.,.F.,(4,2,2,2,2,2,2,2,2,2,2,2,2,4),(0.,0.0285758637571913,
0.0571517275143826,0.114303455028765,0.194817667885596,0.275331880742426,
0.347120160228345,0.418908439714265,0.474447490580226,0.529986541446188,
0.585525592312149,0.64106464317811,0.71285292266403,0.784641202149949),
 .UNSPECIFIED.);
#292=B_SPLINE_CURVE_WITH_KNOTS('',3,(#1250,#1251,#1252,#1253,#1254,#1255,
#1256,#1257,#1258,#1259,#1260,#1261),.UNSPECIFIED.,.F.,.F.,(4,2,2,2,2,4),
(0.784641202149949,0.865155415006779,0.94566962786361,1.00282135537799,
1.03139721913518,1.05997308289238),.UNSPECIFIED.);
#293=B_SPLINE_CURVE_WITH_KNOTS('',3,(#1271,#1272,#1273,#1274,#1275,#1276,
#1277,#1278,#1279,#1280,#1281,#1282,#1283,#1284,#1285,#1286,#1287,#1288,
#1289,#1290,#1291,#1292,#1293,#1294,#1295,#1296,#1297,#1298,#1299,#1300),
 .UNSPECIFIED.,.F.,.F.,(4,2,2,2,2,2,2,2,2,2,2,2,2,2,4),(0.,0.0555390508659615,
0.111078101731923,0.182866381217842,0.254654660703762,0.335168873560592,
0.415683086417422,0.472834813931805,0.501410677688996,0.529986541446188,
0.558562405203379,0.587138268960571,0.644289996474954,0.724804209331784,
0.805318422188614),.UNSPECIFIED.);
#294=B_SPLINE_CURVE_WITH_KNOTS('',3,(#1301,#1302,#1303,#1304,#1305,#1306,
#1307,#1308,#1309,#1310),.UNSPECIFIED.,.F.,.F.,(4,2,2,2,4),(0.805318422188614,
0.877106701674534,0.948894981160453,1.00443403202641,1.05997308289238),
 .UNSPECIFIED.);
#295=VERTEX_POINT('',#1003);
#296=VERTEX_POINT('',#1004);
#297=VERTEX_POINT('',#1029);
#298=VERTEX_POINT('',#1038);
#299=VERTEX_POINT('',#1065);
#300=VERTEX_POINT('',#1067);
#301=VERTEX_POINT('',#1069);
#302=VERTEX_POINT('',#1071);
#303=VERTEX_POINT('',#1073);
#304=VERTEX_POINT('',#1075);
#305=VERTEX_POINT('',#1078);
#306=VERTEX_POINT('',#1079);
#307=VERTEX_POINT('',#1081);
#308=VERTEX_POINT('',#1083);
#309=VERTEX_POINT('',#1087);
#310=VERTEX_POINT('',#1091);
#311=VERTEX_POINT('',#1097);
#312=VERTEX_POINT('',#1099);
#313=VERTEX_POINT('',#1101);
#314=VERTEX_POINT('',#1103);
#315=VERTEX_POINT('',#1107);
#316=VERTEX_POINT('',#1108);
#317=VERTEX_POINT('',#1113);
#318=VERTEX_POINT('',#1115);
#319=VERTEX_POINT('',#1119);
#320=VERTEX_POINT('',#1121);
#321=VERTEX_POINT('',#1123);
#322=VERTEX_POINT('',#1165);
#323=VERTEX_POINT('',#1168);
#324=VERTEX_POINT('',#1170);
#325=VERTEX_POINT('',#1172);
#326=VERTEX_POINT('',#1214);
#327=VERTEX_POINT('',#1217);
#328=VERTEX_POINT('',#1219);
#329=VERTEX_POINT('',#1221);
#330=VERTEX_POINT('',#1263);
#331=VERTEX_POINT('',#1266);
#332=VERTEX_POINT('',#1268);
#333=VERTEX_POINT('',#1270);
#334=VERTEX_POINT('',#1312);
#335=VERTEX_POINT('',#1315);
#336=VERTEX_POINT('',#1319);
#337=VERTEX_POINT('',#1323);
#338=VERTEX_POINT('',#1327);
#339=VERTEX_POINT('',#1331);
#340=VERTEX_POINT('',#1332);
#341=VERTEX_POINT('',#1334);
#342=VERTEX_POINT('',#1336);
#343=VERTEX_POINT('',#1340);
#344=VERTEX_POINT('',#1342);
#345=VERTEX_POINT('',#1346);
#346=VERTEX_POINT('',#1348);
#347=VERTEX_POINT('',#1352);
#348=VERTEX_POINT('',#1354);
#349=VERTEX_POINT('',#1358);
#350=VERTEX_POINT('',#1360);
#351=VERTEX_POINT('',#1367);
#352=VERTEX_POINT('',#1368);
#353=VERTEX_POINT('',#1370);
#354=VERTEX_POINT('',#1372);
#355=VERTEX_POINT('',#1384);
#356=VERTEX_POINT('',#1386);
#357=VERTEX_POINT('',#1390);
#358=VERTEX_POINT('',#1392);
#359=EDGE_CURVE('',#295,#296,#284,.F.);
#360=EDGE_CURVE('',#296,#297,#285,.T.);
#361=EDGE_CURVE('',#298,#297,#286,.T.);
#362=EDGE_CURVE('',#295,#298,#256,.T.);
#363=EDGE_CURVE('',#299,#296,#48,.T.);
#364=EDGE_CURVE('',#300,#299,#49,.T.);
#365=EDGE_CURVE('',#300,#301,#50,.T.);
#366=EDGE_CURVE('',#302,#301,#51,.T.);
#367=EDGE_CURVE('',#302,#303,#52,.T.);
#368=EDGE_CURVE('',#304,#303,#53,.T.);
#369=EDGE_CURVE('',#304,#297,#54,.T.);
#370=EDGE_CURVE('',#305,#306,#55,.T.);
#371=EDGE_CURVE('',#306,#307,#257,.T.);
#372=EDGE_CURVE('',#307,#308,#56,.T.);
#373=EDGE_CURVE('',#308,#305,#258,.T.);
#374=EDGE_CURVE('',#309,#300,#57,.T.);
#375=EDGE_CURVE('',#301,#309,#259,.T.);
#376=EDGE_CURVE('',#310,#309,#58,.T.);
#377=EDGE_CURVE('',#310,#302,#260,.T.);
#378=EDGE_CURVE('',#303,#310,#59,.T.);
#379=EDGE_CURVE('',#299,#311,#261,.T.);
#380=EDGE_CURVE('',#311,#312,#60,.T.);
#381=EDGE_CURVE('',#313,#312,#262,.T.);
#382=EDGE_CURVE('',#313,#314,#61,.T.);
#383=EDGE_CURVE('',#314,#304,#263,.T.);
#384=EDGE_CURVE('',#315,#316,#264,.T.);
#385=EDGE_CURVE('',#311,#315,#62,.T.);
#386=EDGE_CURVE('',#316,#314,#63,.T.);
#387=EDGE_CURVE('',#316,#317,#64,.T.);
#388=EDGE_CURVE('',#317,#318,#265,.T.);
#389=EDGE_CURVE('',#318,#315,#65,.T.);
#390=EDGE_CURVE('',#319,#319,#266,.T.);
#391=EDGE_CURVE('',#319,#320,#66,.T.);
#392=EDGE_CURVE('',#321,#320,#287,.T.);
#393=EDGE_CURVE('',#320,#321,#288,.T.);
#394=EDGE_CURVE('',#322,#322,#267,.T.);
#395=EDGE_CURVE('',#323,#323,#268,.T.);
#396=EDGE_CURVE('',#323,#324,#67,.T.);
#397=EDGE_CURVE('',#325,#324,#289,.T.);
#398=EDGE_CURVE('',#324,#325,#290,.T.);
#399=EDGE_CURVE('',#326,#326,#269,.T.);
#400=EDGE_CURVE('',#327,#327,#270,.T.);
#401=EDGE_CURVE('',#327,#328,#68,.T.);
#402=EDGE_CURVE('',#329,#328,#291,.T.);
#403=EDGE_CURVE('',#328,#329,#292,.T.);
#404=EDGE_CURVE('',#330,#330,#271,.T.);
#405=EDGE_CURVE('',#331,#331,#272,.T.);
#406=EDGE_CURVE('',#331,#332,#69,.T.);
#407=EDGE_CURVE('',#333,#332,#293,.T.);
#408=EDGE_CURVE('',#332,#333,#294,.T.);
#409=EDGE_CURVE('',#334,#334,#273,.T.);
#410=EDGE_CURVE('',#330,#335,#70,.T.);
#411=EDGE_CURVE('',#335,#335,#274,.T.);
#412=EDGE_CURVE('',#326,#336,#71,.T.);
#413=EDGE_CURVE('',#336,#336,#275,.T.);
#414=EDGE_CURVE('',#334,#337,#72,.T.);
#415=EDGE_CURVE('',#337,#337,#276,.T.);
#416=EDGE_CURVE('',#322,#338,#73,.T.);
#417=EDGE_CURVE('',#338,#338,#277,.T.);
#418=EDGE_CURVE('',#339,#340,#15,.T.);
#419=EDGE_CURVE('',#339,#341,#74,.T.);
#420=EDGE_CURVE('',#341,#342,#75,.T.);
#421=EDGE_CURVE('',#340,#342,#76,.T.);
#422=EDGE_CURVE('',#340,#343,#278,.T.);
#423=EDGE_CURVE('',#342,#344,#77,.T.);
#424=EDGE_CURVE('',#343,#344,#78,.T.);
#425=EDGE_CURVE('',#343,#345,#16,.T.);
#426=EDGE_CURVE('',#344,#346,#79,.T.);
#427=EDGE_CURVE('',#345,#346,#80,.T.);
#428=EDGE_CURVE('',#345,#347,#17,.T.);
#429=EDGE_CURVE('',#346,#348,#81,.T.);
#430=EDGE_CURVE('',#348,#347,#82,.T.);
#431=EDGE_CURVE('',#349,#339,#18,.T.);
#432=EDGE_CURVE('',#349,#350,#83,.T.);
#433=EDGE_CURVE('',#350,#341,#84,.T.);
#434=EDGE_CURVE('',#347,#349,#279,.T.);
#435=EDGE_CURVE('',#348,#350,#85,.T.);
#436=EDGE_CURVE('',#351,#352,#86,.T.);
#437=EDGE_CURVE('',#353,#351,#280,.T.);
#438=EDGE_CURVE('',#354,#353,#87,.T.);
#439=EDGE_CURVE('',#352,#354,#281,.T.);
#440=EDGE_CURVE('',#353,#306,#88,.T.);
#441=EDGE_CURVE('',#354,#305,#89,.T.);
#442=EDGE_CURVE('',#307,#351,#90,.T.);
#443=EDGE_CURVE('',#352,#308,#91,.T.);
#444=EDGE_CURVE('',#355,#318,#92,.T.);
#445=EDGE_CURVE('',#356,#355,#93,.T.);
#446=EDGE_CURVE('',#312,#356,#94,.T.);
#447=EDGE_CURVE('',#357,#313,#95,.T.);
#448=EDGE_CURVE('',#358,#357,#96,.T.);
#449=EDGE_CURVE('',#317,#358,#97,.T.);
#450=EDGE_CURVE('',#357,#356,#282,.T.);
#451=EDGE_CURVE('',#358,#355,#283,.T.);
#452=ORIENTED_EDGE('',*,*,#359,.T.);
#453=ORIENTED_EDGE('',*,*,#360,.T.);
#454=ORIENTED_EDGE('',*,*,#361,.F.);
#455=ORIENTED_EDGE('',*,*,#362,.F.);
#456=ORIENTED_EDGE('',*,*,#360,.F.);
#457=ORIENTED_EDGE('',*,*,#363,.F.);
#458=ORIENTED_EDGE('',*,*,#364,.F.);
#459=ORIENTED_EDGE('',*,*,#365,.T.);
#460=ORIENTED_EDGE('',*,*,#366,.F.);
#461=ORIENTED_EDGE('',*,*,#367,.T.);
#462=ORIENTED_EDGE('',*,*,#368,.F.);
#463=ORIENTED_EDGE('',*,*,#369,.T.);
#464=ORIENTED_EDGE('',*,*,#370,.T.);
#465=ORIENTED_EDGE('',*,*,#371,.T.);
#466=ORIENTED_EDGE('',*,*,#372,.T.);
#467=ORIENTED_EDGE('',*,*,#373,.T.);
#468=ORIENTED_EDGE('',*,*,#365,.F.);
#469=ORIENTED_EDGE('',*,*,#374,.F.);
#470=ORIENTED_EDGE('',*,*,#375,.F.);
#471=ORIENTED_EDGE('',*,*,#366,.T.);
#472=ORIENTED_EDGE('',*,*,#375,.T.);
#473=ORIENTED_EDGE('',*,*,#376,.F.);
#474=ORIENTED_EDGE('',*,*,#377,.T.);
#475=ORIENTED_EDGE('',*,*,#367,.F.);
#476=ORIENTED_EDGE('',*,*,#377,.F.);
#477=ORIENTED_EDGE('',*,*,#378,.F.);
#478=ORIENTED_EDGE('',*,*,#378,.T.);
#479=ORIENTED_EDGE('',*,*,#376,.T.);
#480=ORIENTED_EDGE('',*,*,#374,.T.);
#481=ORIENTED_EDGE('',*,*,#364,.T.);
#482=ORIENTED_EDGE('',*,*,#379,.T.);
#483=ORIENTED_EDGE('',*,*,#380,.T.);
#484=ORIENTED_EDGE('',*,*,#381,.F.);
#485=ORIENTED_EDGE('',*,*,#382,.T.);
#486=ORIENTED_EDGE('',*,*,#383,.T.);
#487=ORIENTED_EDGE('',*,*,#368,.T.);
#488=ORIENTED_EDGE('',*,*,#384,.F.);
#489=ORIENTED_EDGE('',*,*,#385,.F.);
#490=ORIENTED_EDGE('',*,*,#379,.F.);
#491=ORIENTED_EDGE('',*,*,#363,.T.);
#492=ORIENTED_EDGE('',*,*,#359,.F.);
#493=ORIENTED_EDGE('',*,*,#362,.T.);
#494=ORIENTED_EDGE('',*,*,#361,.T.);
#495=ORIENTED_EDGE('',*,*,#369,.F.);
#496=ORIENTED_EDGE('',*,*,#383,.F.);
#497=ORIENTED_EDGE('',*,*,#386,.F.);
#498=ORIENTED_EDGE('',*,*,#384,.T.);
#499=ORIENTED_EDGE('',*,*,#387,.T.);
#500=ORIENTED_EDGE('',*,*,#388,.T.);
#501=ORIENTED_EDGE('',*,*,#389,.T.);
#502=ORIENTED_EDGE('',*,*,#390,.T.);
#503=ORIENTED_EDGE('',*,*,#391,.T.);
#504=ORIENTED_EDGE('',*,*,#392,.F.);
#505=ORIENTED_EDGE('',*,*,#393,.F.);
#506=ORIENTED_EDGE('',*,*,#391,.F.);
#507=ORIENTED_EDGE('',*,*,#390,.F.);
#508=ORIENTED_EDGE('',*,*,#394,.F.);
#509=ORIENTED_EDGE('',*,*,#395,.T.);
#510=ORIENTED_EDGE('',*,*,#396,.T.);
#511=ORIENTED_EDGE('',*,*,#397,.F.);
#512=ORIENTED_EDGE('',*,*,#398,.F.);
#513=ORIENTED_EDGE('',*,*,#396,.F.);
#514=ORIENTED_EDGE('',*,*,#395,.F.);
#515=ORIENTED_EDGE('',*,*,#399,.F.);
#516=ORIENTED_EDGE('',*,*,#400,.T.);
#517=ORIENTED_EDGE('',*,*,#401,.T.);
#518=ORIENTED_EDGE('',*,*,#402,.F.);
#519=ORIENTED_EDGE('',*,*,#403,.F.);
#520=ORIENTED_EDGE('',*,*,#401,.F.);
#521=ORIENTED_EDGE('',*,*,#400,.F.);
#522=ORIENTED_EDGE('',*,*,#404,.F.);
#523=ORIENTED_EDGE('',*,*,#405,.T.);
#524=ORIENTED_EDGE('',*,*,#406,.T.);
#525=ORIENTED_EDGE('',*,*,#407,.F.);
#526=ORIENTED_EDGE('',*,*,#408,.F.);
#527=ORIENTED_EDGE('',*,*,#406,.F.);
#528=ORIENTED_EDGE('',*,*,#405,.F.);
#529=ORIENTED_EDGE('',*,*,#409,.F.);
#530=ORIENTED_EDGE('',*,*,#404,.T.);
#531=ORIENTED_EDGE('',*,*,#410,.T.);
#532=ORIENTED_EDGE('',*,*,#411,.F.);
#533=ORIENTED_EDGE('',*,*,#410,.F.);
#534=ORIENTED_EDGE('',*,*,#399,.T.);
#535=ORIENTED_EDGE('',*,*,#412,.T.);
#536=ORIENTED_EDGE('',*,*,#413,.F.);
#537=ORIENTED_EDGE('',*,*,#412,.F.);
#538=ORIENTED_EDGE('',*,*,#409,.T.);
#539=ORIENTED_EDGE('',*,*,#414,.T.);
#540=ORIENTED_EDGE('',*,*,#415,.F.);
#541=ORIENTED_EDGE('',*,*,#414,.F.);
#542=ORIENTED_EDGE('',*,*,#394,.T.);
#543=ORIENTED_EDGE('',*,*,#416,.T.);
#544=ORIENTED_EDGE('',*,*,#417,.F.);
#545=ORIENTED_EDGE('',*,*,#416,.F.);
#546=ORIENTED_EDGE('',*,*,#418,.F.);
#547=ORIENTED_EDGE('',*,*,#419,.T.);
#548=ORIENTED_EDGE('',*,*,#420,.T.);
#549=ORIENTED_EDGE('',*,*,#421,.F.);
#550=ORIENTED_EDGE('',*,*,#422,.F.);
#551=ORIENTED_EDGE('',*,*,#421,.T.);
#552=ORIENTED_EDGE('',*,*,#423,.T.);
#553=ORIENTED_EDGE('',*,*,#424,.F.);
#554=ORIENTED_EDGE('',*,*,#425,.F.);
#555=ORIENTED_EDGE('',*,*,#424,.T.);
#556=ORIENTED_EDGE('',*,*,#426,.T.);
#557=ORIENTED_EDGE('',*,*,#427,.F.);
#558=ORIENTED_EDGE('',*,*,#428,.F.);
#559=ORIENTED_EDGE('',*,*,#427,.T.);
#560=ORIENTED_EDGE('',*,*,#429,.T.);
#561=ORIENTED_EDGE('',*,*,#430,.T.);
#562=ORIENTED_EDGE('',*,*,#431,.F.);
#563=ORIENTED_EDGE('',*,*,#432,.T.);
#564=ORIENTED_EDGE('',*,*,#433,.T.);
#565=ORIENTED_EDGE('',*,*,#419,.F.);
#566=ORIENTED_EDGE('',*,*,#434,.F.);
#567=ORIENTED_EDGE('',*,*,#430,.F.);
#568=ORIENTED_EDGE('',*,*,#435,.T.);
#569=ORIENTED_EDGE('',*,*,#432,.F.);
#570=ORIENTED_EDGE('',*,*,#435,.F.);
#571=ORIENTED_EDGE('',*,*,#429,.F.);
#572=ORIENTED_EDGE('',*,*,#426,.F.);
#573=ORIENTED_EDGE('',*,*,#423,.F.);
#574=ORIENTED_EDGE('',*,*,#420,.F.);
#575=ORIENTED_EDGE('',*,*,#433,.F.);
#576=ORIENTED_EDGE('',*,*,#436,.F.);
#577=ORIENTED_EDGE('',*,*,#437,.F.);
#578=ORIENTED_EDGE('',*,*,#438,.F.);
#579=ORIENTED_EDGE('',*,*,#439,.F.);
#580=ORIENTED_EDGE('',*,*,#438,.T.);
#581=ORIENTED_EDGE('',*,*,#440,.T.);
#582=ORIENTED_EDGE('',*,*,#370,.F.);
#583=ORIENTED_EDGE('',*,*,#441,.F.);
#584=ORIENTED_EDGE('',*,*,#437,.T.);
#585=ORIENTED_EDGE('',*,*,#442,.F.);
#586=ORIENTED_EDGE('',*,*,#371,.F.);
#587=ORIENTED_EDGE('',*,*,#440,.F.);
#588=ORIENTED_EDGE('',*,*,#436,.T.);
#589=ORIENTED_EDGE('',*,*,#443,.T.);
#590=ORIENTED_EDGE('',*,*,#372,.F.);
#591=ORIENTED_EDGE('',*,*,#442,.T.);
#592=ORIENTED_EDGE('',*,*,#439,.T.);
#593=ORIENTED_EDGE('',*,*,#441,.T.);
#594=ORIENTED_EDGE('',*,*,#373,.F.);
#595=ORIENTED_EDGE('',*,*,#443,.F.);
#596=ORIENTED_EDGE('',*,*,#385,.T.);
#597=ORIENTED_EDGE('',*,*,#389,.F.);
#598=ORIENTED_EDGE('',*,*,#444,.F.);
#599=ORIENTED_EDGE('',*,*,#445,.F.);
#600=ORIENTED_EDGE('',*,*,#446,.F.);
#601=ORIENTED_EDGE('',*,*,#380,.F.);
#602=ORIENTED_EDGE('',*,*,#411,.T.);
#603=ORIENTED_EDGE('',*,*,#413,.T.);
#604=ORIENTED_EDGE('',*,*,#386,.T.);
#605=ORIENTED_EDGE('',*,*,#382,.F.);
#606=ORIENTED_EDGE('',*,*,#447,.F.);
#607=ORIENTED_EDGE('',*,*,#448,.F.);
#608=ORIENTED_EDGE('',*,*,#449,.F.);
#609=ORIENTED_EDGE('',*,*,#387,.F.);
#610=ORIENTED_EDGE('',*,*,#415,.T.);
#611=ORIENTED_EDGE('',*,*,#417,.T.);
#612=ORIENTED_EDGE('',*,*,#447,.T.);
#613=ORIENTED_EDGE('',*,*,#381,.T.);
#614=ORIENTED_EDGE('',*,*,#446,.T.);
#615=ORIENTED_EDGE('',*,*,#450,.F.);
#616=ORIENTED_EDGE('',*,*,#392,.T.);
#617=ORIENTED_EDGE('',*,*,#393,.T.);
#618=ORIENTED_EDGE('',*,*,#397,.T.);
#619=ORIENTED_EDGE('',*,*,#398,.T.);
#620=ORIENTED_EDGE('',*,*,#402,.T.);
#621=ORIENTED_EDGE('',*,*,#403,.T.);
#622=ORIENTED_EDGE('',*,*,#407,.T.);
#623=ORIENTED_EDGE('',*,*,#408,.T.);
#624=ORIENTED_EDGE('',*,*,#428,.T.);
#625=ORIENTED_EDGE('',*,*,#434,.T.);
#626=ORIENTED_EDGE('',*,*,#431,.T.);
#627=ORIENTED_EDGE('',*,*,#418,.T.);
#628=ORIENTED_EDGE('',*,*,#422,.T.);
#629=ORIENTED_EDGE('',*,*,#425,.T.);
#630=ORIENTED_EDGE('',*,*,#448,.T.);
#631=ORIENTED_EDGE('',*,*,#450,.T.);
#632=ORIENTED_EDGE('',*,*,#445,.T.);
#633=ORIENTED_EDGE('',*,*,#451,.F.);
#634=ORIENTED_EDGE('',*,*,#449,.T.);
#635=ORIENTED_EDGE('',*,*,#451,.T.);
#636=ORIENTED_EDGE('',*,*,#444,.T.);
#637=ORIENTED_EDGE('',*,*,#388,.F.);
#638=B_SPLINE_SURFACE_WITH_KNOTS('',3,3,((#943,#944,#945,#946,#947,#948,
#949,#950,#951,#952,#953,#954),(#955,#956,#957,#958,#959,#960,#961,#962,
#963,#964,#965,#966),(#967,#968,#969,#970,#971,#972,#973,#974,#975,#976,
#977,#978),(#979,#980,#981,#982,#983,#984,#985,#986,#987,#988,#989,#990),
(#991,#992,#993,#994,#995,#996,#997,#998,#999,#1000,#1001,#1002)),
 .UNSPECIFIED.,.F.,.F.,.F.,(4,1,4),(4,1,1,1,1,1,1,1,1,4),(0.,0.571428571428571,
1.),(-2.40669861890286,-2.33793218792771,-2.26916575695257,-2.13163289500228,
-1.994100033052,-1.85656717110171,-1.71903430915143,-1.58150144720114,-1.512735016226,
-1.44396858525086),.UNSPECIFIED.);
#639=ADVANCED_FACE('',(#169),#638,.F.);
#640=ADVANCED_FACE('',(#170,#33),#148,.T.);
#641=ADVANCED_FACE('',(#171),#149,.T.);
#642=ADVANCED_FACE('',(#172),#19,.T.);
#643=ADVANCED_FACE('',(#173),#150,.F.);
#644=ADVANCED_FACE('',(#174),#151,.T.);
#645=ADVANCED_FACE('',(#175),#20,.F.);
#646=ADVANCED_FACE('',(#176),#152,.T.);
#647=ADVANCED_FACE('',(#177),#21,.F.);
#648=ADVANCED_FACE('',(#178,#34),#153,.F.);
#649=ADVANCED_FACE('',(#179),#22,.F.);
#650=ADVANCED_FACE('',(#180,#35),#154,.F.);
#651=ADVANCED_FACE('',(#181),#23,.F.);
#652=ADVANCED_FACE('',(#182,#36),#155,.F.);
#653=ADVANCED_FACE('',(#183),#24,.F.);
#654=ADVANCED_FACE('',(#184,#37),#156,.F.);
#655=ADVANCED_FACE('',(#185),#25,.F.);
#656=ADVANCED_FACE('',(#186),#26,.F.);
#657=ADVANCED_FACE('',(#187),#27,.F.);
#658=ADVANCED_FACE('',(#188),#28,.F.);
#659=ADVANCED_FACE('',(#189),#157,.F.);
#660=ADVANCED_FACE('',(#190),#158,.F.);
#661=ADVANCED_FACE('',(#191),#159,.F.);
#662=ADVANCED_FACE('',(#192),#160,.F.);
#663=ADVANCED_FACE('',(#193),#161,.F.);
#664=ADVANCED_FACE('',(#194),#162,.F.);
#665=ADVANCED_FACE('',(#195,#38),#163,.F.);
#666=ADVANCED_FACE('',(#196),#164,.F.);
#667=ADVANCED_FACE('',(#197),#29,.F.);
#668=ADVANCED_FACE('',(#198),#165,.F.);
#669=ADVANCED_FACE('',(#199),#30,.F.);
#670=ADVANCED_FACE('',(#200,#39,#40),#166,.F.);
#671=ADVANCED_FACE('',(#201,#41,#42),#167,.F.);
#672=ADVANCED_FACE('',(#202,#43,#44,#45,#46,#47),#31,.T.);
#673=ADVANCED_FACE('',(#203),#168,.T.);
#674=ADVANCED_FACE('',(#204),#32,.T.);
#675=CLOSED_SHELL('',(#639,#640,#641,#642,#643,#644,#645,#646,#647,#648,
#649,#650,#651,#652,#653,#654,#655,#656,#657,#658,#659,#660,#661,#662,#663,
#664,#665,#666,#667,#668,#669,#670,#671,#672,#673,#674));
#676=DERIVED_UNIT_ELEMENT(#678,1.);
#677=DERIVED_UNIT_ELEMENT(#1405,-3.);
#678=(
MASS_UNIT()
NAMED_UNIT(*)
SI_UNIT(.KILO.,.GRAM.)
);
#679=DERIVED_UNIT((#676,#677));
#680=MEASURE_REPRESENTATION_ITEM('density measure',
POSITIVE_RATIO_MEASURE(7850.),#679);
#681=PROPERTY_DEFINITION_REPRESENTATION(#686,#683);
#682=PROPERTY_DEFINITION_REPRESENTATION(#687,#684);
#683=REPRESENTATION('material name',(#685),#1402);
#684=REPRESENTATION('density',(#680),#1402);
#685=DESCRIPTIVE_REPRESENTATION_ITEM('Steel','Steel');
#686=PROPERTY_DEFINITION('material property','material name',#1412);
#687=PROPERTY_DEFINITION('material property','density of part',#1412);
#688=AXIS2_PLACEMENT_3D('',#942,#756,#757);
#689=AXIS2_PLACEMENT_3D('',#1063,#758,#759);
#690=AXIS2_PLACEMENT_3D('',#1064,#760,#761);
#691=AXIS2_PLACEMENT_3D('',#1082,#770,#771);
#692=AXIS2_PLACEMENT_3D('',#1085,#773,#774);
#693=AXIS2_PLACEMENT_3D('',#1086,#775,#776);
#694=AXIS2_PLACEMENT_3D('',#1089,#778,#779);
#695=AXIS2_PLACEMENT_3D('',#1090,#780,#781);
#696=AXIS2_PLACEMENT_3D('',#1093,#783,#784);
#697=AXIS2_PLACEMENT_3D('',#1094,#785,#786);
#698=AXIS2_PLACEMENT_3D('',#1096,#788,#789);
#699=AXIS2_PLACEMENT_3D('',#1098,#790,#791);
#700=AXIS2_PLACEMENT_3D('',#1102,#793,#794);
#701=AXIS2_PLACEMENT_3D('',#1105,#796,#797);
#702=AXIS2_PLACEMENT_3D('',#1106,#798,#799);
#703=AXIS2_PLACEMENT_3D('',#1109,#800,#801);
#704=AXIS2_PLACEMENT_3D('',#1112,#804,#805);
#705=AXIS2_PLACEMENT_3D('',#1116,#807,#808);
#706=AXIS2_PLACEMENT_3D('',#1118,#810,#811);
#707=AXIS2_PLACEMENT_3D('',#1120,#812,#813);
#708=AXIS2_PLACEMENT_3D('',#1164,#815,#816);
#709=AXIS2_PLACEMENT_3D('',#1166,#817,#818);
#710=AXIS2_PLACEMENT_3D('',#1167,#819,#820);
#711=AXIS2_PLACEMENT_3D('',#1169,#821,#822);
#712=AXIS2_PLACEMENT_3D('',#1213,#824,#825);
#713=AXIS2_PLACEMENT_3D('',#1215,#826,#827);
#714=AXIS2_PLACEMENT_3D('',#1216,#828,#829);
#715=AXIS2_PLACEMENT_3D('',#1218,#830,#831);
#716=AXIS2_PLACEMENT_3D('',#1262,#833,#834);
#717=AXIS2_PLACEMENT_3D('',#1264,#835,#836);
#718=AXIS2_PLACEMENT_3D('',#1265,#837,#838);
#719=AXIS2_PLACEMENT_3D('',#1267,#839,#840);
#720=AXIS2_PLACEMENT_3D('',#1311,#842,#843);
#721=AXIS2_PLACEMENT_3D('',#1313,#844,#845);
#722=AXIS2_PLACEMENT_3D('',#1314,#846,#847);
#723=AXIS2_PLACEMENT_3D('',#1317,#849,#850);
#724=AXIS2_PLACEMENT_3D('',#1318,#851,#852);
#725=AXIS2_PLACEMENT_3D('',#1321,#854,#855);
#726=AXIS2_PLACEMENT_3D('',#1322,#856,#857);
#727=AXIS2_PLACEMENT_3D('',#1325,#859,#860);
#728=AXIS2_PLACEMENT_3D('',#1326,#861,#862);
#729=AXIS2_PLACEMENT_3D('',#1329,#864,#865);
#730=AXIS2_PLACEMENT_3D('',#1330,#866,#867);
#731=AXIS2_PLACEMENT_3D('',#1333,#868,#869);
#732=AXIS2_PLACEMENT_3D('',#1339,#873,#874);
#733=AXIS2_PLACEMENT_3D('',#1341,#875,#876);
#734=AXIS2_PLACEMENT_3D('',#1345,#879,#880);
#735=AXIS2_PLACEMENT_3D('',#1347,#881,#882);
#736=AXIS2_PLACEMENT_3D('',#1351,#885,#886);
#737=AXIS2_PLACEMENT_3D('',#1353,#887,#888);
#738=AXIS2_PLACEMENT_3D('',#1357,#891,#892);
#739=AXIS2_PLACEMENT_3D('',#1359,#893,#894);
#740=AXIS2_PLACEMENT_3D('',#1363,#897,#898);
#741=AXIS2_PLACEMENT_3D('',#1364,#899,#900);
#742=AXIS2_PLACEMENT_3D('',#1366,#902,#903);
#743=AXIS2_PLACEMENT_3D('',#1371,#905,#906);
#744=AXIS2_PLACEMENT_3D('',#1374,#908,#909);
#745=AXIS2_PLACEMENT_3D('',#1375,#910,#911);
#746=AXIS2_PLACEMENT_3D('',#1378,#914,#915);
#747=AXIS2_PLACEMENT_3D('',#1380,#917,#918);
#748=AXIS2_PLACEMENT_3D('',#1382,#920,#921);
#749=AXIS2_PLACEMENT_3D('',#1383,#922,#923);
#750=AXIS2_PLACEMENT_3D('',#1389,#927,#928);
#751=AXIS2_PLACEMENT_3D('',#1395,#932,#933);
#752=AXIS2_PLACEMENT_3D('',#1396,#934,#935);
#753=AXIS2_PLACEMENT_3D('',#1397,#936,#937);
#754=AXIS2_PLACEMENT_3D('',#1398,#938,#939);
#755=AXIS2_PLACEMENT_3D('',#1399,#940,#941);
#756=DIRECTION('axis',(0.,0.,1.));
#757=DIRECTION('refdir',(1.,0.,0.));
#758=DIRECTION('center_axis',(1.,5.59245160967005E-14,0.));
#759=DIRECTION('ref_axis',(0.,0.,1.));
#760=DIRECTION('center_axis',(0.,0.,1.));
#761=DIRECTION('ref_axis',(-5.59245160967005E-14,1.,0.));
#762=DIRECTION('',(-1.,-5.59274848654922E-14,0.));
#763=DIRECTION('',(5.59245160967005E-14,-1.,0.));
#764=DIRECTION('',(-1.,0.,0.));
#765=DIRECTION('',(0.,-1.,0.));
#766=DIRECTION('',(1.,0.,0.));
#767=DIRECTION('',(5.59245160967005E-14,-1.,0.));
#768=DIRECTION('',(-1.,-5.59274848654922E-14,0.));
#769=DIRECTION('',(0.,1.,0.));
#770=DIRECTION('center_axis',(0.,0.,-1.));
#771=DIRECTION('ref_axis',(1.,0.,0.));
#772=DIRECTION('',(0.,-1.,0.));
#773=DIRECTION('center_axis',(0.,0.,-1.));
#774=DIRECTION('ref_axis',(-1.,0.,0.));
#775=DIRECTION('center_axis',(0.,1.,0.));
#776=DIRECTION('ref_axis',(1.,0.,0.));
#777=DIRECTION('',(0.,0.,1.));
#778=DIRECTION('center_axis',(0.,1.,0.));
#779=DIRECTION('ref_axis',(1.,0.,0.));
#780=DIRECTION('center_axis',(0.,1.,0.));
#781=DIRECTION('ref_axis',(1.,0.,0.));
#782=DIRECTION('',(0.,-1.,0.));
#783=DIRECTION('center_axis',(0.,-1.,0.));
#784=DIRECTION('ref_axis',(1.,0.,0.));
#785=DIRECTION('center_axis',(0.,1.,0.));
#786=DIRECTION('ref_axis',(1.,0.,0.));
#787=DIRECTION('',(0.,0.,-1.));
#788=DIRECTION('center_axis',(1.,5.59245160967005E-14,0.));
#789=DIRECTION('ref_axis',(0.,0.,-1.));
#790=DIRECTION('center_axis',(-1.,-5.59245160967005E-14,0.));
#791=DIRECTION('ref_axis',(0.,0.,-1.));
#792=DIRECTION('',(5.59245160967005E-14,-1.,0.));
#793=DIRECTION('center_axis',(-1.,-5.59245160967005E-14,0.));
#794=DIRECTION('ref_axis',(0.,0.,1.));
#795=DIRECTION('',(5.59245160967005E-14,-1.,0.));
#796=DIRECTION('center_axis',(-1.,-5.59245160967005E-14,0.));
#797=DIRECTION('ref_axis',(0.,0.,-1.));
#798=DIRECTION('center_axis',(-1.,-5.59274848654922E-14,0.));
#799=DIRECTION('ref_axis',(0.,0.,-1.));
#800=DIRECTION('center_axis',(1.,5.59245160967005E-14,0.));
#801=DIRECTION('ref_axis',(0.,0.,-1.));
#802=DIRECTION('',(-1.,-5.59274848654922E-14,0.));
#803=DIRECTION('',(1.,5.59274848654922E-14,0.));
#804=DIRECTION('center_axis',(-1.,-5.59245160967005E-14,0.));
#805=DIRECTION('ref_axis',(0.,0.,1.));
#806=DIRECTION('',(-5.59245160967005E-14,1.,0.));
#807=DIRECTION('center_axis',(-1.,-5.59245160967005E-14,0.));
#808=DIRECTION('ref_axis',(0.,0.,1.));
#809=DIRECTION('',(-5.59245160967005E-14,1.,0.));
#810=DIRECTION('center_axis',(0.,0.,-1.));
#811=DIRECTION('ref_axis',(1.,0.,0.));
#812=DIRECTION('center_axis',(0.,0.,1.));
#813=DIRECTION('ref_axis',(1.,0.,0.));
#814=DIRECTION('',(0.,0.,-1.));
#815=DIRECTION('center_axis',(0.,0.,1.));
#816=DIRECTION('ref_axis',(1.,0.,0.));
#817=DIRECTION('center_axis',(0.,0.,-1.));
#818=DIRECTION('ref_axis',(1.,0.,0.));
#819=DIRECTION('center_axis',(0.,0.,-1.));
#820=DIRECTION('ref_axis',(1.,0.,0.));
#821=DIRECTION('center_axis',(0.,0.,1.));
#822=DIRECTION('ref_axis',(1.,0.,0.));
#823=DIRECTION('',(0.,0.,-1.));
#824=DIRECTION('center_axis',(0.,0.,1.));
#825=DIRECTION('ref_axis',(1.,0.,0.));
#826=DIRECTION('center_axis',(0.,0.,-1.));
#827=DIRECTION('ref_axis',(1.,0.,0.));
#828=DIRECTION('center_axis',(0.,0.,-1.));
#829=DIRECTION('ref_axis',(1.,0.,0.));
#830=DIRECTION('center_axis',(0.,0.,1.));
#831=DIRECTION('ref_axis',(1.,0.,0.));
#832=DIRECTION('',(0.,0.,-1.));
#833=DIRECTION('center_axis',(0.,0.,1.));
#834=DIRECTION('ref_axis',(1.,0.,0.));
#835=DIRECTION('center_axis',(0.,0.,-1.));
#836=DIRECTION('ref_axis',(1.,0.,0.));
#837=DIRECTION('center_axis',(0.,0.,-1.));
#838=DIRECTION('ref_axis',(1.,0.,0.));
#839=DIRECTION('center_axis',(0.,0.,1.));
#840=DIRECTION('ref_axis',(1.,0.,0.));
#841=DIRECTION('',(0.,0.,-1.));
#842=DIRECTION('center_axis',(0.,0.,1.));
#843=DIRECTION('ref_axis',(1.,0.,0.));
#844=DIRECTION('center_axis',(0.,0.,-1.));
#845=DIRECTION('ref_axis',(1.,0.,0.));
#846=DIRECTION('center_axis',(0.,0.,1.));
#847=DIRECTION('ref_axis',(1.,0.,0.));
#848=DIRECTION('',(0.,0.,1.));
#849=DIRECTION('center_axis',(0.,0.,-1.));
#850=DIRECTION('ref_axis',(1.,0.,0.));
#851=DIRECTION('center_axis',(0.,0.,1.));
#852=DIRECTION('ref_axis',(1.,0.,0.));
#853=DIRECTION('',(0.,0.,1.));
#854=DIRECTION('center_axis',(0.,0.,-1.));
#855=DIRECTION('ref_axis',(1.,0.,0.));
#856=DIRECTION('center_axis',(0.,0.,1.));
#857=DIRECTION('ref_axis',(1.,0.,0.));
#858=DIRECTION('',(0.,0.,1.));
#859=DIRECTION('center_axis',(0.,0.,-1.));
#860=DIRECTION('ref_axis',(1.,0.,0.));
#861=DIRECTION('center_axis',(0.,0.,1.));
#862=DIRECTION('ref_axis',(1.,0.,0.));
#863=DIRECTION('',(0.,0.,1.));
#864=DIRECTION('center_axis',(0.,0.,-1.));
#865=DIRECTION('ref_axis',(1.,0.,0.));
#866=DIRECTION('center_axis',(0.500035410876815,-0.866004958339878,0.));
#867=DIRECTION('ref_axis',(0.866004958339878,0.500035410876815,0.));
#868=DIRECTION('center_axis',(0.500035410876815,-0.866004958339878,0.));
#869=DIRECTION('ref_axis',(-0.866004958339878,-0.500035410876815,0.));
#870=DIRECTION('',(0.,0.,1.));
#871=DIRECTION('',(0.866004958339878,0.500035410876815,0.));
#872=DIRECTION('',(0.,0.,1.));
#873=DIRECTION('center_axis',(1.,-1.16085282415362E-9,0.));
#874=DIRECTION('ref_axis',(1.16085282415362E-9,1.,0.));
#875=DIRECTION('center_axis',(1.,-1.16085282415362E-9,0.));
#876=DIRECTION('ref_axis',(-1.16085282415362E-9,-1.,0.));
#877=DIRECTION('',(1.16085282415362E-9,1.,0.));
#878=DIRECTION('',(0.,0.,1.));
#879=DIRECTION('center_axis',(0.50003541213624,0.866004957612681,0.));
#880=DIRECTION('ref_axis',(-0.866004957612681,0.50003541213624,0.));
#881=DIRECTION('center_axis',(0.50003541213624,0.866004957612681,0.));
#882=DIRECTION('ref_axis',(0.866004957612681,-0.50003541213624,0.));
#883=DIRECTION('',(-0.866004957612681,0.50003541213624,0.));
#884=DIRECTION('',(0.,0.,1.));
#885=DIRECTION('center_axis',(-0.499964587027727,0.866045848508146,0.));
#886=DIRECTION('ref_axis',(-0.866045848508146,-0.499964587027727,0.));
#887=DIRECTION('center_axis',(-0.499964587027727,0.866045848508146,0.));
#888=DIRECTION('ref_axis',(-0.866045848508146,-0.499964587027727,0.));
#889=DIRECTION('',(-0.866045848508146,-0.499964587027727,0.));
#890=DIRECTION('',(0.,0.,-1.));
#891=DIRECTION('center_axis',(-0.49996458828721,-0.866045847781052,0.));
#892=DIRECTION('ref_axis',(0.866045847781052,-0.49996458828721,0.));
#893=DIRECTION('center_axis',(-0.49996458828721,-0.866045847781052,0.));
#894=DIRECTION('ref_axis',(0.866045847781052,-0.49996458828721,0.));
#895=DIRECTION('',(0.,0.,1.));
#896=DIRECTION('',(0.866045847781052,-0.49996458828721,0.));
#897=DIRECTION('center_axis',(-1.,4.40437760595843E-15,0.));
#898=DIRECTION('ref_axis',(-4.40437760595843E-15,-1.,0.));
#899=DIRECTION('center_axis',(-1.,4.40437760595843E-15,0.));
#900=DIRECTION('ref_axis',(5.59552404411076E-14,-1.,0.));
#901=DIRECTION('',(-4.40437760595843E-15,-1.,0.));
#902=DIRECTION('center_axis',(0.,0.,1.));
#903=DIRECTION('ref_axis',(1.,0.,0.));
#904=DIRECTION('',(0.,-1.,0.));
#905=DIRECTION('center_axis',(0.,0.,-1.));
#906=DIRECTION('ref_axis',(1.,0.,0.));
#907=DIRECTION('',(0.,1.,0.));
#908=DIRECTION('center_axis',(0.,0.,-1.));
#909=DIRECTION('ref_axis',(-1.,0.,0.));
#910=DIRECTION('center_axis',(-1.,0.,0.));
#911=DIRECTION('ref_axis',(0.,1.,0.));
#912=DIRECTION('',(0.,0.,1.));
#913=DIRECTION('',(0.,0.,1.));
#914=DIRECTION('center_axis',(0.,0.,-1.));
#915=DIRECTION('ref_axis',(1.,0.,0.));
#916=DIRECTION('',(0.,0.,-1.));
#917=DIRECTION('center_axis',(1.,0.,0.));
#918=DIRECTION('ref_axis',(0.,-1.,0.));
#919=DIRECTION('',(0.,0.,1.));
#920=DIRECTION('center_axis',(0.,0.,-1.));
#921=DIRECTION('ref_axis',(-1.,0.,0.));
#922=DIRECTION('center_axis',(0.,0.,-1.));
#923=DIRECTION('ref_axis',(5.59245160967005E-14,-1.,0.));
#924=DIRECTION('',(-1.,-5.59245160967005E-14,0.));
#925=DIRECTION('',(-5.59245160967005E-14,1.,0.));
#926=DIRECTION('',(-1.,-5.59245160967005E-14,0.));
#927=DIRECTION('center_axis',(0.,0.,-1.));
#928=DIRECTION('ref_axis',(5.59245160967005E-14,-1.,0.));
#929=DIRECTION('',(1.,5.59245160967005E-14,0.));
#930=DIRECTION('',(-5.59245160967005E-14,1.,0.));
#931=DIRECTION('',(1.,5.59245160967005E-14,0.));
#932=DIRECTION('center_axis',(-1.,-5.59245160967005E-14,0.));
#933=DIRECTION('ref_axis',(5.59552404411076E-14,-1.,0.));
#934=DIRECTION('center_axis',(-1.,-5.59245160967005E-14,0.));
#935=DIRECTION('ref_axis',(0.,0.,1.));
#936=DIRECTION('center_axis',(-1.,-5.59245160967005E-14,0.));
#937=DIRECTION('ref_axis',(0.,0.,1.));
#938=DIRECTION('center_axis',(-1.,-5.59245160967005E-14,0.));
#939=DIRECTION('ref_axis',(0.,0.,1.));
#940=DIRECTION('center_axis',(-1.,-5.59245160967005E-14,0.));
#941=DIRECTION('ref_axis',(5.59552404411076E-14,-1.,0.));
#942=CARTESIAN_POINT('',(0.,0.,0.));
#943=CARTESIAN_POINT('Ctrl Pts',(69.049999999999,2.63062602420111,-3.07933913446383));
#944=CARTESIAN_POINT('Ctrl Pts',(69.049999999999,2.63062203483595,-3.07933884297521));
#945=CARTESIAN_POINT('Ctrl Pts',(69.049999999999,2.58182215514215,-3.12194056921695));
#946=CARTESIAN_POINT('Ctrl Pts',(69.049999999999,2.31264229022573,-3.33567252038441));
#947=CARTESIAN_POINT('Ctrl Pts',(69.049999999999,1.7110021693599,-3.71637528877264));
#948=CARTESIAN_POINT('Ctrl Pts',(69.0499999999991,0.627168028871318,-4.06448897012362));
#949=CARTESIAN_POINT('Ctrl Pts',(69.0499999999992,-0.628546934533636,-4.06231514191116));
#950=CARTESIAN_POINT('Ctrl Pts',(69.0499999999992,-1.71341841270755,-3.71596471854661));
#951=CARTESIAN_POINT('Ctrl Pts',(69.0499999999993,-2.31303097915099,-3.33483408261589));
#952=CARTESIAN_POINT('Ctrl Pts',(69.0499999999993,-2.58202048694747,-3.12190606545858));
#953=CARTESIAN_POINT('Ctrl Pts',(69.0499999999993,-2.63062203482823,-3.07933884297521));
#954=CARTESIAN_POINT('Ctrl Pts',(69.0499999999993,-2.63062602419339,-3.07933913446383));
#955=CARTESIAN_POINT('Ctrl Pts',(69.049999999999,2.8353969941259,-2.90440339495887));
#956=CARTESIAN_POINT('Ctrl Pts',(69.0862018261163,2.8353969941259,-2.90440339495887));
#957=CARTESIAN_POINT('Ctrl Pts',(69.158480979937,2.7697328436647,-2.93215139977367));
#958=CARTESIAN_POINT('Ctrl Pts',(69.2467448168574,2.42600845764621,-3.07271789865732));
#959=CARTESIAN_POINT('Ctrl Pts',(69.2434125068616,1.7419267886844,-3.3322194532306));
#960=CARTESIAN_POINT('Ctrl Pts',(69.1805151212394,0.630936934423605,-3.58595774610134));
#961=CARTESIAN_POINT('Ctrl Pts',(69.1814678965938,-0.631530854732699,-3.58431193684921));
#962=CARTESIAN_POINT('Ctrl Pts',(69.2436431790931,-1.74306705280061,-3.33152179410603));
#963=CARTESIAN_POINT('Ctrl Pts',(69.2465012027823,-2.42681250760847,-3.07213074364894));
#964=CARTESIAN_POINT('Ctrl Pts',(69.1584245873277,-2.76994779402248,-2.93210355372416));
#965=CARTESIAN_POINT('Ctrl Pts',(69.086200362894,-2.83539699411817,-2.90440339495887));
#966=CARTESIAN_POINT('Ctrl Pts',(69.0499999999993,-2.83539699411817,-2.90440339495887));
#967=CARTESIAN_POINT('Ctrl Pts',(69.049999999999,3.25633706061855,-2.6718527533282));
#968=CARTESIAN_POINT('Ctrl Pts',(69.1607031494503,3.25633706061856,-2.6718527533282));
#969=CARTESIAN_POINT('Ctrl Pts',(69.3820293692618,3.16346347024608,-2.67854151812403));
#970=CARTESIAN_POINT('Ctrl Pts',(69.6890157743983,2.69501278847174,-2.71291268616406));
#971=CARTESIAN_POINT('Ctrl Pts',(69.7959992689215,1.84725000080575,-2.77858762040985));
#972=CARTESIAN_POINT('Ctrl Pts',(69.7392754564204,0.64834866957748,-2.84740610816872));
#973=CARTESIAN_POINT('Ctrl Pts',(69.7407607534305,-0.648612300157005,-2.84688321002666));
#974=CARTESIAN_POINT('Ctrl Pts',(69.7962534544902,-1.84689732795971,-2.77831247097507));
#975=CARTESIAN_POINT('Ctrl Pts',(69.6883359598463,-2.69640584965227,-2.71277472629598));
#976=CARTESIAN_POINT('Ctrl Pts',(69.381848731885,-3.16367713675747,-2.67851167897956));
#977=CARTESIAN_POINT('Ctrl Pts',(69.1606986749981,-3.25633706061082,-2.6718527533282));
#978=CARTESIAN_POINT('Ctrl Pts',(69.0499999999994,-3.25633706061083,-2.6718527533282));
#979=CARTESIAN_POINT('Ctrl Pts',(69.049999999999,3.72770195380824,-2.6));
#980=CARTESIAN_POINT('Ctrl Pts',(69.2440907072106,3.72770195380825,-2.6));
#981=CARTESIAN_POINT('Ctrl Pts',(69.6327827748434,3.60968449395339,-2.60000949571597));
#982=CARTESIAN_POINT('Ctrl Pts',(70.2120322803226,3.02272344714112,-2.59998526009975));
#983=CARTESIAN_POINT('Ctrl Pts',(70.534131194624,1.99841403569099,-2.59986702953854));
#984=CARTESIAN_POINT('Ctrl Pts',(70.6061904140872,0.676453523747683,-2.59951566546669));
#985=CARTESIAN_POINT('Ctrl Pts',(70.6073913740121,-0.677223985957819,-2.59954604365105));
#986=CARTESIAN_POINT('Ctrl Pts',(70.5334937231179,-1.99712420576658,-2.59986692756564));
#987=CARTESIAN_POINT('Ctrl Pts',(70.2106924064576,-3.02462176678755,-2.59997717251354));
#988=CARTESIAN_POINT('Ctrl Pts',(69.6324468870503,-3.60985428770248,-2.60001359211738));
#989=CARTESIAN_POINT('Ctrl Pts',(69.2440828623605,-3.72770195380051,-2.6));
#990=CARTESIAN_POINT('Ctrl Pts',(69.0499999999994,-3.72770195380052,-2.6));
#991=CARTESIAN_POINT('Ctrl Pts',(69.0499999999989,3.92969464462957,-2.6));
#992=CARTESIAN_POINT('Ctrl Pts',(69.2798217025303,3.92969464462958,-2.6));
#993=CARTESIAN_POINT('Ctrl Pts',(69.7402365395416,3.80089609498324,-2.6));
#994=CARTESIAN_POINT('Ctrl Pts',(70.4361255971866,3.16311962398158,-2.6));
#995=CARTESIAN_POINT('Ctrl Pts',(70.8502466637948,2.06313178980046,-2.6));
#996=CARTESIAN_POINT('Ctrl Pts',(70.9771808657566,0.688478640882517,-2.6));
#997=CARTESIAN_POINT('Ctrl Pts',(70.9782751359838,-0.689465223475406,-2.6));
#998=CARTESIAN_POINT('Ctrl Pts',(70.8492273304358,-2.06143650835214,-2.6));
#999=CARTESIAN_POINT('Ctrl Pts',(70.4344983774316,-3.16523604731015,-2.6));
#1000=CARTESIAN_POINT('Ctrl Pts',(69.7398356919023,-3.80104646330512,-2.6));
#1001=CARTESIAN_POINT('Ctrl Pts',(69.2798124134878,-3.92969464462184,-2.6));
#1002=CARTESIAN_POINT('Ctrl Pts',(69.0499999999994,-3.92969464462185,-2.6));
#1003=CARTESIAN_POINT('',(69.0499999999993,-2.63062203482823,-3.07933884297521));
#1004=CARTESIAN_POINT('',(70.372875655632,-3.10523751096181,-2.6));
#1005=CARTESIAN_POINT('Ctrl Pts',(70.3728756555317,-3.10523751104091,-2.6));
#1006=CARTESIAN_POINT('Ctrl Pts',(70.102792101656,-3.10523751104093,-2.6));
#1007=CARTESIAN_POINT('Ctrl Pts',(69.8528180186848,-3.07302273754566,-2.63938270844708));
#1008=CARTESIAN_POINT('Ctrl Pts',(69.4791941746281,-2.97204051685615,-2.75205476709806));
#1009=CARTESIAN_POINT('Ctrl Pts',(69.3451296325588,-2.91458635548101,-2.81352586348125));
#1010=CARTESIAN_POINT('Ctrl Pts',(69.1890242437896,-2.81457393678424,-2.91258857931342));
#1011=CARTESIAN_POINT('Ctrl Pts',(69.1462824318782,-2.77866250201914,-2.94682052244014));
#1012=CARTESIAN_POINT('Ctrl Pts',(69.098087885183,-2.72599535623197,-2.99533820945309));
#1013=CARTESIAN_POINT('Ctrl Pts',(69.0829581309872,-2.70649880339348,-3.01298649774933));
#1014=CARTESIAN_POINT('Ctrl Pts',(69.0655231199772,-2.67679086247305,-3.03931810743859));
#1015=CARTESIAN_POINT('Ctrl Pts',(69.060453808368,-2.66671812073898,-3.04816215957192));
#1016=CARTESIAN_POINT('Ctrl Pts',(69.0547192300804,-2.65180721950857,-3.06112063775583));
#1017=CARTESIAN_POINT('Ctrl Pts',(69.0530622156762,-2.64677595188652,-3.06547214589191));
#1018=CARTESIAN_POINT('Ctrl Pts',(69.0512729422492,-2.63954758726187,-3.07169296613405));
#1019=CARTESIAN_POINT('Ctrl Pts',(69.0507732133321,-2.63716704863884,-3.0737369941786));
#1020=CARTESIAN_POINT('Ctrl Pts',(69.0502824471618,-2.6339154922611,-3.07652251056923));
#1021=CARTESIAN_POINT('Ctrl Pts',(69.0501567061003,-2.63291985754744,-3.07737462225893));
#1022=CARTESIAN_POINT('Ctrl Pts',(69.0500515434025,-2.63168113997022,-3.07843377841113));
#1023=CARTESIAN_POINT('Ctrl Pts',(69.0500296562627,-2.63137498441688,-3.07869547671504));
#1024=CARTESIAN_POINT('Ctrl Pts',(69.0500085625718,-2.63094889948988,-3.07905958364106));
#1025=CARTESIAN_POINT('Ctrl Pts',(69.0500028778018,-2.63080457828197,-3.07918289443159));
#1026=CARTESIAN_POINT('Ctrl Pts',(69.0500003461404,-2.63066123362949,-3.07930535584295));
#1027=CARTESIAN_POINT('Ctrl Pts',(69.0499999999993,-2.63060243505315,-3.07935558669937));
#1028=CARTESIAN_POINT('Ctrl Pts',(69.0499999999993,-2.63062203482823,-3.07933884297521));
#1029=CARTESIAN_POINT('',(70.372875660293,3.10523750729599,-2.6));
#1030=CARTESIAN_POINT('Ctrl Pts',(70.372310807761,-3.10487790374681,-2.6));
#1031=CARTESIAN_POINT('Ctrl Pts',(70.5744293406862,-2.78740380282513,-2.6));
#1032=CARTESIAN_POINT('Ctrl Pts',(70.8568667301627,-1.98021825737543,-2.6));
#1033=CARTESIAN_POINT('Ctrl Pts',(70.9782751359838,-0.689465223475406,-2.6));
#1034=CARTESIAN_POINT('Ctrl Pts',(70.9771808657566,0.688478640882517,-2.6));
#1035=CARTESIAN_POINT('Ctrl Pts',(70.8577096778608,1.98230994960584,-2.6));
#1036=CARTESIAN_POINT('Ctrl Pts',(70.5754663932869,2.78762322509138,-2.6));
#1037=CARTESIAN_POINT('Ctrl Pts',(70.3727169312216,3.10513615018066,-2.6));
#1038=CARTESIAN_POINT('',(69.049999999999,2.63062203483595,-3.07933884297521));
#1039=CARTESIAN_POINT('Ctrl Pts',(69.049999999999,2.63062203483595,-3.07933884297521));
#1040=CARTESIAN_POINT('Ctrl Pts',(69.049999999999,2.63063827532699,-3.07932496902506));
#1041=CARTESIAN_POINT('Ctrl Pts',(69.0500004056483,2.63066460471761,-3.07930247588028));
#1042=CARTESIAN_POINT('Ctrl Pts',(69.0500028788016,2.63080462212343,-3.07918285698295));
#1043=CARTESIAN_POINT('Ctrl Pts',(69.050008565766,2.63094898106525,-3.07905951394702));
#1044=CARTESIAN_POINT('Ctrl Pts',(69.0500296676498,2.63137517752968,-3.07869531167976));
#1045=CARTESIAN_POINT('Ctrl Pts',(69.0500515633644,2.63168141342215,-3.07843354466286));
#1046=CARTESIAN_POINT('Ctrl Pts',(69.0501567644594,2.63292042228207,-3.07737413920722));
#1047=CARTESIAN_POINT('Ctrl Pts',(69.0502825489161,2.63391628022841,-3.07652183608552));
#1048=CARTESIAN_POINT('Ctrl Pts',(69.0507734618255,2.63716842085757,-3.07373581734552));
#1049=CARTESIAN_POINT('Ctrl Pts',(69.0512733191675,2.63954933131927,-3.07169146791832));
#1050=CARTESIAN_POINT('Ctrl Pts',(69.0530629789676,2.64677855839766,-3.06546989680832));
#1051=CARTESIAN_POINT('Ctrl Pts',(69.0547202830432,2.65181031218213,-3.06111795994289));
#1052=CARTESIAN_POINT('Ctrl Pts',(69.0604556955209,2.66672228869152,-3.04815851675092));
#1053=CARTESIAN_POINT('Ctrl Pts',(69.0655255851766,2.67679558741272,-3.03931394916144));
#1054=CARTESIAN_POINT('Ctrl Pts',(69.0829622741722,2.70650476084209,-3.01298115503102));
#1055=CARTESIAN_POINT('Ctrl Pts',(69.0980931702367,2.72600190595105,-2.99533225504168));
#1056=CARTESIAN_POINT('Ctrl Pts',(69.1462907421421,2.77867009715081,-2.946813373517));
#1057=CARTESIAN_POINT('Ctrl Pts',(69.1890345105998,2.81458177416192,-2.91258100743607));
#1058=CARTESIAN_POINT('Ctrl Pts',(69.3451493109744,2.91459667464136,-2.81351529523781));
#1059=CARTESIAN_POINT('Ctrl Pts',(69.4792238269903,2.97205208461628,-2.75204226467222));
#1060=CARTESIAN_POINT('Ctrl Pts',(69.8528506517174,3.07302694025329,-2.63937749372428));
#1061=CARTESIAN_POINT('Ctrl Pts',(70.1028098761437,3.10523751104877,-2.6));
#1062=CARTESIAN_POINT('Ctrl Pts',(70.3728756555313,3.10523751104878,-2.6));
#1063=CARTESIAN_POINT('Origin',(69.0499999999992,3.86149336385438E-12,0.));
#1064=CARTESIAN_POINT('Origin',(90.0499999999998,-2.43779004899687,-2.6));
#1065=CARTESIAN_POINT('',(90.0499999999994,-3.10523751103981,-2.6));
#1066=CARTESIAN_POINT('',(90.0499999999994,-3.10523751103981,-2.6));
#1067=CARTESIAN_POINT('',(90.0499999999992,-3.105,-2.6));
#1068=CARTESIAN_POINT('',(90.0499999999994,-4.44738124447583,-2.6));
#1069=CARTESIAN_POINT('',(88.549999942614,-3.105,-2.6));
#1070=CARTESIAN_POINT('',(89.6749999856532,-3.105,-2.6));
#1071=CARTESIAN_POINT('',(88.549999942614,3.105,-2.6));
#1072=CARTESIAN_POINT('',(88.5499999999992,0.,-2.6));
#1073=CARTESIAN_POINT('',(90.0499999999992,3.105,-2.6));
#1074=CARTESIAN_POINT('',(89.6749999856532,3.105,-2.6));
#1075=CARTESIAN_POINT('',(90.049999999999,3.10523751104988,-2.6));
#1076=CARTESIAN_POINT('',(90.0499999999994,-4.44738124447583,-2.6));
#1077=CARTESIAN_POINT('',(90.049999999999,3.10523751104988,-2.6));
#1078=CARTESIAN_POINT('',(77.8499999999998,-0.399999999999537,-2.6));
#1079=CARTESIAN_POINT('',(77.8499999999998,0.400000000000464,-2.6));
#1080=CARTESIAN_POINT('',(77.8499999999998,-1.4188950244982,-2.6));
#1081=CARTESIAN_POINT('',(81.2499999999998,0.400000000000464,-2.6));
#1082=CARTESIAN_POINT('Origin',(79.5499999999998,0.400000000000464,-2.6));
#1083=CARTESIAN_POINT('',(81.2499999999998,-0.399999999999537,-2.6));
#1084=CARTESIAN_POINT('',(81.2499999999998,-1.0188950244982,-2.6));
#1085=CARTESIAN_POINT('Origin',(79.5499999999998,-0.399999999999537,-2.6));
#1086=CARTESIAN_POINT('Origin',(89.2999999713066,-3.105,-3.35));
#1087=CARTESIAN_POINT('',(90.0499999999992,-3.105,-4.1));
#1088=CARTESIAN_POINT('',(90.0499999999994,-3.105,-1.675));
#1089=CARTESIAN_POINT('Origin',(88.5499999999992,-3.105,-4.1));
#1090=CARTESIAN_POINT('Origin',(88.5499999999992,0.,-4.1));
#1091=CARTESIAN_POINT('',(90.0499999999992,3.105,-4.1));
#1092=CARTESIAN_POINT('',(90.0499999999992,0.,-4.1));
#1093=CARTESIAN_POINT('Origin',(88.5499999999992,3.105,-4.1));
#1094=CARTESIAN_POINT('Origin',(89.2999999713066,3.105,-3.35));
#1095=CARTESIAN_POINT('',(90.049999999999,3.105,-1.675));
#1096=CARTESIAN_POINT('Origin',(90.0499999999998,-12.0000000000015,0.));
#1097=CARTESIAN_POINT('',(90.0499999999994,-4.04876524386871,-0.1));
#1098=CARTESIAN_POINT('Origin',(90.0499999999992,5.03600267450783E-12,0.));
#1099=CARTESIAN_POINT('',(90.0500000000003,-11.9995833261008,-0.1));
#1100=CARTESIAN_POINT('',(90.0499999999992,-0.000208336950774379,-0.1));
#1101=CARTESIAN_POINT('',(90.049999999999,11.9995833261,-0.1));
#1102=CARTESIAN_POINT('Origin',(90.0499999999992,-4.17783708864263E-13,
0.));
#1103=CARTESIAN_POINT('',(90.0499999999989,4.04876524387878,-0.1));
#1104=CARTESIAN_POINT('',(90.0499999999992,-0.000208336950774379,-0.1));
#1105=CARTESIAN_POINT('Origin',(90.0499999999992,5.03600267450783E-12,0.));
#1106=CARTESIAN_POINT('Origin',(90.0499999999992,5.03600267450783E-12,0.));
#1107=CARTESIAN_POINT('',(68.1499999999994,-4.04876524386993,-0.1));
#1108=CARTESIAN_POINT('',(68.1499999999989,4.04876524387755,-0.1));
#1109=CARTESIAN_POINT('Origin',(68.1499999999992,3.81119075595355E-12,0.));
#1110=CARTESIAN_POINT('',(90.0499999999994,-4.04876524386871,-0.1));
#1111=CARTESIAN_POINT('',(90.0499999999989,4.04876524387878,-0.1));
#1112=CARTESIAN_POINT('Origin',(68.1499999999994,-3.56410161513236,0.));
#1113=CARTESIAN_POINT('',(68.1499999999988,4.99899989997835,-0.1));
#1114=CARTESIAN_POINT('',(68.1499999999989,4.21774085548321,-0.1));
#1115=CARTESIAN_POINT('',(68.1499999999994,-4.99899989998164,-0.1));
#1116=CARTESIAN_POINT('Origin',(68.1499999999991,-1.64253061138201E-12,
0.));
#1117=CARTESIAN_POINT('',(68.1499999999989,4.21774085548321,-0.1));
#1118=CARTESIAN_POINT('Origin',(73.5499999999986,7.78114089347657,-4.));
#1119=CARTESIAN_POINT('',(71.5499999999986,7.78114089347657,-4.));
#1120=CARTESIAN_POINT('Origin',(73.5499999999986,7.78114089347657,-4.));
#1121=CARTESIAN_POINT('',(71.5499999999986,7.78114089347651,-9.13530767932087));
#1122=CARTESIAN_POINT('',(71.5499999999986,7.78114089347657,-4.));
#1123=CARTESIAN_POINT('',(73.5499999999988,5.78114089347657,-10.5156269413559));
#1124=CARTESIAN_POINT('Ctrl Pts',(73.5499999999988,5.78114089347657,-10.5156269413559));
#1125=CARTESIAN_POINT('Ctrl Pts',(73.7967124901372,5.78114089347658,-10.5156269413559));
#1126=CARTESIAN_POINT('Ctrl Pts',(74.0575206193686,5.82984137154631,-10.4892747187453));
#1127=CARTESIAN_POINT('Ctrl Pts',(74.5313188819777,6.01984604768704,-10.3813962830808));
#1128=CARTESIAN_POINT('Ctrl Pts',(74.7443113037885,6.16085784378073,-10.2993659047102));
#1129=CARTESIAN_POINT('Ctrl Pts',(75.1233352290701,6.51281891727506,-10.0815177619479));
#1130=CARTESIAN_POINT('Ctrl Pts',(75.2914780701884,6.75897348487083,-9.92052957137277));
#1131=CARTESIAN_POINT('Ctrl Pts',(75.5044933493498,7.27366936888999,-9.54957403746248));
#1132=CARTESIAN_POINT('Ctrl Pts',(75.5499999999987,7.54169658583147,-9.3392581054402));
#1133=CARTESIAN_POINT('Ctrl Pts',(75.5499999999986,8.06097997197082,-8.89695037667709));
#1134=CARTESIAN_POINT('Ctrl Pts',(75.488942033078,8.34978497166713,-8.62684560334998));
#1135=CARTESIAN_POINT('Ctrl Pts',(75.2498915558031,8.87348751737052,-8.0871869671677));
#1136=CARTESIAN_POINT('Ctrl Pts',(75.072980589358,9.10890129868212,-7.81765565438542));
#1137=CARTESIAN_POINT('Ctrl Pts',(74.7029454275699,9.42773226151497,-7.42704987623824));
#1138=CARTESIAN_POINT('Ctrl Pts',(74.5089460888443,9.55263527455667,-7.26424070150773));
#1139=CARTESIAN_POINT('Ctrl Pts',(74.1736753152214,9.68520797930179,-7.08535495087243));
#1140=CARTESIAN_POINT('Ctrl Pts',(74.0545025472137,9.7205717634982,-7.03648467321059));
#1141=CARTESIAN_POINT('Ctrl Pts',(73.8071239174371,9.7685312866775,-6.9697590844229));
#1142=CARTESIAN_POINT('Ctrl Pts',(73.6789146001238,9.78114089347658,-6.95192655470029));
#1143=CARTESIAN_POINT('Ctrl Pts',(73.4210853998733,9.78114089347656,-6.95192655470029));
#1144=CARTESIAN_POINT('Ctrl Pts',(73.2928760825599,9.76853128667747,-6.96975908442291));
#1145=CARTESIAN_POINT('Ctrl Pts',(73.0454974527834,9.72057176349814,-7.03648467321059));
#1146=CARTESIAN_POINT('Ctrl Pts',(72.9263246847756,9.68520797930172,-7.08535495087244));
#1147=CARTESIAN_POINT('Ctrl Pts',(72.5910539111528,9.55263527455656,-7.26424070150774));
#1148=CARTESIAN_POINT('Ctrl Pts',(72.3970545724272,9.42773226151484,-7.42704987623824));
#1149=CARTESIAN_POINT('Ctrl Pts',(72.0270194106391,9.10890129868194,-7.81765565438543));
#1150=CARTESIAN_POINT('Ctrl Pts',(71.8501084441941,8.87348751737032,-8.08718696716771));
#1151=CARTESIAN_POINT('Ctrl Pts',(71.6110579669192,8.3497849716669,-8.62684560334999));
#1152=CARTESIAN_POINT('Ctrl Pts',(71.5499999999986,8.06097997197059,-8.89695037667709));
#1153=CARTESIAN_POINT('Ctrl Pts',(71.5499999999986,7.78114089347646,-9.13530767932087));
#1154=CARTESIAN_POINT('Ctrl Pts',(71.5499999999986,7.78114089347646,-9.13530767932087));
#1155=CARTESIAN_POINT('Ctrl Pts',(71.5499999999986,7.54169658583124,-9.3392581054402));
#1156=CARTESIAN_POINT('Ctrl Pts',(71.5955066506476,7.27366936888976,-9.54957403746249));
#1157=CARTESIAN_POINT('Ctrl Pts',(71.808521929809,6.75897348487063,-9.92052957137278));
#1158=CARTESIAN_POINT('Ctrl Pts',(71.9766647709273,6.51281891727488,-10.0815177619479));
#1159=CARTESIAN_POINT('Ctrl Pts',(72.3556886962089,6.16085784378059,-10.2993659047102));
#1160=CARTESIAN_POINT('Ctrl Pts',(72.5686811180198,6.01984604768693,-10.3813962830808));
#1161=CARTESIAN_POINT('Ctrl Pts',(73.0424793806289,5.82984137154625,-10.4892747187453));
#1162=CARTESIAN_POINT('Ctrl Pts',(73.3032875098603,5.78114089347656,-10.5156269413559));
#1163=CARTESIAN_POINT('Ctrl Pts',(73.5499999999988,5.78114089347657,-10.5156269413559));
#1164=CARTESIAN_POINT('Origin',(73.5499999999986,7.78114089347657,-4.));
#1165=CARTESIAN_POINT('',(72.5499999999986,7.78114089347657,-4.));
#1166=CARTESIAN_POINT('Origin',(73.5499999999986,7.78114089347657,-4.));
#1167=CARTESIAN_POINT('Origin',(85.5499999999992,-7.7811408934786,-4.));
#1168=CARTESIAN_POINT('',(83.5499999999992,-7.7811408934786,-4.));
#1169=CARTESIAN_POINT('Origin',(85.5499999999992,-7.7811408934786,-4.));
#1170=CARTESIAN_POINT('',(83.5499999999992,-7.78114089347865,-9.13530767932085));
#1171=CARTESIAN_POINT('',(83.5499999999992,-7.7811408934786,-4.));
#1172=CARTESIAN_POINT('',(85.5499999999994,-9.78114089347861,-6.95192655470025));
#1173=CARTESIAN_POINT('Ctrl Pts',(85.5499999999994,-9.78114089347861,-6.95192655470025));
#1174=CARTESIAN_POINT('Ctrl Pts',(85.6789146001246,-9.7811408934786,-6.95192655470025));
#1175=CARTESIAN_POINT('Ctrl Pts',(85.807123917438,-9.76853128667951,-6.96975908442287));
#1176=CARTESIAN_POINT('Ctrl Pts',(86.0545025472145,-9.72057176350019,-7.03648467321055));
#1177=CARTESIAN_POINT('Ctrl Pts',(86.1736753152222,-9.68520797930376,-7.08535495087238));
#1178=CARTESIAN_POINT('Ctrl Pts',(86.5089460888451,-9.55263527455861,-7.26424070150769));
#1179=CARTESIAN_POINT('Ctrl Pts',(86.7029454275707,-9.42773226151688,-7.42704987623821));
#1180=CARTESIAN_POINT('Ctrl Pts',(87.0729805893588,-9.10890129868398,-7.81765565438539));
#1181=CARTESIAN_POINT('Ctrl Pts',(87.2498915558038,-8.87348751737236,-8.08718696716767));
#1182=CARTESIAN_POINT('Ctrl Pts',(87.4889420330787,-8.34978497166894,-8.62684560334996));
#1183=CARTESIAN_POINT('Ctrl Pts',(87.5499999999993,-8.06097997197263,-8.89695037667707));
#1184=CARTESIAN_POINT('Ctrl Pts',(87.5499999999992,-7.54169658583327,-9.33925810544018));
#1185=CARTESIAN_POINT('Ctrl Pts',(87.5044933493504,-7.27366936889179,-9.54957403746247));
#1186=CARTESIAN_POINT('Ctrl Pts',(87.2914780701889,-6.75897348487266,-9.92052957137276));
#1187=CARTESIAN_POINT('Ctrl Pts',(87.1233352290706,-6.5128189172769,-10.0815177619479));
#1188=CARTESIAN_POINT('Ctrl Pts',(86.7443113037889,-6.16085784378261,-10.2993659047102));
#1189=CARTESIAN_POINT('Ctrl Pts',(86.5313188819781,-6.01984604768894,-10.3813962830808));
#1190=CARTESIAN_POINT('Ctrl Pts',(86.057520619369,-5.82984137154827,-10.4892747187453));
#1191=CARTESIAN_POINT('Ctrl Pts',(85.7967124901376,-5.78114089347858,-10.5156269413559));
#1192=CARTESIAN_POINT('Ctrl Pts',(85.3032875098607,-5.7811408934786,-10.5156269413559));
#1193=CARTESIAN_POINT('Ctrl Pts',(85.0424793806293,-5.82984137154832,-10.4892747187453));
#1194=CARTESIAN_POINT('Ctrl Pts',(84.5686811180202,-6.01984604768905,-10.3813962830808));
#1195=CARTESIAN_POINT('Ctrl Pts',(84.3556886962094,-6.16085784378274,-10.2993659047102));
#1196=CARTESIAN_POINT('Ctrl Pts',(83.9766647709278,-6.51281891727707,-10.0815177619479));
#1197=CARTESIAN_POINT('Ctrl Pts',(83.8085219298095,-6.75897348487285,-9.92052957137277));
#1198=CARTESIAN_POINT('Ctrl Pts',(83.5955066506481,-7.273669368892,-9.54957403746248));
#1199=CARTESIAN_POINT('Ctrl Pts',(83.5499999999993,-7.54169658583349,-9.33925810544019));
#1200=CARTESIAN_POINT('Ctrl Pts',(83.5499999999993,-7.78114089347871,-9.13530767932085));
#1201=CARTESIAN_POINT('Ctrl Pts',(83.5499999999992,-7.78114089347871,-9.13530767932085));
#1202=CARTESIAN_POINT('Ctrl Pts',(83.5499999999992,-8.06097997197284,-8.89695037667708));
#1203=CARTESIAN_POINT('Ctrl Pts',(83.6110579669199,-8.34978497166915,-8.62684560334997));
#1204=CARTESIAN_POINT('Ctrl Pts',(83.8501084441948,-8.87348751737255,-8.08718696716768));
#1205=CARTESIAN_POINT('Ctrl Pts',(84.0270194106398,-9.10890129868415,-7.8176556543854));
#1206=CARTESIAN_POINT('Ctrl Pts',(84.397054572428,-9.427732261517,-7.42704987623821));
#1207=CARTESIAN_POINT('Ctrl Pts',(84.5910539111536,-9.5526352745587,-7.2642407015077));
#1208=CARTESIAN_POINT('Ctrl Pts',(84.9263246847764,-9.68520797930383,-7.0853549508724));
#1209=CARTESIAN_POINT('Ctrl Pts',(85.0454974527842,-9.72057176350024,-7.03648467321056));
#1210=CARTESIAN_POINT('Ctrl Pts',(85.2928760825608,-9.76853128667953,-6.96975908442287));
#1211=CARTESIAN_POINT('Ctrl Pts',(85.4210853998741,-9.78114089347862,-6.95192655470025));
#1212=CARTESIAN_POINT('Ctrl Pts',(85.5499999999994,-9.78114089347861,-6.95192655470025));
#1213=CARTESIAN_POINT('Origin',(85.5499999999992,-7.7811408934786,-4.));
#1214=CARTESIAN_POINT('',(84.5499999999993,-7.7811408934786,-4.));
#1215=CARTESIAN_POINT('Origin',(85.5499999999992,-7.7811408934786,-4.));
#1216=CARTESIAN_POINT('Origin',(73.5499999999987,-7.78114089347927,-2.));
#1217=CARTESIAN_POINT('',(72.0499999999987,-7.78114089347927,-2.));
#1218=CARTESIAN_POINT('Origin',(73.5499999999987,-7.78114089347927,-2.));
#1219=CARTESIAN_POINT('',(72.0499999999987,-7.78114089347931,-9.13530767932085));
#1220=CARTESIAN_POINT('',(72.0499999999987,-7.78114089347927,-2.));
#1221=CARTESIAN_POINT('',(73.5499999999988,-9.28114089347927,-7.60660395415882));
#1222=CARTESIAN_POINT('Ctrl Pts',(73.5499999999988,-9.28114089347927,-7.60660395415882));
#1223=CARTESIAN_POINT('Ctrl Pts',(73.6452528791894,-9.28114089347927,-7.60660395415882));
#1224=CARTESIAN_POINT('Ctrl Pts',(73.7410296726578,-9.2719316420884,-7.61788086765895));
#1225=CARTESIAN_POINT('Ctrl Pts',(73.9270242474291,-9.2360783724275,-7.66130649969464));
#1226=CARTESIAN_POINT('Ctrl Pts',(74.0172428931177,-9.20942913007684,-7.69344720235361));
#1227=CARTESIAN_POINT('Ctrl Pts',(74.271727076061,-9.10869622446425,-7.8129707693994));
#1228=CARTESIAN_POINT('Ctrl Pts',(74.4198330317015,-9.01284398313832,-7.92410703528828));
#1229=CARTESIAN_POINT('Ctrl Pts',(74.6993290941623,-8.76911006361154,-8.19438932839402));
#1230=CARTESIAN_POINT('Ctrl Pts',(74.8308439782906,-8.59077274076911,-8.38294317629751));
#1231=CARTESIAN_POINT('Ctrl Pts',(75.0064940086401,-8.19910048689439,-8.76640541188874));
#1232=CARTESIAN_POINT('Ctrl Pts',(75.0499999999987,-7.98545258986959,-8.9612820031635));
#1233=CARTESIAN_POINT('Ctrl Pts',(75.0499999999987,-7.59897199879227,-9.29047287853759));
#1234=CARTESIAN_POINT('Ctrl Pts',(75.0149536875797,-7.3966694699252,-9.45239312239037));
#1235=CARTESIAN_POINT('Ctrl Pts',(74.8535114498167,-7.00993036121393,-9.74265523143118));
#1236=CARTESIAN_POINT('Ctrl Pts',(74.7267619425034,-6.82578224594372,-9.87118457070397));
#1237=CARTESIAN_POINT('Ctrl Pts',(74.4425699257375,-6.56387482664855,-10.046614049215));
#1238=CARTESIAN_POINT('Ctrl Pts',(74.2840084890819,-6.45920581877802,-10.1136366249425));
#1239=CARTESIAN_POINT('Ctrl Pts',(73.9303116036919,-6.31770512557525,-10.202626484207));
#1240=CARTESIAN_POINT('Ctrl Pts',(73.7351301695518,-6.28114089347926,-10.2248358948343));
#1241=CARTESIAN_POINT('Ctrl Pts',(73.3648698304454,-6.28114089347928,-10.2248358948343));
#1242=CARTESIAN_POINT('Ctrl Pts',(73.1696883963053,-6.31770512557528,-10.202626484207));
#1243=CARTESIAN_POINT('Ctrl Pts',(72.8159915109153,-6.45920581877809,-10.1136366249425));
#1244=CARTESIAN_POINT('Ctrl Pts',(72.6574300742597,-6.56387482664864,-10.046614049215));
#1245=CARTESIAN_POINT('Ctrl Pts',(72.3732380574939,-6.82578224594385,-9.87118457070397));
#1246=CARTESIAN_POINT('Ctrl Pts',(72.2464885501806,-7.00993036121407,-9.74265523143119));
#1247=CARTESIAN_POINT('Ctrl Pts',(72.0850463124176,-7.39666946992535,-9.45239312239038));
#1248=CARTESIAN_POINT('Ctrl Pts',(72.0499999999987,-7.59897199879243,-9.2904728785376));
#1249=CARTESIAN_POINT('Ctrl Pts',(72.0499999999987,-7.78114089347935,-9.13530767932085));
#1250=CARTESIAN_POINT('Ctrl Pts',(72.0499999999987,-7.78114089347935,-9.13530767932085));
#1251=CARTESIAN_POINT('Ctrl Pts',(72.0499999999987,-7.98545258986975,-8.96128200316351));
#1252=CARTESIAN_POINT('Ctrl Pts',(72.0935059913573,-8.19910048689454,-8.76640541188874));
#1253=CARTESIAN_POINT('Ctrl Pts',(72.2691560217069,-8.59077274076924,-8.38294317629752));
#1254=CARTESIAN_POINT('Ctrl Pts',(72.4006709058352,-8.76911006361166,-8.19438932839402));
#1255=CARTESIAN_POINT('Ctrl Pts',(72.6801669682959,-9.01284398313841,-7.92410703528829));
#1256=CARTESIAN_POINT('Ctrl Pts',(72.8282729239365,-9.10869622446433,-7.8129707693994));
#1257=CARTESIAN_POINT('Ctrl Pts',(73.0827571068798,-9.20942913007689,-7.69344720235361));
#1258=CARTESIAN_POINT('Ctrl Pts',(73.1729757525684,-9.23607837242754,-7.66130649969464));
#1259=CARTESIAN_POINT('Ctrl Pts',(73.3589703273397,-9.27193164208842,-7.61788086765895));
#1260=CARTESIAN_POINT('Ctrl Pts',(73.4547471208081,-9.28114089347928,-7.60660395415882));
#1261=CARTESIAN_POINT('Ctrl Pts',(73.5499999999988,-9.28114089347927,-7.60660395415882));
#1262=CARTESIAN_POINT('Origin',(73.5499999999987,-7.78114089347927,-2.));
#1263=CARTESIAN_POINT('',(72.5499999999987,-7.78114089347927,-2.));
#1264=CARTESIAN_POINT('Origin',(73.5499999999987,-7.78114089347927,-2.));
#1265=CARTESIAN_POINT('Origin',(85.5499999999992,7.78114089347726,-2.));
#1266=CARTESIAN_POINT('',(84.0499999999992,7.78114089347726,-2.));
#1267=CARTESIAN_POINT('Origin',(85.5499999999992,7.78114089347726,-2.));
#1268=CARTESIAN_POINT('',(84.0499999999992,7.78114089347721,-9.13530767932086));
#1269=CARTESIAN_POINT('',(84.0499999999992,7.78114089347726,-2.));
#1270=CARTESIAN_POINT('',(85.5499999999993,6.28114089347725,-10.2248358948343));
#1271=CARTESIAN_POINT('Ctrl Pts',(85.5499999999993,6.28114089347725,-10.2248358948343));
#1272=CARTESIAN_POINT('Ctrl Pts',(85.7351301695525,6.28114089347726,-10.2248358948343));
#1273=CARTESIAN_POINT('Ctrl Pts',(85.9303116036926,6.31770512557328,-10.202626484207));
#1274=CARTESIAN_POINT('Ctrl Pts',(86.2840084890826,6.45920581877608,-10.1136366249425));
#1275=CARTESIAN_POINT('Ctrl Pts',(86.4425699257382,6.56387482664663,-10.046614049215));
#1276=CARTESIAN_POINT('Ctrl Pts',(86.726761942504,6.82578224594184,-9.87118457070397));
#1277=CARTESIAN_POINT('Ctrl Pts',(86.8535114498173,7.00993036121206,-9.74265523143119));
#1278=CARTESIAN_POINT('Ctrl Pts',(87.0149536875802,7.39666946992334,-9.45239312239037));
#1279=CARTESIAN_POINT('Ctrl Pts',(87.0499999999992,7.59897199879042,-9.29047287853759));
#1280=CARTESIAN_POINT('Ctrl Pts',(87.0499999999992,7.98545258986774,-8.9612820031635));
#1281=CARTESIAN_POINT('Ctrl Pts',(87.0064940086406,8.19910048689253,-8.76640541188874));
#1282=CARTESIAN_POINT('Ctrl Pts',(86.830843978291,8.59077274076724,-8.38294317629751));
#1283=CARTESIAN_POINT('Ctrl Pts',(86.6993290941627,8.76911006360965,-8.19438932839402));
#1284=CARTESIAN_POINT('Ctrl Pts',(86.4198330317019,9.0128439831364,-7.92410703528829));
#1285=CARTESIAN_POINT('Ctrl Pts',(86.2717270760614,9.10869622446233,-7.8129707693994));
#1286=CARTESIAN_POINT('Ctrl Pts',(86.0172428931181,9.20942913007488,-7.69344720235361));
#1287=CARTESIAN_POINT('Ctrl Pts',(85.9270242474295,9.23607837242552,-7.66130649969465));
#1288=CARTESIAN_POINT('Ctrl Pts',(85.7410296726582,9.27193164208641,-7.61788086765895));
#1289=CARTESIAN_POINT('Ctrl Pts',(85.6452528791898,9.28114089347726,-7.60660395415883));
#1290=CARTESIAN_POINT('Ctrl Pts',(85.4547471208085,9.28114089347725,-7.60660395415883));
#1291=CARTESIAN_POINT('Ctrl Pts',(85.3589703273401,9.27193164208639,-7.61788086765896));
#1292=CARTESIAN_POINT('Ctrl Pts',(85.1729757525688,9.23607837242548,-7.66130649969465));
#1293=CARTESIAN_POINT('Ctrl Pts',(85.0827571068802,9.20942913007482,-7.69344720235361));
#1294=CARTESIAN_POINT('Ctrl Pts',(84.8282729239369,9.10869622446223,-7.81297076939941));
#1295=CARTESIAN_POINT('Ctrl Pts',(84.6801669682963,9.0128439831363,-7.92410703528829));
#1296=CARTESIAN_POINT('Ctrl Pts',(84.4006709058356,8.76911006360951,-8.19438932839403));
#1297=CARTESIAN_POINT('Ctrl Pts',(84.2691560217073,8.59077274076708,-8.38294317629752));
#1298=CARTESIAN_POINT('Ctrl Pts',(84.0935059913578,8.19910048689236,-8.76640541188874));
#1299=CARTESIAN_POINT('Ctrl Pts',(84.0499999999992,7.98545258986757,-8.96128200316351));
#1300=CARTESIAN_POINT('Ctrl Pts',(84.0499999999992,7.78114089347716,-9.13530767932086));
#1301=CARTESIAN_POINT('Ctrl Pts',(84.0499999999992,7.78114089347716,-9.13530767932086));
#1302=CARTESIAN_POINT('Ctrl Pts',(84.0499999999992,7.59897199879024,-9.2904728785376));
#1303=CARTESIAN_POINT('Ctrl Pts',(84.0850463124182,7.39666946992317,-9.45239312239038));
#1304=CARTESIAN_POINT('Ctrl Pts',(84.2464885501812,7.0099303612119,-9.74265523143119));
#1305=CARTESIAN_POINT('Ctrl Pts',(84.3732380574945,6.8257822459417,-9.87118457070398));
#1306=CARTESIAN_POINT('Ctrl Pts',(84.6574300742604,6.56387482664653,-10.046614049215));
#1307=CARTESIAN_POINT('Ctrl Pts',(84.815991510916,6.459205818776,-10.1136366249425));
#1308=CARTESIAN_POINT('Ctrl Pts',(85.169688396306,6.31770512557323,-10.202626484207));
#1309=CARTESIAN_POINT('Ctrl Pts',(85.3648698304461,6.28114089347724,-10.2248358948343));
#1310=CARTESIAN_POINT('Ctrl Pts',(85.5499999999993,6.28114089347725,-10.2248358948343));
#1311=CARTESIAN_POINT('Origin',(85.5499999999992,7.78114089347726,-2.));
#1312=CARTESIAN_POINT('',(84.5499999999992,7.78114089347726,-2.));
#1313=CARTESIAN_POINT('Origin',(85.5499999999992,7.78114089347726,-2.));
#1314=CARTESIAN_POINT('Origin',(73.5499999999987,-7.78114089347927,0.));
#1315=CARTESIAN_POINT('',(72.5499999999987,-7.78114089347927,-0.1));
#1316=CARTESIAN_POINT('',(72.5499999999987,-7.78114089347927,0.));
#1317=CARTESIAN_POINT('Origin',(73.5499999999987,-7.78114089347927,-0.1));
#1318=CARTESIAN_POINT('Origin',(85.5499999999992,-7.7811408934786,0.));
#1319=CARTESIAN_POINT('',(84.5499999999993,-7.7811408934786,-0.1));
#1320=CARTESIAN_POINT('',(84.5499999999993,-7.7811408934786,0.));
#1321=CARTESIAN_POINT('Origin',(85.5499999999992,-7.7811408934786,-0.1));
#1322=CARTESIAN_POINT('Origin',(85.5499999999992,7.78114089347726,0.));
#1323=CARTESIAN_POINT('',(84.5499999999992,7.78114089347726,-0.1));
#1324=CARTESIAN_POINT('',(84.5499999999992,7.78114089347726,0.));
#1325=CARTESIAN_POINT('Origin',(85.5499999999992,7.78114089347726,-0.1));
#1326=CARTESIAN_POINT('Origin',(73.5499999999986,7.78114089347657,0.));
#1327=CARTESIAN_POINT('',(72.5499999999986,7.78114089347657,-0.1));
#1328=CARTESIAN_POINT('',(72.5499999999986,7.78114089347657,0.));
#1329=CARTESIAN_POINT('Origin',(73.5499999999986,7.78114089347657,-0.1));
#1330=CARTESIAN_POINT('Origin',(79.5500002121047,-3.63304713609158,-11.4));
#1331=CARTESIAN_POINT('',(79.5500002121047,-3.63304713609158,-11.4368251060754));
#1332=CARTESIAN_POINT('',(82.3499341086804,-2.01635189327675,-11.8293839671597));
#1333=CARTESIAN_POINT('Origin',(85.8420282671185,-6.53112491774211E-13,
0.));
#1334=CARTESIAN_POINT('',(79.5500002121047,-3.63304713609158,-7.2));
#1335=CARTESIAN_POINT('',(79.5500002121047,-3.63304713609158,-11.4));
#1336=CARTESIAN_POINT('',(82.3499341086804,-2.01635189327675,-7.2));
#1337=CARTESIAN_POINT('',(79.5500002121047,-3.63304713609158,-7.2));
#1338=CARTESIAN_POINT('',(82.3499341086804,-2.01635189327675,-11.4));
#1339=CARTESIAN_POINT('Origin',(82.3499341086804,-2.01635189327675,-11.4));
#1340=CARTESIAN_POINT('',(82.3499341133618,2.01635164158507,-11.829384010061));
#1341=CARTESIAN_POINT('Origin',(82.3499341110211,-8.48406167618072E-13,
0.));
#1342=CARTESIAN_POINT('',(82.3499341133618,2.01635164158507,-7.2));
#1343=CARTESIAN_POINT('',(82.3499341086804,-2.01635189327675,-7.2));
#1344=CARTESIAN_POINT('',(82.3499341133618,2.01635164158507,-11.4));
#1345=CARTESIAN_POINT('Origin',(82.3499341133618,2.01635164158507,-11.4));
#1346=CARTESIAN_POINT('',(79.5499997878949,3.63304713747321,-11.4368251056359));
#1347=CARTESIAN_POINT('Origin',(85.8420278241727,-6.5311251654574E-13,0.));
#1348=CARTESIAN_POINT('',(79.5499997878949,3.63304713747321,-7.2));
#1349=CARTESIAN_POINT('',(82.3499341133618,2.01635164158507,-7.2));
#1350=CARTESIAN_POINT('',(79.5499997878949,3.63304713747321,-11.4));
#1351=CARTESIAN_POINT('Origin',(79.5499997878949,3.63304713747321,-11.4));
#1352=CARTESIAN_POINT('',(76.7499341133618,2.01658112585269,-11.8293448915341));
#1353=CARTESIAN_POINT('Origin',(73.2567832832032,-1.3569362274581E-12,0.));
#1354=CARTESIAN_POINT('',(76.7499341133618,2.01658112585269,-7.2));
#1355=CARTESIAN_POINT('',(79.5499997878949,3.63304713747321,-7.2));
#1356=CARTESIAN_POINT('',(76.7499341133618,2.01658112585269,-11.4));
#1357=CARTESIAN_POINT('Origin',(76.7499341133618,-2.01658087414731,-11.4));
#1358=CARTESIAN_POINT('',(76.7499341133618,-2.01658087414731,-11.8293449344434));
#1359=CARTESIAN_POINT('Origin',(73.256783730948,-1.35693620241818E-12,0.));
#1360=CARTESIAN_POINT('',(76.7499341133618,-2.01658087414731,-7.2));
#1361=CARTESIAN_POINT('',(76.7499341133618,-2.01658087414731,-11.4));
#1362=CARTESIAN_POINT('',(76.7499341133618,-2.01658087414731,-7.2));
#1363=CARTESIAN_POINT('Origin',(76.7499341133618,2.01658112585269,-11.4));
#1364=CARTESIAN_POINT('Origin',(76.7499341133619,-1.16158345762869E-12,
0.));
#1365=CARTESIAN_POINT('',(76.7499341133618,2.01658112585269,-7.2));
#1366=CARTESIAN_POINT('Origin',(79.5499341133618,6.90814072612511E-10,-7.2));
#1367=CARTESIAN_POINT('',(81.2499999999998,0.400000000000464,-7.2));
#1368=CARTESIAN_POINT('',(81.2499999999998,-0.399999999999537,-7.2));
#1369=CARTESIAN_POINT('',(81.2499999999998,0.200000000345639,-7.2));
#1370=CARTESIAN_POINT('',(77.8499999999998,0.400000000000464,-7.2));
#1371=CARTESIAN_POINT('Origin',(79.5499999999998,0.400000000000464,-7.2));
#1372=CARTESIAN_POINT('',(77.8499999999998,-0.399999999999537,-7.2));
#1373=CARTESIAN_POINT('',(77.8499999999998,-0.199999999654361,-7.2));
#1374=CARTESIAN_POINT('Origin',(79.5499999999998,-0.399999999999537,-7.2));
#1375=CARTESIAN_POINT('Origin',(77.8499999999998,-0.399999999999537,0.));
#1376=CARTESIAN_POINT('',(77.8499999999998,0.400000000000464,0.));
#1377=CARTESIAN_POINT('',(77.8499999999998,-0.399999999999537,0.));
#1378=CARTESIAN_POINT('Origin',(79.5499999999998,0.400000000000464,0.));
#1379=CARTESIAN_POINT('',(81.2499999999998,0.400000000000464,0.));
#1380=CARTESIAN_POINT('Origin',(81.2499999999998,0.400000000000464,0.));
#1381=CARTESIAN_POINT('',(81.2499999999998,-0.399999999999537,0.));
#1382=CARTESIAN_POINT('Origin',(79.5499999999998,-0.399999999999537,0.));
#1383=CARTESIAN_POINT('Origin',(90.049999999999,11.9995833261,-0.1));
#1384=CARTESIAN_POINT('',(69.0499999999994,-4.99899989998164,-0.1));
#1385=CARTESIAN_POINT('',(68.5999999999994,-4.99899989998164,-0.1));
#1386=CARTESIAN_POINT('',(69.0499999999998,-11.999583326102,-0.1));
#1387=CARTESIAN_POINT('',(69.0499999999989,3.49979166304859,-0.1));
#1388=CARTESIAN_POINT('',(79.5499999999996,-11.9995833261008,-0.1));
#1389=CARTESIAN_POINT('Origin',(90.049999999999,11.9995833261,-0.1));
#1390=CARTESIAN_POINT('',(69.049999999998,11.9995833260976,-0.1));
#1391=CARTESIAN_POINT('',(79.5499999999983,11.9995833260988,-0.1));
#1392=CARTESIAN_POINT('',(69.0499999999988,4.99899989997845,-0.1));
#1393=CARTESIAN_POINT('',(69.0499999999989,3.49979166304859,-0.1));
#1394=CARTESIAN_POINT('',(68.5999999999988,4.9989998999784,-0.1));
#1395=CARTESIAN_POINT('Origin',(79.5499999999989,-1.00499112787963E-12,
0.));
#1396=CARTESIAN_POINT('Origin',(69.0499999999987,-1.592198546895E-12,0.));
#1397=CARTESIAN_POINT('Origin',(69.0499999999994,-5.00000000000164,0.));
#1398=CARTESIAN_POINT('Origin',(69.0499999999991,-1.59219854689498E-12,
0.));
#1399=CARTESIAN_POINT('Origin',(68.5999999999991,-1.61736457913849E-12,
0.));
#1400=UNCERTAINTY_MEASURE_WITH_UNIT(LENGTH_MEASURE(0.01),#1404,
'DISTANCE_ACCURACY_VALUE',
'Maximum model space distance between geometric entities at asserted c
onnectivities');
#1401=UNCERTAINTY_MEASURE_WITH_UNIT(LENGTH_MEASURE(0.01),#1404,
'DISTANCE_ACCURACY_VALUE',
'Maximum model space distance between geometric entities at asserted c
onnectivities');
#1402=(
GEOMETRIC_REPRESENTATION_CONTEXT(3)
GLOBAL_UNCERTAINTY_ASSIGNED_CONTEXT((#1400))
GLOBAL_UNIT_ASSIGNED_CONTEXT((#1404,#1406,#1407))
REPRESENTATION_CONTEXT('','3D')
);
#1403=(
GEOMETRIC_REPRESENTATION_CONTEXT(3)
GLOBAL_UNCERTAINTY_ASSIGNED_CONTEXT((#1401))
GLOBAL_UNIT_ASSIGNED_CONTEXT((#1404,#1406,#1407))
REPRESENTATION_CONTEXT('','3D')
);
#1404=(
LENGTH_UNIT()
NAMED_UNIT(*)
SI_UNIT(.MILLI.,.METRE.)
);
#1405=(
LENGTH_UNIT()
NAMED_UNIT(*)
SI_UNIT($,.METRE.)
);
#1406=(
NAMED_UNIT(*)
PLANE_ANGLE_UNIT()
SI_UNIT($,.RADIAN.)
);
#1407=(
NAMED_UNIT(*)
SI_UNIT($,.STERADIAN.)
SOLID_ANGLE_UNIT()
);
#1408=SHAPE_DEFINITION_REPRESENTATION(#1409,#1410);
#1409=PRODUCT_DEFINITION_SHAPE('',$,#1412);
#1410=SHAPE_REPRESENTATION('',(#688),#1402);
#1411=PRODUCT_DEFINITION_CONTEXT('part definition',#1416,'design');
#1412=PRODUCT_DEFINITION('Nut Side - 3D Print','Nut Side - 3D Print',#1413,
#1411);
#1413=PRODUCT_DEFINITION_FORMATION('',$,#1418);
#1414=PRODUCT_RELATED_PRODUCT_CATEGORY('Nut Side - 3D Print',
'Nut Side - 3D Print',(#1418));
#1415=APPLICATION_PROTOCOL_DEFINITION('international standard',
'automotive_design',2009,#1416);
#1416=APPLICATION_CONTEXT(
'Core Data for Automotive Mechanical Design Process');
#1417=PRODUCT_CONTEXT('part definition',#1416,'mechanical');
#1418=PRODUCT('Nut Side - 3D Print','Nut Side - 3D Print',$,(#1417));
#1419=PRESENTATION_STYLE_ASSIGNMENT((#1420));
#1420=SURFACE_STYLE_USAGE(.BOTH.,#1421);
#1421=SURFACE_SIDE_STYLE('',(#1422));
#1422=SURFACE_STYLE_FILL_AREA(#1423);
#1423=FILL_AREA_STYLE('Steel - Satin',(#1424));
#1424=FILL_AREA_STYLE_COLOUR('Steel - Satin',#1425);
#1425=COLOUR_RGB('Steel - Satin',0.627450980392157,0.627450980392157,0.627450980392157);
ENDSEC;
END-ISO-10303-21;
