ISO-10303-21;
HEADER;
/* Generated by software containing ST-Developer
 * from STEP Tools, Inc. (www.steptools.com) 
 */

FILE_DESCRIPTION(
/* description */ (''),
/* implementation_level */ '2;1');

FILE_NAME(
/* name */ 'Shaft-Steel Linear Rail.step',
/* time_stamp */ '2025-05-01T08:24:29+01:00',
/* author */ (''),
/* organization */ (''),
/* preprocessor_version */ 'ST-DEVELOPER v20.1',
/* originating_system */ 'Autodesk Translation Framework v14.4.0.0',
/* authorisation */ '');

FILE_SCHEMA (('AUTOMOTIVE_DESIGN { 1 0 10303 214 3 1 1 }'));
ENDSEC;

DATA;
#10=MECHANICAL_DESIGN_GEOMETRIC_PRESENTATION_REPRESENTATION('',(#13),#904);
#11=SHAPE_REPRESENTATION_RELATIONSHIP('SRR','None',#911,#12);
#12=ADVANCED_BREP_SHAPE_REPRESENTATION('',(#14),#903);
#13=STYLED_ITEM('',(#920),#14);
#14=MANIFOLD_SOLID_BREP('Body1',#524);
#15=FACE_BOUND('',#89,.T.);
#16=FACE_BOUND('',#90,.T.);
#17=FACE_BOUND('',#93,.T.);
#18=FACE_BOUND('',#94,.T.);
#19=FACE_BOUND('',#99,.T.);
#20=FACE_BOUND('',#100,.T.);
#21=FACE_BOUND('',#103,.T.);
#22=FACE_BOUND('',#104,.T.);
#23=FACE_BOUND('',#109,.T.);
#24=FACE_BOUND('',#111,.T.);
#25=FACE_BOUND('',#112,.T.);
#26=FACE_BOUND('',#113,.T.);
#27=FACE_BOUND('',#114,.T.);
#28=FACE_BOUND('',#118,.T.);
#29=FACE_BOUND('',#122,.T.);
#30=FACE_BOUND('',#125,.T.);
#31=PLANE('',#550);
#32=PLANE('',#552);
#33=PLANE('',#554);
#34=PLANE('',#555);
#35=PLANE('',#557);
#36=PLANE('',#558);
#37=PLANE('',#562);
#38=PLANE('',#564);
#39=PLANE('',#566);
#40=PLANE('',#567);
#41=PLANE('',#569);
#42=PLANE('',#573);
#43=PLANE('',#575);
#44=PLANE('',#577);
#45=PLANE('',#586);
#46=PLANE('',#587);
#47=PLANE('',#588);
#48=PLANE('',#592);
#49=PLANE('',#593);
#50=PLANE('',#594);
#51=PLANE('',#595);
#52=PLANE('',#596);
#53=FACE_OUTER_BOUND('',#82,.T.);
#54=FACE_OUTER_BOUND('',#83,.T.);
#55=FACE_OUTER_BOUND('',#84,.T.);
#56=FACE_OUTER_BOUND('',#85,.T.);
#57=FACE_OUTER_BOUND('',#86,.T.);
#58=FACE_OUTER_BOUND('',#87,.T.);
#59=FACE_OUTER_BOUND('',#88,.T.);
#60=FACE_OUTER_BOUND('',#91,.T.);
#61=FACE_OUTER_BOUND('',#92,.T.);
#62=FACE_OUTER_BOUND('',#95,.T.);
#63=FACE_OUTER_BOUND('',#96,.T.);
#64=FACE_OUTER_BOUND('',#97,.T.);
#65=FACE_OUTER_BOUND('',#98,.T.);
#66=FACE_OUTER_BOUND('',#101,.T.);
#67=FACE_OUTER_BOUND('',#102,.T.);
#68=FACE_OUTER_BOUND('',#105,.T.);
#69=FACE_OUTER_BOUND('',#106,.T.);
#70=FACE_OUTER_BOUND('',#107,.T.);
#71=FACE_OUTER_BOUND('',#108,.T.);
#72=FACE_OUTER_BOUND('',#110,.T.);
#73=FACE_OUTER_BOUND('',#115,.T.);
#74=FACE_OUTER_BOUND('',#116,.T.);
#75=FACE_OUTER_BOUND('',#117,.T.);
#76=FACE_OUTER_BOUND('',#119,.T.);
#77=FACE_OUTER_BOUND('',#120,.T.);
#78=FACE_OUTER_BOUND('',#121,.T.);
#79=FACE_OUTER_BOUND('',#123,.T.);
#80=FACE_OUTER_BOUND('',#124,.T.);
#81=FACE_OUTER_BOUND('',#126,.T.);
#82=EDGE_LOOP('',(#350,#351,#352,#353));
#83=EDGE_LOOP('',(#354,#355,#356,#357));
#84=EDGE_LOOP('',(#358,#359,#360,#361));
#85=EDGE_LOOP('',(#362,#363,#364,#365));
#86=EDGE_LOOP('',(#366,#367));
#87=EDGE_LOOP('',(#368,#369));
#88=EDGE_LOOP('',(#370,#371,#372,#373));
#89=EDGE_LOOP('',(#374));
#90=EDGE_LOOP('',(#375));
#91=EDGE_LOOP('',(#376,#377));
#92=EDGE_LOOP('',(#378,#379,#380,#381));
#93=EDGE_LOOP('',(#382));
#94=EDGE_LOOP('',(#383));
#95=EDGE_LOOP('',(#384,#385,#386,#387,#388));
#96=EDGE_LOOP('',(#389,#390));
#97=EDGE_LOOP('',(#391,#392));
#98=EDGE_LOOP('',(#393,#394,#395,#396));
#99=EDGE_LOOP('',(#397));
#100=EDGE_LOOP('',(#398));
#101=EDGE_LOOP('',(#399,#400));
#102=EDGE_LOOP('',(#401,#402,#403,#404));
#103=EDGE_LOOP('',(#405));
#104=EDGE_LOOP('',(#406));
#105=EDGE_LOOP('',(#407,#408,#409,#410));
#106=EDGE_LOOP('',(#411,#412));
#107=EDGE_LOOP('',(#413,#414));
#108=EDGE_LOOP('',(#415,#416,#417,#418));
#109=EDGE_LOOP('',(#419));
#110=EDGE_LOOP('',(#420,#421,#422,#423,#424,#425,#426,#427,#428,#429,#430,
#431,#432,#433,#434,#435,#436,#437,#438,#439));
#111=EDGE_LOOP('',(#440,#441,#442,#443));
#112=EDGE_LOOP('',(#444,#445,#446,#447));
#113=EDGE_LOOP('',(#448,#449,#450,#451));
#114=EDGE_LOOP('',(#452,#453,#454,#455));
#115=EDGE_LOOP('',(#456,#457));
#116=EDGE_LOOP('',(#458,#459));
#117=EDGE_LOOP('',(#460,#461,#462,#463));
#118=EDGE_LOOP('',(#464));
#119=EDGE_LOOP('',(#465,#466,#467,#468));
#120=EDGE_LOOP('',(#469,#470));
#121=EDGE_LOOP('',(#471,#472,#473,#474));
#122=EDGE_LOOP('',(#475));
#123=EDGE_LOOP('',(#476,#477));
#124=EDGE_LOOP('',(#478,#479,#480,#481));
#125=EDGE_LOOP('',(#482));
#126=EDGE_LOOP('',(#483,#484,#485,#486,#487));
#127=LINE('',#761,#166);
#128=LINE('',#767,#167);
#129=LINE('',#773,#168);
#130=LINE('',#779,#169);
#131=LINE('',#785,#170);
#132=LINE('',#790,#171);
#133=LINE('',#792,#172);
#134=LINE('',#793,#173);
#135=LINE('',#798,#174);
#136=LINE('',#801,#175);
#137=LINE('',#803,#176);
#138=LINE('',#804,#177);
#139=LINE('',#809,#178);
#140=LINE('',#817,#179);
#141=LINE('',#822,#180);
#142=LINE('',#824,#181);
#143=LINE('',#825,#182);
#144=LINE('',#830,#183);
#145=LINE('',#832,#184);
#146=LINE('',#833,#185);
#147=LINE('',#838,#186);
#148=LINE('',#844,#187);
#149=LINE('',#849,#188);
#150=LINE('',#851,#189);
#151=LINE('',#852,#190);
#152=LINE('',#855,#191);
#153=LINE('',#859,#192);
#154=LINE('',#863,#193);
#155=LINE('',#867,#194);
#156=LINE('',#871,#195);
#157=LINE('',#877,#196);
#158=LINE('',#880,#197);
#159=LINE('',#882,#198);
#160=LINE('',#884,#199);
#161=LINE('',#890,#200);
#162=LINE('',#893,#201);
#163=LINE('',#895,#202);
#164=LINE('',#897,#203);
#165=LINE('',#899,#204);
#166=VECTOR('',#603,1.8);
#167=VECTOR('',#610,1.8);
#168=VECTOR('',#617,1.6);
#169=VECTOR('',#624,1.6);
#170=VECTOR('',#631,10.);
#171=VECTOR('',#636,10.);
#172=VECTOR('',#639,10.);
#173=VECTOR('',#640,10.);
#174=VECTOR('',#645,10.);
#175=VECTOR('',#648,10.);
#176=VECTOR('',#649,10.);
#177=VECTOR('',#650,10.);
#178=VECTOR('',#655,10.);
#179=VECTOR('',#664,10.);
#180=VECTOR('',#669,10.);
#181=VECTOR('',#672,10.);
#182=VECTOR('',#673,10.);
#183=VECTOR('',#678,10.);
#184=VECTOR('',#681,10.);
#185=VECTOR('',#682,10.);
#186=VECTOR('',#687,1.6);
#187=VECTOR('',#694,10.);
#188=VECTOR('',#699,10.);
#189=VECTOR('',#702,10.);
#190=VECTOR('',#703,10.);
#191=VECTOR('',#706,3.99999999999533);
#192=VECTOR('',#709,10.);
#193=VECTOR('',#712,10.);
#194=VECTOR('',#715,10.);
#195=VECTOR('',#718,10.);
#196=VECTOR('',#723,10.);
#197=VECTOR('',#726,10.);
#198=VECTOR('',#729,10.);
#199=VECTOR('',#732,10.);
#200=VECTOR('',#739,1.6);
#201=VECTOR('',#744,10.);
#202=VECTOR('',#747,10.);
#203=VECTOR('',#750,10.);
#204=VECTOR('',#753,10.);
#205=CIRCLE('',#539,1.8);
#206=CIRCLE('',#540,1.8);
#207=CIRCLE('',#542,1.8);
#208=CIRCLE('',#543,1.8);
#209=CIRCLE('',#545,1.6);
#210=CIRCLE('',#546,1.6);
#211=CIRCLE('',#548,1.6);
#212=CIRCLE('',#549,1.6);
#213=CIRCLE('',#551,3.99999999999533);
#214=CIRCLE('',#553,3.99999999999533);
#215=CIRCLE('',#556,3.99999999999533);
#216=CIRCLE('',#559,3.99999999999089);
#217=CIRCLE('',#560,3.99999999999089);
#218=CIRCLE('',#561,3.99999999999089);
#219=CIRCLE('',#563,3.99999999999533);
#220=CIRCLE('',#565,3.99999999999533);
#221=CIRCLE('',#568,3.99999999999533);
#222=CIRCLE('',#571,1.6);
#223=CIRCLE('',#572,1.6);
#224=CIRCLE('',#574,3.99999999999533);
#225=CIRCLE('',#576,3.99999999999533);
#226=CIRCLE('',#579,3.99999999999977);
#227=CIRCLE('',#580,3.99999999999533);
#228=CIRCLE('',#581,3.99999999999977);
#229=CIRCLE('',#582,3.99999999999533);
#230=CIRCLE('',#583,3.99999999999977);
#231=CIRCLE('',#584,3.99999999999533);
#232=CIRCLE('',#585,3.99999999999533);
#233=CIRCLE('',#590,1.6);
#234=CIRCLE('',#591,1.6);
#235=VERTEX_POINT('',#758);
#236=VERTEX_POINT('',#760);
#237=VERTEX_POINT('',#764);
#238=VERTEX_POINT('',#766);
#239=VERTEX_POINT('',#770);
#240=VERTEX_POINT('',#772);
#241=VERTEX_POINT('',#776);
#242=VERTEX_POINT('',#778);
#243=VERTEX_POINT('',#782);
#244=VERTEX_POINT('',#783);
#245=VERTEX_POINT('',#787);
#246=VERTEX_POINT('',#788);
#247=VERTEX_POINT('',#795);
#248=VERTEX_POINT('',#796);
#249=VERTEX_POINT('',#800);
#250=VERTEX_POINT('',#802);
#251=VERTEX_POINT('',#806);
#252=VERTEX_POINT('',#808);
#253=VERTEX_POINT('',#810);
#254=VERTEX_POINT('',#814);
#255=VERTEX_POINT('',#815);
#256=VERTEX_POINT('',#819);
#257=VERTEX_POINT('',#820);
#258=VERTEX_POINT('',#827);
#259=VERTEX_POINT('',#828);
#260=VERTEX_POINT('',#835);
#261=VERTEX_POINT('',#837);
#262=VERTEX_POINT('',#841);
#263=VERTEX_POINT('',#842);
#264=VERTEX_POINT('',#846);
#265=VERTEX_POINT('',#847);
#266=VERTEX_POINT('',#854);
#267=VERTEX_POINT('',#856);
#268=VERTEX_POINT('',#858);
#269=VERTEX_POINT('',#860);
#270=VERTEX_POINT('',#862);
#271=VERTEX_POINT('',#864);
#272=VERTEX_POINT('',#866);
#273=VERTEX_POINT('',#868);
#274=VERTEX_POINT('',#870);
#275=VERTEX_POINT('',#873);
#276=VERTEX_POINT('',#874);
#277=VERTEX_POINT('',#876);
#278=VERTEX_POINT('',#878);
#279=VERTEX_POINT('',#887);
#280=VERTEX_POINT('',#889);
#281=EDGE_CURVE('',#235,#235,#205,.T.);
#282=EDGE_CURVE('',#235,#236,#127,.T.);
#283=EDGE_CURVE('',#236,#236,#206,.T.);
#284=EDGE_CURVE('',#237,#237,#207,.T.);
#285=EDGE_CURVE('',#237,#238,#128,.T.);
#286=EDGE_CURVE('',#238,#238,#208,.T.);
#287=EDGE_CURVE('',#239,#239,#209,.T.);
#288=EDGE_CURVE('',#239,#240,#129,.T.);
#289=EDGE_CURVE('',#240,#240,#210,.T.);
#290=EDGE_CURVE('',#241,#241,#211,.T.);
#291=EDGE_CURVE('',#241,#242,#130,.T.);
#292=EDGE_CURVE('',#242,#242,#212,.T.);
#293=EDGE_CURVE('',#243,#244,#213,.T.);
#294=EDGE_CURVE('',#243,#244,#131,.T.);
#295=EDGE_CURVE('',#245,#246,#214,.T.);
#296=EDGE_CURVE('',#245,#246,#132,.T.);
#297=EDGE_CURVE('',#246,#243,#133,.T.);
#298=EDGE_CURVE('',#244,#245,#134,.T.);
#299=EDGE_CURVE('',#247,#248,#215,.T.);
#300=EDGE_CURVE('',#247,#248,#135,.T.);
#301=EDGE_CURVE('',#248,#249,#136,.T.);
#302=EDGE_CURVE('',#250,#247,#137,.T.);
#303=EDGE_CURVE('',#249,#250,#138,.T.);
#304=EDGE_CURVE('',#250,#251,#216,.T.);
#305=EDGE_CURVE('',#251,#252,#139,.T.);
#306=EDGE_CURVE('',#252,#253,#217,.T.);
#307=EDGE_CURVE('',#253,#249,#218,.T.);
#308=EDGE_CURVE('',#254,#255,#219,.T.);
#309=EDGE_CURVE('',#255,#254,#140,.T.);
#310=EDGE_CURVE('',#256,#257,#220,.T.);
#311=EDGE_CURVE('',#257,#256,#141,.T.);
#312=EDGE_CURVE('',#257,#254,#142,.T.);
#313=EDGE_CURVE('',#255,#256,#143,.T.);
#314=EDGE_CURVE('',#258,#259,#221,.T.);
#315=EDGE_CURVE('',#259,#258,#144,.T.);
#316=EDGE_CURVE('',#259,#251,#145,.T.);
#317=EDGE_CURVE('',#252,#258,#146,.T.);
#318=EDGE_CURVE('',#260,#260,#222,.T.);
#319=EDGE_CURVE('',#260,#261,#147,.T.);
#320=EDGE_CURVE('',#261,#261,#223,.T.);
#321=EDGE_CURVE('',#262,#263,#224,.T.);
#322=EDGE_CURVE('',#263,#262,#148,.T.);
#323=EDGE_CURVE('',#264,#265,#225,.T.);
#324=EDGE_CURVE('',#265,#264,#149,.T.);
#325=EDGE_CURVE('',#265,#262,#150,.T.);
#326=EDGE_CURVE('',#263,#264,#151,.T.);
#327=EDGE_CURVE('',#253,#266,#152,.T.);
#328=EDGE_CURVE('',#266,#267,#226,.T.);
#329=EDGE_CURVE('',#267,#268,#153,.T.);
#330=EDGE_CURVE('',#268,#269,#227,.T.);
#331=EDGE_CURVE('',#269,#270,#154,.T.);
#332=EDGE_CURVE('',#270,#271,#228,.T.);
#333=EDGE_CURVE('',#271,#272,#155,.T.);
#334=EDGE_CURVE('',#272,#273,#229,.T.);
#335=EDGE_CURVE('',#273,#274,#156,.T.);
#336=EDGE_CURVE('',#274,#266,#230,.T.);
#337=EDGE_CURVE('',#275,#276,#231,.T.);
#338=EDGE_CURVE('',#276,#277,#157,.T.);
#339=EDGE_CURVE('',#277,#278,#232,.T.);
#340=EDGE_CURVE('',#278,#275,#158,.T.);
#341=EDGE_CURVE('',#277,#278,#159,.T.);
#342=EDGE_CURVE('',#275,#276,#160,.T.);
#343=EDGE_CURVE('',#279,#279,#233,.T.);
#344=EDGE_CURVE('',#279,#280,#161,.T.);
#345=EDGE_CURVE('',#280,#280,#234,.T.);
#346=EDGE_CURVE('',#269,#268,#162,.T.);
#347=EDGE_CURVE('',#270,#267,#163,.T.);
#348=EDGE_CURVE('',#272,#273,#164,.T.);
#349=EDGE_CURVE('',#274,#271,#165,.T.);
#350=ORIENTED_EDGE('',*,*,#281,.F.);
#351=ORIENTED_EDGE('',*,*,#282,.T.);
#352=ORIENTED_EDGE('',*,*,#283,.F.);
#353=ORIENTED_EDGE('',*,*,#282,.F.);
#354=ORIENTED_EDGE('',*,*,#284,.F.);
#355=ORIENTED_EDGE('',*,*,#285,.T.);
#356=ORIENTED_EDGE('',*,*,#286,.F.);
#357=ORIENTED_EDGE('',*,*,#285,.F.);
#358=ORIENTED_EDGE('',*,*,#287,.F.);
#359=ORIENTED_EDGE('',*,*,#288,.T.);
#360=ORIENTED_EDGE('',*,*,#289,.F.);
#361=ORIENTED_EDGE('',*,*,#288,.F.);
#362=ORIENTED_EDGE('',*,*,#290,.F.);
#363=ORIENTED_EDGE('',*,*,#291,.T.);
#364=ORIENTED_EDGE('',*,*,#292,.F.);
#365=ORIENTED_EDGE('',*,*,#291,.F.);
#366=ORIENTED_EDGE('',*,*,#293,.F.);
#367=ORIENTED_EDGE('',*,*,#294,.T.);
#368=ORIENTED_EDGE('',*,*,#295,.F.);
#369=ORIENTED_EDGE('',*,*,#296,.T.);
#370=ORIENTED_EDGE('',*,*,#297,.F.);
#371=ORIENTED_EDGE('',*,*,#296,.F.);
#372=ORIENTED_EDGE('',*,*,#298,.F.);
#373=ORIENTED_EDGE('',*,*,#294,.F.);
#374=ORIENTED_EDGE('',*,*,#281,.T.);
#375=ORIENTED_EDGE('',*,*,#284,.T.);
#376=ORIENTED_EDGE('',*,*,#299,.F.);
#377=ORIENTED_EDGE('',*,*,#300,.T.);
#378=ORIENTED_EDGE('',*,*,#301,.F.);
#379=ORIENTED_EDGE('',*,*,#300,.F.);
#380=ORIENTED_EDGE('',*,*,#302,.F.);
#381=ORIENTED_EDGE('',*,*,#303,.F.);
#382=ORIENTED_EDGE('',*,*,#287,.T.);
#383=ORIENTED_EDGE('',*,*,#290,.T.);
#384=ORIENTED_EDGE('',*,*,#303,.T.);
#385=ORIENTED_EDGE('',*,*,#304,.T.);
#386=ORIENTED_EDGE('',*,*,#305,.T.);
#387=ORIENTED_EDGE('',*,*,#306,.T.);
#388=ORIENTED_EDGE('',*,*,#307,.T.);
#389=ORIENTED_EDGE('',*,*,#308,.F.);
#390=ORIENTED_EDGE('',*,*,#309,.F.);
#391=ORIENTED_EDGE('',*,*,#310,.F.);
#392=ORIENTED_EDGE('',*,*,#311,.F.);
#393=ORIENTED_EDGE('',*,*,#312,.F.);
#394=ORIENTED_EDGE('',*,*,#311,.T.);
#395=ORIENTED_EDGE('',*,*,#313,.F.);
#396=ORIENTED_EDGE('',*,*,#309,.T.);
#397=ORIENTED_EDGE('',*,*,#283,.T.);
#398=ORIENTED_EDGE('',*,*,#286,.T.);
#399=ORIENTED_EDGE('',*,*,#314,.F.);
#400=ORIENTED_EDGE('',*,*,#315,.F.);
#401=ORIENTED_EDGE('',*,*,#316,.F.);
#402=ORIENTED_EDGE('',*,*,#315,.T.);
#403=ORIENTED_EDGE('',*,*,#317,.F.);
#404=ORIENTED_EDGE('',*,*,#305,.F.);
#405=ORIENTED_EDGE('',*,*,#289,.T.);
#406=ORIENTED_EDGE('',*,*,#292,.T.);
#407=ORIENTED_EDGE('',*,*,#318,.F.);
#408=ORIENTED_EDGE('',*,*,#319,.T.);
#409=ORIENTED_EDGE('',*,*,#320,.F.);
#410=ORIENTED_EDGE('',*,*,#319,.F.);
#411=ORIENTED_EDGE('',*,*,#321,.F.);
#412=ORIENTED_EDGE('',*,*,#322,.F.);
#413=ORIENTED_EDGE('',*,*,#323,.F.);
#414=ORIENTED_EDGE('',*,*,#324,.F.);
#415=ORIENTED_EDGE('',*,*,#325,.F.);
#416=ORIENTED_EDGE('',*,*,#324,.T.);
#417=ORIENTED_EDGE('',*,*,#326,.F.);
#418=ORIENTED_EDGE('',*,*,#322,.T.);
#419=ORIENTED_EDGE('',*,*,#320,.T.);
#420=ORIENTED_EDGE('',*,*,#301,.T.);
#421=ORIENTED_EDGE('',*,*,#307,.F.);
#422=ORIENTED_EDGE('',*,*,#327,.T.);
#423=ORIENTED_EDGE('',*,*,#328,.T.);
#424=ORIENTED_EDGE('',*,*,#329,.T.);
#425=ORIENTED_EDGE('',*,*,#330,.T.);
#426=ORIENTED_EDGE('',*,*,#331,.T.);
#427=ORIENTED_EDGE('',*,*,#332,.T.);
#428=ORIENTED_EDGE('',*,*,#333,.T.);
#429=ORIENTED_EDGE('',*,*,#334,.T.);
#430=ORIENTED_EDGE('',*,*,#335,.T.);
#431=ORIENTED_EDGE('',*,*,#336,.T.);
#432=ORIENTED_EDGE('',*,*,#327,.F.);
#433=ORIENTED_EDGE('',*,*,#306,.F.);
#434=ORIENTED_EDGE('',*,*,#317,.T.);
#435=ORIENTED_EDGE('',*,*,#314,.T.);
#436=ORIENTED_EDGE('',*,*,#316,.T.);
#437=ORIENTED_EDGE('',*,*,#304,.F.);
#438=ORIENTED_EDGE('',*,*,#302,.T.);
#439=ORIENTED_EDGE('',*,*,#299,.T.);
#440=ORIENTED_EDGE('',*,*,#295,.T.);
#441=ORIENTED_EDGE('',*,*,#297,.T.);
#442=ORIENTED_EDGE('',*,*,#293,.T.);
#443=ORIENTED_EDGE('',*,*,#298,.T.);
#444=ORIENTED_EDGE('',*,*,#310,.T.);
#445=ORIENTED_EDGE('',*,*,#312,.T.);
#446=ORIENTED_EDGE('',*,*,#308,.T.);
#447=ORIENTED_EDGE('',*,*,#313,.T.);
#448=ORIENTED_EDGE('',*,*,#337,.T.);
#449=ORIENTED_EDGE('',*,*,#338,.T.);
#450=ORIENTED_EDGE('',*,*,#339,.T.);
#451=ORIENTED_EDGE('',*,*,#340,.T.);
#452=ORIENTED_EDGE('',*,*,#323,.T.);
#453=ORIENTED_EDGE('',*,*,#325,.T.);
#454=ORIENTED_EDGE('',*,*,#321,.T.);
#455=ORIENTED_EDGE('',*,*,#326,.T.);
#456=ORIENTED_EDGE('',*,*,#339,.F.);
#457=ORIENTED_EDGE('',*,*,#341,.T.);
#458=ORIENTED_EDGE('',*,*,#337,.F.);
#459=ORIENTED_EDGE('',*,*,#342,.T.);
#460=ORIENTED_EDGE('',*,*,#338,.F.);
#461=ORIENTED_EDGE('',*,*,#342,.F.);
#462=ORIENTED_EDGE('',*,*,#340,.F.);
#463=ORIENTED_EDGE('',*,*,#341,.F.);
#464=ORIENTED_EDGE('',*,*,#318,.T.);
#465=ORIENTED_EDGE('',*,*,#343,.F.);
#466=ORIENTED_EDGE('',*,*,#344,.T.);
#467=ORIENTED_EDGE('',*,*,#345,.F.);
#468=ORIENTED_EDGE('',*,*,#344,.F.);
#469=ORIENTED_EDGE('',*,*,#330,.F.);
#470=ORIENTED_EDGE('',*,*,#346,.F.);
#471=ORIENTED_EDGE('',*,*,#329,.F.);
#472=ORIENTED_EDGE('',*,*,#347,.F.);
#473=ORIENTED_EDGE('',*,*,#331,.F.);
#474=ORIENTED_EDGE('',*,*,#346,.T.);
#475=ORIENTED_EDGE('',*,*,#343,.T.);
#476=ORIENTED_EDGE('',*,*,#334,.F.);
#477=ORIENTED_EDGE('',*,*,#348,.T.);
#478=ORIENTED_EDGE('',*,*,#333,.F.);
#479=ORIENTED_EDGE('',*,*,#349,.F.);
#480=ORIENTED_EDGE('',*,*,#335,.F.);
#481=ORIENTED_EDGE('',*,*,#348,.F.);
#482=ORIENTED_EDGE('',*,*,#345,.T.);
#483=ORIENTED_EDGE('',*,*,#347,.T.);
#484=ORIENTED_EDGE('',*,*,#328,.F.);
#485=ORIENTED_EDGE('',*,*,#336,.F.);
#486=ORIENTED_EDGE('',*,*,#349,.T.);
#487=ORIENTED_EDGE('',*,*,#332,.F.);
#488=CYLINDRICAL_SURFACE('',#538,1.8);
#489=CYLINDRICAL_SURFACE('',#541,1.8);
#490=CYLINDRICAL_SURFACE('',#544,1.6);
#491=CYLINDRICAL_SURFACE('',#547,1.6);
#492=CYLINDRICAL_SURFACE('',#570,1.6);
#493=CYLINDRICAL_SURFACE('',#578,3.99999999999533);
#494=CYLINDRICAL_SURFACE('',#589,1.6);
#495=ADVANCED_FACE('',(#53),#488,.F.);
#496=ADVANCED_FACE('',(#54),#489,.F.);
#497=ADVANCED_FACE('',(#55),#490,.F.);
#498=ADVANCED_FACE('',(#56),#491,.F.);
#499=ADVANCED_FACE('',(#57),#31,.F.);
#500=ADVANCED_FACE('',(#58),#32,.F.);
#501=ADVANCED_FACE('',(#59,#15,#16),#33,.F.);
#502=ADVANCED_FACE('',(#60),#34,.F.);
#503=ADVANCED_FACE('',(#61,#17,#18),#35,.F.);
#504=ADVANCED_FACE('',(#62),#36,.T.);
#505=ADVANCED_FACE('',(#63),#37,.F.);
#506=ADVANCED_FACE('',(#64),#38,.F.);
#507=ADVANCED_FACE('',(#65,#19,#20),#39,.T.);
#508=ADVANCED_FACE('',(#66),#40,.F.);
#509=ADVANCED_FACE('',(#67,#21,#22),#41,.T.);
#510=ADVANCED_FACE('',(#68),#492,.F.);
#511=ADVANCED_FACE('',(#69),#42,.F.);
#512=ADVANCED_FACE('',(#70),#43,.F.);
#513=ADVANCED_FACE('',(#71,#23),#44,.T.);
#514=ADVANCED_FACE('',(#72,#24,#25,#26,#27),#493,.T.);
#515=ADVANCED_FACE('',(#73),#45,.F.);
#516=ADVANCED_FACE('',(#74),#46,.F.);
#517=ADVANCED_FACE('',(#75,#28),#47,.F.);
#518=ADVANCED_FACE('',(#76),#494,.F.);
#519=ADVANCED_FACE('',(#77),#48,.F.);
#520=ADVANCED_FACE('',(#78,#29),#49,.F.);
#521=ADVANCED_FACE('',(#79),#50,.F.);
#522=ADVANCED_FACE('',(#80,#30),#51,.T.);
#523=ADVANCED_FACE('',(#81),#52,.T.);
#524=CLOSED_SHELL('',(#495,#496,#497,#498,#499,#500,#501,#502,#503,#504,
#505,#506,#507,#508,#509,#510,#511,#512,#513,#514,#515,#516,#517,#518,#519,
#520,#521,#522,#523));
#525=DERIVED_UNIT_ELEMENT(#527,1.);
#526=DERIVED_UNIT_ELEMENT(#906,-3.);
#527=(
MASS_UNIT()
NAMED_UNIT(*)
SI_UNIT(.KILO.,.GRAM.)
);
#528=DERIVED_UNIT((#525,#526));
#529=MEASURE_REPRESENTATION_ITEM('density measure',
POSITIVE_RATIO_MEASURE(7850.),#528);
#530=PROPERTY_DEFINITION_REPRESENTATION(#535,#532);
#531=PROPERTY_DEFINITION_REPRESENTATION(#536,#533);
#532=REPRESENTATION('material name',(#534),#903);
#533=REPRESENTATION('density',(#529),#903);
#534=DESCRIPTIVE_REPRESENTATION_ITEM('Steel','Steel');
#535=PROPERTY_DEFINITION('material property','material name',#913);
#536=PROPERTY_DEFINITION('material property','density of part',#913);
#537=AXIS2_PLACEMENT_3D('',#756,#597,#598);
#538=AXIS2_PLACEMENT_3D('',#757,#599,#600);
#539=AXIS2_PLACEMENT_3D('',#759,#601,#602);
#540=AXIS2_PLACEMENT_3D('',#762,#604,#605);
#541=AXIS2_PLACEMENT_3D('',#763,#606,#607);
#542=AXIS2_PLACEMENT_3D('',#765,#608,#609);
#543=AXIS2_PLACEMENT_3D('',#768,#611,#612);
#544=AXIS2_PLACEMENT_3D('',#769,#613,#614);
#545=AXIS2_PLACEMENT_3D('',#771,#615,#616);
#546=AXIS2_PLACEMENT_3D('',#774,#618,#619);
#547=AXIS2_PLACEMENT_3D('',#775,#620,#621);
#548=AXIS2_PLACEMENT_3D('',#777,#622,#623);
#549=AXIS2_PLACEMENT_3D('',#780,#625,#626);
#550=AXIS2_PLACEMENT_3D('',#781,#627,#628);
#551=AXIS2_PLACEMENT_3D('',#784,#629,#630);
#552=AXIS2_PLACEMENT_3D('',#786,#632,#633);
#553=AXIS2_PLACEMENT_3D('',#789,#634,#635);
#554=AXIS2_PLACEMENT_3D('',#791,#637,#638);
#555=AXIS2_PLACEMENT_3D('',#794,#641,#642);
#556=AXIS2_PLACEMENT_3D('',#797,#643,#644);
#557=AXIS2_PLACEMENT_3D('',#799,#646,#647);
#558=AXIS2_PLACEMENT_3D('',#805,#651,#652);
#559=AXIS2_PLACEMENT_3D('',#807,#653,#654);
#560=AXIS2_PLACEMENT_3D('',#811,#656,#657);
#561=AXIS2_PLACEMENT_3D('',#812,#658,#659);
#562=AXIS2_PLACEMENT_3D('',#813,#660,#661);
#563=AXIS2_PLACEMENT_3D('',#816,#662,#663);
#564=AXIS2_PLACEMENT_3D('',#818,#665,#666);
#565=AXIS2_PLACEMENT_3D('',#821,#667,#668);
#566=AXIS2_PLACEMENT_3D('',#823,#670,#671);
#567=AXIS2_PLACEMENT_3D('',#826,#674,#675);
#568=AXIS2_PLACEMENT_3D('',#829,#676,#677);
#569=AXIS2_PLACEMENT_3D('',#831,#679,#680);
#570=AXIS2_PLACEMENT_3D('',#834,#683,#684);
#571=AXIS2_PLACEMENT_3D('',#836,#685,#686);
#572=AXIS2_PLACEMENT_3D('',#839,#688,#689);
#573=AXIS2_PLACEMENT_3D('',#840,#690,#691);
#574=AXIS2_PLACEMENT_3D('',#843,#692,#693);
#575=AXIS2_PLACEMENT_3D('',#845,#695,#696);
#576=AXIS2_PLACEMENT_3D('',#848,#697,#698);
#577=AXIS2_PLACEMENT_3D('',#850,#700,#701);
#578=AXIS2_PLACEMENT_3D('',#853,#704,#705);
#579=AXIS2_PLACEMENT_3D('',#857,#707,#708);
#580=AXIS2_PLACEMENT_3D('',#861,#710,#711);
#581=AXIS2_PLACEMENT_3D('',#865,#713,#714);
#582=AXIS2_PLACEMENT_3D('',#869,#716,#717);
#583=AXIS2_PLACEMENT_3D('',#872,#719,#720);
#584=AXIS2_PLACEMENT_3D('',#875,#721,#722);
#585=AXIS2_PLACEMENT_3D('',#879,#724,#725);
#586=AXIS2_PLACEMENT_3D('',#881,#727,#728);
#587=AXIS2_PLACEMENT_3D('',#883,#730,#731);
#588=AXIS2_PLACEMENT_3D('',#885,#733,#734);
#589=AXIS2_PLACEMENT_3D('',#886,#735,#736);
#590=AXIS2_PLACEMENT_3D('',#888,#737,#738);
#591=AXIS2_PLACEMENT_3D('',#891,#740,#741);
#592=AXIS2_PLACEMENT_3D('',#892,#742,#743);
#593=AXIS2_PLACEMENT_3D('',#894,#745,#746);
#594=AXIS2_PLACEMENT_3D('',#896,#748,#749);
#595=AXIS2_PLACEMENT_3D('',#898,#751,#752);
#596=AXIS2_PLACEMENT_3D('',#900,#754,#755);
#597=DIRECTION('axis',(0.,0.,1.));
#598=DIRECTION('refdir',(1.,0.,0.));
#599=DIRECTION('center_axis',(0.,1.,0.));
#600=DIRECTION('ref_axis',(1.,0.,0.));
#601=DIRECTION('center_axis',(0.,1.,0.));
#602=DIRECTION('ref_axis',(1.,0.,0.));
#603=DIRECTION('',(0.,1.,0.));
#604=DIRECTION('center_axis',(0.,-1.,0.));
#605=DIRECTION('ref_axis',(1.,0.,0.));
#606=DIRECTION('center_axis',(0.,1.,0.));
#607=DIRECTION('ref_axis',(1.,0.,0.));
#608=DIRECTION('center_axis',(0.,1.,0.));
#609=DIRECTION('ref_axis',(1.,0.,0.));
#610=DIRECTION('',(0.,1.,0.));
#611=DIRECTION('center_axis',(0.,-1.,0.));
#612=DIRECTION('ref_axis',(1.,0.,0.));
#613=DIRECTION('center_axis',(0.,1.,0.));
#614=DIRECTION('ref_axis',(1.,0.,0.));
#615=DIRECTION('center_axis',(0.,1.,0.));
#616=DIRECTION('ref_axis',(1.,0.,0.));
#617=DIRECTION('',(0.,1.,0.));
#618=DIRECTION('center_axis',(0.,-1.,0.));
#619=DIRECTION('ref_axis',(1.,0.,0.));
#620=DIRECTION('center_axis',(0.,1.,0.));
#621=DIRECTION('ref_axis',(1.,0.,0.));
#622=DIRECTION('center_axis',(0.,1.,0.));
#623=DIRECTION('ref_axis',(1.,0.,0.));
#624=DIRECTION('',(0.,1.,0.));
#625=DIRECTION('center_axis',(0.,-1.,0.));
#626=DIRECTION('ref_axis',(1.,0.,0.));
#627=DIRECTION('center_axis',(1.,0.,0.));
#628=DIRECTION('ref_axis',(0.,0.,1.));
#629=DIRECTION('center_axis',(1.,0.,0.));
#630=DIRECTION('ref_axis',(-4.08975588279421E-14,0.,-1.));
#631=DIRECTION('',(0.,0.,-1.));
#632=DIRECTION('center_axis',(-1.,0.,0.));
#633=DIRECTION('ref_axis',(0.,0.,-1.));
#634=DIRECTION('center_axis',(-1.,0.,0.));
#635=DIRECTION('ref_axis',(-4.08975588279421E-14,0.,-1.));
#636=DIRECTION('',(0.,0.,1.));
#637=DIRECTION('center_axis',(0.,1.,0.));
#638=DIRECTION('ref_axis',(1.,0.,0.));
#639=DIRECTION('',(1.,0.,-4.440892098511E-14));
#640=DIRECTION('',(-1.,0.,4.440892098511E-14));
#641=DIRECTION('center_axis',(-1.,0.,0.));
#642=DIRECTION('ref_axis',(0.,0.,-1.));
#643=DIRECTION('center_axis',(-1.,0.,0.));
#644=DIRECTION('ref_axis',(-4.08975588279421E-14,0.,-1.));
#645=DIRECTION('',(0.,0.,1.));
#646=DIRECTION('center_axis',(0.,1.,0.));
#647=DIRECTION('ref_axis',(1.,0.,0.));
#648=DIRECTION('',(1.,0.,-4.440892098511E-14));
#649=DIRECTION('',(-1.,0.,4.440892098511E-14));
#650=DIRECTION('',(-4.440892098511E-14,0.,-1.));
#651=DIRECTION('center_axis',(1.,0.,-4.440892098511E-14));
#652=DIRECTION('ref_axis',(-4.440892098511E-14,0.,-1.));
#653=DIRECTION('center_axis',(1.,0.,-4.440892098511E-14));
#654=DIRECTION('ref_axis',(-4.440892098511E-14,0.,-1.));
#655=DIRECTION('',(4.440892098511E-14,0.,1.));
#656=DIRECTION('center_axis',(1.,0.,-4.440892098511E-14));
#657=DIRECTION('ref_axis',(-4.440892098511E-14,0.,-1.));
#658=DIRECTION('center_axis',(1.,0.,-4.440892098511E-14));
#659=DIRECTION('ref_axis',(-4.440892098511E-14,0.,-1.));
#660=DIRECTION('center_axis',(1.,0.,0.));
#661=DIRECTION('ref_axis',(0.,0.,-1.));
#662=DIRECTION('center_axis',(1.,0.,0.));
#663=DIRECTION('ref_axis',(-4.08975588279421E-14,0.,-1.));
#664=DIRECTION('',(0.,0.,-1.));
#665=DIRECTION('center_axis',(-1.,0.,0.));
#666=DIRECTION('ref_axis',(0.,0.,1.));
#667=DIRECTION('center_axis',(-1.,0.,0.));
#668=DIRECTION('ref_axis',(-4.08975588279421E-14,0.,-1.));
#669=DIRECTION('',(0.,0.,1.));
#670=DIRECTION('center_axis',(0.,1.,0.));
#671=DIRECTION('ref_axis',(1.,0.,0.));
#672=DIRECTION('',(1.,0.,-4.440892098511E-14));
#673=DIRECTION('',(-1.,0.,4.440892098511E-14));
#674=DIRECTION('center_axis',(-1.,0.,0.));
#675=DIRECTION('ref_axis',(0.,0.,1.));
#676=DIRECTION('center_axis',(-1.,0.,0.));
#677=DIRECTION('ref_axis',(-4.08975588279421E-14,0.,-1.));
#678=DIRECTION('',(0.,0.,1.));
#679=DIRECTION('center_axis',(0.,1.,0.));
#680=DIRECTION('ref_axis',(1.,0.,0.));
#681=DIRECTION('',(1.,0.,-4.440892098511E-14));
#682=DIRECTION('',(-1.,0.,4.440892098511E-14));
#683=DIRECTION('center_axis',(0.,1.,0.));
#684=DIRECTION('ref_axis',(1.,0.,0.));
#685=DIRECTION('center_axis',(0.,1.,0.));
#686=DIRECTION('ref_axis',(1.,0.,0.));
#687=DIRECTION('',(0.,1.,0.));
#688=DIRECTION('center_axis',(0.,-1.,0.));
#689=DIRECTION('ref_axis',(1.,0.,0.));
#690=DIRECTION('center_axis',(1.,0.,0.));
#691=DIRECTION('ref_axis',(0.,0.,-1.));
#692=DIRECTION('center_axis',(1.,0.,0.));
#693=DIRECTION('ref_axis',(-4.08975588279421E-14,0.,-1.));
#694=DIRECTION('',(0.,0.,-1.));
#695=DIRECTION('center_axis',(-1.,0.,0.));
#696=DIRECTION('ref_axis',(0.,0.,1.));
#697=DIRECTION('center_axis',(-1.,0.,0.));
#698=DIRECTION('ref_axis',(-4.08975588279421E-14,0.,-1.));
#699=DIRECTION('',(0.,0.,1.));
#700=DIRECTION('center_axis',(0.,1.,0.));
#701=DIRECTION('ref_axis',(1.,0.,0.));
#702=DIRECTION('',(1.,0.,-4.440892098511E-14));
#703=DIRECTION('',(-1.,0.,4.440892098511E-14));
#704=DIRECTION('center_axis',(1.,0.,-4.440892098511E-14));
#705=DIRECTION('ref_axis',(-4.08975588279421E-14,0.,-1.));
#706=DIRECTION('',(-1.,0.,4.440892098511E-14));
#707=DIRECTION('center_axis',(1.,0.,-4.440892098511E-14));
#708=DIRECTION('ref_axis',(-4.440892098511E-14,0.,-1.));
#709=DIRECTION('',(1.,0.,-4.440892098511E-14));
#710=DIRECTION('center_axis',(1.,0.,0.));
#711=DIRECTION('ref_axis',(-4.08975588279421E-14,0.,-1.));
#712=DIRECTION('',(-1.,0.,4.440892098511E-14));
#713=DIRECTION('center_axis',(1.,0.,-4.440892098511E-14));
#714=DIRECTION('ref_axis',(-4.440892098511E-14,0.,-1.));
#715=DIRECTION('',(1.,0.,-4.440892098511E-14));
#716=DIRECTION('center_axis',(1.,0.,0.));
#717=DIRECTION('ref_axis',(-4.08975588279421E-14,0.,-1.));
#718=DIRECTION('',(-1.,0.,4.440892098511E-14));
#719=DIRECTION('center_axis',(1.,0.,-4.440892098511E-14));
#720=DIRECTION('ref_axis',(-4.440892098511E-14,0.,-1.));
#721=DIRECTION('center_axis',(-1.,0.,0.));
#722=DIRECTION('ref_axis',(-4.08975588279421E-14,0.,-1.));
#723=DIRECTION('',(1.,0.,-4.440892098511E-14));
#724=DIRECTION('center_axis',(1.,0.,0.));
#725=DIRECTION('ref_axis',(-4.08975588279421E-14,0.,-1.));
#726=DIRECTION('',(-1.,0.,4.440892098511E-14));
#727=DIRECTION('center_axis',(1.,0.,0.));
#728=DIRECTION('ref_axis',(0.,0.,1.));
#729=DIRECTION('',(0.,0.,-1.));
#730=DIRECTION('center_axis',(-1.,0.,0.));
#731=DIRECTION('ref_axis',(0.,0.,-1.));
#732=DIRECTION('',(0.,0.,1.));
#733=DIRECTION('center_axis',(0.,1.,0.));
#734=DIRECTION('ref_axis',(1.,0.,0.));
#735=DIRECTION('center_axis',(0.,1.,0.));
#736=DIRECTION('ref_axis',(1.,0.,0.));
#737=DIRECTION('center_axis',(0.,1.,0.));
#738=DIRECTION('ref_axis',(1.,0.,0.));
#739=DIRECTION('',(0.,1.,0.));
#740=DIRECTION('center_axis',(0.,-1.,0.));
#741=DIRECTION('ref_axis',(1.,0.,0.));
#742=DIRECTION('center_axis',(1.,0.,0.));
#743=DIRECTION('ref_axis',(0.,0.,1.));
#744=DIRECTION('',(0.,0.,1.));
#745=DIRECTION('center_axis',(0.,1.,0.));
#746=DIRECTION('ref_axis',(1.,0.,0.));
#747=DIRECTION('',(4.440892098511E-14,0.,1.));
#748=DIRECTION('center_axis',(1.,0.,0.));
#749=DIRECTION('ref_axis',(0.,0.,-1.));
#750=DIRECTION('',(0.,0.,1.));
#751=DIRECTION('center_axis',(0.,1.,0.));
#752=DIRECTION('ref_axis',(1.,0.,0.));
#753=DIRECTION('',(-4.440892098511E-14,0.,-1.));
#754=DIRECTION('center_axis',(-1.,0.,4.440892098511E-14));
#755=DIRECTION('ref_axis',(4.440892098511E-14,0.,1.));
#756=CARTESIAN_POINT('',(0.,0.,0.));
#757=CARTESIAN_POINT('Origin',(151.300000000001,-2.,-3.7944528068773E-15));
#758=CARTESIAN_POINT('',(149.500000000001,-2.,-4.01488923072382E-15));
#759=CARTESIAN_POINT('Origin',(151.300000000001,-2.,-3.7944528068773E-15));
#760=CARTESIAN_POINT('',(149.500000000001,2.,-4.01488923072382E-15));
#761=CARTESIAN_POINT('',(149.500000000001,-2.,-3.57401638303078E-15));
#762=CARTESIAN_POINT('Origin',(151.300000000001,2.,-3.7944528068773E-15));
#763=CARTESIAN_POINT('Origin',(137.3,-2.,-1.72203649424341E-15));
#764=CARTESIAN_POINT('',(135.5,-2.,-1.94247291808993E-15));
#765=CARTESIAN_POINT('Origin',(137.3,-2.,-1.72203649424341E-15));
#766=CARTESIAN_POINT('',(135.5,2.,-1.94247291808993E-15));
#767=CARTESIAN_POINT('',(135.5,-2.,-1.50160007039689E-15));
#768=CARTESIAN_POINT('Origin',(137.3,2.,-1.72203649424341E-15));
#769=CARTESIAN_POINT('Origin',(217.,-2.,-1.38601634207877E-14));
#770=CARTESIAN_POINT('',(215.4,-2.,-1.40561069086513E-14));
#771=CARTESIAN_POINT('Origin',(217.,-2.,-1.38601634207877E-14));
#772=CARTESIAN_POINT('',(215.4,2.,-1.40561069086513E-14));
#773=CARTESIAN_POINT('',(215.4,-2.,-1.36642199329241E-14));
#774=CARTESIAN_POINT('Origin',(217.,2.,-1.38601634207877E-14));
#775=CARTESIAN_POINT('Origin',(207.,-2.,-1.35914198581448E-14));
#776=CARTESIAN_POINT('',(205.4,-2.,-1.37873633460084E-14));
#777=CARTESIAN_POINT('Origin',(207.,-2.,-1.35914198581448E-14));
#778=CARTESIAN_POINT('',(205.4,2.,-1.37873633460084E-14));
#779=CARTESIAN_POINT('',(205.4,-2.,-1.33954763702812E-14));
#780=CARTESIAN_POINT('Origin',(207.,2.,-1.35914198581448E-14));
#781=CARTESIAN_POINT('Origin',(159.3,-2.,-19.9124435092962));
#782=CARTESIAN_POINT('',(159.3,-2.,3.46410161512608));
#783=CARTESIAN_POINT('',(159.3,-2.,-3.46410161513864));
#784=CARTESIAN_POINT('Origin',(159.300000000001,0.,-6.28314666237985E-12));
#785=CARTESIAN_POINT('',(159.3,-2.,19.9124435092962));
#786=CARTESIAN_POINT('Origin',(129.3,-2.,19.9124435092962));
#787=CARTESIAN_POINT('',(129.3,-2.,-3.46410161513731));
#788=CARTESIAN_POINT('',(129.3,-2.,3.46410161512741));
#789=CARTESIAN_POINT('Origin',(129.299999999999,0.,-4.95087903282647E-12));
#790=CARTESIAN_POINT('',(129.3,-2.,-19.9124435092962));
#791=CARTESIAN_POINT('Origin',(144.3,-2.,0.));
#792=CARTESIAN_POINT('',(123.,-2.,3.46410161512769));
#793=CARTESIAN_POINT('',(123.,-2.,-3.46410161513703));
#794=CARTESIAN_POINT('Origin',(197.,-2.,23.9666906287174));
#795=CARTESIAN_POINT('',(197.,-2.,-3.46410161514032));
#796=CARTESIAN_POINT('',(197.,-2.,3.4641016151244));
#797=CARTESIAN_POINT('Origin',(196.999999999999,0.,-7.95736298351842E-12));
#798=CARTESIAN_POINT('',(197.,-2.,-23.9666906287174));
#799=CARTESIAN_POINT('Origin',(210.,-2.,-1.33226762955019E-14));
#800=CARTESIAN_POINT('',(223.,-2.,3.46410161512325));
#801=CARTESIAN_POINT('',(123.,-2.,3.46410161512769));
#802=CARTESIAN_POINT('',(223.,-2.,-3.46410161514147));
#803=CARTESIAN_POINT('',(123.,-2.,-3.46410161513703));
#804=CARTESIAN_POINT('',(223.,-2.,-2.95319324550957E-13));
#805=CARTESIAN_POINT('Origin',(223.,0.,0.));
#806=CARTESIAN_POINT('',(223.,2.,-3.46410161514147));
#807=CARTESIAN_POINT('Origin',(223.,0.,-9.11199492913132E-12));
#808=CARTESIAN_POINT('',(223.,2.,3.46410161512325));
#809=CARTESIAN_POINT('',(223.,2.,-2.95319324550957E-13));
#810=CARTESIAN_POINT('',(223.000000000001,-4.89858719658369E-16,3.99999999998622));
#811=CARTESIAN_POINT('Origin',(223.,0.,-9.11199492913132E-12));
#812=CARTESIAN_POINT('Origin',(223.,0.,-9.11199492913132E-12));
#813=CARTESIAN_POINT('Origin',(159.3,2.,19.9124435092962));
#814=CARTESIAN_POINT('',(159.3,2.,-3.46410161513864));
#815=CARTESIAN_POINT('',(159.3,2.,3.46410161512608));
#816=CARTESIAN_POINT('Origin',(159.299999999999,0.,-6.28314666237977E-12));
#817=CARTESIAN_POINT('',(159.3,2.,19.9124435092962));
#818=CARTESIAN_POINT('Origin',(129.3,2.,-19.9124435092962));
#819=CARTESIAN_POINT('',(129.3,2.,3.46410161512741));
#820=CARTESIAN_POINT('',(129.3,2.,-3.46410161513731));
#821=CARTESIAN_POINT('Origin',(129.300000000001,0.,-4.95087903282655E-12));
#822=CARTESIAN_POINT('',(129.3,2.,-19.9124435092962));
#823=CARTESIAN_POINT('Origin',(144.3,2.,0.));
#824=CARTESIAN_POINT('',(123.,2.,-3.46410161513703));
#825=CARTESIAN_POINT('',(123.,2.,3.46410161512769));
#826=CARTESIAN_POINT('Origin',(197.,2.,-23.9666906287174));
#827=CARTESIAN_POINT('',(197.,2.,3.4641016151244));
#828=CARTESIAN_POINT('',(197.,2.,-3.46410161514032));
#829=CARTESIAN_POINT('Origin',(197.000000000001,0.,-7.95736298351852E-12));
#830=CARTESIAN_POINT('',(197.,2.,-23.9666906287174));
#831=CARTESIAN_POINT('Origin',(210.,2.,-1.33226762955019E-14));
#832=CARTESIAN_POINT('',(123.,2.,-3.46410161513703));
#833=CARTESIAN_POINT('',(123.,2.,3.46410161512769));
#834=CARTESIAN_POINT('Origin',(81.1,0.,-2.34673391830142E-12));
#835=CARTESIAN_POINT('',(79.5,-2.,-2.34653797481356E-12));
#836=CARTESIAN_POINT('Origin',(81.1,-2.,-2.34673391830142E-12));
#837=CARTESIAN_POINT('',(79.5,2.,-2.34653797481356E-12));
#838=CARTESIAN_POINT('',(79.5,0.,-2.34653797481356E-12));
#839=CARTESIAN_POINT('Origin',(81.1,2.,-2.34673391830142E-12));
#840=CARTESIAN_POINT('Origin',(91.6,2.,12.0000000000003));
#841=CARTESIAN_POINT('',(91.6,2.,-3.46410161513564));
#842=CARTESIAN_POINT('',(91.6,2.,3.46410161512908));
#843=CARTESIAN_POINT('Origin',(91.5999999999995,0.,-3.27666271168784E-12));
#844=CARTESIAN_POINT('',(91.6,2.,12.0000000000003));
#845=CARTESIAN_POINT('Origin',(70.6,2.,-11.9999999999997));
#846=CARTESIAN_POINT('',(70.6,2.,3.46410161513002));
#847=CARTESIAN_POINT('',(70.6,2.,-3.46410161513471));
#848=CARTESIAN_POINT('Origin',(70.6000000000006,0.,-2.34407537100058E-12));
#849=CARTESIAN_POINT('',(70.6,2.,-11.9999999999997));
#850=CARTESIAN_POINT('Origin',(81.1,2.,2.53130849614536E-13));
#851=CARTESIAN_POINT('',(123.,2.,-3.46410161513703));
#852=CARTESIAN_POINT('',(123.,2.,3.46410161512769));
#853=CARTESIAN_POINT('Origin',(123.,0.,-4.67110283062033E-12));
#854=CARTESIAN_POINT('',(23.,-4.89858719658369E-16,3.9999999999951));
#855=CARTESIAN_POINT('',(123.,-4.89858719658369E-16,3.99999999999066));
#856=CARTESIAN_POINT('',(23.,-2.,3.46410161513213));
#857=CARTESIAN_POINT('Origin',(23.0000000000002,0.,-2.3021073210933E-13));
#858=CARTESIAN_POINT('',(31.,-2.,3.46410161513178));
#859=CARTESIAN_POINT('',(123.,-2.,3.46410161512769));
#860=CARTESIAN_POINT('',(31.,-2.,-3.46410161513295));
#861=CARTESIAN_POINT('Origin',(31.0000000000004,0.,-5.85482099990217E-13));
#862=CARTESIAN_POINT('',(23.,-2.,-3.46410161513259));
#863=CARTESIAN_POINT('',(123.,-2.,-3.46410161513703));
#864=CARTESIAN_POINT('',(23.,2.,-3.46410161513259));
#865=CARTESIAN_POINT('Origin',(23.0000000000002,0.,-2.3021073210933E-13));
#866=CARTESIAN_POINT('',(31.,2.,-3.46410161513295));
#867=CARTESIAN_POINT('',(123.,2.,-3.46410161513703));
#868=CARTESIAN_POINT('',(31.,2.,3.46410161513178));
#869=CARTESIAN_POINT('Origin',(30.9999999999996,0.,-5.85482099990185E-13));
#870=CARTESIAN_POINT('',(23.,2.,3.46410161513213));
#871=CARTESIAN_POINT('',(123.,2.,3.46410161512769));
#872=CARTESIAN_POINT('Origin',(23.0000000000002,0.,-2.3021073210933E-13));
#873=CARTESIAN_POINT('',(70.6,-2.,-3.46410161513471));
#874=CARTESIAN_POINT('',(70.6,-2.,3.46410161513002));
#875=CARTESIAN_POINT('Origin',(70.5999999999995,0.,-2.34407537100053E-12));
#876=CARTESIAN_POINT('',(91.6,-2.,3.46410161512908));
#877=CARTESIAN_POINT('',(123.,-2.,3.46410161512769));
#878=CARTESIAN_POINT('',(91.6,-2.,-3.46410161513564));
#879=CARTESIAN_POINT('Origin',(91.6000000000005,0.,-3.27666271168789E-12));
#880=CARTESIAN_POINT('',(123.,-2.,-3.46410161513703));
#881=CARTESIAN_POINT('Origin',(91.6,-2.,-11.9999999999997));
#882=CARTESIAN_POINT('',(91.6,-2.,12.0000000000003));
#883=CARTESIAN_POINT('Origin',(70.6,-2.,12.0000000000003));
#884=CARTESIAN_POINT('',(70.6,-2.,-11.9999999999997));
#885=CARTESIAN_POINT('Origin',(81.1,-2.,2.53130849614536E-13));
#886=CARTESIAN_POINT('Origin',(27.,0.,0.));
#887=CARTESIAN_POINT('',(25.4,-2.,1.95943487863577E-16));
#888=CARTESIAN_POINT('Origin',(27.,-2.,0.));
#889=CARTESIAN_POINT('',(25.4,2.,-1.95943487863577E-16));
#890=CARTESIAN_POINT('',(25.4,0.,1.95943487863577E-16));
#891=CARTESIAN_POINT('Origin',(27.,2.,0.));
#892=CARTESIAN_POINT('Origin',(31.,-2.,-7.88781143402246));
#893=CARTESIAN_POINT('',(31.,-2.,-7.88781143402246));
#894=CARTESIAN_POINT('Origin',(27.,-2.,0.));
#895=CARTESIAN_POINT('',(23.0000000000001,-2.,-1.99999999999991));
#896=CARTESIAN_POINT('Origin',(31.,2.,7.88781143402246));
#897=CARTESIAN_POINT('',(31.,2.,-7.88781143402246));
#898=CARTESIAN_POINT('Origin',(27.,2.,0.));
#899=CARTESIAN_POINT('',(23.0000000000001,2.,-1.99999999999991));
#900=CARTESIAN_POINT('Origin',(23.,0.,-4.));
#901=UNCERTAINTY_MEASURE_WITH_UNIT(LENGTH_MEASURE(0.01),#905,
'DISTANCE_ACCURACY_VALUE',
'Maximum model space distance between geometric entities at asserted c
onnectivities');
#902=UNCERTAINTY_MEASURE_WITH_UNIT(LENGTH_MEASURE(0.01),#905,
'DISTANCE_ACCURACY_VALUE',
'Maximum model space distance between geometric entities at asserted c
onnectivities');
#903=(
GEOMETRIC_REPRESENTATION_CONTEXT(3)
GLOBAL_UNCERTAINTY_ASSIGNED_CONTEXT((#901))
GLOBAL_UNIT_ASSIGNED_CONTEXT((#905,#907,#908))
REPRESENTATION_CONTEXT('','3D')
);
#904=(
GEOMETRIC_REPRESENTATION_CONTEXT(3)
GLOBAL_UNCERTAINTY_ASSIGNED_CONTEXT((#902))
GLOBAL_UNIT_ASSIGNED_CONTEXT((#905,#907,#908))
REPRESENTATION_CONTEXT('','3D')
);
#905=(
LENGTH_UNIT()
NAMED_UNIT(*)
SI_UNIT(.MILLI.,.METRE.)
);
#906=(
LENGTH_UNIT()
NAMED_UNIT(*)
SI_UNIT($,.METRE.)
);
#907=(
NAMED_UNIT(*)
PLANE_ANGLE_UNIT()
SI_UNIT($,.RADIAN.)
);
#908=(
NAMED_UNIT(*)
SI_UNIT($,.STERADIAN.)
SOLID_ANGLE_UNIT()
);
#909=SHAPE_DEFINITION_REPRESENTATION(#910,#911);
#910=PRODUCT_DEFINITION_SHAPE('',$,#913);
#911=SHAPE_REPRESENTATION('',(#537),#903);
#912=PRODUCT_DEFINITION_CONTEXT('part definition',#917,'design');
#913=PRODUCT_DEFINITION('Shaft','Shaft',#914,#912);
#914=PRODUCT_DEFINITION_FORMATION('',$,#919);
#915=PRODUCT_RELATED_PRODUCT_CATEGORY('Shaft','Shaft',(#919));
#916=APPLICATION_PROTOCOL_DEFINITION('international standard',
'automotive_design',2009,#917);
#917=APPLICATION_CONTEXT(
'Core Data for Automotive Mechanical Design Process');
#918=PRODUCT_CONTEXT('part definition',#917,'mechanical');
#919=PRODUCT('Shaft','Shaft',$,(#918));
#920=PRESENTATION_STYLE_ASSIGNMENT((#921));
#921=SURFACE_STYLE_USAGE(.BOTH.,#922);
#922=SURFACE_SIDE_STYLE('',(#923));
#923=SURFACE_STYLE_FILL_AREA(#924);
#924=FILL_AREA_STYLE('Steel - Satin',(#925));
#925=FILL_AREA_STYLE_COLOUR('Steel - Satin',#926);
#926=COLOUR_RGB('Steel - Satin',0.627450980392157,0.627450980392157,0.627450980392157);
ENDSEC;
END-ISO-10303-21;
