ISO-10303-21;
HEADER;
/* Generated by software containing ST-Developer
 * from STEP Tools, Inc. (www.steptools.com) 
 */

FILE_DESCRIPTION(
/* description */ (''),
/* implementation_level */ '2;1');

FILE_NAME(
/* name */ 'Thrust Bearing End.step',
/* time_stamp */ '2025-05-01T08:25:14+01:00',
/* author */ (''),
/* organization */ (''),
/* preprocessor_version */ 'ST-DEVELOPER v20.1',
/* originating_system */ 'Autodesk Translation Framework v14.4.0.0',
/* authorisation */ '');

FILE_SCHEMA (('AUTOMOTIVE_DESIGN { 1 0 10303 214 3 1 1 }'));
ENDSEC;

DATA;
#10=MECHANICAL_DESIGN_GEOMETRIC_PRESENTATION_REPRESENTATION('',(#13),#732);
#11=SHAPE_REPRESENTATION_RELATIONSHIP('SRR','None',#739,#12);
#12=ADVANCED_BREP_SHAPE_REPRESENTATION('',(#14),#731);
#13=STYLED_ITEM('',(#748),#14);
#14=MANIFOLD_SOLID_BREP('Bearing End',#337);
#15=FACE_BOUND('',#58,.T.);
#16=FACE_BOUND('',#63,.T.);
#17=FACE_BOUND('',#66,.T.);
#18=FACE_BOUND('',#70,.T.);
#19=FACE_BOUND('',#73,.T.);
#20=FACE_BOUND('',#76,.T.);
#21=FACE_BOUND('',#78,.T.);
#22=FACE_BOUND('',#80,.T.);
#23=FACE_BOUND('',#81,.T.);
#24=FACE_BOUND('',#83,.T.);
#25=PLANE('',#353);
#26=PLANE('',#360);
#27=PLANE('',#364);
#28=PLANE('',#370);
#29=PLANE('',#374);
#30=PLANE('',#379);
#31=PLANE('',#380);
#32=PLANE('',#384);
#33=B_SPLINE_SURFACE_WITH_KNOTS('',3,3,((#502,#503,#504,#505),(#506,#507,
#508,#509),(#510,#511,#512,#513),(#514,#515,#516,#517)),.UNSPECIFIED.,.F.,
 .F.,.F.,(4,4),(4,4),(0.373778055051816,1.),(-2.62746132485039,-2.54353957221616),
 .UNSPECIFIED.);
#34=B_SPLINE_SURFACE_WITH_KNOTS('',3,3,((#562,#563,#564,#565),(#566,#567,
#568,#569),(#570,#571,#572,#573),(#574,#575,#576,#577)),.UNSPECIFIED.,.F.,
 .F.,.F.,(4,4),(4,4),(0.373778055049601,1.),(-2.62746132485039,-2.54353957221542),
 .UNSPECIFIED.);
#35=FACE_OUTER_BOUND('',#55,.T.);
#36=FACE_OUTER_BOUND('',#56,.T.);
#37=FACE_OUTER_BOUND('',#57,.T.);
#38=FACE_OUTER_BOUND('',#59,.T.);
#39=FACE_OUTER_BOUND('',#60,.T.);
#40=FACE_OUTER_BOUND('',#61,.T.);
#41=FACE_OUTER_BOUND('',#62,.T.);
#42=FACE_OUTER_BOUND('',#64,.T.);
#43=FACE_OUTER_BOUND('',#65,.T.);
#44=FACE_OUTER_BOUND('',#67,.T.);
#45=FACE_OUTER_BOUND('',#68,.T.);
#46=FACE_OUTER_BOUND('',#69,.T.);
#47=FACE_OUTER_BOUND('',#71,.T.);
#48=FACE_OUTER_BOUND('',#72,.T.);
#49=FACE_OUTER_BOUND('',#74,.T.);
#50=FACE_OUTER_BOUND('',#75,.T.);
#51=FACE_OUTER_BOUND('',#77,.T.);
#52=FACE_OUTER_BOUND('',#79,.T.);
#53=FACE_OUTER_BOUND('',#82,.T.);
#54=FACE_OUTER_BOUND('',#84,.T.);
#55=EDGE_LOOP('',(#219,#220,#221));
#56=EDGE_LOOP('',(#222,#223,#224));
#57=EDGE_LOOP('',(#225));
#58=EDGE_LOOP('',(#226));
#59=EDGE_LOOP('',(#227,#228,#229));
#60=EDGE_LOOP('',(#230,#231,#232));
#61=EDGE_LOOP('',(#233,#234,#235,#236,#237));
#62=EDGE_LOOP('',(#238));
#63=EDGE_LOOP('',(#239));
#64=EDGE_LOOP('',(#240,#241,#242,#243));
#65=EDGE_LOOP('',(#244));
#66=EDGE_LOOP('',(#245));
#67=EDGE_LOOP('',(#246,#247,#248,#249));
#68=EDGE_LOOP('',(#250,#251,#252,#253,#254));
#69=EDGE_LOOP('',(#255));
#70=EDGE_LOOP('',(#256));
#71=EDGE_LOOP('',(#257,#258,#259,#260));
#72=EDGE_LOOP('',(#261,#262,#263,#264,#265));
#73=EDGE_LOOP('',(#266));
#74=EDGE_LOOP('',(#267,#268,#269,#270,#271,#272,#273,#274,#275,#276,#277,
#278,#279,#280));
#75=EDGE_LOOP('',(#281,#282,#283,#284,#285));
#76=EDGE_LOOP('',(#286));
#77=EDGE_LOOP('',(#287));
#78=EDGE_LOOP('',(#288,#289,#290,#291,#292));
#79=EDGE_LOOP('',(#293,#294,#295,#296));
#80=EDGE_LOOP('',(#297,#298));
#81=EDGE_LOOP('',(#299,#300));
#82=EDGE_LOOP('',(#301));
#83=EDGE_LOOP('',(#302));
#84=EDGE_LOOP('',(#303,#304,#305,#306));
#85=LINE('',#501,#101);
#86=LINE('',#561,#102);
#87=LINE('',#597,#103);
#88=LINE('',#642,#104);
#89=LINE('',#649,#105);
#90=LINE('',#654,#106);
#91=LINE('',#697,#107);
#92=LINE('',#701,#108);
#93=LINE('',#703,#109);
#94=LINE('',#704,#110);
#95=LINE('',#708,#111);
#96=LINE('',#710,#112);
#97=LINE('',#713,#113);
#98=LINE('',#716,#114);
#99=LINE('',#723,#115);
#100=LINE('',#728,#116);
#101=VECTOR('',#393,10.);
#102=VECTOR('',#404,10.);
#103=VECTOR('',#409,3.);
#104=VECTOR('',#418,2.);
#105=VECTOR('',#427,1.6);
#106=VECTOR('',#432,3.);
#107=VECTOR('',#439,1.6);
#108=VECTOR('',#444,10.);
#109=VECTOR('',#445,10.);
#110=VECTOR('',#446,10.);
#111=VECTOR('',#451,10.);
#112=VECTOR('',#452,10.);
#113=VECTOR('',#455,4.10000000000184);
#114=VECTOR('',#460,10.);
#115=VECTOR('',#469,11.9999999999995);
#116=VECTOR('',#476,4.99999999999951);
#117=CIRCLE('',#352,2.00000000000005);
#118=CIRCLE('',#354,4.9999999999995);
#119=CIRCLE('',#355,4.10000000000184);
#120=CIRCLE('',#357,2.00000000000005);
#121=CIRCLE('',#359,3.);
#122=CIRCLE('',#361,2.);
#123=CIRCLE('',#363,2.);
#124=CIRCLE('',#365,1.6);
#125=CIRCLE('',#367,1.6);
#126=CIRCLE('',#369,3.);
#127=CIRCLE('',#371,1.6);
#128=CIRCLE('',#373,1.6);
#129=CIRCLE('',#376,4.10000000000184);
#130=CIRCLE('',#377,4.10000000000184);
#131=CIRCLE('',#378,4.10000000000184);
#132=CIRCLE('',#381,11.9999999999996);
#133=CIRCLE('',#383,11.9999999999993);
#134=CIRCLE('',#385,4.99999999999953);
#135=B_SPLINE_CURVE_WITH_KNOTS('',3,(#481,#482,#483,#484,#485,#486,#487,
#488,#489,#490,#491,#492,#493,#494,#495,#496,#497,#498),.UNSPECIFIED.,.F.,
 .F.,(4,2,2,2,2,2,2,2,4),(0.69346057946214,0.710691961197077,0.841389892690298,
0.972087824183519,1.10278575567674,1.23348368716995,1.32656712516856,1.39234943072191,
1.45813173627527),.UNSPECIFIED.);
#136=B_SPLINE_CURVE_WITH_KNOTS('',3,(#519,#520,#521,#522,#523,#524,#525,
#526,#527,#528),.UNSPECIFIED.,.F.,.F.,(4,2,2,2,4),(0.,0.0648399544470481,
0.128204010973227,0.170219529494348,0.214489359651256),.UNSPECIFIED.);
#137=B_SPLINE_CURVE_WITH_KNOTS('',3,(#529,#530,#531,#532),.UNSPECIFIED.,
 .F.,.F.,(4,4),(2.54822683494692,2.62746132485039),.UNSPECIFIED.);
#138=B_SPLINE_CURVE_WITH_KNOTS('',3,(#541,#542,#543,#544,#545,#546,#547,
#548,#549,#550,#551,#552,#553,#554,#555,#556,#557,#558),.UNSPECIFIED.,.F.,
 .F.,(4,2,2,2,2,2,2,2,4),(0.693460579463078,0.710691961197078,0.841389892690299,
0.972087824183519,1.10278575567674,1.23348368716996,1.32656712516857,1.39234943072193,
1.45813173627529),.UNSPECIFIED.);
#139=B_SPLINE_CURVE_WITH_KNOTS('',3,(#579,#580,#581,#582,#583,#584,#585,
#586,#587,#588),.UNSPECIFIED.,.F.,.F.,(4,2,2,2,4),(0.,0.0648399544470404,
0.128204010973101,0.170219529494687,0.214489359652148),.UNSPECIFIED.);
#140=B_SPLINE_CURVE_WITH_KNOTS('',3,(#589,#590,#591,#592),.UNSPECIFIED.,
 .F.,.F.,(4,4),(2.54822683494627,2.62746132485039),.UNSPECIFIED.);
#141=B_SPLINE_CURVE_WITH_KNOTS('',3,(#599,#600,#601,#602,#603,#604,#605,
#606,#607,#608,#609,#610,#611,#612,#613,#614,#615,#616,#617),
 .UNSPECIFIED.,.F.,.F.,(4,2,2,2,3,2,2,2,4),(1.36231839047679,1.4758369859457,
1.58935558141462,1.70289005102517,1.81642452063572,1.92995899024627,2.04349345985682,
2.15701205532574,2.27053065079465),.UNSPECIFIED.);
#142=B_SPLINE_CURVE_WITH_KNOTS('',3,(#618,#619,#620,#621,#622,#623,#624,
#625,#626,#627,#628,#629,#630,#631,#632,#633,#634,#635),.UNSPECIFIED.,.F.,
 .F.,(4,2,2,2,2,2,2,2,4),(0.45410613015893,0.567624725627843,0.681143321096756,
0.794677790707308,0.90821226031786,1.02174672992841,1.13528119953896,1.24879979500788,
1.36231839047679),.UNSPECIFIED.);
#143=B_SPLINE_CURVE_WITH_KNOTS('',3,(#656,#657,#658,#659,#660,#661,#662,
#663,#664,#665),.UNSPECIFIED.,.F.,.F.,(4,2,2,2,4),(0.,0.113534469610552,
0.227068939221104,0.340587534690017,0.45410613015893),.UNSPECIFIED.);
#144=B_SPLINE_CURVE_WITH_KNOTS('',3,(#666,#667,#668,#669,#670,#671,#672,
#673,#674,#675,#676,#677,#678,#679,#680,#681,#682,#683,#684,#685,#686,#687,
#688,#689,#690,#691),.UNSPECIFIED.,.F.,.F.,(4,2,2,2,2,2,2,2,2,2,2,2,4),
(0.45410613015893,0.567624725627843,0.681143321096756,0.794677790707308,
0.90821226031786,1.02174672992841,1.13528119953896,1.24879979500788,1.36231839047679,
1.4758369859457,1.58935558141462,1.70289005102517,1.81642452063572),
 .UNSPECIFIED.);
#145=VERTEX_POINT('',#479);
#146=VERTEX_POINT('',#480);
#147=VERTEX_POINT('',#499);
#148=VERTEX_POINT('',#518);
#149=VERTEX_POINT('',#534);
#150=VERTEX_POINT('',#536);
#151=VERTEX_POINT('',#539);
#152=VERTEX_POINT('',#540);
#153=VERTEX_POINT('',#559);
#154=VERTEX_POINT('',#578);
#155=VERTEX_POINT('',#594);
#156=VERTEX_POINT('',#596);
#157=VERTEX_POINT('',#598);
#158=VERTEX_POINT('',#637);
#159=VERTEX_POINT('',#640);
#160=VERTEX_POINT('',#644);
#161=VERTEX_POINT('',#647);
#162=VERTEX_POINT('',#651);
#163=VERTEX_POINT('',#653);
#164=VERTEX_POINT('',#655);
#165=VERTEX_POINT('',#693);
#166=VERTEX_POINT('',#696);
#167=VERTEX_POINT('',#700);
#168=VERTEX_POINT('',#702);
#169=VERTEX_POINT('',#706);
#170=VERTEX_POINT('',#709);
#171=VERTEX_POINT('',#711);
#172=VERTEX_POINT('',#718);
#173=VERTEX_POINT('',#721);
#174=VERTEX_POINT('',#725);
#175=EDGE_CURVE('',#145,#146,#135,.F.);
#176=EDGE_CURVE('',#146,#147,#117,.T.);
#177=EDGE_CURVE('',#147,#145,#85,.T.);
#178=EDGE_CURVE('',#146,#148,#136,.F.);
#179=EDGE_CURVE('',#148,#147,#137,.T.);
#180=EDGE_CURVE('',#149,#149,#118,.T.);
#181=EDGE_CURVE('',#150,#150,#119,.T.);
#182=EDGE_CURVE('',#151,#152,#138,.F.);
#183=EDGE_CURVE('',#152,#153,#120,.T.);
#184=EDGE_CURVE('',#153,#151,#86,.T.);
#185=EDGE_CURVE('',#152,#154,#139,.F.);
#186=EDGE_CURVE('',#154,#153,#140,.T.);
#187=EDGE_CURVE('',#155,#155,#121,.T.);
#188=EDGE_CURVE('',#155,#156,#87,.T.);
#189=EDGE_CURVE('',#157,#156,#141,.T.);
#190=EDGE_CURVE('',#156,#157,#142,.T.);
#191=EDGE_CURVE('',#158,#158,#122,.T.);
#192=EDGE_CURVE('',#159,#159,#123,.T.);
#193=EDGE_CURVE('',#159,#158,#88,.T.);
#194=EDGE_CURVE('',#160,#160,#124,.T.);
#195=EDGE_CURVE('',#161,#161,#125,.T.);
#196=EDGE_CURVE('',#161,#160,#89,.T.);
#197=EDGE_CURVE('',#162,#162,#126,.T.);
#198=EDGE_CURVE('',#162,#163,#90,.T.);
#199=EDGE_CURVE('',#164,#163,#143,.T.);
#200=EDGE_CURVE('',#163,#164,#144,.T.);
#201=EDGE_CURVE('',#165,#165,#127,.T.);
#202=EDGE_CURVE('',#165,#166,#91,.T.);
#203=EDGE_CURVE('',#166,#166,#128,.T.);
#204=EDGE_CURVE('',#167,#148,#92,.T.);
#205=EDGE_CURVE('',#167,#168,#93,.T.);
#206=EDGE_CURVE('',#145,#168,#94,.T.);
#207=EDGE_CURVE('',#169,#168,#129,.T.);
#208=EDGE_CURVE('',#169,#154,#95,.T.);
#209=EDGE_CURVE('',#151,#170,#96,.T.);
#210=EDGE_CURVE('',#171,#170,#130,.T.);
#211=EDGE_CURVE('',#171,#150,#97,.T.);
#212=EDGE_CURVE('',#167,#171,#131,.T.);
#213=EDGE_CURVE('',#170,#169,#98,.T.);
#214=EDGE_CURVE('',#172,#172,#132,.T.);
#215=EDGE_CURVE('',#173,#173,#133,.T.);
#216=EDGE_CURVE('',#173,#172,#99,.T.);
#217=EDGE_CURVE('',#174,#174,#134,.T.);
#218=EDGE_CURVE('',#149,#174,#100,.T.);
#219=ORIENTED_EDGE('',*,*,#175,.T.);
#220=ORIENTED_EDGE('',*,*,#176,.T.);
#221=ORIENTED_EDGE('',*,*,#177,.T.);
#222=ORIENTED_EDGE('',*,*,#178,.T.);
#223=ORIENTED_EDGE('',*,*,#179,.T.);
#224=ORIENTED_EDGE('',*,*,#176,.F.);
#225=ORIENTED_EDGE('',*,*,#180,.T.);
#226=ORIENTED_EDGE('',*,*,#181,.T.);
#227=ORIENTED_EDGE('',*,*,#182,.T.);
#228=ORIENTED_EDGE('',*,*,#183,.T.);
#229=ORIENTED_EDGE('',*,*,#184,.T.);
#230=ORIENTED_EDGE('',*,*,#185,.T.);
#231=ORIENTED_EDGE('',*,*,#186,.T.);
#232=ORIENTED_EDGE('',*,*,#183,.F.);
#233=ORIENTED_EDGE('',*,*,#187,.F.);
#234=ORIENTED_EDGE('',*,*,#188,.T.);
#235=ORIENTED_EDGE('',*,*,#189,.F.);
#236=ORIENTED_EDGE('',*,*,#190,.F.);
#237=ORIENTED_EDGE('',*,*,#188,.F.);
#238=ORIENTED_EDGE('',*,*,#187,.T.);
#239=ORIENTED_EDGE('',*,*,#191,.F.);
#240=ORIENTED_EDGE('',*,*,#192,.F.);
#241=ORIENTED_EDGE('',*,*,#193,.T.);
#242=ORIENTED_EDGE('',*,*,#191,.T.);
#243=ORIENTED_EDGE('',*,*,#193,.F.);
#244=ORIENTED_EDGE('',*,*,#192,.T.);
#245=ORIENTED_EDGE('',*,*,#194,.F.);
#246=ORIENTED_EDGE('',*,*,#195,.F.);
#247=ORIENTED_EDGE('',*,*,#196,.T.);
#248=ORIENTED_EDGE('',*,*,#194,.T.);
#249=ORIENTED_EDGE('',*,*,#196,.F.);
#250=ORIENTED_EDGE('',*,*,#197,.T.);
#251=ORIENTED_EDGE('',*,*,#198,.T.);
#252=ORIENTED_EDGE('',*,*,#199,.F.);
#253=ORIENTED_EDGE('',*,*,#200,.F.);
#254=ORIENTED_EDGE('',*,*,#198,.F.);
#255=ORIENTED_EDGE('',*,*,#197,.F.);
#256=ORIENTED_EDGE('',*,*,#201,.F.);
#257=ORIENTED_EDGE('',*,*,#201,.T.);
#258=ORIENTED_EDGE('',*,*,#202,.T.);
#259=ORIENTED_EDGE('',*,*,#203,.F.);
#260=ORIENTED_EDGE('',*,*,#202,.F.);
#261=ORIENTED_EDGE('',*,*,#179,.F.);
#262=ORIENTED_EDGE('',*,*,#204,.F.);
#263=ORIENTED_EDGE('',*,*,#205,.T.);
#264=ORIENTED_EDGE('',*,*,#206,.F.);
#265=ORIENTED_EDGE('',*,*,#177,.F.);
#266=ORIENTED_EDGE('',*,*,#203,.T.);
#267=ORIENTED_EDGE('',*,*,#178,.F.);
#268=ORIENTED_EDGE('',*,*,#175,.F.);
#269=ORIENTED_EDGE('',*,*,#206,.T.);
#270=ORIENTED_EDGE('',*,*,#207,.F.);
#271=ORIENTED_EDGE('',*,*,#208,.T.);
#272=ORIENTED_EDGE('',*,*,#185,.F.);
#273=ORIENTED_EDGE('',*,*,#182,.F.);
#274=ORIENTED_EDGE('',*,*,#209,.T.);
#275=ORIENTED_EDGE('',*,*,#210,.F.);
#276=ORIENTED_EDGE('',*,*,#211,.T.);
#277=ORIENTED_EDGE('',*,*,#181,.F.);
#278=ORIENTED_EDGE('',*,*,#211,.F.);
#279=ORIENTED_EDGE('',*,*,#212,.F.);
#280=ORIENTED_EDGE('',*,*,#204,.T.);
#281=ORIENTED_EDGE('',*,*,#186,.F.);
#282=ORIENTED_EDGE('',*,*,#208,.F.);
#283=ORIENTED_EDGE('',*,*,#213,.F.);
#284=ORIENTED_EDGE('',*,*,#209,.F.);
#285=ORIENTED_EDGE('',*,*,#184,.F.);
#286=ORIENTED_EDGE('',*,*,#195,.T.);
#287=ORIENTED_EDGE('',*,*,#214,.F.);
#288=ORIENTED_EDGE('',*,*,#207,.T.);
#289=ORIENTED_EDGE('',*,*,#205,.F.);
#290=ORIENTED_EDGE('',*,*,#212,.T.);
#291=ORIENTED_EDGE('',*,*,#210,.T.);
#292=ORIENTED_EDGE('',*,*,#213,.T.);
#293=ORIENTED_EDGE('',*,*,#215,.F.);
#294=ORIENTED_EDGE('',*,*,#216,.T.);
#295=ORIENTED_EDGE('',*,*,#214,.T.);
#296=ORIENTED_EDGE('',*,*,#216,.F.);
#297=ORIENTED_EDGE('',*,*,#189,.T.);
#298=ORIENTED_EDGE('',*,*,#190,.T.);
#299=ORIENTED_EDGE('',*,*,#199,.T.);
#300=ORIENTED_EDGE('',*,*,#200,.T.);
#301=ORIENTED_EDGE('',*,*,#215,.T.);
#302=ORIENTED_EDGE('',*,*,#217,.F.);
#303=ORIENTED_EDGE('',*,*,#180,.F.);
#304=ORIENTED_EDGE('',*,*,#218,.T.);
#305=ORIENTED_EDGE('',*,*,#217,.T.);
#306=ORIENTED_EDGE('',*,*,#218,.F.);
#307=CYLINDRICAL_SURFACE('',#351,2.);
#308=CYLINDRICAL_SURFACE('',#356,2.);
#309=CYLINDRICAL_SURFACE('',#358,3.);
#310=CYLINDRICAL_SURFACE('',#362,2.);
#311=CYLINDRICAL_SURFACE('',#366,1.6);
#312=CYLINDRICAL_SURFACE('',#368,3.);
#313=CYLINDRICAL_SURFACE('',#372,1.6);
#314=CYLINDRICAL_SURFACE('',#375,4.10000000000184);
#315=CYLINDRICAL_SURFACE('',#382,11.9999999999995);
#316=CYLINDRICAL_SURFACE('',#386,4.99999999999951);
#317=ADVANCED_FACE('',(#35),#307,.T.);
#318=ADVANCED_FACE('',(#36),#33,.F.);
#319=ADVANCED_FACE('',(#37,#15),#25,.T.);
#320=ADVANCED_FACE('',(#38),#308,.T.);
#321=ADVANCED_FACE('',(#39),#34,.F.);
#322=ADVANCED_FACE('',(#40),#309,.F.);
#323=ADVANCED_FACE('',(#41,#16),#26,.T.);
#324=ADVANCED_FACE('',(#42),#310,.F.);
#325=ADVANCED_FACE('',(#43,#17),#27,.T.);
#326=ADVANCED_FACE('',(#44),#311,.F.);
#327=ADVANCED_FACE('',(#45),#312,.F.);
#328=ADVANCED_FACE('',(#46,#18),#28,.F.);
#329=ADVANCED_FACE('',(#47),#313,.F.);
#330=ADVANCED_FACE('',(#48,#19),#29,.T.);
#331=ADVANCED_FACE('',(#49),#314,.F.);
#332=ADVANCED_FACE('',(#50,#20),#30,.T.);
#333=ADVANCED_FACE('',(#51,#21),#31,.T.);
#334=ADVANCED_FACE('',(#52,#22,#23),#315,.T.);
#335=ADVANCED_FACE('',(#53,#24),#32,.T.);
#336=ADVANCED_FACE('',(#54),#316,.T.);
#337=CLOSED_SHELL('',(#317,#318,#319,#320,#321,#322,#323,#324,#325,#326,
#327,#328,#329,#330,#331,#332,#333,#334,#335,#336));
#338=DERIVED_UNIT_ELEMENT(#340,1.);
#339=DERIVED_UNIT_ELEMENT(#734,-3.);
#340=(
MASS_UNIT()
NAMED_UNIT(*)
SI_UNIT(.KILO.,.GRAM.)
);
#341=DERIVED_UNIT((#338,#339));
#342=MEASURE_REPRESENTATION_ITEM('density measure',
POSITIVE_RATIO_MEASURE(7850.),#341);
#343=PROPERTY_DEFINITION_REPRESENTATION(#348,#345);
#344=PROPERTY_DEFINITION_REPRESENTATION(#349,#346);
#345=REPRESENTATION('material name',(#347),#731);
#346=REPRESENTATION('density',(#342),#731);
#347=DESCRIPTIVE_REPRESENTATION_ITEM('Steel','Steel');
#348=PROPERTY_DEFINITION('material property','material name',#741);
#349=PROPERTY_DEFINITION('material property','density of part',#741);
#350=AXIS2_PLACEMENT_3D('',#477,#387,#388);
#351=AXIS2_PLACEMENT_3D('',#478,#389,#390);
#352=AXIS2_PLACEMENT_3D('',#500,#391,#392);
#353=AXIS2_PLACEMENT_3D('',#533,#394,#395);
#354=AXIS2_PLACEMENT_3D('',#535,#396,#397);
#355=AXIS2_PLACEMENT_3D('',#537,#398,#399);
#356=AXIS2_PLACEMENT_3D('',#538,#400,#401);
#357=AXIS2_PLACEMENT_3D('',#560,#402,#403);
#358=AXIS2_PLACEMENT_3D('',#593,#405,#406);
#359=AXIS2_PLACEMENT_3D('',#595,#407,#408);
#360=AXIS2_PLACEMENT_3D('',#636,#410,#411);
#361=AXIS2_PLACEMENT_3D('',#638,#412,#413);
#362=AXIS2_PLACEMENT_3D('',#639,#414,#415);
#363=AXIS2_PLACEMENT_3D('',#641,#416,#417);
#364=AXIS2_PLACEMENT_3D('',#643,#419,#420);
#365=AXIS2_PLACEMENT_3D('',#645,#421,#422);
#366=AXIS2_PLACEMENT_3D('',#646,#423,#424);
#367=AXIS2_PLACEMENT_3D('',#648,#425,#426);
#368=AXIS2_PLACEMENT_3D('',#650,#428,#429);
#369=AXIS2_PLACEMENT_3D('',#652,#430,#431);
#370=AXIS2_PLACEMENT_3D('',#692,#433,#434);
#371=AXIS2_PLACEMENT_3D('',#694,#435,#436);
#372=AXIS2_PLACEMENT_3D('',#695,#437,#438);
#373=AXIS2_PLACEMENT_3D('',#698,#440,#441);
#374=AXIS2_PLACEMENT_3D('',#699,#442,#443);
#375=AXIS2_PLACEMENT_3D('',#705,#447,#448);
#376=AXIS2_PLACEMENT_3D('',#707,#449,#450);
#377=AXIS2_PLACEMENT_3D('',#712,#453,#454);
#378=AXIS2_PLACEMENT_3D('',#714,#456,#457);
#379=AXIS2_PLACEMENT_3D('',#715,#458,#459);
#380=AXIS2_PLACEMENT_3D('',#717,#461,#462);
#381=AXIS2_PLACEMENT_3D('',#719,#463,#464);
#382=AXIS2_PLACEMENT_3D('',#720,#465,#466);
#383=AXIS2_PLACEMENT_3D('',#722,#467,#468);
#384=AXIS2_PLACEMENT_3D('',#724,#470,#471);
#385=AXIS2_PLACEMENT_3D('',#726,#472,#473);
#386=AXIS2_PLACEMENT_3D('',#727,#474,#475);
#387=DIRECTION('axis',(0.,0.,1.));
#388=DIRECTION('refdir',(1.,0.,0.));
#389=DIRECTION('center_axis',(4.55191440096339E-14,0.,1.));
#390=DIRECTION('ref_axis',(0.707106781186548,0.707106781186547,-3.21868954030174E-14));
#391=DIRECTION('center_axis',(4.55191440096303E-14,0.,1.));
#392=DIRECTION('ref_axis',(1.,0.,-4.55191440096303E-14));
#393=DIRECTION('',(4.55191440096339E-14,0.,1.));
#394=DIRECTION('center_axis',(1.,0.,-4.55191440096339E-14));
#395=DIRECTION('ref_axis',(-4.55191440096339E-14,0.,-1.));
#396=DIRECTION('center_axis',(1.,0.,-4.55191440096339E-14));
#397=DIRECTION('ref_axis',(-4.55191440096339E-14,0.,-1.));
#398=DIRECTION('center_axis',(-1.,0.,4.55191440096339E-14));
#399=DIRECTION('ref_axis',(-1.02695629777827E-13,0.,1.));
#400=DIRECTION('center_axis',(-4.55191440096339E-14,0.,-1.));
#401=DIRECTION('ref_axis',(0.707106781186548,-0.707106781186547,-3.21868954030174E-14));
#402=DIRECTION('center_axis',(-4.55191440096304E-14,0.,-1.));
#403=DIRECTION('ref_axis',(1.,0.,-4.55191440096304E-14));
#404=DIRECTION('',(-4.55191440096339E-14,0.,-1.));
#405=DIRECTION('center_axis',(0.,1.,0.));
#406=DIRECTION('ref_axis',(1.,0.,0.));
#407=DIRECTION('center_axis',(0.,1.,0.));
#408=DIRECTION('ref_axis',(1.,0.,0.));
#409=DIRECTION('',(0.,1.,0.));
#410=DIRECTION('center_axis',(0.,1.,0.));
#411=DIRECTION('ref_axis',(1.,0.,0.));
#412=DIRECTION('center_axis',(0.,1.,0.));
#413=DIRECTION('ref_axis',(1.,0.,0.));
#414=DIRECTION('center_axis',(0.,1.,0.));
#415=DIRECTION('ref_axis',(1.,0.,0.));
#416=DIRECTION('center_axis',(0.,1.,0.));
#417=DIRECTION('ref_axis',(1.,0.,0.));
#418=DIRECTION('',(0.,1.,0.));
#419=DIRECTION('center_axis',(0.,1.,0.));
#420=DIRECTION('ref_axis',(1.,0.,0.));
#421=DIRECTION('center_axis',(0.,1.,0.));
#422=DIRECTION('ref_axis',(1.,0.,0.));
#423=DIRECTION('center_axis',(0.,1.,0.));
#424=DIRECTION('ref_axis',(1.,0.,0.));
#425=DIRECTION('center_axis',(0.,1.,0.));
#426=DIRECTION('ref_axis',(1.,0.,0.));
#427=DIRECTION('',(0.,1.,0.));
#428=DIRECTION('center_axis',(0.,-1.,0.));
#429=DIRECTION('ref_axis',(1.,0.,0.));
#430=DIRECTION('center_axis',(0.,1.,0.));
#431=DIRECTION('ref_axis',(1.,0.,0.));
#432=DIRECTION('',(0.,-1.,0.));
#433=DIRECTION('center_axis',(0.,1.,0.));
#434=DIRECTION('ref_axis',(1.,0.,0.));
#435=DIRECTION('center_axis',(0.,-1.,0.));
#436=DIRECTION('ref_axis',(1.,0.,0.));
#437=DIRECTION('center_axis',(0.,1.,0.));
#438=DIRECTION('ref_axis',(1.,0.,0.));
#439=DIRECTION('',(0.,1.,0.));
#440=DIRECTION('center_axis',(0.,-1.,0.));
#441=DIRECTION('ref_axis',(1.,0.,0.));
#442=DIRECTION('center_axis',(0.,1.,0.));
#443=DIRECTION('ref_axis',(-1.02695629777798E-13,0.,1.));
#444=DIRECTION('',(1.,0.,1.02695629777827E-13));
#445=DIRECTION('',(-1.02695629777798E-13,0.,1.));
#446=DIRECTION('',(-1.,0.,-1.02695629777827E-13));
#447=DIRECTION('center_axis',(1.,0.,1.02695629777827E-13));
#448=DIRECTION('ref_axis',(-1.02695629777827E-13,0.,1.));
#449=DIRECTION('center_axis',(1.,0.,-4.55191440096339E-14));
#450=DIRECTION('ref_axis',(-1.02695629777827E-13,0.,1.));
#451=DIRECTION('',(1.,0.,1.02695629777827E-13));
#452=DIRECTION('',(-1.,0.,-1.02695629777827E-13));
#453=DIRECTION('center_axis',(1.,0.,-4.55191440096339E-14));
#454=DIRECTION('ref_axis',(-1.02695629777827E-13,0.,1.));
#455=DIRECTION('',(1.,0.,1.02695629777827E-13));
#456=DIRECTION('center_axis',(1.,0.,-4.55191440096339E-14));
#457=DIRECTION('ref_axis',(-1.02695629777827E-13,0.,1.));
#458=DIRECTION('center_axis',(0.,-1.,0.));
#459=DIRECTION('ref_axis',(1.02695629777798E-13,0.,-1.));
#460=DIRECTION('',(-1.02695629777798E-13,0.,1.));
#461=DIRECTION('center_axis',(-1.,0.,4.55191440096339E-14));
#462=DIRECTION('ref_axis',(4.55191440096339E-14,0.,1.));
#463=DIRECTION('center_axis',(1.,0.,-4.55191440096339E-14));
#464=DIRECTION('ref_axis',(-4.55191440096339E-14,0.,-1.));
#465=DIRECTION('center_axis',(1.,0.,-4.55191440096339E-14));
#466=DIRECTION('ref_axis',(-4.55191440096346E-14,0.,-1.));
#467=DIRECTION('center_axis',(1.,0.,-4.55191440096339E-14));
#468=DIRECTION('ref_axis',(-4.55191440096339E-14,0.,-1.));
#469=DIRECTION('',(-1.,0.,4.55191440096339E-14));
#470=DIRECTION('center_axis',(1.,0.,-4.55191440096339E-14));
#471=DIRECTION('ref_axis',(-4.55191440096339E-14,0.,-1.));
#472=DIRECTION('center_axis',(1.,0.,-4.55191440096339E-14));
#473=DIRECTION('ref_axis',(-4.55191440096339E-14,0.,-1.));
#474=DIRECTION('center_axis',(1.,0.,-4.55191440096339E-14));
#475=DIRECTION('ref_axis',(-4.55191440096346E-14,0.,-1.));
#476=DIRECTION('',(-1.,0.,4.55191440096339E-14));
#477=CARTESIAN_POINT('',(0.,0.,0.));
#478=CARTESIAN_POINT('Origin',(29.8,-4.25,-3.71373130916155));
#479=CARTESIAN_POINT('',(29.8000000000004,-2.25,3.42746261832777));
#480=CARTESIAN_POINT('',(31.4650689126044,-3.1420534686733,-2.63391343821271));
#481=CARTESIAN_POINT('Ctrl Pts',(31.4650689126047,-3.1420534686738,-2.63391343821213));
#482=CARTESIAN_POINT('Ctrl Pts',(31.4888385922701,-3.17777554871509,-2.59129978057498));
#483=CARTESIAN_POINT('Ctrl Pts',(31.5102625774708,-3.21247170531646,-2.54812786838249));
#484=CARTESIAN_POINT('Ctrl Pts',(31.6751784591956,-3.49642495803541,-2.18027102858943));
#485=CARTESIAN_POINT('Ctrl Pts',(31.735692066308,-3.72399069420205,-1.77621711892786));
#486=CARTESIAN_POINT('Ctrl Pts',(31.7933079747168,-4.02570358290954,-0.903752771081255));
#487=CARTESIAN_POINT('Ctrl Pts',(31.7943670675182,-4.10000000000184,-0.435659771641066));
#488=CARTESIAN_POINT('Ctrl Pts',(31.7943670675183,-4.10000000000184,0.435659771647063));
#489=CARTESIAN_POINT('Ctrl Pts',(31.7933079747169,-4.02570358290954,0.903752771087244));
#490=CARTESIAN_POINT('Ctrl Pts',(31.7356920663081,-3.72399069420206,1.77621711893383));
#491=CARTESIAN_POINT('Ctrl Pts',(31.6751784591958,-3.49642495803543,2.18027102859539));
#492=CARTESIAN_POINT('Ctrl Pts',(31.4257005088291,-3.06687217787005,2.73674969796405));
#493=CARTESIAN_POINT('Ctrl Pts',(31.2430804036986,-2.83829060941511,2.96703818364897));
#494=CARTESIAN_POINT('Ctrl Pts',(30.8728268297856,-2.55097035645718,3.21358471219322));
#495=CARTESIAN_POINT('Ctrl Pts',(30.679247473731,-2.43943375884029,3.29661479521649));
#496=CARTESIAN_POINT('Ctrl Pts',(30.252400603946,-2.28873467052503,3.40296902049684));
#497=CARTESIAN_POINT('Ctrl Pts',(30.0192743518449,-2.25,3.4274626183278));
#498=CARTESIAN_POINT('Ctrl Pts',(29.8000000000004,-2.25,3.42746261832777));
#499=CARTESIAN_POINT('',(29.8000000000001,-2.25,-2.63391343821264));
#500=CARTESIAN_POINT('Origin',(29.8000000000001,-4.25,-2.63391343821264));
#501=CARTESIAN_POINT('',(29.8,-2.25,-3.71373130916155));
#502=CARTESIAN_POINT('Ctrl Pts',(31.4650689126044,-3.14205346867333,-2.63391343821272));
#503=CARTESIAN_POINT('Ctrl Pts',(31.4216158091958,-3.07675030683639,-2.84902494426141));
#504=CARTESIAN_POINT('Ctrl Pts',(31.3854495027989,-3.01180714129014,-3.04913977931957));
#505=CARTESIAN_POINT('Ctrl Pts',(31.3630776390299,-2.95173925335688,-3.23415303075254));
#506=CARTESIAN_POINT('Ctrl Pts',(31.1017853840571,-2.59609561534538,-2.6339134382127));
#507=CARTESIAN_POINT('Ctrl Pts',(31.0508196432884,-2.56748063316764,-2.86300824872404));
#508=CARTESIAN_POINT('Ctrl Pts',(31.0127189585579,-2.53819175416434,-3.08342027270876));
#509=CARTESIAN_POINT('Ctrl Pts',(30.9937021384539,-2.51340883338174,-3.29312249336444));
#510=CARTESIAN_POINT('Ctrl Pts',(30.4557780872554,-2.25,-2.63391343821267));
#511=CARTESIAN_POINT('Ctrl Pts',(30.4291954677467,-2.25077219275993,-2.88811294843947));
#512=CARTESIAN_POINT('Ctrl Pts',(30.4178350623894,-2.24945309561109,-3.13968609597622));
#513=CARTESIAN_POINT('Ctrl Pts',(30.4297790579076,-2.25,-3.38315077342744));
#514=CARTESIAN_POINT('Ctrl Pts',(29.8000000000001,-2.25,-2.63391343821264));
#515=CARTESIAN_POINT('Ctrl Pts',(29.8000000000001,-2.25,-2.91365261366009));
#516=CARTESIAN_POINT('Ctrl Pts',(29.8164606416025,-2.25,-3.19658698872474));
#517=CARTESIAN_POINT('Ctrl Pts',(29.8607477573293,-2.25,-3.47399456234177));
#518=CARTESIAN_POINT('',(29.8535841197538,-2.25,-3.42746261832212));
#519=CARTESIAN_POINT('Ctrl Pts',(29.8535841197538,-2.25,-3.42746261832217));
#520=CARTESIAN_POINT('Ctrl Pts',(30.069717301244,-2.25,-3.42746261832215));
#521=CARTESIAN_POINT('Ctrl Pts',(30.2838939083425,-2.28463293956151,-3.40549432281746));
#522=CARTESIAN_POINT('Ctrl Pts',(30.6782685698639,-2.41952052507265,-3.31097377980038));
#523=CARTESIAN_POINT('Ctrl Pts',(30.8504267730563,-2.51489557848336,-3.24160028465358));
#524=CARTESIAN_POINT('Ctrl Pts',(31.0989444903618,-2.70698201464711,-3.08094414121749));
#525=CARTESIAN_POINT('Ctrl Pts',(31.1846601086535,-2.78962918277917,-3.00700758366182));
#526=CARTESIAN_POINT('Ctrl Pts',(31.3394929279164,-2.96368047655551,-2.83589140812715));
#527=CARTESIAN_POINT('Ctrl Pts',(31.4066938695113,-3.05432498469138,-2.73856668284767));
#528=CARTESIAN_POINT('Ctrl Pts',(31.4650689126044,-3.1420534686733,-2.63391343821271));
#529=CARTESIAN_POINT('Ctrl Pts',(29.8535855189016,-2.25,-3.42746241089325));
#530=CARTESIAN_POINT('Ctrl Pts',(29.8146732460986,-2.25,-3.16499161652069));
#531=CARTESIAN_POINT('Ctrl Pts',(29.8000000000001,-2.25,-2.89802840455756));
#532=CARTESIAN_POINT('Ctrl Pts',(29.8000000000001,-2.25,-2.63391343821264));
#533=CARTESIAN_POINT('Origin',(31.8,0.,-4.));
#534=CARTESIAN_POINT('',(31.8000000000005,-6.12323399573617E-16,4.99999999999901));
#535=CARTESIAN_POINT('Origin',(31.8000000000003,0.,-5.04804783831471E-13));
#536=CARTESIAN_POINT('',(31.8,5.0210518765064E-16,-4.09999999999884));
#537=CARTESIAN_POINT('Origin',(31.7999999999996,0.,3.00348548959825E-12));
#538=CARTESIAN_POINT('Origin',(29.8000000000002,4.25,-0.286268690836571));
#539=CARTESIAN_POINT('',(29.8000000000001,2.25,-3.42746261832218));
#540=CARTESIAN_POINT('',(31.4650689126085,3.1420534686791,2.63391343821174));
#541=CARTESIAN_POINT('Ctrl Pts',(31.4650689126088,3.14205346867959,2.63391343821115));
#542=CARTESIAN_POINT('Ctrl Pts',(31.4888385922727,3.17777554871883,2.59129978057626));
#543=CARTESIAN_POINT('Ctrl Pts',(31.5102625774721,3.21247170531823,2.54812786838615));
#544=CARTESIAN_POINT('Ctrl Pts',(31.6751784591958,3.49642495803541,2.18027102859543));
#545=CARTESIAN_POINT('Ctrl Pts',(31.7356920663081,3.72399069420205,1.77621711893386));
#546=CARTESIAN_POINT('Ctrl Pts',(31.7933079747169,4.02570358290954,0.903752771087259));
#547=CARTESIAN_POINT('Ctrl Pts',(31.7943670675183,4.10000000000184,0.435659771647071));
#548=CARTESIAN_POINT('Ctrl Pts',(31.7943670675183,4.10000000000184,-0.435659771641074));
#549=CARTESIAN_POINT('Ctrl Pts',(31.7933079747168,4.02570358290953,-0.903752771081271));
#550=CARTESIAN_POINT('Ctrl Pts',(31.735692066308,3.72399069420204,-1.77621711892789));
#551=CARTESIAN_POINT('Ctrl Pts',(31.6751784591956,3.49642495803539,-2.18027102858946));
#552=CARTESIAN_POINT('Ctrl Pts',(31.4257005088289,3.06687217787003,-2.73674969795815));
#553=CARTESIAN_POINT('Ctrl Pts',(31.2430804036983,2.8382906094151,-2.96703818364308));
#554=CARTESIAN_POINT('Ctrl Pts',(30.8728268297853,2.55097035645719,-3.2135847121874));
#555=CARTESIAN_POINT('Ctrl Pts',(30.6792474737307,2.4394337588403,-3.29661479521071));
#556=CARTESIAN_POINT('Ctrl Pts',(30.2524006039457,2.28873467052503,-3.40296902049115));
#557=CARTESIAN_POINT('Ctrl Pts',(30.0192743518446,2.25,-3.42746261832216));
#558=CARTESIAN_POINT('Ctrl Pts',(29.8000000000001,2.25,-3.42746261832218));
#559=CARTESIAN_POINT('',(29.8000000000003,2.25,2.63391343821181));
#560=CARTESIAN_POINT('Origin',(29.8000000000003,4.25,2.63391343821181));
#561=CARTESIAN_POINT('',(29.8000000000002,2.25,-0.286268690836571));
#562=CARTESIAN_POINT('Ctrl Pts',(31.4650689126085,3.14205346867913,2.63391343821174));
#563=CARTESIAN_POINT('Ctrl Pts',(31.4216158091996,3.07675030684122,2.84902494426219));
#564=CARTESIAN_POINT('Ctrl Pts',(31.3854495028025,3.01180714129403,3.04913977932174));
#565=CARTESIAN_POINT('Ctrl Pts',(31.3630776390335,2.95173925335995,3.2341530307558));
#566=CARTESIAN_POINT('Ctrl Pts',(31.1017853840619,2.59609561534797,2.63391343821175));
#567=CARTESIAN_POINT('Ctrl Pts',(31.0508196432925,2.56748063316976,2.86300824872495));
#568=CARTESIAN_POINT('Ctrl Pts',(31.0127189585617,2.538191754166,3.08342027271129));
#569=CARTESIAN_POINT('Ctrl Pts',(30.9937021384576,2.51340883338303,3.29312249336839));
#570=CARTESIAN_POINT('Ctrl Pts',(30.455778087258,2.25,2.63391343821178));
#571=CARTESIAN_POINT('Ctrl Pts',(30.429195467749,2.25077219275995,2.88811294844074));
#572=CARTESIAN_POINT('Ctrl Pts',(30.4178350623916,2.24945309561108,3.13968609597954));
#573=CARTESIAN_POINT('Ctrl Pts',(30.4297790579102,2.25,3.38315077343263));
#574=CARTESIAN_POINT('Ctrl Pts',(29.8000000000004,2.25,2.63391343821181));
#575=CARTESIAN_POINT('Ctrl Pts',(29.8000000000004,2.25,2.91365261366171));
#576=CARTESIAN_POINT('Ctrl Pts',(29.816460641603,2.25,3.19658698872887));
#577=CARTESIAN_POINT('Ctrl Pts',(29.8607477573308,2.25,3.47399456234823));
#578=CARTESIAN_POINT('',(29.8535841197551,2.25,3.42746261832773));
#579=CARTESIAN_POINT('Ctrl Pts',(29.8535841197551,2.25,3.42746261832778));
#580=CARTESIAN_POINT('Ctrl Pts',(30.0697173012452,2.25,3.4274626183278));
#581=CARTESIAN_POINT('Ctrl Pts',(30.2838939083437,2.28463293956149,3.40549432282317));
#582=CARTESIAN_POINT('Ctrl Pts',(30.6782685698648,2.41952052507249,3.31097377980628));
#583=CARTESIAN_POINT('Ctrl Pts',(30.8504267730569,2.51489557848299,3.24160028465967));
#584=CARTESIAN_POINT('Ctrl Pts',(31.0989444903632,2.70698201464742,3.08094414122313));
#585=CARTESIAN_POINT('Ctrl Pts',(31.1846601086557,2.78962918278049,3.00700758366654));
#586=CARTESIAN_POINT('Ctrl Pts',(31.3394929279199,2.96368047655907,2.83589140812942));
#587=CARTESIAN_POINT('Ctrl Pts',(31.4066938695151,3.05432498469614,2.73856668284838));
#588=CARTESIAN_POINT('Ctrl Pts',(31.4650689126085,3.1420534686791,2.63391343821174));
#589=CARTESIAN_POINT('Ctrl Pts',(29.8535855189028,2.25,3.42746241089887));
#590=CARTESIAN_POINT('Ctrl Pts',(29.8146732460991,2.25,3.16499161652423));
#591=CARTESIAN_POINT('Ctrl Pts',(29.8000000000004,2.25,2.89802840455889));
#592=CARTESIAN_POINT('Ctrl Pts',(29.8000000000004,2.25,2.63391343821181));
#593=CARTESIAN_POINT('Origin',(27.,11.,0.));
#594=CARTESIAN_POINT('',(24.,11.,3.67394039744206E-16));
#595=CARTESIAN_POINT('Origin',(27.,11.,0.));
#596=CARTESIAN_POINT('',(24.,12.,3.67394039744206E-16));
#597=CARTESIAN_POINT('',(24.,11.,3.67394039744206E-16));
#598=CARTESIAN_POINT('',(30.,12.,-4.22870324614118E-13));
#599=CARTESIAN_POINT('Ctrl Pts',(30.,11.9999999999995,-1.39263600651418E-13));
#600=CARTESIAN_POINT('Ctrl Pts',(30.,11.9999999999995,0.378395318229572));
#601=CARTESIAN_POINT('Ctrl Pts',(29.9240501130902,11.9803098029381,0.780931967449354));
#602=CARTESIAN_POINT('Ctrl Pts',(29.6173837779219,11.9091751134095,1.51961371380601));
#603=CARTESIAN_POINT('Ctrl Pts',(29.3867542059048,11.8586851400317,1.85588648121448));
#604=CARTESIAN_POINT('Ctrl Pts',(28.8558493636419,11.7633318154896,2.38679132347737));
#605=CARTESIAN_POINT('Ctrl Pts',(28.5195920550914,11.7121343333673,2.61739195534834));
#606=CARTESIAN_POINT('Ctrl Pts',(27.7809651240316,11.6393659039699,2.92403716226983));
#607=CARTESIAN_POINT('Ctrl Pts',(27.3784482320353,11.6189500386216,2.99999999999998));
#608=CARTESIAN_POINT('Ctrl Pts',(27.0000000000001,11.6189500386216,3.));
#609=CARTESIAN_POINT('Ctrl Pts',(26.621551767965,11.6189500386216,3.00000000000002));
#610=CARTESIAN_POINT('Ctrl Pts',(26.2190348759686,11.6393659039699,2.9240371622699));
#611=CARTESIAN_POINT('Ctrl Pts',(25.4804079449088,11.7121343333673,2.61739195534848));
#612=CARTESIAN_POINT('Ctrl Pts',(25.1441506363583,11.7633318154896,2.38679132347754));
#613=CARTESIAN_POINT('Ctrl Pts',(24.6132457940954,11.8586851400317,1.8558864812147));
#614=CARTESIAN_POINT('Ctrl Pts',(24.3826162220783,11.9091751134095,1.51961371380625));
#615=CARTESIAN_POINT('Ctrl Pts',(24.0759498869099,11.9803098029381,0.780931967449624));
#616=CARTESIAN_POINT('Ctrl Pts',(24.,11.9999999999995,0.37839531822985));
#617=CARTESIAN_POINT('Ctrl Pts',(24.,11.9999999999995,1.38777878078145E-13));
#618=CARTESIAN_POINT('Ctrl Pts',(24.,11.9999999999995,1.39055433834301E-13));
#619=CARTESIAN_POINT('Ctrl Pts',(24.,11.9999999999995,-0.378395318229571));
#620=CARTESIAN_POINT('Ctrl Pts',(24.0759498869098,11.9803098029382,-0.780931967449351));
#621=CARTESIAN_POINT('Ctrl Pts',(24.3826162220781,11.9091751134096,-1.51961371380601));
#622=CARTESIAN_POINT('Ctrl Pts',(24.6132457940952,11.8586851400318,-1.85588648121447));
#623=CARTESIAN_POINT('Ctrl Pts',(25.1441506363581,11.7633318154897,-2.38679132347737));
#624=CARTESIAN_POINT('Ctrl Pts',(25.4804079449086,11.7121343333674,-2.61739195534834));
#625=CARTESIAN_POINT('Ctrl Pts',(26.2190348759684,11.6393659039701,-2.92403716226983));
#626=CARTESIAN_POINT('Ctrl Pts',(26.6215517679647,11.6189500386218,-2.99999999999998));
#627=CARTESIAN_POINT('Ctrl Pts',(27.378448232035,11.6189500386218,-3.00000000000002));
#628=CARTESIAN_POINT('Ctrl Pts',(27.7809651240314,11.6393659039701,-2.9240371622699));
#629=CARTESIAN_POINT('Ctrl Pts',(28.5195920550912,11.7121343333674,-2.61739195534848));
#630=CARTESIAN_POINT('Ctrl Pts',(28.8558493636417,11.7633318154897,-2.38679132347754));
#631=CARTESIAN_POINT('Ctrl Pts',(29.3867542059046,11.8586851400318,-1.85588648121469));
#632=CARTESIAN_POINT('Ctrl Pts',(29.6173837779217,11.9091751134096,-1.51961371380625));
#633=CARTESIAN_POINT('Ctrl Pts',(29.9240501130901,11.9803098029382,-0.780931967449622));
#634=CARTESIAN_POINT('Ctrl Pts',(30.,11.9999999999995,-0.378395318229849));
#635=CARTESIAN_POINT('Ctrl Pts',(30.,11.9999999999995,-1.39402378529496E-13));
#636=CARTESIAN_POINT('Origin',(27.,11.,0.));
#637=CARTESIAN_POINT('',(25.,11.,2.44929359829471E-16));
#638=CARTESIAN_POINT('Origin',(27.,11.,0.));
#639=CARTESIAN_POINT('Origin',(27.,6.5,0.));
#640=CARTESIAN_POINT('',(25.,6.5,2.44929359829471E-16));
#641=CARTESIAN_POINT('Origin',(27.,6.5,0.));
#642=CARTESIAN_POINT('',(25.,6.5,2.44929359829471E-16));
#643=CARTESIAN_POINT('Origin',(27.,6.5,0.));
#644=CARTESIAN_POINT('',(25.4,6.5,1.95943487863577E-16));
#645=CARTESIAN_POINT('Origin',(27.,6.5,0.));
#646=CARTESIAN_POINT('Origin',(27.,0.,0.));
#647=CARTESIAN_POINT('',(25.4,2.25,1.95943487863577E-16));
#648=CARTESIAN_POINT('Origin',(27.,2.25,0.));
#649=CARTESIAN_POINT('',(25.4,0.,1.95943487863577E-16));
#650=CARTESIAN_POINT('Origin',(27.,-8.,0.));
#651=CARTESIAN_POINT('',(24.,-8.,3.67394039744206E-16));
#652=CARTESIAN_POINT('Origin',(27.,-8.,0.));
#653=CARTESIAN_POINT('',(24.,-11.9999999999995,-3.67394039744206E-16));
#654=CARTESIAN_POINT('',(24.,-8.,-3.67394039744206E-16));
#655=CARTESIAN_POINT('',(26.9999999999999,-11.6189500386218,-3.));
#656=CARTESIAN_POINT('Ctrl Pts',(26.9999999999999,-11.6189500386218,-3.));
#657=CARTESIAN_POINT('Ctrl Pts',(26.6215517679647,-11.6189500386218,-2.99999999999998));
#658=CARTESIAN_POINT('Ctrl Pts',(26.2190348759684,-11.6393659039701,-2.92403716226983));
#659=CARTESIAN_POINT('Ctrl Pts',(25.4804079449086,-11.7121343333674,-2.61739195534834));
#660=CARTESIAN_POINT('Ctrl Pts',(25.1441506363581,-11.7633318154897,-2.38679132347737));
#661=CARTESIAN_POINT('Ctrl Pts',(24.6132457940952,-11.8586851400318,-1.85588648121448));
#662=CARTESIAN_POINT('Ctrl Pts',(24.3826162220781,-11.9091751134096,-1.51961371380601));
#663=CARTESIAN_POINT('Ctrl Pts',(24.0759498869098,-11.9803098029382,-0.780931967449352));
#664=CARTESIAN_POINT('Ctrl Pts',(24.,-11.9999999999995,-0.378395318229571));
#665=CARTESIAN_POINT('Ctrl Pts',(24.,-11.9999999999995,1.38188072096312E-13));
#666=CARTESIAN_POINT('Ctrl Pts',(24.,-11.9999999999995,1.38430933382949E-13));
#667=CARTESIAN_POINT('Ctrl Pts',(24.,-11.9999999999995,0.37839531822985));
#668=CARTESIAN_POINT('Ctrl Pts',(24.0759498869099,-11.9803098029381,0.780931967449624));
#669=CARTESIAN_POINT('Ctrl Pts',(24.3826162220783,-11.9091751134095,1.51961371380625));
#670=CARTESIAN_POINT('Ctrl Pts',(24.6132457940954,-11.8586851400317,1.8558864812147));
#671=CARTESIAN_POINT('Ctrl Pts',(25.1441506363583,-11.7633318154896,2.38679132347754));
#672=CARTESIAN_POINT('Ctrl Pts',(25.4804079449088,-11.7121343333673,2.61739195534848));
#673=CARTESIAN_POINT('Ctrl Pts',(26.2190348759686,-11.6393659039699,2.9240371622699));
#674=CARTESIAN_POINT('Ctrl Pts',(26.621551767965,-11.6189500386216,3.00000000000002));
#675=CARTESIAN_POINT('Ctrl Pts',(27.3784482320353,-11.6189500386216,2.99999999999998));
#676=CARTESIAN_POINT('Ctrl Pts',(27.7809651240316,-11.6393659039699,2.92403716226983));
#677=CARTESIAN_POINT('Ctrl Pts',(28.5195920550914,-11.7121343333673,2.61739195534834));
#678=CARTESIAN_POINT('Ctrl Pts',(28.8558493636419,-11.7633318154896,2.38679132347737));
#679=CARTESIAN_POINT('Ctrl Pts',(29.3867542059048,-11.8586851400317,1.85588648121448));
#680=CARTESIAN_POINT('Ctrl Pts',(29.6173837779219,-11.9091751134095,1.51961371380601));
#681=CARTESIAN_POINT('Ctrl Pts',(29.9240501130902,-11.9803098029381,0.780931967449355));
#682=CARTESIAN_POINT('Ctrl Pts',(30.,-11.9999999999995,0.378395318229574));
#683=CARTESIAN_POINT('Ctrl Pts',(30.,-11.9999999999995,-0.378395318229847));
#684=CARTESIAN_POINT('Ctrl Pts',(29.9240501130901,-11.9803098029382,-0.780931967449619));
#685=CARTESIAN_POINT('Ctrl Pts',(29.6173837779217,-11.9091751134096,-1.51961371380625));
#686=CARTESIAN_POINT('Ctrl Pts',(29.3867542059046,-11.8586851400318,-1.85588648121469));
#687=CARTESIAN_POINT('Ctrl Pts',(28.8558493636417,-11.7633318154897,-2.38679132347754));
#688=CARTESIAN_POINT('Ctrl Pts',(28.5195920550912,-11.7121343333674,-2.61739195534848));
#689=CARTESIAN_POINT('Ctrl Pts',(27.7809651240314,-11.6393659039701,-2.9240371622699));
#690=CARTESIAN_POINT('Ctrl Pts',(27.378448232035,-11.6189500386218,-3.00000000000002));
#691=CARTESIAN_POINT('Ctrl Pts',(26.9999999999999,-11.6189500386218,-3.));
#692=CARTESIAN_POINT('Origin',(27.,-8.,0.));
#693=CARTESIAN_POINT('',(25.4,-8.,-1.95943487863577E-16));
#694=CARTESIAN_POINT('Origin',(27.,-8.,0.));
#695=CARTESIAN_POINT('Origin',(27.,0.,0.));
#696=CARTESIAN_POINT('',(25.4,-2.25,-1.95943487863577E-16));
#697=CARTESIAN_POINT('',(25.4,0.,1.95943487863577E-16));
#698=CARTESIAN_POINT('Origin',(27.,-2.25,0.));
#699=CARTESIAN_POINT('Origin',(23.0000000000009,-2.25,-3.42746261832288));
#700=CARTESIAN_POINT('',(23.0000000000009,-2.25,-3.42746261832288));
#701=CARTESIAN_POINT('',(23.0000000000009,-2.25,-3.42746261832288));
#702=CARTESIAN_POINT('',(23.0000000000002,-2.25,3.42746261832708));
#703=CARTESIAN_POINT('',(23.0000000000009,-2.25,-3.42746261832288));
#704=CARTESIAN_POINT('',(23.0000000000002,-2.25,3.42746261832708));
#705=CARTESIAN_POINT('Origin',(23.0000000000006,0.,2.09976394755346E-12));
#706=CARTESIAN_POINT('',(23.0000000000002,2.25,3.42746261832708));
#707=CARTESIAN_POINT('Origin',(22.9999999999988,0.,2.09976394755328E-12));
#708=CARTESIAN_POINT('',(23.0000000000002,2.25,3.42746261832708));
#709=CARTESIAN_POINT('',(23.0000000000009,2.25,-3.42746261832288));
#710=CARTESIAN_POINT('',(23.0000000000009,2.25,-3.42746261832288));
#711=CARTESIAN_POINT('',(22.9999999999992,5.0210518765064E-16,-4.09999999999974));
#712=CARTESIAN_POINT('Origin',(22.9999999999988,0.,2.09976394755328E-12));
#713=CARTESIAN_POINT('',(23.000000000001,5.0210518765064E-16,-4.09999999999974));
#714=CARTESIAN_POINT('Origin',(22.9999999999988,0.,2.09976394755328E-12));
#715=CARTESIAN_POINT('Origin',(23.0000000000002,2.25,3.42746261832708));
#716=CARTESIAN_POINT('',(23.0000000000009,2.25,-3.42746261832288));
#717=CARTESIAN_POINT('Origin',(23.,0.,-11.9999999999997));
#718=CARTESIAN_POINT('',(23.0000000000011,-1.46957615897676E-15,11.9999999999994));
#719=CARTESIAN_POINT('Origin',(23.0000000000006,0.,-1.04236316546706E-13));
#720=CARTESIAN_POINT('Origin',(27.0000000000005,0.,-2.86312892585242E-13));
#721=CARTESIAN_POINT('',(31.0000000000011,-1.46957615897676E-15,11.999999999999));
#722=CARTESIAN_POINT('Origin',(31.0000000000005,0.,-4.68389468623777E-13));
#723=CARTESIAN_POINT('',(27.0000000000011,-1.46957615897676E-15,11.9999999999992));
#724=CARTESIAN_POINT('Origin',(31.,0.,-5.));
#725=CARTESIAN_POINT('',(31.0000000000005,-6.12323399573617E-16,4.99999999999904));
#726=CARTESIAN_POINT('Origin',(31.0000000000002,0.,-4.68389468623763E-13));
#727=CARTESIAN_POINT('Origin',(31.4000000000003,0.,-4.86597126227617E-13));
#728=CARTESIAN_POINT('',(31.4000000000005,-6.12323399573617E-16,4.99999999999903));
#729=UNCERTAINTY_MEASURE_WITH_UNIT(LENGTH_MEASURE(0.01),#733,
'DISTANCE_ACCURACY_VALUE',
'Maximum model space distance between geometric entities at asserted c
onnectivities');
#730=UNCERTAINTY_MEASURE_WITH_UNIT(LENGTH_MEASURE(0.01),#733,
'DISTANCE_ACCURACY_VALUE',
'Maximum model space distance between geometric entities at asserted c
onnectivities');
#731=(
GEOMETRIC_REPRESENTATION_CONTEXT(3)
GLOBAL_UNCERTAINTY_ASSIGNED_CONTEXT((#729))
GLOBAL_UNIT_ASSIGNED_CONTEXT((#733,#735,#736))
REPRESENTATION_CONTEXT('','3D')
);
#732=(
GEOMETRIC_REPRESENTATION_CONTEXT(3)
GLOBAL_UNCERTAINTY_ASSIGNED_CONTEXT((#730))
GLOBAL_UNIT_ASSIGNED_CONTEXT((#733,#735,#736))
REPRESENTATION_CONTEXT('','3D')
);
#733=(
LENGTH_UNIT()
NAMED_UNIT(*)
SI_UNIT(.MILLI.,.METRE.)
);
#734=(
LENGTH_UNIT()
NAMED_UNIT(*)
SI_UNIT($,.METRE.)
);
#735=(
NAMED_UNIT(*)
PLANE_ANGLE_UNIT()
SI_UNIT($,.RADIAN.)
);
#736=(
NAMED_UNIT(*)
SI_UNIT($,.STERADIAN.)
SOLID_ANGLE_UNIT()
);
#737=SHAPE_DEFINITION_REPRESENTATION(#738,#739);
#738=PRODUCT_DEFINITION_SHAPE('',$,#741);
#739=SHAPE_REPRESENTATION('',(#350),#731);
#740=PRODUCT_DEFINITION_CONTEXT('part definition',#745,'design');
#741=PRODUCT_DEFINITION('Thrust Bearing End','Thrust Bearing End',#742,
#740);
#742=PRODUCT_DEFINITION_FORMATION('',$,#747);
#743=PRODUCT_RELATED_PRODUCT_CATEGORY('Thrust Bearing End',
'Thrust Bearing End',(#747));
#744=APPLICATION_PROTOCOL_DEFINITION('international standard',
'automotive_design',2009,#745);
#745=APPLICATION_CONTEXT(
'Core Data for Automotive Mechanical Design Process');
#746=PRODUCT_CONTEXT('part definition',#745,'mechanical');
#747=PRODUCT('Thrust Bearing End','Thrust Bearing End',$,(#746));
#748=PRESENTATION_STYLE_ASSIGNMENT((#749));
#749=SURFACE_STYLE_USAGE(.BOTH.,#750);
#750=SURFACE_SIDE_STYLE('',(#751));
#751=SURFACE_STYLE_FILL_AREA(#752);
#752=FILL_AREA_STYLE('Steel - Satin',(#753));
#753=FILL_AREA_STYLE_COLOUR('Steel - Satin',#754);
#754=COLOUR_RGB('Steel - Satin',0.627450980392157,0.627450980392157,0.627450980392157);
ENDSEC;
END-ISO-10303-21;
