ISO-10303-21;
HEADER;
/* Generated by software containing ST-Developer
 * from STEP Tools, Inc. (www.steptools.com) 
 */

FILE_DESCRIPTION(
/* description */ (''),
/* implementation_level */ '2;1');

FILE_NAME(
/* name */ 'ESC AC Terminal Lock.step',
/* time_stamp */ '2025-05-01T11:09:07+01:00',
/* author */ (''),
/* organization */ (''),
/* preprocessor_version */ 'ST-DEVELOPER v20.1',
/* originating_system */ 'Autodesk Translation Framework v14.4.0.0',
/* authorisation */ '');

FILE_SCHEMA (('AUTOMOTIVE_DESIGN { 1 0 10303 214 3 1 1 }'));
ENDSEC;

DATA;
#10=MECHANICAL_DESIGN_GEOMETRIC_PRESENTATION_REPRESENTATION('',(#13),#1069);
#11=SHAPE_REPRESENTATION_RELATIONSHIP('SRR','None',#1076,#12);
#12=ADVANCED_BREP_SHAPE_REPRESENTATION('',(#14),#1068);
#13=STYLED_ITEM('',(#1085),#14);
#14=MANIFOLD_SOLID_BREP('ESC AC Terminal Lock ',#629);
#15=FACE_BOUND('',#108,.T.);
#16=FACE_BOUND('',#109,.T.);
#17=FACE_BOUND('',#111,.T.);
#18=FACE_BOUND('',#112,.T.);
#19=FACE_BOUND('',#118,.T.);
#20=FACE_BOUND('',#121,.T.);
#21=FACE_BOUND('',#124,.T.);
#22=FACE_BOUND('',#136,.T.);
#23=FACE_BOUND('',#138,.T.);
#24=FACE_BOUND('',#139,.T.);
#25=CYLINDRICAL_SURFACE('',#650,1.69999999999998);
#26=CYLINDRICAL_SURFACE('',#653,1.70000000000002);
#27=CYLINDRICAL_SURFACE('',#666,1.6);
#28=CYLINDRICAL_SURFACE('',#668,1.6);
#29=CYLINDRICAL_SURFACE('',#670,3.00000000000001);
#30=CYLINDRICAL_SURFACE('',#674,3.00000000000001);
#31=CYLINDRICAL_SURFACE('',#678,3.00000000000001);
#32=CYLINDRICAL_SURFACE('',#683,1.99999999999999);
#33=CYLINDRICAL_SURFACE('',#686,1.6);
#34=CYLINDRICAL_SURFACE('',#687,0.799999999999592);
#35=CYLINDRICAL_SURFACE('',#689,0.800000000000085);
#36=CYLINDRICAL_SURFACE('',#692,0.800000000000301);
#37=CYLINDRICAL_SURFACE('',#695,0.800000000000005);
#38=CIRCLE('',#649,1.70000000000002);
#39=CIRCLE('',#651,1.69999999999998);
#40=CIRCLE('',#654,1.70000000000002);
#41=CIRCLE('',#656,0.799999999999592);
#42=CIRCLE('',#657,0.800000000000085);
#43=CIRCLE('',#658,0.800000000000005);
#44=CIRCLE('',#659,0.800000000000301);
#45=CIRCLE('',#660,1.99999999999999);
#46=CIRCLE('',#662,1.6);
#47=CIRCLE('',#663,1.6);
#48=CIRCLE('',#665,1.6);
#49=CIRCLE('',#667,1.6);
#50=CIRCLE('',#669,1.6);
#51=CIRCLE('',#671,3.00000000000001);
#52=CIRCLE('',#672,3.00000000000001);
#53=CIRCLE('',#675,3.00000000000001);
#54=CIRCLE('',#676,3.00000000000001);
#55=CIRCLE('',#679,3.00000000000001);
#56=CIRCLE('',#680,3.00000000000001);
#57=CIRCLE('',#682,1.6);
#58=CIRCLE('',#684,1.99999999999999);
#59=CIRCLE('',#688,0.799999999999592);
#60=CIRCLE('',#690,0.800000000000085);
#61=CIRCLE('',#693,0.800000000000301);
#62=CIRCLE('',#696,0.800000000000005);
#63=FACE_OUTER_BOUND('',#99,.T.);
#64=FACE_OUTER_BOUND('',#100,.T.);
#65=FACE_OUTER_BOUND('',#101,.T.);
#66=FACE_OUTER_BOUND('',#102,.T.);
#67=FACE_OUTER_BOUND('',#103,.T.);
#68=FACE_OUTER_BOUND('',#104,.T.);
#69=FACE_OUTER_BOUND('',#105,.T.);
#70=FACE_OUTER_BOUND('',#106,.T.);
#71=FACE_OUTER_BOUND('',#107,.T.);
#72=FACE_OUTER_BOUND('',#110,.T.);
#73=FACE_OUTER_BOUND('',#113,.T.);
#74=FACE_OUTER_BOUND('',#114,.T.);
#75=FACE_OUTER_BOUND('',#115,.T.);
#76=FACE_OUTER_BOUND('',#116,.T.);
#77=FACE_OUTER_BOUND('',#117,.T.);
#78=FACE_OUTER_BOUND('',#119,.T.);
#79=FACE_OUTER_BOUND('',#120,.T.);
#80=FACE_OUTER_BOUND('',#122,.T.);
#81=FACE_OUTER_BOUND('',#123,.T.);
#82=FACE_OUTER_BOUND('',#125,.T.);
#83=FACE_OUTER_BOUND('',#126,.T.);
#84=FACE_OUTER_BOUND('',#127,.T.);
#85=FACE_OUTER_BOUND('',#128,.T.);
#86=FACE_OUTER_BOUND('',#129,.T.);
#87=FACE_OUTER_BOUND('',#130,.T.);
#88=FACE_OUTER_BOUND('',#131,.T.);
#89=FACE_OUTER_BOUND('',#132,.T.);
#90=FACE_OUTER_BOUND('',#133,.T.);
#91=FACE_OUTER_BOUND('',#134,.T.);
#92=FACE_OUTER_BOUND('',#135,.T.);
#93=FACE_OUTER_BOUND('',#137,.T.);
#94=FACE_OUTER_BOUND('',#140,.T.);
#95=FACE_OUTER_BOUND('',#141,.T.);
#96=FACE_OUTER_BOUND('',#142,.T.);
#97=FACE_OUTER_BOUND('',#143,.T.);
#98=FACE_OUTER_BOUND('',#144,.T.);
#99=EDGE_LOOP('',(#402,#403,#404,#405));
#100=EDGE_LOOP('',(#406,#407,#408,#409,#410,#411,#412,#413));
#101=EDGE_LOOP('',(#414,#415,#416,#417,#418,#419));
#102=EDGE_LOOP('',(#420,#421,#422,#423,#424));
#103=EDGE_LOOP('',(#425,#426,#427,#428));
#104=EDGE_LOOP('',(#429,#430,#431,#432));
#105=EDGE_LOOP('',(#433,#434,#435,#436,#437));
#106=EDGE_LOOP('',(#438,#439,#440,#441));
#107=EDGE_LOOP('',(#442,#443,#444,#445,#446,#447,#448,#449,#450,#451,#452,
#453,#454,#455));
#108=EDGE_LOOP('',(#456));
#109=EDGE_LOOP('',(#457,#458,#459,#460));
#110=EDGE_LOOP('',(#461,#462,#463,#464));
#111=EDGE_LOOP('',(#465));
#112=EDGE_LOOP('',(#466));
#113=EDGE_LOOP('',(#467));
#114=EDGE_LOOP('',(#468,#469,#470,#471));
#115=EDGE_LOOP('',(#472,#473,#474,#475));
#116=EDGE_LOOP('',(#476,#477,#478,#479));
#117=EDGE_LOOP('',(#480));
#118=EDGE_LOOP('',(#481));
#119=EDGE_LOOP('',(#482,#483,#484,#485));
#120=EDGE_LOOP('',(#486));
#121=EDGE_LOOP('',(#487));
#122=EDGE_LOOP('',(#488,#489,#490,#491));
#123=EDGE_LOOP('',(#492));
#124=EDGE_LOOP('',(#493));
#125=EDGE_LOOP('',(#494,#495,#496,#497));
#126=EDGE_LOOP('',(#498));
#127=EDGE_LOOP('',(#499,#500,#501,#502));
#128=EDGE_LOOP('',(#503,#504,#505,#506));
#129=EDGE_LOOP('',(#507,#508,#509,#510));
#130=EDGE_LOOP('',(#511,#512,#513,#514));
#131=EDGE_LOOP('',(#515,#516,#517,#518));
#132=EDGE_LOOP('',(#519,#520,#521,#522));
#133=EDGE_LOOP('',(#523,#524,#525,#526));
#134=EDGE_LOOP('',(#527,#528,#529,#530,#531,#532));
#135=EDGE_LOOP('',(#533,#534,#535,#536,#537,#538,#539,#540,#541,#542));
#136=EDGE_LOOP('',(#543));
#137=EDGE_LOOP('',(#544,#545,#546,#547));
#138=EDGE_LOOP('',(#548));
#139=EDGE_LOOP('',(#549));
#140=EDGE_LOOP('',(#550,#551,#552,#553));
#141=EDGE_LOOP('',(#554,#555,#556,#557));
#142=EDGE_LOOP('',(#558,#559,#560,#561));
#143=EDGE_LOOP('',(#562,#563,#564,#565));
#144=EDGE_LOOP('',(#566,#567,#568,#569));
#145=LINE('',#895,#203);
#146=LINE('',#897,#204);
#147=LINE('',#898,#205);
#148=LINE('',#902,#206);
#149=LINE('',#904,#207);
#150=LINE('',#906,#208);
#151=LINE('',#908,#209);
#152=LINE('',#910,#210);
#153=LINE('',#912,#211);
#154=LINE('',#914,#212);
#155=LINE('',#915,#213);
#156=LINE('',#918,#214);
#157=LINE('',#920,#215);
#158=LINE('',#922,#216);
#159=LINE('',#924,#217);
#160=LINE('',#925,#218);
#161=LINE('',#928,#219);
#162=LINE('',#930,#220);
#163=LINE('',#932,#221);
#164=LINE('',#933,#222);
#165=LINE('',#936,#223);
#166=LINE('',#941,#224);
#167=LINE('',#944,#225);
#168=LINE('',#945,#226);
#169=LINE('',#952,#227);
#170=LINE('',#956,#228);
#171=LINE('',#960,#229);
#172=LINE('',#964,#230);
#173=LINE('',#966,#231);
#174=LINE('',#968,#232);
#175=LINE('',#970,#233);
#176=LINE('',#972,#234);
#177=LINE('',#973,#235);
#178=LINE('',#978,#236);
#179=LINE('',#979,#237);
#180=LINE('',#990,#238);
#181=LINE('',#994,#239);
#182=LINE('',#999,#240);
#183=LINE('',#1006,#241);
#184=LINE('',#1013,#242);
#185=LINE('',#1020,#243);
#186=LINE('',#1024,#244);
#187=LINE('',#1028,#245);
#188=LINE('',#1033,#246);
#189=LINE('',#1034,#247);
#190=LINE('',#1036,#248);
#191=LINE('',#1041,#249);
#192=LINE('',#1042,#250);
#193=LINE('',#1045,#251);
#194=LINE('',#1046,#252);
#195=LINE('',#1050,#253);
#196=LINE('',#1052,#254);
#197=LINE('',#1053,#255);
#198=LINE('',#1055,#256);
#199=LINE('',#1058,#257);
#200=LINE('',#1059,#258);
#201=LINE('',#1062,#259);
#202=LINE('',#1063,#260);
#203=VECTOR('',#711,10.);
#204=VECTOR('',#712,10.);
#205=VECTOR('',#713,10.);
#206=VECTOR('',#716,10.);
#207=VECTOR('',#717,10.);
#208=VECTOR('',#718,10.);
#209=VECTOR('',#719,10.);
#210=VECTOR('',#720,10.);
#211=VECTOR('',#721,10.);
#212=VECTOR('',#722,10.);
#213=VECTOR('',#723,10.);
#214=VECTOR('',#726,10.);
#215=VECTOR('',#727,10.);
#216=VECTOR('',#728,10.);
#217=VECTOR('',#729,10.);
#218=VECTOR('',#730,10.);
#219=VECTOR('',#733,10.);
#220=VECTOR('',#734,10.);
#221=VECTOR('',#735,10.);
#222=VECTOR('',#736,10.);
#223=VECTOR('',#739,10.);
#224=VECTOR('',#746,10.);
#225=VECTOR('',#749,10.);
#226=VECTOR('',#750,10.);
#227=VECTOR('',#759,10.);
#228=VECTOR('',#762,10.);
#229=VECTOR('',#765,10.);
#230=VECTOR('',#768,10.);
#231=VECTOR('',#769,10.);
#232=VECTOR('',#770,10.);
#233=VECTOR('',#771,10.);
#234=VECTOR('',#772,10.);
#235=VECTOR('',#773,10.);
#236=VECTOR('',#778,10.);
#237=VECTOR('',#779,10.);
#238=VECTOR('',#792,1.6);
#239=VECTOR('',#797,1.6);
#240=VECTOR('',#802,3.00000000000001);
#241=VECTOR('',#811,3.00000000000001);
#242=VECTOR('',#820,3.00000000000001);
#243=VECTOR('',#829,1.99999999999999);
#244=VECTOR('',#836,1.6);
#245=VECTOR('',#841,10.);
#246=VECTOR('',#846,10.);
#247=VECTOR('',#847,10.);
#248=VECTOR('',#850,10.);
#249=VECTOR('',#855,10.);
#250=VECTOR('',#856,10.);
#251=VECTOR('',#859,10.);
#252=VECTOR('',#860,10.);
#253=VECTOR('',#865,10.);
#254=VECTOR('',#868,10.);
#255=VECTOR('',#869,10.);
#256=VECTOR('',#872,10.);
#257=VECTOR('',#877,10.);
#258=VECTOR('',#878,10.);
#259=VECTOR('',#883,10.);
#260=VECTOR('',#884,10.);
#261=ELLIPSE('',#644,1.90963463212802,1.69999999999998);
#262=VERTEX_POINT('',#891);
#263=VERTEX_POINT('',#892);
#264=VERTEX_POINT('',#894);
#265=VERTEX_POINT('',#896);
#266=VERTEX_POINT('',#900);
#267=VERTEX_POINT('',#901);
#268=VERTEX_POINT('',#903);
#269=VERTEX_POINT('',#905);
#270=VERTEX_POINT('',#907);
#271=VERTEX_POINT('',#909);
#272=VERTEX_POINT('',#911);
#273=VERTEX_POINT('',#913);
#274=VERTEX_POINT('',#917);
#275=VERTEX_POINT('',#919);
#276=VERTEX_POINT('',#921);
#277=VERTEX_POINT('',#923);
#278=VERTEX_POINT('',#927);
#279=VERTEX_POINT('',#929);
#280=VERTEX_POINT('',#931);
#281=VERTEX_POINT('',#935);
#282=VERTEX_POINT('',#939);
#283=VERTEX_POINT('',#943);
#284=VERTEX_POINT('',#949);
#285=VERTEX_POINT('',#951);
#286=VERTEX_POINT('',#953);
#287=VERTEX_POINT('',#955);
#288=VERTEX_POINT('',#957);
#289=VERTEX_POINT('',#959);
#290=VERTEX_POINT('',#961);
#291=VERTEX_POINT('',#963);
#292=VERTEX_POINT('',#965);
#293=VERTEX_POINT('',#967);
#294=VERTEX_POINT('',#969);
#295=VERTEX_POINT('',#971);
#296=VERTEX_POINT('',#974);
#297=VERTEX_POINT('',#977);
#298=VERTEX_POINT('',#980);
#299=VERTEX_POINT('',#982);
#300=VERTEX_POINT('',#985);
#301=VERTEX_POINT('',#988);
#302=VERTEX_POINT('',#992);
#303=VERTEX_POINT('',#996);
#304=VERTEX_POINT('',#998);
#305=VERTEX_POINT('',#1003);
#306=VERTEX_POINT('',#1005);
#307=VERTEX_POINT('',#1010);
#308=VERTEX_POINT('',#1012);
#309=VERTEX_POINT('',#1016);
#310=VERTEX_POINT('',#1019);
#311=VERTEX_POINT('',#1026);
#312=VERTEX_POINT('',#1030);
#313=VERTEX_POINT('',#1031);
#314=VERTEX_POINT('',#1038);
#315=VERTEX_POINT('',#1039);
#316=VERTEX_POINT('',#1044);
#317=VERTEX_POINT('',#1048);
#318=EDGE_CURVE('',#262,#263,#261,.T.);
#319=EDGE_CURVE('',#264,#262,#145,.T.);
#320=EDGE_CURVE('',#265,#264,#146,.T.);
#321=EDGE_CURVE('',#263,#265,#147,.T.);
#322=EDGE_CURVE('',#266,#267,#148,.T.);
#323=EDGE_CURVE('',#266,#268,#149,.T.);
#324=EDGE_CURVE('',#268,#269,#150,.T.);
#325=EDGE_CURVE('',#269,#270,#151,.T.);
#326=EDGE_CURVE('',#271,#270,#152,.T.);
#327=EDGE_CURVE('',#271,#272,#153,.T.);
#328=EDGE_CURVE('',#272,#273,#154,.T.);
#329=EDGE_CURVE('',#267,#273,#155,.T.);
#330=EDGE_CURVE('',#274,#266,#156,.T.);
#331=EDGE_CURVE('',#275,#274,#157,.T.);
#332=EDGE_CURVE('',#276,#275,#158,.T.);
#333=EDGE_CURVE('',#277,#276,#159,.T.);
#334=EDGE_CURVE('',#268,#277,#160,.T.);
#335=EDGE_CURVE('',#265,#278,#161,.T.);
#336=EDGE_CURVE('',#278,#279,#162,.T.);
#337=EDGE_CURVE('',#280,#279,#163,.T.);
#338=EDGE_CURVE('',#280,#263,#164,.T.);
#339=EDGE_CURVE('',#281,#264,#165,.T.);
#340=EDGE_CURVE('',#278,#281,#38,.T.);
#341=EDGE_CURVE('',#282,#280,#39,.T.);
#342=EDGE_CURVE('',#282,#262,#166,.T.);
#343=EDGE_CURVE('',#283,#282,#167,.T.);
#344=EDGE_CURVE('',#281,#283,#168,.T.);
#345=EDGE_CURVE('',#279,#283,#40,.T.);
#346=EDGE_CURVE('',#276,#284,#41,.T.);
#347=EDGE_CURVE('',#284,#285,#169,.T.);
#348=EDGE_CURVE('',#285,#286,#42,.T.);
#349=EDGE_CURVE('',#287,#286,#170,.T.);
#350=EDGE_CURVE('',#287,#288,#43,.T.);
#351=EDGE_CURVE('',#288,#289,#171,.T.);
#352=EDGE_CURVE('',#289,#290,#44,.T.);
#353=EDGE_CURVE('',#291,#290,#172,.T.);
#354=EDGE_CURVE('',#291,#292,#173,.T.);
#355=EDGE_CURVE('',#292,#293,#174,.T.);
#356=EDGE_CURVE('',#294,#293,#175,.T.);
#357=EDGE_CURVE('',#294,#295,#176,.T.);
#358=EDGE_CURVE('',#295,#277,#177,.T.);
#359=EDGE_CURVE('',#296,#296,#45,.T.);
#360=EDGE_CURVE('',#297,#267,#178,.T.);
#361=EDGE_CURVE('',#274,#297,#179,.T.);
#362=EDGE_CURVE('',#298,#298,#46,.T.);
#363=EDGE_CURVE('',#299,#299,#47,.T.);
#364=EDGE_CURVE('',#300,#300,#48,.T.);
#365=EDGE_CURVE('',#301,#301,#49,.T.);
#366=EDGE_CURVE('',#301,#299,#180,.T.);
#367=EDGE_CURVE('',#302,#302,#50,.T.);
#368=EDGE_CURVE('',#302,#298,#181,.T.);
#369=EDGE_CURVE('',#303,#303,#51,.T.);
#370=EDGE_CURVE('',#303,#304,#182,.T.);
#371=EDGE_CURVE('',#304,#304,#52,.T.);
#372=EDGE_CURVE('',#305,#305,#53,.T.);
#373=EDGE_CURVE('',#305,#306,#183,.T.);
#374=EDGE_CURVE('',#306,#306,#54,.T.);
#375=EDGE_CURVE('',#307,#307,#55,.T.);
#376=EDGE_CURVE('',#307,#308,#184,.T.);
#377=EDGE_CURVE('',#308,#308,#56,.T.);
#378=EDGE_CURVE('',#309,#309,#57,.T.);
#379=EDGE_CURVE('',#296,#310,#185,.T.);
#380=EDGE_CURVE('',#310,#310,#58,.T.);
#381=EDGE_CURVE('',#300,#309,#186,.T.);
#382=EDGE_CURVE('',#311,#275,#59,.T.);
#383=EDGE_CURVE('',#284,#311,#187,.T.);
#384=EDGE_CURVE('',#312,#313,#60,.T.);
#385=EDGE_CURVE('',#312,#286,#188,.T.);
#386=EDGE_CURVE('',#285,#313,#189,.T.);
#387=EDGE_CURVE('',#313,#311,#190,.T.);
#388=EDGE_CURVE('',#314,#315,#61,.T.);
#389=EDGE_CURVE('',#314,#290,#191,.T.);
#390=EDGE_CURVE('',#289,#315,#192,.T.);
#391=EDGE_CURVE('',#315,#316,#193,.T.);
#392=EDGE_CURVE('',#288,#316,#194,.T.);
#393=EDGE_CURVE('',#316,#317,#62,.T.);
#394=EDGE_CURVE('',#317,#287,#195,.T.);
#395=EDGE_CURVE('',#297,#314,#196,.T.);
#396=EDGE_CURVE('',#273,#291,#197,.T.);
#397=EDGE_CURVE('',#312,#317,#198,.T.);
#398=EDGE_CURVE('',#270,#294,#199,.T.);
#399=EDGE_CURVE('',#295,#269,#200,.T.);
#400=EDGE_CURVE('',#293,#271,#201,.T.);
#401=EDGE_CURVE('',#292,#272,#202,.T.);
#402=ORIENTED_EDGE('',*,*,#318,.F.);
#403=ORIENTED_EDGE('',*,*,#319,.F.);
#404=ORIENTED_EDGE('',*,*,#320,.F.);
#405=ORIENTED_EDGE('',*,*,#321,.F.);
#406=ORIENTED_EDGE('',*,*,#322,.F.);
#407=ORIENTED_EDGE('',*,*,#323,.T.);
#408=ORIENTED_EDGE('',*,*,#324,.T.);
#409=ORIENTED_EDGE('',*,*,#325,.T.);
#410=ORIENTED_EDGE('',*,*,#326,.F.);
#411=ORIENTED_EDGE('',*,*,#327,.T.);
#412=ORIENTED_EDGE('',*,*,#328,.T.);
#413=ORIENTED_EDGE('',*,*,#329,.F.);
#414=ORIENTED_EDGE('',*,*,#323,.F.);
#415=ORIENTED_EDGE('',*,*,#330,.F.);
#416=ORIENTED_EDGE('',*,*,#331,.F.);
#417=ORIENTED_EDGE('',*,*,#332,.F.);
#418=ORIENTED_EDGE('',*,*,#333,.F.);
#419=ORIENTED_EDGE('',*,*,#334,.F.);
#420=ORIENTED_EDGE('',*,*,#321,.T.);
#421=ORIENTED_EDGE('',*,*,#335,.T.);
#422=ORIENTED_EDGE('',*,*,#336,.T.);
#423=ORIENTED_EDGE('',*,*,#337,.F.);
#424=ORIENTED_EDGE('',*,*,#338,.T.);
#425=ORIENTED_EDGE('',*,*,#320,.T.);
#426=ORIENTED_EDGE('',*,*,#339,.F.);
#427=ORIENTED_EDGE('',*,*,#340,.F.);
#428=ORIENTED_EDGE('',*,*,#335,.F.);
#429=ORIENTED_EDGE('',*,*,#318,.T.);
#430=ORIENTED_EDGE('',*,*,#338,.F.);
#431=ORIENTED_EDGE('',*,*,#341,.F.);
#432=ORIENTED_EDGE('',*,*,#342,.T.);
#433=ORIENTED_EDGE('',*,*,#319,.T.);
#434=ORIENTED_EDGE('',*,*,#342,.F.);
#435=ORIENTED_EDGE('',*,*,#343,.F.);
#436=ORIENTED_EDGE('',*,*,#344,.F.);
#437=ORIENTED_EDGE('',*,*,#339,.T.);
#438=ORIENTED_EDGE('',*,*,#344,.T.);
#439=ORIENTED_EDGE('',*,*,#345,.F.);
#440=ORIENTED_EDGE('',*,*,#336,.F.);
#441=ORIENTED_EDGE('',*,*,#340,.T.);
#442=ORIENTED_EDGE('',*,*,#333,.T.);
#443=ORIENTED_EDGE('',*,*,#346,.T.);
#444=ORIENTED_EDGE('',*,*,#347,.T.);
#445=ORIENTED_EDGE('',*,*,#348,.T.);
#446=ORIENTED_EDGE('',*,*,#349,.F.);
#447=ORIENTED_EDGE('',*,*,#350,.T.);
#448=ORIENTED_EDGE('',*,*,#351,.T.);
#449=ORIENTED_EDGE('',*,*,#352,.T.);
#450=ORIENTED_EDGE('',*,*,#353,.F.);
#451=ORIENTED_EDGE('',*,*,#354,.T.);
#452=ORIENTED_EDGE('',*,*,#355,.T.);
#453=ORIENTED_EDGE('',*,*,#356,.F.);
#454=ORIENTED_EDGE('',*,*,#357,.T.);
#455=ORIENTED_EDGE('',*,*,#358,.T.);
#456=ORIENTED_EDGE('',*,*,#359,.T.);
#457=ORIENTED_EDGE('',*,*,#343,.T.);
#458=ORIENTED_EDGE('',*,*,#341,.T.);
#459=ORIENTED_EDGE('',*,*,#337,.T.);
#460=ORIENTED_EDGE('',*,*,#345,.T.);
#461=ORIENTED_EDGE('',*,*,#322,.T.);
#462=ORIENTED_EDGE('',*,*,#360,.F.);
#463=ORIENTED_EDGE('',*,*,#361,.F.);
#464=ORIENTED_EDGE('',*,*,#330,.T.);
#465=ORIENTED_EDGE('',*,*,#362,.T.);
#466=ORIENTED_EDGE('',*,*,#363,.T.);
#467=ORIENTED_EDGE('',*,*,#364,.F.);
#468=ORIENTED_EDGE('',*,*,#365,.F.);
#469=ORIENTED_EDGE('',*,*,#366,.T.);
#470=ORIENTED_EDGE('',*,*,#363,.F.);
#471=ORIENTED_EDGE('',*,*,#366,.F.);
#472=ORIENTED_EDGE('',*,*,#367,.F.);
#473=ORIENTED_EDGE('',*,*,#368,.T.);
#474=ORIENTED_EDGE('',*,*,#362,.F.);
#475=ORIENTED_EDGE('',*,*,#368,.F.);
#476=ORIENTED_EDGE('',*,*,#369,.F.);
#477=ORIENTED_EDGE('',*,*,#370,.T.);
#478=ORIENTED_EDGE('',*,*,#371,.T.);
#479=ORIENTED_EDGE('',*,*,#370,.F.);
#480=ORIENTED_EDGE('',*,*,#371,.F.);
#481=ORIENTED_EDGE('',*,*,#367,.T.);
#482=ORIENTED_EDGE('',*,*,#372,.F.);
#483=ORIENTED_EDGE('',*,*,#373,.T.);
#484=ORIENTED_EDGE('',*,*,#374,.T.);
#485=ORIENTED_EDGE('',*,*,#373,.F.);
#486=ORIENTED_EDGE('',*,*,#374,.F.);
#487=ORIENTED_EDGE('',*,*,#365,.T.);
#488=ORIENTED_EDGE('',*,*,#375,.F.);
#489=ORIENTED_EDGE('',*,*,#376,.T.);
#490=ORIENTED_EDGE('',*,*,#377,.T.);
#491=ORIENTED_EDGE('',*,*,#376,.F.);
#492=ORIENTED_EDGE('',*,*,#377,.F.);
#493=ORIENTED_EDGE('',*,*,#378,.F.);
#494=ORIENTED_EDGE('',*,*,#359,.F.);
#495=ORIENTED_EDGE('',*,*,#379,.T.);
#496=ORIENTED_EDGE('',*,*,#380,.T.);
#497=ORIENTED_EDGE('',*,*,#379,.F.);
#498=ORIENTED_EDGE('',*,*,#380,.F.);
#499=ORIENTED_EDGE('',*,*,#364,.T.);
#500=ORIENTED_EDGE('',*,*,#381,.T.);
#501=ORIENTED_EDGE('',*,*,#378,.T.);
#502=ORIENTED_EDGE('',*,*,#381,.F.);
#503=ORIENTED_EDGE('',*,*,#382,.F.);
#504=ORIENTED_EDGE('',*,*,#383,.F.);
#505=ORIENTED_EDGE('',*,*,#346,.F.);
#506=ORIENTED_EDGE('',*,*,#332,.T.);
#507=ORIENTED_EDGE('',*,*,#384,.F.);
#508=ORIENTED_EDGE('',*,*,#385,.T.);
#509=ORIENTED_EDGE('',*,*,#348,.F.);
#510=ORIENTED_EDGE('',*,*,#386,.T.);
#511=ORIENTED_EDGE('',*,*,#387,.F.);
#512=ORIENTED_EDGE('',*,*,#386,.F.);
#513=ORIENTED_EDGE('',*,*,#347,.F.);
#514=ORIENTED_EDGE('',*,*,#383,.T.);
#515=ORIENTED_EDGE('',*,*,#388,.F.);
#516=ORIENTED_EDGE('',*,*,#389,.T.);
#517=ORIENTED_EDGE('',*,*,#352,.F.);
#518=ORIENTED_EDGE('',*,*,#390,.T.);
#519=ORIENTED_EDGE('',*,*,#391,.F.);
#520=ORIENTED_EDGE('',*,*,#390,.F.);
#521=ORIENTED_EDGE('',*,*,#351,.F.);
#522=ORIENTED_EDGE('',*,*,#392,.T.);
#523=ORIENTED_EDGE('',*,*,#393,.F.);
#524=ORIENTED_EDGE('',*,*,#392,.F.);
#525=ORIENTED_EDGE('',*,*,#350,.F.);
#526=ORIENTED_EDGE('',*,*,#394,.F.);
#527=ORIENTED_EDGE('',*,*,#389,.F.);
#528=ORIENTED_EDGE('',*,*,#395,.F.);
#529=ORIENTED_EDGE('',*,*,#360,.T.);
#530=ORIENTED_EDGE('',*,*,#329,.T.);
#531=ORIENTED_EDGE('',*,*,#396,.T.);
#532=ORIENTED_EDGE('',*,*,#353,.T.);
#533=ORIENTED_EDGE('',*,*,#384,.T.);
#534=ORIENTED_EDGE('',*,*,#387,.T.);
#535=ORIENTED_EDGE('',*,*,#382,.T.);
#536=ORIENTED_EDGE('',*,*,#331,.T.);
#537=ORIENTED_EDGE('',*,*,#361,.T.);
#538=ORIENTED_EDGE('',*,*,#395,.T.);
#539=ORIENTED_EDGE('',*,*,#388,.T.);
#540=ORIENTED_EDGE('',*,*,#391,.T.);
#541=ORIENTED_EDGE('',*,*,#393,.T.);
#542=ORIENTED_EDGE('',*,*,#397,.F.);
#543=ORIENTED_EDGE('',*,*,#375,.T.);
#544=ORIENTED_EDGE('',*,*,#385,.F.);
#545=ORIENTED_EDGE('',*,*,#397,.T.);
#546=ORIENTED_EDGE('',*,*,#394,.T.);
#547=ORIENTED_EDGE('',*,*,#349,.T.);
#548=ORIENTED_EDGE('',*,*,#369,.T.);
#549=ORIENTED_EDGE('',*,*,#372,.T.);
#550=ORIENTED_EDGE('',*,*,#398,.F.);
#551=ORIENTED_EDGE('',*,*,#325,.F.);
#552=ORIENTED_EDGE('',*,*,#399,.F.);
#553=ORIENTED_EDGE('',*,*,#357,.F.);
#554=ORIENTED_EDGE('',*,*,#334,.T.);
#555=ORIENTED_EDGE('',*,*,#358,.F.);
#556=ORIENTED_EDGE('',*,*,#399,.T.);
#557=ORIENTED_EDGE('',*,*,#324,.F.);
#558=ORIENTED_EDGE('',*,*,#400,.F.);
#559=ORIENTED_EDGE('',*,*,#355,.F.);
#560=ORIENTED_EDGE('',*,*,#401,.T.);
#561=ORIENTED_EDGE('',*,*,#327,.F.);
#562=ORIENTED_EDGE('',*,*,#354,.F.);
#563=ORIENTED_EDGE('',*,*,#396,.F.);
#564=ORIENTED_EDGE('',*,*,#328,.F.);
#565=ORIENTED_EDGE('',*,*,#401,.F.);
#566=ORIENTED_EDGE('',*,*,#398,.T.);
#567=ORIENTED_EDGE('',*,*,#356,.T.);
#568=ORIENTED_EDGE('',*,*,#400,.T.);
#569=ORIENTED_EDGE('',*,*,#326,.T.);
#570=PLANE('',#643);
#571=PLANE('',#645);
#572=PLANE('',#646);
#573=PLANE('',#647);
#574=PLANE('',#648);
#575=PLANE('',#652);
#576=PLANE('',#655);
#577=PLANE('',#661);
#578=PLANE('',#664);
#579=PLANE('',#673);
#580=PLANE('',#677);
#581=PLANE('',#681);
#582=PLANE('',#685);
#583=PLANE('',#691);
#584=PLANE('',#694);
#585=PLANE('',#697);
#586=PLANE('',#698);
#587=PLANE('',#699);
#588=PLANE('',#700);
#589=PLANE('',#701);
#590=PLANE('',#702);
#591=PLANE('',#703);
#592=PLANE('',#704);
#593=ADVANCED_FACE('',(#63),#570,.T.);
#594=ADVANCED_FACE('',(#64),#571,.T.);
#595=ADVANCED_FACE('',(#65),#572,.F.);
#596=ADVANCED_FACE('',(#66),#573,.F.);
#597=ADVANCED_FACE('',(#67),#574,.T.);
#598=ADVANCED_FACE('',(#68),#25,.F.);
#599=ADVANCED_FACE('',(#69),#575,.F.);
#600=ADVANCED_FACE('',(#70),#26,.F.);
#601=ADVANCED_FACE('',(#71,#15,#16),#576,.T.);
#602=ADVANCED_FACE('',(#72,#17,#18),#577,.F.);
#603=ADVANCED_FACE('',(#73),#578,.F.);
#604=ADVANCED_FACE('',(#74),#27,.F.);
#605=ADVANCED_FACE('',(#75),#28,.F.);
#606=ADVANCED_FACE('',(#76),#29,.F.);
#607=ADVANCED_FACE('',(#77,#19),#579,.T.);
#608=ADVANCED_FACE('',(#78),#30,.F.);
#609=ADVANCED_FACE('',(#79,#20),#580,.T.);
#610=ADVANCED_FACE('',(#80),#31,.F.);
#611=ADVANCED_FACE('',(#81,#21),#581,.F.);
#612=ADVANCED_FACE('',(#82),#32,.F.);
#613=ADVANCED_FACE('',(#83),#582,.T.);
#614=ADVANCED_FACE('',(#84),#33,.F.);
#615=ADVANCED_FACE('',(#85),#34,.T.);
#616=ADVANCED_FACE('',(#86),#35,.T.);
#617=ADVANCED_FACE('',(#87),#583,.F.);
#618=ADVANCED_FACE('',(#88),#36,.T.);
#619=ADVANCED_FACE('',(#89),#584,.F.);
#620=ADVANCED_FACE('',(#90),#37,.T.);
#621=ADVANCED_FACE('',(#91),#585,.T.);
#622=ADVANCED_FACE('',(#92,#22),#586,.T.);
#623=ADVANCED_FACE('',(#93,#23,#24),#587,.T.);
#624=ADVANCED_FACE('',(#94),#588,.F.);
#625=ADVANCED_FACE('',(#95),#589,.F.);
#626=ADVANCED_FACE('',(#96),#590,.F.);
#627=ADVANCED_FACE('',(#97),#591,.F.);
#628=ADVANCED_FACE('',(#98),#592,.T.);
#629=CLOSED_SHELL('',(#593,#594,#595,#596,#597,#598,#599,#600,#601,#602,
#603,#604,#605,#606,#607,#608,#609,#610,#611,#612,#613,#614,#615,#616,#617,
#618,#619,#620,#621,#622,#623,#624,#625,#626,#627,#628));
#630=DERIVED_UNIT_ELEMENT(#632,1.);
#631=DERIVED_UNIT_ELEMENT(#1071,-3.);
#632=(
MASS_UNIT()
NAMED_UNIT(*)
SI_UNIT(.KILO.,.GRAM.)
);
#633=DERIVED_UNIT((#630,#631));
#634=MEASURE_REPRESENTATION_ITEM('density measure',
POSITIVE_RATIO_MEASURE(7850.),#633);
#635=PROPERTY_DEFINITION_REPRESENTATION(#640,#637);
#636=PROPERTY_DEFINITION_REPRESENTATION(#641,#638);
#637=REPRESENTATION('material name',(#639),#1068);
#638=REPRESENTATION('density',(#634),#1068);
#639=DESCRIPTIVE_REPRESENTATION_ITEM('Steel','Steel');
#640=PROPERTY_DEFINITION('material property','material name',#1078);
#641=PROPERTY_DEFINITION('material property','density of part',#1078);
#642=AXIS2_PLACEMENT_3D('',#889,#705,#706);
#643=AXIS2_PLACEMENT_3D('',#890,#707,#708);
#644=AXIS2_PLACEMENT_3D('',#893,#709,#710);
#645=AXIS2_PLACEMENT_3D('',#899,#714,#715);
#646=AXIS2_PLACEMENT_3D('',#916,#724,#725);
#647=AXIS2_PLACEMENT_3D('',#926,#731,#732);
#648=AXIS2_PLACEMENT_3D('',#934,#737,#738);
#649=AXIS2_PLACEMENT_3D('',#937,#740,#741);
#650=AXIS2_PLACEMENT_3D('',#938,#742,#743);
#651=AXIS2_PLACEMENT_3D('',#940,#744,#745);
#652=AXIS2_PLACEMENT_3D('',#942,#747,#748);
#653=AXIS2_PLACEMENT_3D('',#946,#751,#752);
#654=AXIS2_PLACEMENT_3D('',#947,#753,#754);
#655=AXIS2_PLACEMENT_3D('',#948,#755,#756);
#656=AXIS2_PLACEMENT_3D('',#950,#757,#758);
#657=AXIS2_PLACEMENT_3D('',#954,#760,#761);
#658=AXIS2_PLACEMENT_3D('',#958,#763,#764);
#659=AXIS2_PLACEMENT_3D('',#962,#766,#767);
#660=AXIS2_PLACEMENT_3D('',#975,#774,#775);
#661=AXIS2_PLACEMENT_3D('',#976,#776,#777);
#662=AXIS2_PLACEMENT_3D('',#981,#780,#781);
#663=AXIS2_PLACEMENT_3D('',#983,#782,#783);
#664=AXIS2_PLACEMENT_3D('',#984,#784,#785);
#665=AXIS2_PLACEMENT_3D('',#986,#786,#787);
#666=AXIS2_PLACEMENT_3D('',#987,#788,#789);
#667=AXIS2_PLACEMENT_3D('',#989,#790,#791);
#668=AXIS2_PLACEMENT_3D('',#991,#793,#794);
#669=AXIS2_PLACEMENT_3D('',#993,#795,#796);
#670=AXIS2_PLACEMENT_3D('',#995,#798,#799);
#671=AXIS2_PLACEMENT_3D('',#997,#800,#801);
#672=AXIS2_PLACEMENT_3D('',#1000,#803,#804);
#673=AXIS2_PLACEMENT_3D('',#1001,#805,#806);
#674=AXIS2_PLACEMENT_3D('',#1002,#807,#808);
#675=AXIS2_PLACEMENT_3D('',#1004,#809,#810);
#676=AXIS2_PLACEMENT_3D('',#1007,#812,#813);
#677=AXIS2_PLACEMENT_3D('',#1008,#814,#815);
#678=AXIS2_PLACEMENT_3D('',#1009,#816,#817);
#679=AXIS2_PLACEMENT_3D('',#1011,#818,#819);
#680=AXIS2_PLACEMENT_3D('',#1014,#821,#822);
#681=AXIS2_PLACEMENT_3D('',#1015,#823,#824);
#682=AXIS2_PLACEMENT_3D('',#1017,#825,#826);
#683=AXIS2_PLACEMENT_3D('',#1018,#827,#828);
#684=AXIS2_PLACEMENT_3D('',#1021,#830,#831);
#685=AXIS2_PLACEMENT_3D('',#1022,#832,#833);
#686=AXIS2_PLACEMENT_3D('',#1023,#834,#835);
#687=AXIS2_PLACEMENT_3D('',#1025,#837,#838);
#688=AXIS2_PLACEMENT_3D('',#1027,#839,#840);
#689=AXIS2_PLACEMENT_3D('',#1029,#842,#843);
#690=AXIS2_PLACEMENT_3D('',#1032,#844,#845);
#691=AXIS2_PLACEMENT_3D('',#1035,#848,#849);
#692=AXIS2_PLACEMENT_3D('',#1037,#851,#852);
#693=AXIS2_PLACEMENT_3D('',#1040,#853,#854);
#694=AXIS2_PLACEMENT_3D('',#1043,#857,#858);
#695=AXIS2_PLACEMENT_3D('',#1047,#861,#862);
#696=AXIS2_PLACEMENT_3D('',#1049,#863,#864);
#697=AXIS2_PLACEMENT_3D('',#1051,#866,#867);
#698=AXIS2_PLACEMENT_3D('',#1054,#870,#871);
#699=AXIS2_PLACEMENT_3D('',#1056,#873,#874);
#700=AXIS2_PLACEMENT_3D('',#1057,#875,#876);
#701=AXIS2_PLACEMENT_3D('',#1060,#879,#880);
#702=AXIS2_PLACEMENT_3D('',#1061,#881,#882);
#703=AXIS2_PLACEMENT_3D('',#1064,#885,#886);
#704=AXIS2_PLACEMENT_3D('',#1065,#887,#888);
#705=DIRECTION('axis',(0.,0.,1.));
#706=DIRECTION('refdir',(1.,0.,0.));
#707=DIRECTION('center_axis',(1.72957032621575E-15,0.455525669952954,-0.890222648562657));
#708=DIRECTION('ref_axis',(-1.82810583372982E-15,-0.890222648562657,-0.455525669952954));
#709=DIRECTION('center_axis',(-1.72957032621575E-15,-0.455525669952954,
0.890222648562657));
#710=DIRECTION('ref_axis',(-1.173660496754E-15,-0.890222648562657,-0.455525669952954));
#711=DIRECTION('',(-1.173660496754E-15,-0.890222648562657,-0.455525669952954));
#712=DIRECTION('',(-1.,5.00139748250057E-15,6.16356608750924E-16));
#713=DIRECTION('',(3.8092489806928E-15,0.890222648562657,0.455525669952954));
#714=DIRECTION('center_axis',(1.19700595646911E-16,-1.04738021191052E-15,
1.));
#715=DIRECTION('ref_axis',(-1.,1.27892605161503E-15,1.19700595646912E-16));
#716=DIRECTION('',(1.,-1.31838984174238E-15,-1.19700595646912E-16));
#717=DIRECTION('',(-1.46806350363656E-15,-1.,-1.04738021191052E-15));
#718=DIRECTION('',(1.,9.52520890445454E-16,-1.1970059564691E-16));
#719=DIRECTION('',(-1.31838984174238E-15,-1.,-1.04738021191052E-15));
#720=DIRECTION('',(-1.,1.27892605161503E-15,1.19700595646912E-16));
#721=DIRECTION('',(-4.14732351025841E-15,1.,1.04738021191053E-15));
#722=DIRECTION('',(1.,-1.31838984174238E-15,-1.19700595646912E-16));
#723=DIRECTION('',(0.,-1.,-1.04738021191052E-15));
#724=DIRECTION('center_axis',(1.,-1.31838984174238E-15,0.));
#725=DIRECTION('ref_axis',(1.31838984174238E-15,1.,4.83713383010031E-18));
#726=DIRECTION('',(1.32426525749041E-30,1.00445650866079E-15,-1.));
#727=DIRECTION('',(-1.31838984174238E-15,-1.,-1.00929365875014E-15));
#728=DIRECTION('',(0.,0.,1.));
#729=DIRECTION('',(1.31838984174238E-15,1.,1.00929365875014E-15));
#730=DIRECTION('',(0.,0.,-1.));
#731=DIRECTION('center_axis',(1.,-4.27898457407613E-15,0.));
#732=DIRECTION('ref_axis',(4.27898457407613E-15,1.,4.83713383009849E-18));
#733=DIRECTION('',(4.27898457407613E-15,1.,4.83713383009849E-18));
#734=DIRECTION('',(0.,0.,-1.));
#735=DIRECTION('',(4.27898457407613E-15,1.,1.00929365875014E-15));
#736=DIRECTION('',(0.,0.,1.));
#737=DIRECTION('center_axis',(-6.16356608750924E-16,4.83713383010113E-18,
-1.));
#738=DIRECTION('ref_axis',(-1.,1.31838984174238E-15,6.16356608750924E-16));
#739=DIRECTION('',(-1.31838984174238E-15,-1.,-4.83713383010031E-18));
#740=DIRECTION('center_axis',(6.16356608750924E-16,-4.83713383010113E-18,
1.));
#741=DIRECTION('ref_axis',(-1.,1.31838984174238E-15,6.16356608750924E-16));
#742=DIRECTION('center_axis',(0.,0.,1.));
#743=DIRECTION('ref_axis',(-1.,1.31838984174238E-15,0.));
#744=DIRECTION('center_axis',(-6.35963077781514E-30,-1.00929365875014E-15,
1.));
#745=DIRECTION('ref_axis',(-1.,1.31838984174238E-15,0.));
#746=DIRECTION('',(0.,0.,1.));
#747=DIRECTION('center_axis',(-1.,1.31838984174238E-15,0.));
#748=DIRECTION('ref_axis',(-1.31838984174238E-15,-1.,-4.83713383010031E-18));
#749=DIRECTION('',(-1.31838984174238E-15,-1.,-1.00929365875014E-15));
#750=DIRECTION('',(0.,0.,-1.));
#751=DIRECTION('center_axis',(0.,0.,1.));
#752=DIRECTION('ref_axis',(-1.,1.31838984174238E-15,0.));
#753=DIRECTION('center_axis',(-6.35963077781514E-30,-1.00929365875014E-15,
1.));
#754=DIRECTION('ref_axis',(-1.,1.31838984174238E-15,0.));
#755=DIRECTION('center_axis',(6.35963077781514E-30,1.00929365875014E-15,
-1.));
#756=DIRECTION('ref_axis',(-1.,1.31838984174238E-15,-5.02898827078395E-30));
#757=DIRECTION('center_axis',(6.35963077781514E-30,1.00929365875014E-15,
-1.));
#758=DIRECTION('ref_axis',(-1.,-2.73461808753124E-13,0.));
#759=DIRECTION('',(0.743542227417168,0.668688983046316,6.74903550264733E-16));
#760=DIRECTION('center_axis',(6.35963077781514E-30,1.00929365875014E-15,
-1.));
#761=DIRECTION('ref_axis',(-0.668688983046301,0.743542227417182,0.));
#762=DIRECTION('',(-1.,1.31838984174238E-15,-5.02898827078395E-30));
#763=DIRECTION('center_axis',(6.35963077781514E-30,1.00929365875014E-15,
-1.));
#764=DIRECTION('ref_axis',(1.31838984174238E-15,1.,0.));
#765=DIRECTION('',(0.743542227417166,-0.668688983046319,-6.74903550264726E-16));
#766=DIRECTION('center_axis',(6.35963077781514E-30,1.00929365875014E-15,
-1.));
#767=DIRECTION('ref_axis',(0.668688983046477,0.743542227417023,0.));
#768=DIRECTION('',(1.46806350363657E-15,1.,1.00929365875014E-15));
#769=DIRECTION('',(-1.,1.31838984174238E-15,-5.02898827078395E-30));
#770=DIRECTION('',(4.14732351025841E-15,-1.,-1.00929365875014E-15));
#771=DIRECTION('',(1.,-1.31838984174238E-15,5.02898827078395E-30));
#772=DIRECTION('',(1.31838984174238E-15,1.,1.00929365875014E-15));
#773=DIRECTION('',(-1.,-9.52520890445454E-16,-7.32100407236877E-30));
#774=DIRECTION('center_axis',(-6.35963077781514E-30,-1.00929365875014E-15,
1.));
#775=DIRECTION('ref_axis',(-1.,1.31838984174238E-15,0.));
#776=DIRECTION('center_axis',(1.31838984174238E-15,1.,1.00445650866079E-15));
#777=DIRECTION('ref_axis',(-1.,1.31838984174238E-15,-5.02898827078395E-30));
#778=DIRECTION('',(6.41726685893862E-30,1.08514555358694E-15,-1.));
#779=DIRECTION('',(1.,-1.31611695911468E-15,5.03127128253276E-30));
#780=DIRECTION('center_axis',(1.31838984174238E-15,1.,1.00445650866079E-15));
#781=DIRECTION('ref_axis',(-1.,3.04518315325757E-15,-4.50783870917415E-30));
#782=DIRECTION('center_axis',(1.31838984174238E-15,1.,1.00445650866079E-15));
#783=DIRECTION('ref_axis',(-1.,3.04518315325757E-15,-4.51194224902934E-30));
#784=DIRECTION('center_axis',(-1.23271321750186E-15,-9.99619391089939E-16,
-1.));
#785=DIRECTION('ref_axis',(-1.,1.31838984174238E-15,1.23271321750186E-15));
#786=DIRECTION('center_axis',(-1.23271321750186E-15,-9.99619391089939E-16,
-1.));
#787=DIRECTION('ref_axis',(-1.,1.31838984174238E-15,0.));
#788=DIRECTION('center_axis',(-3.04518315325757E-15,-1.,-1.99840144432528E-15));
#789=DIRECTION('ref_axis',(-1.,3.04518315325757E-15,-4.51194224902934E-30));
#790=DIRECTION('center_axis',(-2.78645334537897E-15,-1.,-2.01375016741094E-15));
#791=DIRECTION('ref_axis',(-1.,3.04518315325757E-15,-4.51194224902934E-30));
#792=DIRECTION('',(-3.04518315325757E-15,-1.,-1.99840144432528E-15));
#793=DIRECTION('center_axis',(-3.04518315325757E-15,-1.,-2.0142617732485E-15));
#794=DIRECTION('ref_axis',(-1.,3.04518315325757E-15,-4.50783870917415E-30));
#795=DIRECTION('center_axis',(-2.78645334537897E-15,-1.,-2.01375016741094E-15));
#796=DIRECTION('ref_axis',(-1.,3.04518315325757E-15,-4.50783870917415E-30));
#797=DIRECTION('',(-3.04518315325757E-15,-1.,-2.0142617732485E-15));
#798=DIRECTION('center_axis',(-2.53765262771464E-15,-1.,-2.02219193771011E-15));
#799=DIRECTION('ref_axis',(-1.,2.53765262771464E-15,-5.53211107614123E-30));
#800=DIRECTION('center_axis',(-1.46806350363657E-15,-1.,-1.00929365875014E-15));
#801=DIRECTION('ref_axis',(-1.,2.53765262771464E-15,-5.53211107614123E-30));
#802=DIRECTION('',(-2.53765262771464E-15,-1.,-2.02219193771011E-15));
#803=DIRECTION('center_axis',(-2.78645334537897E-15,-1.,-2.01375016741094E-15));
#804=DIRECTION('ref_axis',(-1.,2.78645334537897E-15,-5.02898827078395E-30));
#805=DIRECTION('center_axis',(2.78645334537897E-15,1.,2.01375016741094E-15));
#806=DIRECTION('ref_axis',(-1.,2.78645334537897E-15,-5.02898827078395E-30));
#807=DIRECTION('center_axis',(-2.53765262771464E-15,-1.,-1.98254111540206E-15));
#808=DIRECTION('ref_axis',(-1.,2.53765262771464E-15,-5.52224592309501E-30));
#809=DIRECTION('center_axis',(-1.46806350363657E-15,-1.,-1.00929365875014E-15));
#810=DIRECTION('ref_axis',(-1.,2.53765262771464E-15,-5.52224592309501E-30));
#811=DIRECTION('',(-2.53765262771464E-15,-1.,-1.98254111540206E-15));
#812=DIRECTION('center_axis',(-2.78645334537897E-15,-1.,-2.01375016741094E-15));
#813=DIRECTION('ref_axis',(-1.,2.78645334537897E-15,-5.02898827078395E-30));
#814=DIRECTION('center_axis',(2.78645334537897E-15,1.,2.01375016741094E-15));
#815=DIRECTION('ref_axis',(-1.,2.78645334537897E-15,-5.02898827078395E-30));
#816=DIRECTION('center_axis',(0.,0.,-1.));
#817=DIRECTION('ref_axis',(-1.,1.31838984174238E-15,0.));
#818=DIRECTION('center_axis',(6.35961978354073E-30,1.00929365875014E-15,
-1.));
#819=DIRECTION('ref_axis',(-1.,1.31838984174238E-15,0.));
#820=DIRECTION('',(0.,0.,-1.));
#821=DIRECTION('center_axis',(-6.16356608750924E-16,4.83713383010113E-18,
-1.));
#822=DIRECTION('ref_axis',(-1.,1.31838984174238E-15,6.16356608750924E-16));
#823=DIRECTION('center_axis',(-6.16356608750924E-16,4.83713383010113E-18,
-1.));
#824=DIRECTION('ref_axis',(-1.,1.31838984174238E-15,6.16356608750924E-16));
#825=DIRECTION('center_axis',(6.16356608750924E-16,-4.83713383010113E-18,
1.));
#826=DIRECTION('ref_axis',(-1.,1.31838984174238E-15,0.));
#827=DIRECTION('center_axis',(0.,0.,1.));
#828=DIRECTION('ref_axis',(-1.,1.31838984174238E-15,0.));
#829=DIRECTION('',(0.,0.,1.));
#830=DIRECTION('center_axis',(6.16356608750924E-16,-4.83713383010113E-18,
1.));
#831=DIRECTION('ref_axis',(-1.,1.31838984174238E-15,6.16356608750924E-16));
#832=DIRECTION('center_axis',(-6.16356608750924E-16,4.83713383010113E-18,
-1.));
#833=DIRECTION('ref_axis',(-1.,1.31838984174238E-15,6.16356608750924E-16));
#834=DIRECTION('center_axis',(0.,0.,1.));
#835=DIRECTION('ref_axis',(-1.,1.31838984174238E-15,0.));
#836=DIRECTION('',(0.,0.,1.));
#837=DIRECTION('center_axis',(0.,0.,1.));
#838=DIRECTION('ref_axis',(-1.,-2.73461808753124E-13,0.));
#839=DIRECTION('center_axis',(-6.35961978354073E-30,-1.00929365875014E-15,
1.));
#840=DIRECTION('ref_axis',(-1.,-2.73461808753124E-13,0.));
#841=DIRECTION('',(0.,0.,1.));
#842=DIRECTION('center_axis',(0.,0.,1.));
#843=DIRECTION('ref_axis',(-0.668688983046301,0.743542227417182,0.));
#844=DIRECTION('center_axis',(-6.35961978354073E-30,-1.00929365875014E-15,
1.));
#845=DIRECTION('ref_axis',(-0.668688983046301,0.743542227417182,0.));
#846=DIRECTION('',(0.,0.,-1.));
#847=DIRECTION('',(0.,0.,1.));
#848=DIRECTION('center_axis',(0.668688983046316,-0.743542227417168,0.));
#849=DIRECTION('ref_axis',(0.743542227417168,0.668688983046316,-4.55052627652245E-16));
#850=DIRECTION('',(-0.743542227417168,-0.668688983046316,-6.74903550264733E-16));
#851=DIRECTION('center_axis',(0.,0.,1.));
#852=DIRECTION('ref_axis',(0.668688983046477,0.743542227417023,0.));
#853=DIRECTION('center_axis',(-6.35961978354073E-30,-1.00929365875014E-15,
1.));
#854=DIRECTION('ref_axis',(0.668688983046477,0.743542227417023,0.));
#855=DIRECTION('',(0.,0.,-1.));
#856=DIRECTION('',(0.,0.,1.));
#857=DIRECTION('center_axis',(-0.668688983046319,-0.743542227417166,0.));
#858=DIRECTION('ref_axis',(0.743542227417166,-0.668688983046319,-4.61521703855662E-16));
#859=DIRECTION('',(-0.743542227417166,0.668688983046319,6.74903550264726E-16));
#860=DIRECTION('',(0.,0.,1.));
#861=DIRECTION('center_axis',(0.,0.,1.));
#862=DIRECTION('ref_axis',(1.31838984174238E-15,1.,0.));
#863=DIRECTION('center_axis',(-6.35961978354073E-30,-1.00929365875014E-15,
1.));
#864=DIRECTION('ref_axis',(1.31838984174238E-15,1.,0.));
#865=DIRECTION('',(0.,0.,-1.));
#866=DIRECTION('center_axis',(1.,-1.46806350363657E-15,4.82420427558413E-30));
#867=DIRECTION('ref_axis',(6.41726685893862E-30,1.08514555358694E-15,-1.));
#868=DIRECTION('',(1.46806350363657E-15,1.,1.00929365875014E-15));
#869=DIRECTION('',(4.82420427558413E-30,-6.36018191142026E-45,-1.));
#870=DIRECTION('center_axis',(-6.35961978354073E-30,-1.00929365875014E-15,
1.));
#871=DIRECTION('ref_axis',(1.,-1.31611695911468E-15,5.03127128253276E-30));
#872=DIRECTION('',(1.,-1.31611695911468E-15,5.03127128253276E-30));
#873=DIRECTION('center_axis',(1.46806350363657E-15,1.,1.00929365875014E-15));
#874=DIRECTION('ref_axis',(0.,-1.00929365875014E-15,1.));
#875=DIRECTION('center_axis',(1.,-1.31838984174238E-15,0.));
#876=DIRECTION('ref_axis',(1.31838984174238E-15,1.,4.83713383010031E-18));
#877=DIRECTION('',(1.38085543182482E-30,1.04738021191052E-15,-1.));
#878=DIRECTION('',(0.,0.,1.));
#879=DIRECTION('center_axis',(-9.52520890445454E-16,1.,0.));
#880=DIRECTION('ref_axis',(-1.,-9.52520890445454E-16,-3.92937049999223E-16));
#881=DIRECTION('center_axis',(-1.,-4.14732351025841E-15,0.));
#882=DIRECTION('ref_axis',(4.14732351025841E-15,-1.,-4.83713383010368E-18));
#883=DIRECTION('',(4.34382457703596E-30,-1.04738021191052E-15,1.));
#884=DIRECTION('',(0.,0.,1.));
#885=DIRECTION('center_axis',(1.31838984174238E-15,1.,0.));
#886=DIRECTION('ref_axis',(-1.,1.31838984174238E-15,6.16356608750924E-16));
#887=DIRECTION('center_axis',(0.,-1.,-1.04738021191052E-15));
#888=DIRECTION('ref_axis',(0.,1.04738021191052E-15,-1.));
#889=CARTESIAN_POINT('',(0.,0.,0.));
#890=CARTESIAN_POINT('Origin',(165.953683030073,4.00380967750131,-10.9999999999998));
#891=CARTESIAN_POINT('',(162.553683030073,0.69999999999993,-12.6905547383799));
#892=CARTESIAN_POINT('',(165.953683030073,0.699999999999926,-12.6905547383799));
#893=CARTESIAN_POINT('Origin',(164.253683030073,0.699999999999928,-12.6905547383799));
#894=CARTESIAN_POINT('',(162.553683030073,4.00380967750132,-10.9999999999998));
#895=CARTESIAN_POINT('',(162.553683030073,6.23310147799649,-9.85927453926165));
#896=CARTESIAN_POINT('',(165.953683030073,4.00380967750131,-10.9999999999998));
#897=CARTESIAN_POINT('',(165.103683030073,4.00380967750131,-10.9999999999998));
#898=CARTESIAN_POINT('',(165.953683030073,1.47812329391301,-12.2923901496244));
#899=CARTESIAN_POINT('Origin',(197.653683030073,-2.47151347562454E-13,-11.9999999999998));
#900=CARTESIAN_POINT('',(160.753683030073,-9.93648493985283E-16,-11.9999999999998));
#901=CARTESIAN_POINT('',(197.653683030073,-2.47151347562454E-13,-11.9999999999998));
#902=CARTESIAN_POINT('',(188.378683030073,-2.36303064448531E-13,-11.9999999999998));
#903=CARTESIAN_POINT('',(160.753683030073,-4.50000000000021,-11.9999999999998));
#904=CARTESIAN_POINT('',(160.753683030073,-1.96595613271389E-13,-11.9999999999998));
#905=CARTESIAN_POINT('',(162.753683030073,-4.50000000000021,-11.9999999999998));
#906=CARTESIAN_POINT('',(180.203683030073,-4.50000000000019,-11.9999999999998));
#907=CARTESIAN_POINT('',(162.753683030073,-10.6000000000002,-11.9999999999998));
#908=CARTESIAN_POINT('',(162.753683030073,-5.5000000000002,-11.9999999999998));
#909=CARTESIAN_POINT('',(195.453683030073,-10.6000000000002,-11.9999999999998));
#910=CARTESIAN_POINT('',(197.653683030073,-10.6000000000002,-11.9999999999998));
#911=CARTESIAN_POINT('',(195.453683030073,-4.50000000000016,-11.9999999999998));
#912=CARTESIAN_POINT('',(195.453683030073,-2.25000000000021,-11.9999999999998));
#913=CARTESIAN_POINT('',(197.653683030073,-4.50000000000017,-11.9999999999998));
#914=CARTESIAN_POINT('',(197.653683030073,-4.50000000000017,-11.9999999999998));
#915=CARTESIAN_POINT('',(197.653683030073,-2.47151347562454E-13,-11.9999999999998));
#916=CARTESIAN_POINT('Origin',(160.753683030073,0.,-16.9999999999998));
#917=CARTESIAN_POINT('',(160.753683030073,-9.93648493985283E-16,0.));
#918=CARTESIAN_POINT('',(160.753683030073,-1.99129202688902E-13,-12.7499999999998));
#919=CARTESIAN_POINT('',(160.753683030073,17.1435322651631,1.77635683940025E-14));
#920=CARTESIAN_POINT('',(160.753683030073,-1.14589169659283E-13,0.));
#921=CARTESIAN_POINT('',(160.753683030073,17.1435322651631,-16.9999999999998));
#922=CARTESIAN_POINT('',(160.753683030073,17.1435322651631,-16.9999999999998));
#923=CARTESIAN_POINT('',(160.753683030073,-4.50000000000021,-16.9999999999998));
#924=CARTESIAN_POINT('',(160.753683030073,-9.7430131263547E-14,-16.9999999999997));
#925=CARTESIAN_POINT('',(160.753683030073,-4.50000000000021,-16.9999999999998));
#926=CARTESIAN_POINT('Origin',(165.953683030073,0.699999999999925,-16.9999999999998));
#927=CARTESIAN_POINT('',(165.953683030073,12.6999999999999,-10.9999999999998));
#928=CARTESIAN_POINT('',(165.953683030073,12.6999999999999,-10.9999999999998));
#929=CARTESIAN_POINT('',(165.953683030073,12.6999999999999,-16.9999999999998));
#930=CARTESIAN_POINT('',(165.953683030073,12.6999999999999,-16.9999999999998));
#931=CARTESIAN_POINT('',(165.953683030073,0.699999999999926,-16.9999999999998));
#932=CARTESIAN_POINT('',(165.953683030073,0.349999999999909,-16.9999999999997));
#933=CARTESIAN_POINT('',(165.953683030073,0.699999999999926,-16.9999999999998));
#934=CARTESIAN_POINT('Origin',(164.253683030073,12.6999999999999,-10.9999999999998));
#935=CARTESIAN_POINT('',(162.553683030073,12.6999999999999,-10.9999999999998));
#936=CARTESIAN_POINT('',(162.553683030073,12.6999999999999,-10.9999999999998));
#937=CARTESIAN_POINT('Origin',(164.253683030073,12.6999999999999,-10.9999999999998));
#938=CARTESIAN_POINT('Origin',(164.253683030073,0.699999999999928,-16.9999999999998));
#939=CARTESIAN_POINT('',(162.553683030073,0.69999999999993,-16.9999999999998));
#940=CARTESIAN_POINT('Origin',(164.253683030073,0.699999999999928,-16.9999999999997));
#941=CARTESIAN_POINT('',(162.553683030073,0.69999999999993,-16.9999999999998));
#942=CARTESIAN_POINT('Origin',(162.553683030073,12.6999999999999,-16.9999999999998));
#943=CARTESIAN_POINT('',(162.553683030073,12.6999999999999,-16.9999999999998));
#944=CARTESIAN_POINT('',(162.553683030073,6.34999999999987,-16.9999999999997));
#945=CARTESIAN_POINT('',(162.553683030073,12.6999999999999,-16.9999999999998));
#946=CARTESIAN_POINT('Origin',(164.253683030073,12.6999999999999,-16.9999999999998));
#947=CARTESIAN_POINT('Origin',(164.253683030073,12.6999999999999,-16.9999999999997));
#948=CARTESIAN_POINT('Origin',(197.653683030073,-2.43508847687387E-13,-16.9999999999997));
#949=CARTESIAN_POINT('',(161.018731843636,17.7383660470968,-16.9999999999998));
#950=CARTESIAN_POINT('Origin',(161.553683030073,17.1435322651633,-16.9999999999997));
#951=CARTESIAN_POINT('',(167.975550444313,23.9948337819337,-16.9999999999998));
#952=CARTESIAN_POINT('',(166.735896158621,22.8799769075535,-16.9999999999997));
#953=CARTESIAN_POINT('',(168.51050163075,24.2,-16.9999999999998));
#954=CARTESIAN_POINT('Origin',(168.51050163075,23.3999999999999,-16.9999999999997));
#955=CARTESIAN_POINT('',(189.896864429396,24.1999999999999,-16.9999999999998));
#956=CARTESIAN_POINT('',(160.553683030073,24.1999999999998,-16.9999999999997));
#957=CARTESIAN_POINT('',(190.431815615833,23.9948337819337,-16.9999999999998));
#958=CARTESIAN_POINT('Origin',(189.896864429396,23.3999999999999,-16.9999999999997));
#959=CARTESIAN_POINT('',(197.38863421651,17.7383660470968,-16.9999999999998));
#960=CARTESIAN_POINT('',(198.393236162109,16.834898525551,-16.9999999999997));
#961=CARTESIAN_POINT('',(197.653683030073,17.1435322651631,-16.9999999999998));
#962=CARTESIAN_POINT('Origin',(196.853683030073,17.1435322651629,-16.9999999999997));
#963=CARTESIAN_POINT('',(197.653683030073,-4.50000000000017,-16.9999999999998));
#964=CARTESIAN_POINT('',(197.653683030073,-2.43508847687387E-13,-16.9999999999997));
#965=CARTESIAN_POINT('',(195.453683030073,-4.50000000000016,-16.9999999999998));
#966=CARTESIAN_POINT('',(197.653683030073,-4.50000000000017,-16.9999999999997));
#967=CARTESIAN_POINT('',(195.453683030073,-10.6000000000002,-16.9999999999998));
#968=CARTESIAN_POINT('',(195.453683030073,-2.25000000000021,-16.9999999999997));
#969=CARTESIAN_POINT('',(162.753683030073,-10.6000000000002,-16.9999999999998));
#970=CARTESIAN_POINT('',(160.553683030073,-10.6000000000002,-16.9999999999997));
#971=CARTESIAN_POINT('',(162.753683030073,-4.50000000000021,-16.9999999999998));
#972=CARTESIAN_POINT('',(162.753683030073,-5.50000000000019,-16.9999999999997));
#973=CARTESIAN_POINT('',(180.203683030073,-4.50000000000019,-16.9999999999997));
#974=CARTESIAN_POINT('',(196.153683030073,12.6999999999999,-16.9999999999998));
#975=CARTESIAN_POINT('Origin',(194.153683030073,12.6999999999999,-16.9999999999997));
#976=CARTESIAN_POINT('Origin',(179.103683030073,-2.27590596446683E-13,-8.49999999999986));
#977=CARTESIAN_POINT('',(197.653683030073,-2.60584608334621E-13,0.));
#978=CARTESIAN_POINT('',(197.653683030073,-2.60584608334621E-13,0.));
#979=CARTESIAN_POINT('',(160.553683030073,-2.11756669151466E-13,0.));
#980=CARTESIAN_POINT('',(187.496864429396,-2.62444034758248E-13,-4.00000000000002));
#981=CARTESIAN_POINT('Origin',(185.896864429396,-2.57571741713036E-13,-4.00000000000002));
#982=CARTESIAN_POINT('',(174.11050163075,-2.09153329576241E-13,-8.89999999999978));
#983=CARTESIAN_POINT('Origin',(172.51050163075,-2.04281036531029E-13,-8.89999999999978));
#984=CARTESIAN_POINT('Origin',(194.153683030073,12.6999999999999,-9.79999999999997));
#985=CARTESIAN_POINT('',(195.753683030073,12.6999999999999,-9.79999999999997));
#986=CARTESIAN_POINT('Origin',(194.153683030073,12.6999999999999,-9.79999999999997));
#987=CARTESIAN_POINT('Origin',(172.51050163075,24.1999999999996,-8.89999999999973));
#988=CARTESIAN_POINT('',(174.11050163075,10.1999999999996,-8.89999999999976));
#989=CARTESIAN_POINT('Origin',(172.51050163075,10.1999999999996,-8.89999999999976));
#990=CARTESIAN_POINT('',(174.11050163075,24.1999999999996,-8.89999999999973));
#991=CARTESIAN_POINT('Origin',(185.896864429396,24.1999999999995,-3.99999999999998));
#992=CARTESIAN_POINT('',(187.496864429396,10.1999999999995,-4.));
#993=CARTESIAN_POINT('Origin',(185.896864429396,10.1999999999995,-4.));
#994=CARTESIAN_POINT('',(187.496864429396,24.1999999999995,-3.99999999999998));
#995=CARTESIAN_POINT('Origin',(185.896864429396,24.1999999999995,-3.99999999999998));
#996=CARTESIAN_POINT('',(188.896864429396,24.1999999999995,-3.99999999999998));
#997=CARTESIAN_POINT('Origin',(185.896864429396,24.1999999999997,-3.99999999999998));
#998=CARTESIAN_POINT('',(188.896864429396,10.1999999999995,-4.));
#999=CARTESIAN_POINT('',(188.896864429396,24.1999999999995,-3.99999999999998));
#1000=CARTESIAN_POINT('Origin',(185.896864429396,10.1999999999995,-4.));
#1001=CARTESIAN_POINT('Origin',(185.896864429396,10.1999999999995,-4.));
#1002=CARTESIAN_POINT('Origin',(172.51050163075,24.1999999999996,-8.89999999999973));
#1003=CARTESIAN_POINT('',(175.51050163075,24.1999999999996,-8.89999999999973));
#1004=CARTESIAN_POINT('Origin',(172.51050163075,24.1999999999998,-8.89999999999973));
#1005=CARTESIAN_POINT('',(175.51050163075,10.1999999999995,-8.89999999999976));
#1006=CARTESIAN_POINT('',(175.51050163075,24.1999999999996,-8.89999999999973));
#1007=CARTESIAN_POINT('Origin',(172.51050163075,10.1999999999996,-8.89999999999976));
#1008=CARTESIAN_POINT('Origin',(172.51050163075,10.1999999999996,-8.89999999999976));
#1009=CARTESIAN_POINT('Origin',(194.153683030073,12.6999999999999,1.68753899743024E-13));
#1010=CARTESIAN_POINT('',(197.153683030073,12.6999999999999,1.66533453693773E-13));
#1011=CARTESIAN_POINT('Origin',(194.153683030073,12.6999999999999,0.));
#1012=CARTESIAN_POINT('',(197.153683030073,12.6999999999999,-3.99999999999983));
#1013=CARTESIAN_POINT('',(197.153683030073,12.6999999999999,1.68753899743024E-13));
#1014=CARTESIAN_POINT('Origin',(194.153683030073,12.6999999999999,-3.99999999999983));
#1015=CARTESIAN_POINT('Origin',(194.153683030073,12.6999999999999,-3.99999999999983));
#1016=CARTESIAN_POINT('',(195.753683030073,12.6999999999999,-3.99999999999983));
#1017=CARTESIAN_POINT('Origin',(194.153683030073,12.6999999999999,-3.99999999999983));
#1018=CARTESIAN_POINT('Origin',(194.153683030073,12.6999999999999,-16.9999999999998));
#1019=CARTESIAN_POINT('',(196.153683030073,12.6999999999999,-9.99999999999983));
#1020=CARTESIAN_POINT('',(196.153683030073,12.6999999999999,-16.9999999999998));
#1021=CARTESIAN_POINT('Origin',(194.153683030073,12.6999999999999,-9.99999999999983));
#1022=CARTESIAN_POINT('Origin',(194.153683030073,12.6999999999999,-9.99999999999983));
#1023=CARTESIAN_POINT('Origin',(194.153683030073,12.6999999999999,-16.9999999999998));
#1024=CARTESIAN_POINT('',(195.753683030073,12.6999999999999,-16.9999999999998));
#1025=CARTESIAN_POINT('Origin',(161.553683030073,17.1435322651633,-16.9999999999998));
#1026=CARTESIAN_POINT('',(161.018731843636,17.7383660470968,1.77635683940025E-14));
#1027=CARTESIAN_POINT('Origin',(161.553683030073,17.1435322651633,0.));
#1028=CARTESIAN_POINT('',(161.018731843636,17.7383660470968,-16.9999999999998));
#1029=CARTESIAN_POINT('Origin',(168.51050163075,23.3999999999999,-16.9999999999998));
#1030=CARTESIAN_POINT('',(168.51050163075,24.2,2.44249065417534E-14));
#1031=CARTESIAN_POINT('',(167.975550444313,23.9948337819337,2.44249065417534E-14));
#1032=CARTESIAN_POINT('Origin',(168.51050163075,23.3999999999999,0.));
#1033=CARTESIAN_POINT('',(168.51050163075,24.1999999999998,-16.9999999999998));
#1034=CARTESIAN_POINT('',(167.975550444313,23.9948337819337,-16.9999999999998));
#1035=CARTESIAN_POINT('Origin',(161.018731843636,17.7383660470968,-16.9999999999998));
#1036=CARTESIAN_POINT('',(156.480435093303,13.6569448085421,1.33226762955019E-14));
#1037=CARTESIAN_POINT('Origin',(196.853683030073,17.1435322651629,-16.9999999999998));
#1038=CARTESIAN_POINT('',(197.653683030073,17.1435322651631,1.77635683940025E-14));
#1039=CARTESIAN_POINT('',(197.38863421651,17.7383660470968,1.77635683940025E-14));
#1040=CARTESIAN_POINT('Origin',(196.853683030073,17.1435322651629,0.));
#1041=CARTESIAN_POINT('',(197.653683030073,17.1435322651629,-16.9999999999998));
#1042=CARTESIAN_POINT('',(197.38863421651,17.7383660470968,-16.9999999999998));
#1043=CARTESIAN_POINT('Origin',(190.431815615833,23.9948337819337,-16.9999999999998));
#1044=CARTESIAN_POINT('',(190.431815615833,23.9948337819337,2.44249065417534E-14));
#1045=CARTESIAN_POINT('',(188.137775096791,26.0579306245624,2.77555756156289E-14));
#1046=CARTESIAN_POINT('',(190.431815615833,23.9948337819337,-16.9999999999998));
#1047=CARTESIAN_POINT('Origin',(189.896864429396,23.3999999999999,-16.9999999999998));
#1048=CARTESIAN_POINT('',(189.896864429396,24.1999999999999,2.44249065417534E-14));
#1049=CARTESIAN_POINT('Origin',(189.896864429396,23.3999999999999,0.));
#1050=CARTESIAN_POINT('',(189.896864429396,24.1999999999998,-16.9999999999998));
#1051=CARTESIAN_POINT('Origin',(197.653683030073,-2.60584608334621E-13,
0.));
#1052=CARTESIAN_POINT('',(197.653683030073,-2.60584608334621E-13,0.));
#1053=CARTESIAN_POINT('',(197.653683030073,-4.50000000000017,-8.49999999999992));
#1054=CARTESIAN_POINT('Origin',(160.553683030073,-2.11756669151466E-13,
0.));
#1055=CARTESIAN_POINT('',(160.553683030073,24.1999999999998,2.44249065417534E-14));
#1056=CARTESIAN_POINT('Origin',(179.103683030073,24.1999999999998,-8.49999999999983));
#1057=CARTESIAN_POINT('Origin',(162.753683030073,-11.0000000000002,-16.9999999999998));
#1058=CARTESIAN_POINT('',(162.753683030073,-10.6000000000002,-15.7499999999998));
#1059=CARTESIAN_POINT('',(162.753683030073,-4.50000000000021,-16.9999999999998));
#1060=CARTESIAN_POINT('Origin',(162.753683030073,-4.50000000000021,-16.9999999999998));
#1061=CARTESIAN_POINT('Origin',(195.453683030073,-4.50000000000016,-16.9999999999998));
#1062=CARTESIAN_POINT('',(195.453683030073,-10.6000000000002,-15.7499999999998));
#1063=CARTESIAN_POINT('',(195.453683030073,-4.50000000000016,-16.9999999999998));
#1064=CARTESIAN_POINT('Origin',(197.653683030073,-4.50000000000017,-16.9999999999998));
#1065=CARTESIAN_POINT('Origin',(179.103683030073,-10.6000000000002,-14.4999999999997));
#1066=UNCERTAINTY_MEASURE_WITH_UNIT(LENGTH_MEASURE(0.01),#1070,
'DISTANCE_ACCURACY_VALUE',
'Maximum model space distance between geometric entities at asserted c
onnectivities');
#1067=UNCERTAINTY_MEASURE_WITH_UNIT(LENGTH_MEASURE(0.01),#1070,
'DISTANCE_ACCURACY_VALUE',
'Maximum model space distance between geometric entities at asserted c
onnectivities');
#1068=(
GEOMETRIC_REPRESENTATION_CONTEXT(3)
GLOBAL_UNCERTAINTY_ASSIGNED_CONTEXT((#1066))
GLOBAL_UNIT_ASSIGNED_CONTEXT((#1070,#1072,#1073))
REPRESENTATION_CONTEXT('','3D')
);
#1069=(
GEOMETRIC_REPRESENTATION_CONTEXT(3)
GLOBAL_UNCERTAINTY_ASSIGNED_CONTEXT((#1067))
GLOBAL_UNIT_ASSIGNED_CONTEXT((#1070,#1072,#1073))
REPRESENTATION_CONTEXT('','3D')
);
#1070=(
LENGTH_UNIT()
NAMED_UNIT(*)
SI_UNIT(.MILLI.,.METRE.)
);
#1071=(
LENGTH_UNIT()
NAMED_UNIT(*)
SI_UNIT($,.METRE.)
);
#1072=(
NAMED_UNIT(*)
PLANE_ANGLE_UNIT()
SI_UNIT($,.RADIAN.)
);
#1073=(
NAMED_UNIT(*)
SI_UNIT($,.STERADIAN.)
SOLID_ANGLE_UNIT()
);
#1074=SHAPE_DEFINITION_REPRESENTATION(#1075,#1076);
#1075=PRODUCT_DEFINITION_SHAPE('',$,#1078);
#1076=SHAPE_REPRESENTATION('',(#642),#1068);
#1077=PRODUCT_DEFINITION_CONTEXT('part definition',#1082,'design');
#1078=PRODUCT_DEFINITION('ESC AC Terminal Lock ',
'ESC AC Terminal Lock ',#1079,#1077);
#1079=PRODUCT_DEFINITION_FORMATION('',$,#1084);
#1080=PRODUCT_RELATED_PRODUCT_CATEGORY('ESC AC Terminal Lock ',
'ESC AC Terminal Lock ',(#1084));
#1081=APPLICATION_PROTOCOL_DEFINITION('international standard',
'automotive_design',2009,#1082);
#1082=APPLICATION_CONTEXT(
'Core Data for Automotive Mechanical Design Process');
#1083=PRODUCT_CONTEXT('part definition',#1082,'mechanical');
#1084=PRODUCT('ESC AC Terminal Lock ','ESC AC Terminal Lock ',$,(#1083));
#1085=PRESENTATION_STYLE_ASSIGNMENT((#1086));
#1086=SURFACE_STYLE_USAGE(.BOTH.,#1087);
#1087=SURFACE_SIDE_STYLE('',(#1088));
#1088=SURFACE_STYLE_FILL_AREA(#1089);
#1089=FILL_AREA_STYLE('Steel - Satin',(#1090));
#1090=FILL_AREA_STYLE_COLOUR('Steel - Satin',#1091);
#1091=COLOUR_RGB('Steel - Satin',0.627450980392157,0.627450980392157,0.627450980392157);
ENDSEC;
END-ISO-10303-21;
