ISO-10303-21;
HEADER;
/* Generated by software containing ST-Developer
 * from STEP Tools, Inc. (www.steptools.com) 
 */

FILE_DESCRIPTION(
/* description */ (''),
/* implementation_level */ '2;1');

FILE_NAME(
/* name */ 'ESC Power Terminal Lock.step',
/* time_stamp */ '2025-05-01T11:08:46+01:00',
/* author */ (''),
/* organization */ (''),
/* preprocessor_version */ 'ST-DEVELOPER v20.1',
/* originating_system */ 'Autodesk Translation Framework v14.4.0.0',
/* authorisation */ '');

FILE_SCHEMA (('AUTOMOTIVE_DESIGN { 1 0 10303 214 3 1 1 }'));
ENDSEC;

DATA;
#10=MECHANICAL_DESIGN_GEOMETRIC_PRESENTATION_REPRESENTATION('',(#13),#1308);
#11=SHAPE_REPRESENTATION_RELATIONSHIP('SRR','None',#1315,#12);
#12=ADVANCED_BREP_SHAPE_REPRESENTATION('',(#14),#1307);
#13=STYLED_ITEM('',(#1324),#14);
#14=MANIFOLD_SOLID_BREP('ESC Power Terminal Lock',#770);
#15=FACE_BOUND('',#259,.T.);
#16=FACE_BOUND('',#260,.T.);
#17=FACE_BOUND('',#261,.T.);
#18=FACE_BOUND('',#263,.T.);
#19=FACE_BOUND('',#264,.T.);
#20=FACE_BOUND('',#265,.T.);
#21=FACE_BOUND('',#273,.T.);
#22=FACE_BOUND('',#274,.T.);
#23=FACE_BOUND('',#285,.T.);
#24=LINE('',#1104,#97);
#25=LINE('',#1111,#98);
#26=LINE('',#1118,#99);
#27=LINE('',#1124,#100);
#28=LINE('',#1126,#101);
#29=LINE('',#1128,#102);
#30=LINE('',#1129,#103);
#31=LINE('',#1132,#104);
#32=LINE('',#1134,#105);
#33=LINE('',#1135,#106);
#34=LINE('',#1138,#107);
#35=LINE('',#1140,#108);
#36=LINE('',#1141,#109);
#37=LINE('',#1146,#110);
#38=LINE('',#1150,#111);
#39=LINE('',#1152,#112);
#40=LINE('',#1153,#113);
#41=LINE('',#1158,#114);
#42=LINE('',#1163,#115);
#43=LINE('',#1167,#116);
#44=LINE('',#1171,#117);
#45=LINE('',#1175,#118);
#46=LINE('',#1177,#119);
#47=LINE('',#1179,#120);
#48=LINE('',#1180,#121);
#49=LINE('',#1183,#122);
#50=LINE('',#1185,#123);
#51=LINE('',#1186,#124);
#52=LINE('',#1189,#125);
#53=LINE('',#1191,#126);
#54=LINE('',#1192,#127);
#55=LINE('',#1194,#128);
#56=LINE('',#1196,#129);
#57=LINE('',#1197,#130);
#58=LINE('',#1200,#131);
#59=LINE('',#1202,#132);
#60=LINE('',#1203,#133);
#61=LINE('',#1206,#134);
#62=LINE('',#1208,#135);
#63=LINE('',#1210,#136);
#64=LINE('',#1211,#137);
#65=LINE('',#1214,#138);
#66=LINE('',#1216,#139);
#67=LINE('',#1217,#140);
#68=LINE('',#1219,#141);
#69=LINE('',#1220,#142);
#70=LINE('',#1224,#143);
#71=LINE('',#1228,#144);
#72=LINE('',#1232,#145);
#73=LINE('',#1234,#146);
#74=LINE('',#1235,#147);
#75=LINE('',#1238,#148);
#76=LINE('',#1240,#149);
#77=LINE('',#1242,#150);
#78=LINE('',#1243,#151);
#79=LINE('',#1246,#152);
#80=LINE('',#1247,#153);
#81=LINE('',#1250,#154);
#82=LINE('',#1251,#155);
#83=LINE('',#1254,#156);
#84=LINE('',#1258,#157);
#85=LINE('',#1259,#158);
#86=LINE('',#1262,#159);
#87=LINE('',#1266,#160);
#88=LINE('',#1270,#161);
#89=LINE('',#1278,#162);
#90=LINE('',#1280,#163);
#91=LINE('',#1281,#164);
#92=LINE('',#1284,#165);
#93=LINE('',#1289,#166);
#94=LINE('',#1293,#167);
#95=LINE('',#1295,#168);
#96=LINE('',#1302,#169);
#97=VECTOR('',#882,2.);
#98=VECTOR('',#891,2.);
#99=VECTOR('',#900,1.99999999999999);
#100=VECTOR('',#907,10.);
#101=VECTOR('',#908,10.);
#102=VECTOR('',#909,10.);
#103=VECTOR('',#910,10.);
#104=VECTOR('',#913,10.);
#105=VECTOR('',#914,10.);
#106=VECTOR('',#915,10.);
#107=VECTOR('',#918,10.);
#108=VECTOR('',#919,10.);
#109=VECTOR('',#920,10.);
#110=VECTOR('',#925,10.);
#111=VECTOR('',#930,10.);
#112=VECTOR('',#931,10.);
#113=VECTOR('',#932,10.);
#114=VECTOR('',#937,10.);
#115=VECTOR('',#944,0.999999999999996);
#116=VECTOR('',#949,0.999999999999996);
#117=VECTOR('',#954,0.999999999999996);
#118=VECTOR('',#957,10.);
#119=VECTOR('',#958,10.);
#120=VECTOR('',#959,10.);
#121=VECTOR('',#960,10.);
#122=VECTOR('',#963,10.);
#123=VECTOR('',#964,10.);
#124=VECTOR('',#965,10.);
#125=VECTOR('',#968,10.);
#126=VECTOR('',#969,10.);
#127=VECTOR('',#970,10.);
#128=VECTOR('',#973,10.);
#129=VECTOR('',#974,10.);
#130=VECTOR('',#975,10.);
#131=VECTOR('',#978,10.);
#132=VECTOR('',#979,10.);
#133=VECTOR('',#980,10.);
#134=VECTOR('',#983,10.);
#135=VECTOR('',#984,10.);
#136=VECTOR('',#985,10.);
#137=VECTOR('',#986,10.);
#138=VECTOR('',#989,10.);
#139=VECTOR('',#990,10.);
#140=VECTOR('',#991,10.);
#141=VECTOR('',#994,10.);
#142=VECTOR('',#995,10.);
#143=VECTOR('',#1000,10.);
#144=VECTOR('',#1003,10.);
#145=VECTOR('',#1006,10.);
#146=VECTOR('',#1007,10.);
#147=VECTOR('',#1008,10.);
#148=VECTOR('',#1011,10.);
#149=VECTOR('',#1012,10.);
#150=VECTOR('',#1013,10.);
#151=VECTOR('',#1014,10.);
#152=VECTOR('',#1017,10.);
#153=VECTOR('',#1018,10.);
#154=VECTOR('',#1021,10.);
#155=VECTOR('',#1022,10.);
#156=VECTOR('',#1025,10.);
#157=VECTOR('',#1030,10.);
#158=VECTOR('',#1031,10.);
#159=VECTOR('',#1034,10.);
#160=VECTOR('',#1039,10.);
#161=VECTOR('',#1042,10.);
#162=VECTOR('',#1051,10.);
#163=VECTOR('',#1052,10.);
#164=VECTOR('',#1053,10.);
#165=VECTOR('',#1056,10.);
#166=VECTOR('',#1065,2.);
#167=VECTOR('',#1070,1.7);
#168=VECTOR('',#1073,10.);
#169=VECTOR('',#1082,2.75);
#170=CYLINDRICAL_SURFACE('',#792,2.);
#171=CYLINDRICAL_SURFACE('',#796,2.);
#172=CYLINDRICAL_SURFACE('',#800,1.99999999999999);
#173=CYLINDRICAL_SURFACE('',#807,0.799999999999926);
#174=CYLINDRICAL_SURFACE('',#811,0.79999999999993);
#175=CYLINDRICAL_SURFACE('',#814,0.999999999999996);
#176=CYLINDRICAL_SURFACE('',#816,0.999999999999996);
#177=CYLINDRICAL_SURFACE('',#818,0.999999999999996);
#178=CYLINDRICAL_SURFACE('',#835,0.800000000000006);
#179=CYLINDRICAL_SURFACE('',#838,0.799999999999998);
#180=CYLINDRICAL_SURFACE('',#846,0.799999999999993);
#181=CYLINDRICAL_SURFACE('',#848,0.800000000000012);
#182=CYLINDRICAL_SURFACE('',#850,2.);
#183=CYLINDRICAL_SURFACE('',#851,1.7);
#184=CYLINDRICAL_SURFACE('',#856,2.75);
#185=FACE_OUTER_BOUND('',#231,.T.);
#186=FACE_OUTER_BOUND('',#232,.T.);
#187=FACE_OUTER_BOUND('',#233,.T.);
#188=FACE_OUTER_BOUND('',#234,.T.);
#189=FACE_OUTER_BOUND('',#235,.T.);
#190=FACE_OUTER_BOUND('',#236,.T.);
#191=FACE_OUTER_BOUND('',#237,.T.);
#192=FACE_OUTER_BOUND('',#238,.T.);
#193=FACE_OUTER_BOUND('',#239,.T.);
#194=FACE_OUTER_BOUND('',#240,.T.);
#195=FACE_OUTER_BOUND('',#241,.T.);
#196=FACE_OUTER_BOUND('',#242,.T.);
#197=FACE_OUTER_BOUND('',#243,.T.);
#198=FACE_OUTER_BOUND('',#244,.T.);
#199=FACE_OUTER_BOUND('',#245,.T.);
#200=FACE_OUTER_BOUND('',#246,.T.);
#201=FACE_OUTER_BOUND('',#247,.T.);
#202=FACE_OUTER_BOUND('',#248,.T.);
#203=FACE_OUTER_BOUND('',#249,.T.);
#204=FACE_OUTER_BOUND('',#250,.T.);
#205=FACE_OUTER_BOUND('',#251,.T.);
#206=FACE_OUTER_BOUND('',#252,.T.);
#207=FACE_OUTER_BOUND('',#253,.T.);
#208=FACE_OUTER_BOUND('',#254,.T.);
#209=FACE_OUTER_BOUND('',#255,.T.);
#210=FACE_OUTER_BOUND('',#256,.T.);
#211=FACE_OUTER_BOUND('',#257,.T.);
#212=FACE_OUTER_BOUND('',#258,.T.);
#213=FACE_OUTER_BOUND('',#262,.T.);
#214=FACE_OUTER_BOUND('',#266,.T.);
#215=FACE_OUTER_BOUND('',#267,.T.);
#216=FACE_OUTER_BOUND('',#268,.T.);
#217=FACE_OUTER_BOUND('',#269,.T.);
#218=FACE_OUTER_BOUND('',#270,.T.);
#219=FACE_OUTER_BOUND('',#271,.T.);
#220=FACE_OUTER_BOUND('',#272,.T.);
#221=FACE_OUTER_BOUND('',#275,.T.);
#222=FACE_OUTER_BOUND('',#276,.T.);
#223=FACE_OUTER_BOUND('',#277,.T.);
#224=FACE_OUTER_BOUND('',#278,.T.);
#225=FACE_OUTER_BOUND('',#279,.T.);
#226=FACE_OUTER_BOUND('',#280,.T.);
#227=FACE_OUTER_BOUND('',#281,.T.);
#228=FACE_OUTER_BOUND('',#282,.T.);
#229=FACE_OUTER_BOUND('',#283,.T.);
#230=FACE_OUTER_BOUND('',#284,.T.);
#231=EDGE_LOOP('',(#487));
#232=EDGE_LOOP('',(#488));
#233=EDGE_LOOP('',(#489));
#234=EDGE_LOOP('',(#490));
#235=EDGE_LOOP('',(#491,#492,#493,#494));
#236=EDGE_LOOP('',(#495));
#237=EDGE_LOOP('',(#496,#497,#498,#499));
#238=EDGE_LOOP('',(#500));
#239=EDGE_LOOP('',(#501,#502,#503,#504));
#240=EDGE_LOOP('',(#505));
#241=EDGE_LOOP('',(#506,#507,#508,#509));
#242=EDGE_LOOP('',(#510,#511,#512,#513));
#243=EDGE_LOOP('',(#514,#515,#516,#517));
#244=EDGE_LOOP('',(#518,#519,#520,#521));
#245=EDGE_LOOP('',(#522,#523,#524,#525));
#246=EDGE_LOOP('',(#526,#527,#528,#529));
#247=EDGE_LOOP('',(#530,#531,#532,#533));
#248=EDGE_LOOP('',(#534,#535,#536,#537));
#249=EDGE_LOOP('',(#538,#539,#540,#541));
#250=EDGE_LOOP('',(#542,#543,#544,#545));
#251=EDGE_LOOP('',(#546,#547,#548,#549));
#252=EDGE_LOOP('',(#550,#551,#552,#553));
#253=EDGE_LOOP('',(#554,#555,#556,#557,#558));
#254=EDGE_LOOP('',(#559,#560,#561,#562));
#255=EDGE_LOOP('',(#563,#564,#565,#566,#567));
#256=EDGE_LOOP('',(#568,#569,#570,#571));
#257=EDGE_LOOP('',(#572,#573,#574,#575));
#258=EDGE_LOOP('',(#576,#577,#578,#579,#580,#581,#582,#583,#584,#585,#586,
#587,#588,#589));
#259=EDGE_LOOP('',(#590));
#260=EDGE_LOOP('',(#591));
#261=EDGE_LOOP('',(#592));
#262=EDGE_LOOP('',(#593,#594,#595,#596,#597,#598,#599,#600,#601,#602,#603,
#604,#605,#606));
#263=EDGE_LOOP('',(#607));
#264=EDGE_LOOP('',(#608));
#265=EDGE_LOOP('',(#609));
#266=EDGE_LOOP('',(#610,#611,#612,#613,#614,#615));
#267=EDGE_LOOP('',(#616,#617,#618,#619));
#268=EDGE_LOOP('',(#620,#621,#622,#623));
#269=EDGE_LOOP('',(#624,#625,#626,#627));
#270=EDGE_LOOP('',(#628,#629,#630,#631));
#271=EDGE_LOOP('',(#632,#633,#634,#635));
#272=EDGE_LOOP('',(#636,#637,#638,#639,#640,#641,#642,#643,#644,#645));
#273=EDGE_LOOP('',(#646));
#274=EDGE_LOOP('',(#647));
#275=EDGE_LOOP('',(#648,#649,#650,#651));
#276=EDGE_LOOP('',(#652,#653,#654,#655));
#277=EDGE_LOOP('',(#656,#657,#658,#659));
#278=EDGE_LOOP('',(#660,#661,#662,#663));
#279=EDGE_LOOP('',(#664,#665,#666,#667));
#280=EDGE_LOOP('',(#668,#669,#670,#671,#672,#673));
#281=EDGE_LOOP('',(#674));
#282=EDGE_LOOP('',(#675,#676,#677,#678));
#283=EDGE_LOOP('',(#679));
#284=EDGE_LOOP('',(#680,#681,#682,#683,#684,#685,#686,#687,#688,#689,#690,
#691));
#285=EDGE_LOOP('',(#692));
#286=CIRCLE('',#785,2.);
#287=CIRCLE('',#787,0.999999999999996);
#288=CIRCLE('',#789,0.999999999999996);
#289=CIRCLE('',#791,0.999999999999996);
#290=CIRCLE('',#793,2.);
#291=CIRCLE('',#794,2.);
#292=CIRCLE('',#797,2.);
#293=CIRCLE('',#798,2.);
#294=CIRCLE('',#801,1.99999999999999);
#295=CIRCLE('',#802,1.99999999999999);
#296=CIRCLE('',#808,0.799999999999926);
#297=CIRCLE('',#809,0.799999999999926);
#298=CIRCLE('',#812,0.79999999999993);
#299=CIRCLE('',#813,0.79999999999993);
#300=CIRCLE('',#815,0.999999999999996);
#301=CIRCLE('',#817,0.999999999999996);
#302=CIRCLE('',#819,0.999999999999996);
#303=CIRCLE('',#830,0.799999999999998);
#304=CIRCLE('',#831,0.800000000000006);
#305=CIRCLE('',#836,0.800000000000006);
#306=CIRCLE('',#839,0.799999999999998);
#307=CIRCLE('',#841,0.799999999999993);
#308=CIRCLE('',#842,0.800000000000012);
#309=CIRCLE('',#843,2.);
#310=CIRCLE('',#844,1.7);
#311=CIRCLE('',#847,0.799999999999993);
#312=CIRCLE('',#849,0.800000000000012);
#313=CIRCLE('',#852,1.7);
#314=CIRCLE('',#855,2.75);
#315=CIRCLE('',#857,2.75);
#316=VERTEX_POINT('',#1089);
#317=VERTEX_POINT('',#1092);
#318=VERTEX_POINT('',#1095);
#319=VERTEX_POINT('',#1098);
#320=VERTEX_POINT('',#1101);
#321=VERTEX_POINT('',#1103);
#322=VERTEX_POINT('',#1108);
#323=VERTEX_POINT('',#1110);
#324=VERTEX_POINT('',#1115);
#325=VERTEX_POINT('',#1117);
#326=VERTEX_POINT('',#1122);
#327=VERTEX_POINT('',#1123);
#328=VERTEX_POINT('',#1125);
#329=VERTEX_POINT('',#1127);
#330=VERTEX_POINT('',#1131);
#331=VERTEX_POINT('',#1133);
#332=VERTEX_POINT('',#1137);
#333=VERTEX_POINT('',#1139);
#334=VERTEX_POINT('',#1143);
#335=VERTEX_POINT('',#1145);
#336=VERTEX_POINT('',#1149);
#337=VERTEX_POINT('',#1151);
#338=VERTEX_POINT('',#1155);
#339=VERTEX_POINT('',#1157);
#340=VERTEX_POINT('',#1161);
#341=VERTEX_POINT('',#1165);
#342=VERTEX_POINT('',#1169);
#343=VERTEX_POINT('',#1173);
#344=VERTEX_POINT('',#1174);
#345=VERTEX_POINT('',#1176);
#346=VERTEX_POINT('',#1178);
#347=VERTEX_POINT('',#1182);
#348=VERTEX_POINT('',#1184);
#349=VERTEX_POINT('',#1188);
#350=VERTEX_POINT('',#1190);
#351=VERTEX_POINT('',#1195);
#352=VERTEX_POINT('',#1199);
#353=VERTEX_POINT('',#1201);
#354=VERTEX_POINT('',#1205);
#355=VERTEX_POINT('',#1207);
#356=VERTEX_POINT('',#1209);
#357=VERTEX_POINT('',#1213);
#358=VERTEX_POINT('',#1215);
#359=VERTEX_POINT('',#1223);
#360=VERTEX_POINT('',#1225);
#361=VERTEX_POINT('',#1227);
#362=VERTEX_POINT('',#1229);
#363=VERTEX_POINT('',#1231);
#364=VERTEX_POINT('',#1233);
#365=VERTEX_POINT('',#1237);
#366=VERTEX_POINT('',#1239);
#367=VERTEX_POINT('',#1241);
#368=VERTEX_POINT('',#1245);
#369=VERTEX_POINT('',#1249);
#370=VERTEX_POINT('',#1253);
#371=VERTEX_POINT('',#1257);
#372=VERTEX_POINT('',#1261);
#373=VERTEX_POINT('',#1265);
#374=VERTEX_POINT('',#1267);
#375=VERTEX_POINT('',#1269);
#376=VERTEX_POINT('',#1272);
#377=VERTEX_POINT('',#1274);
#378=VERTEX_POINT('',#1277);
#379=VERTEX_POINT('',#1279);
#380=VERTEX_POINT('',#1283);
#381=VERTEX_POINT('',#1291);
#382=VERTEX_POINT('',#1297);
#383=VERTEX_POINT('',#1300);
#384=EDGE_CURVE('',#316,#316,#286,.T.);
#385=EDGE_CURVE('',#317,#317,#287,.T.);
#386=EDGE_CURVE('',#318,#318,#288,.T.);
#387=EDGE_CURVE('',#319,#319,#289,.T.);
#388=EDGE_CURVE('',#320,#320,#290,.T.);
#389=EDGE_CURVE('',#320,#321,#24,.T.);
#390=EDGE_CURVE('',#321,#321,#291,.T.);
#391=EDGE_CURVE('',#322,#322,#292,.T.);
#392=EDGE_CURVE('',#322,#323,#25,.T.);
#393=EDGE_CURVE('',#323,#323,#293,.T.);
#394=EDGE_CURVE('',#324,#324,#294,.T.);
#395=EDGE_CURVE('',#324,#325,#26,.T.);
#396=EDGE_CURVE('',#325,#325,#295,.T.);
#397=EDGE_CURVE('',#326,#327,#27,.T.);
#398=EDGE_CURVE('',#328,#326,#28,.T.);
#399=EDGE_CURVE('',#328,#329,#29,.T.);
#400=EDGE_CURVE('',#329,#327,#30,.T.);
#401=EDGE_CURVE('',#330,#326,#31,.T.);
#402=EDGE_CURVE('',#331,#330,#32,.T.);
#403=EDGE_CURVE('',#331,#328,#33,.T.);
#404=EDGE_CURVE('',#330,#332,#34,.T.);
#405=EDGE_CURVE('',#333,#332,#35,.T.);
#406=EDGE_CURVE('',#333,#331,#36,.T.);
#407=EDGE_CURVE('',#334,#332,#296,.T.);
#408=EDGE_CURVE('',#335,#334,#37,.T.);
#409=EDGE_CURVE('',#335,#333,#297,.T.);
#410=EDGE_CURVE('',#336,#334,#38,.T.);
#411=EDGE_CURVE('',#337,#336,#39,.T.);
#412=EDGE_CURVE('',#337,#335,#40,.T.);
#413=EDGE_CURVE('',#338,#336,#298,.T.);
#414=EDGE_CURVE('',#339,#338,#41,.T.);
#415=EDGE_CURVE('',#339,#337,#299,.T.);
#416=EDGE_CURVE('',#340,#340,#300,.T.);
#417=EDGE_CURVE('',#340,#317,#42,.T.);
#418=EDGE_CURVE('',#341,#341,#301,.T.);
#419=EDGE_CURVE('',#341,#319,#43,.T.);
#420=EDGE_CURVE('',#342,#342,#302,.T.);
#421=EDGE_CURVE('',#342,#318,#44,.T.);
#422=EDGE_CURVE('',#343,#344,#45,.T.);
#423=EDGE_CURVE('',#343,#345,#46,.T.);
#424=EDGE_CURVE('',#346,#345,#47,.T.);
#425=EDGE_CURVE('',#344,#346,#48,.T.);
#426=EDGE_CURVE('',#344,#347,#49,.T.);
#427=EDGE_CURVE('',#348,#346,#50,.T.);
#428=EDGE_CURVE('',#347,#348,#51,.T.);
#429=EDGE_CURVE('',#347,#349,#52,.T.);
#430=EDGE_CURVE('',#350,#348,#53,.T.);
#431=EDGE_CURVE('',#349,#350,#54,.T.);
#432=EDGE_CURVE('',#349,#329,#55,.T.);
#433=EDGE_CURVE('',#351,#350,#56,.T.);
#434=EDGE_CURVE('',#327,#351,#57,.T.);
#435=EDGE_CURVE('',#352,#338,#58,.T.);
#436=EDGE_CURVE('',#353,#352,#59,.T.);
#437=EDGE_CURVE('',#353,#339,#60,.T.);
#438=EDGE_CURVE('',#354,#353,#61,.T.);
#439=EDGE_CURVE('',#355,#352,#62,.T.);
#440=EDGE_CURVE('',#356,#355,#63,.T.);
#441=EDGE_CURVE('',#354,#356,#64,.T.);
#442=EDGE_CURVE('',#354,#357,#65,.T.);
#443=EDGE_CURVE('',#358,#356,#66,.T.);
#444=EDGE_CURVE('',#357,#358,#67,.T.);
#445=EDGE_CURVE('',#357,#343,#68,.T.);
#446=EDGE_CURVE('',#345,#358,#69,.T.);
#447=EDGE_CURVE('',#359,#355,#70,.T.);
#448=EDGE_CURVE('',#360,#359,#303,.T.);
#449=EDGE_CURVE('',#361,#360,#71,.T.);
#450=EDGE_CURVE('',#362,#361,#304,.T.);
#451=EDGE_CURVE('',#363,#362,#72,.T.);
#452=EDGE_CURVE('',#364,#363,#73,.T.);
#453=EDGE_CURVE('',#351,#364,#74,.T.);
#454=EDGE_CURVE('',#365,#364,#75,.T.);
#455=EDGE_CURVE('',#366,#365,#76,.T.);
#456=EDGE_CURVE('',#366,#367,#77,.T.);
#457=EDGE_CURVE('',#327,#367,#78,.T.);
#458=EDGE_CURVE('',#368,#363,#79,.T.);
#459=EDGE_CURVE('',#368,#365,#80,.T.);
#460=EDGE_CURVE('',#369,#362,#81,.T.);
#461=EDGE_CURVE('',#369,#368,#82,.T.);
#462=EDGE_CURVE('',#361,#370,#83,.T.);
#463=EDGE_CURVE('',#370,#369,#305,.T.);
#464=EDGE_CURVE('',#360,#371,#84,.T.);
#465=EDGE_CURVE('',#371,#370,#85,.T.);
#466=EDGE_CURVE('',#359,#372,#86,.T.);
#467=EDGE_CURVE('',#372,#371,#306,.T.);
#468=EDGE_CURVE('',#373,#372,#87,.T.);
#469=EDGE_CURVE('',#374,#373,#307,.T.);
#470=EDGE_CURVE('',#375,#374,#88,.T.);
#471=EDGE_CURVE('',#366,#375,#308,.T.);
#472=EDGE_CURVE('',#376,#376,#309,.T.);
#473=EDGE_CURVE('',#377,#377,#310,.T.);
#474=EDGE_CURVE('',#374,#378,#89,.T.);
#475=EDGE_CURVE('',#379,#378,#90,.T.);
#476=EDGE_CURVE('',#375,#379,#91,.T.);
#477=EDGE_CURVE('',#373,#380,#92,.T.);
#478=EDGE_CURVE('',#378,#380,#311,.T.);
#479=EDGE_CURVE('',#367,#379,#312,.T.);
#480=EDGE_CURVE('',#316,#376,#93,.T.);
#481=EDGE_CURVE('',#381,#381,#313,.T.);
#482=EDGE_CURVE('',#381,#377,#94,.T.);
#483=EDGE_CURVE('',#380,#352,#95,.T.);
#484=EDGE_CURVE('',#382,#382,#314,.T.);
#485=EDGE_CURVE('',#383,#383,#315,.T.);
#486=EDGE_CURVE('',#383,#382,#96,.T.);
#487=ORIENTED_EDGE('',*,*,#384,.F.);
#488=ORIENTED_EDGE('',*,*,#385,.F.);
#489=ORIENTED_EDGE('',*,*,#386,.F.);
#490=ORIENTED_EDGE('',*,*,#387,.F.);
#491=ORIENTED_EDGE('',*,*,#388,.F.);
#492=ORIENTED_EDGE('',*,*,#389,.T.);
#493=ORIENTED_EDGE('',*,*,#390,.T.);
#494=ORIENTED_EDGE('',*,*,#389,.F.);
#495=ORIENTED_EDGE('',*,*,#390,.F.);
#496=ORIENTED_EDGE('',*,*,#391,.F.);
#497=ORIENTED_EDGE('',*,*,#392,.T.);
#498=ORIENTED_EDGE('',*,*,#393,.T.);
#499=ORIENTED_EDGE('',*,*,#392,.F.);
#500=ORIENTED_EDGE('',*,*,#393,.F.);
#501=ORIENTED_EDGE('',*,*,#394,.F.);
#502=ORIENTED_EDGE('',*,*,#395,.T.);
#503=ORIENTED_EDGE('',*,*,#396,.T.);
#504=ORIENTED_EDGE('',*,*,#395,.F.);
#505=ORIENTED_EDGE('',*,*,#396,.F.);
#506=ORIENTED_EDGE('',*,*,#397,.F.);
#507=ORIENTED_EDGE('',*,*,#398,.F.);
#508=ORIENTED_EDGE('',*,*,#399,.T.);
#509=ORIENTED_EDGE('',*,*,#400,.T.);
#510=ORIENTED_EDGE('',*,*,#401,.F.);
#511=ORIENTED_EDGE('',*,*,#402,.F.);
#512=ORIENTED_EDGE('',*,*,#403,.T.);
#513=ORIENTED_EDGE('',*,*,#398,.T.);
#514=ORIENTED_EDGE('',*,*,#404,.T.);
#515=ORIENTED_EDGE('',*,*,#405,.F.);
#516=ORIENTED_EDGE('',*,*,#406,.T.);
#517=ORIENTED_EDGE('',*,*,#402,.T.);
#518=ORIENTED_EDGE('',*,*,#407,.F.);
#519=ORIENTED_EDGE('',*,*,#408,.F.);
#520=ORIENTED_EDGE('',*,*,#409,.T.);
#521=ORIENTED_EDGE('',*,*,#405,.T.);
#522=ORIENTED_EDGE('',*,*,#410,.F.);
#523=ORIENTED_EDGE('',*,*,#411,.F.);
#524=ORIENTED_EDGE('',*,*,#412,.T.);
#525=ORIENTED_EDGE('',*,*,#408,.T.);
#526=ORIENTED_EDGE('',*,*,#413,.F.);
#527=ORIENTED_EDGE('',*,*,#414,.F.);
#528=ORIENTED_EDGE('',*,*,#415,.T.);
#529=ORIENTED_EDGE('',*,*,#411,.T.);
#530=ORIENTED_EDGE('',*,*,#416,.F.);
#531=ORIENTED_EDGE('',*,*,#417,.T.);
#532=ORIENTED_EDGE('',*,*,#385,.T.);
#533=ORIENTED_EDGE('',*,*,#417,.F.);
#534=ORIENTED_EDGE('',*,*,#418,.F.);
#535=ORIENTED_EDGE('',*,*,#419,.T.);
#536=ORIENTED_EDGE('',*,*,#387,.T.);
#537=ORIENTED_EDGE('',*,*,#419,.F.);
#538=ORIENTED_EDGE('',*,*,#420,.F.);
#539=ORIENTED_EDGE('',*,*,#421,.T.);
#540=ORIENTED_EDGE('',*,*,#386,.T.);
#541=ORIENTED_EDGE('',*,*,#421,.F.);
#542=ORIENTED_EDGE('',*,*,#422,.F.);
#543=ORIENTED_EDGE('',*,*,#423,.T.);
#544=ORIENTED_EDGE('',*,*,#424,.F.);
#545=ORIENTED_EDGE('',*,*,#425,.F.);
#546=ORIENTED_EDGE('',*,*,#426,.F.);
#547=ORIENTED_EDGE('',*,*,#425,.T.);
#548=ORIENTED_EDGE('',*,*,#427,.F.);
#549=ORIENTED_EDGE('',*,*,#428,.F.);
#550=ORIENTED_EDGE('',*,*,#429,.F.);
#551=ORIENTED_EDGE('',*,*,#428,.T.);
#552=ORIENTED_EDGE('',*,*,#430,.F.);
#553=ORIENTED_EDGE('',*,*,#431,.F.);
#554=ORIENTED_EDGE('',*,*,#432,.F.);
#555=ORIENTED_EDGE('',*,*,#431,.T.);
#556=ORIENTED_EDGE('',*,*,#433,.F.);
#557=ORIENTED_EDGE('',*,*,#434,.F.);
#558=ORIENTED_EDGE('',*,*,#400,.F.);
#559=ORIENTED_EDGE('',*,*,#435,.F.);
#560=ORIENTED_EDGE('',*,*,#436,.F.);
#561=ORIENTED_EDGE('',*,*,#437,.T.);
#562=ORIENTED_EDGE('',*,*,#414,.T.);
#563=ORIENTED_EDGE('',*,*,#438,.T.);
#564=ORIENTED_EDGE('',*,*,#436,.T.);
#565=ORIENTED_EDGE('',*,*,#439,.F.);
#566=ORIENTED_EDGE('',*,*,#440,.F.);
#567=ORIENTED_EDGE('',*,*,#441,.F.);
#568=ORIENTED_EDGE('',*,*,#442,.F.);
#569=ORIENTED_EDGE('',*,*,#441,.T.);
#570=ORIENTED_EDGE('',*,*,#443,.F.);
#571=ORIENTED_EDGE('',*,*,#444,.F.);
#572=ORIENTED_EDGE('',*,*,#445,.F.);
#573=ORIENTED_EDGE('',*,*,#444,.T.);
#574=ORIENTED_EDGE('',*,*,#446,.F.);
#575=ORIENTED_EDGE('',*,*,#423,.F.);
#576=ORIENTED_EDGE('',*,*,#445,.T.);
#577=ORIENTED_EDGE('',*,*,#422,.T.);
#578=ORIENTED_EDGE('',*,*,#426,.T.);
#579=ORIENTED_EDGE('',*,*,#429,.T.);
#580=ORIENTED_EDGE('',*,*,#432,.T.);
#581=ORIENTED_EDGE('',*,*,#399,.F.);
#582=ORIENTED_EDGE('',*,*,#403,.F.);
#583=ORIENTED_EDGE('',*,*,#406,.F.);
#584=ORIENTED_EDGE('',*,*,#409,.F.);
#585=ORIENTED_EDGE('',*,*,#412,.F.);
#586=ORIENTED_EDGE('',*,*,#415,.F.);
#587=ORIENTED_EDGE('',*,*,#437,.F.);
#588=ORIENTED_EDGE('',*,*,#438,.F.);
#589=ORIENTED_EDGE('',*,*,#442,.T.);
#590=ORIENTED_EDGE('',*,*,#388,.T.);
#591=ORIENTED_EDGE('',*,*,#391,.T.);
#592=ORIENTED_EDGE('',*,*,#394,.T.);
#593=ORIENTED_EDGE('',*,*,#446,.T.);
#594=ORIENTED_EDGE('',*,*,#443,.T.);
#595=ORIENTED_EDGE('',*,*,#440,.T.);
#596=ORIENTED_EDGE('',*,*,#447,.F.);
#597=ORIENTED_EDGE('',*,*,#448,.F.);
#598=ORIENTED_EDGE('',*,*,#449,.F.);
#599=ORIENTED_EDGE('',*,*,#450,.F.);
#600=ORIENTED_EDGE('',*,*,#451,.F.);
#601=ORIENTED_EDGE('',*,*,#452,.F.);
#602=ORIENTED_EDGE('',*,*,#453,.F.);
#603=ORIENTED_EDGE('',*,*,#433,.T.);
#604=ORIENTED_EDGE('',*,*,#430,.T.);
#605=ORIENTED_EDGE('',*,*,#427,.T.);
#606=ORIENTED_EDGE('',*,*,#424,.T.);
#607=ORIENTED_EDGE('',*,*,#420,.T.);
#608=ORIENTED_EDGE('',*,*,#418,.T.);
#609=ORIENTED_EDGE('',*,*,#416,.T.);
#610=ORIENTED_EDGE('',*,*,#434,.T.);
#611=ORIENTED_EDGE('',*,*,#453,.T.);
#612=ORIENTED_EDGE('',*,*,#454,.F.);
#613=ORIENTED_EDGE('',*,*,#455,.F.);
#614=ORIENTED_EDGE('',*,*,#456,.T.);
#615=ORIENTED_EDGE('',*,*,#457,.F.);
#616=ORIENTED_EDGE('',*,*,#452,.T.);
#617=ORIENTED_EDGE('',*,*,#458,.F.);
#618=ORIENTED_EDGE('',*,*,#459,.T.);
#619=ORIENTED_EDGE('',*,*,#454,.T.);
#620=ORIENTED_EDGE('',*,*,#451,.T.);
#621=ORIENTED_EDGE('',*,*,#460,.F.);
#622=ORIENTED_EDGE('',*,*,#461,.T.);
#623=ORIENTED_EDGE('',*,*,#458,.T.);
#624=ORIENTED_EDGE('',*,*,#450,.T.);
#625=ORIENTED_EDGE('',*,*,#462,.T.);
#626=ORIENTED_EDGE('',*,*,#463,.T.);
#627=ORIENTED_EDGE('',*,*,#460,.T.);
#628=ORIENTED_EDGE('',*,*,#449,.T.);
#629=ORIENTED_EDGE('',*,*,#464,.T.);
#630=ORIENTED_EDGE('',*,*,#465,.T.);
#631=ORIENTED_EDGE('',*,*,#462,.F.);
#632=ORIENTED_EDGE('',*,*,#448,.T.);
#633=ORIENTED_EDGE('',*,*,#466,.T.);
#634=ORIENTED_EDGE('',*,*,#467,.T.);
#635=ORIENTED_EDGE('',*,*,#464,.F.);
#636=ORIENTED_EDGE('',*,*,#468,.F.);
#637=ORIENTED_EDGE('',*,*,#469,.F.);
#638=ORIENTED_EDGE('',*,*,#470,.F.);
#639=ORIENTED_EDGE('',*,*,#471,.F.);
#640=ORIENTED_EDGE('',*,*,#455,.T.);
#641=ORIENTED_EDGE('',*,*,#459,.F.);
#642=ORIENTED_EDGE('',*,*,#461,.F.);
#643=ORIENTED_EDGE('',*,*,#463,.F.);
#644=ORIENTED_EDGE('',*,*,#465,.F.);
#645=ORIENTED_EDGE('',*,*,#467,.F.);
#646=ORIENTED_EDGE('',*,*,#472,.F.);
#647=ORIENTED_EDGE('',*,*,#473,.F.);
#648=ORIENTED_EDGE('',*,*,#470,.T.);
#649=ORIENTED_EDGE('',*,*,#474,.T.);
#650=ORIENTED_EDGE('',*,*,#475,.F.);
#651=ORIENTED_EDGE('',*,*,#476,.F.);
#652=ORIENTED_EDGE('',*,*,#469,.T.);
#653=ORIENTED_EDGE('',*,*,#477,.T.);
#654=ORIENTED_EDGE('',*,*,#478,.F.);
#655=ORIENTED_EDGE('',*,*,#474,.F.);
#656=ORIENTED_EDGE('',*,*,#471,.T.);
#657=ORIENTED_EDGE('',*,*,#476,.T.);
#658=ORIENTED_EDGE('',*,*,#479,.F.);
#659=ORIENTED_EDGE('',*,*,#456,.F.);
#660=ORIENTED_EDGE('',*,*,#384,.T.);
#661=ORIENTED_EDGE('',*,*,#480,.T.);
#662=ORIENTED_EDGE('',*,*,#472,.T.);
#663=ORIENTED_EDGE('',*,*,#480,.F.);
#664=ORIENTED_EDGE('',*,*,#481,.T.);
#665=ORIENTED_EDGE('',*,*,#482,.T.);
#666=ORIENTED_EDGE('',*,*,#473,.T.);
#667=ORIENTED_EDGE('',*,*,#482,.F.);
#668=ORIENTED_EDGE('',*,*,#439,.T.);
#669=ORIENTED_EDGE('',*,*,#483,.F.);
#670=ORIENTED_EDGE('',*,*,#477,.F.);
#671=ORIENTED_EDGE('',*,*,#468,.T.);
#672=ORIENTED_EDGE('',*,*,#466,.F.);
#673=ORIENTED_EDGE('',*,*,#447,.T.);
#674=ORIENTED_EDGE('',*,*,#484,.F.);
#675=ORIENTED_EDGE('',*,*,#485,.F.);
#676=ORIENTED_EDGE('',*,*,#486,.T.);
#677=ORIENTED_EDGE('',*,*,#484,.T.);
#678=ORIENTED_EDGE('',*,*,#486,.F.);
#679=ORIENTED_EDGE('',*,*,#481,.F.);
#680=ORIENTED_EDGE('',*,*,#407,.T.);
#681=ORIENTED_EDGE('',*,*,#404,.F.);
#682=ORIENTED_EDGE('',*,*,#401,.T.);
#683=ORIENTED_EDGE('',*,*,#397,.T.);
#684=ORIENTED_EDGE('',*,*,#457,.T.);
#685=ORIENTED_EDGE('',*,*,#479,.T.);
#686=ORIENTED_EDGE('',*,*,#475,.T.);
#687=ORIENTED_EDGE('',*,*,#478,.T.);
#688=ORIENTED_EDGE('',*,*,#483,.T.);
#689=ORIENTED_EDGE('',*,*,#435,.T.);
#690=ORIENTED_EDGE('',*,*,#413,.T.);
#691=ORIENTED_EDGE('',*,*,#410,.T.);
#692=ORIENTED_EDGE('',*,*,#485,.T.);
#693=PLANE('',#784);
#694=PLANE('',#786);
#695=PLANE('',#788);
#696=PLANE('',#790);
#697=PLANE('',#795);
#698=PLANE('',#799);
#699=PLANE('',#803);
#700=PLANE('',#804);
#701=PLANE('',#805);
#702=PLANE('',#806);
#703=PLANE('',#810);
#704=PLANE('',#820);
#705=PLANE('',#821);
#706=PLANE('',#822);
#707=PLANE('',#823);
#708=PLANE('',#824);
#709=PLANE('',#825);
#710=PLANE('',#826);
#711=PLANE('',#827);
#712=PLANE('',#828);
#713=PLANE('',#829);
#714=PLANE('',#832);
#715=PLANE('',#833);
#716=PLANE('',#834);
#717=PLANE('',#837);
#718=PLANE('',#840);
#719=PLANE('',#845);
#720=PLANE('',#853);
#721=PLANE('',#854);
#722=PLANE('',#858);
#723=PLANE('',#859);
#724=ADVANCED_FACE('',(#185),#693,.F.);
#725=ADVANCED_FACE('',(#186),#694,.F.);
#726=ADVANCED_FACE('',(#187),#695,.F.);
#727=ADVANCED_FACE('',(#188),#696,.F.);
#728=ADVANCED_FACE('',(#189),#170,.F.);
#729=ADVANCED_FACE('',(#190),#697,.T.);
#730=ADVANCED_FACE('',(#191),#171,.F.);
#731=ADVANCED_FACE('',(#192),#698,.T.);
#732=ADVANCED_FACE('',(#193),#172,.F.);
#733=ADVANCED_FACE('',(#194),#699,.T.);
#734=ADVANCED_FACE('',(#195),#700,.T.);
#735=ADVANCED_FACE('',(#196),#701,.T.);
#736=ADVANCED_FACE('',(#197),#702,.T.);
#737=ADVANCED_FACE('',(#198),#173,.F.);
#738=ADVANCED_FACE('',(#199),#703,.T.);
#739=ADVANCED_FACE('',(#200),#174,.F.);
#740=ADVANCED_FACE('',(#201),#175,.F.);
#741=ADVANCED_FACE('',(#202),#176,.F.);
#742=ADVANCED_FACE('',(#203),#177,.F.);
#743=ADVANCED_FACE('',(#204),#704,.T.);
#744=ADVANCED_FACE('',(#205),#705,.T.);
#745=ADVANCED_FACE('',(#206),#706,.T.);
#746=ADVANCED_FACE('',(#207),#707,.T.);
#747=ADVANCED_FACE('',(#208),#708,.T.);
#748=ADVANCED_FACE('',(#209),#709,.T.);
#749=ADVANCED_FACE('',(#210),#710,.T.);
#750=ADVANCED_FACE('',(#211),#711,.T.);
#751=ADVANCED_FACE('',(#212,#15,#16,#17),#712,.T.);
#752=ADVANCED_FACE('',(#213,#18,#19,#20),#713,.F.);
#753=ADVANCED_FACE('',(#214),#714,.T.);
#754=ADVANCED_FACE('',(#215),#715,.T.);
#755=ADVANCED_FACE('',(#216),#716,.T.);
#756=ADVANCED_FACE('',(#217),#178,.T.);
#757=ADVANCED_FACE('',(#218),#717,.T.);
#758=ADVANCED_FACE('',(#219),#179,.T.);
#759=ADVANCED_FACE('',(#220,#21,#22),#718,.F.);
#760=ADVANCED_FACE('',(#221),#719,.T.);
#761=ADVANCED_FACE('',(#222),#180,.T.);
#762=ADVANCED_FACE('',(#223),#181,.T.);
#763=ADVANCED_FACE('',(#224),#182,.F.);
#764=ADVANCED_FACE('',(#225),#183,.F.);
#765=ADVANCED_FACE('',(#226),#720,.T.);
#766=ADVANCED_FACE('',(#227),#721,.T.);
#767=ADVANCED_FACE('',(#228),#184,.F.);
#768=ADVANCED_FACE('',(#229),#722,.F.);
#769=ADVANCED_FACE('',(#230,#23),#723,.T.);
#770=CLOSED_SHELL('',(#724,#725,#726,#727,#728,#729,#730,#731,#732,#733,
#734,#735,#736,#737,#738,#739,#740,#741,#742,#743,#744,#745,#746,#747,#748,
#749,#750,#751,#752,#753,#754,#755,#756,#757,#758,#759,#760,#761,#762,#763,
#764,#765,#766,#767,#768,#769));
#771=DERIVED_UNIT_ELEMENT(#773,1.);
#772=DERIVED_UNIT_ELEMENT(#1310,-3.);
#773=(
MASS_UNIT()
NAMED_UNIT(*)
SI_UNIT(.KILO.,.GRAM.)
);
#774=DERIVED_UNIT((#771,#772));
#775=MEASURE_REPRESENTATION_ITEM('density measure',
POSITIVE_RATIO_MEASURE(7850.),#774);
#776=PROPERTY_DEFINITION_REPRESENTATION(#781,#778);
#777=PROPERTY_DEFINITION_REPRESENTATION(#782,#779);
#778=REPRESENTATION('material name',(#780),#1307);
#779=REPRESENTATION('density',(#775),#1307);
#780=DESCRIPTIVE_REPRESENTATION_ITEM('Steel','Steel');
#781=PROPERTY_DEFINITION('material property','material name',#1317);
#782=PROPERTY_DEFINITION('material property','density of part',#1317);
#783=AXIS2_PLACEMENT_3D('',#1087,#860,#861);
#784=AXIS2_PLACEMENT_3D('',#1088,#862,#863);
#785=AXIS2_PLACEMENT_3D('',#1090,#864,#865);
#786=AXIS2_PLACEMENT_3D('',#1091,#866,#867);
#787=AXIS2_PLACEMENT_3D('',#1093,#868,#869);
#788=AXIS2_PLACEMENT_3D('',#1094,#870,#871);
#789=AXIS2_PLACEMENT_3D('',#1096,#872,#873);
#790=AXIS2_PLACEMENT_3D('',#1097,#874,#875);
#791=AXIS2_PLACEMENT_3D('',#1099,#876,#877);
#792=AXIS2_PLACEMENT_3D('',#1100,#878,#879);
#793=AXIS2_PLACEMENT_3D('',#1102,#880,#881);
#794=AXIS2_PLACEMENT_3D('',#1105,#883,#884);
#795=AXIS2_PLACEMENT_3D('',#1106,#885,#886);
#796=AXIS2_PLACEMENT_3D('',#1107,#887,#888);
#797=AXIS2_PLACEMENT_3D('',#1109,#889,#890);
#798=AXIS2_PLACEMENT_3D('',#1112,#892,#893);
#799=AXIS2_PLACEMENT_3D('',#1113,#894,#895);
#800=AXIS2_PLACEMENT_3D('',#1114,#896,#897);
#801=AXIS2_PLACEMENT_3D('',#1116,#898,#899);
#802=AXIS2_PLACEMENT_3D('',#1119,#901,#902);
#803=AXIS2_PLACEMENT_3D('',#1120,#903,#904);
#804=AXIS2_PLACEMENT_3D('',#1121,#905,#906);
#805=AXIS2_PLACEMENT_3D('',#1130,#911,#912);
#806=AXIS2_PLACEMENT_3D('',#1136,#916,#917);
#807=AXIS2_PLACEMENT_3D('',#1142,#921,#922);
#808=AXIS2_PLACEMENT_3D('',#1144,#923,#924);
#809=AXIS2_PLACEMENT_3D('',#1147,#926,#927);
#810=AXIS2_PLACEMENT_3D('',#1148,#928,#929);
#811=AXIS2_PLACEMENT_3D('',#1154,#933,#934);
#812=AXIS2_PLACEMENT_3D('',#1156,#935,#936);
#813=AXIS2_PLACEMENT_3D('',#1159,#938,#939);
#814=AXIS2_PLACEMENT_3D('',#1160,#940,#941);
#815=AXIS2_PLACEMENT_3D('',#1162,#942,#943);
#816=AXIS2_PLACEMENT_3D('',#1164,#945,#946);
#817=AXIS2_PLACEMENT_3D('',#1166,#947,#948);
#818=AXIS2_PLACEMENT_3D('',#1168,#950,#951);
#819=AXIS2_PLACEMENT_3D('',#1170,#952,#953);
#820=AXIS2_PLACEMENT_3D('',#1172,#955,#956);
#821=AXIS2_PLACEMENT_3D('',#1181,#961,#962);
#822=AXIS2_PLACEMENT_3D('',#1187,#966,#967);
#823=AXIS2_PLACEMENT_3D('',#1193,#971,#972);
#824=AXIS2_PLACEMENT_3D('',#1198,#976,#977);
#825=AXIS2_PLACEMENT_3D('',#1204,#981,#982);
#826=AXIS2_PLACEMENT_3D('',#1212,#987,#988);
#827=AXIS2_PLACEMENT_3D('',#1218,#992,#993);
#828=AXIS2_PLACEMENT_3D('',#1221,#996,#997);
#829=AXIS2_PLACEMENT_3D('',#1222,#998,#999);
#830=AXIS2_PLACEMENT_3D('',#1226,#1001,#1002);
#831=AXIS2_PLACEMENT_3D('',#1230,#1004,#1005);
#832=AXIS2_PLACEMENT_3D('',#1236,#1009,#1010);
#833=AXIS2_PLACEMENT_3D('',#1244,#1015,#1016);
#834=AXIS2_PLACEMENT_3D('',#1248,#1019,#1020);
#835=AXIS2_PLACEMENT_3D('',#1252,#1023,#1024);
#836=AXIS2_PLACEMENT_3D('',#1255,#1026,#1027);
#837=AXIS2_PLACEMENT_3D('',#1256,#1028,#1029);
#838=AXIS2_PLACEMENT_3D('',#1260,#1032,#1033);
#839=AXIS2_PLACEMENT_3D('',#1263,#1035,#1036);
#840=AXIS2_PLACEMENT_3D('',#1264,#1037,#1038);
#841=AXIS2_PLACEMENT_3D('',#1268,#1040,#1041);
#842=AXIS2_PLACEMENT_3D('',#1271,#1043,#1044);
#843=AXIS2_PLACEMENT_3D('',#1273,#1045,#1046);
#844=AXIS2_PLACEMENT_3D('',#1275,#1047,#1048);
#845=AXIS2_PLACEMENT_3D('',#1276,#1049,#1050);
#846=AXIS2_PLACEMENT_3D('',#1282,#1054,#1055);
#847=AXIS2_PLACEMENT_3D('',#1285,#1057,#1058);
#848=AXIS2_PLACEMENT_3D('',#1286,#1059,#1060);
#849=AXIS2_PLACEMENT_3D('',#1287,#1061,#1062);
#850=AXIS2_PLACEMENT_3D('',#1288,#1063,#1064);
#851=AXIS2_PLACEMENT_3D('',#1290,#1066,#1067);
#852=AXIS2_PLACEMENT_3D('',#1292,#1068,#1069);
#853=AXIS2_PLACEMENT_3D('',#1294,#1071,#1072);
#854=AXIS2_PLACEMENT_3D('',#1296,#1074,#1075);
#855=AXIS2_PLACEMENT_3D('',#1298,#1076,#1077);
#856=AXIS2_PLACEMENT_3D('',#1299,#1078,#1079);
#857=AXIS2_PLACEMENT_3D('',#1301,#1080,#1081);
#858=AXIS2_PLACEMENT_3D('',#1303,#1083,#1084);
#859=AXIS2_PLACEMENT_3D('',#1304,#1085,#1086);
#860=DIRECTION('axis',(0.,0.,1.));
#861=DIRECTION('refdir',(1.,0.,0.));
#862=DIRECTION('center_axis',(-1.,-1.31838984174236E-15,-6.1635665308028E-16));
#863=DIRECTION('ref_axis',(-6.16356653080279E-16,-1.00445650866079E-15,
1.));
#864=DIRECTION('center_axis',(-1.,-1.31838984174236E-15,-6.1635665308028E-16));
#865=DIRECTION('ref_axis',(0.,0.,-1.));
#866=DIRECTION('center_axis',(-1.,-1.31838984174236E-15,-6.1635665308028E-16));
#867=DIRECTION('ref_axis',(-6.16356653080279E-16,-1.00445650866079E-15,
1.));
#868=DIRECTION('center_axis',(-1.,-1.31838984174236E-15,-6.1635665308028E-16));
#869=DIRECTION('ref_axis',(0.,0.,1.));
#870=DIRECTION('center_axis',(-1.,-1.31838984174236E-15,-6.1635665308028E-16));
#871=DIRECTION('ref_axis',(-6.16356653080279E-16,-1.00445650866079E-15,
1.));
#872=DIRECTION('center_axis',(-1.,-1.31838984174236E-15,-6.1635665308028E-16));
#873=DIRECTION('ref_axis',(0.,0.,1.));
#874=DIRECTION('center_axis',(-1.,-1.31838984174236E-15,-6.1635665308028E-16));
#875=DIRECTION('ref_axis',(-6.16356653080279E-16,-1.00445650866079E-15,
1.));
#876=DIRECTION('center_axis',(-1.,-1.31838984174236E-15,-6.1635665308028E-16));
#877=DIRECTION('ref_axis',(0.,0.,1.));
#878=DIRECTION('center_axis',(1.,0.,0.));
#879=DIRECTION('ref_axis',(0.,0.,1.));
#880=DIRECTION('center_axis',(1.,0.,0.));
#881=DIRECTION('ref_axis',(0.,0.,1.));
#882=DIRECTION('',(1.,0.,0.));
#883=DIRECTION('center_axis',(1.,0.,0.));
#884=DIRECTION('ref_axis',(0.,0.,1.));
#885=DIRECTION('center_axis',(-1.,0.,0.));
#886=DIRECTION('ref_axis',(0.,0.,1.));
#887=DIRECTION('center_axis',(1.,0.,0.));
#888=DIRECTION('ref_axis',(0.,0.,1.));
#889=DIRECTION('center_axis',(1.,0.,0.));
#890=DIRECTION('ref_axis',(0.,0.,1.));
#891=DIRECTION('',(1.,0.,0.));
#892=DIRECTION('center_axis',(1.,0.,0.));
#893=DIRECTION('ref_axis',(0.,0.,1.));
#894=DIRECTION('center_axis',(-1.,0.,0.));
#895=DIRECTION('ref_axis',(0.,0.,1.));
#896=DIRECTION('center_axis',(1.,0.,0.));
#897=DIRECTION('ref_axis',(0.,0.,1.));
#898=DIRECTION('center_axis',(1.,0.,0.));
#899=DIRECTION('ref_axis',(0.,0.,1.));
#900=DIRECTION('',(1.,0.,0.));
#901=DIRECTION('center_axis',(1.,0.,0.));
#902=DIRECTION('ref_axis',(0.,0.,1.));
#903=DIRECTION('center_axis',(-1.,0.,0.));
#904=DIRECTION('ref_axis',(0.,0.,1.));
#905=DIRECTION('center_axis',(0.,-3.12260239487886E-16,-1.));
#906=DIRECTION('ref_axis',(0.,1.,-3.12260239487886E-16));
#907=DIRECTION('',(-3.02539418643775E-18,1.,0.));
#908=DIRECTION('',(1.,0.,0.));
#909=DIRECTION('',(0.,1.,-3.12260239487886E-16));
#910=DIRECTION('',(1.,0.,0.));
#911=DIRECTION('center_axis',(0.,1.,-7.82270965860544E-16));
#912=DIRECTION('ref_axis',(0.,7.82270965860544E-16,1.));
#913=DIRECTION('',(-2.87517839954157E-17,8.24568824655289E-16,1.));
#914=DIRECTION('',(1.,0.,0.));
#915=DIRECTION('',(0.,7.82270965860544E-16,1.));
#916=DIRECTION('center_axis',(0.,0.,1.));
#917=DIRECTION('ref_axis',(0.,-1.,0.));
#918=DIRECTION('',(0.,1.,-2.530289634942E-16));
#919=DIRECTION('',(1.,0.,0.));
#920=DIRECTION('',(0.,-1.,0.));
#921=DIRECTION('center_axis',(1.,0.,0.));
#922=DIRECTION('ref_axis',(0.,0.743542227417181,-0.668688983046301));
#923=DIRECTION('center_axis',(-1.,0.,0.));
#924=DIRECTION('ref_axis',(0.,0.743542227417181,-0.668688983046301));
#925=DIRECTION('',(1.,0.,0.));
#926=DIRECTION('center_axis',(-1.,0.,0.));
#927=DIRECTION('ref_axis',(0.,0.743542227417181,-0.668688983046301));
#928=DIRECTION('center_axis',(0.,-0.743542227417171,0.668688983046313));
#929=DIRECTION('ref_axis',(0.,-0.668688983046313,-0.743542227417171));
#930=DIRECTION('',(0.,-0.668688983046313,-0.743542227417171));
#931=DIRECTION('',(1.,0.,0.));
#932=DIRECTION('',(0.,-0.668688983046313,-0.743542227417171));
#933=DIRECTION('center_axis',(1.,0.,0.));
#934=DIRECTION('ref_axis',(0.,1.,2.22044604925051E-14));
#935=DIRECTION('center_axis',(-1.,0.,0.));
#936=DIRECTION('ref_axis',(0.,1.,2.22044604925051E-14));
#937=DIRECTION('',(1.,0.,0.));
#938=DIRECTION('center_axis',(-1.,0.,0.));
#939=DIRECTION('ref_axis',(0.,1.,2.22044604925051E-14));
#940=DIRECTION('center_axis',(1.,0.,0.));
#941=DIRECTION('ref_axis',(0.,0.,1.));
#942=DIRECTION('center_axis',(-1.,0.,0.));
#943=DIRECTION('ref_axis',(0.,0.,1.));
#944=DIRECTION('',(-1.,0.,0.));
#945=DIRECTION('center_axis',(1.,0.,0.));
#946=DIRECTION('ref_axis',(0.,0.,1.));
#947=DIRECTION('center_axis',(-1.,0.,0.));
#948=DIRECTION('ref_axis',(0.,0.,1.));
#949=DIRECTION('',(-1.,0.,0.));
#950=DIRECTION('center_axis',(1.,0.,0.));
#951=DIRECTION('ref_axis',(0.,0.,1.));
#952=DIRECTION('center_axis',(-1.,0.,0.));
#953=DIRECTION('ref_axis',(0.,0.,1.));
#954=DIRECTION('',(-1.,0.,0.));
#955=DIRECTION('center_axis',(0.,-5.13653878947345E-16,-1.));
#956=DIRECTION('ref_axis',(0.,1.,-5.13653878947345E-16));
#957=DIRECTION('',(0.,-1.,5.13653878947345E-16));
#958=DIRECTION('',(1.,0.,0.));
#959=DIRECTION('',(0.,1.,-5.13653878947345E-16));
#960=DIRECTION('',(1.,0.,0.));
#961=DIRECTION('center_axis',(0.,-1.,1.2884599898938E-16));
#962=DIRECTION('ref_axis',(0.,-1.2884599898938E-16,-1.));
#963=DIRECTION('',(0.,1.2884599898938E-16,1.));
#964=DIRECTION('',(0.,-1.2884599898938E-16,-1.));
#965=DIRECTION('',(1.,0.,0.));
#966=DIRECTION('center_axis',(0.,0.,1.));
#967=DIRECTION('ref_axis',(0.,-1.,0.));
#968=DIRECTION('',(0.,1.,0.));
#969=DIRECTION('',(0.,-1.,0.));
#970=DIRECTION('',(1.,0.,0.));
#971=DIRECTION('center_axis',(0.,1.,0.));
#972=DIRECTION('ref_axis',(0.,0.,1.));
#973=DIRECTION('',(0.,0.,-1.));
#974=DIRECTION('',(0.,0.,1.));
#975=DIRECTION('',(1.,0.,0.));
#976=DIRECTION('center_axis',(0.,-1.,-2.07650648233729E-16));
#977=DIRECTION('ref_axis',(0.,2.07650648233729E-16,-1.));
#978=DIRECTION('',(0.,0.,-1.));
#979=DIRECTION('',(1.,0.,0.));
#980=DIRECTION('',(0.,2.07650648233729E-16,-1.));
#981=DIRECTION('center_axis',(0.,0.,1.));
#982=DIRECTION('ref_axis',(0.,-1.,0.));
#983=DIRECTION('',(0.,-1.,0.));
#984=DIRECTION('',(-1.,0.,0.));
#985=DIRECTION('',(0.,-1.,0.));
#986=DIRECTION('',(1.,0.,0.));
#987=DIRECTION('center_axis',(0.,1.,0.));
#988=DIRECTION('ref_axis',(0.,0.,1.));
#989=DIRECTION('',(0.,0.,-1.));
#990=DIRECTION('',(0.,0.,1.));
#991=DIRECTION('',(1.,0.,0.));
#992=DIRECTION('center_axis',(0.,0.74354222741717,-0.668688983046314));
#993=DIRECTION('ref_axis',(0.,0.668688983046314,0.74354222741717));
#994=DIRECTION('',(0.,-0.668688983046314,-0.74354222741717));
#995=DIRECTION('',(0.,0.668688983046314,0.74354222741717));
#996=DIRECTION('center_axis',(-1.,0.,0.));
#997=DIRECTION('ref_axis',(0.,0.,1.));
#998=DIRECTION('center_axis',(-1.,0.,0.));
#999=DIRECTION('ref_axis',(0.,0.,1.));
#1000=DIRECTION('',(0.,-1.03825324116864E-16,1.));
#1001=DIRECTION('center_axis',(1.,0.,0.));
#1002=DIRECTION('ref_axis',(0.,1.,8.32667268468869E-15));
#1003=DIRECTION('',(0.,0.668688983046317,0.743542227417167));
#1004=DIRECTION('center_axis',(1.,0.,0.));
#1005=DIRECTION('ref_axis',(0.,0.743542227417167,-0.668688983046318));
#1006=DIRECTION('',(0.,1.,0.));
#1007=DIRECTION('',(0.,-8.24568824655289E-16,-1.));
#1008=DIRECTION('',(0.,-1.,0.));
#1009=DIRECTION('center_axis',(0.,0.,1.));
#1010=DIRECTION('ref_axis',(-3.02539418643775E-18,1.,0.));
#1011=DIRECTION('',(-1.,0.,0.));
#1012=DIRECTION('',(3.02539418643775E-18,-1.,0.));
#1013=DIRECTION('',(-1.,0.,0.));
#1014=DIRECTION('',(-3.02539418643775E-18,1.,0.));
#1015=DIRECTION('center_axis',(0.,-1.,8.24568824655289E-16));
#1016=DIRECTION('ref_axis',(-2.87517839954157E-17,8.24568824655289E-16,
1.));
#1017=DIRECTION('',(-1.,0.,0.));
#1018=DIRECTION('',(-2.87517839954157E-17,8.24568824655289E-16,1.));
#1019=DIRECTION('center_axis',(0.,0.,-1.));
#1020=DIRECTION('ref_axis',(0.,-1.,0.));
#1021=DIRECTION('',(-1.,0.,0.));
#1022=DIRECTION('',(0.,-1.,0.));
#1023=DIRECTION('center_axis',(-1.,0.,0.));
#1024=DIRECTION('ref_axis',(0.,0.743542227417167,-0.668688983046318));
#1025=DIRECTION('',(1.,0.,0.));
#1026=DIRECTION('center_axis',(-1.,0.,0.));
#1027=DIRECTION('ref_axis',(0.,0.743542227417167,-0.668688983046318));
#1028=DIRECTION('center_axis',(0.,0.743542227417167,-0.668688983046317));
#1029=DIRECTION('ref_axis',(0.,-0.668688983046317,-0.743542227417167));
#1030=DIRECTION('',(1.,0.,0.));
#1031=DIRECTION('',(0.,-0.668688983046317,-0.743542227417167));
#1032=DIRECTION('center_axis',(-1.,0.,0.));
#1033=DIRECTION('ref_axis',(0.,1.,8.32667268468869E-15));
#1034=DIRECTION('',(1.,0.,0.));
#1035=DIRECTION('center_axis',(-1.,0.,0.));
#1036=DIRECTION('ref_axis',(0.,1.,8.32667268468869E-15));
#1037=DIRECTION('center_axis',(-1.,0.,0.));
#1038=DIRECTION('ref_axis',(0.,0.,-1.));
#1039=DIRECTION('',(0.,1.03825324116864E-16,-1.));
#1040=DIRECTION('center_axis',(-1.,0.,0.));
#1041=DIRECTION('ref_axis',(0.,0.743542227417167,0.668688983046318));
#1042=DIRECTION('',(0.,0.668688983046318,-0.743542227417166));
#1043=DIRECTION('center_axis',(-1.,0.,0.));
#1044=DIRECTION('ref_axis',(0.,2.77555756156285E-15,1.));
#1045=DIRECTION('center_axis',(1.,0.,0.));
#1046=DIRECTION('ref_axis',(0.,0.,-1.));
#1047=DIRECTION('center_axis',(1.,0.,0.));
#1048=DIRECTION('ref_axis',(0.,0.,-1.));
#1049=DIRECTION('center_axis',(0.,0.743542227417166,0.668688983046318));
#1050=DIRECTION('ref_axis',(0.,0.668688983046318,-0.743542227417166));
#1051=DIRECTION('',(-1.,0.,0.));
#1052=DIRECTION('',(0.,0.668688983046318,-0.743542227417166));
#1053=DIRECTION('',(-1.,0.,0.));
#1054=DIRECTION('center_axis',(-1.,0.,0.));
#1055=DIRECTION('ref_axis',(0.,0.743542227417167,0.668688983046318));
#1056=DIRECTION('',(-1.,0.,0.));
#1057=DIRECTION('center_axis',(-1.,0.,0.));
#1058=DIRECTION('ref_axis',(0.,0.743542227417167,0.668688983046318));
#1059=DIRECTION('center_axis',(-1.,0.,0.));
#1060=DIRECTION('ref_axis',(0.,2.77555756156285E-15,1.));
#1061=DIRECTION('center_axis',(-1.,0.,0.));
#1062=DIRECTION('ref_axis',(0.,2.77555756156285E-15,1.));
#1063=DIRECTION('center_axis',(-1.,0.,0.));
#1064=DIRECTION('ref_axis',(0.,0.,-1.));
#1065=DIRECTION('',(1.,0.,0.));
#1066=DIRECTION('center_axis',(-1.,0.,0.));
#1067=DIRECTION('ref_axis',(0.,0.,-1.));
#1068=DIRECTION('center_axis',(-1.,0.,0.));
#1069=DIRECTION('ref_axis',(0.,0.,-1.));
#1070=DIRECTION('',(1.,0.,0.));
#1071=DIRECTION('center_axis',(0.,1.,1.03825324116864E-16));
#1072=DIRECTION('ref_axis',(0.,1.03825324116864E-16,-1.));
#1073=DIRECTION('',(0.,0.,-1.));
#1074=DIRECTION('center_axis',(-1.,0.,0.));
#1075=DIRECTION('ref_axis',(0.,0.,1.));
#1076=DIRECTION('center_axis',(1.,0.,0.));
#1077=DIRECTION('ref_axis',(0.,0.,1.));
#1078=DIRECTION('center_axis',(1.,0.,0.));
#1079=DIRECTION('ref_axis',(0.,0.,1.));
#1080=DIRECTION('center_axis',(1.,0.,0.));
#1081=DIRECTION('ref_axis',(0.,0.,1.));
#1082=DIRECTION('',(1.,0.,0.));
#1083=DIRECTION('center_axis',(-1.,0.,0.));
#1084=DIRECTION('ref_axis',(0.,0.,1.));
#1085=DIRECTION('center_axis',(-1.,0.,0.));
#1086=DIRECTION('ref_axis',(0.,-1.03825324116864E-16,1.));
#1087=CARTESIAN_POINT('',(0.,0.,0.));
#1088=CARTESIAN_POINT('Origin',(3.20027402184411,12.7,-51.6));
#1089=CARTESIAN_POINT('',(3.20027402184411,12.7,-49.6));
#1090=CARTESIAN_POINT('Origin',(3.20027402184411,12.7,-51.6));
#1091=CARTESIAN_POINT('Origin',(2.20000000000006,-5.,-88.4));
#1092=CARTESIAN_POINT('',(2.20000000000006,-5.,-89.4));
#1093=CARTESIAN_POINT('Origin',(2.20000000000006,-5.,-88.4));
#1094=CARTESIAN_POINT('Origin',(2.20000000000003,-5.,-43.7));
#1095=CARTESIAN_POINT('',(2.20000000000003,-5.,-44.7));
#1096=CARTESIAN_POINT('Origin',(2.20000000000003,-5.,-43.7));
#1097=CARTESIAN_POINT('Origin',(2.20000000000001,27.4,-70.0999999999999));
#1098=CARTESIAN_POINT('',(2.20000000000001,27.4,-71.0999999999999));
#1099=CARTESIAN_POINT('Origin',(2.20000000000001,27.4,-70.1));
#1100=CARTESIAN_POINT('Origin',(0.,27.4,-70.1));
#1101=CARTESIAN_POINT('',(0.,27.4,-72.1));
#1102=CARTESIAN_POINT('Origin',(0.,27.4,-70.1));
#1103=CARTESIAN_POINT('',(2.,27.4,-72.1));
#1104=CARTESIAN_POINT('',(0.,27.4,-72.1));
#1105=CARTESIAN_POINT('Origin',(2.,27.4,-70.1));
#1106=CARTESIAN_POINT('Origin',(2.,27.4,-70.1));
#1107=CARTESIAN_POINT('Origin',(0.,-5.,-43.7));
#1108=CARTESIAN_POINT('',(0.,-5.,-45.7));
#1109=CARTESIAN_POINT('Origin',(0.,-5.,-43.7));
#1110=CARTESIAN_POINT('',(2.,-5.,-45.7));
#1111=CARTESIAN_POINT('',(0.,-5.,-45.7));
#1112=CARTESIAN_POINT('Origin',(2.,-5.,-43.7));
#1113=CARTESIAN_POINT('Origin',(2.,-5.,-43.7));
#1114=CARTESIAN_POINT('Origin',(0.,-5.,-88.4));
#1115=CARTESIAN_POINT('',(0.,-5.,-90.4));
#1116=CARTESIAN_POINT('Origin',(0.,-5.,-88.4));
#1117=CARTESIAN_POINT('',(2.,-5.,-90.4));
#1118=CARTESIAN_POINT('',(0.,-5.,-90.4));
#1119=CARTESIAN_POINT('Origin',(2.,-5.,-88.4));
#1120=CARTESIAN_POINT('Origin',(2.,-5.,-88.4));
#1121=CARTESIAN_POINT('Origin',(0.,-11.3,-48.1));
#1122=CARTESIAN_POINT('',(0.000274021844095529,-11.3,-48.1));
#1123=CARTESIAN_POINT('',(0.000274021844095515,0.,-48.1));
#1124=CARTESIAN_POINT('',(0.000274021844095529,-4.5,-48.1));
#1125=CARTESIAN_POINT('',(0.,-11.3,-48.1));
#1126=CARTESIAN_POINT('',(0.,-11.3,-48.1));
#1127=CARTESIAN_POINT('',(0.,-1.24904095795153E-16,-48.1));
#1128=CARTESIAN_POINT('',(0.,-11.3,-48.1));
#1129=CARTESIAN_POINT('',(0.,-1.24904095795153E-16,-48.1));
#1130=CARTESIAN_POINT('Origin',(0.,-11.3,-85.));
#1131=CARTESIAN_POINT('',(0.000274021844095529,-11.3,-85.));
#1132=CARTESIAN_POINT('',(0.000274021844096639,-11.3,-85.8));
#1133=CARTESIAN_POINT('',(0.,-11.3,-85.));
#1134=CARTESIAN_POINT('',(0.,-11.3,-85.));
#1135=CARTESIAN_POINT('',(0.,-11.3,-85.));
#1136=CARTESIAN_POINT('Origin',(0.,17.1435322651631,-85.));
#1137=CARTESIAN_POINT('',(0.000274021844095529,17.1435322651631,-85.));
#1138=CARTESIAN_POINT('',(0.000274021844095529,17.1435322651631,-85.));
#1139=CARTESIAN_POINT('',(0.,17.1435322651631,-85.));
#1140=CARTESIAN_POINT('',(0.,17.1435322651631,-85.));
#1141=CARTESIAN_POINT('',(0.,17.1435322651631,-85.));
#1142=CARTESIAN_POINT('Origin',(0.,17.1435322651632,-84.2000000000001));
#1143=CARTESIAN_POINT('',(0.000274021844095529,17.7383660470969,-84.7349511864371));
#1144=CARTESIAN_POINT('Origin',(0.000274021844095529,17.1435322651632,-84.2000000000001));
#1145=CARTESIAN_POINT('',(0.,17.7383660470969,-84.7349511864371));
#1146=CARTESIAN_POINT('',(0.,17.7383660470969,-84.7349511864371));
#1147=CARTESIAN_POINT('Origin',(0.,17.1435322651632,-84.2000000000001));
#1148=CARTESIAN_POINT('Origin',(0.,23.9948337819337,-77.7781325857602));
#1149=CARTESIAN_POINT('',(0.000274021844095529,23.9948337819337,-77.7781325857602));
#1150=CARTESIAN_POINT('',(0.000274021844095529,26.6952790320631,-74.7753986882284));
#1151=CARTESIAN_POINT('',(0.,23.9948337819337,-77.7781325857602));
#1152=CARTESIAN_POINT('',(0.,23.9948337819337,-77.7781325857602));
#1153=CARTESIAN_POINT('',(0.,23.9948337819337,-77.7781325857602));
#1154=CARTESIAN_POINT('Origin',(0.,23.4000000000001,-77.2431813993232));
#1155=CARTESIAN_POINT('',(0.000274021844095529,24.2,-77.2431813993232));
#1156=CARTESIAN_POINT('Origin',(0.000274021844095529,23.4000000000001,-77.2431813993232));
#1157=CARTESIAN_POINT('',(0.,24.2,-77.2431813993232));
#1158=CARTESIAN_POINT('',(0.,24.2,-77.2431813993232));
#1159=CARTESIAN_POINT('Origin',(0.,23.4000000000001,-77.2431813993232));
#1160=CARTESIAN_POINT('Origin',(0.,-5.,-88.4));
#1161=CARTESIAN_POINT('',(3.8,-5.,-89.4));
#1162=CARTESIAN_POINT('Origin',(3.8,-5.,-88.4));
#1163=CARTESIAN_POINT('',(0.,-5.,-89.4));
#1164=CARTESIAN_POINT('Origin',(0.,27.4,-70.1));
#1165=CARTESIAN_POINT('',(3.8,27.4,-71.1));
#1166=CARTESIAN_POINT('Origin',(3.8,27.4,-70.1));
#1167=CARTESIAN_POINT('',(0.,27.4,-71.1));
#1168=CARTESIAN_POINT('Origin',(0.,-5.,-43.7));
#1169=CARTESIAN_POINT('',(3.8,-5.,-44.7));
#1170=CARTESIAN_POINT('Origin',(3.8,-5.,-43.7));
#1171=CARTESIAN_POINT('',(0.,-5.,-44.7));
#1172=CARTESIAN_POINT('Origin',(0.,-14.5,-91.4));
#1173=CARTESIAN_POINT('',(0.,20.0827591731736,-91.4));
#1174=CARTESIAN_POINT('',(0.,-14.5,-91.4));
#1175=CARTESIAN_POINT('',(0.,20.0827591731736,-91.4));
#1176=CARTESIAN_POINT('',(3.8,20.0827591731736,-91.4));
#1177=CARTESIAN_POINT('',(0.,20.0827591731736,-91.4));
#1178=CARTESIAN_POINT('',(3.8,-14.5,-91.4));
#1179=CARTESIAN_POINT('',(3.8,20.0827591731736,-91.4));
#1180=CARTESIAN_POINT('',(0.,-14.5,-91.4));
#1181=CARTESIAN_POINT('Origin',(0.,-14.5,-39.7));
#1182=CARTESIAN_POINT('',(0.,-14.5,-39.7));
#1183=CARTESIAN_POINT('',(0.,-14.5,-91.4));
#1184=CARTESIAN_POINT('',(3.8,-14.5,-39.7));
#1185=CARTESIAN_POINT('',(3.8,-14.5,-91.4));
#1186=CARTESIAN_POINT('',(0.,-14.5,-39.7));
#1187=CARTESIAN_POINT('Origin',(0.,0.,-39.7));
#1188=CARTESIAN_POINT('',(0.,0.,-39.7));
#1189=CARTESIAN_POINT('',(0.,-14.5,-39.7));
#1190=CARTESIAN_POINT('',(3.8,0.,-39.7));
#1191=CARTESIAN_POINT('',(3.8,-14.5,-39.7));
#1192=CARTESIAN_POINT('',(0.,0.,-39.7));
#1193=CARTESIAN_POINT('Origin',(0.,0.,-48.1));
#1194=CARTESIAN_POINT('',(0.,0.,0.));
#1195=CARTESIAN_POINT('',(3.8,0.,-48.1));
#1196=CARTESIAN_POINT('',(3.8,0.,0.));
#1197=CARTESIAN_POINT('',(4.39563701092205,0.,-48.1));
#1198=CARTESIAN_POINT('Origin',(0.,24.2,-62.1));
#1199=CARTESIAN_POINT('',(0.000274021844095529,24.2,-62.1));
#1200=CARTESIAN_POINT('',(0.000274021844095529,24.2,-64.6));
#1201=CARTESIAN_POINT('',(0.,24.2,-62.1));
#1202=CARTESIAN_POINT('',(0.,24.2,-62.1));
#1203=CARTESIAN_POINT('',(0.,24.2,-55.8568186006768));
#1204=CARTESIAN_POINT('Origin',(0.,30.4,-62.1));
#1205=CARTESIAN_POINT('',(0.,30.4,-62.1));
#1206=CARTESIAN_POINT('',(0.,30.4,-62.1));
#1207=CARTESIAN_POINT('',(3.8,24.2,-62.1));
#1208=CARTESIAN_POINT('',(4.39563701092205,24.2,-62.1));
#1209=CARTESIAN_POINT('',(3.8,30.4,-62.1));
#1210=CARTESIAN_POINT('',(3.8,30.4,-62.1));
#1211=CARTESIAN_POINT('',(0.,30.4,-62.1));
#1212=CARTESIAN_POINT('Origin',(0.,30.4,-79.9278441552453));
#1213=CARTESIAN_POINT('',(0.,30.4,-79.9278441552453));
#1214=CARTESIAN_POINT('',(0.,30.4,-62.1));
#1215=CARTESIAN_POINT('',(3.8,30.4,-79.9278441552453));
#1216=CARTESIAN_POINT('',(3.8,30.4,-62.1));
#1217=CARTESIAN_POINT('',(0.,30.4,-79.9278441552453));
#1218=CARTESIAN_POINT('Origin',(0.,20.0827591731736,-91.4));
#1219=CARTESIAN_POINT('',(0.,30.4,-79.9278441552453));
#1220=CARTESIAN_POINT('',(3.8,30.4,-79.9278441552453));
#1221=CARTESIAN_POINT('Origin',(0.,7.94999999999999,-65.55));
#1222=CARTESIAN_POINT('Origin',(3.8,7.94999999999999,-65.55));
#1223=CARTESIAN_POINT('',(3.8,24.2,-77.2431813993232));
#1224=CARTESIAN_POINT('',(3.8,24.2,-60.7034093003384));
#1225=CARTESIAN_POINT('',(3.8,23.9948337819337,-77.7781325857602));
#1226=CARTESIAN_POINT('Origin',(3.8,23.4,-77.2431813993232));
#1227=CARTESIAN_POINT('',(3.8,17.7383660470969,-84.7349511864371));
#1228=CARTESIAN_POINT('',(3.8,23.4475550985023,-78.3866738083818));
#1229=CARTESIAN_POINT('',(3.8,17.1435322651631,-85.));
#1230=CARTESIAN_POINT('Origin',(3.8,17.1435322651632,-84.2));
#1231=CARTESIAN_POINT('',(3.8,-11.3,-85.));
#1232=CARTESIAN_POINT('',(3.8,12.5467661325816,-85.));
#1233=CARTESIAN_POINT('',(3.8,-11.3,-48.1));
#1234=CARTESIAN_POINT('',(3.8,-11.3,-75.275));
#1235=CARTESIAN_POINT('',(3.8,-1.67499999999999,-48.1));
#1236=CARTESIAN_POINT('Origin',(8.7912740218441,-11.3,-48.1));
#1237=CARTESIAN_POINT('',(8.7912740218441,-11.3,-48.1));
#1238=CARTESIAN_POINT('',(8.7912740218441,-11.3,-48.1));
#1239=CARTESIAN_POINT('',(8.7912740218441,17.1435322651632,-48.1));
#1240=CARTESIAN_POINT('',(8.7912740218441,-4.5,-48.1));
#1241=CARTESIAN_POINT('',(0.000274021844095529,17.1435322651632,-48.1));
#1242=CARTESIAN_POINT('',(8.7912740218441,17.1435322651632,-48.1));
#1243=CARTESIAN_POINT('',(0.000274021844095529,-4.5,-48.1));
#1244=CARTESIAN_POINT('Origin',(8.7912740218441,-11.3,-85.));
#1245=CARTESIAN_POINT('',(8.7912740218441,-11.3,-85.));
#1246=CARTESIAN_POINT('',(8.7912740218441,-11.3,-85.));
#1247=CARTESIAN_POINT('',(8.7912740218441,-11.3,-85.8));
#1248=CARTESIAN_POINT('Origin',(8.7912740218441,17.1435322651632,-85.));
#1249=CARTESIAN_POINT('',(8.7912740218441,17.1435322651632,-85.));
#1250=CARTESIAN_POINT('',(8.7912740218441,17.1435322651632,-85.));
#1251=CARTESIAN_POINT('',(8.7912740218441,17.1435322651632,-85.));
#1252=CARTESIAN_POINT('Origin',(8.7912740218441,17.1435322651632,-84.2));
#1253=CARTESIAN_POINT('',(8.7912740218441,17.7383660470969,-84.7349511864371));
#1254=CARTESIAN_POINT('',(0.000274021844095529,17.7383660470969,-84.7349511864371));
#1255=CARTESIAN_POINT('Origin',(8.7912740218441,17.1435322651632,-84.2));
#1256=CARTESIAN_POINT('Origin',(8.7912740218441,23.9948337819337,-77.7781325857603));
#1257=CARTESIAN_POINT('',(8.7912740218441,23.9948337819337,-77.7781325857603));
#1258=CARTESIAN_POINT('',(0.000274021844095529,23.9948337819337,-77.7781325857602));
#1259=CARTESIAN_POINT('',(8.7912740218441,23.9948337819337,-77.7781325857603));
#1260=CARTESIAN_POINT('Origin',(8.7912740218441,23.4,-77.2431813993232));
#1261=CARTESIAN_POINT('',(8.7912740218441,24.2,-77.2431813993232));
#1262=CARTESIAN_POINT('',(0.000274021844095529,24.2,-77.2431813993232));
#1263=CARTESIAN_POINT('Origin',(8.7912740218441,23.4,-77.2431813993232));
#1264=CARTESIAN_POINT('Origin',(8.7912740218441,6.45,-66.55));
#1265=CARTESIAN_POINT('',(8.7912740218441,24.2,-55.8568186006768));
#1266=CARTESIAN_POINT('',(8.7912740218441,24.2,-55.8568186006768));
#1267=CARTESIAN_POINT('',(8.7912740218441,23.9948337819337,-55.3218674142398));
#1268=CARTESIAN_POINT('Origin',(8.7912740218441,23.4,-55.8568186006768));
#1269=CARTESIAN_POINT('',(8.7912740218441,17.7383660470969,-48.365048813563));
#1270=CARTESIAN_POINT('',(8.7912740218441,17.7383660470969,-48.365048813563));
#1271=CARTESIAN_POINT('Origin',(8.7912740218441,17.1435322651632,-48.9));
#1272=CARTESIAN_POINT('',(8.7912740218441,12.7,-49.6));
#1273=CARTESIAN_POINT('Origin',(8.7912740218441,12.7,-51.6));
#1274=CARTESIAN_POINT('',(8.7912740218441,12.7,-79.8));
#1275=CARTESIAN_POINT('Origin',(8.7912740218441,12.7,-81.5));
#1276=CARTESIAN_POINT('Origin',(8.7912740218441,17.7383660470969,-48.365048813563));
#1277=CARTESIAN_POINT('',(0.000274021844095529,23.9948337819337,-55.3218674142398));
#1278=CARTESIAN_POINT('',(8.7912740218441,23.9948337819337,-55.3218674142398));
#1279=CARTESIAN_POINT('',(0.000274021844095529,17.7383660470969,-48.365048813563));
#1280=CARTESIAN_POINT('',(0.000274021844095529,17.7383660470969,-48.365048813563));
#1281=CARTESIAN_POINT('',(8.7912740218441,17.7383660470969,-48.365048813563));
#1282=CARTESIAN_POINT('Origin',(8.7912740218441,23.4,-55.8568186006768));
#1283=CARTESIAN_POINT('',(0.000274021844095529,24.2,-55.8568186006768));
#1284=CARTESIAN_POINT('',(8.7912740218441,24.2,-55.8568186006768));
#1285=CARTESIAN_POINT('Origin',(0.000274021844095529,23.4,-55.8568186006768));
#1286=CARTESIAN_POINT('Origin',(8.7912740218441,17.1435322651632,-48.9));
#1287=CARTESIAN_POINT('Origin',(0.000274021844095529,17.1435322651632,-48.9));
#1288=CARTESIAN_POINT('Origin',(8.7912740218441,12.7,-51.6));
#1289=CARTESIAN_POINT('',(8.7912740218441,12.7,-49.6));
#1290=CARTESIAN_POINT('Origin',(8.7912740218441,12.7,-81.5));
#1291=CARTESIAN_POINT('',(2.0002740218441,12.7,-79.8));
#1292=CARTESIAN_POINT('Origin',(2.0002740218441,12.7,-81.5));
#1293=CARTESIAN_POINT('',(8.7912740218441,12.7,-79.8));
#1294=CARTESIAN_POINT('Origin',(8.7912740218441,24.2,-55.8568186006768));
#1295=CARTESIAN_POINT('',(0.000274021844095529,24.2,-64.6));
#1296=CARTESIAN_POINT('Origin',(3.0002740218441,12.7,-51.6));
#1297=CARTESIAN_POINT('',(3.0002740218441,12.7,-54.35));
#1298=CARTESIAN_POINT('Origin',(3.0002740218441,12.7,-51.6));
#1299=CARTESIAN_POINT('Origin',(0.000274021844095529,12.7,-51.6));
#1300=CARTESIAN_POINT('',(0.000274021844095529,12.7,-54.35));
#1301=CARTESIAN_POINT('Origin',(0.000274021844095529,12.7,-51.6));
#1302=CARTESIAN_POINT('',(0.000274021844095529,12.7,-54.35));
#1303=CARTESIAN_POINT('Origin',(2.0002740218441,12.7,-81.5));
#1304=CARTESIAN_POINT('Origin',(0.000274021844095529,24.2,-67.1));
#1305=UNCERTAINTY_MEASURE_WITH_UNIT(LENGTH_MEASURE(0.01),#1309,
'DISTANCE_ACCURACY_VALUE',
'Maximum model space distance between geometric entities at asserted c
onnectivities');
#1306=UNCERTAINTY_MEASURE_WITH_UNIT(LENGTH_MEASURE(0.01),#1309,
'DISTANCE_ACCURACY_VALUE',
'Maximum model space distance between geometric entities at asserted c
onnectivities');
#1307=(
GEOMETRIC_REPRESENTATION_CONTEXT(3)
GLOBAL_UNCERTAINTY_ASSIGNED_CONTEXT((#1305))
GLOBAL_UNIT_ASSIGNED_CONTEXT((#1309,#1311,#1312))
REPRESENTATION_CONTEXT('','3D')
);
#1308=(
GEOMETRIC_REPRESENTATION_CONTEXT(3)
GLOBAL_UNCERTAINTY_ASSIGNED_CONTEXT((#1306))
GLOBAL_UNIT_ASSIGNED_CONTEXT((#1309,#1311,#1312))
REPRESENTATION_CONTEXT('','3D')
);
#1309=(
LENGTH_UNIT()
NAMED_UNIT(*)
SI_UNIT(.MILLI.,.METRE.)
);
#1310=(
LENGTH_UNIT()
NAMED_UNIT(*)
SI_UNIT($,.METRE.)
);
#1311=(
NAMED_UNIT(*)
PLANE_ANGLE_UNIT()
SI_UNIT($,.RADIAN.)
);
#1312=(
NAMED_UNIT(*)
SI_UNIT($,.STERADIAN.)
SOLID_ANGLE_UNIT()
);
#1313=SHAPE_DEFINITION_REPRESENTATION(#1314,#1315);
#1314=PRODUCT_DEFINITION_SHAPE('',$,#1317);
#1315=SHAPE_REPRESENTATION('',(#783),#1307);
#1316=PRODUCT_DEFINITION_CONTEXT('part definition',#1321,'design');
#1317=PRODUCT_DEFINITION('ESC Power Terminal Lock',
'ESC Power Terminal Lock',#1318,#1316);
#1318=PRODUCT_DEFINITION_FORMATION('',$,#1323);
#1319=PRODUCT_RELATED_PRODUCT_CATEGORY('ESC Power Terminal Lock',
'ESC Power Terminal Lock',(#1323));
#1320=APPLICATION_PROTOCOL_DEFINITION('international standard',
'automotive_design',2009,#1321);
#1321=APPLICATION_CONTEXT(
'Core Data for Automotive Mechanical Design Process');
#1322=PRODUCT_CONTEXT('part definition',#1321,'mechanical');
#1323=PRODUCT('ESC Power Terminal Lock','ESC Power Terminal Lock',$,(#1322));
#1324=PRESENTATION_STYLE_ASSIGNMENT((#1325));
#1325=SURFACE_STYLE_USAGE(.BOTH.,#1326);
#1326=SURFACE_SIDE_STYLE('',(#1327));
#1327=SURFACE_STYLE_FILL_AREA(#1328);
#1328=FILL_AREA_STYLE('Steel - Satin',(#1329));
#1329=FILL_AREA_STYLE_COLOUR('Steel - Satin',#1330);
#1330=COLOUR_RGB('Steel - Satin',0.627450980392157,0.627450980392157,0.627450980392157);
ENDSEC;
END-ISO-10303-21;
