ISO-10303-21;
HEADER;
/* Generated by software containing ST-Developer
 * from STEP Tools, Inc. (www.steptools.com) 
 */

FILE_DESCRIPTION(
/* description */ (''),
/* implementation_level */ '2;1');

FILE_NAME(
/* name */ 'Pendant Clamp Lid.step',
/* time_stamp */ '2025-05-01T11:07:54+01:00',
/* author */ (''),
/* organization */ (''),
/* preprocessor_version */ 'ST-DEVELOPER v20.1',
/* originating_system */ 'Autodesk Translation Framework v14.4.0.0',
/* authorisation */ '');

FILE_SCHEMA (('AUTOMOTIVE_DESIGN { 1 0 10303 214 3 1 1 }'));
ENDSEC;

DATA;
#10=MECHANICAL_DESIGN_GEOMETRIC_PRESENTATION_REPRESENTATION('',(#13),#1809);
#11=SHAPE_REPRESENTATION_RELATIONSHIP('SRR','None',#1816,#12);
#12=ADVANCED_BREP_SHAPE_REPRESENTATION('',(#14),#1808);
#13=STYLED_ITEM('',(#1825),#14);
#14=MANIFOLD_SOLID_BREP('Pendant Clamp Lid',#1035);
#15=CONICAL_SURFACE('',#1150,3.75,0.643501108793282);
#16=(
BOUNDED_CURVE()
B_SPLINE_CURVE(2,(#1645,#1646,#1647),.UNSPECIFIED.,.F.,.F.)
B_SPLINE_CURVE_WITH_KNOTS((3,3),(0.,0.250301929613186),.UNSPECIFIED.)
CURVE()
GEOMETRIC_REPRESENTATION_ITEM()
RATIONAL_B_SPLINE_CURVE((1.,1.02076350060315,1.))
REPRESENTATION_ITEM('')
);
#17=(
BOUNDED_CURVE()
B_SPLINE_CURVE(2,(#1732,#1733,#1734),.UNSPECIFIED.,.F.,.F.)
B_SPLINE_CURVE_WITH_KNOTS((3,3),(0.,0.250301929613186),.UNSPECIFIED.)
CURVE()
GEOMETRIC_REPRESENTATION_ITEM()
RATIONAL_B_SPLINE_CURVE((1.,1.02076350060315,1.))
REPRESENTATION_ITEM('')
);
#18=FACE_BOUND('',#292,.T.);
#19=FACE_BOUND('',#296,.T.);
#20=FACE_BOUND('',#300,.T.);
#21=FACE_BOUND('',#304,.T.);
#22=FACE_BOUND('',#308,.T.);
#23=FACE_BOUND('',#312,.T.);
#24=FACE_BOUND('',#327,.T.);
#25=FACE_BOUND('',#328,.T.);
#26=FACE_BOUND('',#329,.T.);
#27=FACE_BOUND('',#331,.T.);
#28=FACE_BOUND('',#332,.T.);
#29=FACE_BOUND('',#333,.T.);
#30=FACE_BOUND('',#362,.T.);
#31=FACE_BOUND('',#363,.T.);
#32=FACE_BOUND('',#364,.T.);
#33=FACE_BOUND('',#365,.T.);
#34=FACE_BOUND('',#366,.T.);
#35=FACE_BOUND('',#367,.T.);
#36=LINE('',#1528,#112);
#37=LINE('',#1538,#113);
#38=LINE('',#1548,#114);
#39=LINE('',#1558,#115);
#40=LINE('',#1568,#116);
#41=LINE('',#1578,#117);
#42=LINE('',#1587,#118);
#43=LINE('',#1591,#119);
#44=LINE('',#1595,#120);
#45=LINE('',#1599,#121);
#46=LINE('',#1603,#122);
#47=LINE('',#1607,#123);
#48=LINE('',#1610,#124);
#49=LINE('',#1614,#125);
#50=LINE('',#1618,#126);
#51=LINE('',#1622,#127);
#52=LINE('',#1626,#128);
#53=LINE('',#1630,#129);
#54=LINE('',#1635,#130);
#55=LINE('',#1637,#131);
#56=LINE('',#1639,#132);
#57=LINE('',#1641,#133);
#58=LINE('',#1643,#134);
#59=LINE('',#1649,#135);
#60=LINE('',#1651,#136);
#61=LINE('',#1653,#137);
#62=LINE('',#1655,#138);
#63=LINE('',#1657,#139);
#64=LINE('',#1659,#140);
#65=LINE('',#1661,#141);
#66=LINE('',#1663,#142);
#67=LINE('',#1665,#143);
#68=LINE('',#1667,#144);
#69=LINE('',#1669,#145);
#70=LINE('',#1671,#146);
#71=LINE('',#1673,#147);
#72=LINE('',#1675,#148);
#73=LINE('',#1677,#149);
#74=LINE('',#1679,#150);
#75=LINE('',#1681,#151);
#76=LINE('',#1683,#152);
#77=LINE('',#1685,#153);
#78=LINE('',#1686,#154);
#79=LINE('',#1690,#155);
#80=LINE('',#1692,#156);
#81=LINE('',#1694,#157);
#82=LINE('',#1696,#158);
#83=LINE('',#1698,#159);
#84=LINE('',#1700,#160);
#85=LINE('',#1702,#161);
#86=LINE('',#1704,#162);
#87=LINE('',#1706,#163);
#88=LINE('',#1708,#164);
#89=LINE('',#1710,#165);
#90=LINE('',#1712,#166);
#91=LINE('',#1714,#167);
#92=LINE('',#1716,#168);
#93=LINE('',#1718,#169);
#94=LINE('',#1720,#170);
#95=LINE('',#1722,#171);
#96=LINE('',#1724,#172);
#97=LINE('',#1726,#173);
#98=LINE('',#1728,#174);
#99=LINE('',#1730,#175);
#100=LINE('',#1736,#176);
#101=LINE('',#1738,#177);
#102=LINE('',#1740,#178);
#103=LINE('',#1741,#179);
#104=LINE('',#1744,#180);
#105=LINE('',#1746,#181);
#106=LINE('',#1747,#182);
#107=LINE('',#1771,#183);
#108=LINE('',#1772,#184);
#109=LINE('',#1776,#185);
#110=LINE('',#1777,#186);
#111=LINE('',#1804,#187);
#112=VECTOR('',#1205,1.99999999999999);
#113=VECTOR('',#1218,1.99999999999999);
#114=VECTOR('',#1231,1.99999999999999);
#115=VECTOR('',#1244,1.99999999999999);
#116=VECTOR('',#1257,1.99999999999999);
#117=VECTOR('',#1270,1.99999999999999);
#118=VECTOR('',#1283,1.14999999999998);
#119=VECTOR('',#1288,1.14999999999998);
#120=VECTOR('',#1293,1.14999999999998);
#121=VECTOR('',#1298,1.14999999999998);
#122=VECTOR('',#1303,1.14999999999998);
#123=VECTOR('',#1308,1.14999999999998);
#124=VECTOR('',#1311,1.14999999999998);
#125=VECTOR('',#1316,1.14999999999998);
#126=VECTOR('',#1321,1.14999999999998);
#127=VECTOR('',#1326,1.14999999999998);
#128=VECTOR('',#1331,1.14999999999998);
#129=VECTOR('',#1336,1.14999999999998);
#130=VECTOR('',#1341,10.);
#131=VECTOR('',#1342,10.);
#132=VECTOR('',#1343,10.);
#133=VECTOR('',#1344,10.);
#134=VECTOR('',#1345,10.);
#135=VECTOR('',#1346,10.);
#136=VECTOR('',#1347,10.);
#137=VECTOR('',#1348,10.);
#138=VECTOR('',#1349,10.);
#139=VECTOR('',#1350,10.);
#140=VECTOR('',#1351,10.);
#141=VECTOR('',#1352,10.);
#142=VECTOR('',#1353,10.);
#143=VECTOR('',#1354,10.);
#144=VECTOR('',#1355,10.);
#145=VECTOR('',#1356,10.);
#146=VECTOR('',#1357,10.);
#147=VECTOR('',#1358,10.);
#148=VECTOR('',#1359,10.);
#149=VECTOR('',#1360,10.);
#150=VECTOR('',#1361,10.);
#151=VECTOR('',#1362,10.);
#152=VECTOR('',#1363,10.);
#153=VECTOR('',#1364,10.);
#154=VECTOR('',#1365,10.);
#155=VECTOR('',#1368,10.);
#156=VECTOR('',#1369,10.);
#157=VECTOR('',#1370,10.);
#158=VECTOR('',#1371,10.);
#159=VECTOR('',#1372,10.);
#160=VECTOR('',#1373,10.);
#161=VECTOR('',#1374,10.);
#162=VECTOR('',#1375,10.);
#163=VECTOR('',#1376,10.);
#164=VECTOR('',#1377,10.);
#165=VECTOR('',#1378,10.);
#166=VECTOR('',#1379,10.);
#167=VECTOR('',#1380,10.);
#168=VECTOR('',#1381,10.);
#169=VECTOR('',#1382,10.);
#170=VECTOR('',#1383,10.);
#171=VECTOR('',#1384,10.);
#172=VECTOR('',#1385,10.);
#173=VECTOR('',#1386,10.);
#174=VECTOR('',#1387,10.);
#175=VECTOR('',#1388,10.);
#176=VECTOR('',#1389,10.);
#177=VECTOR('',#1390,10.);
#178=VECTOR('',#1391,10.);
#179=VECTOR('',#1392,10.);
#180=VECTOR('',#1395,10.);
#181=VECTOR('',#1396,10.);
#182=VECTOR('',#1397,10.);
#183=VECTOR('',#1442,10.);
#184=VECTOR('',#1443,10.);
#185=VECTOR('',#1448,10.);
#186=VECTOR('',#1449,10.);
#187=VECTOR('',#1502,10.);
#188=CYLINDRICAL_SURFACE('',#1061,1.99999999999999);
#189=CYLINDRICAL_SURFACE('',#1067,1.99999999999999);
#190=CYLINDRICAL_SURFACE('',#1073,1.99999999999999);
#191=CYLINDRICAL_SURFACE('',#1079,1.99999999999999);
#192=CYLINDRICAL_SURFACE('',#1085,1.99999999999999);
#193=CYLINDRICAL_SURFACE('',#1091,1.99999999999999);
#194=CYLINDRICAL_SURFACE('',#1097,1.14999999999998);
#195=CYLINDRICAL_SURFACE('',#1099,1.14999999999998);
#196=CYLINDRICAL_SURFACE('',#1101,1.14999999999998);
#197=CYLINDRICAL_SURFACE('',#1103,1.14999999999998);
#198=CYLINDRICAL_SURFACE('',#1105,1.14999999999998);
#199=CYLINDRICAL_SURFACE('',#1107,1.14999999999998);
#200=CYLINDRICAL_SURFACE('',#1109,1.14999999999998);
#201=CYLINDRICAL_SURFACE('',#1111,1.14999999999998);
#202=CYLINDRICAL_SURFACE('',#1113,1.14999999999998);
#203=CYLINDRICAL_SURFACE('',#1115,1.14999999999998);
#204=CYLINDRICAL_SURFACE('',#1117,1.14999999999998);
#205=CYLINDRICAL_SURFACE('',#1119,1.14999999999998);
#206=CYLINDRICAL_SURFACE('',#1124,2.99999999999994);
#207=CYLINDRICAL_SURFACE('',#1131,3.99999999999999);
#208=CYLINDRICAL_SURFACE('',#1135,2.99999999999994);
#209=CYLINDRICAL_SURFACE('',#1139,3.99999999999999);
#210=CYLINDRICAL_SURFACE('',#1143,2.99999999999986);
#211=CYLINDRICAL_SURFACE('',#1148,4.49999999999999);
#212=CYLINDRICAL_SURFACE('',#1152,3.00000000000001);
#213=CYLINDRICAL_SURFACE('',#1156,3.99999999999999);
#214=CYLINDRICAL_SURFACE('',#1160,2.99999999999994);
#215=CYLINDRICAL_SURFACE('',#1164,3.99999999999999);
#216=CYLINDRICAL_SURFACE('',#1168,2.99999999999994);
#217=CYLINDRICAL_SURFACE('',#1172,3.99999999999999);
#218=FACE_OUTER_BOUND('',#284,.T.);
#219=FACE_OUTER_BOUND('',#285,.T.);
#220=FACE_OUTER_BOUND('',#286,.T.);
#221=FACE_OUTER_BOUND('',#287,.T.);
#222=FACE_OUTER_BOUND('',#288,.T.);
#223=FACE_OUTER_BOUND('',#289,.T.);
#224=FACE_OUTER_BOUND('',#290,.T.);
#225=FACE_OUTER_BOUND('',#291,.T.);
#226=FACE_OUTER_BOUND('',#293,.T.);
#227=FACE_OUTER_BOUND('',#294,.T.);
#228=FACE_OUTER_BOUND('',#295,.T.);
#229=FACE_OUTER_BOUND('',#297,.T.);
#230=FACE_OUTER_BOUND('',#298,.T.);
#231=FACE_OUTER_BOUND('',#299,.T.);
#232=FACE_OUTER_BOUND('',#301,.T.);
#233=FACE_OUTER_BOUND('',#302,.T.);
#234=FACE_OUTER_BOUND('',#303,.T.);
#235=FACE_OUTER_BOUND('',#305,.T.);
#236=FACE_OUTER_BOUND('',#306,.T.);
#237=FACE_OUTER_BOUND('',#307,.T.);
#238=FACE_OUTER_BOUND('',#309,.T.);
#239=FACE_OUTER_BOUND('',#310,.T.);
#240=FACE_OUTER_BOUND('',#311,.T.);
#241=FACE_OUTER_BOUND('',#313,.T.);
#242=FACE_OUTER_BOUND('',#314,.T.);
#243=FACE_OUTER_BOUND('',#315,.T.);
#244=FACE_OUTER_BOUND('',#316,.T.);
#245=FACE_OUTER_BOUND('',#317,.T.);
#246=FACE_OUTER_BOUND('',#318,.T.);
#247=FACE_OUTER_BOUND('',#319,.T.);
#248=FACE_OUTER_BOUND('',#320,.T.);
#249=FACE_OUTER_BOUND('',#321,.T.);
#250=FACE_OUTER_BOUND('',#322,.T.);
#251=FACE_OUTER_BOUND('',#323,.T.);
#252=FACE_OUTER_BOUND('',#324,.T.);
#253=FACE_OUTER_BOUND('',#325,.T.);
#254=FACE_OUTER_BOUND('',#326,.T.);
#255=FACE_OUTER_BOUND('',#330,.T.);
#256=FACE_OUTER_BOUND('',#334,.T.);
#257=FACE_OUTER_BOUND('',#335,.T.);
#258=FACE_OUTER_BOUND('',#336,.T.);
#259=FACE_OUTER_BOUND('',#337,.T.);
#260=FACE_OUTER_BOUND('',#338,.T.);
#261=FACE_OUTER_BOUND('',#339,.T.);
#262=FACE_OUTER_BOUND('',#340,.T.);
#263=FACE_OUTER_BOUND('',#341,.T.);
#264=FACE_OUTER_BOUND('',#342,.T.);
#265=FACE_OUTER_BOUND('',#343,.T.);
#266=FACE_OUTER_BOUND('',#344,.T.);
#267=FACE_OUTER_BOUND('',#345,.T.);
#268=FACE_OUTER_BOUND('',#346,.T.);
#269=FACE_OUTER_BOUND('',#347,.T.);
#270=FACE_OUTER_BOUND('',#348,.T.);
#271=FACE_OUTER_BOUND('',#349,.T.);
#272=FACE_OUTER_BOUND('',#350,.T.);
#273=FACE_OUTER_BOUND('',#351,.T.);
#274=FACE_OUTER_BOUND('',#352,.T.);
#275=FACE_OUTER_BOUND('',#353,.T.);
#276=FACE_OUTER_BOUND('',#354,.T.);
#277=FACE_OUTER_BOUND('',#355,.T.);
#278=FACE_OUTER_BOUND('',#356,.T.);
#279=FACE_OUTER_BOUND('',#357,.T.);
#280=FACE_OUTER_BOUND('',#358,.T.);
#281=FACE_OUTER_BOUND('',#359,.T.);
#282=FACE_OUTER_BOUND('',#360,.T.);
#283=FACE_OUTER_BOUND('',#361,.T.);
#284=EDGE_LOOP('',(#658));
#285=EDGE_LOOP('',(#659));
#286=EDGE_LOOP('',(#660));
#287=EDGE_LOOP('',(#661));
#288=EDGE_LOOP('',(#662));
#289=EDGE_LOOP('',(#663));
#290=EDGE_LOOP('',(#664,#665,#666,#667));
#291=EDGE_LOOP('',(#668));
#292=EDGE_LOOP('',(#669));
#293=EDGE_LOOP('',(#670));
#294=EDGE_LOOP('',(#671,#672,#673,#674));
#295=EDGE_LOOP('',(#675));
#296=EDGE_LOOP('',(#676));
#297=EDGE_LOOP('',(#677));
#298=EDGE_LOOP('',(#678,#679,#680,#681));
#299=EDGE_LOOP('',(#682));
#300=EDGE_LOOP('',(#683));
#301=EDGE_LOOP('',(#684));
#302=EDGE_LOOP('',(#685,#686,#687,#688));
#303=EDGE_LOOP('',(#689));
#304=EDGE_LOOP('',(#690));
#305=EDGE_LOOP('',(#691));
#306=EDGE_LOOP('',(#692,#693,#694,#695));
#307=EDGE_LOOP('',(#696));
#308=EDGE_LOOP('',(#697));
#309=EDGE_LOOP('',(#698));
#310=EDGE_LOOP('',(#699,#700,#701,#702));
#311=EDGE_LOOP('',(#703));
#312=EDGE_LOOP('',(#704));
#313=EDGE_LOOP('',(#705));
#314=EDGE_LOOP('',(#706,#707,#708,#709));
#315=EDGE_LOOP('',(#710,#711,#712,#713));
#316=EDGE_LOOP('',(#714,#715,#716,#717));
#317=EDGE_LOOP('',(#718,#719,#720,#721));
#318=EDGE_LOOP('',(#722,#723,#724,#725));
#319=EDGE_LOOP('',(#726,#727,#728,#729));
#320=EDGE_LOOP('',(#730,#731,#732,#733));
#321=EDGE_LOOP('',(#734,#735,#736,#737));
#322=EDGE_LOOP('',(#738,#739,#740,#741));
#323=EDGE_LOOP('',(#742,#743,#744,#745));
#324=EDGE_LOOP('',(#746,#747,#748,#749));
#325=EDGE_LOOP('',(#750,#751,#752,#753));
#326=EDGE_LOOP('',(#754,#755,#756,#757,#758,#759,#760,#761,#762,#763,#764,
#765,#766,#767,#768,#769,#770,#771,#772,#773,#774,#775,#776,#777,#778,#779));
#327=EDGE_LOOP('',(#780));
#328=EDGE_LOOP('',(#781));
#329=EDGE_LOOP('',(#782));
#330=EDGE_LOOP('',(#783,#784,#785,#786,#787,#788,#789,#790,#791,#792,#793,
#794,#795,#796,#797,#798,#799,#800,#801,#802,#803,#804,#805,#806,#807,#808));
#331=EDGE_LOOP('',(#809));
#332=EDGE_LOOP('',(#810));
#333=EDGE_LOOP('',(#811));
#334=EDGE_LOOP('',(#812,#813,#814,#815));
#335=EDGE_LOOP('',(#816,#817,#818,#819));
#336=EDGE_LOOP('',(#820,#821,#822,#823));
#337=EDGE_LOOP('',(#824,#825,#826,#827));
#338=EDGE_LOOP('',(#828,#829,#830,#831));
#339=EDGE_LOOP('',(#832,#833,#834,#835));
#340=EDGE_LOOP('',(#836,#837,#838,#839));
#341=EDGE_LOOP('',(#840,#841,#842,#843));
#342=EDGE_LOOP('',(#844,#845,#846,#847));
#343=EDGE_LOOP('',(#848,#849,#850,#851));
#344=EDGE_LOOP('',(#852,#853,#854,#855));
#345=EDGE_LOOP('',(#856,#857,#858,#859,#860,#861));
#346=EDGE_LOOP('',(#862,#863,#864,#865,#866,#867));
#347=EDGE_LOOP('',(#868,#869,#870,#871));
#348=EDGE_LOOP('',(#872,#873,#874,#875));
#349=EDGE_LOOP('',(#876,#877,#878,#879));
#350=EDGE_LOOP('',(#880,#881,#882,#883));
#351=EDGE_LOOP('',(#884,#885,#886,#887));
#352=EDGE_LOOP('',(#888,#889,#890,#891));
#353=EDGE_LOOP('',(#892,#893,#894,#895));
#354=EDGE_LOOP('',(#896,#897,#898,#899));
#355=EDGE_LOOP('',(#900,#901,#902,#903));
#356=EDGE_LOOP('',(#904,#905,#906,#907));
#357=EDGE_LOOP('',(#908,#909,#910,#911));
#358=EDGE_LOOP('',(#912,#913,#914,#915));
#359=EDGE_LOOP('',(#916,#917,#918,#919));
#360=EDGE_LOOP('',(#920,#921,#922,#923));
#361=EDGE_LOOP('',(#924,#925,#926,#927));
#362=EDGE_LOOP('',(#928));
#363=EDGE_LOOP('',(#929));
#364=EDGE_LOOP('',(#930));
#365=EDGE_LOOP('',(#931));
#366=EDGE_LOOP('',(#932));
#367=EDGE_LOOP('',(#933));
#368=CIRCLE('',#1050,1.14999999999998);
#369=CIRCLE('',#1052,1.14999999999998);
#370=CIRCLE('',#1054,1.14999999999998);
#371=CIRCLE('',#1056,1.14999999999998);
#372=CIRCLE('',#1058,1.14999999999998);
#373=CIRCLE('',#1060,1.14999999999998);
#374=CIRCLE('',#1062,1.99999999999999);
#375=CIRCLE('',#1063,1.99999999999999);
#376=CIRCLE('',#1065,1.14999999999998);
#377=CIRCLE('',#1068,1.99999999999999);
#378=CIRCLE('',#1069,1.99999999999999);
#379=CIRCLE('',#1071,1.14999999999998);
#380=CIRCLE('',#1074,1.99999999999999);
#381=CIRCLE('',#1075,1.99999999999999);
#382=CIRCLE('',#1077,1.14999999999998);
#383=CIRCLE('',#1080,1.99999999999999);
#384=CIRCLE('',#1081,1.99999999999999);
#385=CIRCLE('',#1083,1.14999999999998);
#386=CIRCLE('',#1086,1.99999999999999);
#387=CIRCLE('',#1087,1.99999999999999);
#388=CIRCLE('',#1089,1.14999999999998);
#389=CIRCLE('',#1092,1.99999999999999);
#390=CIRCLE('',#1093,1.99999999999999);
#391=CIRCLE('',#1095,1.14999999999998);
#392=CIRCLE('',#1098,1.14999999999998);
#393=CIRCLE('',#1100,1.14999999999998);
#394=CIRCLE('',#1102,1.14999999999998);
#395=CIRCLE('',#1104,1.14999999999998);
#396=CIRCLE('',#1106,1.14999999999998);
#397=CIRCLE('',#1108,1.14999999999998);
#398=CIRCLE('',#1110,1.14999999999998);
#399=CIRCLE('',#1112,1.14999999999998);
#400=CIRCLE('',#1114,1.14999999999998);
#401=CIRCLE('',#1116,1.14999999999998);
#402=CIRCLE('',#1118,1.14999999999998);
#403=CIRCLE('',#1120,1.14999999999998);
#404=CIRCLE('',#1125,3.00000000000001);
#405=CIRCLE('',#1126,2.99999999999997);
#406=CIRCLE('',#1128,3.99999999999999);
#407=CIRCLE('',#1130,3.99999999999999);
#408=CIRCLE('',#1132,3.99999999999999);
#409=CIRCLE('',#1134,2.99999999999997);
#410=CIRCLE('',#1136,3.00000000000001);
#411=CIRCLE('',#1138,3.99999999999999);
#412=CIRCLE('',#1140,3.99999999999999);
#413=CIRCLE('',#1142,2.99999999999997);
#414=CIRCLE('',#1144,2.99999999999986);
#415=CIRCLE('',#1147,4.49999999999999);
#416=CIRCLE('',#1149,4.49999999999999);
#417=CIRCLE('',#1151,3.00000000000001);
#418=CIRCLE('',#1153,3.00000000000001);
#419=CIRCLE('',#1155,3.99999999999999);
#420=CIRCLE('',#1157,3.99999999999999);
#421=CIRCLE('',#1159,2.99999999999997);
#422=CIRCLE('',#1161,3.00000000000001);
#423=CIRCLE('',#1163,3.99999999999999);
#424=CIRCLE('',#1165,3.99999999999999);
#425=CIRCLE('',#1167,2.99999999999997);
#426=CIRCLE('',#1169,3.00000000000001);
#427=CIRCLE('',#1171,3.99999999999999);
#428=VERTEX_POINT('',#1507);
#429=VERTEX_POINT('',#1510);
#430=VERTEX_POINT('',#1513);
#431=VERTEX_POINT('',#1516);
#432=VERTEX_POINT('',#1519);
#433=VERTEX_POINT('',#1522);
#434=VERTEX_POINT('',#1525);
#435=VERTEX_POINT('',#1527);
#436=VERTEX_POINT('',#1531);
#437=VERTEX_POINT('',#1535);
#438=VERTEX_POINT('',#1537);
#439=VERTEX_POINT('',#1541);
#440=VERTEX_POINT('',#1545);
#441=VERTEX_POINT('',#1547);
#442=VERTEX_POINT('',#1551);
#443=VERTEX_POINT('',#1555);
#444=VERTEX_POINT('',#1557);
#445=VERTEX_POINT('',#1561);
#446=VERTEX_POINT('',#1565);
#447=VERTEX_POINT('',#1567);
#448=VERTEX_POINT('',#1571);
#449=VERTEX_POINT('',#1575);
#450=VERTEX_POINT('',#1577);
#451=VERTEX_POINT('',#1581);
#452=VERTEX_POINT('',#1585);
#453=VERTEX_POINT('',#1589);
#454=VERTEX_POINT('',#1593);
#455=VERTEX_POINT('',#1597);
#456=VERTEX_POINT('',#1601);
#457=VERTEX_POINT('',#1605);
#458=VERTEX_POINT('',#1609);
#459=VERTEX_POINT('',#1613);
#460=VERTEX_POINT('',#1617);
#461=VERTEX_POINT('',#1621);
#462=VERTEX_POINT('',#1625);
#463=VERTEX_POINT('',#1629);
#464=VERTEX_POINT('',#1633);
#465=VERTEX_POINT('',#1634);
#466=VERTEX_POINT('',#1636);
#467=VERTEX_POINT('',#1638);
#468=VERTEX_POINT('',#1640);
#469=VERTEX_POINT('',#1642);
#470=VERTEX_POINT('',#1644);
#471=VERTEX_POINT('',#1648);
#472=VERTEX_POINT('',#1650);
#473=VERTEX_POINT('',#1652);
#474=VERTEX_POINT('',#1654);
#475=VERTEX_POINT('',#1656);
#476=VERTEX_POINT('',#1658);
#477=VERTEX_POINT('',#1660);
#478=VERTEX_POINT('',#1662);
#479=VERTEX_POINT('',#1664);
#480=VERTEX_POINT('',#1666);
#481=VERTEX_POINT('',#1668);
#482=VERTEX_POINT('',#1670);
#483=VERTEX_POINT('',#1672);
#484=VERTEX_POINT('',#1674);
#485=VERTEX_POINT('',#1676);
#486=VERTEX_POINT('',#1678);
#487=VERTEX_POINT('',#1680);
#488=VERTEX_POINT('',#1682);
#489=VERTEX_POINT('',#1684);
#490=VERTEX_POINT('',#1688);
#491=VERTEX_POINT('',#1689);
#492=VERTEX_POINT('',#1691);
#493=VERTEX_POINT('',#1693);
#494=VERTEX_POINT('',#1695);
#495=VERTEX_POINT('',#1697);
#496=VERTEX_POINT('',#1699);
#497=VERTEX_POINT('',#1701);
#498=VERTEX_POINT('',#1703);
#499=VERTEX_POINT('',#1705);
#500=VERTEX_POINT('',#1707);
#501=VERTEX_POINT('',#1709);
#502=VERTEX_POINT('',#1711);
#503=VERTEX_POINT('',#1713);
#504=VERTEX_POINT('',#1715);
#505=VERTEX_POINT('',#1717);
#506=VERTEX_POINT('',#1719);
#507=VERTEX_POINT('',#1721);
#508=VERTEX_POINT('',#1723);
#509=VERTEX_POINT('',#1725);
#510=VERTEX_POINT('',#1727);
#511=VERTEX_POINT('',#1729);
#512=VERTEX_POINT('',#1731);
#513=VERTEX_POINT('',#1735);
#514=VERTEX_POINT('',#1737);
#515=VERTEX_POINT('',#1739);
#516=VERTEX_POINT('',#1743);
#517=VERTEX_POINT('',#1745);
#518=VERTEX_POINT('',#1770);
#519=VERTEX_POINT('',#1775);
#520=EDGE_CURVE('',#428,#428,#368,.T.);
#521=EDGE_CURVE('',#429,#429,#369,.T.);
#522=EDGE_CURVE('',#430,#430,#370,.T.);
#523=EDGE_CURVE('',#431,#431,#371,.T.);
#524=EDGE_CURVE('',#432,#432,#372,.T.);
#525=EDGE_CURVE('',#433,#433,#373,.T.);
#526=EDGE_CURVE('',#434,#434,#374,.T.);
#527=EDGE_CURVE('',#434,#435,#36,.T.);
#528=EDGE_CURVE('',#435,#435,#375,.T.);
#529=EDGE_CURVE('',#436,#436,#376,.T.);
#530=EDGE_CURVE('',#437,#437,#377,.T.);
#531=EDGE_CURVE('',#437,#438,#37,.T.);
#532=EDGE_CURVE('',#438,#438,#378,.T.);
#533=EDGE_CURVE('',#439,#439,#379,.T.);
#534=EDGE_CURVE('',#440,#440,#380,.T.);
#535=EDGE_CURVE('',#440,#441,#38,.T.);
#536=EDGE_CURVE('',#441,#441,#381,.T.);
#537=EDGE_CURVE('',#442,#442,#382,.T.);
#538=EDGE_CURVE('',#443,#443,#383,.T.);
#539=EDGE_CURVE('',#443,#444,#39,.T.);
#540=EDGE_CURVE('',#444,#444,#384,.T.);
#541=EDGE_CURVE('',#445,#445,#385,.T.);
#542=EDGE_CURVE('',#446,#446,#386,.T.);
#543=EDGE_CURVE('',#446,#447,#40,.T.);
#544=EDGE_CURVE('',#447,#447,#387,.T.);
#545=EDGE_CURVE('',#448,#448,#388,.T.);
#546=EDGE_CURVE('',#449,#449,#389,.T.);
#547=EDGE_CURVE('',#449,#450,#41,.T.);
#548=EDGE_CURVE('',#450,#450,#390,.T.);
#549=EDGE_CURVE('',#451,#451,#391,.T.);
#550=EDGE_CURVE('',#452,#452,#392,.T.);
#551=EDGE_CURVE('',#452,#430,#42,.T.);
#552=EDGE_CURVE('',#453,#453,#393,.T.);
#553=EDGE_CURVE('',#453,#429,#43,.T.);
#554=EDGE_CURVE('',#454,#454,#394,.T.);
#555=EDGE_CURVE('',#454,#428,#44,.T.);
#556=EDGE_CURVE('',#455,#455,#395,.T.);
#557=EDGE_CURVE('',#455,#433,#45,.T.);
#558=EDGE_CURVE('',#456,#456,#396,.T.);
#559=EDGE_CURVE('',#456,#432,#46,.T.);
#560=EDGE_CURVE('',#457,#457,#397,.T.);
#561=EDGE_CURVE('',#457,#431,#47,.T.);
#562=EDGE_CURVE('',#436,#458,#48,.T.);
#563=EDGE_CURVE('',#458,#458,#398,.T.);
#564=EDGE_CURVE('',#442,#459,#49,.T.);
#565=EDGE_CURVE('',#459,#459,#399,.T.);
#566=EDGE_CURVE('',#439,#460,#50,.T.);
#567=EDGE_CURVE('',#460,#460,#400,.T.);
#568=EDGE_CURVE('',#445,#461,#51,.T.);
#569=EDGE_CURVE('',#461,#461,#401,.T.);
#570=EDGE_CURVE('',#451,#462,#52,.T.);
#571=EDGE_CURVE('',#462,#462,#402,.T.);
#572=EDGE_CURVE('',#448,#463,#53,.T.);
#573=EDGE_CURVE('',#463,#463,#403,.T.);
#574=EDGE_CURVE('',#464,#465,#54,.T.);
#575=EDGE_CURVE('',#466,#464,#55,.T.);
#576=EDGE_CURVE('',#467,#466,#56,.T.);
#577=EDGE_CURVE('',#468,#467,#57,.T.);
#578=EDGE_CURVE('',#469,#468,#58,.T.);
#579=EDGE_CURVE('',#470,#469,#16,.T.);
#580=EDGE_CURVE('',#471,#470,#59,.T.);
#581=EDGE_CURVE('',#472,#471,#60,.T.);
#582=EDGE_CURVE('',#473,#472,#61,.T.);
#583=EDGE_CURVE('',#474,#473,#62,.T.);
#584=EDGE_CURVE('',#475,#474,#63,.T.);
#585=EDGE_CURVE('',#476,#475,#64,.T.);
#586=EDGE_CURVE('',#477,#476,#65,.T.);
#587=EDGE_CURVE('',#478,#477,#66,.T.);
#588=EDGE_CURVE('',#479,#478,#67,.T.);
#589=EDGE_CURVE('',#480,#479,#68,.T.);
#590=EDGE_CURVE('',#481,#480,#69,.T.);
#591=EDGE_CURVE('',#482,#481,#70,.T.);
#592=EDGE_CURVE('',#483,#482,#71,.T.);
#593=EDGE_CURVE('',#484,#483,#72,.T.);
#594=EDGE_CURVE('',#485,#484,#73,.T.);
#595=EDGE_CURVE('',#486,#485,#74,.T.);
#596=EDGE_CURVE('',#487,#486,#75,.T.);
#597=EDGE_CURVE('',#488,#487,#76,.T.);
#598=EDGE_CURVE('',#489,#488,#77,.T.);
#599=EDGE_CURVE('',#465,#489,#78,.T.);
#600=EDGE_CURVE('',#490,#491,#79,.T.);
#601=EDGE_CURVE('',#492,#490,#80,.T.);
#602=EDGE_CURVE('',#493,#492,#81,.T.);
#603=EDGE_CURVE('',#494,#493,#82,.T.);
#604=EDGE_CURVE('',#495,#494,#83,.T.);
#605=EDGE_CURVE('',#496,#495,#84,.T.);
#606=EDGE_CURVE('',#497,#496,#85,.T.);
#607=EDGE_CURVE('',#498,#497,#86,.T.);
#608=EDGE_CURVE('',#499,#498,#87,.T.);
#609=EDGE_CURVE('',#500,#499,#88,.T.);
#610=EDGE_CURVE('',#501,#500,#89,.T.);
#611=EDGE_CURVE('',#502,#501,#90,.T.);
#612=EDGE_CURVE('',#503,#502,#91,.T.);
#613=EDGE_CURVE('',#504,#503,#92,.T.);
#614=EDGE_CURVE('',#505,#504,#93,.T.);
#615=EDGE_CURVE('',#506,#505,#94,.T.);
#616=EDGE_CURVE('',#507,#506,#95,.T.);
#617=EDGE_CURVE('',#508,#507,#96,.T.);
#618=EDGE_CURVE('',#509,#508,#97,.T.);
#619=EDGE_CURVE('',#510,#509,#98,.T.);
#620=EDGE_CURVE('',#511,#510,#99,.T.);
#621=EDGE_CURVE('',#512,#511,#17,.T.);
#622=EDGE_CURVE('',#513,#512,#100,.T.);
#623=EDGE_CURVE('',#514,#513,#101,.T.);
#624=EDGE_CURVE('',#515,#514,#102,.T.);
#625=EDGE_CURVE('',#491,#515,#103,.T.);
#626=EDGE_CURVE('',#514,#516,#104,.T.);
#627=EDGE_CURVE('',#517,#516,#105,.T.);
#628=EDGE_CURVE('',#515,#517,#106,.T.);
#629=EDGE_CURVE('',#483,#498,#404,.T.);
#630=EDGE_CURVE('',#482,#499,#405,.T.);
#631=EDGE_CURVE('',#481,#500,#406,.T.);
#632=EDGE_CURVE('',#484,#497,#407,.T.);
#633=EDGE_CURVE('',#485,#496,#408,.T.);
#634=EDGE_CURVE('',#486,#495,#409,.T.);
#635=EDGE_CURVE('',#487,#494,#410,.T.);
#636=EDGE_CURVE('',#488,#493,#411,.T.);
#637=EDGE_CURVE('',#489,#492,#412,.T.);
#638=EDGE_CURVE('',#465,#490,#413,.T.);
#639=EDGE_CURVE('',#464,#491,#414,.T.);
#640=EDGE_CURVE('',#518,#517,#107,.T.);
#641=EDGE_CURVE('',#466,#518,#108,.T.);
#642=EDGE_CURVE('',#513,#468,#415,.T.);
#643=EDGE_CURVE('',#467,#519,#109,.T.);
#644=EDGE_CURVE('',#516,#519,#110,.T.);
#645=EDGE_CURVE('',#469,#512,#416,.T.);
#646=EDGE_CURVE('',#470,#511,#417,.T.);
#647=EDGE_CURVE('',#471,#510,#418,.T.);
#648=EDGE_CURVE('',#472,#509,#419,.T.);
#649=EDGE_CURVE('',#473,#508,#420,.T.);
#650=EDGE_CURVE('',#474,#507,#421,.T.);
#651=EDGE_CURVE('',#475,#506,#422,.T.);
#652=EDGE_CURVE('',#476,#505,#423,.T.);
#653=EDGE_CURVE('',#477,#504,#424,.T.);
#654=EDGE_CURVE('',#478,#503,#425,.T.);
#655=EDGE_CURVE('',#479,#502,#426,.T.);
#656=EDGE_CURVE('',#480,#501,#427,.T.);
#657=EDGE_CURVE('',#519,#518,#111,.T.);
#658=ORIENTED_EDGE('',*,*,#520,.F.);
#659=ORIENTED_EDGE('',*,*,#521,.F.);
#660=ORIENTED_EDGE('',*,*,#522,.F.);
#661=ORIENTED_EDGE('',*,*,#523,.F.);
#662=ORIENTED_EDGE('',*,*,#524,.F.);
#663=ORIENTED_EDGE('',*,*,#525,.F.);
#664=ORIENTED_EDGE('',*,*,#526,.T.);
#665=ORIENTED_EDGE('',*,*,#527,.T.);
#666=ORIENTED_EDGE('',*,*,#528,.T.);
#667=ORIENTED_EDGE('',*,*,#527,.F.);
#668=ORIENTED_EDGE('',*,*,#526,.F.);
#669=ORIENTED_EDGE('',*,*,#529,.F.);
#670=ORIENTED_EDGE('',*,*,#528,.F.);
#671=ORIENTED_EDGE('',*,*,#530,.T.);
#672=ORIENTED_EDGE('',*,*,#531,.T.);
#673=ORIENTED_EDGE('',*,*,#532,.T.);
#674=ORIENTED_EDGE('',*,*,#531,.F.);
#675=ORIENTED_EDGE('',*,*,#530,.F.);
#676=ORIENTED_EDGE('',*,*,#533,.F.);
#677=ORIENTED_EDGE('',*,*,#532,.F.);
#678=ORIENTED_EDGE('',*,*,#534,.T.);
#679=ORIENTED_EDGE('',*,*,#535,.T.);
#680=ORIENTED_EDGE('',*,*,#536,.T.);
#681=ORIENTED_EDGE('',*,*,#535,.F.);
#682=ORIENTED_EDGE('',*,*,#534,.F.);
#683=ORIENTED_EDGE('',*,*,#537,.F.);
#684=ORIENTED_EDGE('',*,*,#536,.F.);
#685=ORIENTED_EDGE('',*,*,#538,.T.);
#686=ORIENTED_EDGE('',*,*,#539,.T.);
#687=ORIENTED_EDGE('',*,*,#540,.T.);
#688=ORIENTED_EDGE('',*,*,#539,.F.);
#689=ORIENTED_EDGE('',*,*,#538,.F.);
#690=ORIENTED_EDGE('',*,*,#541,.F.);
#691=ORIENTED_EDGE('',*,*,#540,.F.);
#692=ORIENTED_EDGE('',*,*,#542,.T.);
#693=ORIENTED_EDGE('',*,*,#543,.T.);
#694=ORIENTED_EDGE('',*,*,#544,.T.);
#695=ORIENTED_EDGE('',*,*,#543,.F.);
#696=ORIENTED_EDGE('',*,*,#542,.F.);
#697=ORIENTED_EDGE('',*,*,#545,.F.);
#698=ORIENTED_EDGE('',*,*,#544,.F.);
#699=ORIENTED_EDGE('',*,*,#546,.T.);
#700=ORIENTED_EDGE('',*,*,#547,.T.);
#701=ORIENTED_EDGE('',*,*,#548,.T.);
#702=ORIENTED_EDGE('',*,*,#547,.F.);
#703=ORIENTED_EDGE('',*,*,#546,.F.);
#704=ORIENTED_EDGE('',*,*,#549,.F.);
#705=ORIENTED_EDGE('',*,*,#548,.F.);
#706=ORIENTED_EDGE('',*,*,#550,.F.);
#707=ORIENTED_EDGE('',*,*,#551,.T.);
#708=ORIENTED_EDGE('',*,*,#522,.T.);
#709=ORIENTED_EDGE('',*,*,#551,.F.);
#710=ORIENTED_EDGE('',*,*,#552,.F.);
#711=ORIENTED_EDGE('',*,*,#553,.T.);
#712=ORIENTED_EDGE('',*,*,#521,.T.);
#713=ORIENTED_EDGE('',*,*,#553,.F.);
#714=ORIENTED_EDGE('',*,*,#554,.F.);
#715=ORIENTED_EDGE('',*,*,#555,.T.);
#716=ORIENTED_EDGE('',*,*,#520,.T.);
#717=ORIENTED_EDGE('',*,*,#555,.F.);
#718=ORIENTED_EDGE('',*,*,#556,.F.);
#719=ORIENTED_EDGE('',*,*,#557,.T.);
#720=ORIENTED_EDGE('',*,*,#525,.T.);
#721=ORIENTED_EDGE('',*,*,#557,.F.);
#722=ORIENTED_EDGE('',*,*,#558,.F.);
#723=ORIENTED_EDGE('',*,*,#559,.T.);
#724=ORIENTED_EDGE('',*,*,#524,.T.);
#725=ORIENTED_EDGE('',*,*,#559,.F.);
#726=ORIENTED_EDGE('',*,*,#560,.F.);
#727=ORIENTED_EDGE('',*,*,#561,.T.);
#728=ORIENTED_EDGE('',*,*,#523,.T.);
#729=ORIENTED_EDGE('',*,*,#561,.F.);
#730=ORIENTED_EDGE('',*,*,#529,.T.);
#731=ORIENTED_EDGE('',*,*,#562,.T.);
#732=ORIENTED_EDGE('',*,*,#563,.F.);
#733=ORIENTED_EDGE('',*,*,#562,.F.);
#734=ORIENTED_EDGE('',*,*,#537,.T.);
#735=ORIENTED_EDGE('',*,*,#564,.T.);
#736=ORIENTED_EDGE('',*,*,#565,.F.);
#737=ORIENTED_EDGE('',*,*,#564,.F.);
#738=ORIENTED_EDGE('',*,*,#533,.T.);
#739=ORIENTED_EDGE('',*,*,#566,.T.);
#740=ORIENTED_EDGE('',*,*,#567,.F.);
#741=ORIENTED_EDGE('',*,*,#566,.F.);
#742=ORIENTED_EDGE('',*,*,#541,.T.);
#743=ORIENTED_EDGE('',*,*,#568,.T.);
#744=ORIENTED_EDGE('',*,*,#569,.F.);
#745=ORIENTED_EDGE('',*,*,#568,.F.);
#746=ORIENTED_EDGE('',*,*,#549,.T.);
#747=ORIENTED_EDGE('',*,*,#570,.T.);
#748=ORIENTED_EDGE('',*,*,#571,.F.);
#749=ORIENTED_EDGE('',*,*,#570,.F.);
#750=ORIENTED_EDGE('',*,*,#545,.T.);
#751=ORIENTED_EDGE('',*,*,#572,.T.);
#752=ORIENTED_EDGE('',*,*,#573,.F.);
#753=ORIENTED_EDGE('',*,*,#572,.F.);
#754=ORIENTED_EDGE('',*,*,#574,.F.);
#755=ORIENTED_EDGE('',*,*,#575,.F.);
#756=ORIENTED_EDGE('',*,*,#576,.F.);
#757=ORIENTED_EDGE('',*,*,#577,.F.);
#758=ORIENTED_EDGE('',*,*,#578,.F.);
#759=ORIENTED_EDGE('',*,*,#579,.F.);
#760=ORIENTED_EDGE('',*,*,#580,.F.);
#761=ORIENTED_EDGE('',*,*,#581,.F.);
#762=ORIENTED_EDGE('',*,*,#582,.F.);
#763=ORIENTED_EDGE('',*,*,#583,.F.);
#764=ORIENTED_EDGE('',*,*,#584,.F.);
#765=ORIENTED_EDGE('',*,*,#585,.F.);
#766=ORIENTED_EDGE('',*,*,#586,.F.);
#767=ORIENTED_EDGE('',*,*,#587,.F.);
#768=ORIENTED_EDGE('',*,*,#588,.F.);
#769=ORIENTED_EDGE('',*,*,#589,.F.);
#770=ORIENTED_EDGE('',*,*,#590,.F.);
#771=ORIENTED_EDGE('',*,*,#591,.F.);
#772=ORIENTED_EDGE('',*,*,#592,.F.);
#773=ORIENTED_EDGE('',*,*,#593,.F.);
#774=ORIENTED_EDGE('',*,*,#594,.F.);
#775=ORIENTED_EDGE('',*,*,#595,.F.);
#776=ORIENTED_EDGE('',*,*,#596,.F.);
#777=ORIENTED_EDGE('',*,*,#597,.F.);
#778=ORIENTED_EDGE('',*,*,#598,.F.);
#779=ORIENTED_EDGE('',*,*,#599,.F.);
#780=ORIENTED_EDGE('',*,*,#550,.T.);
#781=ORIENTED_EDGE('',*,*,#554,.T.);
#782=ORIENTED_EDGE('',*,*,#552,.T.);
#783=ORIENTED_EDGE('',*,*,#600,.F.);
#784=ORIENTED_EDGE('',*,*,#601,.F.);
#785=ORIENTED_EDGE('',*,*,#602,.F.);
#786=ORIENTED_EDGE('',*,*,#603,.F.);
#787=ORIENTED_EDGE('',*,*,#604,.F.);
#788=ORIENTED_EDGE('',*,*,#605,.F.);
#789=ORIENTED_EDGE('',*,*,#606,.F.);
#790=ORIENTED_EDGE('',*,*,#607,.F.);
#791=ORIENTED_EDGE('',*,*,#608,.F.);
#792=ORIENTED_EDGE('',*,*,#609,.F.);
#793=ORIENTED_EDGE('',*,*,#610,.F.);
#794=ORIENTED_EDGE('',*,*,#611,.F.);
#795=ORIENTED_EDGE('',*,*,#612,.F.);
#796=ORIENTED_EDGE('',*,*,#613,.F.);
#797=ORIENTED_EDGE('',*,*,#614,.F.);
#798=ORIENTED_EDGE('',*,*,#615,.F.);
#799=ORIENTED_EDGE('',*,*,#616,.F.);
#800=ORIENTED_EDGE('',*,*,#617,.F.);
#801=ORIENTED_EDGE('',*,*,#618,.F.);
#802=ORIENTED_EDGE('',*,*,#619,.F.);
#803=ORIENTED_EDGE('',*,*,#620,.F.);
#804=ORIENTED_EDGE('',*,*,#621,.F.);
#805=ORIENTED_EDGE('',*,*,#622,.F.);
#806=ORIENTED_EDGE('',*,*,#623,.F.);
#807=ORIENTED_EDGE('',*,*,#624,.F.);
#808=ORIENTED_EDGE('',*,*,#625,.F.);
#809=ORIENTED_EDGE('',*,*,#556,.T.);
#810=ORIENTED_EDGE('',*,*,#560,.T.);
#811=ORIENTED_EDGE('',*,*,#558,.T.);
#812=ORIENTED_EDGE('',*,*,#624,.T.);
#813=ORIENTED_EDGE('',*,*,#626,.T.);
#814=ORIENTED_EDGE('',*,*,#627,.F.);
#815=ORIENTED_EDGE('',*,*,#628,.F.);
#816=ORIENTED_EDGE('',*,*,#608,.T.);
#817=ORIENTED_EDGE('',*,*,#629,.F.);
#818=ORIENTED_EDGE('',*,*,#592,.T.);
#819=ORIENTED_EDGE('',*,*,#630,.T.);
#820=ORIENTED_EDGE('',*,*,#609,.T.);
#821=ORIENTED_EDGE('',*,*,#630,.F.);
#822=ORIENTED_EDGE('',*,*,#591,.T.);
#823=ORIENTED_EDGE('',*,*,#631,.T.);
#824=ORIENTED_EDGE('',*,*,#607,.T.);
#825=ORIENTED_EDGE('',*,*,#632,.F.);
#826=ORIENTED_EDGE('',*,*,#593,.T.);
#827=ORIENTED_EDGE('',*,*,#629,.T.);
#828=ORIENTED_EDGE('',*,*,#606,.T.);
#829=ORIENTED_EDGE('',*,*,#633,.F.);
#830=ORIENTED_EDGE('',*,*,#594,.T.);
#831=ORIENTED_EDGE('',*,*,#632,.T.);
#832=ORIENTED_EDGE('',*,*,#605,.T.);
#833=ORIENTED_EDGE('',*,*,#634,.F.);
#834=ORIENTED_EDGE('',*,*,#595,.T.);
#835=ORIENTED_EDGE('',*,*,#633,.T.);
#836=ORIENTED_EDGE('',*,*,#604,.T.);
#837=ORIENTED_EDGE('',*,*,#635,.F.);
#838=ORIENTED_EDGE('',*,*,#596,.T.);
#839=ORIENTED_EDGE('',*,*,#634,.T.);
#840=ORIENTED_EDGE('',*,*,#603,.T.);
#841=ORIENTED_EDGE('',*,*,#636,.F.);
#842=ORIENTED_EDGE('',*,*,#597,.T.);
#843=ORIENTED_EDGE('',*,*,#635,.T.);
#844=ORIENTED_EDGE('',*,*,#602,.T.);
#845=ORIENTED_EDGE('',*,*,#637,.F.);
#846=ORIENTED_EDGE('',*,*,#598,.T.);
#847=ORIENTED_EDGE('',*,*,#636,.T.);
#848=ORIENTED_EDGE('',*,*,#601,.T.);
#849=ORIENTED_EDGE('',*,*,#638,.F.);
#850=ORIENTED_EDGE('',*,*,#599,.T.);
#851=ORIENTED_EDGE('',*,*,#637,.T.);
#852=ORIENTED_EDGE('',*,*,#600,.T.);
#853=ORIENTED_EDGE('',*,*,#639,.F.);
#854=ORIENTED_EDGE('',*,*,#574,.T.);
#855=ORIENTED_EDGE('',*,*,#638,.T.);
#856=ORIENTED_EDGE('',*,*,#625,.T.);
#857=ORIENTED_EDGE('',*,*,#628,.T.);
#858=ORIENTED_EDGE('',*,*,#640,.F.);
#859=ORIENTED_EDGE('',*,*,#641,.F.);
#860=ORIENTED_EDGE('',*,*,#575,.T.);
#861=ORIENTED_EDGE('',*,*,#639,.T.);
#862=ORIENTED_EDGE('',*,*,#623,.T.);
#863=ORIENTED_EDGE('',*,*,#642,.T.);
#864=ORIENTED_EDGE('',*,*,#577,.T.);
#865=ORIENTED_EDGE('',*,*,#643,.T.);
#866=ORIENTED_EDGE('',*,*,#644,.F.);
#867=ORIENTED_EDGE('',*,*,#626,.F.);
#868=ORIENTED_EDGE('',*,*,#622,.T.);
#869=ORIENTED_EDGE('',*,*,#645,.F.);
#870=ORIENTED_EDGE('',*,*,#578,.T.);
#871=ORIENTED_EDGE('',*,*,#642,.F.);
#872=ORIENTED_EDGE('',*,*,#621,.T.);
#873=ORIENTED_EDGE('',*,*,#646,.F.);
#874=ORIENTED_EDGE('',*,*,#579,.T.);
#875=ORIENTED_EDGE('',*,*,#645,.T.);
#876=ORIENTED_EDGE('',*,*,#620,.T.);
#877=ORIENTED_EDGE('',*,*,#647,.F.);
#878=ORIENTED_EDGE('',*,*,#580,.T.);
#879=ORIENTED_EDGE('',*,*,#646,.T.);
#880=ORIENTED_EDGE('',*,*,#619,.T.);
#881=ORIENTED_EDGE('',*,*,#648,.F.);
#882=ORIENTED_EDGE('',*,*,#581,.T.);
#883=ORIENTED_EDGE('',*,*,#647,.T.);
#884=ORIENTED_EDGE('',*,*,#618,.T.);
#885=ORIENTED_EDGE('',*,*,#649,.F.);
#886=ORIENTED_EDGE('',*,*,#582,.T.);
#887=ORIENTED_EDGE('',*,*,#648,.T.);
#888=ORIENTED_EDGE('',*,*,#617,.T.);
#889=ORIENTED_EDGE('',*,*,#650,.F.);
#890=ORIENTED_EDGE('',*,*,#583,.T.);
#891=ORIENTED_EDGE('',*,*,#649,.T.);
#892=ORIENTED_EDGE('',*,*,#616,.T.);
#893=ORIENTED_EDGE('',*,*,#651,.F.);
#894=ORIENTED_EDGE('',*,*,#584,.T.);
#895=ORIENTED_EDGE('',*,*,#650,.T.);
#896=ORIENTED_EDGE('',*,*,#615,.T.);
#897=ORIENTED_EDGE('',*,*,#652,.F.);
#898=ORIENTED_EDGE('',*,*,#585,.T.);
#899=ORIENTED_EDGE('',*,*,#651,.T.);
#900=ORIENTED_EDGE('',*,*,#614,.T.);
#901=ORIENTED_EDGE('',*,*,#653,.F.);
#902=ORIENTED_EDGE('',*,*,#586,.T.);
#903=ORIENTED_EDGE('',*,*,#652,.T.);
#904=ORIENTED_EDGE('',*,*,#613,.T.);
#905=ORIENTED_EDGE('',*,*,#654,.F.);
#906=ORIENTED_EDGE('',*,*,#587,.T.);
#907=ORIENTED_EDGE('',*,*,#653,.T.);
#908=ORIENTED_EDGE('',*,*,#612,.T.);
#909=ORIENTED_EDGE('',*,*,#655,.F.);
#910=ORIENTED_EDGE('',*,*,#588,.T.);
#911=ORIENTED_EDGE('',*,*,#654,.T.);
#912=ORIENTED_EDGE('',*,*,#611,.T.);
#913=ORIENTED_EDGE('',*,*,#656,.F.);
#914=ORIENTED_EDGE('',*,*,#589,.T.);
#915=ORIENTED_EDGE('',*,*,#655,.T.);
#916=ORIENTED_EDGE('',*,*,#610,.T.);
#917=ORIENTED_EDGE('',*,*,#631,.F.);
#918=ORIENTED_EDGE('',*,*,#590,.T.);
#919=ORIENTED_EDGE('',*,*,#656,.T.);
#920=ORIENTED_EDGE('',*,*,#576,.T.);
#921=ORIENTED_EDGE('',*,*,#641,.T.);
#922=ORIENTED_EDGE('',*,*,#657,.F.);
#923=ORIENTED_EDGE('',*,*,#643,.F.);
#924=ORIENTED_EDGE('',*,*,#627,.T.);
#925=ORIENTED_EDGE('',*,*,#644,.T.);
#926=ORIENTED_EDGE('',*,*,#657,.T.);
#927=ORIENTED_EDGE('',*,*,#640,.T.);
#928=ORIENTED_EDGE('',*,*,#563,.T.);
#929=ORIENTED_EDGE('',*,*,#565,.T.);
#930=ORIENTED_EDGE('',*,*,#567,.T.);
#931=ORIENTED_EDGE('',*,*,#569,.T.);
#932=ORIENTED_EDGE('',*,*,#571,.T.);
#933=ORIENTED_EDGE('',*,*,#573,.T.);
#934=PLANE('',#1049);
#935=PLANE('',#1051);
#936=PLANE('',#1053);
#937=PLANE('',#1055);
#938=PLANE('',#1057);
#939=PLANE('',#1059);
#940=PLANE('',#1064);
#941=PLANE('',#1066);
#942=PLANE('',#1070);
#943=PLANE('',#1072);
#944=PLANE('',#1076);
#945=PLANE('',#1078);
#946=PLANE('',#1082);
#947=PLANE('',#1084);
#948=PLANE('',#1088);
#949=PLANE('',#1090);
#950=PLANE('',#1094);
#951=PLANE('',#1096);
#952=PLANE('',#1121);
#953=PLANE('',#1122);
#954=PLANE('',#1123);
#955=PLANE('',#1127);
#956=PLANE('',#1129);
#957=PLANE('',#1133);
#958=PLANE('',#1137);
#959=PLANE('',#1141);
#960=PLANE('',#1145);
#961=PLANE('',#1146);
#962=PLANE('',#1154);
#963=PLANE('',#1158);
#964=PLANE('',#1162);
#965=PLANE('',#1166);
#966=PLANE('',#1170);
#967=PLANE('',#1173);
#968=PLANE('',#1174);
#969=ADVANCED_FACE('',(#218),#934,.F.);
#970=ADVANCED_FACE('',(#219),#935,.F.);
#971=ADVANCED_FACE('',(#220),#936,.F.);
#972=ADVANCED_FACE('',(#221),#937,.F.);
#973=ADVANCED_FACE('',(#222),#938,.F.);
#974=ADVANCED_FACE('',(#223),#939,.F.);
#975=ADVANCED_FACE('',(#224),#188,.F.);
#976=ADVANCED_FACE('',(#225,#18),#940,.F.);
#977=ADVANCED_FACE('',(#226),#941,.T.);
#978=ADVANCED_FACE('',(#227),#189,.F.);
#979=ADVANCED_FACE('',(#228,#19),#942,.F.);
#980=ADVANCED_FACE('',(#229),#943,.T.);
#981=ADVANCED_FACE('',(#230),#190,.F.);
#982=ADVANCED_FACE('',(#231,#20),#944,.F.);
#983=ADVANCED_FACE('',(#232),#945,.T.);
#984=ADVANCED_FACE('',(#233),#191,.F.);
#985=ADVANCED_FACE('',(#234,#21),#946,.F.);
#986=ADVANCED_FACE('',(#235),#947,.T.);
#987=ADVANCED_FACE('',(#236),#192,.F.);
#988=ADVANCED_FACE('',(#237,#22),#948,.F.);
#989=ADVANCED_FACE('',(#238),#949,.T.);
#990=ADVANCED_FACE('',(#239),#193,.F.);
#991=ADVANCED_FACE('',(#240,#23),#950,.F.);
#992=ADVANCED_FACE('',(#241),#951,.T.);
#993=ADVANCED_FACE('',(#242),#194,.F.);
#994=ADVANCED_FACE('',(#243),#195,.F.);
#995=ADVANCED_FACE('',(#244),#196,.F.);
#996=ADVANCED_FACE('',(#245),#197,.F.);
#997=ADVANCED_FACE('',(#246),#198,.F.);
#998=ADVANCED_FACE('',(#247),#199,.F.);
#999=ADVANCED_FACE('',(#248),#200,.F.);
#1000=ADVANCED_FACE('',(#249),#201,.F.);
#1001=ADVANCED_FACE('',(#250),#202,.F.);
#1002=ADVANCED_FACE('',(#251),#203,.F.);
#1003=ADVANCED_FACE('',(#252),#204,.F.);
#1004=ADVANCED_FACE('',(#253),#205,.F.);
#1005=ADVANCED_FACE('',(#254,#24,#25,#26),#952,.F.);
#1006=ADVANCED_FACE('',(#255,#27,#28,#29),#953,.F.);
#1007=ADVANCED_FACE('',(#256),#954,.T.);
#1008=ADVANCED_FACE('',(#257),#206,.F.);
#1009=ADVANCED_FACE('',(#258),#955,.F.);
#1010=ADVANCED_FACE('',(#259),#956,.F.);
#1011=ADVANCED_FACE('',(#260),#207,.F.);
#1012=ADVANCED_FACE('',(#261),#957,.F.);
#1013=ADVANCED_FACE('',(#262),#208,.F.);
#1014=ADVANCED_FACE('',(#263),#958,.F.);
#1015=ADVANCED_FACE('',(#264),#209,.F.);
#1016=ADVANCED_FACE('',(#265),#959,.F.);
#1017=ADVANCED_FACE('',(#266),#210,.F.);
#1018=ADVANCED_FACE('',(#267),#960,.T.);
#1019=ADVANCED_FACE('',(#268),#961,.T.);
#1020=ADVANCED_FACE('',(#269),#211,.F.);
#1021=ADVANCED_FACE('',(#270),#15,.F.);
#1022=ADVANCED_FACE('',(#271),#212,.F.);
#1023=ADVANCED_FACE('',(#272),#962,.F.);
#1024=ADVANCED_FACE('',(#273),#213,.F.);
#1025=ADVANCED_FACE('',(#274),#963,.F.);
#1026=ADVANCED_FACE('',(#275),#214,.F.);
#1027=ADVANCED_FACE('',(#276),#964,.F.);
#1028=ADVANCED_FACE('',(#277),#215,.F.);
#1029=ADVANCED_FACE('',(#278),#965,.F.);
#1030=ADVANCED_FACE('',(#279),#216,.F.);
#1031=ADVANCED_FACE('',(#280),#966,.F.);
#1032=ADVANCED_FACE('',(#281),#217,.F.);
#1033=ADVANCED_FACE('',(#282),#967,.T.);
#1034=ADVANCED_FACE('',(#283,#30,#31,#32,#33,#34,#35),#968,.T.);
#1035=CLOSED_SHELL('',(#969,#970,#971,#972,#973,#974,#975,#976,#977,#978,
#979,#980,#981,#982,#983,#984,#985,#986,#987,#988,#989,#990,#991,#992,#993,
#994,#995,#996,#997,#998,#999,#1000,#1001,#1002,#1003,#1004,#1005,#1006,
#1007,#1008,#1009,#1010,#1011,#1012,#1013,#1014,#1015,#1016,#1017,#1018,
#1019,#1020,#1021,#1022,#1023,#1024,#1025,#1026,#1027,#1028,#1029,#1030,
#1031,#1032,#1033,#1034));
#1036=DERIVED_UNIT_ELEMENT(#1038,1.);
#1037=DERIVED_UNIT_ELEMENT(#1811,-3.);
#1038=(
MASS_UNIT()
NAMED_UNIT(*)
SI_UNIT(.KILO.,.GRAM.)
);
#1039=DERIVED_UNIT((#1036,#1037));
#1040=MEASURE_REPRESENTATION_ITEM('density measure',
POSITIVE_RATIO_MEASURE(7850.),#1039);
#1041=PROPERTY_DEFINITION_REPRESENTATION(#1046,#1043);
#1042=PROPERTY_DEFINITION_REPRESENTATION(#1047,#1044);
#1043=REPRESENTATION('material name',(#1045),#1808);
#1044=REPRESENTATION('density',(#1040),#1808);
#1045=DESCRIPTIVE_REPRESENTATION_ITEM('Steel','Steel');
#1046=PROPERTY_DEFINITION('material property','material name',#1818);
#1047=PROPERTY_DEFINITION('material property','density of part',#1818);
#1048=AXIS2_PLACEMENT_3D('',#1505,#1175,#1176);
#1049=AXIS2_PLACEMENT_3D('',#1506,#1177,#1178);
#1050=AXIS2_PLACEMENT_3D('',#1508,#1179,#1180);
#1051=AXIS2_PLACEMENT_3D('',#1509,#1181,#1182);
#1052=AXIS2_PLACEMENT_3D('',#1511,#1183,#1184);
#1053=AXIS2_PLACEMENT_3D('',#1512,#1185,#1186);
#1054=AXIS2_PLACEMENT_3D('',#1514,#1187,#1188);
#1055=AXIS2_PLACEMENT_3D('',#1515,#1189,#1190);
#1056=AXIS2_PLACEMENT_3D('',#1517,#1191,#1192);
#1057=AXIS2_PLACEMENT_3D('',#1518,#1193,#1194);
#1058=AXIS2_PLACEMENT_3D('',#1520,#1195,#1196);
#1059=AXIS2_PLACEMENT_3D('',#1521,#1197,#1198);
#1060=AXIS2_PLACEMENT_3D('',#1523,#1199,#1200);
#1061=AXIS2_PLACEMENT_3D('',#1524,#1201,#1202);
#1062=AXIS2_PLACEMENT_3D('',#1526,#1203,#1204);
#1063=AXIS2_PLACEMENT_3D('',#1529,#1206,#1207);
#1064=AXIS2_PLACEMENT_3D('',#1530,#1208,#1209);
#1065=AXIS2_PLACEMENT_3D('',#1532,#1210,#1211);
#1066=AXIS2_PLACEMENT_3D('',#1533,#1212,#1213);
#1067=AXIS2_PLACEMENT_3D('',#1534,#1214,#1215);
#1068=AXIS2_PLACEMENT_3D('',#1536,#1216,#1217);
#1069=AXIS2_PLACEMENT_3D('',#1539,#1219,#1220);
#1070=AXIS2_PLACEMENT_3D('',#1540,#1221,#1222);
#1071=AXIS2_PLACEMENT_3D('',#1542,#1223,#1224);
#1072=AXIS2_PLACEMENT_3D('',#1543,#1225,#1226);
#1073=AXIS2_PLACEMENT_3D('',#1544,#1227,#1228);
#1074=AXIS2_PLACEMENT_3D('',#1546,#1229,#1230);
#1075=AXIS2_PLACEMENT_3D('',#1549,#1232,#1233);
#1076=AXIS2_PLACEMENT_3D('',#1550,#1234,#1235);
#1077=AXIS2_PLACEMENT_3D('',#1552,#1236,#1237);
#1078=AXIS2_PLACEMENT_3D('',#1553,#1238,#1239);
#1079=AXIS2_PLACEMENT_3D('',#1554,#1240,#1241);
#1080=AXIS2_PLACEMENT_3D('',#1556,#1242,#1243);
#1081=AXIS2_PLACEMENT_3D('',#1559,#1245,#1246);
#1082=AXIS2_PLACEMENT_3D('',#1560,#1247,#1248);
#1083=AXIS2_PLACEMENT_3D('',#1562,#1249,#1250);
#1084=AXIS2_PLACEMENT_3D('',#1563,#1251,#1252);
#1085=AXIS2_PLACEMENT_3D('',#1564,#1253,#1254);
#1086=AXIS2_PLACEMENT_3D('',#1566,#1255,#1256);
#1087=AXIS2_PLACEMENT_3D('',#1569,#1258,#1259);
#1088=AXIS2_PLACEMENT_3D('',#1570,#1260,#1261);
#1089=AXIS2_PLACEMENT_3D('',#1572,#1262,#1263);
#1090=AXIS2_PLACEMENT_3D('',#1573,#1264,#1265);
#1091=AXIS2_PLACEMENT_3D('',#1574,#1266,#1267);
#1092=AXIS2_PLACEMENT_3D('',#1576,#1268,#1269);
#1093=AXIS2_PLACEMENT_3D('',#1579,#1271,#1272);
#1094=AXIS2_PLACEMENT_3D('',#1580,#1273,#1274);
#1095=AXIS2_PLACEMENT_3D('',#1582,#1275,#1276);
#1096=AXIS2_PLACEMENT_3D('',#1583,#1277,#1278);
#1097=AXIS2_PLACEMENT_3D('',#1584,#1279,#1280);
#1098=AXIS2_PLACEMENT_3D('',#1586,#1281,#1282);
#1099=AXIS2_PLACEMENT_3D('',#1588,#1284,#1285);
#1100=AXIS2_PLACEMENT_3D('',#1590,#1286,#1287);
#1101=AXIS2_PLACEMENT_3D('',#1592,#1289,#1290);
#1102=AXIS2_PLACEMENT_3D('',#1594,#1291,#1292);
#1103=AXIS2_PLACEMENT_3D('',#1596,#1294,#1295);
#1104=AXIS2_PLACEMENT_3D('',#1598,#1296,#1297);
#1105=AXIS2_PLACEMENT_3D('',#1600,#1299,#1300);
#1106=AXIS2_PLACEMENT_3D('',#1602,#1301,#1302);
#1107=AXIS2_PLACEMENT_3D('',#1604,#1304,#1305);
#1108=AXIS2_PLACEMENT_3D('',#1606,#1306,#1307);
#1109=AXIS2_PLACEMENT_3D('',#1608,#1309,#1310);
#1110=AXIS2_PLACEMENT_3D('',#1611,#1312,#1313);
#1111=AXIS2_PLACEMENT_3D('',#1612,#1314,#1315);
#1112=AXIS2_PLACEMENT_3D('',#1615,#1317,#1318);
#1113=AXIS2_PLACEMENT_3D('',#1616,#1319,#1320);
#1114=AXIS2_PLACEMENT_3D('',#1619,#1322,#1323);
#1115=AXIS2_PLACEMENT_3D('',#1620,#1324,#1325);
#1116=AXIS2_PLACEMENT_3D('',#1623,#1327,#1328);
#1117=AXIS2_PLACEMENT_3D('',#1624,#1329,#1330);
#1118=AXIS2_PLACEMENT_3D('',#1627,#1332,#1333);
#1119=AXIS2_PLACEMENT_3D('',#1628,#1334,#1335);
#1120=AXIS2_PLACEMENT_3D('',#1631,#1337,#1338);
#1121=AXIS2_PLACEMENT_3D('',#1632,#1339,#1340);
#1122=AXIS2_PLACEMENT_3D('',#1687,#1366,#1367);
#1123=AXIS2_PLACEMENT_3D('',#1742,#1393,#1394);
#1124=AXIS2_PLACEMENT_3D('',#1748,#1398,#1399);
#1125=AXIS2_PLACEMENT_3D('',#1749,#1400,#1401);
#1126=AXIS2_PLACEMENT_3D('',#1750,#1402,#1403);
#1127=AXIS2_PLACEMENT_3D('',#1751,#1404,#1405);
#1128=AXIS2_PLACEMENT_3D('',#1752,#1406,#1407);
#1129=AXIS2_PLACEMENT_3D('',#1753,#1408,#1409);
#1130=AXIS2_PLACEMENT_3D('',#1754,#1410,#1411);
#1131=AXIS2_PLACEMENT_3D('',#1755,#1412,#1413);
#1132=AXIS2_PLACEMENT_3D('',#1756,#1414,#1415);
#1133=AXIS2_PLACEMENT_3D('',#1757,#1416,#1417);
#1134=AXIS2_PLACEMENT_3D('',#1758,#1418,#1419);
#1135=AXIS2_PLACEMENT_3D('',#1759,#1420,#1421);
#1136=AXIS2_PLACEMENT_3D('',#1760,#1422,#1423);
#1137=AXIS2_PLACEMENT_3D('',#1761,#1424,#1425);
#1138=AXIS2_PLACEMENT_3D('',#1762,#1426,#1427);
#1139=AXIS2_PLACEMENT_3D('',#1763,#1428,#1429);
#1140=AXIS2_PLACEMENT_3D('',#1764,#1430,#1431);
#1141=AXIS2_PLACEMENT_3D('',#1765,#1432,#1433);
#1142=AXIS2_PLACEMENT_3D('',#1766,#1434,#1435);
#1143=AXIS2_PLACEMENT_3D('',#1767,#1436,#1437);
#1144=AXIS2_PLACEMENT_3D('',#1768,#1438,#1439);
#1145=AXIS2_PLACEMENT_3D('',#1769,#1440,#1441);
#1146=AXIS2_PLACEMENT_3D('',#1773,#1444,#1445);
#1147=AXIS2_PLACEMENT_3D('',#1774,#1446,#1447);
#1148=AXIS2_PLACEMENT_3D('',#1778,#1450,#1451);
#1149=AXIS2_PLACEMENT_3D('',#1779,#1452,#1453);
#1150=AXIS2_PLACEMENT_3D('',#1780,#1454,#1455);
#1151=AXIS2_PLACEMENT_3D('',#1781,#1456,#1457);
#1152=AXIS2_PLACEMENT_3D('',#1782,#1458,#1459);
#1153=AXIS2_PLACEMENT_3D('',#1783,#1460,#1461);
#1154=AXIS2_PLACEMENT_3D('',#1784,#1462,#1463);
#1155=AXIS2_PLACEMENT_3D('',#1785,#1464,#1465);
#1156=AXIS2_PLACEMENT_3D('',#1786,#1466,#1467);
#1157=AXIS2_PLACEMENT_3D('',#1787,#1468,#1469);
#1158=AXIS2_PLACEMENT_3D('',#1788,#1470,#1471);
#1159=AXIS2_PLACEMENT_3D('',#1789,#1472,#1473);
#1160=AXIS2_PLACEMENT_3D('',#1790,#1474,#1475);
#1161=AXIS2_PLACEMENT_3D('',#1791,#1476,#1477);
#1162=AXIS2_PLACEMENT_3D('',#1792,#1478,#1479);
#1163=AXIS2_PLACEMENT_3D('',#1793,#1480,#1481);
#1164=AXIS2_PLACEMENT_3D('',#1794,#1482,#1483);
#1165=AXIS2_PLACEMENT_3D('',#1795,#1484,#1485);
#1166=AXIS2_PLACEMENT_3D('',#1796,#1486,#1487);
#1167=AXIS2_PLACEMENT_3D('',#1797,#1488,#1489);
#1168=AXIS2_PLACEMENT_3D('',#1798,#1490,#1491);
#1169=AXIS2_PLACEMENT_3D('',#1799,#1492,#1493);
#1170=AXIS2_PLACEMENT_3D('',#1800,#1494,#1495);
#1171=AXIS2_PLACEMENT_3D('',#1801,#1496,#1497);
#1172=AXIS2_PLACEMENT_3D('',#1802,#1498,#1499);
#1173=AXIS2_PLACEMENT_3D('',#1803,#1500,#1501);
#1174=AXIS2_PLACEMENT_3D('',#1805,#1503,#1504);
#1175=DIRECTION('axis',(0.,0.,1.));
#1176=DIRECTION('refdir',(1.,0.,0.));
#1177=DIRECTION('center_axis',(0.,1.,0.));
#1178=DIRECTION('ref_axis',(-1.,0.,0.));
#1179=DIRECTION('center_axis',(0.,1.,0.));
#1180=DIRECTION('ref_axis',(-1.,0.,0.));
#1181=DIRECTION('center_axis',(0.,1.,0.));
#1182=DIRECTION('ref_axis',(-1.,0.,0.));
#1183=DIRECTION('center_axis',(0.,1.,0.));
#1184=DIRECTION('ref_axis',(-1.,0.,0.));
#1185=DIRECTION('center_axis',(0.,1.,0.));
#1186=DIRECTION('ref_axis',(-1.,0.,0.));
#1187=DIRECTION('center_axis',(0.,1.,0.));
#1188=DIRECTION('ref_axis',(-1.,0.,0.));
#1189=DIRECTION('center_axis',(0.,1.,0.));
#1190=DIRECTION('ref_axis',(-1.,0.,0.));
#1191=DIRECTION('center_axis',(0.,1.,0.));
#1192=DIRECTION('ref_axis',(-1.,0.,0.));
#1193=DIRECTION('center_axis',(0.,1.,0.));
#1194=DIRECTION('ref_axis',(-1.,0.,0.));
#1195=DIRECTION('center_axis',(0.,1.,0.));
#1196=DIRECTION('ref_axis',(-1.,0.,0.));
#1197=DIRECTION('center_axis',(0.,1.,0.));
#1198=DIRECTION('ref_axis',(-1.,0.,0.));
#1199=DIRECTION('center_axis',(0.,1.,0.));
#1200=DIRECTION('ref_axis',(-1.,0.,0.));
#1201=DIRECTION('center_axis',(0.,-1.,0.));
#1202=DIRECTION('ref_axis',(-1.,0.,0.));
#1203=DIRECTION('center_axis',(0.,1.,0.));
#1204=DIRECTION('ref_axis',(-1.,0.,0.));
#1205=DIRECTION('',(0.,-1.,0.));
#1206=DIRECTION('center_axis',(0.,-1.,0.));
#1207=DIRECTION('ref_axis',(-1.,0.,0.));
#1208=DIRECTION('center_axis',(0.,1.,0.));
#1209=DIRECTION('ref_axis',(-1.,0.,0.));
#1210=DIRECTION('center_axis',(0.,-1.,0.));
#1211=DIRECTION('ref_axis',(-1.,0.,0.));
#1212=DIRECTION('center_axis',(0.,1.,0.));
#1213=DIRECTION('ref_axis',(-1.,0.,0.));
#1214=DIRECTION('center_axis',(0.,-1.,0.));
#1215=DIRECTION('ref_axis',(-1.,0.,0.));
#1216=DIRECTION('center_axis',(0.,1.,0.));
#1217=DIRECTION('ref_axis',(-1.,0.,0.));
#1218=DIRECTION('',(0.,-1.,0.));
#1219=DIRECTION('center_axis',(0.,-1.,0.));
#1220=DIRECTION('ref_axis',(-1.,0.,0.));
#1221=DIRECTION('center_axis',(0.,1.,0.));
#1222=DIRECTION('ref_axis',(-1.,0.,0.));
#1223=DIRECTION('center_axis',(0.,-1.,0.));
#1224=DIRECTION('ref_axis',(-1.,0.,0.));
#1225=DIRECTION('center_axis',(0.,1.,0.));
#1226=DIRECTION('ref_axis',(-1.,0.,0.));
#1227=DIRECTION('center_axis',(0.,-1.,0.));
#1228=DIRECTION('ref_axis',(-1.,0.,0.));
#1229=DIRECTION('center_axis',(0.,1.,0.));
#1230=DIRECTION('ref_axis',(-1.,0.,0.));
#1231=DIRECTION('',(0.,-1.,0.));
#1232=DIRECTION('center_axis',(0.,-1.,0.));
#1233=DIRECTION('ref_axis',(-1.,0.,0.));
#1234=DIRECTION('center_axis',(0.,1.,0.));
#1235=DIRECTION('ref_axis',(-1.,0.,0.));
#1236=DIRECTION('center_axis',(0.,-1.,0.));
#1237=DIRECTION('ref_axis',(-1.,0.,0.));
#1238=DIRECTION('center_axis',(0.,1.,0.));
#1239=DIRECTION('ref_axis',(-1.,0.,0.));
#1240=DIRECTION('center_axis',(0.,-1.,0.));
#1241=DIRECTION('ref_axis',(-1.,0.,0.));
#1242=DIRECTION('center_axis',(0.,1.,0.));
#1243=DIRECTION('ref_axis',(-1.,0.,0.));
#1244=DIRECTION('',(0.,-1.,0.));
#1245=DIRECTION('center_axis',(0.,-1.,0.));
#1246=DIRECTION('ref_axis',(-1.,0.,0.));
#1247=DIRECTION('center_axis',(0.,1.,0.));
#1248=DIRECTION('ref_axis',(-1.,0.,0.));
#1249=DIRECTION('center_axis',(0.,-1.,0.));
#1250=DIRECTION('ref_axis',(-1.,0.,0.));
#1251=DIRECTION('center_axis',(0.,1.,0.));
#1252=DIRECTION('ref_axis',(-1.,0.,0.));
#1253=DIRECTION('center_axis',(0.,-1.,0.));
#1254=DIRECTION('ref_axis',(-1.,0.,0.));
#1255=DIRECTION('center_axis',(0.,1.,0.));
#1256=DIRECTION('ref_axis',(-1.,0.,0.));
#1257=DIRECTION('',(0.,-1.,0.));
#1258=DIRECTION('center_axis',(0.,-1.,0.));
#1259=DIRECTION('ref_axis',(-1.,0.,0.));
#1260=DIRECTION('center_axis',(0.,1.,0.));
#1261=DIRECTION('ref_axis',(-1.,0.,0.));
#1262=DIRECTION('center_axis',(0.,-1.,0.));
#1263=DIRECTION('ref_axis',(-1.,0.,0.));
#1264=DIRECTION('center_axis',(0.,1.,0.));
#1265=DIRECTION('ref_axis',(-1.,0.,0.));
#1266=DIRECTION('center_axis',(0.,-1.,0.));
#1267=DIRECTION('ref_axis',(-1.,0.,0.));
#1268=DIRECTION('center_axis',(0.,1.,0.));
#1269=DIRECTION('ref_axis',(-1.,0.,0.));
#1270=DIRECTION('',(0.,-1.,0.));
#1271=DIRECTION('center_axis',(0.,-1.,0.));
#1272=DIRECTION('ref_axis',(-1.,0.,0.));
#1273=DIRECTION('center_axis',(0.,1.,0.));
#1274=DIRECTION('ref_axis',(-1.,0.,0.));
#1275=DIRECTION('center_axis',(0.,-1.,0.));
#1276=DIRECTION('ref_axis',(-1.,0.,0.));
#1277=DIRECTION('center_axis',(0.,1.,0.));
#1278=DIRECTION('ref_axis',(-1.,0.,0.));
#1279=DIRECTION('center_axis',(0.,1.,0.));
#1280=DIRECTION('ref_axis',(-1.,0.,0.));
#1281=DIRECTION('center_axis',(0.,1.,0.));
#1282=DIRECTION('ref_axis',(-1.,0.,0.));
#1283=DIRECTION('',(0.,1.,0.));
#1284=DIRECTION('center_axis',(0.,1.,0.));
#1285=DIRECTION('ref_axis',(-1.,0.,0.));
#1286=DIRECTION('center_axis',(0.,1.,0.));
#1287=DIRECTION('ref_axis',(-1.,0.,0.));
#1288=DIRECTION('',(0.,1.,0.));
#1289=DIRECTION('center_axis',(0.,1.,0.));
#1290=DIRECTION('ref_axis',(-1.,0.,0.));
#1291=DIRECTION('center_axis',(0.,1.,0.));
#1292=DIRECTION('ref_axis',(-1.,0.,0.));
#1293=DIRECTION('',(0.,1.,0.));
#1294=DIRECTION('center_axis',(0.,1.,0.));
#1295=DIRECTION('ref_axis',(-1.,0.,0.));
#1296=DIRECTION('center_axis',(0.,1.,0.));
#1297=DIRECTION('ref_axis',(-1.,0.,0.));
#1298=DIRECTION('',(0.,1.,0.));
#1299=DIRECTION('center_axis',(0.,1.,0.));
#1300=DIRECTION('ref_axis',(-1.,0.,0.));
#1301=DIRECTION('center_axis',(0.,1.,0.));
#1302=DIRECTION('ref_axis',(-1.,0.,0.));
#1303=DIRECTION('',(0.,1.,0.));
#1304=DIRECTION('center_axis',(0.,1.,0.));
#1305=DIRECTION('ref_axis',(-1.,0.,0.));
#1306=DIRECTION('center_axis',(0.,1.,0.));
#1307=DIRECTION('ref_axis',(-1.,0.,0.));
#1308=DIRECTION('',(0.,1.,0.));
#1309=DIRECTION('center_axis',(0.,1.,0.));
#1310=DIRECTION('ref_axis',(-1.,0.,0.));
#1311=DIRECTION('',(0.,1.,0.));
#1312=DIRECTION('center_axis',(0.,-1.,0.));
#1313=DIRECTION('ref_axis',(-1.,0.,0.));
#1314=DIRECTION('center_axis',(0.,1.,0.));
#1315=DIRECTION('ref_axis',(-1.,0.,0.));
#1316=DIRECTION('',(0.,1.,0.));
#1317=DIRECTION('center_axis',(0.,-1.,0.));
#1318=DIRECTION('ref_axis',(-1.,0.,0.));
#1319=DIRECTION('center_axis',(0.,1.,0.));
#1320=DIRECTION('ref_axis',(-1.,0.,0.));
#1321=DIRECTION('',(0.,1.,0.));
#1322=DIRECTION('center_axis',(0.,-1.,0.));
#1323=DIRECTION('ref_axis',(-1.,0.,0.));
#1324=DIRECTION('center_axis',(0.,1.,0.));
#1325=DIRECTION('ref_axis',(-1.,0.,0.));
#1326=DIRECTION('',(0.,1.,0.));
#1327=DIRECTION('center_axis',(0.,-1.,0.));
#1328=DIRECTION('ref_axis',(-1.,0.,0.));
#1329=DIRECTION('center_axis',(0.,1.,0.));
#1330=DIRECTION('ref_axis',(-1.,0.,0.));
#1331=DIRECTION('',(0.,1.,0.));
#1332=DIRECTION('center_axis',(0.,-1.,0.));
#1333=DIRECTION('ref_axis',(-1.,0.,0.));
#1334=DIRECTION('center_axis',(0.,1.,0.));
#1335=DIRECTION('ref_axis',(-1.,0.,0.));
#1336=DIRECTION('',(0.,1.,0.));
#1337=DIRECTION('center_axis',(0.,-1.,0.));
#1338=DIRECTION('ref_axis',(-1.,0.,0.));
#1339=DIRECTION('center_axis',(0.,1.,0.));
#1340=DIRECTION('ref_axis',(0.,0.,1.));
#1341=DIRECTION('',(0.,0.,-1.));
#1342=DIRECTION('',(1.,0.,0.));
#1343=DIRECTION('',(0.,0.,1.));
#1344=DIRECTION('',(-1.,0.,0.));
#1345=DIRECTION('',(0.,0.,-1.));
#1346=DIRECTION('',(0.,0.,-1.));
#1347=DIRECTION('',(1.,0.,0.));
#1348=DIRECTION('',(0.,0.,-1.));
#1349=DIRECTION('',(-1.,0.,0.));
#1350=DIRECTION('',(0.,0.,-1.));
#1351=DIRECTION('',(1.,0.,0.));
#1352=DIRECTION('',(0.,0.,-1.));
#1353=DIRECTION('',(-1.,0.,0.));
#1354=DIRECTION('',(0.,0.,-1.));
#1355=DIRECTION('',(1.,0.,0.));
#1356=DIRECTION('',(0.,0.,-1.));
#1357=DIRECTION('',(-1.,0.,0.));
#1358=DIRECTION('',(0.,0.,-1.));
#1359=DIRECTION('',(1.,0.,0.));
#1360=DIRECTION('',(0.,0.,-1.));
#1361=DIRECTION('',(-1.,0.,0.));
#1362=DIRECTION('',(0.,0.,-1.));
#1363=DIRECTION('',(1.,0.,0.));
#1364=DIRECTION('',(0.,0.,-1.));
#1365=DIRECTION('',(-1.,0.,0.));
#1366=DIRECTION('center_axis',(0.,1.,0.));
#1367=DIRECTION('ref_axis',(0.,0.,1.));
#1368=DIRECTION('',(0.,0.,1.));
#1369=DIRECTION('',(-1.,0.,0.));
#1370=DIRECTION('',(0.,0.,1.));
#1371=DIRECTION('',(1.,0.,0.));
#1372=DIRECTION('',(0.,0.,1.));
#1373=DIRECTION('',(-1.,0.,0.));
#1374=DIRECTION('',(0.,0.,1.));
#1375=DIRECTION('',(1.,0.,0.));
#1376=DIRECTION('',(0.,0.,1.));
#1377=DIRECTION('',(-1.,0.,0.));
#1378=DIRECTION('',(0.,0.,1.));
#1379=DIRECTION('',(1.,0.,0.));
#1380=DIRECTION('',(0.,0.,1.));
#1381=DIRECTION('',(-1.,0.,0.));
#1382=DIRECTION('',(0.,0.,1.));
#1383=DIRECTION('',(1.,0.,0.));
#1384=DIRECTION('',(0.,0.,1.));
#1385=DIRECTION('',(-1.,0.,0.));
#1386=DIRECTION('',(0.,0.,1.));
#1387=DIRECTION('',(1.,0.,0.));
#1388=DIRECTION('',(0.,0.,1.));
#1389=DIRECTION('',(0.,0.,1.));
#1390=DIRECTION('',(-1.,0.,0.));
#1391=DIRECTION('',(0.,0.,-1.));
#1392=DIRECTION('',(1.,0.,0.));
#1393=DIRECTION('center_axis',(1.,0.,0.));
#1394=DIRECTION('ref_axis',(0.,0.,-1.));
#1395=DIRECTION('',(0.,1.,0.));
#1396=DIRECTION('',(0.,0.,-1.));
#1397=DIRECTION('',(0.,1.,0.));
#1398=DIRECTION('center_axis',(0.,0.,-1.));
#1399=DIRECTION('ref_axis',(-1.,0.,0.));
#1400=DIRECTION('center_axis',(0.,0.,-1.));
#1401=DIRECTION('ref_axis',(1.,0.,0.));
#1402=DIRECTION('center_axis',(0.,0.,-1.));
#1403=DIRECTION('ref_axis',(1.,0.,0.));
#1404=DIRECTION('center_axis',(0.,0.,1.));
#1405=DIRECTION('ref_axis',(1.,0.,0.));
#1406=DIRECTION('center_axis',(0.,0.,-1.));
#1407=DIRECTION('ref_axis',(1.,0.,0.));
#1408=DIRECTION('center_axis',(0.,0.,-1.));
#1409=DIRECTION('ref_axis',(-1.,0.,0.));
#1410=DIRECTION('center_axis',(0.,0.,-1.));
#1411=DIRECTION('ref_axis',(1.,0.,0.));
#1412=DIRECTION('center_axis',(0.,0.,-1.));
#1413=DIRECTION('ref_axis',(-1.,0.,0.));
#1414=DIRECTION('center_axis',(0.,0.,-1.));
#1415=DIRECTION('ref_axis',(1.,0.,0.));
#1416=DIRECTION('center_axis',(0.,0.,1.));
#1417=DIRECTION('ref_axis',(1.,0.,0.));
#1418=DIRECTION('center_axis',(0.,0.,-1.));
#1419=DIRECTION('ref_axis',(1.,0.,0.));
#1420=DIRECTION('center_axis',(0.,0.,-1.));
#1421=DIRECTION('ref_axis',(-1.,0.,0.));
#1422=DIRECTION('center_axis',(0.,0.,-1.));
#1423=DIRECTION('ref_axis',(1.,0.,0.));
#1424=DIRECTION('center_axis',(0.,0.,-1.));
#1425=DIRECTION('ref_axis',(-1.,0.,0.));
#1426=DIRECTION('center_axis',(0.,0.,-1.));
#1427=DIRECTION('ref_axis',(1.,0.,0.));
#1428=DIRECTION('center_axis',(0.,0.,-1.));
#1429=DIRECTION('ref_axis',(-1.,0.,0.));
#1430=DIRECTION('center_axis',(0.,0.,-1.));
#1431=DIRECTION('ref_axis',(1.,0.,0.));
#1432=DIRECTION('center_axis',(0.,0.,1.));
#1433=DIRECTION('ref_axis',(1.,0.,0.));
#1434=DIRECTION('center_axis',(0.,0.,-1.));
#1435=DIRECTION('ref_axis',(1.,0.,0.));
#1436=DIRECTION('center_axis',(0.,0.,-1.));
#1437=DIRECTION('ref_axis',(-1.,0.,0.));
#1438=DIRECTION('center_axis',(0.,0.,-1.));
#1439=DIRECTION('ref_axis',(-1.,0.,0.));
#1440=DIRECTION('center_axis',(0.,0.,1.));
#1441=DIRECTION('ref_axis',(1.,0.,0.));
#1442=DIRECTION('',(1.,0.,0.));
#1443=DIRECTION('',(0.,1.,0.));
#1444=DIRECTION('center_axis',(0.,0.,-1.));
#1445=DIRECTION('ref_axis',(-1.,0.,0.));
#1446=DIRECTION('center_axis',(0.,0.,1.));
#1447=DIRECTION('ref_axis',(-1.,0.,0.));
#1448=DIRECTION('',(0.,1.,0.));
#1449=DIRECTION('',(-1.,0.,0.));
#1450=DIRECTION('center_axis',(0.,0.,-1.));
#1451=DIRECTION('ref_axis',(-1.,0.,0.));
#1452=DIRECTION('center_axis',(0.,0.,-1.));
#1453=DIRECTION('ref_axis',(1.,0.,0.));
#1454=DIRECTION('center_axis',(0.,0.,-1.));
#1455=DIRECTION('ref_axis',(-1.,0.,0.));
#1456=DIRECTION('center_axis',(0.,0.,-1.));
#1457=DIRECTION('ref_axis',(1.,0.,0.));
#1458=DIRECTION('center_axis',(0.,0.,-1.));
#1459=DIRECTION('ref_axis',(-1.,0.,0.));
#1460=DIRECTION('center_axis',(0.,0.,-1.));
#1461=DIRECTION('ref_axis',(1.,0.,0.));
#1462=DIRECTION('center_axis',(0.,0.,-1.));
#1463=DIRECTION('ref_axis',(-1.,0.,0.));
#1464=DIRECTION('center_axis',(0.,0.,-1.));
#1465=DIRECTION('ref_axis',(1.,0.,0.));
#1466=DIRECTION('center_axis',(0.,0.,-1.));
#1467=DIRECTION('ref_axis',(-1.,0.,0.));
#1468=DIRECTION('center_axis',(0.,0.,-1.));
#1469=DIRECTION('ref_axis',(1.,0.,0.));
#1470=DIRECTION('center_axis',(0.,0.,1.));
#1471=DIRECTION('ref_axis',(1.,0.,0.));
#1472=DIRECTION('center_axis',(0.,0.,-1.));
#1473=DIRECTION('ref_axis',(1.,0.,0.));
#1474=DIRECTION('center_axis',(0.,0.,-1.));
#1475=DIRECTION('ref_axis',(-1.,0.,0.));
#1476=DIRECTION('center_axis',(0.,0.,-1.));
#1477=DIRECTION('ref_axis',(1.,0.,0.));
#1478=DIRECTION('center_axis',(0.,0.,-1.));
#1479=DIRECTION('ref_axis',(-1.,0.,0.));
#1480=DIRECTION('center_axis',(0.,0.,-1.));
#1481=DIRECTION('ref_axis',(1.,0.,0.));
#1482=DIRECTION('center_axis',(0.,0.,-1.));
#1483=DIRECTION('ref_axis',(-1.,0.,0.));
#1484=DIRECTION('center_axis',(0.,0.,-1.));
#1485=DIRECTION('ref_axis',(1.,0.,0.));
#1486=DIRECTION('center_axis',(0.,0.,1.));
#1487=DIRECTION('ref_axis',(1.,0.,0.));
#1488=DIRECTION('center_axis',(0.,0.,-1.));
#1489=DIRECTION('ref_axis',(1.,0.,0.));
#1490=DIRECTION('center_axis',(0.,0.,-1.));
#1491=DIRECTION('ref_axis',(-1.,0.,0.));
#1492=DIRECTION('center_axis',(0.,0.,-1.));
#1493=DIRECTION('ref_axis',(1.,0.,0.));
#1494=DIRECTION('center_axis',(0.,0.,-1.));
#1495=DIRECTION('ref_axis',(-1.,0.,0.));
#1496=DIRECTION('center_axis',(0.,0.,-1.));
#1497=DIRECTION('ref_axis',(1.,0.,0.));
#1498=DIRECTION('center_axis',(0.,0.,-1.));
#1499=DIRECTION('ref_axis',(-1.,0.,0.));
#1500=DIRECTION('center_axis',(-1.,0.,0.));
#1501=DIRECTION('ref_axis',(0.,0.,1.));
#1502=DIRECTION('',(0.,0.,1.));
#1503=DIRECTION('center_axis',(0.,1.,0.));
#1504=DIRECTION('ref_axis',(0.,0.,1.));
#1505=CARTESIAN_POINT('',(0.,0.,0.));
#1506=CARTESIAN_POINT('Origin',(175.453683030073,7.7,-143.5));
#1507=CARTESIAN_POINT('',(176.603683030073,7.7,-143.5));
#1508=CARTESIAN_POINT('Origin',(175.453683030073,7.7,-143.5));
#1509=CARTESIAN_POINT('Origin',(175.453683030073,7.7,-169.5));
#1510=CARTESIAN_POINT('',(176.603683030073,7.7,-169.5));
#1511=CARTESIAN_POINT('Origin',(175.453683030073,7.7,-169.5));
#1512=CARTESIAN_POINT('Origin',(175.453683030073,7.7,-158.8));
#1513=CARTESIAN_POINT('',(176.603683030073,7.7,-158.8));
#1514=CARTESIAN_POINT('Origin',(175.453683030073,7.7,-158.8));
#1515=CARTESIAN_POINT('Origin',(187.845645341393,7.7,-143.5));
#1516=CARTESIAN_POINT('',(188.995645341393,7.7,-143.5));
#1517=CARTESIAN_POINT('Origin',(187.845645341393,7.7,-143.5));
#1518=CARTESIAN_POINT('Origin',(187.845645341393,7.7,-169.5));
#1519=CARTESIAN_POINT('',(188.995645341393,7.7,-169.5));
#1520=CARTESIAN_POINT('Origin',(187.845645341393,7.7,-169.5));
#1521=CARTESIAN_POINT('Origin',(187.845645341393,7.7,-153.9));
#1522=CARTESIAN_POINT('',(188.995645341393,7.7,-153.9));
#1523=CARTESIAN_POINT('Origin',(187.845645341393,7.7,-153.9));
#1524=CARTESIAN_POINT('Origin',(175.453683030073,10.9,-158.8));
#1525=CARTESIAN_POINT('',(177.453683030073,10.9,-158.8));
#1526=CARTESIAN_POINT('Origin',(175.453683030073,10.9,-158.8));
#1527=CARTESIAN_POINT('',(177.453683030073,7.9,-158.8));
#1528=CARTESIAN_POINT('',(177.453683030073,10.9,-158.8));
#1529=CARTESIAN_POINT('Origin',(175.453683030073,7.9,-158.8));
#1530=CARTESIAN_POINT('Origin',(175.453683030073,10.9,-158.8));
#1531=CARTESIAN_POINT('',(176.603683030073,10.9,-158.8));
#1532=CARTESIAN_POINT('Origin',(175.453683030073,10.9,-158.8));
#1533=CARTESIAN_POINT('Origin',(175.453683030073,7.9,-158.8));
#1534=CARTESIAN_POINT('Origin',(175.453683030073,10.9,-169.5));
#1535=CARTESIAN_POINT('',(177.453683030073,10.9,-169.5));
#1536=CARTESIAN_POINT('Origin',(175.453683030073,10.9,-169.5));
#1537=CARTESIAN_POINT('',(177.453683030073,7.9,-169.5));
#1538=CARTESIAN_POINT('',(177.453683030073,10.9,-169.5));
#1539=CARTESIAN_POINT('Origin',(175.453683030073,7.9,-169.5));
#1540=CARTESIAN_POINT('Origin',(175.453683030073,10.9,-169.5));
#1541=CARTESIAN_POINT('',(176.603683030073,10.9,-169.5));
#1542=CARTESIAN_POINT('Origin',(175.453683030073,10.9,-169.5));
#1543=CARTESIAN_POINT('Origin',(175.453683030073,7.9,-169.5));
#1544=CARTESIAN_POINT('Origin',(175.453683030073,10.9,-143.5));
#1545=CARTESIAN_POINT('',(177.453683030073,10.9,-143.5));
#1546=CARTESIAN_POINT('Origin',(175.453683030073,10.9,-143.5));
#1547=CARTESIAN_POINT('',(177.453683030073,7.9,-143.5));
#1548=CARTESIAN_POINT('',(177.453683030073,10.9,-143.5));
#1549=CARTESIAN_POINT('Origin',(175.453683030073,7.9,-143.5));
#1550=CARTESIAN_POINT('Origin',(175.453683030073,10.9,-143.5));
#1551=CARTESIAN_POINT('',(176.603683030073,10.9,-143.5));
#1552=CARTESIAN_POINT('Origin',(175.453683030073,10.9,-143.5));
#1553=CARTESIAN_POINT('Origin',(175.453683030073,7.9,-143.5));
#1554=CARTESIAN_POINT('Origin',(187.845645341393,10.9,-153.9));
#1555=CARTESIAN_POINT('',(189.845645341393,10.9,-153.9));
#1556=CARTESIAN_POINT('Origin',(187.845645341393,10.9,-153.9));
#1557=CARTESIAN_POINT('',(189.845645341393,7.9,-153.9));
#1558=CARTESIAN_POINT('',(189.845645341393,10.9,-153.9));
#1559=CARTESIAN_POINT('Origin',(187.845645341393,7.9,-153.9));
#1560=CARTESIAN_POINT('Origin',(187.845645341393,10.9,-153.9));
#1561=CARTESIAN_POINT('',(188.995645341393,10.9,-153.9));
#1562=CARTESIAN_POINT('Origin',(187.845645341393,10.9,-153.9));
#1563=CARTESIAN_POINT('Origin',(187.845645341393,7.9,-153.9));
#1564=CARTESIAN_POINT('Origin',(187.845645341393,10.9,-169.5));
#1565=CARTESIAN_POINT('',(189.845645341393,10.9,-169.5));
#1566=CARTESIAN_POINT('Origin',(187.845645341393,10.9,-169.5));
#1567=CARTESIAN_POINT('',(189.845645341393,7.9,-169.5));
#1568=CARTESIAN_POINT('',(189.845645341393,10.9,-169.5));
#1569=CARTESIAN_POINT('Origin',(187.845645341393,7.9,-169.5));
#1570=CARTESIAN_POINT('Origin',(187.845645341393,10.9,-169.5));
#1571=CARTESIAN_POINT('',(188.995645341393,10.9,-169.5));
#1572=CARTESIAN_POINT('Origin',(187.845645341393,10.9,-169.5));
#1573=CARTESIAN_POINT('Origin',(187.845645341393,7.9,-169.5));
#1574=CARTESIAN_POINT('Origin',(187.845645341393,10.9,-143.5));
#1575=CARTESIAN_POINT('',(189.845645341393,10.9,-143.5));
#1576=CARTESIAN_POINT('Origin',(187.845645341393,10.9,-143.5));
#1577=CARTESIAN_POINT('',(189.845645341393,7.9,-143.5));
#1578=CARTESIAN_POINT('',(189.845645341393,10.9,-143.5));
#1579=CARTESIAN_POINT('Origin',(187.845645341393,7.9,-143.5));
#1580=CARTESIAN_POINT('Origin',(187.845645341393,10.9,-143.5));
#1581=CARTESIAN_POINT('',(188.995645341393,10.9,-143.5));
#1582=CARTESIAN_POINT('Origin',(187.845645341393,10.9,-143.5));
#1583=CARTESIAN_POINT('Origin',(187.845645341393,7.9,-143.5));
#1584=CARTESIAN_POINT('Origin',(175.453683030073,3.7,-158.8));
#1585=CARTESIAN_POINT('',(176.603683030073,4.3,-158.8));
#1586=CARTESIAN_POINT('Origin',(175.453683030073,4.3,-158.8));
#1587=CARTESIAN_POINT('',(176.603683030073,3.7,-158.8));
#1588=CARTESIAN_POINT('Origin',(175.453683030073,3.7,-169.5));
#1589=CARTESIAN_POINT('',(176.603683030073,4.3,-169.5));
#1590=CARTESIAN_POINT('Origin',(175.453683030073,4.3,-169.5));
#1591=CARTESIAN_POINT('',(176.603683030073,3.7,-169.5));
#1592=CARTESIAN_POINT('Origin',(175.453683030073,3.7,-143.5));
#1593=CARTESIAN_POINT('',(176.603683030073,4.3,-143.5));
#1594=CARTESIAN_POINT('Origin',(175.453683030073,4.3,-143.5));
#1595=CARTESIAN_POINT('',(176.603683030073,3.7,-143.5));
#1596=CARTESIAN_POINT('Origin',(187.845645341393,3.7,-153.9));
#1597=CARTESIAN_POINT('',(188.995645341393,4.3,-153.9));
#1598=CARTESIAN_POINT('Origin',(187.845645341393,4.3,-153.9));
#1599=CARTESIAN_POINT('',(188.995645341393,3.7,-153.9));
#1600=CARTESIAN_POINT('Origin',(187.845645341393,3.7,-169.5));
#1601=CARTESIAN_POINT('',(188.995645341393,4.3,-169.5));
#1602=CARTESIAN_POINT('Origin',(187.845645341393,4.3,-169.5));
#1603=CARTESIAN_POINT('',(188.995645341393,3.7,-169.5));
#1604=CARTESIAN_POINT('Origin',(187.845645341393,3.7,-143.5));
#1605=CARTESIAN_POINT('',(188.995645341393,4.3,-143.5));
#1606=CARTESIAN_POINT('Origin',(187.845645341393,4.3,-143.5));
#1607=CARTESIAN_POINT('',(188.995645341393,3.7,-143.5));
#1608=CARTESIAN_POINT('Origin',(175.453683030073,3.7,-158.8));
#1609=CARTESIAN_POINT('',(176.603683030073,11.,-158.8));
#1610=CARTESIAN_POINT('',(176.603683030073,3.7,-158.8));
#1611=CARTESIAN_POINT('Origin',(175.453683030073,11.,-158.8));
#1612=CARTESIAN_POINT('Origin',(175.453683030073,3.7,-143.5));
#1613=CARTESIAN_POINT('',(176.603683030073,11.,-143.5));
#1614=CARTESIAN_POINT('',(176.603683030073,3.7,-143.5));
#1615=CARTESIAN_POINT('Origin',(175.453683030073,11.,-143.5));
#1616=CARTESIAN_POINT('Origin',(175.453683030073,3.7,-169.5));
#1617=CARTESIAN_POINT('',(176.603683030073,11.,-169.5));
#1618=CARTESIAN_POINT('',(176.603683030073,3.7,-169.5));
#1619=CARTESIAN_POINT('Origin',(175.453683030073,11.,-169.5));
#1620=CARTESIAN_POINT('Origin',(187.845645341393,3.7,-153.9));
#1621=CARTESIAN_POINT('',(188.995645341393,11.,-153.9));
#1622=CARTESIAN_POINT('',(188.995645341393,3.7,-153.9));
#1623=CARTESIAN_POINT('Origin',(187.845645341393,11.,-153.9));
#1624=CARTESIAN_POINT('Origin',(187.845645341393,3.7,-143.5));
#1625=CARTESIAN_POINT('',(188.995645341393,11.,-143.5));
#1626=CARTESIAN_POINT('',(188.995645341393,3.7,-143.5));
#1627=CARTESIAN_POINT('Origin',(187.845645341393,11.,-143.5));
#1628=CARTESIAN_POINT('Origin',(187.845645341393,3.7,-169.5));
#1629=CARTESIAN_POINT('',(188.995645341393,11.,-169.5));
#1630=CARTESIAN_POINT('',(188.995645341393,3.7,-169.5));
#1631=CARTESIAN_POINT('Origin',(187.845645341393,11.,-169.5));
#1632=CARTESIAN_POINT('Origin',(172.653683030073,4.3,-175.));
#1633=CARTESIAN_POINT('',(178.668720718753,4.3,-140.));
#1634=CARTESIAN_POINT('',(178.668720718753,4.3,-145.));
#1635=CARTESIAN_POINT('',(178.668720718753,4.3,-142.5));
#1636=CARTESIAN_POINT('',(172.653683030073,4.3,-140.));
#1637=CARTESIAN_POINT('',(172.653683030073,4.3,-140.));
#1638=CARTESIAN_POINT('',(172.653683030073,4.3,-175.));
#1639=CARTESIAN_POINT('',(172.653683030073,4.3,-175.));
#1640=CARTESIAN_POINT('',(177.163694165944,4.3,-175.));
#1641=CARTESIAN_POINT('',(182.653683030073,4.3,-175.));
#1642=CARTESIAN_POINT('',(177.163694165944,4.3,-172.));
#1643=CARTESIAN_POINT('',(177.163694165944,4.3,-173.5));
#1644=CARTESIAN_POINT('',(178.668720718753,4.3,-170.));
#1645=CARTESIAN_POINT('Ctrl Pts',(178.668720718753,4.3,-170.));
#1646=CARTESIAN_POINT('Ctrl Pts',(178.066710097637,4.3,-170.798657340021));
#1647=CARTESIAN_POINT('Ctrl Pts',(177.163694165944,4.3,-172.));
#1648=CARTESIAN_POINT('',(178.668720718753,4.3,-167.5));
#1649=CARTESIAN_POINT('',(178.668720718753,4.3,-168.75));
#1650=CARTESIAN_POINT('',(177.664948895037,4.3,-167.5));
#1651=CARTESIAN_POINT('',(175.653683030073,4.3,-167.5));
#1652=CARTESIAN_POINT('',(177.664948895037,4.3,-165.));
#1653=CARTESIAN_POINT('',(177.664948895037,4.3,-166.25));
#1654=CARTESIAN_POINT('',(178.668720718753,4.3,-165.));
#1655=CARTESIAN_POINT('',(175.153683030073,4.3,-165.));
#1656=CARTESIAN_POINT('',(178.668720718753,4.3,-162.5));
#1657=CARTESIAN_POINT('',(178.668720718753,4.3,-163.75));
#1658=CARTESIAN_POINT('',(177.664948895037,4.3,-162.5));
#1659=CARTESIAN_POINT('',(175.653683030073,4.3,-162.5));
#1660=CARTESIAN_POINT('',(177.664948895037,4.3,-160.));
#1661=CARTESIAN_POINT('',(177.664948895037,4.3,-161.25));
#1662=CARTESIAN_POINT('',(178.668720718753,4.3,-160.));
#1663=CARTESIAN_POINT('',(175.153683030073,4.3,-160.));
#1664=CARTESIAN_POINT('',(178.668720718753,4.3,-157.5));
#1665=CARTESIAN_POINT('',(178.668720718753,4.3,-158.75));
#1666=CARTESIAN_POINT('',(177.664948895037,4.3,-157.5));
#1667=CARTESIAN_POINT('',(175.653683030073,4.3,-157.5));
#1668=CARTESIAN_POINT('',(177.664948895037,4.3,-155.));
#1669=CARTESIAN_POINT('',(177.664948895037,4.3,-156.25));
#1670=CARTESIAN_POINT('',(178.668720718753,4.3,-155.));
#1671=CARTESIAN_POINT('',(175.153683030073,4.3,-155.));
#1672=CARTESIAN_POINT('',(178.668720718753,4.3,-152.5));
#1673=CARTESIAN_POINT('',(178.668720718753,4.3,-153.75));
#1674=CARTESIAN_POINT('',(177.664948895037,4.3,-152.5));
#1675=CARTESIAN_POINT('',(175.653683030073,4.3,-152.5));
#1676=CARTESIAN_POINT('',(177.664948895037,4.3,-150.));
#1677=CARTESIAN_POINT('',(177.664948895037,4.3,-151.25));
#1678=CARTESIAN_POINT('',(178.668720718753,4.3,-150.));
#1679=CARTESIAN_POINT('',(175.153683030073,4.3,-150.));
#1680=CARTESIAN_POINT('',(178.668720718753,4.3,-147.5));
#1681=CARTESIAN_POINT('',(178.668720718753,4.3,-148.75));
#1682=CARTESIAN_POINT('',(177.664948895037,4.3,-147.5));
#1683=CARTESIAN_POINT('',(175.653683030073,4.3,-147.5));
#1684=CARTESIAN_POINT('',(177.664948895037,4.3,-145.));
#1685=CARTESIAN_POINT('',(177.664948895037,4.3,-146.25));
#1686=CARTESIAN_POINT('',(175.153683030073,4.3,-145.));
#1687=CARTESIAN_POINT('Origin',(172.653683030073,4.3,-175.));
#1688=CARTESIAN_POINT('',(184.638645341393,4.3,-145.));
#1689=CARTESIAN_POINT('',(184.638645341393,4.3,-140.));
#1690=CARTESIAN_POINT('',(184.638645341393,4.3,-142.5));
#1691=CARTESIAN_POINT('',(185.642417165109,4.3,-145.));
#1692=CARTESIAN_POINT('',(175.153683030073,4.3,-145.));
#1693=CARTESIAN_POINT('',(185.642417165109,4.3,-147.5));
#1694=CARTESIAN_POINT('',(185.642417165109,4.3,-146.25));
#1695=CARTESIAN_POINT('',(184.638645341393,4.3,-147.5));
#1696=CARTESIAN_POINT('',(175.653683030073,4.3,-147.5));
#1697=CARTESIAN_POINT('',(184.638645341393,4.3,-150.));
#1698=CARTESIAN_POINT('',(184.638645341393,4.3,-148.75));
#1699=CARTESIAN_POINT('',(185.642417165109,4.3,-150.));
#1700=CARTESIAN_POINT('',(175.153683030073,4.3,-150.));
#1701=CARTESIAN_POINT('',(185.642417165109,4.3,-152.5));
#1702=CARTESIAN_POINT('',(185.642417165109,4.3,-151.25));
#1703=CARTESIAN_POINT('',(184.638645341393,4.3,-152.5));
#1704=CARTESIAN_POINT('',(175.653683030073,4.3,-152.5));
#1705=CARTESIAN_POINT('',(184.638645341393,4.3,-155.));
#1706=CARTESIAN_POINT('',(184.638645341393,4.3,-153.75));
#1707=CARTESIAN_POINT('',(185.642417165109,4.3,-155.));
#1708=CARTESIAN_POINT('',(175.153683030073,4.3,-155.));
#1709=CARTESIAN_POINT('',(185.642417165109,4.3,-157.5));
#1710=CARTESIAN_POINT('',(185.642417165109,4.3,-156.25));
#1711=CARTESIAN_POINT('',(184.638645341393,4.3,-157.5));
#1712=CARTESIAN_POINT('',(175.653683030073,4.3,-157.5));
#1713=CARTESIAN_POINT('',(184.638645341393,4.3,-160.));
#1714=CARTESIAN_POINT('',(184.638645341393,4.3,-158.75));
#1715=CARTESIAN_POINT('',(185.642417165109,4.3,-160.));
#1716=CARTESIAN_POINT('',(175.153683030073,4.3,-160.));
#1717=CARTESIAN_POINT('',(185.642417165109,4.3,-162.5));
#1718=CARTESIAN_POINT('',(185.642417165109,4.3,-161.25));
#1719=CARTESIAN_POINT('',(184.638645341393,4.3,-162.5));
#1720=CARTESIAN_POINT('',(175.653683030073,4.3,-162.5));
#1721=CARTESIAN_POINT('',(184.638645341393,4.3,-165.));
#1722=CARTESIAN_POINT('',(184.638645341393,4.3,-163.75));
#1723=CARTESIAN_POINT('',(185.642417165109,4.3,-165.));
#1724=CARTESIAN_POINT('',(175.153683030073,4.3,-165.));
#1725=CARTESIAN_POINT('',(185.642417165109,4.3,-167.5));
#1726=CARTESIAN_POINT('',(185.642417165109,4.3,-166.25));
#1727=CARTESIAN_POINT('',(184.638645341393,4.3,-167.5));
#1728=CARTESIAN_POINT('',(175.653683030073,4.3,-167.5));
#1729=CARTESIAN_POINT('',(184.638645341393,4.3,-170.));
#1730=CARTESIAN_POINT('',(184.638645341393,4.3,-168.75));
#1731=CARTESIAN_POINT('',(186.143671894202,4.3,-172.));
#1732=CARTESIAN_POINT('Ctrl Pts',(186.143671894202,4.3,-172.));
#1733=CARTESIAN_POINT('Ctrl Pts',(185.240655962509,4.3,-170.798657340021));
#1734=CARTESIAN_POINT('Ctrl Pts',(184.638645341393,4.3,-170.));
#1735=CARTESIAN_POINT('',(186.143671894202,4.3,-175.));
#1736=CARTESIAN_POINT('',(186.143671894202,4.3,-173.5));
#1737=CARTESIAN_POINT('',(192.653683030073,4.3,-175.));
#1738=CARTESIAN_POINT('',(182.653683030073,4.3,-175.));
#1739=CARTESIAN_POINT('',(192.653683030073,4.3,-140.));
#1740=CARTESIAN_POINT('',(192.653683030073,4.3,-157.5));
#1741=CARTESIAN_POINT('',(172.653683030073,4.3,-140.));
#1742=CARTESIAN_POINT('Origin',(192.653683030073,4.,-140.));
#1743=CARTESIAN_POINT('',(192.653683030073,11.,-175.));
#1744=CARTESIAN_POINT('',(192.653683030073,4.,-175.));
#1745=CARTESIAN_POINT('',(192.653683030073,11.,-140.));
#1746=CARTESIAN_POINT('',(192.653683030073,11.,-140.));
#1747=CARTESIAN_POINT('',(192.653683030073,4.,-140.));
#1748=CARTESIAN_POINT('Origin',(181.653683030073,4.,-153.75));
#1749=CARTESIAN_POINT('Origin',(181.653683030073,4.,-152.5));
#1750=CARTESIAN_POINT('Origin',(181.653683030073,4.,-155.));
#1751=CARTESIAN_POINT('Origin',(177.653683030073,4.,-155.));
#1752=CARTESIAN_POINT('Origin',(181.653683030073,4.,-155.));
#1753=CARTESIAN_POINT('Origin',(178.653683030073,4.,-152.5));
#1754=CARTESIAN_POINT('Origin',(181.653683030073,4.,-152.5));
#1755=CARTESIAN_POINT('Origin',(181.653683030073,4.,-151.25));
#1756=CARTESIAN_POINT('Origin',(181.653683030073,4.,-150.));
#1757=CARTESIAN_POINT('Origin',(177.653683030073,4.,-150.));
#1758=CARTESIAN_POINT('Origin',(181.653683030073,4.,-150.));
#1759=CARTESIAN_POINT('Origin',(181.653683030073,4.,-148.75));
#1760=CARTESIAN_POINT('Origin',(181.653683030073,4.,-147.5));
#1761=CARTESIAN_POINT('Origin',(178.653683030073,4.,-147.5));
#1762=CARTESIAN_POINT('Origin',(181.653683030073,4.,-147.5));
#1763=CARTESIAN_POINT('Origin',(181.653683030073,4.,-146.25));
#1764=CARTESIAN_POINT('Origin',(181.653683030073,4.,-145.));
#1765=CARTESIAN_POINT('Origin',(177.653683030073,4.,-145.));
#1766=CARTESIAN_POINT('Origin',(181.653683030073,4.,-145.));
#1767=CARTESIAN_POINT('Origin',(181.653683030073,4.,-142.5));
#1768=CARTESIAN_POINT('Origin',(181.653683030073,4.,-140.));
#1769=CARTESIAN_POINT('Origin',(172.653683030073,4.,-140.));
#1770=CARTESIAN_POINT('',(172.653683030073,11.,-140.));
#1771=CARTESIAN_POINT('',(172.653683030073,11.,-140.));
#1772=CARTESIAN_POINT('',(172.653683030073,4.,-140.));
#1773=CARTESIAN_POINT('Origin',(192.653683030073,4.,-175.));
#1774=CARTESIAN_POINT('Origin',(181.653683030073,4.,-175.));
#1775=CARTESIAN_POINT('',(172.653683030073,11.,-175.));
#1776=CARTESIAN_POINT('',(172.653683030073,4.,-175.));
#1777=CARTESIAN_POINT('',(192.653683030073,11.,-175.));
#1778=CARTESIAN_POINT('Origin',(181.653683030073,4.,-173.5));
#1779=CARTESIAN_POINT('Origin',(181.653683030073,4.,-172.));
#1780=CARTESIAN_POINT('Origin',(181.653683030073,4.,-171.));
#1781=CARTESIAN_POINT('Origin',(181.653683030073,4.,-170.));
#1782=CARTESIAN_POINT('Origin',(181.653683030073,4.,-168.75));
#1783=CARTESIAN_POINT('Origin',(181.653683030073,4.,-167.5));
#1784=CARTESIAN_POINT('Origin',(178.653683030073,4.,-167.5));
#1785=CARTESIAN_POINT('Origin',(181.653683030073,4.,-167.5));
#1786=CARTESIAN_POINT('Origin',(181.653683030073,4.,-166.25));
#1787=CARTESIAN_POINT('Origin',(181.653683030073,4.,-165.));
#1788=CARTESIAN_POINT('Origin',(177.653683030073,4.,-165.));
#1789=CARTESIAN_POINT('Origin',(181.653683030073,4.,-165.));
#1790=CARTESIAN_POINT('Origin',(181.653683030073,4.,-163.75));
#1791=CARTESIAN_POINT('Origin',(181.653683030073,4.,-162.5));
#1792=CARTESIAN_POINT('Origin',(178.653683030073,4.,-162.5));
#1793=CARTESIAN_POINT('Origin',(181.653683030073,4.,-162.5));
#1794=CARTESIAN_POINT('Origin',(181.653683030073,4.,-161.25));
#1795=CARTESIAN_POINT('Origin',(181.653683030073,4.,-160.));
#1796=CARTESIAN_POINT('Origin',(177.653683030073,4.,-160.));
#1797=CARTESIAN_POINT('Origin',(181.653683030073,4.,-160.));
#1798=CARTESIAN_POINT('Origin',(181.653683030073,4.,-158.75));
#1799=CARTESIAN_POINT('Origin',(181.653683030073,4.,-157.5));
#1800=CARTESIAN_POINT('Origin',(178.653683030073,4.,-157.5));
#1801=CARTESIAN_POINT('Origin',(181.653683030073,4.,-157.5));
#1802=CARTESIAN_POINT('Origin',(181.653683030073,4.,-156.25));
#1803=CARTESIAN_POINT('Origin',(172.653683030073,4.,-175.));
#1804=CARTESIAN_POINT('',(172.653683030073,11.,-175.));
#1805=CARTESIAN_POINT('Origin',(182.653683030073,11.,-157.5));
#1806=UNCERTAINTY_MEASURE_WITH_UNIT(LENGTH_MEASURE(0.01),#1810,
'DISTANCE_ACCURACY_VALUE',
'Maximum model space distance between geometric entities at asserted c
onnectivities');
#1807=UNCERTAINTY_MEASURE_WITH_UNIT(LENGTH_MEASURE(0.01),#1810,
'DISTANCE_ACCURACY_VALUE',
'Maximum model space distance between geometric entities at asserted c
onnectivities');
#1808=(
GEOMETRIC_REPRESENTATION_CONTEXT(3)
GLOBAL_UNCERTAINTY_ASSIGNED_CONTEXT((#1806))
GLOBAL_UNIT_ASSIGNED_CONTEXT((#1810,#1812,#1813))
REPRESENTATION_CONTEXT('','3D')
);
#1809=(
GEOMETRIC_REPRESENTATION_CONTEXT(3)
GLOBAL_UNCERTAINTY_ASSIGNED_CONTEXT((#1807))
GLOBAL_UNIT_ASSIGNED_CONTEXT((#1810,#1812,#1813))
REPRESENTATION_CONTEXT('','3D')
);
#1810=(
LENGTH_UNIT()
NAMED_UNIT(*)
SI_UNIT(.MILLI.,.METRE.)
);
#1811=(
LENGTH_UNIT()
NAMED_UNIT(*)
SI_UNIT($,.METRE.)
);
#1812=(
NAMED_UNIT(*)
PLANE_ANGLE_UNIT()
SI_UNIT($,.RADIAN.)
);
#1813=(
NAMED_UNIT(*)
SI_UNIT($,.STERADIAN.)
SOLID_ANGLE_UNIT()
);
#1814=SHAPE_DEFINITION_REPRESENTATION(#1815,#1816);
#1815=PRODUCT_DEFINITION_SHAPE('',$,#1818);
#1816=SHAPE_REPRESENTATION('',(#1048),#1808);
#1817=PRODUCT_DEFINITION_CONTEXT('part definition',#1822,'design');
#1818=PRODUCT_DEFINITION('Pendant Clamp Lid','Pendant Clamp Lid',#1819,
#1817);
#1819=PRODUCT_DEFINITION_FORMATION('',$,#1824);
#1820=PRODUCT_RELATED_PRODUCT_CATEGORY('Pendant Clamp Lid',
'Pendant Clamp Lid',(#1824));
#1821=APPLICATION_PROTOCOL_DEFINITION('international standard',
'automotive_design',2009,#1822);
#1822=APPLICATION_CONTEXT(
'Core Data for Automotive Mechanical Design Process');
#1823=PRODUCT_CONTEXT('part definition',#1822,'mechanical');
#1824=PRODUCT('Pendant Clamp Lid','Pendant Clamp Lid',$,(#1823));
#1825=PRESENTATION_STYLE_ASSIGNMENT((#1826));
#1826=SURFACE_STYLE_USAGE(.BOTH.,#1827);
#1827=SURFACE_SIDE_STYLE('',(#1828));
#1828=SURFACE_STYLE_FILL_AREA(#1829);
#1829=FILL_AREA_STYLE('Steel - Satin',(#1830));
#1830=FILL_AREA_STYLE_COLOUR('Steel - Satin',#1831);
#1831=COLOUR_RGB('Steel - Satin',0.627450980392157,0.627450980392157,0.627450980392157);
ENDSEC;
END-ISO-10303-21;
