ISO-10303-21;
HEADER;
/* Generated by software containing ST-Developer
 * from STEP Tools, Inc. (www.steptools.com) 
 */

FILE_DESCRIPTION(
/* description */ (''),
/* implementation_level */ '2;1');

FILE_NAME(
/* name */ 'Power Cable Spacer.step',
/* time_stamp */ '2025-05-01T11:08:36+01:00',
/* author */ (''),
/* organization */ (''),
/* preprocessor_version */ 'ST-DEVELOPER v20.1',
/* originating_system */ 'Autodesk Translation Framework v14.4.0.0',
/* authorisation */ '');

FILE_SCHEMA (('AUTOMOTIVE_DESIGN { 1 0 10303 214 3 1 1 }'));
ENDSEC;

DATA;
#10=MECHANICAL_DESIGN_GEOMETRIC_PRESENTATION_REPRESENTATION('',(#13),#451);
#11=SHAPE_REPRESENTATION_RELATIONSHIP('SRR','None',#458,#12);
#12=ADVANCED_BREP_SHAPE_REPRESENTATION('',(#14),#450);
#13=STYLED_ITEM('',(#467),#14);
#14=MANIFOLD_SOLID_BREP('Power Cable Spacer',#271);
#15=CIRCLE('',#288,2.5);
#16=CIRCLE('',#289,2.5);
#17=CIRCLE('',#293,2.5);
#18=CIRCLE('',#294,2.5);
#19=CYLINDRICAL_SURFACE('',#287,2.5);
#20=CYLINDRICAL_SURFACE('',#292,2.5);
#21=FACE_OUTER_BOUND('',#35,.T.);
#22=FACE_OUTER_BOUND('',#36,.T.);
#23=FACE_OUTER_BOUND('',#37,.T.);
#24=FACE_OUTER_BOUND('',#38,.T.);
#25=FACE_OUTER_BOUND('',#39,.T.);
#26=FACE_OUTER_BOUND('',#40,.T.);
#27=FACE_OUTER_BOUND('',#41,.T.);
#28=FACE_OUTER_BOUND('',#42,.T.);
#29=FACE_OUTER_BOUND('',#43,.T.);
#30=FACE_OUTER_BOUND('',#44,.T.);
#31=FACE_OUTER_BOUND('',#45,.T.);
#32=FACE_OUTER_BOUND('',#46,.T.);
#33=FACE_OUTER_BOUND('',#47,.T.);
#34=FACE_OUTER_BOUND('',#48,.T.);
#35=EDGE_LOOP('',(#173,#174,#175,#176,#177,#178));
#36=EDGE_LOOP('',(#179,#180,#181,#182,#183,#184));
#37=EDGE_LOOP('',(#185,#186,#187,#188));
#38=EDGE_LOOP('',(#189,#190,#191,#192,#193,#194));
#39=EDGE_LOOP('',(#195,#196,#197,#198,#199,#200));
#40=EDGE_LOOP('',(#201,#202,#203,#204));
#41=EDGE_LOOP('',(#205,#206,#207,#208));
#42=EDGE_LOOP('',(#209,#210,#211,#212));
#43=EDGE_LOOP('',(#213,#214,#215,#216));
#44=EDGE_LOOP('',(#217,#218,#219,#220));
#45=EDGE_LOOP('',(#221,#222,#223,#224));
#46=EDGE_LOOP('',(#225,#226,#227,#228));
#47=EDGE_LOOP('',(#229,#230,#231,#232,#233,#234,#235,#236));
#48=EDGE_LOOP('',(#237,#238,#239,#240,#241,#242,#243,#244));
#49=LINE('',#377,#81);
#50=LINE('',#379,#82);
#51=LINE('',#381,#83);
#52=LINE('',#383,#84);
#53=LINE('',#385,#85);
#54=LINE('',#386,#86);
#55=LINE('',#390,#87);
#56=LINE('',#392,#88);
#57=LINE('',#394,#89);
#58=LINE('',#396,#90);
#59=LINE('',#398,#91);
#60=LINE('',#399,#92);
#61=LINE('',#406,#93);
#62=LINE('',#408,#94);
#63=LINE('',#410,#95);
#64=LINE('',#412,#96);
#65=LINE('',#414,#97);
#66=LINE('',#415,#98);
#67=LINE('',#419,#99);
#68=LINE('',#421,#100);
#69=LINE('',#423,#101);
#70=LINE('',#425,#102);
#71=LINE('',#427,#103);
#72=LINE('',#428,#104);
#73=LINE('',#433,#105);
#74=LINE('',#434,#106);
#75=LINE('',#436,#107);
#76=LINE('',#438,#108);
#77=LINE('',#440,#109);
#78=LINE('',#441,#110);
#79=LINE('',#443,#111);
#80=LINE('',#445,#112);
#81=VECTOR('',#307,10.);
#82=VECTOR('',#308,10.);
#83=VECTOR('',#309,10.);
#84=VECTOR('',#310,10.);
#85=VECTOR('',#311,10.);
#86=VECTOR('',#312,10.);
#87=VECTOR('',#315,10.);
#88=VECTOR('',#316,10.);
#89=VECTOR('',#317,10.);
#90=VECTOR('',#318,10.);
#91=VECTOR('',#319,10.);
#92=VECTOR('',#320,10.);
#93=VECTOR('',#329,10.);
#94=VECTOR('',#330,10.);
#95=VECTOR('',#331,10.);
#96=VECTOR('',#332,10.);
#97=VECTOR('',#333,10.);
#98=VECTOR('',#334,10.);
#99=VECTOR('',#337,10.);
#100=VECTOR('',#338,10.);
#101=VECTOR('',#339,10.);
#102=VECTOR('',#340,10.);
#103=VECTOR('',#341,10.);
#104=VECTOR('',#342,10.);
#105=VECTOR('',#351,10.);
#106=VECTOR('',#352,10.);
#107=VECTOR('',#355,10.);
#108=VECTOR('',#358,10.);
#109=VECTOR('',#361,10.);
#110=VECTOR('',#362,10.);
#111=VECTOR('',#365,10.);
#112=VECTOR('',#368,10.);
#113=VERTEX_POINT('',#375);
#114=VERTEX_POINT('',#376);
#115=VERTEX_POINT('',#378);
#116=VERTEX_POINT('',#380);
#117=VERTEX_POINT('',#382);
#118=VERTEX_POINT('',#384);
#119=VERTEX_POINT('',#388);
#120=VERTEX_POINT('',#389);
#121=VERTEX_POINT('',#391);
#122=VERTEX_POINT('',#393);
#123=VERTEX_POINT('',#395);
#124=VERTEX_POINT('',#397);
#125=VERTEX_POINT('',#404);
#126=VERTEX_POINT('',#405);
#127=VERTEX_POINT('',#407);
#128=VERTEX_POINT('',#409);
#129=VERTEX_POINT('',#411);
#130=VERTEX_POINT('',#413);
#131=VERTEX_POINT('',#417);
#132=VERTEX_POINT('',#418);
#133=VERTEX_POINT('',#420);
#134=VERTEX_POINT('',#422);
#135=VERTEX_POINT('',#424);
#136=VERTEX_POINT('',#426);
#137=EDGE_CURVE('',#113,#114,#49,.T.);
#138=EDGE_CURVE('',#115,#113,#50,.T.);
#139=EDGE_CURVE('',#115,#116,#51,.T.);
#140=EDGE_CURVE('',#117,#116,#52,.T.);
#141=EDGE_CURVE('',#118,#117,#53,.T.);
#142=EDGE_CURVE('',#114,#118,#54,.T.);
#143=EDGE_CURVE('',#119,#120,#55,.T.);
#144=EDGE_CURVE('',#121,#119,#56,.T.);
#145=EDGE_CURVE('',#122,#121,#57,.T.);
#146=EDGE_CURVE('',#123,#122,#58,.T.);
#147=EDGE_CURVE('',#124,#123,#59,.T.);
#148=EDGE_CURVE('',#120,#124,#60,.T.);
#149=EDGE_CURVE('',#116,#123,#15,.T.);
#150=EDGE_CURVE('',#124,#115,#16,.T.);
#151=EDGE_CURVE('',#125,#126,#61,.T.);
#152=EDGE_CURVE('',#127,#125,#62,.T.);
#153=EDGE_CURVE('',#128,#127,#63,.T.);
#154=EDGE_CURVE('',#129,#128,#64,.T.);
#155=EDGE_CURVE('',#130,#129,#65,.T.);
#156=EDGE_CURVE('',#126,#130,#66,.T.);
#157=EDGE_CURVE('',#131,#132,#67,.T.);
#158=EDGE_CURVE('',#133,#131,#68,.T.);
#159=EDGE_CURVE('',#134,#133,#69,.T.);
#160=EDGE_CURVE('',#135,#134,#70,.T.);
#161=EDGE_CURVE('',#136,#135,#71,.T.);
#162=EDGE_CURVE('',#136,#132,#72,.T.);
#163=EDGE_CURVE('',#132,#125,#17,.T.);
#164=EDGE_CURVE('',#127,#136,#18,.T.);
#165=EDGE_CURVE('',#129,#114,#73,.T.);
#166=EDGE_CURVE('',#113,#128,#74,.T.);
#167=EDGE_CURVE('',#130,#118,#75,.T.);
#168=EDGE_CURVE('',#126,#117,#76,.T.);
#169=EDGE_CURVE('',#133,#121,#77,.T.);
#170=EDGE_CURVE('',#131,#122,#78,.T.);
#171=EDGE_CURVE('',#134,#119,#79,.T.);
#172=EDGE_CURVE('',#135,#120,#80,.T.);
#173=ORIENTED_EDGE('',*,*,#137,.F.);
#174=ORIENTED_EDGE('',*,*,#138,.F.);
#175=ORIENTED_EDGE('',*,*,#139,.T.);
#176=ORIENTED_EDGE('',*,*,#140,.F.);
#177=ORIENTED_EDGE('',*,*,#141,.F.);
#178=ORIENTED_EDGE('',*,*,#142,.F.);
#179=ORIENTED_EDGE('',*,*,#143,.F.);
#180=ORIENTED_EDGE('',*,*,#144,.F.);
#181=ORIENTED_EDGE('',*,*,#145,.F.);
#182=ORIENTED_EDGE('',*,*,#146,.F.);
#183=ORIENTED_EDGE('',*,*,#147,.F.);
#184=ORIENTED_EDGE('',*,*,#148,.F.);
#185=ORIENTED_EDGE('',*,*,#149,.F.);
#186=ORIENTED_EDGE('',*,*,#139,.F.);
#187=ORIENTED_EDGE('',*,*,#150,.F.);
#188=ORIENTED_EDGE('',*,*,#147,.T.);
#189=ORIENTED_EDGE('',*,*,#151,.F.);
#190=ORIENTED_EDGE('',*,*,#152,.F.);
#191=ORIENTED_EDGE('',*,*,#153,.F.);
#192=ORIENTED_EDGE('',*,*,#154,.F.);
#193=ORIENTED_EDGE('',*,*,#155,.F.);
#194=ORIENTED_EDGE('',*,*,#156,.F.);
#195=ORIENTED_EDGE('',*,*,#157,.F.);
#196=ORIENTED_EDGE('',*,*,#158,.F.);
#197=ORIENTED_EDGE('',*,*,#159,.F.);
#198=ORIENTED_EDGE('',*,*,#160,.F.);
#199=ORIENTED_EDGE('',*,*,#161,.F.);
#200=ORIENTED_EDGE('',*,*,#162,.T.);
#201=ORIENTED_EDGE('',*,*,#163,.F.);
#202=ORIENTED_EDGE('',*,*,#162,.F.);
#203=ORIENTED_EDGE('',*,*,#164,.F.);
#204=ORIENTED_EDGE('',*,*,#152,.T.);
#205=ORIENTED_EDGE('',*,*,#137,.T.);
#206=ORIENTED_EDGE('',*,*,#165,.F.);
#207=ORIENTED_EDGE('',*,*,#154,.T.);
#208=ORIENTED_EDGE('',*,*,#166,.F.);
#209=ORIENTED_EDGE('',*,*,#142,.T.);
#210=ORIENTED_EDGE('',*,*,#167,.F.);
#211=ORIENTED_EDGE('',*,*,#155,.T.);
#212=ORIENTED_EDGE('',*,*,#165,.T.);
#213=ORIENTED_EDGE('',*,*,#141,.T.);
#214=ORIENTED_EDGE('',*,*,#168,.F.);
#215=ORIENTED_EDGE('',*,*,#156,.T.);
#216=ORIENTED_EDGE('',*,*,#167,.T.);
#217=ORIENTED_EDGE('',*,*,#145,.T.);
#218=ORIENTED_EDGE('',*,*,#169,.F.);
#219=ORIENTED_EDGE('',*,*,#158,.T.);
#220=ORIENTED_EDGE('',*,*,#170,.T.);
#221=ORIENTED_EDGE('',*,*,#144,.T.);
#222=ORIENTED_EDGE('',*,*,#171,.F.);
#223=ORIENTED_EDGE('',*,*,#159,.T.);
#224=ORIENTED_EDGE('',*,*,#169,.T.);
#225=ORIENTED_EDGE('',*,*,#143,.T.);
#226=ORIENTED_EDGE('',*,*,#172,.F.);
#227=ORIENTED_EDGE('',*,*,#160,.T.);
#228=ORIENTED_EDGE('',*,*,#171,.T.);
#229=ORIENTED_EDGE('',*,*,#146,.T.);
#230=ORIENTED_EDGE('',*,*,#170,.F.);
#231=ORIENTED_EDGE('',*,*,#157,.T.);
#232=ORIENTED_EDGE('',*,*,#163,.T.);
#233=ORIENTED_EDGE('',*,*,#151,.T.);
#234=ORIENTED_EDGE('',*,*,#168,.T.);
#235=ORIENTED_EDGE('',*,*,#140,.T.);
#236=ORIENTED_EDGE('',*,*,#149,.T.);
#237=ORIENTED_EDGE('',*,*,#148,.T.);
#238=ORIENTED_EDGE('',*,*,#150,.T.);
#239=ORIENTED_EDGE('',*,*,#138,.T.);
#240=ORIENTED_EDGE('',*,*,#166,.T.);
#241=ORIENTED_EDGE('',*,*,#153,.T.);
#242=ORIENTED_EDGE('',*,*,#164,.T.);
#243=ORIENTED_EDGE('',*,*,#161,.T.);
#244=ORIENTED_EDGE('',*,*,#172,.T.);
#245=PLANE('',#285);
#246=PLANE('',#286);
#247=PLANE('',#290);
#248=PLANE('',#291);
#249=PLANE('',#295);
#250=PLANE('',#296);
#251=PLANE('',#297);
#252=PLANE('',#298);
#253=PLANE('',#299);
#254=PLANE('',#300);
#255=PLANE('',#301);
#256=PLANE('',#302);
#257=ADVANCED_FACE('',(#21),#245,.F.);
#258=ADVANCED_FACE('',(#22),#246,.F.);
#259=ADVANCED_FACE('',(#23),#19,.F.);
#260=ADVANCED_FACE('',(#24),#247,.F.);
#261=ADVANCED_FACE('',(#25),#248,.F.);
#262=ADVANCED_FACE('',(#26),#20,.F.);
#263=ADVANCED_FACE('',(#27),#249,.F.);
#264=ADVANCED_FACE('',(#28),#250,.F.);
#265=ADVANCED_FACE('',(#29),#251,.F.);
#266=ADVANCED_FACE('',(#30),#252,.F.);
#267=ADVANCED_FACE('',(#31),#253,.F.);
#268=ADVANCED_FACE('',(#32),#254,.F.);
#269=ADVANCED_FACE('',(#33),#255,.F.);
#270=ADVANCED_FACE('',(#34),#256,.T.);
#271=CLOSED_SHELL('',(#257,#258,#259,#260,#261,#262,#263,#264,#265,#266,
#267,#268,#269,#270));
#272=DERIVED_UNIT_ELEMENT(#274,1.);
#273=DERIVED_UNIT_ELEMENT(#453,-3.);
#274=(
MASS_UNIT()
NAMED_UNIT(*)
SI_UNIT(.KILO.,.GRAM.)
);
#275=DERIVED_UNIT((#272,#273));
#276=MEASURE_REPRESENTATION_ITEM('density measure',
POSITIVE_RATIO_MEASURE(7850.),#275);
#277=PROPERTY_DEFINITION_REPRESENTATION(#282,#279);
#278=PROPERTY_DEFINITION_REPRESENTATION(#283,#280);
#279=REPRESENTATION('material name',(#281),#450);
#280=REPRESENTATION('density',(#276),#450);
#281=DESCRIPTIVE_REPRESENTATION_ITEM('Steel','Steel');
#282=PROPERTY_DEFINITION('material property','material name',#460);
#283=PROPERTY_DEFINITION('material property','density of part',#460);
#284=AXIS2_PLACEMENT_3D('',#373,#303,#304);
#285=AXIS2_PLACEMENT_3D('',#374,#305,#306);
#286=AXIS2_PLACEMENT_3D('',#387,#313,#314);
#287=AXIS2_PLACEMENT_3D('',#400,#321,#322);
#288=AXIS2_PLACEMENT_3D('',#401,#323,#324);
#289=AXIS2_PLACEMENT_3D('',#402,#325,#326);
#290=AXIS2_PLACEMENT_3D('',#403,#327,#328);
#291=AXIS2_PLACEMENT_3D('',#416,#335,#336);
#292=AXIS2_PLACEMENT_3D('',#429,#343,#344);
#293=AXIS2_PLACEMENT_3D('',#430,#345,#346);
#294=AXIS2_PLACEMENT_3D('',#431,#347,#348);
#295=AXIS2_PLACEMENT_3D('',#432,#349,#350);
#296=AXIS2_PLACEMENT_3D('',#435,#353,#354);
#297=AXIS2_PLACEMENT_3D('',#437,#356,#357);
#298=AXIS2_PLACEMENT_3D('',#439,#359,#360);
#299=AXIS2_PLACEMENT_3D('',#442,#363,#364);
#300=AXIS2_PLACEMENT_3D('',#444,#366,#367);
#301=AXIS2_PLACEMENT_3D('',#446,#369,#370);
#302=AXIS2_PLACEMENT_3D('',#447,#371,#372);
#303=DIRECTION('axis',(0.,0.,1.));
#304=DIRECTION('refdir',(1.,0.,0.));
#305=DIRECTION('center_axis',(0.,-1.,0.));
#306=DIRECTION('ref_axis',(1.,0.,0.));
#307=DIRECTION('',(0.,0.,1.));
#308=DIRECTION('',(1.,0.,0.));
#309=DIRECTION('',(0.,0.,1.));
#310=DIRECTION('',(-1.,0.,0.));
#311=DIRECTION('',(0.,0.,1.));
#312=DIRECTION('',(1.,0.,0.));
#313=DIRECTION('center_axis',(0.,-1.,0.));
#314=DIRECTION('ref_axis',(1.,0.,0.));
#315=DIRECTION('',(1.93082265152201E-16,0.,-1.));
#316=DIRECTION('',(1.,0.,0.));
#317=DIRECTION('',(0.,0.,-1.));
#318=DIRECTION('',(-1.,0.,0.));
#319=DIRECTION('',(0.,0.,1.));
#320=DIRECTION('',(1.,0.,0.));
#321=DIRECTION('center_axis',(0.,0.,1.));
#322=DIRECTION('ref_axis',(-1.,0.,0.));
#323=DIRECTION('center_axis',(0.,0.,-1.));
#324=DIRECTION('ref_axis',(-1.,0.,0.));
#325=DIRECTION('center_axis',(0.,0.,1.));
#326=DIRECTION('ref_axis',(-1.,0.,0.));
#327=DIRECTION('center_axis',(0.,1.,0.));
#328=DIRECTION('ref_axis',(-1.,0.,0.));
#329=DIRECTION('',(1.,0.,0.));
#330=DIRECTION('',(0.,0.,1.));
#331=DIRECTION('',(-1.,0.,0.));
#332=DIRECTION('',(0.,0.,-1.));
#333=DIRECTION('',(-1.,0.,0.));
#334=DIRECTION('',(0.,0.,-1.));
#335=DIRECTION('center_axis',(0.,1.,0.));
#336=DIRECTION('ref_axis',(-1.,0.,0.));
#337=DIRECTION('',(1.,0.,0.));
#338=DIRECTION('',(0.,0.,1.));
#339=DIRECTION('',(-1.,0.,0.));
#340=DIRECTION('',(-1.93082265152201E-16,0.,1.));
#341=DIRECTION('',(-1.,0.,0.));
#342=DIRECTION('',(0.,0.,1.));
#343=DIRECTION('center_axis',(0.,0.,1.));
#344=DIRECTION('ref_axis',(-1.,0.,0.));
#345=DIRECTION('center_axis',(0.,0.,-1.));
#346=DIRECTION('ref_axis',(-1.,0.,0.));
#347=DIRECTION('center_axis',(0.,0.,1.));
#348=DIRECTION('ref_axis',(-1.,0.,0.));
#349=DIRECTION('center_axis',(-1.,0.,0.));
#350=DIRECTION('ref_axis',(0.,0.,1.));
#351=DIRECTION('',(0.,1.,0.));
#352=DIRECTION('',(0.,-1.,0.));
#353=DIRECTION('center_axis',(0.,0.,1.));
#354=DIRECTION('ref_axis',(1.,0.,0.));
#355=DIRECTION('',(0.,1.,0.));
#356=DIRECTION('center_axis',(-1.,0.,0.));
#357=DIRECTION('ref_axis',(0.,0.,1.));
#358=DIRECTION('',(0.,1.,0.));
#359=DIRECTION('center_axis',(1.,0.,0.));
#360=DIRECTION('ref_axis',(0.,0.,-1.));
#361=DIRECTION('',(0.,1.,0.));
#362=DIRECTION('',(0.,1.,0.));
#363=DIRECTION('center_axis',(0.,0.,1.));
#364=DIRECTION('ref_axis',(1.,0.,0.));
#365=DIRECTION('',(0.,1.,0.));
#366=DIRECTION('center_axis',(1.,0.,1.93082265152201E-16));
#367=DIRECTION('ref_axis',(1.93082265152201E-16,0.,-1.));
#368=DIRECTION('',(0.,1.,0.));
#369=DIRECTION('center_axis',(0.,0.,-1.));
#370=DIRECTION('ref_axis',(-1.,0.,0.));
#371=DIRECTION('center_axis',(0.,0.,-1.));
#372=DIRECTION('ref_axis',(1.,0.,0.));
#373=CARTESIAN_POINT('',(0.,0.,0.));
#374=CARTESIAN_POINT('Origin',(16.5713370220219,12.3,-180.));
#375=CARTESIAN_POINT('',(19.6464016234811,12.3,-180.));
#376=CARTESIAN_POINT('',(19.6464016234811,12.3,-174.25));
#377=CARTESIAN_POINT('',(19.6464016234811,12.3,-180.));
#378=CARTESIAN_POINT('',(16.5713370220219,12.3,-180.));
#379=CARTESIAN_POINT('',(8.28566851101097,12.3,-180.));
#380=CARTESIAN_POINT('',(16.5713370220219,12.3,-171.75));
#381=CARTESIAN_POINT('',(16.5713370220219,12.3,-180.));
#382=CARTESIAN_POINT('',(24.6464016234811,12.3,-171.75));
#383=CARTESIAN_POINT('',(20.6088693227515,12.3,-171.75));
#384=CARTESIAN_POINT('',(24.6464016234811,12.3,-174.25));
#385=CARTESIAN_POINT('',(24.6464016234811,12.3,-177.125));
#386=CARTESIAN_POINT('',(18.1088693227515,12.3,-174.25));
#387=CARTESIAN_POINT('Origin',(0.933846434706509,12.3,-180.));
#388=CARTESIAN_POINT('',(8.5002740218441,12.3,-174.25));
#389=CARTESIAN_POINT('',(8.5002740218441,12.3,-180.));
#390=CARTESIAN_POINT('',(8.5002740218441,12.3,-177.125));
#391=CARTESIAN_POINT('',(3.5002740218441,12.3,-174.25));
#392=CARTESIAN_POINT('',(2.2170602282753,12.3,-174.25));
#393=CARTESIAN_POINT('',(3.5002740218441,12.3,-171.75));
#394=CARTESIAN_POINT('',(3.5002740218441,12.3,-175.875));
#395=CARTESIAN_POINT('',(11.5753386233032,12.3,-171.75));
#396=CARTESIAN_POINT('',(12.7901240290938,12.3,-171.75));
#397=CARTESIAN_POINT('',(11.5753386233032,12.3,-180.));
#398=CARTESIAN_POINT('',(11.5753386233032,12.3,-180.));
#399=CARTESIAN_POINT('',(0.466923217353254,12.3,-180.));
#400=CARTESIAN_POINT('Origin',(14.0733378226626,12.4,-180.));
#401=CARTESIAN_POINT('Origin',(14.0733378226626,12.4,-171.75));
#402=CARTESIAN_POINT('Origin',(14.0733378226626,12.4,-180.));
#403=CARTESIAN_POINT('Origin',(26.2061081557714,2.6,-180.));
#404=CARTESIAN_POINT('',(16.5713370220219,2.6,-171.75));
#405=CARTESIAN_POINT('',(24.6464016234811,2.6,-171.75));
#406=CARTESIAN_POINT('',(25.4262548896263,2.6,-171.75));
#407=CARTESIAN_POINT('',(16.5713370220219,2.6,-180.));
#408=CARTESIAN_POINT('',(16.5713370220219,2.6,-180.));
#409=CARTESIAN_POINT('',(19.6464016234811,2.6,-180.));
#410=CARTESIAN_POINT('',(13.1030540778857,2.6,-180.));
#411=CARTESIAN_POINT('',(19.6464016234811,2.6,-174.25));
#412=CARTESIAN_POINT('',(19.6464016234811,2.6,-180.));
#413=CARTESIAN_POINT('',(24.6464016234811,2.6,-174.25));
#414=CARTESIAN_POINT('',(22.9262548896263,2.6,-174.25));
#415=CARTESIAN_POINT('',(24.6464016234811,2.6,-177.125));
#416=CARTESIAN_POINT('Origin',(11.5753386233032,2.6,-180.));
#417=CARTESIAN_POINT('',(3.5002740218441,2.6,-171.75));
#418=CARTESIAN_POINT('',(11.5753386233032,2.6,-171.75));
#419=CARTESIAN_POINT('',(18.1108701233921,2.6,-171.75));
#420=CARTESIAN_POINT('',(3.5002740218441,2.6,-174.25));
#421=CARTESIAN_POINT('',(3.5002740218441,2.6,-175.875));
#422=CARTESIAN_POINT('',(8.5002740218441,2.6,-174.25));
#423=CARTESIAN_POINT('',(7.53780632257366,2.6,-174.25));
#424=CARTESIAN_POINT('',(8.5002740218441,2.6,-180.));
#425=CARTESIAN_POINT('',(8.5002740218441,2.6,-177.125));
#426=CARTESIAN_POINT('',(11.5753386233032,2.6,-180.));
#427=CARTESIAN_POINT('',(5.78766931165161,2.6,-180.));
#428=CARTESIAN_POINT('',(11.5753386233032,2.6,-180.));
#429=CARTESIAN_POINT('Origin',(14.0733378226626,2.5,-180.));
#430=CARTESIAN_POINT('Origin',(14.0733378226626,2.5,-171.75));
#431=CARTESIAN_POINT('Origin',(14.0733378226626,2.5,-180.));
#432=CARTESIAN_POINT('Origin',(19.6464016234811,0.,-180.));
#433=CARTESIAN_POINT('',(19.6464016234811,0.,-174.25));
#434=CARTESIAN_POINT('',(19.6464016234811,0.,-180.));
#435=CARTESIAN_POINT('Origin',(19.6464016234811,0.,-174.25));
#436=CARTESIAN_POINT('',(24.6464016234811,0.,-174.25));
#437=CARTESIAN_POINT('Origin',(24.6464016234811,0.,-174.25));
#438=CARTESIAN_POINT('',(24.6464016234811,0.,-171.75));
#439=CARTESIAN_POINT('Origin',(3.5002740218441,0.,-171.75));
#440=CARTESIAN_POINT('',(3.5002740218441,0.,-174.25));
#441=CARTESIAN_POINT('',(3.5002740218441,0.,-171.75));
#442=CARTESIAN_POINT('Origin',(3.5002740218441,0.,-174.25));
#443=CARTESIAN_POINT('',(8.5002740218441,0.,-174.25));
#444=CARTESIAN_POINT('Origin',(8.5002740218441,0.,-174.25));
#445=CARTESIAN_POINT('',(8.5002740218441,0.,-180.));
#446=CARTESIAN_POINT('Origin',(24.6464016234811,0.,-171.75));
#447=CARTESIAN_POINT('Origin',(0.,0.,-180.));
#448=UNCERTAINTY_MEASURE_WITH_UNIT(LENGTH_MEASURE(0.01),#452,
'DISTANCE_ACCURACY_VALUE',
'Maximum model space distance between geometric entities at asserted c
onnectivities');
#449=UNCERTAINTY_MEASURE_WITH_UNIT(LENGTH_MEASURE(0.01),#452,
'DISTANCE_ACCURACY_VALUE',
'Maximum model space distance between geometric entities at asserted c
onnectivities');
#450=(
GEOMETRIC_REPRESENTATION_CONTEXT(3)
GLOBAL_UNCERTAINTY_ASSIGNED_CONTEXT((#448))
GLOBAL_UNIT_ASSIGNED_CONTEXT((#452,#454,#455))
REPRESENTATION_CONTEXT('','3D')
);
#451=(
GEOMETRIC_REPRESENTATION_CONTEXT(3)
GLOBAL_UNCERTAINTY_ASSIGNED_CONTEXT((#449))
GLOBAL_UNIT_ASSIGNED_CONTEXT((#452,#454,#455))
REPRESENTATION_CONTEXT('','3D')
);
#452=(
LENGTH_UNIT()
NAMED_UNIT(*)
SI_UNIT(.MILLI.,.METRE.)
);
#453=(
LENGTH_UNIT()
NAMED_UNIT(*)
SI_UNIT($,.METRE.)
);
#454=(
NAMED_UNIT(*)
PLANE_ANGLE_UNIT()
SI_UNIT($,.RADIAN.)
);
#455=(
NAMED_UNIT(*)
SI_UNIT($,.STERADIAN.)
SOLID_ANGLE_UNIT()
);
#456=SHAPE_DEFINITION_REPRESENTATION(#457,#458);
#457=PRODUCT_DEFINITION_SHAPE('',$,#460);
#458=SHAPE_REPRESENTATION('',(#284),#450);
#459=PRODUCT_DEFINITION_CONTEXT('part definition',#464,'design');
#460=PRODUCT_DEFINITION('Power Cable Spacer','Power Cable Spacer',#461,
#459);
#461=PRODUCT_DEFINITION_FORMATION('',$,#466);
#462=PRODUCT_RELATED_PRODUCT_CATEGORY('Power Cable Spacer',
'Power Cable Spacer',(#466));
#463=APPLICATION_PROTOCOL_DEFINITION('international standard',
'automotive_design',2009,#464);
#464=APPLICATION_CONTEXT(
'Core Data for Automotive Mechanical Design Process');
#465=PRODUCT_CONTEXT('part definition',#464,'mechanical');
#466=PRODUCT('Power Cable Spacer','Power Cable Spacer',$,(#465));
#467=PRESENTATION_STYLE_ASSIGNMENT((#468));
#468=SURFACE_STYLE_USAGE(.BOTH.,#469);
#469=SURFACE_SIDE_STYLE('',(#470));
#470=SURFACE_STYLE_FILL_AREA(#471);
#471=FILL_AREA_STYLE('Steel - Satin',(#472));
#472=FILL_AREA_STYLE_COLOUR('Steel - Satin',#473);
#473=COLOUR_RGB('Steel - Satin',0.627450980392157,0.627450980392157,0.627450980392157);
ENDSEC;
END-ISO-10303-21;
