ISO-10303-21;
HEADER;
/* Generated by software containing ST-Developer
 * from STEP Tools, Inc. (www.steptools.com) 
 */

FILE_DESCRIPTION(
/* description */ (''),
/* implementation_level */ '2;1');

FILE_NAME(
/* name */ 'Power Cable Blank.step',
/* time_stamp */ '2025-05-01T11:08:29+01:00',
/* author */ (''),
/* organization */ (''),
/* preprocessor_version */ 'ST-DEVELOPER v20.1',
/* originating_system */ 'Autodesk Translation Framework v14.4.0.0',
/* authorisation */ '');

FILE_SCHEMA (('AUTOMOTIVE_DESIGN { 1 0 10303 214 3 1 1 }'));
ENDSEC;

DATA;
#10=MECHANICAL_DESIGN_GEOMETRIC_PRESENTATION_REPRESENTATION('',(#13),#383);
#11=SHAPE_REPRESENTATION_RELATIONSHIP('SRR','None',#390,#12);
#12=ADVANCED_BREP_SHAPE_REPRESENTATION('',(#14),#382);
#13=STYLED_ITEM('',(#399),#14);
#14=MANIFOLD_SOLID_BREP('Power Cable Blank',#231);
#15=PLANE('',#248);
#16=PLANE('',#249);
#17=PLANE('',#250);
#18=PLANE('',#251);
#19=PLANE('',#252);
#20=PLANE('',#253);
#21=PLANE('',#254);
#22=PLANE('',#255);
#23=PLANE('',#256);
#24=PLANE('',#257);
#25=PLANE('',#258);
#26=FACE_OUTER_BOUND('',#38,.T.);
#27=FACE_OUTER_BOUND('',#39,.T.);
#28=FACE_OUTER_BOUND('',#40,.T.);
#29=FACE_OUTER_BOUND('',#41,.T.);
#30=FACE_OUTER_BOUND('',#42,.T.);
#31=FACE_OUTER_BOUND('',#43,.T.);
#32=FACE_OUTER_BOUND('',#44,.T.);
#33=FACE_OUTER_BOUND('',#45,.T.);
#34=FACE_OUTER_BOUND('',#46,.T.);
#35=FACE_OUTER_BOUND('',#47,.T.);
#36=FACE_OUTER_BOUND('',#48,.T.);
#37=FACE_OUTER_BOUND('',#49,.T.);
#38=EDGE_LOOP('',(#158,#159,#160,#161));
#39=EDGE_LOOP('',(#162,#163,#164,#165,#166,#167));
#40=EDGE_LOOP('',(#168,#169,#170,#171,#172,#173));
#41=EDGE_LOOP('',(#174,#175,#176,#177));
#42=EDGE_LOOP('',(#178,#179,#180,#181));
#43=EDGE_LOOP('',(#182,#183,#184,#185));
#44=EDGE_LOOP('',(#186,#187,#188,#189,#190,#191));
#45=EDGE_LOOP('',(#192,#193,#194,#195,#196,#197));
#46=EDGE_LOOP('',(#198,#199,#200,#201));
#47=EDGE_LOOP('',(#202,#203,#204,#205));
#48=EDGE_LOOP('',(#206,#207,#208,#209));
#49=EDGE_LOOP('',(#210,#211,#212,#213,#214,#215,#216,#217));
#50=LINE('',#323,#78);
#51=LINE('',#326,#79);
#52=LINE('',#329,#80);
#53=LINE('',#331,#81);
#54=LINE('',#333,#82);
#55=LINE('',#335,#83);
#56=LINE('',#336,#84);
#57=LINE('',#339,#85);
#58=LINE('',#341,#86);
#59=LINE('',#343,#87);
#60=LINE('',#345,#88);
#61=LINE('',#346,#89);
#62=LINE('',#349,#90);
#63=LINE('',#351,#91);
#64=LINE('',#352,#92);
#65=LINE('',#355,#93);
#66=LINE('',#356,#94);
#67=LINE('',#359,#95);
#68=LINE('',#360,#96);
#69=LINE('',#363,#97);
#70=LINE('',#364,#98);
#71=LINE('',#367,#99);
#72=LINE('',#368,#100);
#73=LINE('',#371,#101);
#74=LINE('',#372,#102);
#75=LINE('',#375,#103);
#76=LINE('',#376,#104);
#77=LINE('',#378,#105);
#78=VECTOR('',#265,10.);
#79=VECTOR('',#268,10.);
#80=VECTOR('',#271,10.);
#81=VECTOR('',#272,10.);
#82=VECTOR('',#273,10.);
#83=VECTOR('',#274,10.);
#84=VECTOR('',#275,10.);
#85=VECTOR('',#278,10.);
#86=VECTOR('',#279,10.);
#87=VECTOR('',#280,10.);
#88=VECTOR('',#281,10.);
#89=VECTOR('',#282,10.);
#90=VECTOR('',#285,10.);
#91=VECTOR('',#286,10.);
#92=VECTOR('',#287,10.);
#93=VECTOR('',#290,10.);
#94=VECTOR('',#291,10.);
#95=VECTOR('',#294,10.);
#96=VECTOR('',#295,10.);
#97=VECTOR('',#298,10.);
#98=VECTOR('',#299,10.);
#99=VECTOR('',#302,10.);
#100=VECTOR('',#303,10.);
#101=VECTOR('',#306,10.);
#102=VECTOR('',#307,10.);
#103=VECTOR('',#310,10.);
#104=VECTOR('',#311,10.);
#105=VECTOR('',#314,10.);
#106=CIRCLE('',#246,2.5);
#107=CIRCLE('',#247,2.5);
#108=VERTEX_POINT('',#319);
#109=VERTEX_POINT('',#320);
#110=VERTEX_POINT('',#322);
#111=VERTEX_POINT('',#324);
#112=VERTEX_POINT('',#328);
#113=VERTEX_POINT('',#330);
#114=VERTEX_POINT('',#332);
#115=VERTEX_POINT('',#334);
#116=VERTEX_POINT('',#338);
#117=VERTEX_POINT('',#340);
#118=VERTEX_POINT('',#342);
#119=VERTEX_POINT('',#344);
#120=VERTEX_POINT('',#348);
#121=VERTEX_POINT('',#350);
#122=VERTEX_POINT('',#354);
#123=VERTEX_POINT('',#358);
#124=VERTEX_POINT('',#362);
#125=VERTEX_POINT('',#366);
#126=VERTEX_POINT('',#370);
#127=VERTEX_POINT('',#374);
#128=EDGE_CURVE('',#108,#109,#106,.T.);
#129=EDGE_CURVE('',#110,#108,#50,.T.);
#130=EDGE_CURVE('',#111,#110,#107,.T.);
#131=EDGE_CURVE('',#111,#109,#51,.T.);
#132=EDGE_CURVE('',#109,#112,#52,.T.);
#133=EDGE_CURVE('',#113,#111,#53,.T.);
#134=EDGE_CURVE('',#114,#113,#54,.T.);
#135=EDGE_CURVE('',#115,#114,#55,.T.);
#136=EDGE_CURVE('',#112,#115,#56,.T.);
#137=EDGE_CURVE('',#116,#108,#57,.T.);
#138=EDGE_CURVE('',#117,#116,#58,.T.);
#139=EDGE_CURVE('',#118,#117,#59,.T.);
#140=EDGE_CURVE('',#119,#118,#60,.T.);
#141=EDGE_CURVE('',#110,#119,#61,.T.);
#142=EDGE_CURVE('',#120,#113,#62,.T.);
#143=EDGE_CURVE('',#121,#120,#63,.T.);
#144=EDGE_CURVE('',#114,#121,#64,.T.);
#145=EDGE_CURVE('',#122,#121,#65,.T.);
#146=EDGE_CURVE('',#115,#122,#66,.T.);
#147=EDGE_CURVE('',#123,#122,#67,.T.);
#148=EDGE_CURVE('',#112,#123,#68,.T.);
#149=EDGE_CURVE('',#124,#123,#69,.T.);
#150=EDGE_CURVE('',#116,#124,#70,.T.);
#151=EDGE_CURVE('',#119,#125,#71,.T.);
#152=EDGE_CURVE('',#125,#120,#72,.T.);
#153=EDGE_CURVE('',#118,#126,#73,.T.);
#154=EDGE_CURVE('',#125,#126,#74,.T.);
#155=EDGE_CURVE('',#117,#127,#75,.T.);
#156=EDGE_CURVE('',#126,#127,#76,.T.);
#157=EDGE_CURVE('',#127,#124,#77,.T.);
#158=ORIENTED_EDGE('',*,*,#128,.F.);
#159=ORIENTED_EDGE('',*,*,#129,.F.);
#160=ORIENTED_EDGE('',*,*,#130,.F.);
#161=ORIENTED_EDGE('',*,*,#131,.T.);
#162=ORIENTED_EDGE('',*,*,#132,.F.);
#163=ORIENTED_EDGE('',*,*,#131,.F.);
#164=ORIENTED_EDGE('',*,*,#133,.F.);
#165=ORIENTED_EDGE('',*,*,#134,.F.);
#166=ORIENTED_EDGE('',*,*,#135,.F.);
#167=ORIENTED_EDGE('',*,*,#136,.F.);
#168=ORIENTED_EDGE('',*,*,#137,.F.);
#169=ORIENTED_EDGE('',*,*,#138,.F.);
#170=ORIENTED_EDGE('',*,*,#139,.F.);
#171=ORIENTED_EDGE('',*,*,#140,.F.);
#172=ORIENTED_EDGE('',*,*,#141,.F.);
#173=ORIENTED_EDGE('',*,*,#129,.T.);
#174=ORIENTED_EDGE('',*,*,#134,.T.);
#175=ORIENTED_EDGE('',*,*,#142,.F.);
#176=ORIENTED_EDGE('',*,*,#143,.F.);
#177=ORIENTED_EDGE('',*,*,#144,.F.);
#178=ORIENTED_EDGE('',*,*,#135,.T.);
#179=ORIENTED_EDGE('',*,*,#144,.T.);
#180=ORIENTED_EDGE('',*,*,#145,.F.);
#181=ORIENTED_EDGE('',*,*,#146,.F.);
#182=ORIENTED_EDGE('',*,*,#136,.T.);
#183=ORIENTED_EDGE('',*,*,#146,.T.);
#184=ORIENTED_EDGE('',*,*,#147,.F.);
#185=ORIENTED_EDGE('',*,*,#148,.F.);
#186=ORIENTED_EDGE('',*,*,#137,.T.);
#187=ORIENTED_EDGE('',*,*,#128,.T.);
#188=ORIENTED_EDGE('',*,*,#132,.T.);
#189=ORIENTED_EDGE('',*,*,#148,.T.);
#190=ORIENTED_EDGE('',*,*,#149,.F.);
#191=ORIENTED_EDGE('',*,*,#150,.F.);
#192=ORIENTED_EDGE('',*,*,#141,.T.);
#193=ORIENTED_EDGE('',*,*,#151,.T.);
#194=ORIENTED_EDGE('',*,*,#152,.T.);
#195=ORIENTED_EDGE('',*,*,#142,.T.);
#196=ORIENTED_EDGE('',*,*,#133,.T.);
#197=ORIENTED_EDGE('',*,*,#130,.T.);
#198=ORIENTED_EDGE('',*,*,#140,.T.);
#199=ORIENTED_EDGE('',*,*,#153,.T.);
#200=ORIENTED_EDGE('',*,*,#154,.F.);
#201=ORIENTED_EDGE('',*,*,#151,.F.);
#202=ORIENTED_EDGE('',*,*,#139,.T.);
#203=ORIENTED_EDGE('',*,*,#155,.T.);
#204=ORIENTED_EDGE('',*,*,#156,.F.);
#205=ORIENTED_EDGE('',*,*,#153,.F.);
#206=ORIENTED_EDGE('',*,*,#138,.T.);
#207=ORIENTED_EDGE('',*,*,#150,.T.);
#208=ORIENTED_EDGE('',*,*,#157,.F.);
#209=ORIENTED_EDGE('',*,*,#155,.F.);
#210=ORIENTED_EDGE('',*,*,#143,.T.);
#211=ORIENTED_EDGE('',*,*,#152,.F.);
#212=ORIENTED_EDGE('',*,*,#154,.T.);
#213=ORIENTED_EDGE('',*,*,#156,.T.);
#214=ORIENTED_EDGE('',*,*,#157,.T.);
#215=ORIENTED_EDGE('',*,*,#149,.T.);
#216=ORIENTED_EDGE('',*,*,#147,.T.);
#217=ORIENTED_EDGE('',*,*,#145,.T.);
#218=CYLINDRICAL_SURFACE('',#245,2.5);
#219=ADVANCED_FACE('',(#26),#218,.F.);
#220=ADVANCED_FACE('',(#27),#15,.F.);
#221=ADVANCED_FACE('',(#28),#16,.F.);
#222=ADVANCED_FACE('',(#29),#17,.F.);
#223=ADVANCED_FACE('',(#30),#18,.F.);
#224=ADVANCED_FACE('',(#31),#19,.F.);
#225=ADVANCED_FACE('',(#32),#20,.F.);
#226=ADVANCED_FACE('',(#33),#21,.T.);
#227=ADVANCED_FACE('',(#34),#22,.F.);
#228=ADVANCED_FACE('',(#35),#23,.F.);
#229=ADVANCED_FACE('',(#36),#24,.F.);
#230=ADVANCED_FACE('',(#37),#25,.F.);
#231=CLOSED_SHELL('',(#219,#220,#221,#222,#223,#224,#225,#226,#227,#228,
#229,#230));
#232=DERIVED_UNIT_ELEMENT(#234,1.);
#233=DERIVED_UNIT_ELEMENT(#385,-3.);
#234=(
MASS_UNIT()
NAMED_UNIT(*)
SI_UNIT(.KILO.,.GRAM.)
);
#235=DERIVED_UNIT((#232,#233));
#236=MEASURE_REPRESENTATION_ITEM('density measure',
POSITIVE_RATIO_MEASURE(7850.),#235);
#237=PROPERTY_DEFINITION_REPRESENTATION(#242,#239);
#238=PROPERTY_DEFINITION_REPRESENTATION(#243,#240);
#239=REPRESENTATION('material name',(#241),#382);
#240=REPRESENTATION('density',(#236),#382);
#241=DESCRIPTIVE_REPRESENTATION_ITEM('Steel','Steel');
#242=PROPERTY_DEFINITION('material property','material name',#392);
#243=PROPERTY_DEFINITION('material property','density of part',#392);
#244=AXIS2_PLACEMENT_3D('',#317,#259,#260);
#245=AXIS2_PLACEMENT_3D('',#318,#261,#262);
#246=AXIS2_PLACEMENT_3D('',#321,#263,#264);
#247=AXIS2_PLACEMENT_3D('',#325,#266,#267);
#248=AXIS2_PLACEMENT_3D('',#327,#269,#270);
#249=AXIS2_PLACEMENT_3D('',#337,#276,#277);
#250=AXIS2_PLACEMENT_3D('',#347,#283,#284);
#251=AXIS2_PLACEMENT_3D('',#353,#288,#289);
#252=AXIS2_PLACEMENT_3D('',#357,#292,#293);
#253=AXIS2_PLACEMENT_3D('',#361,#296,#297);
#254=AXIS2_PLACEMENT_3D('',#365,#300,#301);
#255=AXIS2_PLACEMENT_3D('',#369,#304,#305);
#256=AXIS2_PLACEMENT_3D('',#373,#308,#309);
#257=AXIS2_PLACEMENT_3D('',#377,#312,#313);
#258=AXIS2_PLACEMENT_3D('',#379,#315,#316);
#259=DIRECTION('axis',(0.,0.,1.));
#260=DIRECTION('refdir',(1.,0.,0.));
#261=DIRECTION('center_axis',(0.,0.,1.));
#262=DIRECTION('ref_axis',(-1.,0.,0.));
#263=DIRECTION('center_axis',(0.,0.,-1.));
#264=DIRECTION('ref_axis',(-1.,0.,0.));
#265=DIRECTION('',(0.,0.,1.));
#266=DIRECTION('center_axis',(0.,0.,1.));
#267=DIRECTION('ref_axis',(-1.,0.,0.));
#268=DIRECTION('',(0.,0.,1.));
#269=DIRECTION('center_axis',(0.,1.,0.));
#270=DIRECTION('ref_axis',(-1.,0.,0.));
#271=DIRECTION('',(1.,0.,0.));
#272=DIRECTION('',(-1.,0.,0.));
#273=DIRECTION('',(0.,0.,-1.));
#274=DIRECTION('',(-1.,0.,0.));
#275=DIRECTION('',(0.,0.,-1.));
#276=DIRECTION('center_axis',(0.,1.,0.));
#277=DIRECTION('ref_axis',(-1.,0.,0.));
#278=DIRECTION('',(1.,0.,0.));
#279=DIRECTION('',(0.,0.,1.));
#280=DIRECTION('',(-1.,0.,0.));
#281=DIRECTION('',(-1.93082265152201E-16,0.,1.));
#282=DIRECTION('',(-1.,0.,0.));
#283=DIRECTION('center_axis',(-1.,0.,0.));
#284=DIRECTION('ref_axis',(0.,0.,1.));
#285=DIRECTION('',(0.,-1.,0.));
#286=DIRECTION('',(0.,-0.600420225325875,-0.799684658487097));
#287=DIRECTION('',(0.,1.,0.));
#288=DIRECTION('center_axis',(0.,0.,1.));
#289=DIRECTION('ref_axis',(1.,0.,0.));
#290=DIRECTION('',(-1.,0.,0.));
#291=DIRECTION('',(0.,1.,0.));
#292=DIRECTION('center_axis',(-1.,0.,0.));
#293=DIRECTION('ref_axis',(0.,0.,1.));
#294=DIRECTION('',(0.,-0.600420225325875,-0.799684658487097));
#295=DIRECTION('',(0.,1.,0.));
#296=DIRECTION('center_axis',(0.,0.,-1.));
#297=DIRECTION('ref_axis',(-1.,0.,0.));
#298=DIRECTION('',(1.,0.,0.));
#299=DIRECTION('',(0.,1.,0.));
#300=DIRECTION('center_axis',(0.,0.,-1.));
#301=DIRECTION('ref_axis',(1.,0.,0.));
#302=DIRECTION('',(0.,1.,0.));
#303=DIRECTION('',(1.,0.,0.));
#304=DIRECTION('center_axis',(1.,0.,1.93082265152201E-16));
#305=DIRECTION('ref_axis',(1.93082265152201E-16,0.,-1.));
#306=DIRECTION('',(0.,1.,0.));
#307=DIRECTION('',(-1.54404925268153E-16,0.600420225325875,0.799684658487097));
#308=DIRECTION('center_axis',(0.,0.,1.));
#309=DIRECTION('ref_axis',(1.,0.,0.));
#310=DIRECTION('',(0.,1.,0.));
#311=DIRECTION('',(-1.,0.,0.));
#312=DIRECTION('center_axis',(1.,0.,0.));
#313=DIRECTION('ref_axis',(0.,0.,-1.));
#314=DIRECTION('',(0.,0.600420225325875,0.799684658487097));
#315=DIRECTION('center_axis',(0.,-0.799684658487097,0.600420225325875));
#316=DIRECTION('ref_axis',(0.,-0.600420225325875,-0.799684658487097));
#317=CARTESIAN_POINT('',(0.,0.,0.));
#318=CARTESIAN_POINT('Origin',(14.0733378226626,12.4,-180.));
#319=CARTESIAN_POINT('',(11.5733378226626,12.4,-171.75));
#320=CARTESIAN_POINT('',(16.5733378226626,12.4,-171.75));
#321=CARTESIAN_POINT('Origin',(14.0733378226626,12.4,-171.75));
#322=CARTESIAN_POINT('',(11.5733378226626,12.4,-180.));
#323=CARTESIAN_POINT('',(11.5733378226626,12.4,-180.));
#324=CARTESIAN_POINT('',(16.5733378226626,12.4,-180.));
#325=CARTESIAN_POINT('Origin',(14.0733378226626,12.4,-180.));
#326=CARTESIAN_POINT('',(16.5733378226626,12.4,-180.));
#327=CARTESIAN_POINT('Origin',(26.2061081557714,12.4,-180.));
#328=CARTESIAN_POINT('',(24.6464016234811,12.4,-171.75));
#329=CARTESIAN_POINT('',(25.4262548896263,12.4,-171.75));
#330=CARTESIAN_POINT('',(19.6464016234811,12.4,-180.));
#331=CARTESIAN_POINT('',(13.1030540778857,12.4,-180.));
#332=CARTESIAN_POINT('',(19.6464016234811,12.4,-174.25));
#333=CARTESIAN_POINT('',(19.6464016234811,12.4,-180.));
#334=CARTESIAN_POINT('',(24.6464016234811,12.4,-174.25));
#335=CARTESIAN_POINT('',(22.9262548896263,12.4,-174.25));
#336=CARTESIAN_POINT('',(24.6464016234811,12.4,-177.125));
#337=CARTESIAN_POINT('Origin',(11.5733378226626,12.4,-180.));
#338=CARTESIAN_POINT('',(3.5002740218441,12.4,-171.75));
#339=CARTESIAN_POINT('',(18.1098697230718,12.4,-171.75));
#340=CARTESIAN_POINT('',(3.5002740218441,12.4,-174.25));
#341=CARTESIAN_POINT('',(3.5002740218441,12.4,-175.875));
#342=CARTESIAN_POINT('',(8.5002740218441,12.4,-174.25));
#343=CARTESIAN_POINT('',(7.53680592225334,12.4,-174.25));
#344=CARTESIAN_POINT('',(8.5002740218441,12.4,-180.));
#345=CARTESIAN_POINT('',(8.5002740218441,12.4,-177.125));
#346=CARTESIAN_POINT('',(5.78666891133129,12.4,-180.));
#347=CARTESIAN_POINT('Origin',(19.6464016234811,0.,-180.));
#348=CARTESIAN_POINT('',(19.6464016234811,26.4946007960066,-180.));
#349=CARTESIAN_POINT('',(19.6464016234811,0.,-180.));
#350=CARTESIAN_POINT('',(19.6464016234811,30.8118229147294,-174.25));
#351=CARTESIAN_POINT('',(19.6464016234811,58.4715896940382,-137.410649462234));
#352=CARTESIAN_POINT('',(19.6464016234811,0.,-174.25));
#353=CARTESIAN_POINT('Origin',(19.6464016234811,0.,-174.25));
#354=CARTESIAN_POINT('',(24.6464016234811,30.8118229147294,-174.25));
#355=CARTESIAN_POINT('',(9.82333782266258,30.8118229147294,-174.25));
#356=CARTESIAN_POINT('',(24.6464016234811,0.,-174.25));
#357=CARTESIAN_POINT('Origin',(24.6464016234811,0.,-174.25));
#358=CARTESIAN_POINT('',(24.6464016234811,32.6888760098263,-171.75));
#359=CARTESIAN_POINT('',(24.6464016234811,59.8520118671988,-135.572099747303));
#360=CARTESIAN_POINT('',(24.6464016234811,0.,-171.75));
#361=CARTESIAN_POINT('Origin',(24.6464016234811,0.,-171.75));
#362=CARTESIAN_POINT('',(3.5002740218441,32.6888760098263,-171.75));
#363=CARTESIAN_POINT('',(12.3233378226626,32.6888760098263,-171.75));
#364=CARTESIAN_POINT('',(3.5002740218441,0.,-171.75));
#365=CARTESIAN_POINT('Origin',(0.,0.,-180.));
#366=CARTESIAN_POINT('',(8.5002740218441,26.4946007960066,-180.));
#367=CARTESIAN_POINT('',(8.5002740218441,0.,-180.));
#368=CARTESIAN_POINT('',(0.00013701092204832,26.4946007960066,-180.));
#369=CARTESIAN_POINT('Origin',(8.5002740218441,0.,-174.25));
#370=CARTESIAN_POINT('',(8.5002740218441,30.8118229147294,-174.25));
#371=CARTESIAN_POINT('',(8.5002740218441,0.,-174.25));
#372=CARTESIAN_POINT('',(8.50027402184409,59.8520118671988,-135.572099747303));
#373=CARTESIAN_POINT('Origin',(3.5002740218441,0.,-174.25));
#374=CARTESIAN_POINT('',(3.5002740218441,30.8118229147294,-174.25));
#375=CARTESIAN_POINT('',(3.5002740218441,0.,-174.25));
#376=CARTESIAN_POINT('',(1.7502740218441,30.8118229147294,-174.25));
#377=CARTESIAN_POINT('Origin',(3.5002740218441,0.,-171.75));
#378=CARTESIAN_POINT('',(3.5002740218441,60.4521954207469,-134.772730306028));
#379=CARTESIAN_POINT('Origin',(0.000274021844096639,100.,-82.1));
#380=UNCERTAINTY_MEASURE_WITH_UNIT(LENGTH_MEASURE(0.01),#384,
'DISTANCE_ACCURACY_VALUE',
'Maximum model space distance between geometric entities at asserted c
onnectivities');
#381=UNCERTAINTY_MEASURE_WITH_UNIT(LENGTH_MEASURE(0.01),#384,
'DISTANCE_ACCURACY_VALUE',
'Maximum model space distance between geometric entities at asserted c
onnectivities');
#382=(
GEOMETRIC_REPRESENTATION_CONTEXT(3)
GLOBAL_UNCERTAINTY_ASSIGNED_CONTEXT((#380))
GLOBAL_UNIT_ASSIGNED_CONTEXT((#384,#386,#387))
REPRESENTATION_CONTEXT('','3D')
);
#383=(
GEOMETRIC_REPRESENTATION_CONTEXT(3)
GLOBAL_UNCERTAINTY_ASSIGNED_CONTEXT((#381))
GLOBAL_UNIT_ASSIGNED_CONTEXT((#384,#386,#387))
REPRESENTATION_CONTEXT('','3D')
);
#384=(
LENGTH_UNIT()
NAMED_UNIT(*)
SI_UNIT(.MILLI.,.METRE.)
);
#385=(
LENGTH_UNIT()
NAMED_UNIT(*)
SI_UNIT($,.METRE.)
);
#386=(
NAMED_UNIT(*)
PLANE_ANGLE_UNIT()
SI_UNIT($,.RADIAN.)
);
#387=(
NAMED_UNIT(*)
SI_UNIT($,.STERADIAN.)
SOLID_ANGLE_UNIT()
);
#388=SHAPE_DEFINITION_REPRESENTATION(#389,#390);
#389=PRODUCT_DEFINITION_SHAPE('',$,#392);
#390=SHAPE_REPRESENTATION('',(#244),#382);
#391=PRODUCT_DEFINITION_CONTEXT('part definition',#396,'design');
#392=PRODUCT_DEFINITION('Power Cable Blank','Power Cable Blank',#393,#391);
#393=PRODUCT_DEFINITION_FORMATION('',$,#398);
#394=PRODUCT_RELATED_PRODUCT_CATEGORY('Power Cable Blank',
'Power Cable Blank',(#398));
#395=APPLICATION_PROTOCOL_DEFINITION('international standard',
'automotive_design',2009,#396);
#396=APPLICATION_CONTEXT(
'Core Data for Automotive Mechanical Design Process');
#397=PRODUCT_CONTEXT('part definition',#396,'mechanical');
#398=PRODUCT('Power Cable Blank','Power Cable Blank',$,(#397));
#399=PRESENTATION_STYLE_ASSIGNMENT((#400));
#400=SURFACE_STYLE_USAGE(.BOTH.,#401);
#401=SURFACE_SIDE_STYLE('',(#402));
#402=SURFACE_STYLE_FILL_AREA(#403);
#403=FILL_AREA_STYLE('Steel - Satin',(#404));
#404=FILL_AREA_STYLE_COLOUR('Steel - Satin',#405);
#405=COLOUR_RGB('Steel - Satin',0.627450980392157,0.627450980392157,0.627450980392157);
ENDSEC;
END-ISO-10303-21;
