ISO-10303-21;
HEADER;
/* Generated by software containing ST-Developer
 * from STEP Tools, Inc. (www.steptools.com) 
 */

FILE_DESCRIPTION(
/* description */ (''),
/* implementation_level */ '2;1');

FILE_NAME(
/* name */ 'PWM Pin Holder.step',
/* time_stamp */ '2025-05-01T11:09:45+01:00',
/* author */ (''),
/* organization */ (''),
/* preprocessor_version */ 'ST-DEVELOPER v20.1',
/* originating_system */ 'Autodesk Translation Framework v14.4.0.0',
/* authorisation */ '');

FILE_SCHEMA (('AUTOMOTIVE_DESIGN { 1 0 10303 214 3 1 1 }'));
ENDSEC;

DATA;
#10=MECHANICAL_DESIGN_GEOMETRIC_PRESENTATION_REPRESENTATION('',(#13),#627);
#11=SHAPE_REPRESENTATION_RELATIONSHIP('SRR','None',#634,#12);
#12=ADVANCED_BREP_SHAPE_REPRESENTATION('',(#14),#626);
#13=STYLED_ITEM('',(#643),#14);
#14=MANIFOLD_SOLID_BREP('PWM Pin Holder',#375);
#15=FACE_BOUND('',#137,.T.);
#16=FACE_BOUND('',#138,.T.);
#17=FACE_BOUND('',#141,.T.);
#18=FACE_BOUND('',#142,.T.);
#19=LINE('',#532,#59);
#20=LINE('',#539,#60);
#21=LINE('',#545,#61);
#22=LINE('',#547,#62);
#23=LINE('',#549,#63);
#24=LINE('',#550,#64);
#25=LINE('',#553,#65);
#26=LINE('',#555,#66);
#27=LINE('',#556,#67);
#28=LINE('',#559,#68);
#29=LINE('',#561,#69);
#30=LINE('',#562,#70);
#31=LINE('',#566,#71);
#32=LINE('',#570,#72);
#33=LINE('',#573,#73);
#34=LINE('',#575,#74);
#35=LINE('',#577,#75);
#36=LINE('',#579,#76);
#37=LINE('',#580,#77);
#38=LINE('',#584,#78);
#39=LINE('',#586,#79);
#40=LINE('',#587,#80);
#41=LINE('',#588,#81);
#42=LINE('',#591,#82);
#43=LINE('',#593,#83);
#44=LINE('',#595,#84);
#45=LINE('',#597,#85);
#46=LINE('',#599,#86);
#47=LINE('',#601,#87);
#48=LINE('',#602,#88);
#49=LINE('',#605,#89);
#50=LINE('',#606,#90);
#51=LINE('',#607,#91);
#52=LINE('',#610,#92);
#53=LINE('',#612,#93);
#54=LINE('',#613,#94);
#55=LINE('',#615,#95);
#56=LINE('',#617,#96);
#57=LINE('',#619,#97);
#58=LINE('',#622,#98);
#59=VECTOR('',#433,1.99999999999999);
#60=VECTOR('',#442,1.99999999999999);
#61=VECTOR('',#449,10.);
#62=VECTOR('',#450,10.);
#63=VECTOR('',#451,10.);
#64=VECTOR('',#452,10.);
#65=VECTOR('',#455,10.);
#66=VECTOR('',#456,10.);
#67=VECTOR('',#457,10.);
#68=VECTOR('',#460,10.);
#69=VECTOR('',#461,10.);
#70=VECTOR('',#462,10.);
#71=VECTOR('',#467,0.999999999999996);
#72=VECTOR('',#472,0.999999999999996);
#73=VECTOR('',#475,10.);
#74=VECTOR('',#476,10.);
#75=VECTOR('',#477,10.);
#76=VECTOR('',#478,10.);
#77=VECTOR('',#479,10.);
#78=VECTOR('',#482,10.);
#79=VECTOR('',#483,10.);
#80=VECTOR('',#484,10.);
#81=VECTOR('',#485,10.);
#82=VECTOR('',#488,10.);
#83=VECTOR('',#489,10.);
#84=VECTOR('',#490,10.);
#85=VECTOR('',#491,10.);
#86=VECTOR('',#492,10.);
#87=VECTOR('',#493,10.);
#88=VECTOR('',#494,10.);
#89=VECTOR('',#497,10.);
#90=VECTOR('',#498,10.);
#91=VECTOR('',#499,10.);
#92=VECTOR('',#502,10.);
#93=VECTOR('',#503,10.);
#94=VECTOR('',#504,10.);
#95=VECTOR('',#507,10.);
#96=VECTOR('',#510,10.);
#97=VECTOR('',#513,10.);
#98=VECTOR('',#518,10.);
#99=CYLINDRICAL_SURFACE('',#393,1.99999999999999);
#100=CYLINDRICAL_SURFACE('',#397,1.99999999999999);
#101=CYLINDRICAL_SURFACE('',#404,0.999999999999996);
#102=CYLINDRICAL_SURFACE('',#406,0.999999999999996);
#103=FACE_OUTER_BOUND('',#125,.T.);
#104=FACE_OUTER_BOUND('',#126,.T.);
#105=FACE_OUTER_BOUND('',#127,.T.);
#106=FACE_OUTER_BOUND('',#128,.T.);
#107=FACE_OUTER_BOUND('',#129,.T.);
#108=FACE_OUTER_BOUND('',#130,.T.);
#109=FACE_OUTER_BOUND('',#131,.T.);
#110=FACE_OUTER_BOUND('',#132,.T.);
#111=FACE_OUTER_BOUND('',#133,.T.);
#112=FACE_OUTER_BOUND('',#134,.T.);
#113=FACE_OUTER_BOUND('',#135,.T.);
#114=FACE_OUTER_BOUND('',#136,.T.);
#115=FACE_OUTER_BOUND('',#139,.T.);
#116=FACE_OUTER_BOUND('',#140,.T.);
#117=FACE_OUTER_BOUND('',#143,.T.);
#118=FACE_OUTER_BOUND('',#144,.T.);
#119=FACE_OUTER_BOUND('',#145,.T.);
#120=FACE_OUTER_BOUND('',#146,.T.);
#121=FACE_OUTER_BOUND('',#147,.T.);
#122=FACE_OUTER_BOUND('',#148,.T.);
#123=FACE_OUTER_BOUND('',#149,.T.);
#124=FACE_OUTER_BOUND('',#150,.T.);
#125=EDGE_LOOP('',(#239));
#126=EDGE_LOOP('',(#240));
#127=EDGE_LOOP('',(#241,#242,#243,#244));
#128=EDGE_LOOP('',(#245));
#129=EDGE_LOOP('',(#246,#247,#248,#249));
#130=EDGE_LOOP('',(#250));
#131=EDGE_LOOP('',(#251,#252,#253,#254));
#132=EDGE_LOOP('',(#255,#256,#257,#258));
#133=EDGE_LOOP('',(#259,#260,#261,#262));
#134=EDGE_LOOP('',(#263,#264,#265,#266));
#135=EDGE_LOOP('',(#267,#268,#269,#270));
#136=EDGE_LOOP('',(#271,#272,#273,#274,#275,#276,#277,#278));
#137=EDGE_LOOP('',(#279));
#138=EDGE_LOOP('',(#280));
#139=EDGE_LOOP('',(#281,#282,#283,#284,#285,#286));
#140=EDGE_LOOP('',(#287,#288,#289,#290,#291,#292,#293,#294));
#141=EDGE_LOOP('',(#295));
#142=EDGE_LOOP('',(#296));
#143=EDGE_LOOP('',(#297,#298,#299,#300,#301,#302));
#144=EDGE_LOOP('',(#303,#304,#305,#306));
#145=EDGE_LOOP('',(#307,#308,#309,#310));
#146=EDGE_LOOP('',(#311,#312,#313,#314));
#147=EDGE_LOOP('',(#315,#316,#317,#318));
#148=EDGE_LOOP('',(#319,#320,#321,#322));
#149=EDGE_LOOP('',(#323,#324,#325,#326));
#150=EDGE_LOOP('',(#327,#328,#329,#330,#331,#332,#333,#334));
#151=CIRCLE('',#390,0.999999999999996);
#152=CIRCLE('',#392,0.999999999999996);
#153=CIRCLE('',#394,1.99999999999999);
#154=CIRCLE('',#395,1.99999999999999);
#155=CIRCLE('',#398,1.99999999999999);
#156=CIRCLE('',#399,1.99999999999999);
#157=CIRCLE('',#405,0.999999999999996);
#158=CIRCLE('',#407,0.999999999999996);
#159=VERTEX_POINT('',#523);
#160=VERTEX_POINT('',#526);
#161=VERTEX_POINT('',#529);
#162=VERTEX_POINT('',#531);
#163=VERTEX_POINT('',#536);
#164=VERTEX_POINT('',#538);
#165=VERTEX_POINT('',#543);
#166=VERTEX_POINT('',#544);
#167=VERTEX_POINT('',#546);
#168=VERTEX_POINT('',#548);
#169=VERTEX_POINT('',#552);
#170=VERTEX_POINT('',#554);
#171=VERTEX_POINT('',#558);
#172=VERTEX_POINT('',#560);
#173=VERTEX_POINT('',#564);
#174=VERTEX_POINT('',#568);
#175=VERTEX_POINT('',#572);
#176=VERTEX_POINT('',#574);
#177=VERTEX_POINT('',#576);
#178=VERTEX_POINT('',#578);
#179=VERTEX_POINT('',#582);
#180=VERTEX_POINT('',#583);
#181=VERTEX_POINT('',#585);
#182=VERTEX_POINT('',#590);
#183=VERTEX_POINT('',#592);
#184=VERTEX_POINT('',#594);
#185=VERTEX_POINT('',#596);
#186=VERTEX_POINT('',#598);
#187=VERTEX_POINT('',#600);
#188=VERTEX_POINT('',#604);
#189=VERTEX_POINT('',#609);
#190=VERTEX_POINT('',#611);
#191=EDGE_CURVE('',#159,#159,#151,.T.);
#192=EDGE_CURVE('',#160,#160,#152,.T.);
#193=EDGE_CURVE('',#161,#161,#153,.T.);
#194=EDGE_CURVE('',#161,#162,#19,.T.);
#195=EDGE_CURVE('',#162,#162,#154,.T.);
#196=EDGE_CURVE('',#163,#163,#155,.T.);
#197=EDGE_CURVE('',#163,#164,#20,.T.);
#198=EDGE_CURVE('',#164,#164,#156,.T.);
#199=EDGE_CURVE('',#165,#166,#21,.T.);
#200=EDGE_CURVE('',#165,#167,#22,.T.);
#201=EDGE_CURVE('',#168,#167,#23,.T.);
#202=EDGE_CURVE('',#166,#168,#24,.T.);
#203=EDGE_CURVE('',#169,#165,#25,.T.);
#204=EDGE_CURVE('',#169,#170,#26,.T.);
#205=EDGE_CURVE('',#167,#170,#27,.T.);
#206=EDGE_CURVE('',#171,#169,#28,.T.);
#207=EDGE_CURVE('',#171,#172,#29,.T.);
#208=EDGE_CURVE('',#170,#172,#30,.T.);
#209=EDGE_CURVE('',#173,#173,#157,.T.);
#210=EDGE_CURVE('',#173,#160,#31,.T.);
#211=EDGE_CURVE('',#174,#174,#158,.T.);
#212=EDGE_CURVE('',#174,#159,#32,.T.);
#213=EDGE_CURVE('',#172,#175,#33,.T.);
#214=EDGE_CURVE('',#175,#176,#34,.T.);
#215=EDGE_CURVE('',#176,#177,#35,.T.);
#216=EDGE_CURVE('',#177,#178,#36,.T.);
#217=EDGE_CURVE('',#178,#168,#37,.T.);
#218=EDGE_CURVE('',#179,#180,#38,.T.);
#219=EDGE_CURVE('',#180,#181,#39,.T.);
#220=EDGE_CURVE('',#166,#181,#40,.T.);
#221=EDGE_CURVE('',#179,#178,#41,.T.);
#222=EDGE_CURVE('',#182,#179,#42,.T.);
#223=EDGE_CURVE('',#183,#182,#43,.T.);
#224=EDGE_CURVE('',#184,#183,#44,.T.);
#225=EDGE_CURVE('',#185,#184,#45,.T.);
#226=EDGE_CURVE('',#185,#186,#46,.T.);
#227=EDGE_CURVE('',#186,#187,#47,.T.);
#228=EDGE_CURVE('',#187,#180,#48,.T.);
#229=EDGE_CURVE('',#188,#171,#49,.T.);
#230=EDGE_CURVE('',#185,#188,#50,.T.);
#231=EDGE_CURVE('',#184,#175,#51,.T.);
#232=EDGE_CURVE('',#186,#189,#52,.T.);
#233=EDGE_CURVE('',#190,#189,#53,.T.);
#234=EDGE_CURVE('',#187,#190,#54,.T.);
#235=EDGE_CURVE('',#181,#190,#55,.T.);
#236=EDGE_CURVE('',#182,#177,#56,.T.);
#237=EDGE_CURVE('',#183,#176,#57,.T.);
#238=EDGE_CURVE('',#189,#188,#58,.T.);
#239=ORIENTED_EDGE('',*,*,#191,.F.);
#240=ORIENTED_EDGE('',*,*,#192,.F.);
#241=ORIENTED_EDGE('',*,*,#193,.F.);
#242=ORIENTED_EDGE('',*,*,#194,.T.);
#243=ORIENTED_EDGE('',*,*,#195,.T.);
#244=ORIENTED_EDGE('',*,*,#194,.F.);
#245=ORIENTED_EDGE('',*,*,#195,.F.);
#246=ORIENTED_EDGE('',*,*,#196,.F.);
#247=ORIENTED_EDGE('',*,*,#197,.T.);
#248=ORIENTED_EDGE('',*,*,#198,.T.);
#249=ORIENTED_EDGE('',*,*,#197,.F.);
#250=ORIENTED_EDGE('',*,*,#198,.F.);
#251=ORIENTED_EDGE('',*,*,#199,.F.);
#252=ORIENTED_EDGE('',*,*,#200,.T.);
#253=ORIENTED_EDGE('',*,*,#201,.F.);
#254=ORIENTED_EDGE('',*,*,#202,.F.);
#255=ORIENTED_EDGE('',*,*,#203,.F.);
#256=ORIENTED_EDGE('',*,*,#204,.T.);
#257=ORIENTED_EDGE('',*,*,#205,.F.);
#258=ORIENTED_EDGE('',*,*,#200,.F.);
#259=ORIENTED_EDGE('',*,*,#206,.F.);
#260=ORIENTED_EDGE('',*,*,#207,.T.);
#261=ORIENTED_EDGE('',*,*,#208,.F.);
#262=ORIENTED_EDGE('',*,*,#204,.F.);
#263=ORIENTED_EDGE('',*,*,#209,.F.);
#264=ORIENTED_EDGE('',*,*,#210,.T.);
#265=ORIENTED_EDGE('',*,*,#192,.T.);
#266=ORIENTED_EDGE('',*,*,#210,.F.);
#267=ORIENTED_EDGE('',*,*,#211,.F.);
#268=ORIENTED_EDGE('',*,*,#212,.T.);
#269=ORIENTED_EDGE('',*,*,#191,.T.);
#270=ORIENTED_EDGE('',*,*,#212,.F.);
#271=ORIENTED_EDGE('',*,*,#208,.T.);
#272=ORIENTED_EDGE('',*,*,#213,.T.);
#273=ORIENTED_EDGE('',*,*,#214,.T.);
#274=ORIENTED_EDGE('',*,*,#215,.T.);
#275=ORIENTED_EDGE('',*,*,#216,.T.);
#276=ORIENTED_EDGE('',*,*,#217,.T.);
#277=ORIENTED_EDGE('',*,*,#201,.T.);
#278=ORIENTED_EDGE('',*,*,#205,.T.);
#279=ORIENTED_EDGE('',*,*,#211,.T.);
#280=ORIENTED_EDGE('',*,*,#209,.T.);
#281=ORIENTED_EDGE('',*,*,#218,.T.);
#282=ORIENTED_EDGE('',*,*,#219,.T.);
#283=ORIENTED_EDGE('',*,*,#220,.F.);
#284=ORIENTED_EDGE('',*,*,#202,.T.);
#285=ORIENTED_EDGE('',*,*,#217,.F.);
#286=ORIENTED_EDGE('',*,*,#221,.F.);
#287=ORIENTED_EDGE('',*,*,#218,.F.);
#288=ORIENTED_EDGE('',*,*,#222,.F.);
#289=ORIENTED_EDGE('',*,*,#223,.F.);
#290=ORIENTED_EDGE('',*,*,#224,.F.);
#291=ORIENTED_EDGE('',*,*,#225,.F.);
#292=ORIENTED_EDGE('',*,*,#226,.T.);
#293=ORIENTED_EDGE('',*,*,#227,.T.);
#294=ORIENTED_EDGE('',*,*,#228,.T.);
#295=ORIENTED_EDGE('',*,*,#193,.T.);
#296=ORIENTED_EDGE('',*,*,#196,.T.);
#297=ORIENTED_EDGE('',*,*,#229,.F.);
#298=ORIENTED_EDGE('',*,*,#230,.F.);
#299=ORIENTED_EDGE('',*,*,#225,.T.);
#300=ORIENTED_EDGE('',*,*,#231,.T.);
#301=ORIENTED_EDGE('',*,*,#213,.F.);
#302=ORIENTED_EDGE('',*,*,#207,.F.);
#303=ORIENTED_EDGE('',*,*,#227,.F.);
#304=ORIENTED_EDGE('',*,*,#232,.T.);
#305=ORIENTED_EDGE('',*,*,#233,.F.);
#306=ORIENTED_EDGE('',*,*,#234,.F.);
#307=ORIENTED_EDGE('',*,*,#228,.F.);
#308=ORIENTED_EDGE('',*,*,#234,.T.);
#309=ORIENTED_EDGE('',*,*,#235,.F.);
#310=ORIENTED_EDGE('',*,*,#219,.F.);
#311=ORIENTED_EDGE('',*,*,#222,.T.);
#312=ORIENTED_EDGE('',*,*,#221,.T.);
#313=ORIENTED_EDGE('',*,*,#216,.F.);
#314=ORIENTED_EDGE('',*,*,#236,.F.);
#315=ORIENTED_EDGE('',*,*,#223,.T.);
#316=ORIENTED_EDGE('',*,*,#236,.T.);
#317=ORIENTED_EDGE('',*,*,#215,.F.);
#318=ORIENTED_EDGE('',*,*,#237,.F.);
#319=ORIENTED_EDGE('',*,*,#224,.T.);
#320=ORIENTED_EDGE('',*,*,#237,.T.);
#321=ORIENTED_EDGE('',*,*,#214,.F.);
#322=ORIENTED_EDGE('',*,*,#231,.F.);
#323=ORIENTED_EDGE('',*,*,#226,.F.);
#324=ORIENTED_EDGE('',*,*,#230,.T.);
#325=ORIENTED_EDGE('',*,*,#238,.F.);
#326=ORIENTED_EDGE('',*,*,#232,.F.);
#327=ORIENTED_EDGE('',*,*,#199,.T.);
#328=ORIENTED_EDGE('',*,*,#220,.T.);
#329=ORIENTED_EDGE('',*,*,#235,.T.);
#330=ORIENTED_EDGE('',*,*,#233,.T.);
#331=ORIENTED_EDGE('',*,*,#238,.T.);
#332=ORIENTED_EDGE('',*,*,#229,.T.);
#333=ORIENTED_EDGE('',*,*,#206,.T.);
#334=ORIENTED_EDGE('',*,*,#203,.T.);
#335=PLANE('',#389);
#336=PLANE('',#391);
#337=PLANE('',#396);
#338=PLANE('',#400);
#339=PLANE('',#401);
#340=PLANE('',#402);
#341=PLANE('',#403);
#342=PLANE('',#408);
#343=PLANE('',#409);
#344=PLANE('',#410);
#345=PLANE('',#411);
#346=PLANE('',#412);
#347=PLANE('',#413);
#348=PLANE('',#414);
#349=PLANE('',#415);
#350=PLANE('',#416);
#351=PLANE('',#417);
#352=PLANE('',#418);
#353=ADVANCED_FACE('',(#103),#335,.F.);
#354=ADVANCED_FACE('',(#104),#336,.F.);
#355=ADVANCED_FACE('',(#105),#99,.F.);
#356=ADVANCED_FACE('',(#106),#337,.T.);
#357=ADVANCED_FACE('',(#107),#100,.F.);
#358=ADVANCED_FACE('',(#108),#338,.T.);
#359=ADVANCED_FACE('',(#109),#339,.T.);
#360=ADVANCED_FACE('',(#110),#340,.T.);
#361=ADVANCED_FACE('',(#111),#341,.T.);
#362=ADVANCED_FACE('',(#112),#101,.F.);
#363=ADVANCED_FACE('',(#113),#102,.F.);
#364=ADVANCED_FACE('',(#114,#15,#16),#342,.F.);
#365=ADVANCED_FACE('',(#115),#343,.T.);
#366=ADVANCED_FACE('',(#116,#17,#18),#344,.T.);
#367=ADVANCED_FACE('',(#117),#345,.T.);
#368=ADVANCED_FACE('',(#118),#346,.T.);
#369=ADVANCED_FACE('',(#119),#347,.T.);
#370=ADVANCED_FACE('',(#120),#348,.T.);
#371=ADVANCED_FACE('',(#121),#349,.T.);
#372=ADVANCED_FACE('',(#122),#350,.T.);
#373=ADVANCED_FACE('',(#123),#351,.T.);
#374=ADVANCED_FACE('',(#124),#352,.F.);
#375=CLOSED_SHELL('',(#353,#354,#355,#356,#357,#358,#359,#360,#361,#362,
#363,#364,#365,#366,#367,#368,#369,#370,#371,#372,#373,#374));
#376=DERIVED_UNIT_ELEMENT(#378,1.);
#377=DERIVED_UNIT_ELEMENT(#629,-3.);
#378=(
MASS_UNIT()
NAMED_UNIT(*)
SI_UNIT(.KILO.,.GRAM.)
);
#379=DERIVED_UNIT((#376,#377));
#380=MEASURE_REPRESENTATION_ITEM('density measure',
POSITIVE_RATIO_MEASURE(7850.),#379);
#381=PROPERTY_DEFINITION_REPRESENTATION(#386,#383);
#382=PROPERTY_DEFINITION_REPRESENTATION(#387,#384);
#383=REPRESENTATION('material name',(#385),#626);
#384=REPRESENTATION('density',(#380),#626);
#385=DESCRIPTIVE_REPRESENTATION_ITEM('Steel','Steel');
#386=PROPERTY_DEFINITION('material property','material name',#636);
#387=PROPERTY_DEFINITION('material property','density of part',#636);
#388=AXIS2_PLACEMENT_3D('',#521,#419,#420);
#389=AXIS2_PLACEMENT_3D('',#522,#421,#422);
#390=AXIS2_PLACEMENT_3D('',#524,#423,#424);
#391=AXIS2_PLACEMENT_3D('',#525,#425,#426);
#392=AXIS2_PLACEMENT_3D('',#527,#427,#428);
#393=AXIS2_PLACEMENT_3D('',#528,#429,#430);
#394=AXIS2_PLACEMENT_3D('',#530,#431,#432);
#395=AXIS2_PLACEMENT_3D('',#533,#434,#435);
#396=AXIS2_PLACEMENT_3D('',#534,#436,#437);
#397=AXIS2_PLACEMENT_3D('',#535,#438,#439);
#398=AXIS2_PLACEMENT_3D('',#537,#440,#441);
#399=AXIS2_PLACEMENT_3D('',#540,#443,#444);
#400=AXIS2_PLACEMENT_3D('',#541,#445,#446);
#401=AXIS2_PLACEMENT_3D('',#542,#447,#448);
#402=AXIS2_PLACEMENT_3D('',#551,#453,#454);
#403=AXIS2_PLACEMENT_3D('',#557,#458,#459);
#404=AXIS2_PLACEMENT_3D('',#563,#463,#464);
#405=AXIS2_PLACEMENT_3D('',#565,#465,#466);
#406=AXIS2_PLACEMENT_3D('',#567,#468,#469);
#407=AXIS2_PLACEMENT_3D('',#569,#470,#471);
#408=AXIS2_PLACEMENT_3D('',#571,#473,#474);
#409=AXIS2_PLACEMENT_3D('',#581,#480,#481);
#410=AXIS2_PLACEMENT_3D('',#589,#486,#487);
#411=AXIS2_PLACEMENT_3D('',#603,#495,#496);
#412=AXIS2_PLACEMENT_3D('',#608,#500,#501);
#413=AXIS2_PLACEMENT_3D('',#614,#505,#506);
#414=AXIS2_PLACEMENT_3D('',#616,#508,#509);
#415=AXIS2_PLACEMENT_3D('',#618,#511,#512);
#416=AXIS2_PLACEMENT_3D('',#620,#514,#515);
#417=AXIS2_PLACEMENT_3D('',#621,#516,#517);
#418=AXIS2_PLACEMENT_3D('',#623,#519,#520);
#419=DIRECTION('axis',(0.,0.,1.));
#420=DIRECTION('refdir',(1.,0.,0.));
#421=DIRECTION('center_axis',(1.23271321750186E-15,9.72704893523268E-16,
1.));
#422=DIRECTION('ref_axis',(1.,-1.31838984174238E-15,-1.23271321750186E-15));
#423=DIRECTION('center_axis',(1.23271321750186E-15,9.72704893523268E-16,
1.));
#424=DIRECTION('ref_axis',(1.,-1.31838984174238E-15,-1.11022302462516E-15));
#425=DIRECTION('center_axis',(1.23271321750186E-15,9.72704893523268E-16,
1.));
#426=DIRECTION('ref_axis',(1.,-1.31838984174238E-15,-1.23271321750186E-15));
#427=DIRECTION('center_axis',(1.23271321750186E-15,9.72704893523268E-16,
1.));
#428=DIRECTION('ref_axis',(1.,-1.31838984174238E-15,-1.11022302462516E-15));
#429=DIRECTION('center_axis',(0.,0.,-1.));
#430=DIRECTION('ref_axis',(1.,-1.31838984174238E-15,0.));
#431=DIRECTION('center_axis',(-6.16356608750924E-16,3.17516313967715E-17,
-1.));
#432=DIRECTION('ref_axis',(1.,-1.31838984174238E-15,0.));
#433=DIRECTION('',(0.,0.,-1.));
#434=DIRECTION('center_axis',(-6.16356608750924E-16,3.17516313967715E-17,
-1.));
#435=DIRECTION('ref_axis',(1.,-1.31838984174238E-15,-6.16356608750924E-16));
#436=DIRECTION('center_axis',(6.16356608750924E-16,-3.17516313967715E-17,
1.));
#437=DIRECTION('ref_axis',(1.,-1.31838984174238E-15,-6.16356608750924E-16));
#438=DIRECTION('center_axis',(0.,0.,-1.));
#439=DIRECTION('ref_axis',(1.,-1.31838984174238E-15,0.));
#440=DIRECTION('center_axis',(-6.16356608750924E-16,3.17516313967715E-17,
-1.));
#441=DIRECTION('ref_axis',(1.,-1.31838984174238E-15,0.));
#442=DIRECTION('',(0.,0.,-1.));
#443=DIRECTION('center_axis',(-6.16356608750924E-16,3.17516313967715E-17,
-1.));
#444=DIRECTION('ref_axis',(1.,-1.31838984174238E-15,-6.16356608750924E-16));
#445=DIRECTION('center_axis',(6.16356608750924E-16,-3.17516313967715E-17,
1.));
#446=DIRECTION('ref_axis',(1.,-1.31838984174238E-15,-6.16356608750924E-16));
#447=DIRECTION('center_axis',(-1.,1.31838984174238E-15,1.11022302462516E-15));
#448=DIRECTION('ref_axis',(1.31838984174238E-15,1.,3.17516313967707E-17));
#449=DIRECTION('',(-1.31838984174238E-15,-1.,-3.17516313967707E-17));
#450=DIRECTION('',(-1.11022302462516E-15,0.,-1.));
#451=DIRECTION('',(1.31838984174238E-15,1.,3.17516313967707E-17));
#452=DIRECTION('',(-1.11022302462516E-15,0.,-1.));
#453=DIRECTION('center_axis',(-1.61444931497575E-15,-1.,1.79239880157639E-30));
#454=DIRECTION('ref_axis',(-1.,1.61444931497575E-15,6.16356608750924E-16));
#455=DIRECTION('',(1.,-1.61444931497575E-15,-6.16356608750924E-16));
#456=DIRECTION('',(-1.11022302462516E-15,0.,-1.));
#457=DIRECTION('',(-1.,1.61444931497575E-15,6.16356608750924E-16));
#458=DIRECTION('center_axis',(1.,-1.31838984174238E-15,-1.11022302462516E-15));
#459=DIRECTION('ref_axis',(-1.31838984174238E-15,-1.,-3.17516313967707E-17));
#460=DIRECTION('',(1.31838984174238E-15,1.,3.17516313967707E-17));
#461=DIRECTION('',(-1.11022302462516E-15,0.,-1.));
#462=DIRECTION('',(-1.31838984174238E-15,-1.,-3.17516313967707E-17));
#463=DIRECTION('center_axis',(-1.11022302462516E-15,0.,-1.));
#464=DIRECTION('ref_axis',(1.,-1.31838984174238E-15,-1.11022302462516E-15));
#465=DIRECTION('center_axis',(6.16356608750924E-16,-3.17516313967715E-17,
1.));
#466=DIRECTION('ref_axis',(1.,-1.31838984174238E-15,-6.16356608750924E-16));
#467=DIRECTION('',(1.11022302462516E-15,0.,1.));
#468=DIRECTION('center_axis',(-1.11022302462516E-15,0.,-1.));
#469=DIRECTION('ref_axis',(1.,-1.31838984174238E-15,-1.11022302462516E-15));
#470=DIRECTION('center_axis',(6.16356608750924E-16,-3.17516313967715E-17,
1.));
#471=DIRECTION('ref_axis',(1.,-1.31838984174238E-15,-6.16356608750924E-16));
#472=DIRECTION('',(1.11022302462516E-15,0.,1.));
#473=DIRECTION('center_axis',(6.16356608750924E-16,-3.17516313967715E-17,
1.));
#474=DIRECTION('ref_axis',(1.,-1.31838984174238E-15,-6.16356608750924E-16));
#475=DIRECTION('',(-1.,1.31838984174238E-15,6.16356608750924E-16));
#476=DIRECTION('',(1.31838984174238E-15,1.,3.17516313967707E-17));
#477=DIRECTION('',(1.,-1.31838984174238E-15,-6.16356608750924E-16));
#478=DIRECTION('',(-1.31838984174238E-15,-1.,-3.17516313967707E-17));
#479=DIRECTION('',(-1.,1.31838984174238E-15,6.16356608750924E-16));
#480=DIRECTION('center_axis',(-1.31838984174238E-15,-1.,0.));
#481=DIRECTION('ref_axis',(-1.,1.31838984174238E-15,6.16356608750924E-16));
#482=DIRECTION('',(-1.,1.31838984174238E-15,6.16356608750924E-16));
#483=DIRECTION('',(0.,0.,-1.));
#484=DIRECTION('',(-1.,1.31838984174238E-15,6.16356608750924E-16));
#485=DIRECTION('',(0.,0.,-1.));
#486=DIRECTION('center_axis',(6.16356608750924E-16,-3.17516313967715E-17,
1.));
#487=DIRECTION('ref_axis',(1.,-1.31838984174238E-15,-6.16356608750924E-16));
#488=DIRECTION('',(-1.31838984174238E-15,-1.,-3.17516313967707E-17));
#489=DIRECTION('',(1.,-1.31838984174238E-15,-6.16356608750924E-16));
#490=DIRECTION('',(1.31838984174238E-15,1.,3.17516313967707E-17));
#491=DIRECTION('',(-1.,1.31838984174238E-15,6.16356608750924E-16));
#492=DIRECTION('',(1.31838984174238E-15,1.,3.17516313967707E-17));
#493=DIRECTION('',(1.,-1.31838984174238E-15,-6.16356608750924E-16));
#494=DIRECTION('',(-1.31838984174238E-15,-1.,-3.17516313967707E-17));
#495=DIRECTION('center_axis',(-1.31838984174238E-15,-1.,0.));
#496=DIRECTION('ref_axis',(-1.,1.31838984174238E-15,6.16356608750924E-16));
#497=DIRECTION('',(-1.,1.31838984174238E-15,6.16356608750924E-16));
#498=DIRECTION('',(0.,0.,-1.));
#499=DIRECTION('',(0.,0.,-1.));
#500=DIRECTION('center_axis',(-1.31838984174238E-15,-1.,0.));
#501=DIRECTION('ref_axis',(-1.,1.31838984174238E-15,6.16356608750924E-16));
#502=DIRECTION('',(0.,0.,-1.));
#503=DIRECTION('',(-1.,1.31838984174238E-15,6.16356608750924E-16));
#504=DIRECTION('',(0.,0.,-1.));
#505=DIRECTION('center_axis',(-1.,1.31838984174238E-15,0.));
#506=DIRECTION('ref_axis',(1.31838984174238E-15,1.,3.17516313967707E-17));
#507=DIRECTION('',(1.31838984174238E-15,1.,3.17516313967707E-17));
#508=DIRECTION('center_axis',(1.,-1.31838984174238E-15,0.));
#509=DIRECTION('ref_axis',(-1.31838984174238E-15,-1.,-3.17516313967707E-17));
#510=DIRECTION('',(0.,0.,-1.));
#511=DIRECTION('center_axis',(1.31838984174238E-15,1.,0.));
#512=DIRECTION('ref_axis',(1.,-1.31838984174238E-15,-6.16356608750924E-16));
#513=DIRECTION('',(0.,0.,-1.));
#514=DIRECTION('center_axis',(-1.,1.31838984174238E-15,0.));
#515=DIRECTION('ref_axis',(1.31838984174238E-15,1.,3.17516313967707E-17));
#516=DIRECTION('center_axis',(1.,-1.31838984174238E-15,0.));
#517=DIRECTION('ref_axis',(-1.31838984174238E-15,-1.,-3.17516313967707E-17));
#518=DIRECTION('',(-1.31838984174238E-15,-1.,-3.17516313967707E-17));
#519=DIRECTION('center_axis',(6.16356608750924E-16,-3.17516313967715E-17,
1.));
#520=DIRECTION('ref_axis',(1.,-1.31838984174238E-15,-6.16356608750924E-16));
#521=CARTESIAN_POINT('',(0.,0.,0.));
#522=CARTESIAN_POINT('Origin',(80.5210678118654,30.6999999999999,-50.5000000000002));
#523=CARTESIAN_POINT('',(79.5210678118655,30.6999999999999,-50.5000000000002));
#524=CARTESIAN_POINT('Origin',(80.5210678118654,30.6999999999999,-50.5000000000002));
#525=CARTESIAN_POINT('Origin',(60.0210678118655,30.6999999999999,-50.5000000000002));
#526=CARTESIAN_POINT('',(59.0210678118655,30.6999999999999,-50.5000000000002));
#527=CARTESIAN_POINT('Origin',(60.0210678118654,30.6999999999999,-50.5000000000002));
#528=CARTESIAN_POINT('Origin',(80.5210678118654,30.6999999999999,-46.9000000000001));
#529=CARTESIAN_POINT('',(78.5210678118654,30.6999999999999,-46.9000000000001));
#530=CARTESIAN_POINT('Origin',(80.5210678118654,30.6999999999999,-46.9000000000001));
#531=CARTESIAN_POINT('',(78.5210678118654,30.6999999999999,-50.3000000000001));
#532=CARTESIAN_POINT('',(78.5210678118654,30.6999999999999,-46.9000000000001));
#533=CARTESIAN_POINT('Origin',(80.5210678118654,30.6999999999999,-50.3000000000001));
#534=CARTESIAN_POINT('Origin',(80.5210678118654,30.6999999999999,-50.3000000000001));
#535=CARTESIAN_POINT('Origin',(60.0210678118654,30.6999999999999,-46.9000000000001));
#536=CARTESIAN_POINT('',(58.0210678118654,30.6999999999999,-46.9000000000001));
#537=CARTESIAN_POINT('Origin',(60.0210678118654,30.6999999999999,-46.9000000000001));
#538=CARTESIAN_POINT('',(58.0210678118654,30.6999999999999,-50.3000000000001));
#539=CARTESIAN_POINT('',(58.0210678118654,30.6999999999999,-46.9000000000001));
#540=CARTESIAN_POINT('Origin',(60.0210678118654,30.6999999999999,-50.3000000000001));
#541=CARTESIAN_POINT('Origin',(60.0210678118654,30.6999999999999,-50.3000000000001));
#542=CARTESIAN_POINT('Origin',(77.7710678118654,25.1999999999999,-46.9000000000001));
#543=CARTESIAN_POINT('',(77.7710678118654,33.6999999999999,-53.3000000000001));
#544=CARTESIAN_POINT('',(77.7710678118654,25.1999999999999,-53.3000000000001));
#545=CARTESIAN_POINT('',(77.7710678118654,27.9499999999999,-53.3000000000001));
#546=CARTESIAN_POINT('',(77.7710678118654,33.6999999999999,-54.9000000000001));
#547=CARTESIAN_POINT('',(77.7710678118654,33.6999999999999,-46.9000000000001));
#548=CARTESIAN_POINT('',(77.7710678118654,25.1999999999999,-54.9000000000001));
#549=CARTESIAN_POINT('',(77.7710678118654,33.6999999999999,-54.9000000000001));
#550=CARTESIAN_POINT('',(77.7710678118654,25.1999999999999,-46.9000000000001));
#551=CARTESIAN_POINT('Origin',(77.7710678118654,33.6999999999999,-46.9000000000001));
#552=CARTESIAN_POINT('',(62.7710678118654,33.6999999999999,-53.3000000000001));
#553=CARTESIAN_POINT('',(74.0210678118654,33.6999999999999,-53.3000000000001));
#554=CARTESIAN_POINT('',(62.7710678118654,33.6999999999999,-54.9000000000001));
#555=CARTESIAN_POINT('',(62.7710678118654,33.6999999999999,-46.9000000000001));
#556=CARTESIAN_POINT('',(62.7710678118654,33.6999999999999,-54.9000000000001));
#557=CARTESIAN_POINT('Origin',(62.7710678118654,33.6999999999999,-46.9000000000001));
#558=CARTESIAN_POINT('',(62.7710678118654,25.1999999999999,-53.3000000000001));
#559=CARTESIAN_POINT('',(62.7710678118654,32.1999999999999,-53.3000000000001));
#560=CARTESIAN_POINT('',(62.7710678118654,25.1999999999999,-54.9000000000001));
#561=CARTESIAN_POINT('',(62.7710678118654,25.1999999999999,-46.9000000000001));
#562=CARTESIAN_POINT('',(62.7710678118654,25.1999999999999,-54.9000000000001));
#563=CARTESIAN_POINT('Origin',(60.0210678118654,30.6999999999999,-46.9000000000001));
#564=CARTESIAN_POINT('',(59.0210678118654,30.6999999999999,-54.9000000000001));
#565=CARTESIAN_POINT('Origin',(60.0210678118654,30.6999999999999,-54.9000000000001));
#566=CARTESIAN_POINT('',(59.0210678118654,30.6999999999999,-46.9000000000001));
#567=CARTESIAN_POINT('Origin',(80.5210678118654,30.6999999999999,-46.9000000000001));
#568=CARTESIAN_POINT('',(79.5210678118654,30.6999999999999,-54.9000000000001));
#569=CARTESIAN_POINT('Origin',(80.5210678118654,30.6999999999999,-54.9000000000001));
#570=CARTESIAN_POINT('',(79.5210678118654,30.6999999999999,-46.9000000000001));
#571=CARTESIAN_POINT('Origin',(70.2710678118654,30.6999999999999,-54.9000000000001));
#572=CARTESIAN_POINT('',(57.2710678118654,25.1999999999999,-54.9000000000001));
#573=CARTESIAN_POINT('',(83.2710678118654,25.1999999999999,-54.9000000000001));
#574=CARTESIAN_POINT('',(57.2710678118654,36.1999999999999,-54.9000000000001));
#575=CARTESIAN_POINT('',(57.2710678118654,25.1999999999999,-54.9000000000001));
#576=CARTESIAN_POINT('',(83.2710678118654,36.1999999999999,-54.9000000000001));
#577=CARTESIAN_POINT('',(57.2710678118654,36.1999999999999,-54.9000000000001));
#578=CARTESIAN_POINT('',(83.2710678118654,25.1999999999999,-54.9000000000001));
#579=CARTESIAN_POINT('',(83.2710678118654,36.1999999999999,-54.9000000000001));
#580=CARTESIAN_POINT('',(83.2710678118654,25.1999999999999,-54.9000000000001));
#581=CARTESIAN_POINT('Origin',(83.2710678118654,25.1999999999999,-46.9000000000001));
#582=CARTESIAN_POINT('',(83.2710678118654,25.1999999999999,-46.9000000000001));
#583=CARTESIAN_POINT('',(74.5710678118654,25.1999999999999,-46.9000000000001));
#584=CARTESIAN_POINT('',(83.2710678118654,25.1999999999999,-46.9000000000001));
#585=CARTESIAN_POINT('',(74.5710678118654,25.1999999999999,-53.3000000000001));
#586=CARTESIAN_POINT('',(74.5710678118654,25.1999999999999,-46.9000000000001));
#587=CARTESIAN_POINT('',(83.2710678118654,25.1999999999999,-53.3000000000001));
#588=CARTESIAN_POINT('',(83.2710678118654,25.1999999999999,-46.9000000000001));
#589=CARTESIAN_POINT('Origin',(70.2710678118654,30.6999999999999,-46.9000000000001));
#590=CARTESIAN_POINT('',(83.2710678118654,36.1999999999999,-46.9000000000001));
#591=CARTESIAN_POINT('',(83.2710678118654,36.1999999999999,-46.9000000000001));
#592=CARTESIAN_POINT('',(57.2710678118654,36.1999999999999,-46.9000000000001));
#593=CARTESIAN_POINT('',(57.2710678118654,36.1999999999999,-46.9000000000001));
#594=CARTESIAN_POINT('',(57.2710678118654,25.1999999999999,-46.9000000000001));
#595=CARTESIAN_POINT('',(57.2710678118654,25.1999999999999,-46.9000000000001));
#596=CARTESIAN_POINT('',(65.9710678118654,25.1999999999999,-46.9000000000001));
#597=CARTESIAN_POINT('',(83.2710678118654,25.1999999999999,-46.9000000000001));
#598=CARTESIAN_POINT('',(65.9710678118654,31.1999999999999,-46.9000000000001));
#599=CARTESIAN_POINT('',(65.9710678118654,25.1999999999999,-46.9000000000001));
#600=CARTESIAN_POINT('',(74.5710678118654,31.1999999999999,-46.9000000000001));
#601=CARTESIAN_POINT('',(65.9710678118654,31.1999999999999,-46.9000000000001));
#602=CARTESIAN_POINT('',(74.5710678118654,31.1999999999999,-46.9000000000001));
#603=CARTESIAN_POINT('Origin',(65.9710678118654,25.1999999999999,-46.9000000000001));
#604=CARTESIAN_POINT('',(65.9710678118654,25.1999999999999,-53.3000000000001));
#605=CARTESIAN_POINT('',(83.2710678118654,25.1999999999999,-53.3000000000001));
#606=CARTESIAN_POINT('',(65.9710678118654,25.1999999999999,-46.9000000000001));
#607=CARTESIAN_POINT('',(57.2710678118654,25.1999999999999,-46.9000000000001));
#608=CARTESIAN_POINT('Origin',(74.5710678118654,31.1999999999999,-46.9000000000001));
#609=CARTESIAN_POINT('',(65.9710678118654,31.1999999999999,-53.3000000000001));
#610=CARTESIAN_POINT('',(65.9710678118654,31.1999999999999,-46.9000000000001));
#611=CARTESIAN_POINT('',(74.5710678118654,31.1999999999999,-53.3000000000001));
#612=CARTESIAN_POINT('',(65.9710678118654,31.1999999999999,-53.3000000000001));
#613=CARTESIAN_POINT('',(74.5710678118654,31.1999999999999,-46.9000000000001));
#614=CARTESIAN_POINT('Origin',(74.5710678118654,25.1999999999999,-46.9000000000001));
#615=CARTESIAN_POINT('',(74.5710678118654,31.1999999999999,-53.3000000000001));
#616=CARTESIAN_POINT('Origin',(83.2710678118654,36.1999999999999,-46.9000000000001));
#617=CARTESIAN_POINT('',(83.2710678118654,36.1999999999999,-46.9000000000001));
#618=CARTESIAN_POINT('Origin',(57.2710678118654,36.1999999999999,-46.9000000000001));
#619=CARTESIAN_POINT('',(57.2710678118654,36.1999999999999,-46.9000000000001));
#620=CARTESIAN_POINT('Origin',(57.2710678118654,25.1999999999999,-46.9000000000001));
#621=CARTESIAN_POINT('Origin',(65.9710678118654,31.1999999999999,-46.9000000000001));
#622=CARTESIAN_POINT('',(65.9710678118654,25.1999999999999,-53.3000000000001));
#623=CARTESIAN_POINT('Origin',(70.2710678118654,30.6999999999999,-53.3000000000001));
#624=UNCERTAINTY_MEASURE_WITH_UNIT(LENGTH_MEASURE(0.01),#628,
'DISTANCE_ACCURACY_VALUE',
'Maximum model space distance between geometric entities at asserted c
onnectivities');
#625=UNCERTAINTY_MEASURE_WITH_UNIT(LENGTH_MEASURE(0.01),#628,
'DISTANCE_ACCURACY_VALUE',
'Maximum model space distance between geometric entities at asserted c
onnectivities');
#626=(
GEOMETRIC_REPRESENTATION_CONTEXT(3)
GLOBAL_UNCERTAINTY_ASSIGNED_CONTEXT((#624))
GLOBAL_UNIT_ASSIGNED_CONTEXT((#628,#630,#631))
REPRESENTATION_CONTEXT('','3D')
);
#627=(
GEOMETRIC_REPRESENTATION_CONTEXT(3)
GLOBAL_UNCERTAINTY_ASSIGNED_CONTEXT((#625))
GLOBAL_UNIT_ASSIGNED_CONTEXT((#628,#630,#631))
REPRESENTATION_CONTEXT('','3D')
);
#628=(
LENGTH_UNIT()
NAMED_UNIT(*)
SI_UNIT(.MILLI.,.METRE.)
);
#629=(
LENGTH_UNIT()
NAMED_UNIT(*)
SI_UNIT($,.METRE.)
);
#630=(
NAMED_UNIT(*)
PLANE_ANGLE_UNIT()
SI_UNIT($,.RADIAN.)
);
#631=(
NAMED_UNIT(*)
SI_UNIT($,.STERADIAN.)
SOLID_ANGLE_UNIT()
);
#632=SHAPE_DEFINITION_REPRESENTATION(#633,#634);
#633=PRODUCT_DEFINITION_SHAPE('',$,#636);
#634=SHAPE_REPRESENTATION('',(#388),#626);
#635=PRODUCT_DEFINITION_CONTEXT('part definition',#640,'design');
#636=PRODUCT_DEFINITION('PWM Pin Holder','PWM Pin Holder',#637,#635);
#637=PRODUCT_DEFINITION_FORMATION('',$,#642);
#638=PRODUCT_RELATED_PRODUCT_CATEGORY('PWM Pin Holder','PWM Pin Holder',
(#642));
#639=APPLICATION_PROTOCOL_DEFINITION('international standard',
'automotive_design',2009,#640);
#640=APPLICATION_CONTEXT(
'Core Data for Automotive Mechanical Design Process');
#641=PRODUCT_CONTEXT('part definition',#640,'mechanical');
#642=PRODUCT('PWM Pin Holder','PWM Pin Holder',$,(#641));
#643=PRESENTATION_STYLE_ASSIGNMENT((#644));
#644=SURFACE_STYLE_USAGE(.BOTH.,#645);
#645=SURFACE_SIDE_STYLE('',(#646));
#646=SURFACE_STYLE_FILL_AREA(#647);
#647=FILL_AREA_STYLE('Steel - Satin',(#648));
#648=FILL_AREA_STYLE_COLOUR('Steel - Satin',#649);
#649=COLOUR_RGB('Steel - Satin',0.627450980392157,0.627450980392157,0.627450980392157);
ENDSEC;
END-ISO-10303-21;
