ISO-10303-21;
HEADER;
/* Generated by software containing ST-Developer
 * from STEP Tools, Inc. (www.steptools.com) 
 */

FILE_DESCRIPTION(
/* description */ (''),
/* implementation_level */ '2;1');

FILE_NAME(
/* name */ 'Sheilded Wire Clamp.step',
/* time_stamp */ '2025-05-01T11:10:00+01:00',
/* author */ (''),
/* organization */ (''),
/* preprocessor_version */ 'ST-DEVELOPER v20.1',
/* originating_system */ 'Autodesk Translation Framework v14.4.0.0',
/* authorisation */ '');

FILE_SCHEMA (('AUTOMOTIVE_DESIGN { 1 0 10303 214 3 1 1 }'));
ENDSEC;

DATA;
#10=MECHANICAL_DESIGN_GEOMETRIC_PRESENTATION_REPRESENTATION('',(#13),#999);
#11=SHAPE_REPRESENTATION_RELATIONSHIP('SRR','None',#1006,#12);
#12=ADVANCED_BREP_SHAPE_REPRESENTATION('',(#14),#998);
#13=STYLED_ITEM('',(#1015),#14);
#14=MANIFOLD_SOLID_BREP('Sheilded Wire Clamp',#599);
#15=CONICAL_SURFACE('',#655,1.79091928387651,0.74176493209759);
#16=CONICAL_SURFACE('',#658,2.1,0.0872664625997165);
#17=CYLINDRICAL_SURFACE('',#632,2.00000000000001);
#18=CYLINDRICAL_SURFACE('',#644,0.999999999999996);
#19=CYLINDRICAL_SURFACE('',#649,2.);
#20=CYLINDRICAL_SURFACE('',#652,2.);
#21=CYLINDRICAL_SURFACE('',#660,0.999999999999996);
#22=CYLINDRICAL_SURFACE('',#661,1.);
#23=FACE_BOUND('',#198,.T.);
#24=FACE_BOUND('',#199,.T.);
#25=FACE_BOUND('',#200,.T.);
#26=FACE_BOUND('',#220,.T.);
#27=FACE_BOUND('',#221,.T.);
#28=FACE_BOUND('',#222,.T.);
#29=LINE('',#842,#93);
#30=LINE('',#844,#94);
#31=LINE('',#846,#95);
#32=LINE('',#847,#96);
#33=LINE('',#850,#97);
#34=LINE('',#852,#98);
#35=LINE('',#853,#99);
#36=LINE('',#856,#100);
#37=LINE('',#858,#101);
#38=LINE('',#860,#102);
#39=LINE('',#862,#103);
#40=LINE('',#864,#104);
#41=LINE('',#865,#105);
#42=LINE('',#874,#106);
#43=LINE('',#876,#107);
#44=LINE('',#878,#108);
#45=LINE('',#880,#109);
#46=LINE('',#881,#110);
#47=LINE('',#884,#111);
#48=LINE('',#886,#112);
#49=LINE('',#889,#113);
#50=LINE('',#893,#114);
#51=LINE('',#894,#115);
#52=LINE('',#895,#116);
#53=LINE('',#898,#117);
#54=LINE('',#899,#118);
#55=LINE('',#902,#119);
#56=LINE('',#904,#120);
#57=LINE('',#905,#121);
#58=LINE('',#908,#122);
#59=LINE('',#909,#123);
#60=LINE('',#912,#124);
#61=LINE('',#917,#125);
#62=LINE('',#918,#126);
#63=LINE('',#921,#127);
#64=LINE('',#923,#128);
#65=LINE('',#925,#129);
#66=LINE('',#927,#130);
#67=LINE('',#929,#131);
#68=LINE('',#930,#132);
#69=LINE('',#933,#133);
#70=LINE('',#934,#134);
#71=LINE('',#938,#135);
#72=LINE('',#939,#136);
#73=LINE('',#940,#137);
#74=LINE('',#942,#138);
#75=LINE('',#945,#139);
#76=LINE('',#946,#140);
#77=LINE('',#949,#141);
#78=LINE('',#950,#142);
#79=LINE('',#953,#143);
#80=LINE('',#954,#144);
#81=LINE('',#956,#145);
#82=LINE('',#959,#146);
#83=LINE('',#963,#147);
#84=LINE('',#965,#148);
#85=LINE('',#967,#149);
#86=LINE('',#969,#150);
#87=LINE('',#970,#151);
#88=LINE('',#971,#152);
#89=LINE('',#978,#153);
#90=LINE('',#983,#154);
#91=LINE('',#992,#155);
#92=LINE('',#994,#156);
#93=VECTOR('',#679,10.);
#94=VECTOR('',#680,10.);
#95=VECTOR('',#681,10.);
#96=VECTOR('',#682,10.);
#97=VECTOR('',#685,10.);
#98=VECTOR('',#686,10.);
#99=VECTOR('',#687,10.);
#100=VECTOR('',#690,10.);
#101=VECTOR('',#691,10.);
#102=VECTOR('',#692,10.);
#103=VECTOR('',#693,10.);
#104=VECTOR('',#694,10.);
#105=VECTOR('',#695,10.);
#106=VECTOR('',#704,10.);
#107=VECTOR('',#705,10.);
#108=VECTOR('',#706,10.);
#109=VECTOR('',#707,10.);
#110=VECTOR('',#708,10.);
#111=VECTOR('',#711,10.);
#112=VECTOR('',#712,10.);
#113=VECTOR('',#715,10.);
#114=VECTOR('',#718,10.);
#115=VECTOR('',#719,10.);
#116=VECTOR('',#720,10.);
#117=VECTOR('',#723,10.);
#118=VECTOR('',#724,10.);
#119=VECTOR('',#727,10.);
#120=VECTOR('',#728,10.);
#121=VECTOR('',#729,10.);
#122=VECTOR('',#732,10.);
#123=VECTOR('',#733,10.);
#124=VECTOR('',#736,2.00000000000001);
#125=VECTOR('',#743,10.);
#126=VECTOR('',#744,10.);
#127=VECTOR('',#747,10.);
#128=VECTOR('',#748,10.);
#129=VECTOR('',#749,10.);
#130=VECTOR('',#750,10.);
#131=VECTOR('',#751,10.);
#132=VECTOR('',#752,10.);
#133=VECTOR('',#755,10.);
#134=VECTOR('',#756,10.);
#135=VECTOR('',#759,10.);
#136=VECTOR('',#760,10.);
#137=VECTOR('',#761,10.);
#138=VECTOR('',#764,10.);
#139=VECTOR('',#767,10.);
#140=VECTOR('',#768,10.);
#141=VECTOR('',#771,10.);
#142=VECTOR('',#772,10.);
#143=VECTOR('',#775,10.);
#144=VECTOR('',#776,10.);
#145=VECTOR('',#779,10.);
#146=VECTOR('',#782,0.999999999999997);
#147=VECTOR('',#787,10.);
#148=VECTOR('',#788,10.);
#149=VECTOR('',#789,10.);
#150=VECTOR('',#790,10.);
#151=VECTOR('',#791,10.);
#152=VECTOR('',#792,10.);
#153=VECTOR('',#799,2.);
#154=VECTOR('',#806,2.);
#155=VECTOR('',#823,0.999999999999997);
#156=VECTOR('',#826,1.);
#157=FACE_OUTER_BOUND('',#192,.T.);
#158=FACE_OUTER_BOUND('',#193,.T.);
#159=FACE_OUTER_BOUND('',#194,.T.);
#160=FACE_OUTER_BOUND('',#195,.T.);
#161=FACE_OUTER_BOUND('',#196,.T.);
#162=FACE_OUTER_BOUND('',#197,.T.);
#163=FACE_OUTER_BOUND('',#201,.T.);
#164=FACE_OUTER_BOUND('',#202,.T.);
#165=FACE_OUTER_BOUND('',#203,.T.);
#166=FACE_OUTER_BOUND('',#204,.T.);
#167=FACE_OUTER_BOUND('',#205,.T.);
#168=FACE_OUTER_BOUND('',#206,.T.);
#169=FACE_OUTER_BOUND('',#207,.T.);
#170=FACE_OUTER_BOUND('',#208,.T.);
#171=FACE_OUTER_BOUND('',#209,.T.);
#172=FACE_OUTER_BOUND('',#210,.T.);
#173=FACE_OUTER_BOUND('',#211,.T.);
#174=FACE_OUTER_BOUND('',#212,.T.);
#175=FACE_OUTER_BOUND('',#213,.T.);
#176=FACE_OUTER_BOUND('',#214,.T.);
#177=FACE_OUTER_BOUND('',#215,.T.);
#178=FACE_OUTER_BOUND('',#216,.T.);
#179=FACE_OUTER_BOUND('',#217,.T.);
#180=FACE_OUTER_BOUND('',#218,.T.);
#181=FACE_OUTER_BOUND('',#219,.T.);
#182=FACE_OUTER_BOUND('',#223,.T.);
#183=FACE_OUTER_BOUND('',#224,.T.);
#184=FACE_OUTER_BOUND('',#225,.T.);
#185=FACE_OUTER_BOUND('',#226,.T.);
#186=FACE_OUTER_BOUND('',#227,.T.);
#187=FACE_OUTER_BOUND('',#228,.T.);
#188=FACE_OUTER_BOUND('',#229,.T.);
#189=FACE_OUTER_BOUND('',#230,.T.);
#190=FACE_OUTER_BOUND('',#231,.T.);
#191=FACE_OUTER_BOUND('',#232,.T.);
#192=EDGE_LOOP('',(#379));
#193=EDGE_LOOP('',(#380));
#194=EDGE_LOOP('',(#381));
#195=EDGE_LOOP('',(#382,#383,#384,#385));
#196=EDGE_LOOP('',(#386,#387,#388,#389));
#197=EDGE_LOOP('',(#390,#391,#392,#393,#394,#395,#396,#397));
#198=EDGE_LOOP('',(#398));
#199=EDGE_LOOP('',(#399));
#200=EDGE_LOOP('',(#400));
#201=EDGE_LOOP('',(#401,#402,#403,#404,#405,#406,#407));
#202=EDGE_LOOP('',(#408,#409,#410,#411,#412,#413));
#203=EDGE_LOOP('',(#414,#415,#416,#417));
#204=EDGE_LOOP('',(#418,#419,#420,#421));
#205=EDGE_LOOP('',(#422,#423,#424,#425,#426,#427));
#206=EDGE_LOOP('',(#428,#429,#430,#431));
#207=EDGE_LOOP('',(#432,#433,#434,#435));
#208=EDGE_LOOP('',(#436));
#209=EDGE_LOOP('',(#437,#438,#439,#440));
#210=EDGE_LOOP('',(#441,#442,#443,#444,#445,#446,#447,#448));
#211=EDGE_LOOP('',(#449,#450,#451,#452));
#212=EDGE_LOOP('',(#453,#454,#455,#456));
#213=EDGE_LOOP('',(#457,#458,#459,#460,#461,#462,#463));
#214=EDGE_LOOP('',(#464,#465,#466,#467));
#215=EDGE_LOOP('',(#468,#469,#470,#471));
#216=EDGE_LOOP('',(#472,#473,#474,#475));
#217=EDGE_LOOP('',(#476,#477,#478,#479));
#218=EDGE_LOOP('',(#480,#481,#482,#483));
#219=EDGE_LOOP('',(#484,#485,#486,#487,#488,#489,#490,#491,#492,#493,#494,
#495,#496,#497,#498,#499,#500,#501));
#220=EDGE_LOOP('',(#502));
#221=EDGE_LOOP('',(#503));
#222=EDGE_LOOP('',(#504));
#223=EDGE_LOOP('',(#505,#506,#507,#508));
#224=EDGE_LOOP('',(#509));
#225=EDGE_LOOP('',(#510,#511,#512,#513));
#226=EDGE_LOOP('',(#514));
#227=EDGE_LOOP('',(#515,#516,#517,#518));
#228=EDGE_LOOP('',(#519,#520,#521,#522));
#229=EDGE_LOOP('',(#523,#524));
#230=EDGE_LOOP('',(#525,#526,#527,#528));
#231=EDGE_LOOP('',(#529,#530,#531,#532));
#232=EDGE_LOOP('',(#533,#534,#535,#536));
#233=CIRCLE('',#614,0.999999999999996);
#234=CIRCLE('',#616,0.999999999999996);
#235=CIRCLE('',#618,1.);
#236=CIRCLE('',#622,2.00000000000001);
#237=CIRCLE('',#623,2.);
#238=CIRCLE('',#624,2.);
#239=CIRCLE('',#627,2.1);
#240=CIRCLE('',#633,2.00000000000001);
#241=CIRCLE('',#645,0.999999999999996);
#242=CIRCLE('',#647,0.999999999999996);
#243=CIRCLE('',#648,1.);
#244=CIRCLE('',#650,2.);
#245=CIRCLE('',#653,2.);
#246=CIRCLE('',#656,2.93197460544194);
#247=CIRCLE('',#657,0.649863962311088);
#248=VERTEX_POINT('',#831);
#249=VERTEX_POINT('',#834);
#250=VERTEX_POINT('',#837);
#251=VERTEX_POINT('',#840);
#252=VERTEX_POINT('',#841);
#253=VERTEX_POINT('',#843);
#254=VERTEX_POINT('',#845);
#255=VERTEX_POINT('',#849);
#256=VERTEX_POINT('',#851);
#257=VERTEX_POINT('',#855);
#258=VERTEX_POINT('',#857);
#259=VERTEX_POINT('',#859);
#260=VERTEX_POINT('',#861);
#261=VERTEX_POINT('',#863);
#262=VERTEX_POINT('',#866);
#263=VERTEX_POINT('',#868);
#264=VERTEX_POINT('',#870);
#265=VERTEX_POINT('',#873);
#266=VERTEX_POINT('',#875);
#267=VERTEX_POINT('',#877);
#268=VERTEX_POINT('',#879);
#269=VERTEX_POINT('',#883);
#270=VERTEX_POINT('',#885);
#271=VERTEX_POINT('',#887);
#272=VERTEX_POINT('',#891);
#273=VERTEX_POINT('',#892);
#274=VERTEX_POINT('',#897);
#275=VERTEX_POINT('',#901);
#276=VERTEX_POINT('',#903);
#277=VERTEX_POINT('',#907);
#278=VERTEX_POINT('',#911);
#279=VERTEX_POINT('',#916);
#280=VERTEX_POINT('',#920);
#281=VERTEX_POINT('',#922);
#282=VERTEX_POINT('',#924);
#283=VERTEX_POINT('',#926);
#284=VERTEX_POINT('',#928);
#285=VERTEX_POINT('',#932);
#286=VERTEX_POINT('',#936);
#287=VERTEX_POINT('',#937);
#288=VERTEX_POINT('',#944);
#289=VERTEX_POINT('',#948);
#290=VERTEX_POINT('',#952);
#291=VERTEX_POINT('',#958);
#292=VERTEX_POINT('',#962);
#293=VERTEX_POINT('',#964);
#294=VERTEX_POINT('',#966);
#295=VERTEX_POINT('',#968);
#296=VERTEX_POINT('',#972);
#297=VERTEX_POINT('',#974);
#298=VERTEX_POINT('',#977);
#299=VERTEX_POINT('',#982);
#300=EDGE_CURVE('',#248,#248,#233,.T.);
#301=EDGE_CURVE('',#249,#249,#234,.T.);
#302=EDGE_CURVE('',#250,#250,#235,.T.);
#303=EDGE_CURVE('',#251,#252,#29,.T.);
#304=EDGE_CURVE('',#252,#253,#30,.T.);
#305=EDGE_CURVE('',#253,#254,#31,.T.);
#306=EDGE_CURVE('',#254,#251,#32,.T.);
#307=EDGE_CURVE('',#254,#255,#33,.T.);
#308=EDGE_CURVE('',#255,#256,#34,.T.);
#309=EDGE_CURVE('',#256,#251,#35,.T.);
#310=EDGE_CURVE('',#253,#257,#36,.T.);
#311=EDGE_CURVE('',#257,#258,#37,.T.);
#312=EDGE_CURVE('',#258,#259,#38,.T.);
#313=EDGE_CURVE('',#260,#259,#39,.T.);
#314=EDGE_CURVE('',#261,#260,#40,.T.);
#315=EDGE_CURVE('',#261,#255,#41,.T.);
#316=EDGE_CURVE('',#262,#262,#236,.T.);
#317=EDGE_CURVE('',#263,#263,#237,.T.);
#318=EDGE_CURVE('',#264,#264,#238,.T.);
#319=EDGE_CURVE('',#265,#252,#42,.T.);
#320=EDGE_CURVE('',#266,#265,#43,.T.);
#321=EDGE_CURVE('',#266,#267,#44,.T.);
#322=EDGE_CURVE('',#268,#267,#45,.T.);
#323=EDGE_CURVE('',#268,#257,#46,.T.);
#324=EDGE_CURVE('',#269,#251,#47,.T.);
#325=EDGE_CURVE('',#270,#269,#48,.T.);
#326=EDGE_CURVE('',#270,#271,#239,.T.);
#327=EDGE_CURVE('',#265,#271,#49,.T.);
#328=EDGE_CURVE('',#272,#273,#50,.T.);
#329=EDGE_CURVE('',#273,#261,#51,.T.);
#330=EDGE_CURVE('',#260,#272,#52,.T.);
#331=EDGE_CURVE('',#259,#274,#53,.T.);
#332=EDGE_CURVE('',#274,#272,#54,.T.);
#333=EDGE_CURVE('',#275,#273,#55,.T.);
#334=EDGE_CURVE('',#275,#276,#56,.T.);
#335=EDGE_CURVE('',#276,#256,#57,.T.);
#336=EDGE_CURVE('',#277,#272,#58,.T.);
#337=EDGE_CURVE('',#277,#275,#59,.T.);
#338=EDGE_CURVE('',#262,#278,#60,.T.);
#339=EDGE_CURVE('',#278,#278,#240,.T.);
#340=EDGE_CURVE('',#279,#268,#61,.T.);
#341=EDGE_CURVE('',#279,#258,#62,.T.);
#342=EDGE_CURVE('',#280,#279,#63,.T.);
#343=EDGE_CURVE('',#281,#267,#64,.T.);
#344=EDGE_CURVE('',#282,#281,#65,.T.);
#345=EDGE_CURVE('',#283,#282,#66,.T.);
#346=EDGE_CURVE('',#284,#283,#67,.T.);
#347=EDGE_CURVE('',#280,#284,#68,.T.);
#348=EDGE_CURVE('',#274,#285,#69,.T.);
#349=EDGE_CURVE('',#277,#285,#70,.T.);
#350=EDGE_CURVE('',#286,#287,#71,.T.);
#351=EDGE_CURVE('',#286,#280,#72,.T.);
#352=EDGE_CURVE('',#287,#284,#73,.T.);
#353=EDGE_CURVE('',#285,#286,#74,.T.);
#354=EDGE_CURVE('',#288,#266,#75,.T.);
#355=EDGE_CURVE('',#288,#281,#76,.T.);
#356=EDGE_CURVE('',#289,#288,#77,.T.);
#357=EDGE_CURVE('',#289,#282,#78,.T.);
#358=EDGE_CURVE('',#290,#289,#79,.T.);
#359=EDGE_CURVE('',#290,#283,#80,.T.);
#360=EDGE_CURVE('',#287,#290,#81,.T.);
#361=EDGE_CURVE('',#248,#291,#82,.T.);
#362=EDGE_CURVE('',#291,#291,#241,.T.);
#363=EDGE_CURVE('',#271,#292,#83,.T.);
#364=EDGE_CURVE('',#293,#292,#84,.T.);
#365=EDGE_CURVE('',#293,#294,#85,.T.);
#366=EDGE_CURVE('',#295,#294,#86,.T.);
#367=EDGE_CURVE('',#295,#270,#87,.T.);
#368=EDGE_CURVE('',#269,#276,#88,.T.);
#369=EDGE_CURVE('',#296,#296,#242,.T.);
#370=EDGE_CURVE('',#297,#297,#243,.T.);
#371=EDGE_CURVE('',#263,#298,#89,.T.);
#372=EDGE_CURVE('',#298,#298,#244,.T.);
#373=EDGE_CURVE('',#264,#299,#90,.T.);
#374=EDGE_CURVE('',#299,#299,#245,.T.);
#375=EDGE_CURVE('',#292,#295,#246,.T.);
#376=EDGE_CURVE('',#294,#293,#247,.T.);
#377=EDGE_CURVE('',#249,#296,#91,.T.);
#378=EDGE_CURVE('',#250,#297,#92,.T.);
#379=ORIENTED_EDGE('',*,*,#300,.F.);
#380=ORIENTED_EDGE('',*,*,#301,.F.);
#381=ORIENTED_EDGE('',*,*,#302,.F.);
#382=ORIENTED_EDGE('',*,*,#303,.T.);
#383=ORIENTED_EDGE('',*,*,#304,.T.);
#384=ORIENTED_EDGE('',*,*,#305,.T.);
#385=ORIENTED_EDGE('',*,*,#306,.T.);
#386=ORIENTED_EDGE('',*,*,#307,.T.);
#387=ORIENTED_EDGE('',*,*,#308,.T.);
#388=ORIENTED_EDGE('',*,*,#309,.T.);
#389=ORIENTED_EDGE('',*,*,#306,.F.);
#390=ORIENTED_EDGE('',*,*,#307,.F.);
#391=ORIENTED_EDGE('',*,*,#305,.F.);
#392=ORIENTED_EDGE('',*,*,#310,.T.);
#393=ORIENTED_EDGE('',*,*,#311,.T.);
#394=ORIENTED_EDGE('',*,*,#312,.T.);
#395=ORIENTED_EDGE('',*,*,#313,.F.);
#396=ORIENTED_EDGE('',*,*,#314,.F.);
#397=ORIENTED_EDGE('',*,*,#315,.T.);
#398=ORIENTED_EDGE('',*,*,#316,.T.);
#399=ORIENTED_EDGE('',*,*,#317,.T.);
#400=ORIENTED_EDGE('',*,*,#318,.T.);
#401=ORIENTED_EDGE('',*,*,#304,.F.);
#402=ORIENTED_EDGE('',*,*,#319,.F.);
#403=ORIENTED_EDGE('',*,*,#320,.F.);
#404=ORIENTED_EDGE('',*,*,#321,.T.);
#405=ORIENTED_EDGE('',*,*,#322,.F.);
#406=ORIENTED_EDGE('',*,*,#323,.T.);
#407=ORIENTED_EDGE('',*,*,#310,.F.);
#408=ORIENTED_EDGE('',*,*,#303,.F.);
#409=ORIENTED_EDGE('',*,*,#324,.F.);
#410=ORIENTED_EDGE('',*,*,#325,.F.);
#411=ORIENTED_EDGE('',*,*,#326,.T.);
#412=ORIENTED_EDGE('',*,*,#327,.F.);
#413=ORIENTED_EDGE('',*,*,#319,.T.);
#414=ORIENTED_EDGE('',*,*,#328,.T.);
#415=ORIENTED_EDGE('',*,*,#329,.T.);
#416=ORIENTED_EDGE('',*,*,#314,.T.);
#417=ORIENTED_EDGE('',*,*,#330,.T.);
#418=ORIENTED_EDGE('',*,*,#313,.T.);
#419=ORIENTED_EDGE('',*,*,#331,.T.);
#420=ORIENTED_EDGE('',*,*,#332,.T.);
#421=ORIENTED_EDGE('',*,*,#330,.F.);
#422=ORIENTED_EDGE('',*,*,#308,.F.);
#423=ORIENTED_EDGE('',*,*,#315,.F.);
#424=ORIENTED_EDGE('',*,*,#329,.F.);
#425=ORIENTED_EDGE('',*,*,#333,.F.);
#426=ORIENTED_EDGE('',*,*,#334,.T.);
#427=ORIENTED_EDGE('',*,*,#335,.T.);
#428=ORIENTED_EDGE('',*,*,#328,.F.);
#429=ORIENTED_EDGE('',*,*,#336,.F.);
#430=ORIENTED_EDGE('',*,*,#337,.T.);
#431=ORIENTED_EDGE('',*,*,#333,.T.);
#432=ORIENTED_EDGE('',*,*,#316,.F.);
#433=ORIENTED_EDGE('',*,*,#338,.T.);
#434=ORIENTED_EDGE('',*,*,#339,.T.);
#435=ORIENTED_EDGE('',*,*,#338,.F.);
#436=ORIENTED_EDGE('',*,*,#339,.F.);
#437=ORIENTED_EDGE('',*,*,#311,.F.);
#438=ORIENTED_EDGE('',*,*,#323,.F.);
#439=ORIENTED_EDGE('',*,*,#340,.F.);
#440=ORIENTED_EDGE('',*,*,#341,.T.);
#441=ORIENTED_EDGE('',*,*,#342,.T.);
#442=ORIENTED_EDGE('',*,*,#340,.T.);
#443=ORIENTED_EDGE('',*,*,#322,.T.);
#444=ORIENTED_EDGE('',*,*,#343,.F.);
#445=ORIENTED_EDGE('',*,*,#344,.F.);
#446=ORIENTED_EDGE('',*,*,#345,.F.);
#447=ORIENTED_EDGE('',*,*,#346,.F.);
#448=ORIENTED_EDGE('',*,*,#347,.F.);
#449=ORIENTED_EDGE('',*,*,#332,.F.);
#450=ORIENTED_EDGE('',*,*,#348,.T.);
#451=ORIENTED_EDGE('',*,*,#349,.F.);
#452=ORIENTED_EDGE('',*,*,#336,.T.);
#453=ORIENTED_EDGE('',*,*,#350,.F.);
#454=ORIENTED_EDGE('',*,*,#351,.T.);
#455=ORIENTED_EDGE('',*,*,#347,.T.);
#456=ORIENTED_EDGE('',*,*,#352,.F.);
#457=ORIENTED_EDGE('',*,*,#331,.F.);
#458=ORIENTED_EDGE('',*,*,#312,.F.);
#459=ORIENTED_EDGE('',*,*,#341,.F.);
#460=ORIENTED_EDGE('',*,*,#342,.F.);
#461=ORIENTED_EDGE('',*,*,#351,.F.);
#462=ORIENTED_EDGE('',*,*,#353,.F.);
#463=ORIENTED_EDGE('',*,*,#348,.F.);
#464=ORIENTED_EDGE('',*,*,#354,.F.);
#465=ORIENTED_EDGE('',*,*,#355,.T.);
#466=ORIENTED_EDGE('',*,*,#343,.T.);
#467=ORIENTED_EDGE('',*,*,#321,.F.);
#468=ORIENTED_EDGE('',*,*,#356,.F.);
#469=ORIENTED_EDGE('',*,*,#357,.T.);
#470=ORIENTED_EDGE('',*,*,#344,.T.);
#471=ORIENTED_EDGE('',*,*,#355,.F.);
#472=ORIENTED_EDGE('',*,*,#358,.F.);
#473=ORIENTED_EDGE('',*,*,#359,.T.);
#474=ORIENTED_EDGE('',*,*,#345,.T.);
#475=ORIENTED_EDGE('',*,*,#357,.F.);
#476=ORIENTED_EDGE('',*,*,#360,.F.);
#477=ORIENTED_EDGE('',*,*,#352,.T.);
#478=ORIENTED_EDGE('',*,*,#346,.T.);
#479=ORIENTED_EDGE('',*,*,#359,.F.);
#480=ORIENTED_EDGE('',*,*,#300,.T.);
#481=ORIENTED_EDGE('',*,*,#361,.T.);
#482=ORIENTED_EDGE('',*,*,#362,.T.);
#483=ORIENTED_EDGE('',*,*,#361,.F.);
#484=ORIENTED_EDGE('',*,*,#320,.T.);
#485=ORIENTED_EDGE('',*,*,#327,.T.);
#486=ORIENTED_EDGE('',*,*,#363,.T.);
#487=ORIENTED_EDGE('',*,*,#364,.F.);
#488=ORIENTED_EDGE('',*,*,#365,.T.);
#489=ORIENTED_EDGE('',*,*,#366,.F.);
#490=ORIENTED_EDGE('',*,*,#367,.T.);
#491=ORIENTED_EDGE('',*,*,#325,.T.);
#492=ORIENTED_EDGE('',*,*,#368,.T.);
#493=ORIENTED_EDGE('',*,*,#334,.F.);
#494=ORIENTED_EDGE('',*,*,#337,.F.);
#495=ORIENTED_EDGE('',*,*,#349,.T.);
#496=ORIENTED_EDGE('',*,*,#353,.T.);
#497=ORIENTED_EDGE('',*,*,#350,.T.);
#498=ORIENTED_EDGE('',*,*,#360,.T.);
#499=ORIENTED_EDGE('',*,*,#358,.T.);
#500=ORIENTED_EDGE('',*,*,#356,.T.);
#501=ORIENTED_EDGE('',*,*,#354,.T.);
#502=ORIENTED_EDGE('',*,*,#362,.F.);
#503=ORIENTED_EDGE('',*,*,#369,.F.);
#504=ORIENTED_EDGE('',*,*,#370,.F.);
#505=ORIENTED_EDGE('',*,*,#317,.F.);
#506=ORIENTED_EDGE('',*,*,#371,.T.);
#507=ORIENTED_EDGE('',*,*,#372,.T.);
#508=ORIENTED_EDGE('',*,*,#371,.F.);
#509=ORIENTED_EDGE('',*,*,#372,.F.);
#510=ORIENTED_EDGE('',*,*,#318,.F.);
#511=ORIENTED_EDGE('',*,*,#373,.T.);
#512=ORIENTED_EDGE('',*,*,#374,.T.);
#513=ORIENTED_EDGE('',*,*,#373,.F.);
#514=ORIENTED_EDGE('',*,*,#374,.F.);
#515=ORIENTED_EDGE('',*,*,#364,.T.);
#516=ORIENTED_EDGE('',*,*,#375,.T.);
#517=ORIENTED_EDGE('',*,*,#366,.T.);
#518=ORIENTED_EDGE('',*,*,#376,.T.);
#519=ORIENTED_EDGE('',*,*,#375,.F.);
#520=ORIENTED_EDGE('',*,*,#363,.F.);
#521=ORIENTED_EDGE('',*,*,#326,.F.);
#522=ORIENTED_EDGE('',*,*,#367,.F.);
#523=ORIENTED_EDGE('',*,*,#376,.F.);
#524=ORIENTED_EDGE('',*,*,#365,.F.);
#525=ORIENTED_EDGE('',*,*,#301,.T.);
#526=ORIENTED_EDGE('',*,*,#377,.T.);
#527=ORIENTED_EDGE('',*,*,#369,.T.);
#528=ORIENTED_EDGE('',*,*,#377,.F.);
#529=ORIENTED_EDGE('',*,*,#302,.T.);
#530=ORIENTED_EDGE('',*,*,#378,.T.);
#531=ORIENTED_EDGE('',*,*,#370,.T.);
#532=ORIENTED_EDGE('',*,*,#378,.F.);
#533=ORIENTED_EDGE('',*,*,#309,.F.);
#534=ORIENTED_EDGE('',*,*,#335,.F.);
#535=ORIENTED_EDGE('',*,*,#368,.F.);
#536=ORIENTED_EDGE('',*,*,#324,.T.);
#537=PLANE('',#613);
#538=PLANE('',#615);
#539=PLANE('',#617);
#540=PLANE('',#619);
#541=PLANE('',#620);
#542=PLANE('',#621);
#543=PLANE('',#625);
#544=PLANE('',#626);
#545=PLANE('',#628);
#546=PLANE('',#629);
#547=PLANE('',#630);
#548=PLANE('',#631);
#549=PLANE('',#634);
#550=PLANE('',#635);
#551=PLANE('',#636);
#552=PLANE('',#637);
#553=PLANE('',#638);
#554=PLANE('',#639);
#555=PLANE('',#640);
#556=PLANE('',#641);
#557=PLANE('',#642);
#558=PLANE('',#643);
#559=PLANE('',#646);
#560=PLANE('',#651);
#561=PLANE('',#654);
#562=PLANE('',#659);
#563=PLANE('',#662);
#564=ADVANCED_FACE('',(#157),#537,.F.);
#565=ADVANCED_FACE('',(#158),#538,.F.);
#566=ADVANCED_FACE('',(#159),#539,.F.);
#567=ADVANCED_FACE('',(#160),#540,.T.);
#568=ADVANCED_FACE('',(#161),#541,.T.);
#569=ADVANCED_FACE('',(#162,#23,#24,#25),#542,.T.);
#570=ADVANCED_FACE('',(#163),#543,.F.);
#571=ADVANCED_FACE('',(#164),#544,.T.);
#572=ADVANCED_FACE('',(#165),#545,.T.);
#573=ADVANCED_FACE('',(#166),#546,.T.);
#574=ADVANCED_FACE('',(#167),#547,.T.);
#575=ADVANCED_FACE('',(#168),#548,.T.);
#576=ADVANCED_FACE('',(#169),#17,.F.);
#577=ADVANCED_FACE('',(#170),#549,.T.);
#578=ADVANCED_FACE('',(#171),#550,.F.);
#579=ADVANCED_FACE('',(#172),#551,.F.);
#580=ADVANCED_FACE('',(#173),#552,.T.);
#581=ADVANCED_FACE('',(#174),#553,.F.);
#582=ADVANCED_FACE('',(#175),#554,.F.);
#583=ADVANCED_FACE('',(#176),#555,.F.);
#584=ADVANCED_FACE('',(#177),#556,.F.);
#585=ADVANCED_FACE('',(#178),#557,.F.);
#586=ADVANCED_FACE('',(#179),#558,.F.);
#587=ADVANCED_FACE('',(#180),#18,.F.);
#588=ADVANCED_FACE('',(#181,#26,#27,#28),#559,.F.);
#589=ADVANCED_FACE('',(#182),#19,.F.);
#590=ADVANCED_FACE('',(#183),#560,.T.);
#591=ADVANCED_FACE('',(#184),#20,.F.);
#592=ADVANCED_FACE('',(#185),#561,.T.);
#593=ADVANCED_FACE('',(#186),#15,.F.);
#594=ADVANCED_FACE('',(#187),#16,.F.);
#595=ADVANCED_FACE('',(#188),#562,.T.);
#596=ADVANCED_FACE('',(#189),#21,.F.);
#597=ADVANCED_FACE('',(#190),#22,.F.);
#598=ADVANCED_FACE('',(#191),#563,.T.);
#599=CLOSED_SHELL('',(#564,#565,#566,#567,#568,#569,#570,#571,#572,#573,
#574,#575,#576,#577,#578,#579,#580,#581,#582,#583,#584,#585,#586,#587,#588,
#589,#590,#591,#592,#593,#594,#595,#596,#597,#598));
#600=DERIVED_UNIT_ELEMENT(#602,1.);
#601=DERIVED_UNIT_ELEMENT(#1001,-3.);
#602=(
MASS_UNIT()
NAMED_UNIT(*)
SI_UNIT(.KILO.,.GRAM.)
);
#603=DERIVED_UNIT((#600,#601));
#604=MEASURE_REPRESENTATION_ITEM('density measure',
POSITIVE_RATIO_MEASURE(7850.),#603);
#605=PROPERTY_DEFINITION_REPRESENTATION(#610,#607);
#606=PROPERTY_DEFINITION_REPRESENTATION(#611,#608);
#607=REPRESENTATION('material name',(#609),#998);
#608=REPRESENTATION('density',(#604),#998);
#609=DESCRIPTIVE_REPRESENTATION_ITEM('Steel','Steel');
#610=PROPERTY_DEFINITION('material property','material name',#1008);
#611=PROPERTY_DEFINITION('material property','density of part',#1008);
#612=AXIS2_PLACEMENT_3D('',#829,#663,#664);
#613=AXIS2_PLACEMENT_3D('',#830,#665,#666);
#614=AXIS2_PLACEMENT_3D('',#832,#667,#668);
#615=AXIS2_PLACEMENT_3D('',#833,#669,#670);
#616=AXIS2_PLACEMENT_3D('',#835,#671,#672);
#617=AXIS2_PLACEMENT_3D('',#836,#673,#674);
#618=AXIS2_PLACEMENT_3D('',#838,#675,#676);
#619=AXIS2_PLACEMENT_3D('',#839,#677,#678);
#620=AXIS2_PLACEMENT_3D('',#848,#683,#684);
#621=AXIS2_PLACEMENT_3D('',#854,#688,#689);
#622=AXIS2_PLACEMENT_3D('',#867,#696,#697);
#623=AXIS2_PLACEMENT_3D('',#869,#698,#699);
#624=AXIS2_PLACEMENT_3D('',#871,#700,#701);
#625=AXIS2_PLACEMENT_3D('',#872,#702,#703);
#626=AXIS2_PLACEMENT_3D('',#882,#709,#710);
#627=AXIS2_PLACEMENT_3D('',#888,#713,#714);
#628=AXIS2_PLACEMENT_3D('',#890,#716,#717);
#629=AXIS2_PLACEMENT_3D('',#896,#721,#722);
#630=AXIS2_PLACEMENT_3D('',#900,#725,#726);
#631=AXIS2_PLACEMENT_3D('',#906,#730,#731);
#632=AXIS2_PLACEMENT_3D('',#910,#734,#735);
#633=AXIS2_PLACEMENT_3D('',#913,#737,#738);
#634=AXIS2_PLACEMENT_3D('',#914,#739,#740);
#635=AXIS2_PLACEMENT_3D('',#915,#741,#742);
#636=AXIS2_PLACEMENT_3D('',#919,#745,#746);
#637=AXIS2_PLACEMENT_3D('',#931,#753,#754);
#638=AXIS2_PLACEMENT_3D('',#935,#757,#758);
#639=AXIS2_PLACEMENT_3D('',#941,#762,#763);
#640=AXIS2_PLACEMENT_3D('',#943,#765,#766);
#641=AXIS2_PLACEMENT_3D('',#947,#769,#770);
#642=AXIS2_PLACEMENT_3D('',#951,#773,#774);
#643=AXIS2_PLACEMENT_3D('',#955,#777,#778);
#644=AXIS2_PLACEMENT_3D('',#957,#780,#781);
#645=AXIS2_PLACEMENT_3D('',#960,#783,#784);
#646=AXIS2_PLACEMENT_3D('',#961,#785,#786);
#647=AXIS2_PLACEMENT_3D('',#973,#793,#794);
#648=AXIS2_PLACEMENT_3D('',#975,#795,#796);
#649=AXIS2_PLACEMENT_3D('',#976,#797,#798);
#650=AXIS2_PLACEMENT_3D('',#979,#800,#801);
#651=AXIS2_PLACEMENT_3D('',#980,#802,#803);
#652=AXIS2_PLACEMENT_3D('',#981,#804,#805);
#653=AXIS2_PLACEMENT_3D('',#984,#807,#808);
#654=AXIS2_PLACEMENT_3D('',#985,#809,#810);
#655=AXIS2_PLACEMENT_3D('',#986,#811,#812);
#656=AXIS2_PLACEMENT_3D('',#987,#813,#814);
#657=AXIS2_PLACEMENT_3D('',#988,#815,#816);
#658=AXIS2_PLACEMENT_3D('',#989,#817,#818);
#659=AXIS2_PLACEMENT_3D('',#990,#819,#820);
#660=AXIS2_PLACEMENT_3D('',#991,#821,#822);
#661=AXIS2_PLACEMENT_3D('',#993,#824,#825);
#662=AXIS2_PLACEMENT_3D('',#995,#827,#828);
#663=DIRECTION('axis',(0.,0.,1.));
#664=DIRECTION('refdir',(1.,0.,0.));
#665=DIRECTION('center_axis',(3.96904731303503E-15,1.,3.04512118989766E-15));
#666=DIRECTION('ref_axis',(-1.,3.96904731303503E-15,0.));
#667=DIRECTION('center_axis',(3.96904731303503E-15,1.,3.04512118989766E-15));
#668=DIRECTION('ref_axis',(-1.,2.96059473233375E-15,-4.57018895958774E-30));
#669=DIRECTION('center_axis',(3.96904731303503E-15,1.,3.04512118989766E-15));
#670=DIRECTION('ref_axis',(-1.,3.96904731303503E-15,0.));
#671=DIRECTION('center_axis',(3.96904731303503E-15,1.,3.04512118989766E-15));
#672=DIRECTION('ref_axis',(-1.,2.96059473233375E-15,-4.57018895958773E-30));
#673=DIRECTION('center_axis',(3.96904731303503E-15,1.,3.04512118989766E-15));
#674=DIRECTION('ref_axis',(-1.,3.96904731303503E-15,-3.23297430887853E-59));
#675=DIRECTION('center_axis',(3.96904731303503E-15,1.,3.04512118989766E-15));
#676=DIRECTION('ref_axis',(-1.,2.96059473233375E-15,-4.57018895958773E-30));
#677=DIRECTION('center_axis',(6.82975429780791E-16,0.257662650560333,0.966234939601246));
#678=DIRECTION('ref_axis',(1.,0.,-7.06841992344685E-16));
#679=DIRECTION('',(1.,-2.65065747129258E-15,5.02898827078395E-30));
#680=DIRECTION('',(1.08976383709725E-15,0.966234939601246,-0.257662650560333));
#681=DIRECTION('',(-1.,2.65065747129258E-15,-5.02898827078395E-30));
#682=DIRECTION('',(-0.249513144620726,-0.935674292327707,0.249513144620723));
#683=DIRECTION('center_axis',(-0.966234939601245,0.257662650560336,3.73236129289326E-16));
#684=DIRECTION('ref_axis',(3.8627885826956E-16,0.,1.));
#685=DIRECTION('',(8.79114262259318E-30,1.44854571851086E-15,-1.));
#686=DIRECTION('',(-0.257662650560336,-0.966234939601245,-1.43031503619014E-15));
#687=DIRECTION('',(-8.79114262259318E-30,-1.44854571851086E-15,1.));
#688=DIRECTION('center_axis',(2.65065747129258E-15,1.,1.44854571851086E-15));
#689=DIRECTION('ref_axis',(-1.,2.65065747129258E-15,-5.02898827078395E-30));
#690=DIRECTION('',(4.22942104619108E-15,1.44854571851085E-15,-1.));
#691=DIRECTION('',(1.,-2.65065747129258E-15,5.02898827078395E-30));
#692=DIRECTION('',(-9.17794891257506E-30,-1.44854571851086E-15,1.));
#693=DIRECTION('',(-1.,2.65065747129258E-15,-5.02898827078395E-30));
#694=DIRECTION('',(1.18423789293349E-15,-1.44854571851086E-15,1.));
#695=DIRECTION('',(-1.,2.65065747129258E-15,2.4668278509995E-16));
#696=DIRECTION('center_axis',(-2.65065747129258E-15,-1.,-1.44854571851086E-15));
#697=DIRECTION('ref_axis',(-1.,0.,-1.28765108175139E-29));
#698=DIRECTION('center_axis',(-2.65065747129258E-15,-1.,-1.44854571851086E-15));
#699=DIRECTION('ref_axis',(-1.,2.96059473233375E-15,-4.11138964839151E-30));
#700=DIRECTION('center_axis',(-2.65065747129258E-15,-1.,-1.44854571851086E-15));
#701=DIRECTION('ref_axis',(-1.,2.96059473233375E-15,-4.11138964839151E-30));
#702=DIRECTION('center_axis',(-1.,0.,-4.22942104619108E-15));
#703=DIRECTION('ref_axis',(-4.22942104619108E-15,-2.86701384736742E-16,
1.));
#704=DIRECTION('',(-6.26080083508741E-30,1.,1.48029736616688E-15));
#705=DIRECTION('',(-4.22942104619108E-15,-1.44854571851085E-15,1.));
#706=DIRECTION('',(0.,1.,0.));
#707=DIRECTION('',(-4.22942104619108E-15,0.,1.));
#708=DIRECTION('',(3.33066907387547E-15,1.,1.11022302462516E-15));
#709=DIRECTION('center_axis',(-8.95274954414891E-30,-1.48029736616688E-15,
1.));
#710=DIRECTION('ref_axis',(1.,-2.65065747129258E-15,5.02898827078395E-30));
#711=DIRECTION('',(2.96059473233375E-15,1.,1.48029736616688E-15));
#712=DIRECTION('',(-1.,2.65065747129258E-15,-5.02898827078395E-30));
#713=DIRECTION('center_axis',(8.95274954414891E-30,1.48029736616688E-15,
-1.));
#714=DIRECTION('ref_axis',(1.,-1.31838984174238E-15,-6.16356608750922E-16));
#715=DIRECTION('',(-1.,2.65065747129258E-15,-5.02898827078395E-30));
#716=DIRECTION('center_axis',(0.966234939601248,0.257662650560327,-7.71015899662778E-16));
#717=DIRECTION('ref_axis',(-7.97959034663936E-16,0.,-1.));
#718=DIRECTION('',(-1.18423789293349E-15,1.44854571851086E-15,-1.));
#719=DIRECTION('',(-0.257662650560327,0.966234939601248,1.43031503619014E-15));
#720=DIRECTION('',(0.249513144620722,-0.935674292327708,0.249513144620722));
#721=DIRECTION('center_axis',(6.82975429780791E-16,0.257662650560333,0.966234939601246));
#722=DIRECTION('ref_axis',(1.,0.,-7.06841992344685E-16));
#723=DIRECTION('',(-1.99245981277597E-30,-0.966234939601246,0.257662650560333));
#724=DIRECTION('',(1.,-2.65065747129258E-15,5.02898827078395E-30));
#725=DIRECTION('center_axis',(9.04574539851711E-30,1.48029736616688E-15,
-1.));
#726=DIRECTION('ref_axis',(-1.,2.48470229409797E-15,-5.36764713685509E-30));
#727=DIRECTION('',(2.96059473233375E-15,1.,1.48029736616687E-15));
#728=DIRECTION('',(-1.,2.65065747129258E-15,2.4668278509995E-16));
#729=DIRECTION('',(2.96059473233375E-15,1.,1.48029736616688E-15));
#730=DIRECTION('center_axis',(1.,-2.96059473233375E-15,-1.1842378929335E-15));
#731=DIRECTION('ref_axis',(-1.18423789293349E-15,2.04066466497761E-15,-1.));
#732=DIRECTION('',(2.96059473233375E-15,1.,1.48029736616687E-15));
#733=DIRECTION('',(-1.18423789293349E-15,2.04066466497761E-15,-1.));
#734=DIRECTION('center_axis',(0.,-1.,-2.96059473233375E-15));
#735=DIRECTION('ref_axis',(-1.,0.,-1.28765108175139E-29));
#736=DIRECTION('',(0.,-1.,-2.96059473233375E-15));
#737=DIRECTION('center_axis',(-2.65065747129258E-15,-1.,-2.04066466497761E-15));
#738=DIRECTION('ref_axis',(-1.,2.65065747129258E-15,-5.02898827078395E-30));
#739=DIRECTION('center_axis',(2.65065747129258E-15,1.,2.04066466497761E-15));
#740=DIRECTION('ref_axis',(-1.,2.65065747129258E-15,-5.02898827078395E-30));
#741=DIRECTION('center_axis',(7.97180922580767E-30,1.11022302462516E-15,
-1.));
#742=DIRECTION('ref_axis',(-1.,2.65065747129258E-15,-5.02898827078395E-30));
#743=DIRECTION('',(-1.,0.,-7.97180922580767E-30));
#744=DIRECTION('',(3.33066907387547E-15,1.,1.11022302462516E-15));
#745=DIRECTION('center_axis',(0.,1.,0.));
#746=DIRECTION('ref_axis',(0.,0.,1.));
#747=DIRECTION('',(4.35332248583621E-30,0.,-1.));
#748=DIRECTION('',(1.,-2.65065747129258E-15,5.02898827078395E-30));
#749=DIRECTION('',(-9.47146667583717E-30,-1.67059032343589E-15,1.));
#750=DIRECTION('',(-1.,2.65065747129258E-15,-5.02898827078395E-30));
#751=DIRECTION('',(1.04524069941784E-29,2.04066466497761E-15,-1.));
#752=DIRECTION('',(1.,-2.65065747129258E-15,5.02898827078395E-30));
#753=DIRECTION('center_axis',(-8.95274954414891E-30,-1.48029736616688E-15,
1.));
#754=DIRECTION('ref_axis',(1.,-2.65065747129258E-15,5.02898827078395E-30));
#755=DIRECTION('',(1.14468783373592E-44,-1.,-1.48029736616688E-15));
#756=DIRECTION('',(-1.,2.65065747129258E-15,-5.02898827078395E-30));
#757=DIRECTION('center_axis',(-5.02898827078395E-30,0.,1.));
#758=DIRECTION('ref_axis',(1.,-2.65065747129258E-15,5.02898827078395E-30));
#759=DIRECTION('',(1.,-2.65065747129258E-15,5.02898827078395E-30));
#760=DIRECTION('',(0.,1.,0.));
#761=DIRECTION('',(0.,1.,0.));
#762=DIRECTION('center_axis',(1.,0.,7.73282355220293E-30));
#763=DIRECTION('ref_axis',(7.73282355220293E-30,1.01466131621249E-15,-1.));
#764=DIRECTION('',(7.73282355220293E-30,1.44854571851086E-15,-1.));
#765=DIRECTION('center_axis',(-5.02898827078395E-30,0.,1.));
#766=DIRECTION('ref_axis',(1.,-2.65065747129258E-15,5.02898827078395E-30));
#767=DIRECTION('',(1.,-2.65065747129258E-15,5.02898827078395E-30));
#768=DIRECTION('',(0.,1.,0.));
#769=DIRECTION('center_axis',(-1.,0.,-9.47146667583717E-30));
#770=DIRECTION('ref_axis',(-9.47146667583717E-30,-1.67059032343589E-15,
1.));
#771=DIRECTION('',(-9.47146667583717E-30,-1.44854571851086E-15,1.));
#772=DIRECTION('',(0.,1.,0.));
#773=DIRECTION('center_axis',(5.02898827078395E-30,0.,-1.));
#774=DIRECTION('ref_axis',(-1.,2.65065747129258E-15,-5.02898827078395E-30));
#775=DIRECTION('',(-1.,2.65065747129258E-15,-5.02898827078395E-30));
#776=DIRECTION('',(0.,1.,0.));
#777=DIRECTION('center_axis',(1.,0.,1.04524069941784E-29));
#778=DIRECTION('ref_axis',(1.04524069941784E-29,2.04066466497761E-15,-1.));
#779=DIRECTION('',(1.04524069941784E-29,1.44854571851086E-15,-1.));
#780=DIRECTION('center_axis',(2.96059473233375E-15,1.,1.48029736616687E-15));
#781=DIRECTION('ref_axis',(-1.,2.96059473233375E-15,-4.57018895958774E-30));
#782=DIRECTION('',(-2.96059473233375E-15,-1.,-1.48029736616687E-15));
#783=DIRECTION('center_axis',(-2.65065747129258E-15,-1.,-2.04066466497761E-15));
#784=DIRECTION('ref_axis',(-1.,2.65065747129258E-15,-5.02898827078395E-30));
#785=DIRECTION('center_axis',(2.65065747129258E-15,1.,1.44854571851086E-15));
#786=DIRECTION('ref_axis',(-1.,2.65065747129258E-15,-5.02898827078395E-30));
#787=DIRECTION('',(0.0871557427476574,1.10585499802008E-15,-0.996194698091746));
#788=DIRECTION('',(0.675590207615661,-3.35048401325009E-15,0.737277336810124));
#789=DIRECTION('',(-1.,2.65065747129258E-15,6.16356608750923E-16));
#790=DIRECTION('',(0.675590207615661,-3.35048401325009E-15,-0.737277336810124));
#791=DIRECTION('',(0.0871557427476589,-1.8430916633668E-15,0.996194698091746));
#792=DIRECTION('',(9.66765473950541E-30,1.74460519174424E-15,-1.));
#793=DIRECTION('center_axis',(-2.65065747129258E-15,-1.,-2.04066466497761E-15));
#794=DIRECTION('ref_axis',(-1.,2.65065747129258E-15,-5.02898827078395E-30));
#795=DIRECTION('center_axis',(-2.65065747129258E-15,-1.,-2.04066466497761E-15));
#796=DIRECTION('ref_axis',(-1.,2.65065747129258E-15,-5.02898827078395E-30));
#797=DIRECTION('center_axis',(-2.96059473233375E-15,-1.,-2.96059473233375E-15));
#798=DIRECTION('ref_axis',(-1.,2.96059473233375E-15,-4.11138964839151E-30));
#799=DIRECTION('',(-2.96059473233375E-15,-1.,-2.96059473233375E-15));
#800=DIRECTION('center_axis',(-2.65065747129258E-15,-1.,-2.04066466497761E-15));
#801=DIRECTION('ref_axis',(-1.,2.65065747129258E-15,-5.02898827078395E-30));
#802=DIRECTION('center_axis',(2.65065747129258E-15,1.,2.04066466497761E-15));
#803=DIRECTION('ref_axis',(-1.,2.65065747129258E-15,-5.02898827078395E-30));
#804=DIRECTION('center_axis',(-2.96059473233375E-15,-1.,-2.96059473233375E-15));
#805=DIRECTION('ref_axis',(-1.,2.96059473233375E-15,-4.11138964839151E-30));
#806=DIRECTION('',(-2.96059473233375E-15,-1.,-2.96059473233375E-15));
#807=DIRECTION('center_axis',(-2.65065747129258E-15,-1.,-2.04066466497761E-15));
#808=DIRECTION('ref_axis',(-1.,2.65065747129258E-15,-5.02898827078395E-30));
#809=DIRECTION('center_axis',(2.65065747129258E-15,1.,2.04066466497761E-15));
#810=DIRECTION('ref_axis',(-1.,2.65065747129258E-15,-5.02898827078395E-30));
#811=DIRECTION('center_axis',(0.,0.,1.));
#812=DIRECTION('ref_axis',(1.,-2.39199514500416E-16,-1.11827470831767E-16));
#813=DIRECTION('center_axis',(0.,0.,1.));
#814=DIRECTION('ref_axis',(1.,0.,0.));
#815=DIRECTION('center_axis',(-6.16356608750922E-16,2.6436978893728E-16,
-1.));
#816=DIRECTION('ref_axis',(1.,-1.31838984174238E-15,-6.16356608750922E-16));
#817=DIRECTION('center_axis',(-7.40148683083438E-16,0.,-1.));
#818=DIRECTION('ref_axis',(1.,-1.31838984174238E-15,-6.16356608750922E-16));
#819=DIRECTION('center_axis',(6.16356608750922E-16,-2.6436978893728E-16,
1.));
#820=DIRECTION('ref_axis',(1.,-1.31838984174238E-15,-6.16356608750922E-16));
#821=DIRECTION('center_axis',(2.96059473233375E-15,1.,1.48029736616688E-15));
#822=DIRECTION('ref_axis',(-1.,2.96059473233375E-15,-4.57018895958773E-30));
#823=DIRECTION('',(-2.96059473233375E-15,-1.,-1.48029736616688E-15));
#824=DIRECTION('center_axis',(2.96059473233375E-15,1.,1.48029736616688E-15));
#825=DIRECTION('ref_axis',(-1.,2.96059473233375E-15,-4.57018895958773E-30));
#826=DIRECTION('',(-2.96059473233375E-15,-1.,-1.48029736616688E-15));
#827=DIRECTION('center_axis',(-1.,2.96059473233375E-15,-4.50258579882532E-30));
#828=DIRECTION('ref_axis',(-9.66765473950541E-30,-1.74460519174424E-15,
1.));
#829=CARTESIAN_POINT('',(0.,0.,0.));
#830=CARTESIAN_POINT('Origin',(84.6508616018866,62.7999999999999,-55.4));
#831=CARTESIAN_POINT('',(85.6508616018866,62.7999999999999,-55.4));
#832=CARTESIAN_POINT('Origin',(84.6508616018866,62.7999999999999,-55.4));
#833=CARTESIAN_POINT('Origin',(58.2508616018867,62.8,-55.4));
#834=CARTESIAN_POINT('',(59.2508616018867,62.8,-55.4));
#835=CARTESIAN_POINT('Origin',(58.2508616018867,62.8,-55.4));
#836=CARTESIAN_POINT('Origin',(39.8912740218441,62.8,-55.4));
#837=CARTESIAN_POINT('',(40.8912740218441,62.8,-55.4));
#838=CARTESIAN_POINT('Origin',(39.8912740218441,62.8,-55.4));
#839=CARTESIAN_POINT('Origin',(42.3811709168547,64.5,-47.3));
#840=CARTESIAN_POINT('',(35.6912740218441,63.,-46.9));
#841=CARTESIAN_POINT('',(66.0508616018866,62.9999999999999,-46.9));
#842=CARTESIAN_POINT('',(42.3811709168547,63.,-46.9));
#843=CARTESIAN_POINT('',(66.0508616018866,65.9999999999999,-47.7));
#844=CARTESIAN_POINT('',(66.0508616018866,62.6109958506223,-46.796265560166));
#845=CARTESIAN_POINT('',(36.4912740218441,66.,-47.7));
#846=CARTESIAN_POINT('',(42.3811709168547,66.,-47.7));
#847=CARTESIAN_POINT('',(36.4912740218441,66.,-47.7));
#848=CARTESIAN_POINT('Origin',(36.0912740218441,64.5,-58.15));
#849=CARTESIAN_POINT('',(36.4912740218441,66.,-61.9));
#850=CARTESIAN_POINT('',(36.4912740218441,66.,-58.15));
#851=CARTESIAN_POINT('',(35.6912740218441,63.,-61.9));
#852=CARTESIAN_POINT('',(36.4061151033393,65.680654055607,-61.9));
#853=CARTESIAN_POINT('',(35.6912740218441,63.,-58.15));
#854=CARTESIAN_POINT('Origin',(49.0710678118654,65.9999999999999,-54.4));
#855=CARTESIAN_POINT('',(66.0508616018866,65.9999999999999,-54.9));
#856=CARTESIAN_POINT('',(66.0508616018867,65.9999999999999,-54.65));
#857=CARTESIAN_POINT('',(76.8508616018866,65.9999999999999,-54.9));
#858=CARTESIAN_POINT('',(62.960964706876,65.9999999999999,-54.9));
#859=CARTESIAN_POINT('',(76.8508616018866,65.9999999999999,-47.7));
#860=CARTESIAN_POINT('',(76.8508616018866,65.9999999999999,-50.65));
#861=CARTESIAN_POINT('',(86.8912740218441,65.9999999999998,-47.7));
#862=CARTESIAN_POINT('',(42.3811709168547,66.,-47.7));
#863=CARTESIAN_POINT('',(86.891274021844,65.9999999999999,-61.9));
#864=CARTESIAN_POINT('',(86.8912740218441,65.9999999999998,-50.65));
#865=CARTESIAN_POINT('',(87.691274021844,65.9999999999999,-61.9));
#866=CARTESIAN_POINT('',(86.6508616018866,65.9999999999999,-55.4));
#867=CARTESIAN_POINT('Origin',(84.6508616018866,65.9999999999999,-55.4));
#868=CARTESIAN_POINT('',(41.8912740218441,66.,-55.4));
#869=CARTESIAN_POINT('Origin',(39.8912740218441,66.,-55.4));
#870=CARTESIAN_POINT('',(60.2508616018867,65.9999999999999,-55.4));
#871=CARTESIAN_POINT('Origin',(58.2508616018867,65.9999999999999,-55.4));
#872=CARTESIAN_POINT('Origin',(66.0508616018866,59.9999999999999,-49.));
#873=CARTESIAN_POINT('',(66.0508616018866,59.9999999999999,-46.9));
#874=CARTESIAN_POINT('',(66.0508616018866,59.9999999999999,-46.9));
#875=CARTESIAN_POINT('',(66.0508616018866,59.9999999999999,-49.));
#876=CARTESIAN_POINT('',(66.0508616018866,59.9999999999999,-51.7));
#877=CARTESIAN_POINT('',(66.0508616018866,61.5999999999999,-49.));
#878=CARTESIAN_POINT('',(66.0508616018866,59.9999999999999,-49.));
#879=CARTESIAN_POINT('',(66.0508616018866,61.5999999999999,-54.9));
#880=CARTESIAN_POINT('',(66.0508616018866,61.5999999999999,-53.9));
#881=CARTESIAN_POINT('',(66.0508616018866,59.9999999999999,-54.9));
#882=CARTESIAN_POINT('Origin',(35.6912740218441,60.,-46.9));
#883=CARTESIAN_POINT('',(35.6912740218441,60.,-46.9));
#884=CARTESIAN_POINT('',(35.6912740218441,60.,-46.9));
#885=CARTESIAN_POINT('',(46.9710678118655,59.9999999999999,-46.9000000000001));
#886=CARTESIAN_POINT('',(62.4508616018866,59.9999999999999,-46.9));
#887=CARTESIAN_POINT('',(51.1710678118655,59.9999999999999,-46.9000000000001));
#888=CARTESIAN_POINT('Origin',(49.0710678118655,59.9999999999999,-46.9));
#889=CARTESIAN_POINT('',(62.4508616018866,59.9999999999999,-46.9));
#890=CARTESIAN_POINT('Origin',(87.291274021844,64.4999999999998,-50.65));
#891=CARTESIAN_POINT('',(87.691274021844,62.9999999999998,-46.9));
#892=CARTESIAN_POINT('',(87.691274021844,62.9999999999999,-61.9));
#893=CARTESIAN_POINT('',(87.691274021844,62.9999999999998,-50.65));
#894=CARTESIAN_POINT('',(87.026861991306,65.4915451145174,-61.9));
#895=CARTESIAN_POINT('',(86.8912740218441,65.9999999999998,-47.7));
#896=CARTESIAN_POINT('Origin',(42.3811709168547,64.5,-47.3));
#897=CARTESIAN_POINT('',(76.8508616018866,62.9999999999999,-46.9));
#898=CARTESIAN_POINT('',(76.8508616018866,62.3495850622406,-46.7265560165975));
#899=CARTESIAN_POINT('',(42.3811709168547,63.,-46.9));
#900=CARTESIAN_POINT('Origin',(62.4508616018866,59.9999999999999,-61.9));
#901=CARTESIAN_POINT('',(87.691274021844,59.9999999999999,-61.9));
#902=CARTESIAN_POINT('',(87.691274021844,59.9999999999999,-61.9));
#903=CARTESIAN_POINT('',(35.6912740218441,60.,-61.9));
#904=CARTESIAN_POINT('',(87.691274021844,59.9999999999999,-61.9));
#905=CARTESIAN_POINT('',(35.6912740218441,60.,-61.9));
#906=CARTESIAN_POINT('Origin',(87.691274021844,59.9999999999998,-46.9));
#907=CARTESIAN_POINT('',(87.691274021844,59.9999999999998,-46.9));
#908=CARTESIAN_POINT('',(87.691274021844,59.9999999999998,-46.9));
#909=CARTESIAN_POINT('',(87.691274021844,59.9999999999998,-46.9));
#910=CARTESIAN_POINT('Origin',(84.6508616018866,65.9999999999999,-55.4));
#911=CARTESIAN_POINT('',(86.6508616018866,62.9999999999999,-55.4));
#912=CARTESIAN_POINT('',(86.6508616018866,65.9999999999999,-55.4));
#913=CARTESIAN_POINT('Origin',(84.6508616018866,62.9999999999999,-55.4));
#914=CARTESIAN_POINT('Origin',(84.6508616018866,62.9999999999999,-55.4));
#915=CARTESIAN_POINT('Origin',(76.8508616018866,59.9999999999999,-54.9));
#916=CARTESIAN_POINT('',(76.8508616018866,61.5999999999999,-54.9));
#917=CARTESIAN_POINT('',(74.1508616018866,61.5999999999999,-54.9));
#918=CARTESIAN_POINT('',(76.8508616018866,59.9999999999999,-54.9));
#919=CARTESIAN_POINT('Origin',(71.4508616018866,61.5999999999999,-52.9));
#920=CARTESIAN_POINT('',(76.8508616018866,61.5999999999999,-49.));
#921=CARTESIAN_POINT('',(76.8508616018866,61.5999999999999,-49.9));
#922=CARTESIAN_POINT('',(62.7508616018866,61.5999999999999,-49.));
#923=CARTESIAN_POINT('',(80.1508616018866,61.5999999999999,-49.));
#924=CARTESIAN_POINT('',(62.7508616018866,61.5999999999999,-58.9));
#925=CARTESIAN_POINT('',(62.7508616018866,61.5999999999999,-58.9));
#926=CARTESIAN_POINT('',(80.1508616018866,61.5999999999999,-58.9));
#927=CARTESIAN_POINT('',(80.1508616018866,61.5999999999999,-58.9));
#928=CARTESIAN_POINT('',(80.1508616018866,61.5999999999999,-49.));
#929=CARTESIAN_POINT('',(80.1508616018866,61.5999999999999,-46.9));
#930=CARTESIAN_POINT('',(80.1508616018866,61.5999999999999,-49.));
#931=CARTESIAN_POINT('Origin',(35.6912740218441,60.,-46.9));
#932=CARTESIAN_POINT('',(76.8508616018866,59.9999999999999,-46.9));
#933=CARTESIAN_POINT('',(76.8508616018866,59.9999999999999,-46.9));
#934=CARTESIAN_POINT('',(62.4508616018866,59.9999999999999,-46.9));
#935=CARTESIAN_POINT('Origin',(76.8508616018866,59.9999999999999,-49.));
#936=CARTESIAN_POINT('',(76.8508616018866,59.9999999999999,-49.));
#937=CARTESIAN_POINT('',(80.1508616018866,59.9999999999999,-49.));
#938=CARTESIAN_POINT('',(62.960964706876,59.9999999999999,-49.));
#939=CARTESIAN_POINT('',(76.8508616018866,59.9999999999999,-49.));
#940=CARTESIAN_POINT('',(80.1508616018866,59.9999999999999,-49.));
#941=CARTESIAN_POINT('Origin',(76.8508616018866,59.9999999999999,-46.9));
#942=CARTESIAN_POINT('',(76.8508616018866,59.9999999999999,-50.65));
#943=CARTESIAN_POINT('Origin',(62.7508616018866,59.9999999999999,-49.));
#944=CARTESIAN_POINT('',(62.7508616018866,59.9999999999999,-49.));
#945=CARTESIAN_POINT('',(55.910964706876,59.9999999999999,-49.));
#946=CARTESIAN_POINT('',(62.7508616018866,59.9999999999999,-49.));
#947=CARTESIAN_POINT('Origin',(62.7508616018866,59.9999999999999,-58.9));
#948=CARTESIAN_POINT('',(62.7508616018866,59.9999999999999,-58.9));
#949=CARTESIAN_POINT('',(62.7508616018866,59.9999999999999,-56.65));
#950=CARTESIAN_POINT('',(62.7508616018866,59.9999999999999,-58.9));
#951=CARTESIAN_POINT('Origin',(80.1508616018866,59.9999999999999,-58.9));
#952=CARTESIAN_POINT('',(80.1508616018866,59.9999999999999,-58.9));
#953=CARTESIAN_POINT('',(64.610964706876,59.9999999999999,-58.9));
#954=CARTESIAN_POINT('',(80.1508616018866,59.9999999999999,-58.9));
#955=CARTESIAN_POINT('Origin',(80.1508616018866,59.9999999999999,-49.));
#956=CARTESIAN_POINT('',(80.1508616018866,59.9999999999999,-51.7));
#957=CARTESIAN_POINT('Origin',(84.6508616018866,59.9999999999999,-55.4));
#958=CARTESIAN_POINT('',(85.6508616018866,59.9999999999999,-55.4));
#959=CARTESIAN_POINT('',(85.6508616018866,59.9999999999999,-55.4));
#960=CARTESIAN_POINT('Origin',(84.6508616018866,59.9999999999999,-55.4));
#961=CARTESIAN_POINT('Origin',(49.0710678118654,60.,-54.4));
#962=CARTESIAN_POINT('',(52.0030424173074,59.9999999999999,-56.4095132547708));
#963=CARTESIAN_POINT('',(51.1710678118655,59.9999999999999,-46.9000000000001));
#964=CARTESIAN_POINT('',(49.7209317741765,60.,-58.9000000000001));
#965=CARTESIAN_POINT('',(50.861987095742,60.,-57.6547566273854));
#966=CARTESIAN_POINT('',(48.4212038495544,60.,-58.9000000000001));
#967=CARTESIAN_POINT('',(49.0710678118654,60.,-58.9000000000001));
#968=CARTESIAN_POINT('',(46.1390932064235,60.,-56.4095132547708));
#969=CARTESIAN_POINT('',(47.2801485279889,60.,-57.6547566273854));
#970=CARTESIAN_POINT('',(46.9710678118655,60.,-46.9000000000001));
#971=CARTESIAN_POINT('',(35.6912740218441,60.,-46.9));
#972=CARTESIAN_POINT('',(59.2508616018866,59.9999999999999,-55.4));
#973=CARTESIAN_POINT('Origin',(58.2508616018866,59.9999999999999,-55.4));
#974=CARTESIAN_POINT('',(40.8912740218441,60.,-55.4));
#975=CARTESIAN_POINT('Origin',(39.8912740218441,60.,-55.4));
#976=CARTESIAN_POINT('Origin',(39.8912740218441,66.,-55.4));
#977=CARTESIAN_POINT('',(41.8912740218441,63.,-55.4));
#978=CARTESIAN_POINT('',(41.8912740218441,66.,-55.4));
#979=CARTESIAN_POINT('Origin',(39.8912740218441,63.,-55.4));
#980=CARTESIAN_POINT('Origin',(39.8912740218441,63.,-55.4));
#981=CARTESIAN_POINT('Origin',(58.2508616018867,65.9999999999999,-55.4));
#982=CARTESIAN_POINT('',(60.2508616018867,62.9999999999999,-55.4));
#983=CARTESIAN_POINT('',(60.2508616018867,65.9999999999999,-55.4));
#984=CARTESIAN_POINT('Origin',(58.2508616018867,62.9999999999999,-55.4));
#985=CARTESIAN_POINT('Origin',(58.2508616018867,62.9999999999999,-55.4));
#986=CARTESIAN_POINT('Origin',(49.0710678118654,59.9999999999999,-57.6547566273854));
#987=CARTESIAN_POINT('Origin',(49.0710678118654,59.9999999999999,-56.4095132547708));
#988=CARTESIAN_POINT('Origin',(49.0710678118654,59.9999999999999,-58.9000000000001));
#989=CARTESIAN_POINT('Origin',(49.0710678118655,59.9999999999999,-46.9000000000001));
#990=CARTESIAN_POINT('Origin',(49.0710678118654,61.05,-58.9000000000001));
#991=CARTESIAN_POINT('Origin',(58.2508616018866,59.9999999999999,-55.4));
#992=CARTESIAN_POINT('',(59.2508616018866,59.9999999999999,-55.4));
#993=CARTESIAN_POINT('Origin',(39.8912740218441,60.,-55.4));
#994=CARTESIAN_POINT('',(40.8912740218441,60.,-55.4));
#995=CARTESIAN_POINT('Origin',(35.6912740218441,60.,-61.9));
#996=UNCERTAINTY_MEASURE_WITH_UNIT(LENGTH_MEASURE(0.01),#1000,
'DISTANCE_ACCURACY_VALUE',
'Maximum model space distance between geometric entities at asserted c
onnectivities');
#997=UNCERTAINTY_MEASURE_WITH_UNIT(LENGTH_MEASURE(0.01),#1000,
'DISTANCE_ACCURACY_VALUE',
'Maximum model space distance between geometric entities at asserted c
onnectivities');
#998=(
GEOMETRIC_REPRESENTATION_CONTEXT(3)
GLOBAL_UNCERTAINTY_ASSIGNED_CONTEXT((#996))
GLOBAL_UNIT_ASSIGNED_CONTEXT((#1000,#1002,#1003))
REPRESENTATION_CONTEXT('','3D')
);
#999=(
GEOMETRIC_REPRESENTATION_CONTEXT(3)
GLOBAL_UNCERTAINTY_ASSIGNED_CONTEXT((#997))
GLOBAL_UNIT_ASSIGNED_CONTEXT((#1000,#1002,#1003))
REPRESENTATION_CONTEXT('','3D')
);
#1000=(
LENGTH_UNIT()
NAMED_UNIT(*)
SI_UNIT(.MILLI.,.METRE.)
);
#1001=(
LENGTH_UNIT()
NAMED_UNIT(*)
SI_UNIT($,.METRE.)
);
#1002=(
NAMED_UNIT(*)
PLANE_ANGLE_UNIT()
SI_UNIT($,.RADIAN.)
);
#1003=(
NAMED_UNIT(*)
SI_UNIT($,.STERADIAN.)
SOLID_ANGLE_UNIT()
);
#1004=SHAPE_DEFINITION_REPRESENTATION(#1005,#1006);
#1005=PRODUCT_DEFINITION_SHAPE('',$,#1008);
#1006=SHAPE_REPRESENTATION('',(#612),#998);
#1007=PRODUCT_DEFINITION_CONTEXT('part definition',#1012,'design');
#1008=PRODUCT_DEFINITION('Sheilded Wire Clamp','Sheilded Wire Clamp',#1009,
#1007);
#1009=PRODUCT_DEFINITION_FORMATION('',$,#1014);
#1010=PRODUCT_RELATED_PRODUCT_CATEGORY('Sheilded Wire Clamp',
'Sheilded Wire Clamp',(#1014));
#1011=APPLICATION_PROTOCOL_DEFINITION('international standard',
'automotive_design',2009,#1012);
#1012=APPLICATION_CONTEXT(
'Core Data for Automotive Mechanical Design Process');
#1013=PRODUCT_CONTEXT('part definition',#1012,'mechanical');
#1014=PRODUCT('Sheilded Wire Clamp','Sheilded Wire Clamp',$,(#1013));
#1015=PRESENTATION_STYLE_ASSIGNMENT((#1016));
#1016=SURFACE_STYLE_USAGE(.BOTH.,#1017);
#1017=SURFACE_SIDE_STYLE('',(#1018));
#1018=SURFACE_STYLE_FILL_AREA(#1019);
#1019=FILL_AREA_STYLE('Steel - Satin',(#1020));
#1020=FILL_AREA_STYLE_COLOUR('Steel - Satin',#1021);
#1021=COLOUR_RGB('Steel - Satin',0.627450980392157,0.627450980392157,0.627450980392157);
ENDSEC;
END-ISO-10303-21;
